<?xml version="1.0" encoding="UTF-8" standalone="no"?>
<svg xmlns:rdf="http://www.w3.org/1999/02/22-rdf-syntax-ns#" xmlns="http://www.w3.org/2000/svg" xml:space="preserve" height="62.459" viewBox="0 0 61.81802 62.459229" width="61.818" version="1.1" xmlns:cc="http://creativecommons.org/ns#" xmlns:xlink="http://www.w3.org/1999/xlink" xmlns:dc="http://purl.org/dc/elements/1.1/"><g transform="matrix(1.25 0 0 -1.25 -51.234 833.84)"><g transform="translate(.36340 .36340)"><path d="m36.775 0.2793-20.076 0.058594s2.2128 1.4301 2.0352 4.1758c-0.07721 1.1934-7.5851 18.365-9.4531 22.123-1.8682 3.7583-6.0527 8.0273-6.0527 8.0273h12.891c-2.765 0.214-15.842 2.904-15.842 2.904v17.941s16.085-3.9961 20.93-3.9961l0.0957 0.39844c1.0836 4.1852 4.0203 8.7966 14.742 9.252 10.925 0.46402 14.312-8.0371 14.312-8.0371 0.59452 0.12942 10.184 2.3789 10.184 2.3789l-0.018-17.536s-6.2357-1.7316-9.1953-2.2148c0 0-0.08539-1.3388 0.11328-3.3027 0.19161-1.8966 4.6699-7.0508 4.6699-7.0508h-13.207l-8.2539-20.93c-0.67241-1.8364 2.125-4.1914 2.125-4.1914z" transform="matrix(.8 0 0 -.8 40.987 666.27)" stroke="#085299" stroke-width="0.554" fill="#c4122e"/><path d="m68.009 643.02s-2.0862-0.55859-2.092-2.8251c-0.0081-3.202-0.07725-3.3735-0.03688-11.297 0 0-0.17213-3.5821 3.9096-3.5674 4.1547 0.0149 4.1707 3.0316 4.1746 3.3208 0.0079 0.63936 0 11.207 0 11.207s-0.06487 2.5214-1.9618 3.1395l-3.9936 0.0218z" stroke="#c4122e" stroke-width=".42749" fill="none"/><path d="m83.713 644.6c-1.0508-0.81519-2.2689-2.4339-2.554-3.3031-0.40738-1.0864-0.35247-1.8061-0.35234-3.1362l0.01494-10.408s0.28572-9.1084-11.029-8.9722c-8.9908 0.10815-10.617 5.5357-10.766 8.769l-0.02853 12.146s0.08573 1.5345-0.62837 2.4814c-1.2939 1.7156-2.3949 2.4368-2.3949 2.4368h11.597l0.4129-1.4586s-2.0959-0.62797-2.1016-2.9176c-0.0082-3.2345-0.0786-3.408-0.03755-11.412 0 0-0.17523-3.6184 3.9784-3.6037 4.228 0.0152 4.2445 3.0628 4.2481 3.3546 0.0082 0.64597 0 11.321 0 11.321s-0.06581 2.5471-1.9963 3.1714l0.03755 1.5446 11.599-0.0138z" fill="#fff"/><path d="m83.713 644.6c-1.0508-0.81519-2.2689-2.4339-2.554-3.3031-0.40738-1.0864-0.35247-1.8061-0.35234-3.1362l0.01494-10.408s0.28572-9.1084-11.029-8.9722c-8.9908 0.10815-10.617 5.5357-10.766 8.769l-0.02853 12.146s0.08573 1.5345-0.62837 2.4814c-1.2939 1.7156-2.3949 2.4368-2.3949 2.4368h11.597l0.4129-1.4586s-2.0959-0.62797-2.1016-2.9176c-0.0082-3.2345-0.0786-3.408-0.03755-11.412 0 0-0.17523-3.6184 3.9784-3.6037 4.228 0.0152 4.2445 3.0628 4.2481 3.3546 0.0082 0.64597 0 11.321 0 11.321s-0.06581 2.5471-1.9963 3.1714l0.03755 1.5446 11.599-0.0138z" stroke="#c4122e" stroke-width=".43339" fill="none"/><path d="m69.971 619.87c-6.7289 0-9.9915 3.0303-9.9915 9.2073v10.412c0 2.1365-0.54385 3.4575-1.7334 4.0401h8.3943c-1.2574-0.66044-1.6991-1.8647-1.6991-4.0401v-10.217c0-3.3409 1.7333-5.1668 5.0298-5.1668 3.2967 0 4.9961 1.7868 4.9961 5.1668v10.217c0 2.0201-0.27213 3.2632-1.6994 4.0401h8.4285c-1.1555-0.54383-1.7675-1.9424-1.7675-4.0401v-10.412c0-6.177-3.2284-9.2073-9.9578-9.2073" fill="#085299"/><path d="m66.471 649.6-4.3403 11.578-4.0373-11.578h8.3776zm0.99941-4.9795-10.519 0.001c-0.59607-1.5541-0.09569-2.6479-0.09569-2.6479 0.13512-0.55366 0.96213-1.4812 1.4843-2.0227l-11.527 0.0201c1.0444 1.2496 2.2481 2.8074 3.0611 4.4902l7.7117 18.235c0.10497 0.33552 0.14696 0.64797 0.06298 0.9838-0.03499 0.13984-0.08775 0.49967-0.59149 1.0516l10.847-0.002c-0.43739-0.46998-0.59607-0.98411-0.62043-1.1444-0.02692-0.17753-0.04199-0.52798 0.09286-0.87181l7.1739-18.355c0.78435-1.6625 2.0466-3.1869 3.2763-4.3853l-11.376 0.005s1.0718 0.98319 1.3857 2.0313c0.37333 1.2469-0.36633 2.6104-0.36633 2.6104" fill="#fff"/><path d="m66.471 649.6-4.3403 11.578-4.0373-11.578h8.3776zm0.99941-4.9795-10.519 0.001c-0.59607-1.5541-0.09569-2.6479-0.09569-2.6479 0.13512-0.55366 0.96213-1.4812 1.4843-2.0227l-11.527 0.0201c1.0444 1.2496 2.2481 2.8074 3.0611 4.4902l7.7117 18.235c0.10497 0.33552 0.14696 0.64797 0.06298 0.9838-0.03499 0.13984-0.08775 0.49967-0.59149 1.0516l10.847-0.002c-0.43739-0.46998-0.59607-0.98411-0.62043-1.1444-0.02692-0.17753-0.04199-0.52798 0.09286-0.87181l7.1739-18.355c0.78435-1.6625 2.0466-3.1869 3.2763-4.3853l-11.376 0.005s1.0718 0.98319 1.3857 2.0313c0.37333 1.2469-0.36633 2.6104-0.36633 2.6104z" stroke="#c4122e" stroke-width=".43339" fill="none"/><g><path d="m62.307 661.49-5.1084-13.123h10.369l-5.261 13.123z" fill="#fff"/><path stroke-linejoin="round" d="m62.126 658.24-2.6201-7.5561 5.5086-0.006-2.8885 7.5626z" stroke="#c4122e" stroke-width=".43360" fill="#c4122e"/><path d="m66.468 649.78-4.3402 10.692-4.0373-10.692h8.3775zm9.1853-8.8842h-7.6039c0.50468 0.61536 0.7402 1.1538 0.7402 1.8461 0 0.5769-0.13458 1.1153-0.23552 1.3846l-0.57198 1.4999h-11.54l-0.43739-1.1153c-0.13458-0.34614-0.23552-0.92303-0.23552-1.4999 0-0.92303 0.26916-1.6153 0.77385-2.1153h-7.7048c1.0094 1.1538 1.6823 2.5384 2.3552 4.1152l7.0992 16.884c0.20187 0.46152 0.30281 0.84611 0.30281 1.0769 0 0.15384-0.06729 0.3846-0.23552 0.80766h8.3102c-0.13458-0.3846-0.26916-0.65382-0.26916-0.84612s0.10094-0.53843 0.30281-1.0384l6.5945-16.884c0.63927-1.6153 1.4131-2.9999 2.3552-4.1152" fill="#085299"/><path d="m88.204 623.71s-12.276 3.3472-22.829 3.3472-22.856-3.2978-22.856-3.2978l-0.01292 11.189s12.528 3.1297 23.081 3.1297 22.625-3.1949 22.625-3.1949l-0.0074-11.173z" stroke="#005299" stroke-width=".43360" fill="#fff"/><path d="m87.038 625.36s-11.863 2.9803-21.615 2.9803c-9.7516 0-21.856-2.9803-21.856-2.9803l0.0027 8.5324s12.102 2.9226 21.853 2.9226c9.7518 0 21.618-2.9226 21.618-2.9226l-0.003-8.5324z" stroke="#005299" stroke-width="0.416" fill="#085299"/><path d="m30.08 39.041-3.1895 0.02539c0.31913 0.16365 0.45756 0.49394 0.46094 1.0547l0.02539 4.0391c0.0034 0.57112-0.12141 0.91515-0.44726 1.084l2.2441-0.01758c-0.318-0.153-0.467-0.504-0.47-1.076l-0.0078-1.2676 0.62695-0.0039c0.54506-0.0042 0.97259 0.22124 1.3301 0.7168 0.37548 0.51612 0.55073 0.94043 0.55273 1.252 0.000841 0.135-0.05198 0.23789-0.16016 0.36328l2.3164-0.01758c-0.51108-0.39056-0.75979-0.99088-1.0996-1.5801-0.24797-0.43401-0.48653-0.7865-0.95117-1.0215 0.95251-0.21538 1.4664-0.87188 1.4609-1.7441-0.0049-0.82035-0.40878-1.4504-1.0371-1.6738-0.40072-0.1423-0.95497-0.13781-1.6543-0.13281zm3.668 0.06836c0.31896 0.18519 0.43199 0.53511 0.40625 1.1055l-0.18359 4.0117c-0.02591 0.57036-0.16785 0.90621-0.50195 1.0527l2.2402 0.13281c-0.31896-0.18538-0.43998-0.53511-0.41406-1.1055l0.18359-4.0137c0.02591-0.57036 0.17762-0.90426 0.51172-1.0508l-2.2422-0.13281zm-7.9746 0.05273-5.6504 0.51367c0.32855 0.13691 0.48653 0.45486 0.52539 1.0137l0.28125 4.0469c0.03886 0.55901-0.07273 0.91363-0.37891 1.0977l5.733-0.523c-0.07066-0.09788-0.11339-0.17714-0.11914-0.25977-0.01077-0.15538 0.16464-0.66128 0.40234-1.5684-0.4559 0.52055-1.1543 0.84623-2.0508 0.92773l-2.263 0.205-0.107-1.553 2.082-0.189c0.24444-0.02231 0.435-0.16389 0.53711-0.40234l0.39258-0.91211c-0.17546 0.09922-0.39595 0.20342-0.71289 0.23242l-2.373 0.21484-0.09961-1.4375 2.1465-0.19531c0.73347-0.06674 1.3735-0.02156 2.0098 0.34766-0.24494-0.76939-0.41898-1.1807-0.42773-1.3047-0.0049-0.07249 0.01736-0.15686 0.07422-0.25586zm13.492 0.29297c-1.6145 0.10666-2.6768 1.2214-2.8203 2.9766-0.16234 1.9851 0.84799 3.2503 2.7656 3.4551 0.84114 0.08975 1.5082-0.04836 1.9062-0.0059 0.11759 0.0127 0.24191 0.05822 0.39062 0.13672l0.13672-1.666c-0.76645 0.33519-1.4369 0.50414-2.1152 0.43164-1.203-0.12846-1.7767-0.91888-1.666-2.2734 0.1006-1.2301 0.90501-2.0308 2.0898-1.9043 0.61504 0.06576 1.1412 0.30818 1.6328 0.76758l0.60547-1.4785c-0.11995 0.01875-0.21418 0.04125-0.30469 0.03125-0.35278-0.03789-0.97392-0.3545-1.8965-0.45312-0.25213-0.02694-0.49396-0.03281-0.72461-0.01758zm-19.799 0.2832-2.6914 0.41211c0.05585 0.08557 0.09098 0.15444 0.09961 0.22656 0.0049 0.04115-0.0053 0.11602-0.02148 0.21289l-0.81641 4.6094-1.8164-4.1641c-0.05147-0.12826-0.07969-0.20839-0.08594-0.25976-0.0071-0.06191 0.0018-0.13536 0.03711-0.22461l-2.6367 0.4043c0.33309 0.10614 0.51771 0.43406 0.58398 1l0.4668 3.9824c0.06645 0.56612-0.03689 0.93795-0.33398 1.1406l2.0723-0.31641c-0.33343-0.10615-0.51965-0.43388-0.58594-1l-0.48438-4.1289 2.082 4.5332c0.05047 0.11809 0.07728 0.19691 0.08203 0.23828 0.0037 0.03076-0.0073 0.09466-0.02344 0.19141l1.5312-0.23438c-0.05434-0.07519-0.08064-0.14333-0.08789-0.20508-0.0059-0.05135 0.0034-0.11614 0.01953-0.21289l1.0039-4.8789 0.46875 3.9922c0.05821 0.4942 0.02907 0.79205-0.2793 1.1328l2.0898-0.32031c-0.35429-0.20748-0.47102-0.49321-0.53125-1.0078l-0.4668-3.9844c-0.06645-0.56612 0.01939-0.92426 0.32422-1.1387zm10.656 0.36133c0.86301-0.0067 1.2265 0.1774 1.2305 0.8418 0.004 0.66459-0.35769 0.86359-1.2207 0.87109l-1.4434 0.01172-0.01172-1.7129 1.4453-0.01172zm15.256 0.23828c0.03075 0.12059 0.04236 0.18348 0.03711 0.22461-0.0076 0.06154-0.04771 0.16077-0.11719 0.27539l-2.4609 4.2031c-0.23249 0.3921-0.45726 0.73363-0.76562 0.99805l2.06 0.337c-0.11827-0.15556-0.16733-0.35288-0.13672-0.59961 0.01919-0.15422 0.06584-0.30412 0.11328-0.39062l0.1543-0.2793 3.084 0.50195 0.10352 0.42578c0.018 0.07654 0.03675 0.22664 0.01758 0.38086-0.02305 0.18499-0.10432 0.31845-0.25977 0.46094l2.0332 0.33203c-0.21449-0.33921-0.37722-0.74334-0.49414-1.2031l-1.1992-4.8008c-0.03714-0.1423-0.05325-0.23756-0.04687-0.28906 0.0064-0.05135 0.05082-0.11797 0.09961-0.21484l-2.2207-0.36133zm4.873 0.81055c0.29574 0.23037 0.3688 0.5924 0.2793 1.1543l-0.63086 3.9531c-0.08966 0.5619-0.26751 0.87433-0.61524 0.9707l2.0996 0.4375c-0.31947-0.25634-0.36786-0.59438-0.28711-1.1582l0.55664-4.0742 1.498 5.1992c0.02824 0.11155 0.04544 0.17775 0.03906 0.21875-0.0066 0.04076-0.0341 0.09962-0.0918 0.17188l2.1367 0.44531c-0.08445-0.16538-0.07712-0.33442-0.04297-0.54883l0.71289-4.4629c0.0033-0.02038 0.0062-0.04078 0.0078-0.05078 0.07318-0.45979 0.13812-0.80582 0.5957-0.95312l-2.0469-0.42578c0.28853 0.21825 0.38442 0.5963 0.29492 1.1582l-0.60352 3.9062-1.3438-5.0195c-0.02841-0.11154-0.04153-0.19753-0.03516-0.23828 0.0051-0.03061 0.03102-0.07858 0.07813-0.14258l-2.6016-0.54102zm-3.9766 0.23633 0.80469 3.0469-2.2402-0.36328 1.4355-2.6836zm-37.399 0.12-2.209 0.449c0.062075 0.10341 0.089328 0.16042 0.095703 0.20117 0.00959 0.06154-0.0005063 0.16908-0.035156 0.30273l-1.1895 4.8711c-0.11389 0.45555-0.23615 0.85938-0.45703 1.2207l2.0488-0.41406c-0.15477-0.10576-0.25494-0.27611-0.29297-0.52148-0.023889-0.15345-0.021537-0.31311 0-0.41211l0.0704-0.32 3.0684-0.621 0.2134 0.367c0.03785 0.06615 0.09737 0.20221 0.12109 0.35547 0.0286 0.18404-0.01242 0.34049-0.12109 0.53125l2.0215-0.41016c-0.29625-0.24556-0.56035-0.57201-0.79688-0.9668l-2.4501-4.133c-0.0742-0.122-0.1149-0.209-0.1231-0.26-0.0079-0.051 0.0154-0.131 0.0352-0.24zm-1.0703 1.125 1.5957 2.6074-2.2266 0.45117 0.63086-3.0586z" transform="matrix(.8 0 0 -.8 40.987 666.27)" fill="#fff"/></g></g></g></svg>
