<?xml version="1.0" encoding="UTF-8" standalone="no"?>
<svg xmlns:rdf="http://www.w3.org/1999/02/22-rdf-syntax-ns#" xmlns="http://www.w3.org/2000/svg" xml:space="preserve" height="193.35" viewBox="0 0 332.875 193.3457" width="332.88" version="1.1" xmlns:cc="http://creativecommons.org/ns#" xmlns:xlink="http://www.w3.org/1999/xlink" xmlns:dc="http://purl.org/dc/elements/1.1/"><g transform="matrix(1.25 0 0 -1.25 -394.95 234.52)"><g style="" transform="translate(.62512 .62512)"><path d="m472.31 91.871 28.488 29.756v-35.568c-7.837 2.581-21.995 5.812-28.488 5.812m18.817 75.668h34.167 9.437 27.55v-116.13h-53.859c-9.507 12.271-27.409 23.604-47.432 29.129 0.023 0 18.454-2.175 30.358-5.521 8.349-2.347 16.341-4.986 23.506-7.885v89.497l-100.73-105.22h-34.163-20.633l111.17 116.13h20.633zm-60.724 0h20.633l-124.63-130.18h93.714l30.243 31.59c17.901-3.656 41.769-15.952 50.539-31.59h75.433v144.24h-132.44l-13.491-14.055z" fill="#003252"/><path d="m157.83 2.8281-27.467 28.619h25.814l-155.79 162.73h132.44l37.279-38.943c21.108 5.095 47.192 19.488 56.52 36.119l1.582 2.8242h103.05v-191.35h-173.44zm2.4785 5.5254h165.55v180.29h-94.291c-10.962-19.548-40.798-34.918-63.174-39.488l-37.803 39.488h-117.14l155.79-162.72h-25.791l16.863-17.57zm59.04 17.568-138.96 145.16h42.703l125.92-131.53 13.051-13.631h-42.709zm54.504 0.002v137.76c-6.15-3.9112-14.857-8.2152-24.846-12.254-8.9562-3.6238-18.947-6.9237-29.383-9.8574-14.88-4.1825-37.919-6.9004-37.947-6.9004 25.029 6.9062 47.407 21.073 59.291 36.412h67.322v-145.16h-34.438zm-42.41 57.388-35.61 37.198c8.1163 0 25.813 4.0374 35.609 7.2637v-44.459z" transform="matrix(.8 0 0 -.8 315.65 188.28)" fill="#fff"/><path d="m193.56 25.922-138.96 145.16h25.791l138.96-145.16h-25.791zm68.5 0.002-13.051 13.629v111.87c9.9888 4.0388 18.696 8.3427 24.846 12.254v-137.76h-11.795z" transform="matrix(.8 0 0 -.8 315.65 188.28)" fill="#a5acaf"/></g></g></svg>
