<svg version="1.1" width="175" height="150" viewBox="0 0 246 24.326" xmlns="http://www.w3.org/2000/svg">
 <g transform="matrix(1.3333 0 0 -1.3333 -1189.6 895.29)">
  <path d="m1076.3 671.09-85.847-0.00147 2.9736-2.5386c-0.56964-1.1791-1.6515-4.2594-1.7329-4.8896-0.16276-0.91941-0.0608-1.5797 0.33399-2.0801 0.82937-1.0389 2.8267-1.1812 6.5874-1.3682 1.0995-0.0744 2.2303-0.13982 2.9004-0.18311-0.087-0.23201-0.2191-0.54631-0.3853-0.96533-0.2008-0.49346-0.3457-0.74306-0.479-0.82617-0.1316-0.0866-0.3776-0.08789-0.77929-0.08789h-4.3066l0.40723 1.1909-5.9253-0.00293s-0.736-1.8614-0.79834-2.0449h-0.00733c-0.46923-1.1722-0.69067-2.0828-0.25781-2.7407 0.49693-0.74279 1.5897-0.88582 3.709-0.91699 0.34629-5e-3 3.3218-0.01025 5.9502-0.01025 2.1609-2e-3 4.2154-0.00296 4.3608-0.01026h0.0191l0.0234 0.00293c2.3859 0.17315 2.9517 0.98601 3.9317 3.2681 1.3384 3.1582 2.0711 4.8915 1.4253 6.0117-0.4779 0.82418-1.5713 1.1207-3.1831 1.3198-0.4173 0.0571-4.8833 0.40135-6.6373 0.53467 0.12986 0.30474 0.54492 1.3037 0.54492 1.3037l-0.49365 0.49805h14.936l-5.105-12.959h6.2124l4.9145 12.442-0.5112 0.50683 5.2837-0.00146-5.0581-12.917 6.3999-0.03077 1.7241 4.4619 5.2793-0.0293-1.7285-4.4165 6.2168-0.00586 5.061 12.924 5.2998 0.00293-4.9804-12.923h6.2109l4.793 12.428-0.5127 0.51562h5.8008l-5.1167-12.936h17.125l1.6524 4.5557h-10.736l0.9068 2.3115h6.7104l1.5498 3.9829h-6.7046l0.6241 1.5791-0.5039 0.50976 10.146-0.00732 1.7768 4.5425zm-182.33-0.0044 4.0444-3.6182-5.4609-13.843s12.726-0.00147 13.844-0.00147c3.7296 0 4.9949 0.88795 6.1758 4.3301l0.01025 0.02051 0.00879 0.02051c0.35841 1.5167 0.50665 3.1582-0.8335 4.2905 1.9756 0.6822 2.5891 2.3747 3.1934 4.0195l0.06885 0.19922 0.00439 0.00879 0.00586 0.01172c0.45018 1.3973 0.38589 2.51-0.18896 3.3047l2.0566-1.7783c-1.1064-2.8309-3.6425-9.2811-3.7793-9.5962l-0.00879-0.01026-0.00586-0.01025c-0.6441-1.6362-0.95982-2.9046-0.40576-3.7808 0.40863-0.6441 1.2173-0.97052 2.606-1.0606h12.253 0.00586 0.02929c2.5972 3e-3 3.2824 1.0805 4.3403 3.7192 0.16968 0.42421 2.6483 6.7273 2.8301 7.1982 0.95922 2.4206 1.548 4.0324 1.1411 5.0903l2.5078-2.1606-5.4199-13.83 6.3354 0.00293 6.4863 16.671 0.01464-0.01319 2.0156-1.7226c-0.55926-1.1791-1.6427-4.2646-1.7241-4.8896-0.16968-0.9246-0.0601-1.5869 0.33984-2.0786 0.81551-1.0389 2.8164-1.1885 6.5772-1.3755 1.0856-0.07099 2.2237-0.14181 2.8989-0.18164-0.0918-0.23374-0.22024-0.54898-0.38819-0.96972-0.19912-0.48827-0.34341-0.73321-0.48193-0.82324-0.12812-0.0797-0.33857-0.0879-0.7749-0.0879h-4.2642l0.46728 1.1968-6.0102-0.00879-0.12305-0.28711c-0.44672-1.1376-0.62361-1.5691-0.69287-1.7578v0.00293c-0.46922-1.1791-0.69161-2.0962-0.24316-2.7524 0.61637-0.91594 2.2812-0.91553 5.313-0.91553l8.8286-0.00586h0.01904c2.2492 0.19219 2.8332 1.0494 3.8115 3.2622 1.328 3.1668 2.0603 4.8988 1.418 6.019-0.47962 0.82417-1.5711 1.118-3.1831 1.3154-0.41728 0.0606-4.8774 0.40574-6.6314 0.53907l0.66211 1.5894-0.21387 0.21387 4.7622 0.00293-0.44531-1.1045h6.4043l0.54932 1.2993c0.52809 1.2865 0.7937 2.2563 0.50977 2.9766l2.2661-1.9116-5.6133-14.203 17.12-0.00293 1.6509 4.5571h-10.729l0.90527 2.3144h6.7061l1.5513 3.98h-6.7075l0.62988 1.582-0.5083 0.5083 10.148-0.01025 1.7739 4.5439h-90.454zm9.3662-4.3198 5.9326-0.00439-0.78955-2.0112c-0.0606-0.15756-0.28349-0.31055-0.44971-0.31055l-5.2119 0.00146 0.78955 2.0522-0.271 0.27246zm125.92-0.29297h5.8301c0.3013 0 0.696-0.00101 0.8657-0.04101-0.012-0.0502-1.415-3.6445-1.415-3.6445h-6.0366l1.2641 3.1846-0.5083 0.50098zm-106.72-0.49951h5.2398c0.27703 0 0.42492-0.01181 0.50976-0.02051-5e-3 -0.0623-0.03656-0.1623-0.08496-0.3164l-2.3628-5.9971c-0.24414-0.60774-0.40673-0.68702-0.97119-0.68702h-4.5908c-0.0814 0-0.13662 0.00696-0.18164 0.01026 0.019 0.0571 0.03784 0.14393 0.07764 0.26513l2.4595 6.2564 0.1084 0.27979-0.20362 0.20947zm-21.188-5.3643 5.6382-0.00293-0.89356-2.2822c-0.0623-0.15583-0.28495-0.30762-0.45117-0.30762l-5.3174-0.00147 1.0239 2.5942z" fill="#d64309"/>
  <path d="m895.2 670.63 3.3794-3.0337-5.3276-13.507s12.045-0.00732 13.163-0.00732c3.4889 0 4.6239 0.75574 5.7407 4.0195 0.51078 2.1349 0.2934 3.544-1.5835 4.3872 2.7166 0.32724 3.324 2.2316 4.0356 4.1777 0.89688 2.8015-0.49031 3.9639-3.0806 3.9639h-0.10254-16.225zm180.45-0.00293-31.764-0.01026-1.3857-3.624h5.7598l-4.9791-12.92h5.2076l4.5849 11.849-1.0883 1.0913h6.706 0.8818l-5.1137-12.935 16.119-0.00586 1.3184 3.6314h-10.753l1.2641 3.2461h6.7105l1.1953 3.0469h-6.7046l0.7544 1.935-1.0811 1.0811h10.944l1.4238 3.6138zm-114.86-0.00147c-0.0641-3e-3 -14.631-0.00293-14.631-0.00293l2.3042-1.9629c-0.39131-0.5454-1.804-4.5192-1.856-5.0698-0.44844-2.4656 1.1617-2.66 6.479-2.918 1.7332-0.11428 3.5391-0.22266 3.5391-0.22266s-0.12363-0.32593-0.62402-1.5674c-0.46923-1.1739-0.72681-1.2012-1.686-1.2012h-0.14648-4.793l0.46875 1.1924-5.0317-0.00146s-0.69141-1.7413-0.69141-1.7534c-1.1895-2.9833-0.16296-3.0366 4.6436-3.0366h0.52588c0.2095-7e-3 1.2277-0.00879 2.4726-0.00879 1.9081 0 4.3614 0.00586 5.3569 0.00586h0.44824c2.0085 0.16795 2.4673 0.81038 3.4248 2.9868 2.1903 5.1892 2.5572 6.1988-1.3975 6.687-0.41209 0.0658-7.2422 0.583-7.2422 0.583l0.63134 1.519c0.0398 0.0831 0.09414 0.22116 0.15821 0.37353l-0.78955 0.78809 6.564 0.00732-0.44678-1.1118 5.4155 0.00732 0.4292 1.0093c1.2241 3.0196 0.75255 3.6124-3.5259 3.6973zm-25.349-0.00293 3.5449-3.0454-5.2983-13.504h5.3394l6.4394 16.531-0.01904 0.01611-10.006 0.00293zm107.95 0-16.907-0.00293-6.4804-16.538 5.4155-0.02051 1.7153 4.4531 6.2769-0.03077-1.7242-4.4106h5.2281l6.476 16.55zm-78.488-0.00146 3.1699-2.6616-5.4932-13.885 16.119-0.00146 1.3213 3.627h-10.758l1.2642 3.2432h6.7163l1.1894 3.0527h-6.7031l0.7544 1.9336-1.0796 1.0825 10.945-0.00146 1.4224 3.6108h-18.869zm26.83 0 2.2998-1.957c-0.39131-0.54714-1.8028-4.5242-1.853-5.0713-0.44671-2.469 1.1693-2.6548 6.4849-2.918 1.7349-0.11254 3.542-0.22412 3.542-0.22412s-0.1233-0.327-0.6255-1.5615c-0.4675-1.1808-0.7236-1.207-1.6846-1.207h-4.9497l0.40722 1.1997-4.9585-0.01025s-0.69727-1.7378-0.69727-1.7534c-1.0545-2.6093-0.38859-2.9715 3.0293-3.0234 0.6216-9e-3 9.9767-0.00945 10.302-0.01465 2.1315 0.15583 2.5879 0.77722 3.5523 2.9883 2.1937 5.1892 2.5614 6.195-1.4019 6.6885-0.4104 0.0641-7.2451 0.58447-7.2451 0.58447s0.38175 0.90316 0.6709 1.6113l-1.0606 1.0591 16.731 0.00293-5.0991-12.964h5.2016l4.6846 11.871-1.0693 1.0796h6.5771l1.4048 3.6152-34.244 0.0044zm-60.249-0.02197c-0.19912 0-16.79-0.00733-16.79-0.00733l2.7788-2.4053s-3.7323-9.5197-3.9141-9.9214c-1.167-2.9539-0.91182-4.04 1.7944-4.2114h0.3999c1.425 0 6.3504 0.00293 9.3926 0.00293 1.444 0 2.4616 7e-5 2.4668-0.00293 2.2318 7e-3 2.8339 0.74171 3.9126 3.4307 0.35322 0.88823 2.8157 7.1642 2.833 7.1953 1.9565 4.9364 2.0208 5.8-2.874 5.9194zm-29.24-3.3735h7.0693c0.36187 0 0.54841-0.27467 0.41162-0.6123l-0.79102-2.0317c-0.12813-0.3359-0.51943-0.60645-0.88476-0.60645h-5.8858l0.91992 2.4053-0.83935 0.84521zm132.86-0.28564c1.0978 0 1.5861-0.01221 1.1982-0.98877l-1.4267-3.6255h-7.0342l1.3916 3.5332-1.0693 1.0752 6.9404 0.00586zm-113.67-0.50537 6.3574-0.00147c0.28396 0 0.56301-0.00764 0.71192-0.04394 0.10216-0.0294 0.18402-0.06929 0.22558-0.13331 0.0952-0.14025 0.06087-0.37467-0.07763-0.77636l-2.3672-6.0073c-0.30127-0.76357-0.63336-0.98877-1.4004-0.98877l-4.5996 0.00293c-0.6441 0.0277-0.76615 0.17127-0.5376 0.89502l2.4683 6.271-0.78076 0.78223zm-20.38-5.3628h5.9722c0.3636 0 0.54667-0.2732 0.41162-0.61084l-0.89648-2.3027c-0.1264-0.3359-0.52689-0.60938-0.88184-0.60938l-5.9956-0.00293 1.3901 3.5259z" fill="#0033a0"/>
 </g>
</svg>