<svg xmlns="http://www.w3.org/2000/svg" width="248.65" height="27.868" viewBox="0 0 248.65 27.868">
 <g transform="matrix(1.3333 0 0 -1.3333 -62.632 560.49)">
  <g>
   <path d="m47.743 419.6v-0.75-2.5737-0.75h0.75 0.50537v-11.205h-0.49365-0.75v-0.75-2.5723-0.75h0.75 9.4351 0.31055l0.22119 0.21973 2.2573 2.2573v0.31202 6.1142 0.31202l-0.21973 0.21826-0.2373 0.23877 0.24609 0.25195 0.21094 0.21826v0.30322 6.1157 0.31054l-0.21973 0.2212-2.0376 2.0376-0.22119 0.21973h-0.31055-9.4468-0.75zm95.095-0.09961-2.2588-2.2588-0.21972-0.21973v-0.31054-13.724-0.31055l0.21972-0.21826 2.0376-2.0391 0.22119-0.21973h0.30908 6.0908 0.31202l0.21972 0.21973 2.0376 2.0391 0.21973 0.21826v0.31055 3.0454 0.75h-0.75-2.5606-0.75v-0.75-1.7725h-3.5464v11.178h3.5464v-1.7856-0.75h0.75 2.5606 0.75v0.75 3.0586 0.31054l-2.2573 2.2573-0.21972 0.22119h-0.31202-6.0908-0.30908zm66.867 0-2.2588-2.2588-0.21972-0.21973v-0.31054-13.724-0.31055l0.21972-0.21826 2.0376-2.0391 0.22119-0.21973h0.30908 6.0908 0.31202l0.21972 0.21973 2.0376 2.0391 0.21973 0.21826v0.31055 8.1431 0.75h-0.75-5.0962-0.75v-0.75-2.5737-0.75h0.75 1.7856v-3.5464h-3.5464v11.178h3.5464v-1.7593-0.75h0.75 2.5606 0.75v0.75 3.0322 0.31054l-2.2573 2.2573-0.21972 0.22119h-0.31202-6.0908-0.30908zm-86.169-0.03662v-0.75-2.562-0.75h0.75 0.51708v-5.7305l-4.9248 9.3779-0.21094 0.40137h-0.4541-3.7661-0.75v-0.75-2.5488-0.75h0.75 0.49365v-11.104h-0.49365-0.75v-0.75-2.5488-0.75h0.75 5.0728 0.75v0.75 2.5488 0.75h-0.75-0.53174v5.7363l4.9395-9.3852 0.21093-0.39991h0.45118 2.5239 0.75v0.75 14.402h0.49365 0.75v0.75 2.562 0.75h-0.75-5.0713-0.75zm-59.392-0.01318-0.21973-0.21973-2.0273-2.0259-0.21826-0.21973v-0.31054-13.649-0.31054l0.21826-0.21973 2.0273-2.0259 0.21973-0.21973h0.31055 6.0659 0.31201l0.21973 0.2212 2.0142 2.0259 0.21826 0.21973v0.30908 13.649 0.30908l-0.21826 0.21973-2.0142 2.0259-0.21973 0.2212h-0.31201-6.0659-0.31055zm12.63 0-2.2456-2.2456-0.21973-0.21973v-0.31054-6.0659-0.31055l0.21973-0.21972 2.0508-2.0522 0.21973-0.21973h0.31055 4.7578v-3.5083h-3.5098v0.50537 0.75h-0.75-2.5488-0.75v-0.75-1.7783-0.31054l0.21973-0.21973 2.2456-2.2456h0.31055 6.0659 0.31201l0.22119 0.2212 2.0127 2.0259 0.21826 0.21973v0.30908 6.0674 0.30908l-0.21973 0.21972-2.0508 2.0522-0.21973 0.21826h-0.31055-4.7563v3.5098h3.5098v-0.53028-0.75h0.75 2.5474 0.75v0.75 1.8032 0.30908l-0.21826 0.21973-2.0127 2.0259-0.22119 0.2212h-0.31201-6.0659-0.31055zm10.065 0v-0.75-3.791-0.75h0.75 2.5488 0.75v0.75 0.49219h0.98584v-11.104h-0.51856-0.75v-0.75-2.5488-0.75h0.75 5.0977 0.75v0.75 2.5488 0.75h-0.75-0.51855v11.104h0.98584v-0.49219-0.75h0.75 2.5488 0.75v0.75 3.791 0.75h-0.75-12.63-0.75zm17.694 0-2.4653-2.4653v-0.31054-13.649-0.31054l2.4653-2.4653h0.31054 6.0659 0.31201l0.21973 0.2212 2.0142 2.0259 0.21826 0.21973v0.30908 13.649 0.30908l-0.21826 0.21973-2.0142 2.0259-0.21973 0.2212h-0.31201-6.0659-0.31054zm61.087-0.02491v-0.75-2.5723-0.75h0.75 0.49219v-11.106h-0.49219-0.75v-0.75-2.5488-0.75h0.75 11.386 0.75v0.75 3.8042 0.75h-0.75-2.5474-0.75v-0.75-0.50537h-3.5098v11.106h0.49219 0.75v0.75 2.5723 0.75h-0.75-5.0713-0.75zm13.835 0v-0.75-2.5723-0.75h0.75 0.49365v-11.106h-0.49365-0.75v-0.75-2.5488-0.75h0.75 11.388 0.75v0.75 3.8042 0.75h-0.75-2.5488-0.75v-0.75-0.50537h-3.5098v11.106h0.49366 0.75v0.75 2.5723 0.75h-0.75-5.0728-0.75zm-24-0.0249-0.21973-0.21826-2.0273-2.0273-0.21826-0.21973v-0.31055-13.649-0.31055l0.21826-0.21973 2.0273-2.0259 0.21973-0.21973h0.31055 6.0659 0.31347l0.21826 0.22119 2.0142 2.0259 0.21827 0.21973v0.30908 13.649 0.30908l-0.21827 0.21973-2.0142 2.0259-0.21826 0.22119h-0.31347-6.0659-0.31055zm37.835-0.01172v-0.75-2.562-0.75h0.75 0.49365v-11.08h-0.49365-0.75v-0.75-2.5474-0.75h0.75 11.375 0.75v0.75 3.7925 0.75h-0.75-2.5474-0.75v-0.75-0.49512h-3.5098v3.498h0.98584v-0.49365-0.75h0.75 2.5488 0.75v0.75 5.0728 0.75h-0.75-2.5488-0.75v-0.75-0.49365h-0.98584v3.4966h3.5098v-0.48047-0.75h0.75 2.5474 0.75v0.75 3.7925 0.75h-0.75-11.375-0.75zm26.565 0v-0.75-2.562-0.75h0.75 0.49512v-11.08h-0.49512-0.75v-0.75-2.5474-0.75h0.75 11.376 0.75v0.75 3.7925 0.75h-0.75-2.5488-0.75v-0.75-0.49512h-3.5098v3.498h0.98584v-0.49365-0.75h0.75 2.5488 0.75v0.75 5.0728 0.75h-0.75-2.5488-0.75v-0.75-0.49365h-0.98584v3.4966h3.5098v-0.48047-0.75h0.75 2.5488 0.75v0.75 3.7925 0.75h-0.75-11.376-0.75zm-154.88-3.2373h5.0112v-12.604h-5.0112v12.604zm-11.88-0.62549h3.561v-3.5478h-3.561v3.5478zm53.02-0.12451h3.5098v-11.104h-3.5098v11.104zm50.921-0.04981h3.5098v-11.105h-3.5098v11.105zm-103.94-7.4824h3.561v-3.5478h-3.561v3.5478z" fill="#dbcca6"/>
   <path d="m48.493 418.85v-2.5737h1.2554v-12.705h-1.2437v-2.5723h9.4351l2.0391 2.0391v6.1142l-0.75732 0.75879 0.75732 0.78369v6.1157l-2.0391 2.0391h-9.4468zm94.654-0.09961-2.0376-2.0391v-13.724l2.0376-2.0376h6.0908l2.0391 2.0376v3.0454h-2.5606v-2.5225h-5.0464v12.678h5.0464v-2.5356h2.5606v3.0586l-2.0391 2.0391h-6.0908zm66.867 0-2.0376-2.0391v-13.724l2.0376-2.0376h6.0908l2.0391 2.0376v8.1431h-5.0962v-2.5737h2.5356v-5.0464h-5.0464v12.678h5.0464v-2.5093h2.5606v3.0322l-2.0391 2.0391h-6.0908zm-85.729-0.03662v-2.562h1.2671v-9.5215l-6.3398 12.069h-3.7661v-2.5474h1.2436v-12.604h-1.2436v-2.5488h5.0728v2.5488h-1.2817v9.52l6.3516-12.069h2.5239v15.152h1.2436v2.562h-5.0713zm-59.832-0.01318-2.0259-2.0259v-13.649l2.0259-2.0259h6.0659l2.0142 2.0259v13.649l-2.0142 2.0259h-6.0659zm12.63 0-2.0259-2.0259v-6.0659l2.0508-2.0522h5.5078v-5.0083h-5.0098v1.2554h-2.5488v-1.7783l2.0259-2.0259h6.0659l2.0142 2.0259v6.0674l-2.0508 2.0493h-5.5063v5.0098h5.0098v-1.2803h2.5474v1.8032l-2.0142 2.0259h-6.0659zm10.504 0v-3.791h2.5488v1.2422h2.4858v-12.604h-1.2686v-2.5488h5.0977v2.5488h-1.2686v12.604h2.4858v-1.2422h2.5488v3.791h-12.63zm17.254 0-2.0259-2.0259v-13.649l2.0259-2.0259h6.0659l2.0142 2.0259v13.649l-2.0142 2.0259h-6.0659zm61.526-0.02491v-2.5723h1.2422v-12.606h-1.2422v-2.5488h11.386v3.8042h-2.5474v-1.2554h-5.0098v12.606h1.2422v2.5723h-5.0713zm13.835 0v-2.5723h1.2436v-12.606h-1.2436v-2.5488h11.388v3.8042h-2.5488v-1.2554h-5.0098v12.606h1.2437v2.5723h-5.0728zm-24.439-0.0249-2.0259-2.0259v-13.649l2.0259-2.0259h6.0659l2.0142 2.0259v13.649l-2.0142 2.0259h-6.0659zm38.275-0.01172v-2.562h1.2436v-12.58h-1.2436v-2.5474h11.375v3.7925h-2.5474v-1.2451h-5.0098v4.998h2.4858v-1.2436h2.5488v5.0728h-2.5488v-1.2436h-2.4858v4.9966h5.0098v-1.2305h2.5474v3.7925h-11.375zm26.565 0v-2.562h1.2451v-12.58h-1.2451v-2.5474h11.376v3.7925h-2.5488v-1.2451h-5.0098v4.998h2.4858v-1.2436h2.5488v5.0728h-2.5488v-1.2436h-2.4858v4.9966h5.0098v-1.2305h2.5488v3.7925h-11.376zm-168.26-2.3628h5.061v-5.0478h-5.061v5.0478zm53.02-0.12451h5.0098v-12.604h-5.0098v12.604zm50.921-0.04981h5.0098v-12.605h-5.0098v12.605zm-90.561-0.70019h3.5112v-11.104h-3.5112v11.104zm-13.38-6.7822h5.061v-5.0478h-5.061v5.0478z" fill="#8c2232"/>
  </g>
 </g>
</svg>