<?xml version="1.0" encoding="UTF-8" standalone="no"?>
<svg xmlns:rdf="http://www.w3.org/1999/02/22-rdf-syntax-ns#" xmlns="http://www.w3.org/2000/svg" xml:space="preserve" height="74.985" viewBox="0 0 236.00015 74.985475" width="236" version="1.1" xmlns:cc="http://creativecommons.org/ns#" xmlns:dc="http://purl.org/dc/elements/1.1/"><g transform="matrix(1.25 0 0 -1.25 -266.23 421.57)"><g><path d="m385.48 326.65c0.776 0.077 1.373-0.116 1.937-0.627 1.874-1.697 2.539-5.979 2.539-9.13 0-2.562-0.565-5.233-1.589-7.52-1.064-2.272-1.979-2.347-3.359-2.198-0.217 0.024-0.441 0.063-0.683 0.121v19.146c0.417 0.095 0.806 0.173 1.155 0.208m-12.018-1.351c-0.006 0.368-0.009 0.712-0.009 1.035 0 1.3 0.058 2.245 0.255 3.019 0.075-1.068 0.115-3.238 0.115-6.485v-14.65l0.002-0.623c0.001-0.15 0.002-0.315 0.002-0.49 0-0.64-0.014-1.414-0.095-2.075-0.086 6.475-0.27 20.269-0.27 20.269m-29.537-28.586c0.723-0.016 1.159-0.081 1.267-0.272l0.306-0.539h-0.022s-0.282-0.128-0.317-0.144c-0.059-0.007-0.18-0.018-0.403-0.018h-0.831v0.973zm-28.581-2.741 2.201 1.596c0.703 0.488 1.177 0.693 1.81 0.76v-10.987l0.009-1.052c0-0.93-0.077-1.311-0.193-1.505-0.906 0.922-1.086 1.416-1.585 2.787l-0.186 0.507s-1.284 3.554-2.686 7.436c0.222 0.161 0.63 0.458 0.63 0.458m-4.181 9.37s-0.062 0.171-0.119 0.329c0.259 0 0.635-0.001 0.635-0.001 1.264-0.002 2.538-0.023 3.808-0.036-0.015-0.06-1.412-5.663-1.809-7.253-1.334 3.692-2.515 6.961-2.515 6.961m-13.275-9.344s1.029 4.641 1.526 6.881v-0.099l0.96-0.633c0.114-0.075 0.185-0.134 0.23-0.175-0.062-0.313-0.284-0.973-0.366-1.213-0.003-0.011-0.151-0.463-0.2-0.611l-4.402-12.928c-0.385-1.107-0.639-1.704-1.073-2.249-0.229 0.483-0.275 1.145-0.275 2.435v10.97c0.088-0.022 0.124-0.042 0.128-0.045l0.02-0.048 2.621-6.031 0.831 3.746zm-24.044 3.172c1.001 0 2.152-0.407 3.33-1.175 0 0 0.596-0.389 1.004-0.655-0.007-0.027-0.086-0.342-0.102-0.409-0.974 0.598-1.969 1.058-2.945 1.491l-0.165 0.074 0.113-0.057-0.504 0.225c-0.206 0.087-0.681 0.289-1.032 0.481 0.099 0.014 0.201 0.025 0.301 0.025m61.554 10.406c0 0.451 0.287 1.442 0.425 1.918 0 0.001 0.132 0.451 0.264 0.907 0.507-0.021 2.201-0.09 3.066-0.125 0.267-0.894 0.676-2.265 0.676-2.265l0.017-0.052c0.156-0.485 0.156-0.485 0.161-0.792v-0.031c0-0.073-0.003-0.108-0.007-0.128-0.037-0.04-0.126-0.117-0.353-0.278l-0.913-0.649s0.022-1.67 0.025-1.917h-2.246l-0.021 1.067-0.027 1s-0.57 0.547-0.6 0.576c-0.438 0.443-0.464 0.582-0.467 0.769m-25.48 15.278 0.007 0.897c0 0.014-0.003 1.475-0.006 2.934 0.03-0.021 0.085-0.06 0.085-0.06 0.494-0.346 0.952-0.945 0.96-2.972 0-0.001-0.053-6.778-0.082-10.491-0.51 0.006-1.724 0.021-1.745 0.021-0.002 0.369-0.01 1.783-0.01 1.783 0 0.003-0.015 6.292-0.016 6.65 0.367-0.002 0.797-0.004 0.797-0.004l0.01 1.242zm-5.562-8.771c0.243-0.002 0.412-0.009 0.52-0.019 0.057-0.179 0.397-1.238 0.397-1.238s3.234-0.011 3.577-0.012c-0.041-0.054-0.372-0.497-0.372-0.497-0.576-0.762-1.34-1.032-2.911-1.028-0.361 0-0.781 0.014-1.204 0.06-0.002 0.894-0.004 1.711-0.007 2.734m-0.02 9.096c1.058-0.025 1.327-0.145 1.465-0.41 0 0 0.345-0.659 0.44-0.84-0.076-0.036-0.198-0.095-0.232-0.111-0.059-0.007-0.166-0.014-0.357-0.014l0.024-0.023c-0.091 0.009-0.175 0.023-0.28 0.024 0 0-0.899 0.001-1.057 0.002-0.001 0.598-0.002 0.771-0.003 1.372m-10.142 0.567 0.03-13.095c0-2.12-0.506-2.756-0.947-3.073l-0.89-0.639v-2.775h-3.624c0.819 2.955 3.791 13.67 5.431 19.582m-17.956-12.236s0.161 0.701 0.272 1.184c0.567-1.712 0.961-2.9 0.961-2.9 0.732-2.158 1.395-3.714 3.496-5.33-0.243 0.039-0.494 0.078-0.494 0.078s-0.314-1.255-0.343-1.373c-0.219 0.086-1.011 0.395-1.011 0.395-1.362 0.532-2.906 0.885-4.471 1.035 0.314 1.363 1.59 6.911 1.59 6.911m-3.366 11.842s0.001 0.177 0.001 0.321c0.802-2.421 2.402-7.252 3.487-10.527-0.371-0.03-3.775-0.3-3.775-0.3l-0.581-0.812c-0.865-1.224-2.839-1.452-3.647-1.493-0.362-0.019-0.753-0.023-1.138-0.005-0.001 1.048-0.003 2.259-0.005 3.424 0.101-0.006 0.18-0.013 0.237-0.021 0.057-0.189 0.4-1.334 0.4-1.334l3.875 0.023 0.009 2.12-0.012 7.355c0.253-0.014 1.145-0.063 1.145-0.063l0.004 1.312zm-5.672 0.346s-0.001 0.186-0.001 0.255c1.165-0.087 1.358-0.243 1.517-0.574l0.546-1.141s2.101-0.115 2.227-0.122c-0.306 0.008-2.003 0.053-2.003 0.053l-0.53 0.015s-0.315-0.157-0.341-0.17c-0.061-0.005-0.166-0.009-0.328-0.005-0.003 0-0.534 0.01-1.085 0.02-0.001 0.815-0.002 1.669-0.002 1.669m-28.533 0.277s0.547 2.79 1.06 5.405c0.085-0.471 0.104-1.052 0.104-1.825 0-0.13-0.002-1.157-0.002-1.157 0-0.006 0.041-8.739 0.064-13.745-0.193-0.166-2.098-1.795-2.098-1.795-2.427-2.075-4.705-3.175-6.77-3.268-1.203-0.057-2.166 0.284-2.946 1.04-1.596 1.546-2.473 4.828-2.407 9.002 0.06 4.092 0.869 7.068 2.277 8.38 0.7 0.651 1.569 0.924 2.734 0.857 1.822-0.107 3.167-1.032 4.744-2.489l2.81-2.594 0.43 2.189zm-20.291 8.008-0.019-0.019-0.045-0.049c-2.946-3.317-4.774-9.136-4.659-14.822 0.116-5.926 1.895-11.129 5.012-14.652 3.675-4.284 7.894-4.552 11.158-4.305 2.767 0.206 5.75 0.894 8.182 1.887 0 0 0.5 0.204 0.564 0.23 0.002-0.334 0.004-0.67 0.004-0.67l2.375 0.299c4.734 0.57 9.554 1.076 14.32 1.503l1.498 0.135 0.023 0.09c0.061 0.005 1.183 0.102 1.183 0.102 2.55 0.22 5.124 0.416 7.703 0.594-1.722-1.49-2.741-3.687-2.741-6.013 0-5.537 4.327-7.558 7.19-8.895 0.757-0.354 2.288-1.073 2.507-1.454-0.169-0.093-0.589-0.216-1.211-0.216-1.732 0-3.875 0.816-5.331 2.031l-4.84 4.037 2.689-11.917 1.053-0.414c2.219-0.872 4.564-1.314 6.97-1.314 2.284 0 4.956 0.249 7.461 2.103 2.205 1.65 3.417 4.122 3.417 6.966 0 2.562-0.978 4.624-3.078 6.49l-0.009 0.006c0.078 0.057 0.427 0.31 0.433 0.314 0.076-0.05 0.294-0.191 0.294-0.191v0.404c0.515 0.374 1.826 1.325 1.826 1.325 0.703 0.488 1.177 0.693 1.809 0.76v-10.987l0.009-1.051c0-1.344-0.159-1.553-0.367-1.687l-0.982-0.63v-3.401h21.359v3.228l-0.871 0.733c-0.052 0.044-0.172 0.144-0.263 0.227 0.065 0.397 0.333 1.176 0.429 1.456 0 0 0.139 0.399 0.28 0.803h3.26c0.251-0.751 0.564-1.685 0.564-1.685 0.008-0.025 0.142-0.403 0.143-0.405l-0.001-0.018c0-0.019 0.001-0.05 0.001-0.076-0.06-0.049-0.161-0.124-0.35-0.249l-0.956-0.633v-3.381h24.564v3.154l-0.668 0.632c-0.648 0.612-0.735 1.167-0.735 3.048v10.969c0.087-0.021 0.123-0.04 0.127-0.043l-0.001-0.001 0.02-0.046 2.62-6.039s1.158 5.219 1.454 6.555v-11.492l0.005-0.588c0.003-0.162 0.004-0.312 0.004-0.45 0-1.139-0.087-1.488-0.368-1.668l-0.981-0.631v-3.4h17.92l2.39 9.165h-3.941l-0.641-0.788c-0.485-0.597-1.181-0.994-3-0.994-0.362 0-0.786 0.012-1.213 0.054v2.237c0.033-0.002 0.066-0.004 0.092-0.006 0.052-0.153 0.395-1.147 0.395-1.147h3.819v8.263h1.054v6.81c5.059-0.389 9.862-0.807 9.939-0.814l1.364-0.12-0.016 2.367-0.01 0.839-0.45 0.585c-0.966 1.199-1.175 2.796-1.206 4.991l-0.005 0.335s-0.019 1.334-0.036 2.435c1.17-1.94 2.339-3.881 2.339-3.881l-0.014 0.05c0.102-0.2 0.278-0.504 0.597-1.055 1.279-2.222 2.205-3.829 4.667-5.636l-0.011 0.022c0.119-0.101 0.257-0.207 0.42-0.329 1.133-0.851 2.685-2.017 3.891-2.556l3.071-1.37s-0.011 0.859-0.019 1.421c1.174-0.166 9.087-1.286 9.087-1.286l0.97-0.099c3.843-0.402 8.201-0.858 12.037 3.051l0.024 0.025c3.129 3.371 4.924 9.094 4.924 15.701 0 7.29-1.983 13.193-5.585 16.621l-0.042 0.039c-4.171 3.725-8.93 3.03-13.129 2.417 0 0-8.761-1.358-8.799-1.363s-9.073-1.123-9.073-1.123l0.049-1.966 0.013-0.874 0.504-0.587c0.881-1.04 0.977-2.044 1.01-4.44 0 0 0.026-1.89 0.054-3.876-2.494 4.049-6.255 10.156-6.255 10.156l-0.684 1.102-9.833-0.684-0.089-1.9-0.025-0.445-0.026-0.472 0.51-0.645c1.339-1.663 1.546-2.337 1.588-5.165l0.2-13.54c0.005-0.317 0.009-0.631 0.009-0.938 0-0.755-0.03-1.466-0.153-2.081-0.648 0.941-0.876 1.638-1.408 3.315l-6.719 21.15-1.62-0.058c-2.719-0.092-5.498-0.213-8.256-0.358l-2.053-0.108 0.052-3.638 1.399-0.51c0.062-0.021 0.11-0.04 0.155-0.058-0.084-0.414-0.256-1.025-0.333-1.299l-0.184-0.683s-1.366-4.784-2.572-9.01c-0.742-0.571-3.686-2.833-3.686-2.833-0.629-0.483-2.3-1.769-3.499-1.723l-0.633 0.016c-0.241 0.004-0.493 0.011-0.737 0.024-0.007 1.802-0.043 12.17-0.043 12.17l-0.008 0.636-0.005 0.597c0 1.196 0.109 1.778 0.366 1.947l0.962 0.633v3.386l-2.131 0.005c-2.969 0.008-5.979-0.013-8.946-0.064 0 0-1.101-0.019-1.283-0.022v0.247l-2.708 0.03s-0.301-0.147-0.33-0.161c-0.134-0.011-0.381-0.012-0.5-0.011-3.748 0.075-7.59 0.104-11.396 0.085l-10.059 0.002 0.058-2.207 0.013-0.645 0.015-0.761 1.175-0.573c0.769-0.373 0.769-0.524 0.769-0.733-0.001-0.349-0.155-0.906-0.279-1.353l-0.044-0.16c-0.003-0.01-1.443-5.368-1.566-5.825-0.975 3.095-2.062 6.545-2.062 6.545l-0.024-0.048c-0.042 0.223-0.098 0.436-0.151 0.605-0.221 0.696-0.723 2.282-0.773 2.901 0.006 0.055 0.021 0.183 0.021 0.183l-0.016 2.314-1.167 0.067c-0.066 0.004-6.673 0.384-10.894 0.555-2.064 0.084-12.939 0.987-13.048 0.997l-1.353 0.112 0.005-2.305 0.002-1.124 0.773-0.641c0.542-0.447 0.609-1.508 0.609-2.706 0-0.192-0.002-0.389-0.004-0.587l-0.003-0.669c0-0.015 0.01-6.787 0.016-11.243-0.369-0.382-2.104-2.181-2.104-2.181-0.927-0.96-2.137-1.507-3.596-1.625-0.325-0.027-0.706 0.033-1.117 0.161-0.008 1.53-0.081 16.393-0.081 16.393l-0.01 0.81-0.007 0.676c0 1.33 0.125 1.491 0.561 1.841l0.796 0.643-0.011 3.039-1.869 0.224c-2.904 0.351-5.861 0.68-8.787 0.978l-1.053 0.108c-0.071 0.014-1.108 0.216-1.108 0.216-0.835 0.163-1.694 0.416-2.603 0.684-1.415 0.417-2.86 0.843-4.396 0.992-5.329 0.513-9.903-1.029-13.228-4.46" fill="#241f1f"/><path d="m385.48 326.65c0.776 0.077 1.373-0.116 1.937-0.627 1.874-1.697 2.539-5.979 2.539-9.13 0-2.562-0.565-5.233-1.589-7.52-1.064-2.272-1.979-2.347-3.359-2.198-0.217 0.024-0.441 0.063-0.683 0.121v19.146c0.417 0.095 0.806 0.173 1.155 0.208m-12.018-1.351c-0.006 0.368-0.009 0.712-0.009 1.035 0 1.3 0.058 2.245 0.255 3.019 0.075-1.068 0.115-3.238 0.115-6.485v-14.65l0.002-0.623c0.001-0.15 0.002-0.315 0.002-0.49 0-0.64-0.014-1.414-0.095-2.075-0.086 6.475-0.27 20.269-0.27 20.269m-29.537-28.586c0.723-0.016 1.159-0.081 1.267-0.272l0.306-0.539h-0.022s-0.282-0.128-0.317-0.144c-0.059-0.007-0.18-0.018-0.403-0.018h-0.831v0.973zm-28.581-2.741 2.201 1.596c0.703 0.488 1.177 0.693 1.81 0.76v-10.987l0.009-1.052c0-0.93-0.077-1.311-0.193-1.505-0.906 0.922-1.086 1.416-1.585 2.787l-0.186 0.507s-1.284 3.554-2.686 7.436c0.222 0.161 0.63 0.458 0.63 0.458m-4.181 9.37s-0.062 0.171-0.119 0.329c0.259 0 0.635-0.001 0.635-0.001 1.264-0.002 2.538-0.023 3.808-0.036-0.015-0.06-1.412-5.663-1.809-7.253-1.334 3.692-2.515 6.961-2.515 6.961m-13.275-9.344s1.029 4.641 1.526 6.881v-0.099l0.96-0.633c0.114-0.075 0.185-0.134 0.23-0.175-0.062-0.313-0.284-0.973-0.366-1.213-0.003-0.011-0.151-0.463-0.2-0.611l-4.402-12.928c-0.385-1.107-0.639-1.704-1.073-2.249-0.229 0.483-0.275 1.145-0.275 2.435v10.97c0.088-0.022 0.124-0.042 0.128-0.045l0.02-0.048 2.621-6.031 0.831 3.746zm-24.044 3.172c1.001 0 2.152-0.407 3.33-1.175 0 0 0.596-0.389 1.004-0.655-0.007-0.027-0.086-0.342-0.102-0.409-0.974 0.598-1.969 1.058-2.945 1.491l-0.165 0.074 0.113-0.057-0.504 0.225c-0.206 0.087-0.681 0.289-1.032 0.481 0.099 0.014 0.201 0.025 0.301 0.025m61.554 10.406c0 0.451 0.287 1.442 0.425 1.918 0 0.001 0.132 0.451 0.264 0.907 0.507-0.021 2.201-0.09 3.066-0.125 0.267-0.894 0.676-2.265 0.676-2.265l0.017-0.052c0.156-0.485 0.156-0.485 0.161-0.792v-0.031c0-0.073-0.003-0.108-0.007-0.128-0.037-0.04-0.126-0.117-0.353-0.278l-0.913-0.649s0.022-1.67 0.025-1.917h-2.246l-0.021 1.067-0.027 1s-0.57 0.547-0.6 0.576c-0.438 0.443-0.464 0.582-0.467 0.769m-25.48 15.278 0.007 0.897c0 0.014-0.003 1.475-0.006 2.934 0.03-0.021 0.085-0.06 0.085-0.06 0.494-0.346 0.952-0.945 0.96-2.972 0-0.001-0.053-6.778-0.082-10.491-0.51 0.006-1.724 0.021-1.745 0.021-0.002 0.369-0.01 1.783-0.01 1.783 0 0.003-0.015 6.292-0.016 6.65 0.367-0.002 0.797-0.004 0.797-0.004l0.01 1.242zm-5.562-8.771c0.243-0.002 0.412-0.009 0.52-0.019 0.057-0.179 0.397-1.238 0.397-1.238s3.234-0.011 3.577-0.012c-0.041-0.054-0.372-0.497-0.372-0.497-0.576-0.762-1.34-1.032-2.911-1.028-0.361 0-0.781 0.014-1.204 0.06-0.002 0.894-0.004 1.711-0.007 2.734m-0.02 9.096c1.058-0.025 1.327-0.145 1.465-0.41 0 0 0.345-0.659 0.44-0.84-0.076-0.036-0.198-0.095-0.232-0.111-0.059-0.007-0.166-0.014-0.357-0.014l0.024-0.023c-0.091 0.009-0.175 0.023-0.28 0.024 0 0-0.899 0.001-1.057 0.002-0.001 0.598-0.002 0.771-0.003 1.372m-10.142 0.567 0.03-13.095c0-2.12-0.506-2.756-0.947-3.073l-0.89-0.639v-2.775h-3.624c0.819 2.955 3.791 13.67 5.431 19.582m-17.956-12.236s0.161 0.701 0.272 1.184c0.567-1.712 0.961-2.9 0.961-2.9 0.732-2.158 1.395-3.714 3.496-5.33-0.243 0.039-0.494 0.078-0.494 0.078s-0.314-1.255-0.343-1.373c-0.219 0.086-1.011 0.395-1.011 0.395-1.362 0.532-2.906 0.885-4.471 1.035 0.314 1.363 1.59 6.911 1.59 6.911m-3.366 11.842s0.001 0.177 0.001 0.321c0.802-2.421 2.402-7.252 3.487-10.527-0.371-0.03-3.775-0.3-3.775-0.3l-0.581-0.812c-0.865-1.224-2.839-1.452-3.647-1.493-0.362-0.019-0.753-0.023-1.138-0.005-0.001 1.048-0.003 2.259-0.005 3.424 0.101-0.006 0.18-0.013 0.237-0.021 0.057-0.189 0.4-1.334 0.4-1.334l3.875 0.023 0.009 2.12-0.012 7.355c0.253-0.014 1.145-0.063 1.145-0.063l0.004 1.312zm-5.672 0.346s-0.001 0.186-0.001 0.255c1.165-0.087 1.358-0.243 1.517-0.574l0.546-1.141s2.101-0.115 2.227-0.122c-0.306 0.008-2.003 0.053-2.003 0.053l-0.53 0.015s-0.315-0.157-0.341-0.17c-0.061-0.005-0.166-0.009-0.328-0.005-0.003 0-0.534 0.01-1.085 0.02-0.001 0.815-0.002 1.669-0.002 1.669m-28.533 0.277s0.547 2.79 1.06 5.405c0.085-0.471 0.104-1.052 0.104-1.825 0-0.13-0.002-1.157-0.002-1.157 0-0.006 0.041-8.739 0.064-13.745-0.193-0.166-2.098-1.795-2.098-1.795-2.427-2.075-4.705-3.175-6.77-3.268-1.203-0.057-2.166 0.284-2.946 1.04-1.596 1.546-2.473 4.828-2.407 9.002 0.06 4.092 0.869 7.068 2.277 8.38 0.7 0.651 1.569 0.924 2.734 0.857 1.822-0.107 3.167-1.032 4.744-2.489l2.81-2.594 0.43 2.189zm-20.291 8.008-0.019-0.019-0.045-0.049c-2.946-3.317-4.774-9.136-4.659-14.822 0.116-5.926 1.895-11.129 5.012-14.652 3.675-4.284 7.894-4.552 11.158-4.305 2.767 0.206 5.75 0.894 8.182 1.887 0 0 0.5 0.204 0.564 0.23 0.002-0.334 0.004-0.67 0.004-0.67l2.375 0.299c4.734 0.57 9.554 1.076 14.32 1.503l1.498 0.135 0.023 0.09c0.061 0.005 1.183 0.102 1.183 0.102 2.55 0.22 5.124 0.416 7.703 0.594-1.722-1.49-2.741-3.687-2.741-6.013 0-5.537 4.327-7.558 7.19-8.895 0.757-0.354 2.288-1.073 2.507-1.454-0.169-0.093-0.589-0.216-1.211-0.216-1.732 0-3.875 0.816-5.331 2.031l-4.84 4.037 2.689-11.917 1.053-0.414c2.219-0.872 4.564-1.314 6.97-1.314 2.284 0 4.956 0.249 7.461 2.103 2.205 1.65 3.417 4.122 3.417 6.966 0 2.562-0.978 4.624-3.078 6.49l-0.009 0.006c0.078 0.057 0.427 0.31 0.433 0.314 0.076-0.05 0.294-0.191 0.294-0.191v0.404c0.515 0.374 1.826 1.325 1.826 1.325 0.703 0.488 1.177 0.693 1.809 0.76v-10.987l0.009-1.051c0-1.344-0.159-1.553-0.367-1.687l-0.982-0.63v-3.401h21.359v3.228l-0.871 0.733c-0.052 0.044-0.172 0.144-0.263 0.227 0.065 0.397 0.333 1.176 0.429 1.456 0 0 0.139 0.399 0.28 0.803h3.26c0.251-0.751 0.564-1.685 0.564-1.685 0.008-0.025 0.142-0.403 0.143-0.405l-0.001-0.018c0-0.019 0.001-0.05 0.001-0.076-0.06-0.049-0.161-0.124-0.35-0.249l-0.956-0.633v-3.381h24.564v3.154l-0.668 0.632c-0.648 0.612-0.735 1.167-0.735 3.048v10.969c0.087-0.021 0.123-0.04 0.127-0.043l-0.001-0.001 0.02-0.046 2.62-6.039s1.158 5.219 1.454 6.555v-11.492l0.005-0.588c0.003-0.162 0.004-0.312 0.004-0.45 0-1.139-0.087-1.488-0.368-1.668l-0.981-0.631v-3.4h17.92l2.39 9.165h-3.941l-0.641-0.788c-0.485-0.597-1.181-0.994-3-0.994-0.362 0-0.786 0.012-1.213 0.054v2.237c0.033-0.002 0.066-0.004 0.092-0.006 0.052-0.153 0.395-1.147 0.395-1.147h3.819v8.263h1.054v6.81c5.059-0.389 9.862-0.807 9.939-0.814l1.364-0.12-0.016 2.367-0.01 0.839-0.45 0.585c-0.966 1.199-1.175 2.796-1.206 4.991l-0.005 0.335s-0.019 1.334-0.036 2.435c1.17-1.94 2.339-3.881 2.339-3.881l-0.014 0.05c0.102-0.2 0.278-0.504 0.597-1.055 1.279-2.222 2.205-3.829 4.667-5.636l-0.011 0.022c0.119-0.101 0.257-0.207 0.42-0.329 1.133-0.851 2.685-2.017 3.891-2.556l3.071-1.37s-0.011 0.859-0.019 1.421c1.174-0.166 9.087-1.286 9.087-1.286l0.97-0.099c3.843-0.402 8.201-0.858 12.037 3.051l0.024 0.025c3.129 3.371 4.924 9.094 4.924 15.701 0 7.29-1.983 13.193-5.585 16.621l-0.042 0.039c-4.171 3.725-8.93 3.03-13.129 2.417 0 0-8.761-1.358-8.799-1.363s-9.073-1.123-9.073-1.123l0.049-1.966 0.013-0.874 0.504-0.587c0.881-1.04 0.977-2.044 1.01-4.44 0 0 0.026-1.89 0.054-3.876-2.494 4.049-6.255 10.156-6.255 10.156l-0.684 1.102-9.833-0.684-0.089-1.9-0.025-0.445-0.026-0.472 0.51-0.645c1.339-1.663 1.546-2.337 1.588-5.165l0.2-13.54c0.005-0.317 0.009-0.631 0.009-0.938 0-0.755-0.03-1.466-0.153-2.081-0.648 0.941-0.876 1.638-1.408 3.315l-6.719 21.15-1.62-0.058c-2.719-0.092-5.498-0.213-8.256-0.358l-2.053-0.108 0.052-3.638 1.399-0.51c0.062-0.021 0.11-0.04 0.155-0.058-0.084-0.414-0.256-1.025-0.333-1.299l-0.184-0.683s-1.366-4.784-2.572-9.01c-0.742-0.571-3.686-2.833-3.686-2.833-0.629-0.483-2.3-1.769-3.499-1.723l-0.633 0.016c-0.241 0.004-0.493 0.011-0.737 0.024-0.007 1.802-0.043 12.17-0.043 12.17l-0.008 0.636-0.005 0.597c0 1.196 0.109 1.778 0.366 1.947l0.962 0.633v3.386l-2.131 0.005c-2.969 0.008-5.979-0.013-8.946-0.064 0 0-1.101-0.019-1.283-0.022v0.247l-2.708 0.03s-0.301-0.147-0.33-0.161c-0.134-0.011-0.381-0.012-0.5-0.011-3.748 0.075-7.59 0.104-11.396 0.085l-10.059 0.002 0.058-2.207 0.013-0.645 0.015-0.761 1.175-0.573c0.769-0.373 0.769-0.524 0.769-0.733-0.001-0.349-0.155-0.906-0.279-1.353l-0.044-0.16c-0.003-0.01-1.443-5.368-1.566-5.825-0.975 3.095-2.062 6.545-2.062 6.545l-0.024-0.048c-0.042 0.223-0.098 0.436-0.151 0.605-0.221 0.696-0.723 2.282-0.773 2.901 0.006 0.055 0.021 0.183 0.021 0.183l-0.016 2.314-1.167 0.067c-0.066 0.004-6.673 0.384-10.894 0.555-2.064 0.084-12.939 0.987-13.048 0.997l-1.353 0.112 0.005-2.305 0.002-1.124 0.773-0.641c0.542-0.447 0.609-1.508 0.609-2.706 0-0.192-0.002-0.389-0.004-0.587l-0.003-0.669c0-0.015 0.01-6.787 0.016-11.243-0.369-0.382-2.104-2.181-2.104-2.181-0.927-0.96-2.137-1.507-3.596-1.625-0.325-0.027-0.706 0.033-1.117 0.161-0.008 1.53-0.081 16.393-0.081 16.393l-0.01 0.81-0.007 0.676c0 1.33 0.125 1.491 0.561 1.841l0.796 0.643-0.011 3.039-1.869 0.224c-2.904 0.351-5.861 0.68-8.787 0.978l-1.053 0.108c-0.071 0.014-1.108 0.216-1.108 0.216-0.835 0.163-1.694 0.416-2.603 0.684-1.415 0.417-2.86 0.843-4.396 0.992-5.329 0.513-9.903-1.029-13.228-4.46" fill="#241f1f"/><path d="m305.14 293.91c0.449-1.302 0.664-1.9237 0.95-2.7547h-1.8578c0.272 0.824 0.47682 1.4497 0.90782 2.7547zm-32.272 9.6234c-2.433 0-4.4748-0.58044-6.0688-1.7234l-0.005-0.003c-1.707-1.243-2.7266-3.2687-2.7266-5.4187 0-4.743 3.7393-6.4891 6.4703-7.7641 2.021-0.945 3.2594-1.5774 3.2594-2.6344 0-1.309-1.9066-1.4109-2.4906-1.4109-2.033 0-4.4397 0.91131-6.1297 2.3203l-2.0156 1.6812 1.7344-7.6859 0.43907-0.17344c2.073-0.815 4.2651-1.2281 6.5141-1.2281 2.08 0 4.5048 0.22036 6.7188 1.8594 1.879 1.406 2.9109 3.5221 2.9109 5.9641 0 2.209-0.81882 3.9228-2.6578 5.5578-1.334 1.185-2.7788 1.8272-4.3078 2.5062l-0.16562 0.0719-0.37657 0.16251c-1.205 0.51-2.125 0.96006-2.125 1.7141 0 1.151 1.6929 1.1844 1.8859 1.1844 1.243 0 2.6309-0.47713 4.0109-1.3781l1.3766-0.89844v6.0422l-0.56562 0.22031c-1.706 0.666-3.7259 1.0344-5.6859 1.0344zm64.422 16.669c0.371-1.186 0.70249-2.242 1.0375-3.314-0.792 0.023-1.1759 0.0337-1.9219 0.0547 0.266 0.979 0.53938 1.9864 0.88438 3.2594zm48.766 7.7891c0.78-0.0746 1.4664-0.38738 2.0844-0.94687 2.174-1.969 2.95-6.4857 2.95-10.055 0-2.734-0.604-5.5857-1.7-8.0297-1.275-2.726-2.6631-3.1386-4.6281-2.9266-0.544 0.059-1.0953 0.189-1.7953 0.425v21.059c0.905 0.233 1.6126 0.40274 2.2766 0.46874 0.28149 0.028 0.5525 0.0295 0.8125 0.005zm-66.033 1.5391c-2.967 0.008-5.9673-0.0141-8.9203-0.0641l-0.875-0.0156v-1.4422l0.37969-0.26562c1.037-0.726 1.4826-1.9201 1.4906-3.9891l-0.1-12.873 0.006-0.62031c0.003-0.2 0.006-0.39313 0.006-0.57813 0-1.412-0.13151-2.395-0.93751-2.939l-0.39218-0.26407v-1.4641l0.8875-0.002c4.556-0.008 9.1746-0.0868 13.727-0.23282l0.68281-0.0219 2.736 9.0281-2.1984-1.6906c-1.238-0.951-2.8468-2.0357-4.3078-1.9797l-0.61562 0.0156c-0.706 0.013-1.3774 0.03-1.9484 0.2-0.004 1.053-0.0469 13.234-0.0469 13.234l-0.008 0.62657c-0.004 0.212-0.006 0.41749-0.006 0.61249 0 1.457 0.13313 2.4645 0.92813 2.9875l0.4 0.26405v1.4703l-0.88751 0.003zm-63.295 1.9719 0.002-0.94843 0.002-0.54062 0.32344-0.26875c1.087-0.894 1.0722-2.5316 1.0562-4.2656l-0.003-0.6625 0.0203-15.047 0.008-0.70938c0.023-1.729 0.0444-3.3609-1.0516-4.3359l-0.3-0.26719 0.006-1.4906 0.9625 0.0828c4.868 0.42 9.814 0.76556 14.7 1.0266l0.67031 0.0375 1.7875 7.7719-1.7609-0.13906-0.24531-0.34063c-1.135-1.605-3.3669-1.9495-4.5969-2.0125-0.82-0.042-1.6713-0.0445-2.4453 0.15156-0.00096 0.871-0.007 4.7485-0.009 5.7625 0.058 0.0008 0.17656 0.002 0.17656 0.002l0.28437 0.005c1.363 0.023 1.9644-0.0738 2.1594-0.72188l0.19219-0.6375 1.7078 0.009 0.005 0.88593-0.0109 6.1438-1.0266 0.0266-0.22032 0.006-0.2-0.1c-0.017-0.008-0.18044-0.0802-0.77344-0.0672 0 0-1.3616 0.0257-2.3016 0.0437-0.002 1.068-0.005 3.3242-0.006 4.4672 0.14-0.009 0.35313-0.0219 0.35313-0.0219l0.40156-0.0203c1.594-0.075 2.6024-0.20205 3.1344-1.314l0.22656-0.475 1.5594-0.0859 0.003 0.9422-0.006 4.6016 0.27812-0.29532c0.705-0.782 1.2816-1.8404 1.6656-3.0594l5.0859-15.358c0.77-2.27 1.3472-3.4923 3.3062-4.9203 1.135-0.835 2.4081-1.3749 3.6391-1.8969l1.0625-0.45156h-3.9125c-0.109 0.017-1.3422 0.21406-1.3422 0.21406l-0.19844-0.79219-1.8344-7.3594 2.2 1.5953c1.118 0.777 1.8708 1.0297 3.0828 1.0297 0.263 0 0.48969-0.002 0.70469-0.014v-12.25l0.005-0.57813c0.003-0.164 0.005-0.32244 0.005-0.47344 0-1.338-0.12462-2.2114-0.94062-2.7344l-0.40938-0.26405v-1.4734h18.867v1.4016l-0.42657 0.35937c-0.546 0.457-0.72187 0.63863-0.72187 1.0406 0 0.518 0.32051 1.4487 0.51251 2.0047 0 0 0.34331 0.98862 0.57031 1.6406h5.0437c0.265-0.791 0.84844-2.5344 0.84844-2.5344 0.009-0.026 0.0203-0.0562 0.0203-0.0562 0.171-0.463 0.18907-0.51276 0.18907-0.89376 0-0.548-0.20538-0.7658-0.90938-1.2328l-0.39844-0.26407v-1.4656h22.072v1.3703l-0.27813 0.26406c-1.072 1.012-1.125 2.1061-1.125 3.9531v12.231c0.232 0.025 0.47294 0.0328 0.73594 0.0328 1.246 0 1.609-0.44907 1.8-0.88907l1.0906-2.5172 1.5953 7.1859 0.15-0.0125 0.42032-0.2625c0.916-0.571 0.948-1.5769 0.925-3.1719l-0.005-0.57656v-12.117l0.005-0.575c0.023-1.583-0.01-2.5847-0.93595-3.1797l-0.40937-0.26249v-1.4734h15.711l1.7406 6.6719h-1.7359l-0.26719-0.32812c-0.839-1.032-1.9876-1.4531-3.9656-1.4531-0.822 0-1.6744 0.043-2.4594 0.25v4.5469h0.1625l0.30312 0.003c1.29 0.011 1.7784-0.0738 1.9484-0.56875l0.20782-0.60156h1.6844v6.3172h-1.2406l-0.175-0.0797c-0.031-0.013-0.21307-0.0813-0.81406-0.0813h-2.0766v3.4688h0.12968l0.42188 0.002c1.567 0.014 2.5549-0.041 3.0469-0.91094l0.25624-0.45156h1.5047v6.4781h-1.1812l-0.17812-0.0828c-0.174-0.08-0.63319-0.0797-0.96719-0.0797h-13.484-14.238c-0.109 0.017-1.3437 0.21406-1.3437 0.21406l-0.19688-0.79219-1.8359-7.3594 2.2 1.5953c1.119 0.777 1.8708 1.0297 3.0828 1.0297 0.264 0 0.48969-0.002 0.70469-0.0125v-12.252l0.005-0.57813c0.002-0.164 0.005-0.323 0.005-0.475 0-1.337-0.12462-2.2104-0.94062-2.7344l-0.40781-0.26249-0.23281-0.10313-0.27812 0.26406c-1.51 1.426-1.736 2.0442-2.336 3.6922l-0.18437 0.50469-6.2391 17.269h-9.3313v-1.4656l0.4-0.26406c0.72-0.476 0.81251-0.8575 0.81251-1.1375 0-0.356-0.28469-1.1922-0.45469-1.6922l-0.2125-0.64687-4.3906-12.894c-0.543-1.566-0.89518-2.3605-1.9672-3.3625l-0.33282-0.31874-0.34843 0.31562c-1.073 1.013-1.125 2.1071-1.125 3.9531v12.231c0.232 0.025 0.4745 0.0328 0.7375 0.0328 1.244 0 1.6074-0.44907 1.7984-0.88907l1.0922-2.514 1.9203 8.6516h-11.47l0.22656 0.80156 6.75 24.339 0.40469-0.26249c0.909-0.593 0.96274-1.7023 0.94374-3.4563l-0.005-0.62031 0.0297-13.036c0.005-2.115-0.44762-3.3862-1.4656-4.1172l-0.37032-0.26719v-1.4719l0.91094 0.0219c4.846 0.117 9.7403 0.15731 14.545 0.12031l0.70626-0.006 1.6766 6.9453-1.7281 0.0203-0.26874-0.35937c-0.965-1.273-2.2615-1.5321-3.9125-1.5281-0.819 0.002-1.6678 0.0503-2.4438 0.27031-0.003 0.882-0.0105 3.8347-0.0125 5.0187 0.311-0.0008 0.64063-0.003 0.64063-0.003l0.29375 0.003c1.299 0.014 1.7617-0.0783 1.9437-0.64531l0.19844-0.61562 1.7016-0.006-0.005 0.89531-0.0141 5.7625-1.2453 0.008-0.19063-0.0906c-0.028-0.014-0.19625-0.0817-0.78125-0.0797l-2.5547 0.005c-0.002 1.023-0.005 2.8362-0.008 3.8672 0.161-0.0008 0.38281 0 0.38281 0h0.20157c1.655 0.008 2.6994-0.0598 3.2344-1.0828l0.24844-0.47656 1.5188-0.008 0.006 0.89844-0.0125 5.8453-1.1828 0.0141-0.19687-0.0969c-0.15605-0.0766-0.61216-0.0745-0.91719-0.0734-3.765 0.076-7.5955 0.10494-11.388 0.0859l-8.7859 0.002 0.025-0.92656 0.0125-0.65313 0.49063-0.23906c0.907-0.44 1.4688-0.90512 1.4688-1.8531v-0.008c-0.00096-0.513-0.17244-1.1327-0.32344-1.6797l-0.0437-0.1578c-0.00096-0.003-1.6504-6.1376-2.6734-9.9406-1.13 3.585-3.3453 10.617-3.3453 10.617l-0.175 0.55937c-0.305 0.958-0.8085 2.5505-0.8375 3.2875 0.003 0.023 0.0281 0.23593 0.0281 0.23593l-0.008 1.0703s-6.6154 0.38168-10.873 0.55468c-2.115 0.085-13.102 1-13.102 1zm-17.181 1.8984 0.006-0.98906 0.002-0.51406 0.27656-0.25937c1.148-1.08 1.1408-2.4714 1.1328-4.3984v-0.74687l0.0797-17.159 0.008-0.73438c0.028-2.13 0.0595-4.5431-1.1125-5.7531l-0.25-0.25781 0.002-0.50626 0.006-0.99062 0.98282 0.125c4.754 0.572 9.5876 1.0783 14.366 1.5062l0.62032 0.0563 0.15624 0.60469c0.34 1.319 0.55832 2.4818 0.77032 3.6078 0.178 0.95 0.34675 1.8474 0.56875 2.7094l0.83906 3.2484-2.3312-2.4141c-1.143-1.186-2.6206-1.8591-4.3906-2.0031-0.881-0.071-1.7649 0.22357-2.4609 0.55157-0.003 0.708-0.0844 17.239-0.0844 17.239l-0.009 0.8c-0.005 0.25-0.008 0.47919-0.008 0.69219 0 1.46 0.143 2.1005 1.025 2.8125l0.32968 0.26564-0.005 1.3375-0.775 0.0937c-2.913 0.351-5.8621 0.679-8.7641 0.975l-0.97969 0.10156zm147.27 1.8578c-1.5494-0.0218-3.1152-0.24926-4.6609-0.475l-8.8063-1.3656-7.9703-0.98595 0.0203-0.83749 0.006-0.43438 0.20937-0.24531c1.201-1.417 1.2779-2.8404 1.3109-5.2344 0 0 0.0862-6.1893 0.11718-8.3953-2.827 4.62-5.7174 9.313-8.6234 14l-0.28749 0.46406-7.9781-0.55468-0.0359-0.7922-0.025-0.45624 0.2172-0.275c1.591-1.974 1.8132-2.9758 1.8562-5.9188l0.2-13.541c0.03-2.072 0.0594-4.0297-1.1156-5.2937l-0.0469-0.0469-0.17187 0.19531c-1.701 2.049-1.8836 2.6249-2.6516 5.0469l-6.4313 20.247-0.675-0.0234c-2.714-0.093-5.4849-0.21281-8.2359-0.35781l-0.85469-0.0453 0.0219-1.5781 0.59374-0.21718c1.013-0.348 1.0199-0.74557 1.0219-0.87657 0.008-0.437-0.25513-1.3705-0.42813-1.9875l-0.19375-0.72344 0.008 0.0344-4.1188-14.428c-0.544-1.838-0.97943-2.8952-1.9734-3.9062l-0.2625-0.26718 0.0266-1.3234 8.2703-0.3-0.0203 0.94218-0.0125 0.48126-0.24844 0.2375c-0.518 0.522-0.82024 0.95824-0.83124 1.6312v0.0313c0 0.618 0.296 1.6418 0.475 2.2578 0 0 0.32393 1.1126 0.53593 1.8406 0.969-0.039 4.0367-0.16456 4.9297-0.20156 0.253-0.849 0.92187-3.0875 0.92187-3.0875l0.0172-0.0578c0.18-0.557 0.21232-0.65756 0.22032-1.1516v-0.05c0-0.72-0.25982-0.98044-0.88282-1.4234l-0.37969-0.26875 0.0172-1.4203 0.83438-0.0359c6.082-0.311 18.491-1.3953 18.491-1.3953l-0.006 0.99687-0.006 0.41719-0.19531 0.25469c-1.173 1.457-1.4306 3.2749-1.4656 5.7359 0 0-0.0842 5.8097-0.10624 7.3797 1.801-2.989 4.7312-7.85 4.7312-7.85l0.58282-1.0047c1.249-2.171 2.074-3.6052 4.325-5.2562l0.41718-0.31407c1.086-0.816 2.5751-1.9336 3.6531-2.4156l1.2906-0.575-0.33751 25.32c-0.04 2.864-0.003 4.6997 1.1734 6.2797l0.16407 0.22187 0.42812-0.21249c0.349-0.169 0.7995-0.82088 0.9125-1.5219 0.176-1.279 0.17656-5.7212 0.17656-7.1812v-14.652l0.002-0.61563c0.013-2.051 0.0266-4.375-1.2844-5.075l-0.48437-0.25781v-1.4875l9.7422-1.3781 0.94531-0.0969c3.739-0.392 7.6053-0.79718 11.02 2.6828 2.924 3.15 4.5922 8.5571 4.5922 14.853 0 6.946-1.847 12.528-5.2 15.719l-0.0203 0.0188c-2.33 2.0819-4.8676 2.6192-7.45 2.5828zm-157.27 0.12969c-4.1581 0.005-7.7255-1.4196-10.397-4.175l-0.0125-0.0141-0.0125-0.0156c-2.749-3.096-4.4553-8.5788-4.3453-13.969 0.11-5.63 1.7774-10.551 4.6984-13.852 3.303-3.85 6.9747-4.1265 10.13-3.8875 2.645 0.197 5.4912 0.85188 7.8062 1.7969l0.40626 0.16563 2.8703 10.456-2.2047-1.8859c-2.643-2.261-5.176-3.4602-7.525-3.5672-1.543-0.071-2.8428 0.39606-3.8688 1.3891-1.868 1.812-2.8579 5.3342-2.7859 9.9172 0.066 4.499 0.99044 7.7054 2.6734 9.2734 0.953 0.886 2.1477 1.2741 3.6547 1.1891 2.187-0.13 3.7888-1.2192 5.5188-2.8172l1.1703-1.0813 1.7969 9.1578-0.875 0.17187c-0.899 0.175-1.7904 0.43819-2.7344 0.71719-1.342 0.395-2.7309 0.80362-4.1469 0.94062-0.61724 0.0594-1.2232 0.0884-1.8172 0.0891z" fill="#fff"/><path d="m21.016 3.2715c-4.578-0.0386-9.003 1.3822-12.393 4.8789-3.4687 3.9066-5.2709 10.691-5.1484 16.7 0.13 6.661 2.1013 12.652 5.5938 16.599 3.5076 4.088 7.2626 4.827 11.746 4.489 2.948-0.22 6.448-0.956 9.42-2.168 0.827-3.018 1.655-6.032 2.483-9.043-3.083 2.636-6.555 4.565-10.078 4.724-6.727 0.314-9.62-6.533-9.483-15.262 0.113-7.647 2.167-14.564 9.086-14.171 3.031 0.178 5.271 1.674 7.59 3.814 0.55-2.801 1.1-5.6016 1.648-8.4004-2.832-0.5525-5.652-1.7828-8.496-2.0566-0.657-0.0633-1.314-0.098-1.968-0.1035zm196.26 0.1953c-1.83 0.0293-3.71 0.2982-5.61 0.5762l-10.03 1.5547v0.1757c0.84 0.41 1.58 1.5857 1.77 2.752 0.23 1.7016 0.23 7.1286 0.23 9.1586v18.312c0 3.101 0.24 6.818-2.2 8.125v0.178l11.17 1.58c5.09 0.501 9.79 1.385 14-2.899 3.63-3.913 5.41-10.734 5.41-17.763 0-7.83-1.92-14.796-6.14-18.819-2.65-2.3605-5.55-2.9801-8.6-2.9312zm-182.88 2.4863v0.1739c1.995 1.8762 1.749 4.241 1.763 7.232l0.1 21.45c0.015 2.987 0.286 6.839-1.692 8.88 0 0.058 0.001 0.117 0.002 0.174 5.99-0.721 11.986-1.35 17.989-1.888 0.783-3.039 1.062-5.527 1.673-7.897-1.778 1.843-3.96 2.657-6.193 2.838-1.461 0.119-2.965-0.389-4.267-1.109-0.037-7.408-0.072-14.816-0.11-22.225-0.012-2.939-0.308-4.6466 1.672-6.2441 0-0.055-0.002-0.1098-0.002-0.166-3.647-0.4388-7.293-0.8463-10.935-1.2188zm165.1 0.1563c-2.6 0.275-5.2 0.5689-7.8 0.8789v0.1562c1.77 2.0838 1.87 4.1835 1.91 7.2595 0.07 4.872 0.14 9.745 0.2 14.617-4.3-7.052-8.61-14.057-12.93-21.013-2.76 0.1723-5.52 0.3654-8.28 0.5779 0 0.045-0.01 0.0898-0.01 0.1348 2.23 2.7703 2.52 4.3223 2.57 8.0933 0.08 5.643 0.17 11.283 0.25 16.924 0.04 2.85 0.06 5.517-1.7 7.405v0.146c2.67 0.195 5.33 0.41 8 0.643-0.01-0.05-0.01-0.101-0.01-0.153-1.77-2.197-2.04-4.955-2.08-7.859-0.06-4.4-0.13-8.799-0.19-13.197 0.04 0 0.08-0.001 0.12-0.002 2.65 4.378 5.3 8.773 7.95 13.187 2.03 3.453 2.82 5.284 5.83 7.496 1.23 0.91 3.46 2.658 4.88 3.291-0.13-9.962-0.26-19.923-0.39-29.884-0.05-3.605-0.02-6.2476 1.69-8.5376-0.01-0.0537-0.01-0.1103-0.01-0.164zm-143.63 2.164v0.1524c1.973 1.6262 1.717 4.4042 1.721 7.0172l0.025 18.809c0.004 2.614 0.292 5.391-1.676 7.141v0.15c6.134-0.528 12.271-0.954 18.413-1.283 0.568-2.476 1.136-4.948 1.705-7.422-0.058 0.005-0.115 0.009-0.174 0.014-1.529 2.16-4.342 2.869-6.596 2.984-1.409 0.071-2.898 0.058-4.226-0.494-0.005-3.038-0.01-6.076-0.014-9.113 0.442-0.005 0.884-0.01 1.326-0.012 1.49-0.013 3.561-0.199 4.127 1.689 0.068 0 0.135-0.002 0.201-0.002-0.002-2.198-0.006-4.396-0.01-6.593-0.067-0.002-0.133-0.004-0.201-0.006-0.362 0.181-0.924 0.213-1.488 0.201-1.321-0.03-2.642-0.055-3.963-0.076l-0.012-7.856c0.542 0.031 1.082 0.065 1.623 0.098 1.972 0.11 4.266 0.02 5.356 2.295 0.041 0.002 0.081 0.005 0.121 0.008-0.004-2.229-0.007-4.457-0.01-6.6859-0.04-0.0038-0.081-0.0073-0.121-0.0098-0.442 0.1925-1.086 0.1352-1.689 0.084-4.815-0.4238-9.628-0.7886-14.438-1.0899zm18.467 1.1524c0.001 0.045 0.002 0.091 0.002 0.1347 1.046 1.1615 1.813 2.6375 2.316 4.2365 2.118 6.382 4.236 12.776 6.354 19.183 0.919 2.708 1.534 3.997 3.73 5.598 1.518 1.116 3.302 1.802 5.008 2.535 2.846-10.201 5.693-20.381 8.544-30.539-0.01-0.046-0.01-0.092-0.01-0.136-2.584-0.072-5.17-0.126-7.755-0.163 0 0.047 0.001 0.092 0.002 0.137 1.158 0.563 2.469 1.41 2.463 3.33-0.002 0.859-0.28 1.789-0.5 2.588-1.444 5.363-2.886 10.73-4.33 16.104-1.775-5.645-3.551-11.283-5.326-16.911-0.379-1.237-1.297-3.903-1.322-5.168 0.012-0.107 0.024-0.212 0.037-0.318-0.001-0.0449-0.002-0.0909-0.002-0.1347-3.071-0.1837-6.142-0.3428-9.211-0.4765zm86.064 0.1933c-3.42 0.1163-6.84 0.2654-10.27 0.4449v0.137c0.88 0.3 2.01 0.894 2.03 2.131 0.02 0.961-0.58 2.754-0.8 3.67-1.72 6.004-3.44 12.015-5.15 18.035-0.68 2.269-1.27 3.856-2.75 5.358 0 0.043 0.01 0.089 0.01 0.134 2.7 0.079 5.4 0.178 8.1 0.295v-0.138c-0.72-0.728-1.34-1.528-1.36-2.805-0.02-0.956 0.39-2.353 0.65-3.254 0.3-1.025 0.6-2.049 0.9-3.074 2.61 0.088 5.22 0.195 7.82 0.32 0.46 1.54 0.92 3.079 1.38 4.621 0.25 0.768 0.33 1.011 0.35 1.811 0.02 1.506-0.68 2.127-1.57 2.765v0.141c3.99 0.204 7.98 0.452 11.97 0.742v-0.049-0.097c-2.29-2.76-2.55-3.639-3.55-6.786-2.59-8.151-5.17-16.287-7.76-24.402zm55.42 0.6149c5.86-0.071 7.99 7.965 7.99 14.918 0 3.693-0.84 7.422-2.22 10.506-1.69 3.608-3.74 4.676-6.96 4.328-0.92-0.098-1.84-0.329-3.26-0.863v-28.019c1.62-0.42 2.75-0.726 3.87-0.838 0.2-0.02 0.39-0.029 0.58-0.032zm-97.55 0.266c-0.44 0.215-1.07 0.211-1.67 0.207-4.73-0.094-9.47-0.128-14.2-0.105v0.13c1.94 1.27 1.67 3.76 1.67 6.024l0.04 16.297c0.01 2.265-0.35 4.66-2.29 6.052v0.131c6.07-0.147 12.14-0.198 18.21-0.15 0.52-2.156 1.04-4.312 1.56-6.467-0.06 0-0.13-0.001-0.2-0.002-1.5 1.985-3.56 2.359-5.78 2.354-1.38-0.004-2.85-0.089-4.16-0.651-0.01-2.73-0.01-5.459-0.02-8.189 0.64 0.001 1.28 0.001 1.92 0.006 1.47-0.004 3.29-0.172 3.85 1.576h0.2c0-2.033-0.01-4.066-0.02-6.1-0.06 0-0.13 0.002-0.19 0-0.36 0.174-0.91 0.212-1.47 0.211-1.43-0.009-2.86-0.01-4.3-0.008 0-2.352-0.01-4.706-0.01-7.058 0.53 0 1.06-0.001 1.59 0.002 1.95-0.006 4.2-0.105 5.28 1.951h0.12c-0.01-2.07-0.01-4.139-0.02-6.209-0.04 0-0.08-0.002-0.11-0.002zm15.63 0.182c-3.71-0.01-7.42 0.017-11.13 0.08v0.129c1.95 1.365 2.33 3.651 2.34 5.892-0.04 5.369-0.09 10.738-0.13 16.106 0.01 2.243 0.29 4.778-1.64 6.086v0.127c5.73 0.01 11.46 0.109 17.19 0.293 0.72-2.385 1.44-4.772 2.17-7.153-1.74 1.336-3.93 2.788-6.11 2.705-1.43-0.055-3 0.056-4.27-0.629-0.02-5.763-0.04-11.529-0.06-17.293-0.01-2.283-0.3-4.939 1.64-6.214v-0.129zm21.39 6.597h0.04c0.96 3.063 1.92 6.128 2.88 9.196-1.79-0.059-3.58-0.111-5.38-0.153 0.82-3.017 1.64-6.03 2.46-9.043zm-80.472 25.914c-2.431 0-4.903 0.485-6.937 1.944-1.835 1.336-2.951 3.562-2.951 5.871 0 9.072 12.162 8.06 12.162 13 0 2.269-2.433 2.877-4.227 2.877-2.871 0-6.141-1.296-8.375-3.158l1.317 5.83c2.472 0.971 5.105 1.459 7.736 1.459 2.831 0 5.384-0.363 7.736-2.106 2.114-1.58 3.19-3.929 3.19-6.56 0-2.594-1.036-4.414-2.949-6.116-1.597-1.417-3.391-2.187-5.305-3.039-1.476-0.647-3.789-1.417-3.789-3.359 0-1.904 1.915-2.594 3.47-2.594 1.993 0 3.949 0.809 5.624 1.903v-4.737c-2.074-0.81-4.467-1.215-6.702-1.215zm92.592 0.444c-0.44 0.203-1.08 0.203-1.68 0.203h-13.95v0.121c1.95 1.216 1.67 3.525 1.67 5.631v15.146c0 2.107 0.28 4.374-1.67 5.629v0.123h17.66l1.6-6.117h-0.2c-1.52 1.864-3.59 2.229-5.82 2.229-1.4 0-2.88-0.08-4.19-0.608v-7.615h1.31c1.48 0 3.31-0.161 3.87 1.459h0.2v-5.67h-0.2c-0.36 0.161-0.92 0.201-1.47 0.201h-3.71v-6.56h1.27c1.96 0 4.23-0.204 5.31 1.699h0.12v-5.871h-0.12zm-81.23 0.082l-1.555 6.236 0.279-0.203c1.515-1.053 2.672-1.498 4.506-1.498 0.719 0 1.317-0.001 1.994 0.16v16.283c0 2.107 0.28 4.415-1.674 5.67v0.121h10.81v-0.121c-1.718-1.619-1.759-3.442-1.759-5.75v-16.203c0.679-0.201 1.319-0.242 2.029-0.242 1.44 0 2.68 0.407 3.27 1.783l1.36-6.117h-18.502l-0.758-0.119zm44.05 0l-1.55 6.236 0.28-0.203c1.51-1.053 2.67-1.498 4.5-1.498 0.72 0 1.32-0.001 2 0.16v16.283c0 2.107 0.28 4.415-1.68 5.67v0.121h10.81v-0.121c-1.72-1.619-1.76-3.442-1.76-5.75v-16.203c0.68-0.201 1.32-0.242 2.04-0.242 1.43 0 2.67 0.407 3.27 1.783l1.35-6.117h-18.5l-0.76-0.119zm-19.45 0.121v0.121c0.8 0.526 1.52 1.257 1.52 2.35 0 0.851-0.64 2.43-0.88 3.24l-5.5 16.16c-0.72 2.066-1.24 3.239-2.75 4.656v0.123h8.17v-0.123c-0.72-0.607-1.43-1.131-1.43-2.267 0-0.85 0.43-2.106 0.71-2.916l0.96-2.754h7.9l1.31 3.929c0.24 0.648 0.32 0.851 0.32 1.539 0 1.295-0.72 1.862-1.63 2.469v0.123h12.04v-0.041-0.082c-2.27-2.146-2.47-3.078-3.43-5.67l-7.54-20.857h-9.77zm4.59 6.846h0.04l2.75 7.978h-5.42l2.63-7.978z" transform="matrix(.8 0 0 -.8 212.99 337.25)" fill="#006a4d"/></g></g></svg>
