<svg xmlns="http://www.w3.org/2000/svg" width="393.66108" height="80.000003"><path d="M 21.3471,0 7.91962,11.41227 0,68.56599 11.37969,80 H 30.14666 L 43.68822,68.58772 46.73004,46.6214 H 29.80989 l -2.69418,19.4025 h -9.39707 l 7.22433,-52.0478 h 9.38621 L 32.13472,29.85334 H 49.06573 L 51.65672,11.12439 41.2276,0 Z M 70.97774,0 57.43618,11.4177 49.50028,68.58772 59.87507,80 H 80.21185 L 93.41663,68.58772 101.3471,11.42314 90.5269,0 Z M 108.46823,0 97.371,80 h 34.27485 l 1.93917,-13.9761 H 116.68116 L 125.83379,0 h -8.48452 -1.61868 z M 160.29333,0 146.75721,11.4177 138.8213,68.58772 149.21239,80 H 169.5383 L 182.75395,68.58772 190.68442,11.42314 179.85335,0 Z m 38.22922,0 -11.0918,80 h 17.38729 l 4.4867,-32.44433 h 9.17436 L 213.98154,80 h 16.81152 l 4.35089,-31.47203 -8.63661,-8.25095 10.91255,-8.14232 2.88973,-20.71156 L 229.69583,0 Z m 59.53287,0 -22.37372,80 h 16.90929 l 3.65563,-14.98099 h 12.09125 L 267.85987,80 h 16.99076 l -0.8365,-80 z m 43.15589,0 -11.10266,80 h 32.17816 L 335.62196,68.58772 343.547,11.42314 332.72679,0 Z m 62.06957,0 -13.5253,11.4177 -7.94677,57.17002 L 352.1999,80 h 20.32048 l 13.2156,-11.41228 7.9251,-57.16458 L 382.83538,0 Z M 74.44868,13.9761 h 0.66811 7.83813 0.66269 l -0.0978,0.67354 -7.03422,50.70614 -0.0869,0.66812 H 75.73058 67.90331 67.2352 l 0.0869,-0.66812 7.03423,-50.70614 z m 89.33731,0 h 0.66812 7.8164 0.67898 l -0.0978,0.67354 -7.03422,50.70614 -0.0923,0.66812 h -0.66812 -7.82726 -0.66269 l 0.0869,-0.66812 7.03422,-50.70614 z m 50.17926,0 h 0.66268 7.83813 0.66268 l -0.0869,0.67354 -2.5421,18.26725 -0.0815,0.66812 h -0.66811 -7.82727 -0.67355 l 0.0978,-0.66812 2.52581,-18.26725 z m 152.79193,0 h 0.6681 7.8382 0.6627 l -0.098,0.67354 -7.0234,50.70614 -0.098,0.66812 h -0.6682 -7.8109 -0.6844 l 0.098,-0.66812 7.0288,-50.70614 z m -50.11404,0.005 h 0.66812 7.83813 0.65725 l -0.0923,0.66268 -7.03423,50.71157 -0.0815,0.66812 h -0.67355 -7.82183 -0.67355 l 0.0978,-0.66812 7.01793,-50.71157 z m -49.39707,1.91743 h 3.03639 l -1.22759,35.14938 h -9.63063 z"/></svg>