<svg id="svg" version="1.1" xmlns="http://www.w3.org/2000/svg" xmlns:xlink="http://www.w3.org/1999/xlink" width="400" height="356.53450807635835" viewBox="0, 0, 400,356.53450807635835"><g id="svgg"><path id="path0" d="M2.141 3.211 C 2.141 3.806,2.331 4.282,2.569 4.282 C 2.804 4.282,3.750 5.085,4.672 6.066 C 5.593 7.047,6.515 7.850,6.721 7.850 C 6.928 7.850,8.078 8.814,9.277 9.991 C 10.477 11.169,11.570 12.137,11.706 12.144 C 11.842 12.150,12.592 12.793,13.371 13.571 C 14.151 14.350,14.917 14.987,15.073 14.987 C 15.228 14.987,15.881 15.527,16.522 16.187 C 17.163 16.847,18.043 17.500,18.478 17.638 C 18.913 17.776,19.269 18.114,19.269 18.388 C 19.269 18.662,19.625 19.077,20.061 19.311 C 20.497 19.544,21.330 20.272,21.911 20.929 C 22.492 21.586,23.139 22.125,23.348 22.128 C 23.558 22.131,24.590 23.014,25.643 24.091 C 26.695 25.167,27.726 26.048,27.934 26.048 C 28.142 26.048,28.975 26.741,29.787 27.588 C 30.598 28.435,31.440 29.068,31.658 28.995 C 31.875 28.923,32.156 29.185,32.281 29.579 C 32.405 29.972,32.820 30.393,33.203 30.514 C 33.585 30.636,33.898 30.885,33.898 31.068 C 33.898 31.251,34.139 31.401,34.434 31.401 C 34.728 31.401,34.969 31.641,34.969 31.936 C 34.969 32.230,35.129 32.471,35.326 32.471 C 35.563 32.471,35.682 66.837,35.682 134.856 L 35.682 237.240 34.913 237.484 C 34.490 237.618,33.406 238.432,32.505 239.292 C 28.241 243.361,26.600 244.781,26.164 244.781 C 25.904 244.781,25.691 245.022,25.691 245.317 C 25.691 245.611,25.551 245.852,25.379 245.852 C 25.208 245.852,24.454 246.414,23.704 247.101 C 22.954 247.788,22.197 248.350,22.021 248.350 C 21.845 248.350,20.789 249.291,19.674 250.441 C 18.559 251.591,17.289 252.646,16.852 252.784 C 16.415 252.923,16.057 253.163,16.057 253.317 C 16.057 253.796,14.333 255.486,13.844 255.486 C 13.589 255.487,12.758 256.129,11.997 256.914 C 11.235 257.699,10.480 258.341,10.319 258.341 C 10.157 258.341,9.496 258.904,8.849 259.592 C 6.353 262.244,6.111 262.447,5.030 262.790 C 4.589 262.930,4.318 263.134,4.427 263.243 C 4.699 263.516,3.217 264.764,2.622 264.764 C 2.299 264.764,2.141 265.232,2.141 266.191 L 2.141 267.618 70.294 267.618 L 138.448 267.618 138.448 268.467 C 138.448 268.933,138.689 269.515,138.983 269.759 C 139.277 270.003,139.518 270.585,139.518 271.052 C 139.518 271.518,139.658 271.900,139.830 271.900 C 140.001 271.900,140.243 272.542,140.369 273.327 C 140.494 274.112,140.756 274.755,140.950 274.755 C 141.144 274.755,141.302 274.996,141.302 275.290 C 141.302 275.584,141.453 275.825,141.637 275.825 C 141.822 275.825,142.081 276.548,142.213 277.431 C 142.346 278.314,142.589 279.037,142.753 279.037 C 142.918 279.037,143.318 279.639,143.641 280.375 C 144.798 283.004,145.055 283.503,145.495 283.968 C 145.740 284.228,145.941 284.669,145.941 284.950 C 145.941 285.230,146.084 285.459,146.259 285.459 C 146.434 285.459,146.686 285.891,146.818 286.420 C 146.951 286.948,147.347 287.630,147.698 287.936 C 148.049 288.242,148.459 288.880,148.609 289.354 C 148.759 289.828,149.263 290.598,149.731 291.065 C 150.198 291.533,150.580 292.148,150.580 292.434 C 150.580 292.719,150.740 292.953,150.937 292.953 C 151.133 292.953,151.293 293.274,151.293 293.666 C 151.293 294.059,151.454 294.380,151.650 294.380 C 151.847 294.380,152.007 294.621,152.007 294.915 C 152.007 295.210,152.171 295.450,152.372 295.450 C 152.572 295.450,152.933 295.892,153.174 296.432 C 153.415 296.971,153.973 297.782,154.415 298.232 C 154.857 298.683,155.219 299.215,155.219 299.416 C 155.219 299.616,155.781 300.310,156.467 300.958 C 157.154 301.606,157.716 302.244,157.716 302.377 C 157.716 302.510,158.118 303.051,158.608 303.580 C 159.099 304.109,159.500 304.659,159.500 304.802 C 159.500 305.320,174.563 320.071,175.091 320.071 C 175.427 320.071,175.556 320.275,175.429 320.607 C 175.289 320.971,175.448 321.142,175.926 321.142 C 176.312 321.142,176.628 321.302,176.628 321.499 C 176.628 321.695,176.869 321.855,177.163 321.855 C 177.458 321.855,177.698 322.028,177.698 322.238 C 177.698 322.666,178.581 323.640,178.970 323.640 C 179.109 323.640,179.594 324.041,180.049 324.532 C 180.504 325.022,181.129 325.424,181.439 325.424 C 181.749 325.424,182.095 325.665,182.208 325.959 C 182.321 326.253,182.568 326.494,182.758 326.494 C 182.947 326.494,183.326 326.695,183.599 326.940 C 184.780 327.999,185.184 328.278,185.534 328.278 C 185.738 328.278,185.905 328.439,185.905 328.635 C 185.905 328.831,186.139 328.992,186.424 328.992 C 186.710 328.992,187.338 329.387,187.821 329.870 C 188.304 330.352,189.114 330.851,189.621 330.979 C 190.129 331.106,190.544 331.339,190.544 331.497 C 190.544 331.654,191.246 332.122,192.103 332.537 C 192.960 332.952,193.948 333.609,194.299 333.997 C 194.650 334.384,195.153 334.701,195.417 334.701 C 195.681 334.701,195.897 334.862,195.897 335.058 C 195.897 335.254,196.286 335.415,196.763 335.415 C 197.240 335.415,197.871 335.656,198.165 335.950 C 198.459 336.244,198.872 336.485,199.082 336.485 C 199.293 336.485,199.465 336.633,199.465 336.814 C 199.465 336.994,199.946 337.248,200.535 337.377 C 201.124 337.507,201.606 337.760,201.606 337.941 C 201.606 338.122,201.907 338.269,202.276 338.269 C 202.644 338.269,203.146 338.510,203.390 338.805 C 203.634 339.099,204.136 339.340,204.504 339.340 C 204.872 339.340,205.174 339.500,205.174 339.697 C 205.174 339.893,205.556 340.054,206.022 340.054 C 206.489 340.054,207.071 340.294,207.315 340.589 C 207.559 340.883,207.980 341.124,208.251 341.124 C 208.521 341.124,208.742 341.285,208.742 341.481 C 208.742 341.677,209.144 341.838,209.634 341.838 C 210.125 341.838,210.526 341.983,210.526 342.161 C 210.526 342.339,210.852 342.399,211.249 342.295 C 211.714 342.174,212.206 342.377,212.629 342.864 C 212.991 343.281,213.629 343.622,214.047 343.622 C 214.466 343.622,214.808 343.767,214.808 343.945 C 214.808 344.123,215.599 344.377,216.566 344.510 C 217.568 344.648,218.406 344.969,218.517 345.257 C 218.634 345.561,219.213 345.763,219.971 345.763 C 220.664 345.763,221.231 345.923,221.231 346.120 C 221.231 346.316,221.713 346.476,222.302 346.476 C 222.890 346.476,223.372 346.619,223.372 346.793 C 223.372 346.967,224.095 347.217,224.978 347.350 C 225.861 347.482,226.583 347.741,226.583 347.926 C 226.583 348.110,227.056 348.260,227.633 348.260 C 228.210 348.260,228.774 348.408,228.885 348.589 C 228.997 348.770,230.171 349.034,231.493 349.175 C 233.118 349.348,234.079 349.639,234.454 350.071 C 234.869 350.548,235.798 350.774,238.112 350.962 C 239.818 351.100,241.213 351.352,241.213 351.521 C 241.213 351.690,242.003 351.829,242.968 351.829 C 243.933 351.829,244.779 351.999,244.848 352.207 C 244.917 352.415,246.215 352.679,247.732 352.794 C 249.249 352.908,250.491 353.140,250.491 353.308 C 250.491 353.475,251.936 353.613,253.702 353.613 C 255.468 353.613,256.913 353.739,256.913 353.894 C 256.913 354.677,294.011 354.838,294.791 354.059 C 295.071 353.778,296.269 353.613,298.020 353.613 C 299.550 353.613,300.803 353.470,300.803 353.296 C 300.803 353.122,301.956 352.915,303.365 352.835 C 304.935 352.746,305.983 352.523,306.071 352.259 C 306.157 352.001,306.916 351.829,307.969 351.829 C 308.934 351.829,309.723 351.685,309.723 351.509 C 309.723 351.333,311.011 351.075,312.584 350.936 C 314.690 350.750,315.561 350.519,315.885 350.063 C 316.194 349.627,317.066 349.368,318.822 349.191 C 320.196 349.053,321.374 348.787,321.439 348.600 C 321.505 348.413,321.877 348.260,322.268 348.260 C 322.658 348.260,323.218 348.020,323.512 347.725 C 323.807 347.431,324.518 347.190,325.092 347.190 C 325.667 347.190,326.137 347.029,326.137 346.833 C 326.137 346.637,326.539 346.476,327.029 346.476 C 327.520 346.476,327.921 346.316,327.921 346.120 C 327.921 345.923,328.311 345.763,328.788 345.763 C 329.265 345.763,329.871 345.547,330.135 345.282 C 330.399 345.018,331.233 344.686,331.989 344.544 C 333.563 344.249,334.614 343.722,335.472 342.797 C 335.802 342.441,336.285 342.178,336.546 342.211 C 337.185 342.293,338.626 341.813,338.626 341.518 C 338.626 341.388,339.429 340.970,340.410 340.589 C 341.392 340.208,342.194 339.789,342.194 339.657 C 342.194 339.525,342.596 339.316,343.087 339.193 C 343.577 339.070,343.979 338.812,343.979 338.619 C 343.979 338.427,344.219 338.269,344.514 338.269 C 344.808 338.269,345.049 338.116,345.049 337.929 C 345.049 337.741,345.619 337.481,346.315 337.351 C 347.011 337.220,347.495 337.028,347.392 336.925 C 347.127 336.660,348.624 335.415,349.207 335.415 C 349.471 335.415,349.688 335.254,349.688 335.058 C 349.688 334.862,349.964 334.701,350.301 334.701 C 350.638 334.701,351.240 334.336,351.639 333.890 C 352.038 333.444,352.806 332.886,353.345 332.649 C 353.885 332.412,354.326 331.987,354.326 331.704 C 354.326 331.421,354.782 331.090,355.338 330.968 C 355.894 330.845,357.051 330.030,357.910 329.155 C 358.768 328.280,359.634 327.565,359.833 327.565 C 360.032 327.565,360.938 326.765,361.847 325.787 C 362.755 324.809,363.602 324.114,363.729 324.241 C 363.857 324.368,363.961 324.308,363.961 324.107 C 363.961 323.600,370.304 317.217,370.807 317.217 C 371.032 317.217,371.116 317.117,370.995 316.995 C 370.873 316.873,371.488 316.108,372.362 315.293 C 373.237 314.479,373.957 313.656,373.964 313.463 C 373.970 313.271,374.612 312.475,375.391 311.696 C 376.169 310.916,376.806 310.068,376.806 309.811 C 376.806 309.554,377.047 309.252,377.342 309.139 C 377.636 309.026,377.877 308.647,377.877 308.296 C 377.877 307.946,378.118 307.566,378.412 307.453 C 378.707 307.341,378.947 306.933,378.947 306.547 C 378.947 306.160,379.266 305.745,379.660 305.620 C 380.052 305.496,380.471 305.003,380.591 304.526 C 380.711 304.048,380.917 303.657,381.050 303.657 C 381.183 303.657,381.595 303.136,381.966 302.498 C 382.337 301.860,382.733 301.258,382.846 301.160 C 383.230 300.826,384.300 298.732,384.300 298.314 C 384.300 297.729,385.233 296.860,385.536 297.162 C 385.674 297.300,385.741 297.252,385.686 297.056 C 385.529 296.498,386.105 295.018,386.934 293.850 C 387.972 292.387,388.582 291.181,388.582 290.593 C 388.582 290.321,388.822 290.098,389.117 290.098 C 389.431 290.098,389.657 289.766,389.663 289.295 C 389.670 288.854,389.911 288.181,390.199 287.800 C 390.487 287.419,390.723 286.736,390.723 286.283 C 390.723 285.830,390.845 285.459,390.995 285.459 C 391.367 285.459,392.507 282.768,392.507 281.889 C 392.507 281.498,392.667 281.178,392.864 281.178 C 393.060 281.178,393.220 280.845,393.220 280.438 C 393.220 280.032,393.461 279.458,393.756 279.164 C 394.050 278.870,394.291 278.319,394.291 277.941 C 394.291 277.562,394.451 277.252,394.648 277.252 C 394.844 277.252,395.004 276.690,395.004 276.004 C 395.004 275.317,395.152 274.755,395.333 274.755 C 395.514 274.755,395.767 274.273,395.897 273.684 C 396.026 273.095,396.279 272.614,396.460 272.614 C 396.641 272.614,396.789 272.061,396.789 271.386 C 396.789 270.711,396.949 270.059,397.145 269.938 C 397.342 269.816,397.502 269.245,397.502 268.668 C 397.502 267.973,397.683 267.618,398.037 267.618 C 398.476 267.618,398.573 267.004,398.573 264.228 C 398.573 261.125,398.515 260.839,397.888 260.839 C 396.772 260.839,396.075 261.232,396.075 261.863 C 396.075 262.188,395.714 262.613,395.272 262.809 C 394.827 263.006,394.512 263.424,394.565 263.748 C 394.627 264.122,394.272 264.468,393.580 264.709 C 392.984 264.917,392.388 265.375,392.254 265.728 C 391.945 266.545,391.241 267.261,390.748 267.261 C 390.538 267.261,390.366 267.444,390.366 267.666 C 390.366 268.121,388.708 269.759,388.248 269.759 C 388.085 269.759,387.867 270.080,387.765 270.473 C 387.647 270.921,387.278 271.186,386.771 271.186 C 386.328 271.186,386.060 271.281,386.175 271.397 C 386.413 271.634,383.702 274.344,381.802 275.767 C 381.115 276.282,380.199 277.068,379.767 277.513 C 379.335 277.959,378.882 278.323,378.761 278.323 C 378.639 278.323,378.320 278.524,378.052 278.769 C 377.601 279.181,376.989 279.704,374.167 282.088 C 373.599 282.569,372.955 282.962,372.736 282.962 C 372.516 282.962,372.036 283.363,371.667 283.854 C 371.299 284.344,370.780 284.746,370.515 284.746 C 370.250 284.746,369.832 285.067,369.587 285.459 C 369.342 285.852,368.854 286.173,368.502 286.173 C 368.151 286.173,367.771 286.414,367.658 286.708 C 367.545 287.003,367.236 287.244,366.972 287.244 C 366.707 287.244,366.090 287.645,365.599 288.136 C 365.108 288.626,364.539 289.028,364.334 289.028 C 364.129 289.028,363.961 289.195,363.961 289.400 C 363.961 289.605,363.760 289.740,363.515 289.701 C 362.824 289.589,361.733 290.155,360.895 291.060 C 360.475 291.512,359.950 291.882,359.727 291.882 C 359.504 291.882,359.322 292.043,359.322 292.239 C 359.322 292.435,358.996 292.596,358.597 292.596 C 358.199 292.596,357.780 292.837,357.667 293.131 C 357.554 293.426,357.158 293.666,356.786 293.666 C 356.415 293.666,356.111 293.827,356.111 294.023 C 356.111 294.219,355.722 294.380,355.246 294.380 C 354.770 294.380,353.887 294.796,353.283 295.304 C 352.680 295.812,352.186 296.101,352.186 295.946 C 352.186 295.791,351.993 295.857,351.757 296.093 C 351.522 296.328,351.040 296.521,350.687 296.521 C 350.334 296.521,350.045 296.682,350.045 296.878 C 350.045 297.074,349.792 297.235,349.484 297.235 C 349.175 297.235,348.682 297.475,348.388 297.770 C 348.094 298.064,347.463 298.305,346.986 298.305 C 346.509 298.305,346.120 298.448,346.120 298.622 C 346.120 298.797,345.562 299.044,344.881 299.172 C 344.200 299.299,343.437 299.693,343.186 300.046 C 342.919 300.421,342.063 300.780,341.124 300.909 C 339.433 301.143,337.563 301.876,337.559 302.307 C 337.557 302.447,336.753 302.669,335.772 302.799 C 334.790 302.929,333.988 303.176,333.988 303.347 C 333.988 303.518,333.426 303.657,332.739 303.657 C 332.052 303.657,331.490 303.811,331.490 303.998 C 331.490 304.185,330.888 304.435,330.152 304.553 C 329.416 304.671,328.535 304.919,328.194 305.104 C 327.853 305.290,327.010 305.442,326.321 305.442 C 325.631 305.442,325.067 305.602,325.067 305.798 C 325.067 305.995,324.281 306.155,323.321 306.155 C 322.098 306.155,321.513 306.316,321.370 306.690 C 321.214 307.095,320.560 307.226,318.685 307.226 C 317.110 307.226,316.155 307.378,316.067 307.643 C 315.897 308.151,287.600 308.582,287.601 308.077 C 287.602 307.903,285.996 307.812,284.033 307.874 C 281.673 307.948,280.464 307.858,280.464 307.606 C 280.464 307.380,279.610 307.226,278.353 307.226 C 277.037 307.226,276.188 307.066,276.100 306.801 C 276.016 306.551,274.978 306.313,273.572 306.224 C 272.260 306.140,271.186 305.930,271.186 305.757 C 271.186 305.583,270.464 305.442,269.581 305.442 C 268.698 305.442,267.975 305.302,267.975 305.132 C 267.975 304.961,267.296 304.731,266.466 304.620 C 265.636 304.508,264.900 304.246,264.831 304.037 C 264.761 303.828,264.004 303.657,263.149 303.657 C 262.294 303.657,261.507 303.515,261.399 303.342 C 261.292 303.168,260.480 302.917,259.594 302.785 C 258.708 302.652,257.984 302.393,257.984 302.208 C 257.984 302.024,257.743 301.873,257.449 301.873 C 257.154 301.873,256.913 301.729,256.913 301.552 C 256.913 301.375,255.950 301.118,254.773 300.981 C 253.596 300.845,252.696 300.628,252.773 300.500 C 252.932 300.237,252.077 299.362,251.657 299.358 C 250.670 299.349,248.707 298.881,248.707 298.655 C 248.707 298.505,248.305 298.282,247.814 298.159 C 247.324 298.035,246.922 297.777,246.922 297.585 C 246.922 297.392,246.521 297.235,246.030 297.235 C 245.540 297.235,245.138 297.095,245.138 296.923 C 245.138 296.752,244.535 296.516,243.797 296.398 C 243.059 296.280,242.225 295.864,241.943 295.473 C 241.662 295.083,240.981 294.664,240.430 294.543 C 239.880 294.422,239.429 294.176,239.429 293.995 C 239.429 293.814,239.125 293.666,238.754 293.666 C 238.382 293.666,237.986 293.426,237.873 293.131 C 237.760 292.837,237.341 292.596,236.943 292.596 C 236.544 292.596,236.218 292.435,236.218 292.239 C 236.218 292.043,236.049 291.882,235.844 291.882 C 235.638 291.882,235.116 291.509,234.684 291.053 C 233.840 290.162,232.729 289.588,232.052 289.694 C 231.822 289.731,231.534 289.450,231.414 289.070 C 231.293 288.690,230.519 288.059,229.692 287.667 C 228.865 287.275,227.718 286.458,227.141 285.850 C 226.565 285.243,225.922 284.743,225.714 284.741 C 225.505 284.738,224.459 283.855,223.389 282.778 C 222.319 281.702,221.304 280.821,221.134 280.821 C 220.698 280.821,219.804 279.878,219.804 279.419 C 219.804 279.209,219.645 279.037,219.451 279.037 C 218.824 279.037,217.663 277.826,217.663 277.173 C 217.663 276.824,217.462 276.533,217.217 276.527 C 216.664 276.512,215.165 275.291,215.165 274.854 C 215.165 274.678,214.711 274.061,214.157 273.484 C 213.602 272.907,213.045 272.154,212.919 271.811 C 212.793 271.467,212.461 271.186,212.182 271.186 C 211.903 271.186,211.573 270.785,211.450 270.294 C 211.327 269.804,211.069 269.402,210.876 269.402 C 210.684 269.402,210.526 269.247,210.526 269.058 C 210.526 268.868,210.045 268.220,209.456 267.618 C 208.867 267.016,208.385 266.305,208.385 266.038 C 208.385 265.772,208.150 265.463,207.861 265.353 C 207.573 265.242,207.114 264.616,206.841 263.962 C 206.567 263.308,206.102 262.531,205.806 262.235 C 204.500 260.930,204.658 260.125,206.220 260.125 C 207.019 260.125,207.672 259.964,207.672 259.768 C 207.672 259.572,208.142 259.411,208.717 259.411 C 209.291 259.411,210.003 259.170,210.297 258.876 C 210.591 258.582,211.325 258.341,211.928 258.341 C 212.531 258.341,213.024 258.180,213.024 257.984 C 213.024 257.788,213.342 257.627,213.731 257.627 C 214.524 257.627,217.388 256.566,217.663 256.170 C 217.761 256.029,218.644 255.793,219.625 255.647 C 220.696 255.488,221.655 255.100,222.023 254.678 C 222.363 254.289,222.876 254.066,223.171 254.179 C 223.465 254.292,223.801 254.231,223.917 254.043 C 224.033 253.856,224.520 253.702,224.999 253.702 C 225.478 253.702,225.870 253.541,225.870 253.345 C 225.870 253.149,226.276 252.988,226.773 252.988 C 227.270 252.988,227.769 252.748,227.882 252.453 C 227.995 252.159,228.391 251.918,228.763 251.918 C 229.134 251.918,229.438 251.757,229.438 251.561 C 229.438 251.365,229.839 251.204,230.330 251.204 C 230.821 251.204,231.222 251.034,231.222 250.826 C 231.222 250.619,231.396 250.556,231.607 250.687 C 231.819 250.818,232.230 250.587,232.519 250.174 C 232.833 249.726,233.614 249.331,234.453 249.197 C 235.227 249.073,235.861 248.832,235.861 248.661 C 235.861 248.490,236.085 248.350,236.358 248.350 C 236.631 248.350,236.947 248.109,237.060 247.814 C 237.173 247.520,237.592 247.279,237.991 247.279 C 238.389 247.279,238.715 247.119,238.715 246.922 C 238.715 246.726,239.117 246.566,239.607 246.566 C 240.098 246.566,240.500 246.422,240.500 246.247 C 240.500 246.072,240.901 245.829,241.392 245.705 C 241.882 245.582,242.284 245.324,242.284 245.131 C 242.284 244.939,242.525 244.781,242.819 244.781 C 243.113 244.781,243.354 244.621,243.354 244.425 C 243.354 244.228,243.640 244.068,243.988 244.068 C 244.337 244.068,244.898 243.747,245.234 243.354 C 245.570 242.962,246.087 242.640,246.384 242.640 C 246.680 242.640,246.922 242.480,246.922 242.284 C 246.922 242.087,247.163 241.927,247.458 241.927 C 247.752 241.927,247.993 241.766,247.993 241.570 C 247.993 241.374,248.241 241.213,248.545 241.213 C 248.849 241.213,249.469 240.812,249.924 240.321 C 250.379 239.831,250.933 239.429,251.156 239.429 C 251.379 239.429,251.561 239.272,251.561 239.079 C 251.561 238.887,251.963 238.628,252.453 238.505 C 252.944 238.382,253.345 238.149,253.345 237.987 C 253.345 237.825,253.700 237.580,254.135 237.443 C 254.569 237.305,255.223 236.812,255.588 236.348 C 255.953 235.884,256.452 235.504,256.697 235.504 C 256.941 235.504,257.481 235.143,257.895 234.701 C 258.873 233.659,259.676 233.006,259.982 233.006 C 260.116 233.006,260.686 232.525,261.249 231.936 C 261.812 231.347,262.425 230.865,262.612 230.865 C 263.147 230.865,275.112 218.694,275.112 218.150 C 275.112 217.882,275.328 217.663,275.592 217.663 C 276.229 217.663,277.609 216.448,277.609 215.887 C 277.609 215.467,278.031 214.929,280.107 212.694 C 280.598 212.166,281.050 211.509,281.113 211.235 C 281.175 210.961,281.611 210.352,282.081 209.882 C 282.552 209.412,283.033 208.722,283.151 208.349 C 283.270 207.977,283.516 207.672,283.699 207.672 C 283.882 207.672,284.032 207.459,284.032 207.199 C 284.032 206.939,284.420 206.361,284.894 205.916 C 285.368 205.471,285.860 204.689,285.988 204.180 C 286.116 203.671,286.520 202.994,286.887 202.676 C 287.253 202.359,287.661 201.667,287.794 201.139 C 287.926 200.610,288.178 200.178,288.353 200.178 C 288.528 200.178,288.671 199.857,288.671 199.465 C 288.671 199.072,288.832 198.751,289.029 198.751 C 289.226 198.751,289.665 198.109,290.005 197.324 C 290.345 196.539,290.746 195.897,290.896 195.897 C 291.046 195.897,291.169 195.495,291.169 195.004 C 291.169 194.514,291.370 194.112,291.617 194.112 C 292.037 194.112,292.728 192.565,293.209 190.544 C 293.326 190.054,293.711 189.447,294.065 189.196 C 294.419 188.945,294.809 188.142,294.932 187.412 C 295.056 186.681,295.383 185.578,295.660 184.959 C 295.937 184.341,296.164 183.659,296.164 183.443 C 296.164 183.227,296.325 183.051,296.521 183.051 C 296.717 183.051,296.878 182.649,296.878 182.159 C 296.878 181.668,297.038 181.267,297.235 181.267 C 297.431 181.267,297.591 180.802,297.591 180.234 C 297.591 179.646,297.822 179.114,298.127 178.997 C 298.436 178.878,298.662 178.344,298.662 177.731 C 298.662 177.147,298.801 176.584,298.972 176.479 C 299.142 176.373,299.391 175.441,299.524 174.406 C 299.773 172.482,300.436 170.562,300.853 170.562 C 300.981 170.562,301.199 169.277,301.338 167.707 C 301.477 166.137,301.735 164.853,301.910 164.853 C 302.086 164.853,302.230 163.880,302.230 162.691 C 302.230 161.502,302.374 160.618,302.550 160.726 C 303.062 161.043,303.301 159.974,303.301 157.360 C 303.301 155.726,303.448 154.872,303.747 154.772 C 304.399 154.555,304.399 114.847,303.747 114.630 C 303.448 114.530,303.301 113.675,303.301 112.034 C 303.301 110.688,303.137 109.486,302.938 109.363 C 302.739 109.240,302.668 108.989,302.781 108.807 C 302.894 108.624,302.816 108.475,302.608 108.475 C 302.399 108.475,302.230 107.767,302.230 106.890 C 302.230 106.018,302.070 105.206,301.873 105.085 C 301.677 104.963,301.517 104.071,301.517 103.101 L 301.517 101.338 302.765 101.338 C 303.452 101.338,304.014 101.499,304.014 101.695 C 304.014 101.891,304.822 102.052,305.810 102.052 C 307.076 102.052,307.665 102.209,307.810 102.587 C 307.950 102.950,308.519 103.122,309.583 103.122 C 310.445 103.122,311.151 103.260,311.151 103.428 C 311.151 103.597,312.154 103.839,313.381 103.967 C 314.607 104.095,315.665 104.359,315.730 104.553 C 315.795 104.747,316.237 104.906,316.711 104.906 C 317.186 104.906,317.574 105.051,317.574 105.228 C 317.574 105.405,318.576 105.666,319.801 105.808 C 321.262 105.978,322.222 106.290,322.590 106.715 C 322.922 107.098,323.907 107.462,325.001 107.607 C 326.019 107.742,326.851 107.993,326.851 108.164 C 326.851 108.335,327.184 108.475,327.590 108.475 C 327.997 108.475,328.570 108.715,328.865 109.010 C 329.159 109.304,329.709 109.545,330.088 109.545 C 330.886 109.545,332.203 110.743,332.203 111.469 C 332.203 111.742,332.577 112.059,333.034 112.174 C 333.491 112.289,334.050 112.788,334.276 113.283 C 334.501 113.778,334.930 114.184,335.229 114.184 C 335.527 114.184,335.772 114.422,335.772 114.713 C 335.772 115.004,338.421 117.890,341.659 121.126 C 344.897 124.362,347.547 127.153,347.547 127.328 C 347.547 127.504,348.612 128.672,349.914 129.925 C 351.216 131.178,352.701 132.670,353.214 133.239 C 355.021 135.243,355.790 135.950,356.165 135.950 C 356.373 135.950,356.449 136.197,356.333 136.499 C 356.205 136.832,356.366 137.135,356.741 137.269 C 357.434 137.518,360.386 140.268,360.390 140.669 C 360.391 140.811,361.677 142.240,363.247 143.844 C 364.817 145.448,366.102 146.886,366.102 147.040 C 366.102 147.194,366.415 147.420,366.797 147.541 C 367.180 147.662,367.589 148.066,367.707 148.439 C 367.826 148.811,368.225 149.212,368.595 149.330 C 368.965 149.447,369.318 149.897,369.380 150.329 C 369.450 150.822,369.784 151.157,370.278 151.227 C 370.710 151.288,371.167 151.665,371.294 152.064 C 371.420 152.463,373.515 154.791,375.949 157.237 C 378.383 159.684,380.375 161.836,380.375 162.020 C 380.375 162.204,380.616 162.355,380.910 162.355 C 381.204 162.355,381.445 162.610,381.445 162.922 C 381.445 163.535,382.795 164.822,383.458 164.841 C 383.682 164.847,383.957 165.216,384.068 165.659 C 384.296 166.570,385.992 167.707,387.120 167.707 L 387.868 167.707 387.868 130.253 C 387.868 87.467,388.286 92.061,384.395 92.061 C 383.243 92.061,382.149 91.918,381.963 91.743 C 381.776 91.568,380.589 91.355,379.325 91.269 C 378.012 91.180,376.966 90.934,376.886 90.695 C 376.799 90.433,375.896 90.277,374.478 90.277 C 373.231 90.277,372.120 90.130,372.009 89.952 C 371.899 89.773,369.722 89.512,367.171 89.371 C 364.620 89.230,362.533 88.975,362.533 88.803 C 362.533 88.632,362.222 88.492,361.841 88.492 C 361.460 88.492,361.059 88.348,360.950 88.172 C 360.842 87.996,358.582 87.736,355.928 87.594 C 353.275 87.452,351.016 87.194,350.910 87.022 C 350.803 86.849,349.481 86.703,347.972 86.697 C 346.126 86.689,345.001 86.514,344.535 86.162 C 344.055 85.799,342.932 85.638,340.877 85.638 C 339.139 85.638,337.913 85.490,337.913 85.281 C 337.913 85.074,336.747 84.924,335.129 84.924 C 333.599 84.924,332.194 84.773,332.007 84.588 C 331.821 84.404,330.022 84.140,328.011 84.002 C 325.999 83.864,324.353 83.614,324.353 83.446 C 324.353 83.278,322.699 83.140,320.678 83.140 C 318.545 83.140,316.843 82.980,316.621 82.759 C 316.384 82.522,314.867 82.420,312.624 82.491 C 310.635 82.554,309.009 82.484,309.009 82.337 C 309.009 82.190,308.538 82.070,307.960 82.070 C 307.383 82.070,306.812 81.909,306.690 81.713 C 306.569 81.517,305.476 81.355,304.261 81.354 C 298.007 81.350,294.023 80.913,294.023 80.231 C 294.023 79.868,293.865 79.572,293.671 79.572 C 293.477 79.572,293.215 78.930,293.090 78.145 C 292.964 77.360,292.721 76.717,292.550 76.717 C 292.379 76.717,292.239 76.476,292.239 76.182 C 292.239 75.888,292.119 75.646,291.971 75.644 C 291.563 75.641,290.455 73.537,290.455 72.763 C 290.455 72.387,290.312 72.079,290.137 72.079 C 289.962 72.079,289.718 71.677,289.595 71.186 C 289.472 70.696,289.213 70.294,289.021 70.294 C 288.828 70.294,288.671 70.054,288.671 69.759 C 288.671 69.465,288.528 69.224,288.354 69.224 C 288.179 69.224,287.931 68.662,287.802 67.975 C 287.629 67.054,287.385 66.726,286.871 66.726 C 286.374 66.726,286.173 66.482,286.173 65.878 C 286.173 65.411,285.932 64.830,285.638 64.585 C 285.343 64.341,285.103 63.942,285.103 63.699 C 285.103 63.457,284.701 62.956,284.211 62.588 C 283.720 62.219,283.318 61.723,283.318 61.484 C 283.318 61.245,282.936 60.667,282.469 60.200 C 282.002 59.733,281.497 58.963,281.346 58.489 C 281.196 58.015,280.534 57.134,279.876 56.532 C 279.218 55.929,278.680 55.239,278.680 54.998 C 278.680 54.515,276.971 52.810,276.487 52.810 C 276.319 52.810,276.182 52.489,276.182 52.096 C 276.182 51.704,275.959 51.383,275.685 51.383 C 275.412 51.383,275.091 50.992,274.971 50.514 C 274.851 50.037,274.440 49.547,274.058 49.426 C 273.676 49.304,273.265 48.892,273.143 48.510 C 273.022 48.127,272.792 47.814,272.632 47.814 C 272.472 47.814,271.720 47.171,270.961 46.384 C 268.925 44.274,268.938 44.286,268.010 43.524 C 267.538 43.136,267.269 42.819,267.413 42.819 C 267.556 42.819,267.139 42.379,266.486 41.841 C 265.833 41.304,265.089 40.581,264.833 40.236 C 264.576 39.890,264.190 39.607,263.974 39.607 C 263.759 39.607,262.972 38.965,262.225 38.180 C 261.478 37.395,260.692 36.753,260.479 36.753 C 260.265 36.753,259.719 36.351,259.264 35.861 C 258.809 35.370,258.329 34.969,258.196 34.969 C 257.912 34.969,257.103 34.331,256.274 33.452 C 255.950 33.109,255.544 32.828,255.372 32.828 C 255.200 32.828,254.633 32.373,254.113 31.816 C 253.593 31.260,252.966 30.872,252.721 30.954 C 252.475 31.036,252.275 30.929,252.275 30.717 C 252.275 30.504,252.103 30.330,251.892 30.330 C 251.682 30.330,251.286 30.129,251.013 29.884 C 249.832 28.825,249.428 28.546,249.078 28.546 C 248.874 28.546,248.707 28.403,248.707 28.228 C 248.707 28.053,248.305 27.809,247.814 27.686 C 247.324 27.563,246.922 27.304,246.922 27.112 C 246.922 26.919,246.682 26.762,246.387 26.762 C 246.093 26.762,245.852 26.601,245.852 26.405 C 245.852 26.209,245.542 26.048,245.164 26.048 C 244.786 26.048,244.160 25.646,243.773 25.155 C 243.387 24.663,242.572 24.161,241.963 24.039 C 241.355 23.918,240.856 23.678,240.856 23.506 C 240.856 23.334,240.555 23.194,240.186 23.194 C 239.818 23.194,239.317 22.953,239.072 22.658 C 238.828 22.364,238.407 22.123,238.137 22.123 C 237.866 22.123,237.645 21.970,237.645 21.782 C 237.645 21.595,237.088 21.337,236.408 21.210 C 235.675 21.072,235.089 20.718,234.969 20.340 C 234.832 19.909,234.251 19.625,233.173 19.464 C 232.296 19.332,231.579 19.074,231.579 18.890 C 231.579 18.706,231.338 18.555,231.044 18.555 C 230.749 18.555,230.508 18.402,230.508 18.214 C 230.508 18.027,229.906 17.763,229.170 17.628 C 228.434 17.492,227.752 17.276,227.654 17.147 C 227.403 16.817,224.951 15.700,224.478 15.700 C 224.262 15.700,224.086 15.540,224.086 15.343 C 224.086 15.147,223.684 14.987,223.194 14.987 C 222.703 14.987,222.302 14.823,222.302 14.623 C 222.302 14.413,221.924 14.354,221.409 14.483 C 220.860 14.621,220.517 14.555,220.517 14.312 C 220.517 14.094,220.277 13.916,219.982 13.916 C 219.688 13.916,219.447 13.756,219.447 13.559 C 219.447 13.363,219.045 13.202,218.555 13.202 C 218.064 13.202,217.663 13.042,217.663 12.846 C 217.663 12.649,217.542 12.514,217.395 12.544 C 216.549 12.719,213.291 11.956,213.134 11.547 C 213.028 11.270,212.429 11.062,211.737 11.062 C 211.071 11.062,210.526 10.901,210.526 10.705 C 210.526 10.508,210.054 10.348,209.477 10.348 C 208.900 10.348,208.328 10.187,208.207 9.991 C 208.086 9.795,207.526 9.634,206.963 9.634 C 206.399 9.634,205.698 9.393,205.403 9.099 C 205.109 8.805,204.295 8.564,203.594 8.564 C 202.893 8.564,202.319 8.426,202.319 8.258 C 202.319 8.090,201.162 7.845,199.748 7.714 C 198.333 7.582,197.089 7.358,196.982 7.216 C 196.444 6.499,194.988 6.104,192.026 5.873 C 190.230 5.732,188.760 5.477,188.760 5.306 C 188.760 5.135,187.890 4.996,186.827 4.996 C 185.684 4.996,184.838 4.827,184.757 4.584 C 184.675 4.337,183.446 4.104,181.687 4.002 C 180.074 3.909,178.667 3.693,178.562 3.522 C 178.456 3.351,177.275 3.211,175.937 3.211 C 174.581 3.211,172.936 2.974,172.223 2.676 C 171.096 2.206,160.757 2.141,86.541 2.141 L 2.141 2.141 2.141 3.211 M161.909 22.748 C 162.007 23.042,162.829 23.194,164.326 23.194 C 165.574 23.194,166.683 23.337,166.791 23.512 C 166.900 23.687,168.598 23.945,170.566 24.086 C 173.386 24.288,174.238 24.475,174.585 24.972 C 174.902 25.424,175.756 25.675,177.611 25.861 C 179.033 26.004,180.196 26.265,180.196 26.441 C 180.196 26.618,180.609 26.762,181.114 26.762 C 181.618 26.762,182.272 27.003,182.567 27.297 C 182.861 27.591,183.492 27.832,183.968 27.832 C 184.445 27.832,184.835 27.972,184.835 28.144 C 184.835 28.315,185.477 28.557,186.262 28.683 C 187.047 28.808,187.690 29.032,187.690 29.180 C 187.690 29.508,190.343 30.687,191.082 30.687 C 191.375 30.687,191.615 30.847,191.615 31.044 C 191.615 31.240,191.919 31.401,192.290 31.401 C 192.662 31.401,193.058 31.641,193.171 31.936 C 193.284 32.230,193.703 32.471,194.101 32.471 C 194.500 32.471,194.826 32.632,194.826 32.828 C 194.826 33.024,195.067 33.185,195.361 33.185 C 195.656 33.185,195.897 33.328,195.897 33.503 C 195.897 33.678,196.298 33.922,196.789 34.045 C 197.279 34.168,197.681 34.426,197.681 34.619 C 197.681 34.811,197.921 34.969,198.216 34.969 C 198.510 34.969,198.751 35.119,198.751 35.302 C 198.751 35.485,199.112 35.748,199.554 35.886 C 199.996 36.025,200.710 36.518,201.143 36.981 C 201.575 37.444,202.160 37.823,202.443 37.823 C 202.725 37.823,203.050 38.066,203.163 38.362 C 203.277 38.658,203.776 39.085,204.272 39.311 C 204.768 39.537,205.174 39.937,205.174 40.200 C 205.174 40.463,205.484 40.678,205.864 40.678 C 206.243 40.678,206.652 40.991,206.774 41.373 C 206.895 41.756,207.299 42.165,207.672 42.284 C 208.044 42.402,208.446 42.803,208.564 43.176 C 208.682 43.548,209.092 43.952,209.474 44.074 C 209.857 44.195,210.169 44.431,210.169 44.599 C 210.169 44.766,210.889 45.598,211.769 46.448 C 212.649 47.298,213.372 48.165,213.375 48.375 C 213.378 48.584,213.782 49.105,214.273 49.532 C 214.764 49.958,215.165 50.549,215.165 50.845 C 215.165 51.141,215.479 51.383,215.863 51.383 C 216.376 51.383,216.621 51.709,216.792 52.619 C 216.936 53.385,217.281 53.938,217.699 54.070 C 218.071 54.188,218.473 54.676,218.593 55.153 C 218.713 55.631,218.954 56.021,219.129 56.021 C 219.304 56.021,219.447 56.243,219.447 56.513 C 219.447 56.783,219.688 57.204,219.982 57.449 C 220.277 57.693,220.517 58.204,220.517 58.584 C 220.517 58.964,220.678 59.176,220.874 59.054 C 221.070 58.933,221.231 59.147,221.231 59.530 C 221.231 59.914,221.472 60.319,221.766 60.432 C 222.061 60.545,222.302 60.964,222.302 61.363 C 222.302 61.761,222.449 62.087,222.630 62.087 C 222.811 62.087,223.064 62.569,223.194 63.158 C 223.323 63.747,223.536 64.230,223.668 64.231 C 224.010 64.235,224.799 66.033,224.799 66.808 C 224.799 67.168,225.040 67.555,225.335 67.668 C 225.629 67.781,225.870 68.257,225.870 68.727 C 225.870 69.196,226.010 69.581,226.181 69.581 C 226.352 69.581,226.589 70.184,226.707 70.922 C 226.825 71.662,227.241 72.495,227.635 72.778 C 228.144 73.146,228.415 73.885,228.582 75.362 C 228.711 76.500,228.956 77.431,229.127 77.431 C 229.298 77.431,229.438 77.743,229.438 78.123 C 229.438 78.504,229.601 78.917,229.801 79.040 C 230.000 79.163,230.078 79.403,229.973 79.572 C 229.869 79.741,229.946 79.980,230.146 80.103 C 230.345 80.227,230.508 80.800,230.508 81.377 C 230.508 81.954,230.648 82.426,230.819 82.426 C 230.990 82.426,231.215 83.184,231.319 84.110 C 231.423 85.035,231.685 85.852,231.901 85.923 C 232.638 86.169,232.294 86.708,231.401 86.708 C 230.910 86.708,230.508 86.850,230.508 87.024 C 230.508 87.198,229.625 87.450,228.546 87.585 C 227.467 87.720,226.583 87.979,226.583 88.161 C 226.583 88.343,226.262 88.492,225.870 88.492 C 225.477 88.492,225.156 88.635,225.156 88.809 C 225.156 88.983,224.434 89.233,223.550 89.366 C 222.667 89.498,221.945 89.757,221.945 89.942 C 221.945 90.126,221.553 90.277,221.074 90.277 C 220.595 90.277,220.111 90.425,219.999 90.606 C 219.887 90.787,219.316 91.041,218.729 91.169 C 218.143 91.298,217.663 91.531,217.663 91.687 C 217.663 91.842,217.000 92.075,216.190 92.205 C 214.625 92.455,213.230 93.218,213.621 93.609 C 213.751 93.739,213.469 93.846,212.994 93.847 C 212.520 93.848,211.672 94.089,211.110 94.382 C 210.548 94.675,209.785 94.915,209.415 94.915 C 209.045 94.915,208.742 95.076,208.742 95.273 C 208.742 95.470,208.100 95.909,207.315 96.249 C 206.530 96.589,205.888 96.990,205.888 97.140 C 205.888 97.290,205.486 97.413,204.996 97.413 C 204.505 97.413,204.103 97.571,204.103 97.763 C 204.103 97.956,203.702 98.214,203.211 98.337 C 202.721 98.460,202.319 98.687,202.319 98.840 C 202.319 98.994,201.887 99.228,201.359 99.361 C 200.831 99.493,200.139 99.901,199.822 100.268 C 199.504 100.634,198.774 101.052,198.199 101.196 C 197.624 101.340,196.859 101.833,196.499 102.290 C 196.139 102.748,195.616 103.122,195.335 103.122 C 195.055 103.122,194.826 103.283,194.826 103.479 C 194.826 103.675,194.522 103.836,194.151 103.836 C 193.779 103.836,193.383 104.077,193.270 104.371 C 193.157 104.665,192.828 104.906,192.538 104.906 C 192.249 104.906,191.766 105.258,191.465 105.688 C 191.164 106.117,190.810 106.361,190.678 106.229 C 190.546 106.098,190.181 106.279,189.867 106.633 C 189.552 106.987,188.736 107.586,188.053 107.965 C 187.370 108.343,186.621 108.814,186.389 109.010 C 186.157 109.206,185.441 109.768,184.798 110.259 C 184.155 110.749,183.265 111.512,182.821 111.954 C 182.376 112.395,181.857 112.756,181.667 112.756 C 181.477 112.756,180.840 113.238,180.251 113.827 C 179.662 114.416,179.078 114.897,178.953 114.897 C 178.828 114.897,177.671 115.941,176.383 117.217 C 175.095 118.492,173.820 119.536,173.550 119.536 C 173.281 119.536,173.060 119.846,173.060 120.226 C 173.060 120.628,172.725 121.021,172.257 121.169 C 171.322 121.464,170.205 122.644,170.205 123.337 C 170.205 123.602,169.887 123.818,169.498 123.818 C 169.042 123.818,168.712 124.134,168.568 124.710 C 168.427 125.268,168.091 125.602,167.669 125.602 C 167.297 125.602,166.994 125.832,166.994 126.113 C 166.994 126.393,166.207 127.384,165.244 128.315 C 164.279 129.249,163.576 130.219,163.677 130.481 C 163.782 130.755,163.614 130.955,163.278 130.955 C 162.958 130.955,162.515 131.353,162.293 131.840 C 162.071 132.327,161.601 132.816,161.249 132.928 C 160.896 133.040,160.499 133.475,160.366 133.894 C 160.233 134.313,159.582 135.167,158.920 135.791 C 158.258 136.416,157.716 137.108,157.716 137.330 C 157.716 137.552,157.546 137.734,157.338 137.734 C 157.131 137.734,157.042 137.865,157.141 138.026 C 157.240 138.186,157.009 138.543,156.627 138.818 C 156.245 139.094,155.932 139.524,155.932 139.775 C 155.932 140.027,155.772 140.232,155.575 140.232 C 155.379 140.232,155.219 140.438,155.219 140.690 C 155.219 141.147,154.322 142.411,152.810 144.086 C 152.368 144.575,152.007 145.192,152.007 145.458 C 152.007 145.724,151.847 145.941,151.650 145.941 C 151.454 145.941,151.288 146.222,151.282 146.566 C 151.268 147.337,150.464 148.439,149.916 148.439 C 149.692 148.439,149.509 148.840,149.509 149.331 C 149.509 149.822,149.339 150.223,149.131 150.223 C 148.924 150.223,148.853 150.384,148.974 150.580 C 149.095 150.776,149.025 150.937,148.817 150.937 C 148.609 150.937,148.439 151.338,148.439 151.829 C 148.439 152.481,148.248 152.721,147.729 152.721 C 147.180 152.721,146.969 153.037,146.795 154.126 C 146.672 154.899,146.262 155.862,145.885 156.267 C 145.508 156.672,145.326 157.005,145.481 157.008 C 145.636 157.011,145.602 157.132,145.405 157.276 C 145.209 157.420,144.829 158.020,144.561 158.608 C 144.293 159.197,143.928 159.920,143.748 160.214 C 143.569 160.508,143.328 161.030,143.213 161.374 C 143.098 161.717,142.876 161.998,142.719 161.998 C 142.563 161.998,142.327 162.640,142.194 163.426 C 142.062 164.211,141.807 164.853,141.628 164.853 C 141.449 164.853,141.297 165.134,141.291 165.477 C 141.285 165.821,141.044 166.413,140.756 166.794 C 140.468 167.175,140.232 167.858,140.232 168.311 C 140.232 168.764,140.071 169.135,139.875 169.135 C 139.679 169.135,139.518 169.536,139.518 170.027 C 139.518 170.517,139.370 170.919,139.190 170.919 C 139.009 170.919,138.756 171.401,138.626 171.989 C 138.497 172.578,138.264 173.060,138.109 173.060 C 137.953 173.060,137.718 174.015,137.586 175.182 C 137.397 176.851,137.197 177.351,136.648 177.525 C 136.134 177.688,135.950 178.069,135.950 178.971 C 135.950 179.645,135.816 180.196,135.653 180.196 C 135.489 180.196,135.343 180.397,135.328 180.642 C 135.174 183.123,134.687 185.621,134.294 185.947 C 134.027 186.169,133.809 186.972,133.809 187.733 C 133.809 188.494,133.649 189.117,133.452 189.117 C 133.256 189.117,133.095 189.920,133.095 190.901 C 133.095 191.882,132.958 192.685,132.790 192.685 C 132.622 192.685,132.384 193.768,132.260 195.092 C 132.137 196.416,131.873 197.553,131.673 197.619 C 131.474 197.686,131.311 198.819,131.311 200.137 C 131.311 201.578,131.134 202.711,130.865 202.980 C 130.521 203.324,130.419 207.300,130.419 220.416 C 130.419 233.692,130.517 237.440,130.865 237.556 C 131.164 237.655,131.311 238.509,131.311 240.143 C 131.311 241.564,131.471 242.634,131.695 242.709 C 131.906 242.779,132.169 243.836,132.279 245.058 L 132.481 247.279 116.910 247.279 L 101.338 247.279 101.338 134.688 L 101.338 22.096 131.549 22.199 C 155.328 22.280,161.792 22.396,161.909 22.748 M236.931 117.395 C 236.931 120.488,237.067 122.391,237.288 122.391 C 237.519 122.391,237.645 126.673,237.645 134.523 C 237.645 141.775,237.511 146.655,237.313 146.655 C 237.126 146.655,236.931 149.181,236.867 152.424 C 236.784 156.639,236.633 158.233,236.307 158.341 C 236.000 158.443,235.861 159.367,235.861 161.293 C 235.861 162.835,235.725 164.181,235.558 164.284 C 235.392 164.387,235.148 166.122,235.016 168.141 C 234.884 170.159,234.619 171.864,234.427 171.930 C 234.234 171.995,234.077 172.517,234.077 173.090 C 234.077 173.662,233.939 174.130,233.771 174.130 C 233.603 174.130,233.354 175.616,233.218 177.431 C 233.082 179.246,232.818 180.785,232.632 180.850 C 232.445 180.916,232.293 181.197,232.293 181.475 C 232.293 181.753,232.151 181.980,231.978 181.980 C 231.804 181.980,231.550 183.185,231.412 184.657 C 231.274 186.128,231.014 187.333,230.835 187.333 C 230.655 187.333,230.508 187.795,230.508 188.360 C 230.508 188.924,230.268 189.586,229.973 189.831 C 229.679 190.075,229.438 190.656,229.438 191.123 C 229.438 191.590,229.300 191.971,229.131 191.971 C 228.962 191.971,228.724 192.813,228.602 193.843 C 228.480 194.872,228.217 195.768,228.017 195.835 C 227.817 195.901,227.654 196.264,227.654 196.640 C 227.654 197.016,227.495 197.324,227.301 197.324 C 227.107 197.324,226.846 197.966,226.720 198.751 C 226.595 199.536,226.352 200.178,226.181 200.178 C 226.010 200.178,225.870 200.419,225.870 200.714 C 225.870 201.008,225.727 201.249,225.553 201.249 C 225.378 201.249,225.130 201.811,225.001 202.498 C 224.872 203.185,224.614 203.747,224.426 203.747 C 224.239 203.747,224.086 204.128,224.086 204.595 C 224.086 205.062,223.845 205.643,223.550 205.888 C 223.256 206.132,223.015 206.540,223.015 206.794 C 223.015 207.048,222.895 207.309,222.748 207.374 C 222.339 207.556,221.231 209.675,221.231 210.276 C 221.231 210.568,220.988 210.900,220.690 211.014 C 220.393 211.128,219.989 211.587,219.793 212.034 C 219.597 212.480,219.116 213.327,218.724 213.916 C 218.332 214.505,217.915 215.266,217.796 215.607 C 217.678 215.948,217.451 216.147,217.291 216.048 C 217.131 215.949,216.898 216.192,216.772 216.587 C 216.647 216.983,216.394 217.306,216.211 217.306 C 216.028 217.306,215.879 217.508,215.879 217.756 C 215.879 218.003,215.477 218.638,214.987 219.167 C 214.496 219.697,214.095 220.297,214.095 220.502 C 214.095 220.707,213.854 220.874,213.559 220.874 C 213.265 220.874,213.024 221.035,213.024 221.231 C 213.024 221.427,212.382 222.230,211.597 223.015 C 210.812 223.800,210.169 224.615,210.169 224.825 C 210.169 225.329,209.121 226.367,208.868 226.114 C 208.759 226.005,207.978 226.629,207.132 227.499 C 206.286 228.369,205.420 229.081,205.206 229.081 C 204.992 229.081,204.817 229.322,204.817 229.616 C 204.817 229.911,204.513 230.152,204.142 230.152 C 203.770 230.152,203.374 230.393,203.261 230.687 C 203.148 230.981,202.838 231.222,202.573 231.222 C 202.308 231.222,201.742 231.624,201.316 232.114 C 200.889 232.605,200.361 233.006,200.143 233.006 C 199.925 233.006,199.430 233.408,199.044 233.898 C 198.658 234.389,198.033 234.790,197.655 234.790 C 197.276 234.790,196.967 234.951,196.967 235.147 C 196.967 235.343,196.746 235.504,196.475 235.504 C 196.205 235.504,195.784 235.745,195.540 236.039 C 194.646 237.116,194.112 236.663,194.112 234.829 C 194.112 233.606,193.952 233.021,193.577 232.877 C 193.210 232.736,193.042 232.163,193.042 231.055 C 193.042 230.166,192.881 229.438,192.685 229.438 C 192.489 229.438,192.328 228.725,192.328 227.853 C 192.328 226.982,192.192 226.184,192.025 226.081 C 191.859 225.978,191.623 224.485,191.501 222.764 C 191.380 221.042,191.115 219.578,190.912 219.510 C 190.683 219.434,190.544 217.517,190.544 214.422 C 190.544 211.349,190.408 209.456,190.187 209.456 C 189.969 209.456,189.831 207.791,189.831 205.174 C 189.831 202.557,189.969 200.892,190.187 200.892 C 190.409 200.892,190.544 198.880,190.544 195.569 C 190.544 192.078,190.677 190.203,190.929 190.118 C 191.141 190.048,191.405 188.670,191.515 187.056 C 191.626 185.442,191.854 184.121,192.022 184.121 C 192.191 184.121,192.328 183.248,192.328 182.180 C 192.328 181.112,192.489 180.139,192.685 180.018 C 192.881 179.897,193.042 179.096,193.042 178.238 C 193.042 177.328,193.265 176.456,193.577 176.144 C 193.875 175.846,194.112 174.974,194.112 174.177 C 194.112 173.389,194.257 172.656,194.434 172.546 C 194.611 172.437,194.872 171.345,195.014 170.119 C 195.179 168.698,195.499 167.696,195.896 167.351 C 196.252 167.042,196.630 166.007,196.777 164.940 C 196.918 163.911,197.179 163.069,197.357 163.069 C 197.535 163.069,197.681 162.761,197.681 162.384 C 197.681 161.375,198.066 160.547,198.432 160.772 C 198.607 160.881,198.751 160.398,198.751 159.700 C 198.751 159.001,198.891 158.430,199.061 158.430 C 199.232 158.430,199.465 157.853,199.579 157.149 C 199.694 156.444,200.092 155.601,200.464 155.275 C 200.836 154.950,201.253 154.081,201.390 153.345 C 201.526 152.609,201.791 152.007,201.979 152.007 C 202.166 152.007,202.319 151.677,202.319 151.272 C 202.319 150.868,202.482 150.638,202.680 150.761 C 202.881 150.885,203.138 150.500,203.259 149.896 C 203.379 149.297,203.618 148.894,203.790 149.001 C 203.962 149.108,204.103 148.703,204.103 148.103 C 204.103 147.503,204.264 147.012,204.460 147.012 C 204.657 147.012,204.817 146.766,204.817 146.465 C 204.817 146.165,205.058 145.826,205.352 145.713 C 205.647 145.600,205.888 145.204,205.888 144.832 C 205.888 144.461,206.045 144.157,206.238 144.157 C 206.430 144.157,206.687 143.761,206.808 143.278 C 206.930 142.794,207.315 142.308,207.665 142.197 C 208.016 142.085,208.400 141.498,208.522 140.886 C 208.644 140.276,209.145 139.405,209.635 138.951 C 210.125 138.497,210.526 137.957,210.526 137.751 C 210.526 137.546,210.687 137.377,210.883 137.377 C 211.079 137.377,211.240 137.114,211.240 136.792 C 211.240 136.469,211.722 135.745,212.310 135.183 C 212.899 134.620,213.381 133.990,213.381 133.782 C 213.381 133.574,213.943 132.874,214.630 132.227 C 215.317 131.579,215.879 130.867,215.879 130.645 C 215.879 130.423,216.120 130.241,216.414 130.241 C 216.708 130.241,216.949 130.032,216.949 129.776 C 216.949 129.392,218.150 128.064,220.884 125.424 C 221.087 125.227,222.056 124.224,223.037 123.194 C 224.018 122.163,224.999 121.320,225.217 121.320 C 225.435 121.320,226.074 120.839,226.637 120.250 C 227.200 119.661,227.841 119.179,228.063 119.179 C 228.284 119.179,228.946 118.617,229.533 117.930 C 230.119 117.244,230.820 116.682,231.089 116.682 C 231.359 116.682,231.579 116.532,231.579 116.349 C 231.579 116.166,231.940 115.902,232.382 115.762 C 232.823 115.623,233.426 115.234,233.720 114.897 C 234.014 114.561,234.608 114.174,235.040 114.038 C 235.471 113.902,235.924 113.478,236.045 113.095 C 236.621 111.281,236.931 112.788,236.931 117.395 " stroke="none" fill="#dc2424" fill-rule="evenodd"></path><path id="path1" d="M210.972 10.951 C 211.316 11.040,211.878 11.040,212.221 10.951 C 212.565 10.861,212.284 10.788,211.597 10.788 C 210.910 10.788,210.629 10.861,210.972 10.951 M304.534 134.880 C 304.534 142.632,304.581 145.803,304.638 141.927 C 304.696 138.051,304.696 131.708,304.638 127.832 C 304.581 123.956,304.534 127.128,304.534 134.880 M133.830 186.059 C 133.597 186.340,133.470 187.183,133.548 187.932 L 133.689 189.295 133.749 187.850 C 133.782 187.055,134.002 186.212,134.237 185.977 C 134.473 185.741,134.573 185.549,134.459 185.549 C 134.346 185.549,134.063 185.778,133.830 186.059 M189.968 205.174 C 189.968 207.627,190.025 208.631,190.095 207.404 C 190.164 206.178,190.164 204.170,190.095 202.944 C 190.025 201.717,189.968 202.721,189.968 205.174 M271.989 306.054 C 272.529 306.136,273.412 306.136,273.952 306.054 C 274.492 305.972,274.050 305.905,272.971 305.905 C 271.891 305.905,271.450 305.972,271.989 306.054 M322.663 306.054 C 323.206 306.136,324.008 306.134,324.447 306.050 C 324.886 305.965,324.442 305.898,323.461 305.900 C 322.480 305.903,322.121 305.972,322.663 306.054 M282.171 307.846 C 283.208 307.918,284.813 307.918,285.739 307.844 C 286.665 307.771,285.816 307.712,283.854 307.713 C 281.891 307.714,281.134 307.774,282.171 307.846 M311.775 307.844 C 312.609 307.919,313.974 307.919,314.808 307.844 C 315.642 307.769,314.960 307.707,313.292 307.707 C 311.624 307.707,310.941 307.769,311.775 307.844 M219.362 346.015 C 219.806 346.100,220.448 346.097,220.789 346.008 C 221.130 345.919,220.767 345.849,219.982 345.853 C 219.197 345.857,218.918 345.930,219.362 346.015 " stroke="none" fill="#e02424" fill-rule="evenodd"></path><path id="path2" d="M210.972 10.951 C 211.316 11.040,211.878 11.040,212.221 10.951 C 212.565 10.861,212.284 10.788,211.597 10.788 C 210.910 10.788,210.629 10.861,210.972 10.951 M304.534 134.880 C 304.534 142.632,304.581 145.803,304.638 141.927 C 304.696 138.051,304.696 131.708,304.638 127.832 C 304.581 123.956,304.534 127.128,304.534 134.880 M133.830 186.059 C 133.597 186.340,133.470 187.183,133.548 187.932 L 133.689 189.295 133.749 187.850 C 133.782 187.055,134.002 186.212,134.237 185.977 C 134.473 185.741,134.573 185.549,134.459 185.549 C 134.346 185.549,134.063 185.778,133.830 186.059 M189.968 205.174 C 189.968 207.627,190.025 208.631,190.095 207.404 C 190.164 206.178,190.164 204.170,190.095 202.944 C 190.025 201.717,189.968 202.721,189.968 205.174 M271.989 306.054 C 272.529 306.136,273.412 306.136,273.952 306.054 C 274.492 305.972,274.050 305.905,272.971 305.905 C 271.891 305.905,271.450 305.972,271.989 306.054 M322.663 306.054 C 323.206 306.136,324.008 306.134,324.447 306.050 C 324.886 305.965,324.442 305.898,323.461 305.900 C 322.480 305.903,322.121 305.972,322.663 306.054 M282.171 307.846 C 283.208 307.918,284.813 307.918,285.739 307.844 C 286.665 307.771,285.816 307.712,283.854 307.713 C 281.891 307.714,281.134 307.774,282.171 307.846 M311.775 307.844 C 312.609 307.919,313.974 307.919,314.808 307.844 C 315.642 307.769,314.960 307.707,313.292 307.707 C 311.624 307.707,310.941 307.769,311.775 307.844 M219.362 346.015 C 219.806 346.100,220.448 346.097,220.789 346.008 C 221.130 345.919,220.767 345.849,219.982 345.853 C 219.197 345.857,218.918 345.930,219.362 346.015 " stroke="none" fill="#e02424" fill-rule="evenodd"></path><path id="path3" d="M210.972 10.951 C 211.316 11.040,211.878 11.040,212.221 10.951 C 212.565 10.861,212.284 10.788,211.597 10.788 C 210.910 10.788,210.629 10.861,210.972 10.951 M304.534 134.880 C 304.534 142.632,304.581 145.803,304.638 141.927 C 304.696 138.051,304.696 131.708,304.638 127.832 C 304.581 123.956,304.534 127.128,304.534 134.880 M133.830 186.059 C 133.597 186.340,133.470 187.183,133.548 187.932 L 133.689 189.295 133.749 187.850 C 133.782 187.055,134.002 186.212,134.237 185.977 C 134.473 185.741,134.573 185.549,134.459 185.549 C 134.346 185.549,134.063 185.778,133.830 186.059 M189.968 205.174 C 189.968 207.627,190.025 208.631,190.095 207.404 C 190.164 206.178,190.164 204.170,190.095 202.944 C 190.025 201.717,189.968 202.721,189.968 205.174 M271.989 306.054 C 272.529 306.136,273.412 306.136,273.952 306.054 C 274.492 305.972,274.050 305.905,272.971 305.905 C 271.891 305.905,271.450 305.972,271.989 306.054 M322.663 306.054 C 323.206 306.136,324.008 306.134,324.447 306.050 C 324.886 305.965,324.442 305.898,323.461 305.900 C 322.480 305.903,322.121 305.972,322.663 306.054 M282.171 307.846 C 283.208 307.918,284.813 307.918,285.739 307.844 C 286.665 307.771,285.816 307.712,283.854 307.713 C 281.891 307.714,281.134 307.774,282.171 307.846 M311.775 307.844 C 312.609 307.919,313.974 307.919,314.808 307.844 C 315.642 307.769,314.960 307.707,313.292 307.707 C 311.624 307.707,310.941 307.769,311.775 307.844 M219.362 346.015 C 219.806 346.100,220.448 346.097,220.789 346.008 C 221.130 345.919,220.767 345.849,219.982 345.853 C 219.197 345.857,218.918 345.930,219.362 346.015 " stroke="none" fill="#e02424" fill-rule="evenodd"></path><path id="path4" d="M210.972 10.951 C 211.316 11.040,211.878 11.040,212.221 10.951 C 212.565 10.861,212.284 10.788,211.597 10.788 C 210.910 10.788,210.629 10.861,210.972 10.951 M304.534 134.880 C 304.534 142.632,304.581 145.803,304.638 141.927 C 304.696 138.051,304.696 131.708,304.638 127.832 C 304.581 123.956,304.534 127.128,304.534 134.880 M133.830 186.059 C 133.597 186.340,133.470 187.183,133.548 187.932 L 133.689 189.295 133.749 187.850 C 133.782 187.055,134.002 186.212,134.237 185.977 C 134.473 185.741,134.573 185.549,134.459 185.549 C 134.346 185.549,134.063 185.778,133.830 186.059 M189.968 205.174 C 189.968 207.627,190.025 208.631,190.095 207.404 C 190.164 206.178,190.164 204.170,190.095 202.944 C 190.025 201.717,189.968 202.721,189.968 205.174 M271.989 306.054 C 272.529 306.136,273.412 306.136,273.952 306.054 C 274.492 305.972,274.050 305.905,272.971 305.905 C 271.891 305.905,271.450 305.972,271.989 306.054 M322.663 306.054 C 323.206 306.136,324.008 306.134,324.447 306.050 C 324.886 305.965,324.442 305.898,323.461 305.900 C 322.480 305.903,322.121 305.972,322.663 306.054 M282.171 307.846 C 283.208 307.918,284.813 307.918,285.739 307.844 C 286.665 307.771,285.816 307.712,283.854 307.713 C 281.891 307.714,281.134 307.774,282.171 307.846 M311.775 307.844 C 312.609 307.919,313.974 307.919,314.808 307.844 C 315.642 307.769,314.960 307.707,313.292 307.707 C 311.624 307.707,310.941 307.769,311.775 307.844 M219.362 346.015 C 219.806 346.100,220.448 346.097,220.789 346.008 C 221.130 345.919,220.767 345.849,219.982 345.853 C 219.197 345.857,218.918 345.930,219.362 346.015 " stroke="none" fill="#e02424" fill-rule="evenodd"></path></g></svg>