<?xml version="1.0" encoding="UTF-8" standalone="no"?>
<svg xmlns:rdf="http://www.w3.org/1999/02/22-rdf-syntax-ns#" xmlns="http://www.w3.org/2000/svg" xml:space="preserve" height="79.236" viewBox="0 0 223.48779 79.23616" width="223.49" version="1.1" xmlns:cc="http://creativecommons.org/ns#" xmlns:dc="http://purl.org/dc/elements/1.1/"><g transform="matrix(1.25 0 0 -1.25 -605.83 606.17)"><g style="" transform="translate(.83188 .83188)"><path d="m491.96 472.12-7.2932-27.226h11.652l1.2525-2.4475-5.6005-20.901h147.33l4.5532 16.993h-5.6908l1.7009 6.3553h11.775l10.222 38.441h-175.71l5.8111-11.215z" fill="#fff"/><path d="m658.7 480.91h-168.57l4.411-8.5102-6.7217-25.085h9.9759l2.3545-4.5969-5.0262-18.751h142.31l3.2542 12.147h-5.6935l3.0026 11.201h11.773l8.9313 33.595z" fill="#1266ac"/><path d="m658.7 480.91h-168.57l4.411-8.5102-6.7217-25.085h9.9759l2.3545-4.5969-5.0262-18.751h142.31l3.2542 12.147h-5.6935l3.0026 11.201h11.773l8.9313 33.595z" fill="#00539f"/><path d="m13.445 6.7207 2.9375 5.666-7.7539 28.943h14.316l5.8652-4.2832 6.9746-26.043-3.5664-4.2832h-18.773zm24.701 0 2.9258 5.709-7.7422 28.9h17.217l2.7012-10.084h-6.1875l-1.2168 4.5469h-3.9375l2.3984-8.9551h7.918l1.6094-6.0176h-7.916l2.248-8.3906h3.8086l-1.1934 4.457h6.2324l2.7207-10.166h-21.586zm24.613 0 2.8848 5.709-7.7422 28.9h16.957l2.7012-10.084h-6.1465l-1.2168 4.5469h-3.7188l7.7871-29.072h-11.506zm27.252 0 1.5 5.709-12.979 28.9h6.748l4.3887-10.084h5.0625l-0.97461 10.084h7.0527l2.6113-34.609h-13.41zm17.391 0 2.9297 5.709-4.2422 28.9h8.4766l8.916-21.977-2.8184 21.977h8.1367l14.377-34.609h-6.9219l-7.8047 20.893 2.5703-20.893h-8.0898l-8.6387 20.937 3.4941-20.937h-10.385zm39.797 0 1.498 5.709-12.98 28.9h6.748l4.3926-10.084h5.0586l-0.97071 10.084h7.0527l2.6113-34.609h-13.41zm19.424 0 2.9844 5.3223-7.8438 29.287h7.1777l3.873-14.449h3.0723l1.2383 1.5117-3.4668 12.938h7.1816l3.9648-14.793-2.2168-2.5547 3.5781-2.5078 2.7988-10.471-3.6543-4.2832h-18.688zm24.658 0 2.9258 5.709-7.7422 28.902h17.211l2.707-10.084h-6.1875l-1.2207 4.5449h-3.9336l2.3984-8.9551h7.918l1.6133-6.0156h-7.9199l2.248-8.3926h3.8125l-1.1973 4.457h6.2285l2.7246-10.166h-21.586zm-167.82 5.707h3.623l0.91992 1.125-5.6562 21.119-1.5117 1.0762h-3.627l6.252-23.32zm153.22 0.002h3.5078l0.91797 1.082-1.5547 5.7988-2.0332 1.4688h-3.0742l2.2363-8.3496zm-80.645 4.416-1.0781 9.9922h-3.2441l4.3223-9.9922zm57.184 0-1.0742 9.9922h-3.2461l4.3203-9.9922z" transform="matrix(.8 0 0 -.8 484.67 483.34)" fill="#ffd200"/><path d="m21.57 45.283 2.1094 4.1191-5.5859 20.846h10.301l4.2559-3.0879 1.9824-7.3926-1.6797-1.9961 2.7363-1.9395 1.9961-7.4551-2.6055-3.0938h-13.51zm72.172 0 2.1133 4.1191-5.5859 20.846h12.422l1.9492-7.2676h-4.4648l-0.8789 3.2715h-2.8359l1.7285-6.4531h5.709l1.166-4.3379h-5.7129l1.6211-6.0586h2.7441l-0.85742 3.2168h4.4922l1.9648-7.3359h-15.574zm16.418 0 2.1074 4.1191-0.85938 3.2168h4.3047l0.86133-3.2168h1.0293l-5.582 20.846h5.1094l5.5918-20.846h1.0644l-0.86523 3.2168h4.3652l1.9648-7.3359h-19.092zm20.027 0 2.1133 4.1191-5.5898 20.846h10.297l4.2617-3.0879 1.9863-7.3926-1.6856-1.9961 2.7383-1.9395 1.9961-7.4551-2.6035-3.0938h-13.514zm-56.756 0.002 2.1191 4.0879-5.5957 20.875h5.1172l1.832-6.832 2.5742-3.0898 0.33789 9.9219h5.3027l-1.0469-14.943 7.6133-10.02h-5.1172l-7.5371 10.207 2.7305-10.207h-8.3301zm91.488 0 2.0781 4.1191-5.5859 20.846h12.234l1.9492-7.2676h-4.4336l-0.875 3.2715h-2.6836l5.6152-20.969h-8.2988zm14.418 0 2.0762 4.1191-5.5859 20.844h12.23l1.9551-7.2676h-4.4336l-0.875 3.2754h-2.6875l5.6211-20.971h-8.3008zm-137.05 0.002 1.0762 4.1152-9.3574 20.848h4.8633l3.168-7.2676h3.6523l-0.70117 7.2676h5.0859l1.8828-24.963h-9.6699zm13.385 0 2.1191 4.0879-2.0859 7.7734 2.2852 2.6797h5.0215l0.42383 0.49805-1.3828 5.1523-1.0801 0.77539h-1.8379l-0.66602-0.77539 0.66992-2.4961h-5.1172l-1.1211 4.1816 2.5996 3.0859h6.9648l4.2578-3.0859 2.4062-8.9902-2.2344-2.7148h-5.0566l-0.41602-0.5293 1.2539-4.6836 1.0977-0.8418h1.6816l0.66602 0.7793-0.64844 2.4355h5.1133l1.1387-4.2402-2.6016-3.0918h-13.451zm95.232 0 1.0801 4.1152l-9.37 20.848h4.875l3.1582-7.2676h3.6524l-0.69532 7.2676h5.084l1.8828-24.963h-9.6738zm-122.11 4.1152h2.6191l0.66602 0.7832-1.2031 4.4941-1.3867 0.75h-2.3086l1.6133-6.0273zm108.62 0h2.6191l0.66992 0.7832-1.2109 4.4941-1.3848 0.75h-2.3106l1.6172-6.0273zm-90.781 3.1855-0.77734 7.209h-2.3418l3.1191-7.209zm108.62 0-0.77735 7.209h-2.3379l3.1152-7.209zm-129.24 7.209h2.3066l0.88476 1.123-1.2305 4.5859-1.0762 0.74609h-2.6191l1.7344-6.4551zm108.62 0h2.3106l0.88476 1.123-1.2305 4.5859-1.0703 0.74609h-2.6289l1.7344-6.4551z" transform="matrix(.8 0 0 -.8 484.67 483.34)" fill="#fff"/></g></g></svg>
