<?xml version="1.0" encoding="UTF-8" standalone="no"?>
<svg xmlns:rdf="http://www.w3.org/1999/02/22-rdf-syntax-ns#" xmlns="http://www.w3.org/2000/svg" xml:space="preserve" height="93.291" viewBox="0 0 75.800796 93.291252" width="75.801" version="1.1" xmlns:cc="http://creativecommons.org/ns#" xmlns:dc="http://purl.org/dc/elements/1.1/"><g transform="matrix(1.25 0 0 -1.25 -112.5 807.65)"><g><path d="m91.255 645.19-0.253-3.017c-0.046-0.545-0.391-5.427 1.541-8.94 1.428-2.595 4.378-4.378 8.771-5.3 2.991-0.628 5.963-0.722 7.468-0.722 0.368 0 0.626 0.006 0.743 0.009h3.16l-6.641-3.762c-1.667-0.845-4.377-3.219-4.571-7.114l-0.004-0.081v-0.082-3.095c-3.763-0.971-6.539-4.245-6.539-8.123 0-1.785 0.416-3.49 1.515-4.932l0.013-0.017 0.013-0.017c0.261-0.347 0.633-0.767 1.144-1.167 0.823-0.644 1.641-0.951 2.181-1.103 0.617-0.129 1.015-0.178 1.116-0.198 0.021-0.004 0.071-0.014 0.09-0.051 0.02-0.039-0.003-0.088-0.012-0.106-0.069-0.147-0.525-0.591-0.579-0.644-1.891-1.615-5.361-5.198-7.107-10.943-0.766-2.52-0.968-4.796-0.967-6.569l-0.162-7.059h43.336 0.014 0.013c0.812 0.007 8.042 0.205 11.697 5.056 2.617 3.473 2.719 7.747 2.721 8.302l0.034 44.738c0 8.236-6.701 14.937-14.938 14.937h-43.797z" fill="#002d72"/><path d="m135.05 643.55c7.329 0 13.291-5.962 13.291-13.29l-0.034-44.733c-0.001-0.426-0.08-4.254-2.389-7.317-1.31-1.739-3.342-3.001-6.04-3.749-2.175-0.604-4.01-0.649-4.369-0.652h-41.652l0.123 5.375 0.001 0.019v0.02c-0.001 2.082 0.3 4.131 0.896 6.09 1.618 5.325 4.83 8.657 6.601 10.169l0.04 0.035 0.039 0.037c0.666 0.648 0.82 0.91 0.919 1.121 0.24 0.508 0.236 1.076-0.011 1.558-0.244 0.478-0.697 0.813-1.243 0.919-0.038 0.007-0.104 0.018-0.198 0.032-0.17 0.026-0.451 0.069-0.836 0.148-0.573 0.169-1.098 0.438-1.56 0.8-0.317 0.247-0.6 0.537-0.844 0.861l-0.01 0.013-0.009 0.012-0.007 0.008-0.006 0.009c-0.793 1.04-1.178 2.327-1.178 3.934 0 3.038 2.181 5.723 5.304 6.529l1.235 0.319v1.275 3.095 0.041l0.002 0.041c0.156 3.13 2.381 5.073 3.672 5.727l0.033 0.017 0.033 0.019 6.641 3.762 5.435 3.078h-6.246-3.16-0.023l-0.023-0.001c-0.11-0.003-0.353-0.008-0.697-0.008-1.442 0-4.285 0.089-7.131 0.687-3.901 0.819-6.48 2.327-7.665 4.482-1.729 3.143-1.36 7.812-1.344 8.009l0.127 1.509h1.513 40.77" fill="#fff"/><path d="m125.68 592.19s1.641-0.522 1.814-0.761v27.788c-0.578-0.178-1.185-0.309-1.814-0.386v-26.641zm-11.347-0.715c-2.374-4.14-5.213-3.511-10.343-5.981-5.13-2.468-8.368-6.282-8.368-6.282 0.494 5.185 0.866 6.612 2.744 9.108 2.085 2.771 6.365 2.456 6.886 2.469 0.797 0.021 3.649 0.138 6.091 2.36 1.753 1.596 2.08 4.011 2.116 5.247l-0.017 22.455c-0.213-0.094-1.716-0.764-1.799-1.097-0.011-0.044-0.02-0.097-0.027-0.156l-0.013-20.791c0-0.002-0.045-1.39-0.299-2.206-0.84-2.304-3.285-3.972-6.181-3.972-0.016 0-0.033 0.001-0.05 0.001l0.001-0.001c-0.061 0.001-0.124 0.001-0.192 0.001-0.694 0-1.738-0.021-2.916-0.273-0.439-0.095-0.899-0.222-1.366-0.393 0.322 0.527 0.936 1.29 2.096 2.22l0.001 0.001c0.145 0.13 0.287 0.257 0.422 0.379 1.354 1.358 1.606 3.156 1.644 4.153v3.313c0 0.413-0.194 0.995-0.783 1.3l-0.028 0.015c-0.057 0.028-0.118 0.054-0.183 0.076-0.162 0.055-0.353 0.089-0.571 0.101-0.873 0.028-1.334-0.243-1.529-0.405-0.948-0.836 0.05-2.317 0.05-2.317h-0.18c-0.081 0-0.161 0.003-0.24 0.01h-0.003c-0.534 0.046-1.02 0.244-1.458 0.595-0.214 0.171-0.417 0.381-0.608 0.625-0.634 0.832-1.005 1.844-1.005 2.937 0 2.829 2.492 5.124 5.567 5.124h0.971v6.093c0.155 3.098 2.826 4.368 2.826 4.368l14.346 8.126s0.012-0.043 0.023-0.078c0.384-1.14 1.089-2.253 2.098-3.185 2.671-2.469 6.438-2.572 8.414-0.433 0.235 0.254 0.433 0.532 0.597 0.827l0.004-0.005s2.898-2.567 6.273-2.136l0.001-29.775c0.025-2.099 1.752-4.133 3.854-4.133 0.667 0 0.989 0.178 1.561 0.5 0 0-0.831-4.281-5.272-4.263l-2.238 0.006c-2.024-0.008-2.464-0.096-3.674-0.57-0.157-0.057-0.309-0.116-0.455-0.181v34.802c-1.36-0.124-1.992 0.696-2.209 1.076-0.357-0.328-0.753-0.628-1.181-0.897v-32.733l-0.912-0.744c-6.447 2.223-11.896 1.835-11.896 1.835 1.017 1.415 2.228 2.589 2.228 2.589v28.892c-1.092 0.62-2 1.43-2.648 2.365l-0.737-0.41v-23.882c-0.019-1.347 0.254-3.727-1.433-6.67" fill="#002d72"/><path d="m5.3535 5.2676s-0.4533 5.4184 1.4317 8.8474c3.2448 5.9 17.079 5.385 17.559 5.385h23.32c1.595 0 3.362 0.222 4.666 1.199 0.72 0.54 3.702 3.704 6.926 4.699 2.115 0.653 4.926-0.164 4.926-0.164v39.172c0 1.848 1.498 3.344 3.345 3.344 1.848 0 3.346-1.496 3.346-3.344v-44.582c0-8.039-6.518-14.556-14.557-14.556l-50.962-0.0004zm65.264 64.511c-0.125 0-0.23 0.089-0.25 0.209-0.005 0.028-0.01 0.053-0.01 0.053-0.72 3.653-3.409 6.245-5.287 6.738-3.618 0.952-4.887 0.207-7.254 0.592-2.115 0.345-3.653 1.362-3.935 1.465-0.284 0.104-0.669 0.078-1.518-0.514 0 0-4.502-3.448-16.291-4.056-21.01-1.085-29.697 14.062-29.697 14.062h50.514s7.89-0.065 11.369-4.682c2.572-3.412 2.572-7.921 2.572-7.921l0.041-5.692c0-0.14-0.114-0.254-0.254-0.254z" transform="matrix(.8 0 0 -.8 90 646.12)" fill="#a6093d"/></g></g></svg>
