<svg xmlns="http://www.w3.org/2000/svg" width="413.64" height="290.16" viewBox="0 0 413.64 290.16">
 <g transform="matrix(1.3333 0 0 -1.3333 -822.4 1191.2)">
  <g>
   <path d="m803.98 889.26-27.354-12.211s-16.939-7.5639-20.118-8.9839c-8.785 9.48-20.962 14.476-35.167 14.476-3.506 1e-3 -7.1332-0.30492-10.866-0.91992-35.447-5.847-71.628-37.019-86.029-74.118-7.742-19.946-6.0269-39.838 4.831-56.016 9.72-14.487 26.348-22.516 45.341-22.516 4.895 0 9.9452 0.53345 15.076 1.6274 18.015 3.841 33.443 13.884 43.777 27.563-5.574-24.907-16.989-75.911-16.989-75.911l5.6045 2.9209c37.554 19.571 51.009 26.582 55.957 29.271 2.696-2.693 35.665-35.651 35.665-35.651l109.36 120.01s-144.16 0.00293-154.85 0.00293c3.427 2.444 14.333 10.229 14.333 10.229h-21.012c4.067 7.686 42.444 80.225 42.444 80.225zm-76.805-52.362c1.52 0 2.9869-0.17866 4.3579-0.53466 6.638-1.722 11.092-8.2392 12.542-18.347l1.1235-7.8091h-53.786c1.758 2.695 3.534 5.2195 5.395 7.6655 8.925 11.736 20.561 19.025 30.368 19.025zm-40.985-35.52c2.85-4.037 9.3267-13.401 11.867-18.669-0.326-7.267-5.2704-10.601-7.4004-11.704-2.181-1.13-3.958-1.3667-5.064-1.3667-1.214 0-2.2363 0.29176-2.7363 0.78076-2.104 2.063-3.2153 5.3484-3.2153 9.5054 0 5.876 2.2583 13.265 6.5493 21.454z" fill="#fff" stroke="#fff" stroke-width="2.4998"/>
   <path d="m692.54 767.36c-4.788-2.482-9.955-2.43-12.565 0.127-7.046 6.907-7.725 24.901 13.555 52.88 11.438 15.039 27.122 23.068 39.03 19.979 8.344-2.164 13.879-9.884 15.58-21.739 0 0 0.912-6.333 1.797-12.506h-62.069s11.238-15.467 14.338-22.559c0-0.029 7e-3 -0.065 7e-3 -0.094 0-10.205-7.236-14.827-9.673-16.088m111.84 28.509s-9.401-10.485-12.628-14.145c0.118 0.271 6.06 14.145 6.06 14.145l-38.777 2e-3c7.35 5.246 14.334 10.23 14.334 10.23h-16.717c2.673 5.05 40.744 77.008 40.744 77.008l-19.577-8.74s-19.039-8.498-22.022-9.83c-31.222 37.27-105.77 0.756-128.62-58.094-7.684-19.792-5.42-38.484 4.532-53.317 11.544-17.201 33.524-24.73 57.367-19.65 25.185 5.367 44.748 22.687 51.989 45.2-2.791-12.469-20.344-90.895-20.344-90.895s57.908 30.174 57.929 30.204c0.548-0.548 34.953-34.938 34.953-34.938l102.8 112.82" fill="#002d62"/>
   <path d="m727.3 870.21c-29.039 0.89701-66.229-31.623-78.86-69.029 2.929 24.331 22.531 46.412 35.824 56.776-31.768-10.139-70.525-64.782-46.414-100.71 22.982-34.245 89.753-16.988 98.09 31.226l14.335 10.23h-48.006l6.9214-10.23c4.055-25.011-23.126-37.308-34.39-26.271-9.446 9.257-11.491 30.646 12.842 62.637 24.333 31.992 62.407 32.445 67.815-5.1841l25.371 47.96-23.757-10.607-1.3872-4.9087c-6.9075 12.294-17.022 17.762-28.386 18.113zm13.686-81.737 8.6367-5.4302-18.296-81.74 40.765 20.265 38.659 51.105 6.9375 3.4688-32.534-54.205 28.201-28.189 86.313 94.723h-16.05l-38.166-34.444 32.96 34.444h-29.058l3.9038-10.594-34.049-34.816 20.6 45.41h-32.095l-40.408-45.8 20.023 45.8h-13.015l-16.402-34.428 12.46 34.428-29.386 0.00293z" fill="#e4cf9f"/>
   <path d="m726.74 870.25c-29.627 0.71605-70.193-31.568-83.266-83.745 19.616 37.257 57.322 81.463 86.098 83.572-0.93166 0.09222-1.8758 0.14975-2.8315 0.17285zm-24.47-71.54 6.9214-10.232c2.027-12.506-3.7532-21.832-11.449-26.654 16.481 5.654 16.74 32.955 16.74 32.955l16.607 3.9316h-28.819zm38.719-10.226 8.6338-5.4302-18.293-81.738 7.5952 3.7764 18.601 76.509-3.8057 3.4233 16.657 3.457-29.388 0.00293zm66.728-0.00293-40.409-45.801-4.2305-10.588 47.26 51.976 29.476 4.4136h-32.096zm41.637 0 3.9053-10.592-34.047-34.816-3.1846-8.6206 46.094 45.627-3.898 3.8013 13.608 4.6011h-22.478zm-31.663-12.333-32.533-54.202 4.6582-4.6582 27.659 51.357 0.21533 7.5029z" fill="#fbf6ec"/>
  </g>
 </g>
</svg>