<svg xmlns="http://www.w3.org/2000/svg" height="78.664" viewBox="0 0 251.99996 78.663742" width="252"><g transform="matrix(1.25 0 0 -1.25 -368.59 585.05)"><g transform="matrix(1.7524 0 0 1.7524 -296.04 -327.17)"><path d="m7.7129 0-2.3906 13.562h2.4844l-2.9317 16.624h-2.4844l-2.3906 13.562h21.068l0.83984-4.7656 4.2715 4.7656h19.117l7.5195-6.0156 4.2637-24.17h0.29297l-0.30078 30.186h17.557l4.0977-11.078 0.19141 11.078h17.555 17.725l2.9336-9.2871h1.5449l-0.28516 9.2871h16.963l2.3906-13.562h-3.0469l-0.0176-21.303h6.418l1.5644-8.8809h-7.9902l0.02-0.002h-19.64-23.815-13.504-21.457l-0.533 3.0195-2.711-3.0195h-19.115l-5.952 4.7637 0.84-4.7637h-21.07z" transform="matrix(.8 0 0 -.8 337.8 453.27)" fill="#fcd116"/><path d="m10.031 2.8125-1.4004 7.9375h2.4844l-3.9238 22.248h-2.4824l-1.4004 7.9375h15.445l1.3984-7.9375h-2.5391l3.9219-22.248h2.5391l1.4004-7.9375h-15.443zm24.475 0-5.5977 4.4805-5.1426 29.16 4.0176 4.4824h16.904l5.5332-4.4277 5.161-29.267-3.973-4.4275h-16.902zm24.062 0-1.3984 7.9375h3.084l-0.30078 30.186h12.852l8.5293-23.059 0.40039 23.059h12.852l9.3535-27.293-1.5254-2.8926h5l1.3984-7.9375h-15.279l-1.4004 7.9375h3.1855l-6.2617 19.764-0.59961-27.701h-8.9297l-10.368 27.701 0.594-16.539-1.699-3.225h5l1.4004-7.9375h-15.883zm56.67 0-10.562 30.186h-2.8066l-1.4004 7.9375h11.773l2.9316-9.2871h6.4277l-0.28906 9.2871h11.719l1.3984-7.9375h-2.5898l-0.0234-30.186h-16.578zm17.674 0.00195-0.11133 0.63086h1.1055l-0.54883 3.1074h0.75391l0.54687-3.1074h1.1055l0.11133-0.63086h-2.9629zm3.4453 0-0.66015 3.7383h0.69726l0.52344-2.9434 0.21484 2.9434h0.73047l1.2539-2.9434-0.51563 2.9434h0.69727l0.6582-3.7383h-1.1348l-1.1113 2.5508-0.21875-2.5508h-1.1348zm-99.19 7.9356h7.4727l-3.9238 22.248h-5.6699l3.357-19.043-1.236-3.205zm82.785 0h3.0195l-0.39453 14.311h-4.8066l3.7324-11.363-1.55-2.948z" transform="matrix(.8 0 0 -.8 337.8 453.27)"/></g></g></svg>