<?xml version="1.0" encoding="UTF-8" standalone="no"?>
<svg
   xmlns:dc="http://purl.org/dc/elements/1.1/"
   xmlns:cc="http://creativecommons.org/ns#"
   xmlns:rdf="http://www.w3.org/1999/02/22-rdf-syntax-ns#"
   xmlns:svg="http://www.w3.org/2000/svg"
   xmlns="http://www.w3.org/2000/svg"
   xmlns:sodipodi="http://sodipodi.sourceforge.net/DTD/sodipodi-0.dtd"
   xmlns:inkscape="http://www.inkscape.org/namespaces/inkscape"
   width="46.740902mm"
   height="11.575591mm"
   viewBox="0 0 46.740902 11.575591"
   version="1.1"
   id="svg3381"
   sodipodi:docname="Lehigh University wordmark Lehigh flat.svg"
   inkscape:version="1.0.1 (3bc2e813f5, 2020-09-07)">
  <defs
     id="defs3375" />
  <sodipodi:namedview
     id="base"
     pagecolor="#ffffff"
     bordercolor="#666666"
     borderopacity="1.0"
     inkscape:pageopacity="0.0"
     inkscape:pageshadow="2"
     inkscape:zoom="1.14634"
     inkscape:cx="123.05943"
     inkscape:cy="-29.54119"
     inkscape:document-units="mm"
     inkscape:current-layer="layer1"
     inkscape:document-rotation="0"
     showgrid="false"
     inkscape:window-width="960"
     inkscape:window-height="1136"
     inkscape:window-x="960"
     inkscape:window-y="27"
     inkscape:window-maximized="0" />
  <metadata
     id="metadata3378">
    <rdf:RDF>
      <cc:Work
         rdf:about="">
        <dc:format>image/svg+xml</dc:format>
        <dc:type
           rdf:resource="http://purl.org/dc/dcmitype/StillImage" />
        <dc:title></dc:title>
      </cc:Work>
    </rdf:RDF>
  </metadata>
  <g
     inkscape:label="Layer 1"
     inkscape:groupmode="layer"
     id="layer1"
     transform="translate(-126.36661,-123.51166)">
    <g
       id="g5400"
       transform="matrix(0.35277777,0,0,-0.35277777,-169.94449,192.54646)">
      <g
         id="g2304"
         transform="translate(860.043,176.2529)">
        <path
           d="m 0,0 h -5.866 v -7.51 h -5.97 v 21.027 h 2.404 v 5.865 h -10.674 v -5.865 h 2.403 V -7.51 h -2.403 v -5.866 H 0 Z"
           style="fill:#673a19;fill-opacity:1;fill-rule:nonzero;stroke:none"
           id="path2306" />
      </g>
      <g
         id="g2308"
         transform="translate(862.8984,189.7695)">
        <path
           d="M 0,0 H 2.403 V -21.023 H 0 v -5.87 h 20.107 v 12.526 h -5.865 v -6.656 H 8.271 v 9.15 h 6.585 V -5.97 H 8.271 V 0 h 5.971 v -4.402 h 5.865 V 5.867 H 0 Z"
           style="fill:#673a19;fill-opacity:1;fill-rule:nonzero;stroke:none"
           id="path2310" />
      </g>
      <g
         id="g2312"
         transform="translate(913.5195,189.7695)">
        <path
           d="M 0,0 H 2.405 V -21.026 H 0 v -5.867 h 10.675 v 5.867 H 8.271 V 0 h 2.404 V 5.865 H 0 Z"
           style="fill:#673a19;fill-opacity:1;fill-rule:nonzero;stroke:none"
           id="path2314" />
      </g>
      <g
         id="g2316"
         transform="translate(931.2627,195.6367)">
        <path
           d="m 0,0 -3.729,-3.77 v -25.41 l 3.697,-3.58 h 10.913 l 3.094,3.369 v 14.965 H 5.038 v -5.756 h 3.069 v -6.709 H 2.139 v 21.024 h 5.968 v -4.66 h 5.868 v 7.416 L 11.14,0 Z"
           style="fill:#673a19;fill-opacity:1;fill-rule:nonzero;stroke:none"
           id="path2318" />
      </g>
      <g
         id="g2320"
         transform="translate(961.7559,189.8232)">
        <path
           d="M 0,0 H 2.402 V -7.228 H -4.804 V 0 H -2.4 V 5.866 H -13.076 V 0 h 2.406 v -21.025 h -2.406 v -5.867 H -2.4 v 5.867 h -2.404 v 8.079 h 7.206 v -8.079 H 0 v -5.867 h 10.675 v 5.867 H 8.27 V 0 h 2.405 V 5.866 H 0 Z"
           style="fill:#673a19;fill-opacity:1;fill-rule:nonzero;stroke:none"
           id="path2322" />
      </g>
      <g
         id="g2324"
         transform="translate(899.2324,189.8232)">
        <path
           d="M 0,0 H 2.405 V -7.228 H -4.803 V 0 h 2.406 V 5.866 H -13.073 V 0 h 2.404 v -21.025 h -2.404 v -5.867 h 10.676 v 5.867 h -2.406 v 8.079 h 7.208 v -8.079 H 0 v -5.867 h 10.676 v 5.867 H 8.271 V 0 h 2.405 V 5.866 H 0 Z"
           style="fill:#673a19;fill-opacity:1;fill-rule:nonzero;stroke:none"
           id="path2326" />
      </g>
    </g>
  </g>
</svg>
