<svg xmlns="http://www.w3.org/2000/svg" height="35.812" viewBox="0 0 111.48049 35.81152" width="111.48"><g transform="matrix(1.25 0 0 -1.25 -912.5 635.58)"><g transform="matrix(.5 0 0 .5 387.78 247.66)"><path d="m161.15 0v9.6309h2.4219v12.523h-1.2031v-0.0039h-2.748l-6.6582-22.148-15.912 0.0039062v1.6094 8.0176h1.8301l-3.9453 12.523h-1.5488v-0.0078h-2.4238v-12.514h2.4238v-9.6309h-14.613v9.6309h2.4219v12.514h-1.2051v-7.2305l-4.7949-3.5977h3.5606v-11.314h-21.264l-3.8945 2.9199v-2.9219h-13.391v-0.0019531h-12.195v1.6094 20.299l-0.33008 0.24414h-5.1582l-0.32617-0.24414v-21.908h-12.195v2.9277l-3.8965-2.9277h-15.125l-5.1152 3.8457v15.129h-8.0508v3.1777h-5.6836v-12.531h2.3086v-9.6191h-14.439v9.6191h2.3145v12.531h-2.3145v9.6172h27.096v-2.9121l3.8848 2.9121h0.53711 14.586l5.1172-3.834v-18.303h1.2051v18.303l5.1133 3.834h15.125l5.1172-3.834v-18.303h1.207 2.4199v12.514h-2.4199v1.6094 8.0215h13.391 1.2188 21.277l3.8984-2.9277v2.9277h13.393 12.371v-7.7617l0.0996-0.30664h5.2852l0.0762 0.27734v7.791h12.371v-0.0078h10.973v-13.871l6.916 13.871h10.498v0.0078h12.373v-7.7637l0.0977-0.30469h5.2852l0.0781 0.27734v7.791h12.371v-9.6289h-2.7539l-6.6562-22.148-15.91 0.0039062v1.6094 8.0176h1.8281l-3.9473 12.523h-1.5488v-12.525h2.4199v-9.6309h-12.188v13.883l-6.93-13.882h-14.13zm-58.676 9.623h7.0703v0.089844 1.3711l-7.0703 0.002-0.32422-0.24414v-0.97461l0.32422-0.24414zm-66.52 0.00391h5.1738l0.32031 0.24023v12.043l-0.32617 0.24414h-5.1621l-0.32227-0.24414v-12.043l0.31641-0.24023zm55.221 0.00781h1.2012v7.2344l3.0508 2.2852h-3.0488v2.9941h-1.2031v-12.514zm18.721 11.066 0.32422 0.23828v0.97266l-0.32226 0.23633h-8.3066v-1.4453l8.3047-0.002zm-56.979 17.148v1.6113 9.5879h9.3887v-1.5781h1.1309v12.527h-2.3164v9.6211h14.441v-9.6211h-2.3164v-12.527h1.123v1.5781h9.2969v-1.582h0.71484v12.527h-2.3125v9.623h27.096v-2.5996l3.6133 2.6055h19.889v-0.0059h10.547v-11.09h5.4746v11.09h12.129v-9.623h-2.3125v-12.525h2.3125v-1.6074-8.0117h-12.129v11.064h-5.4746v-11.064h-10.547-19.891l-3.6113 2.625v-2.625h-27.096-29.15zm41.279 9.6172h5.6855v1.4473h-5.6855v-1.4473zm38.469 0.002 0.72656 0.002v12.523h-0.72656v-3.1738h-9.2695v3.1719h-5.6719l-0.34766-0.24609v-12.039l0.33789-0.23633h5.6816v3.1719h9.2695v-3.1738zm-29.562 3.1758h4.4668v6.1758h-4.4668v-6.1758zm-8.9063 7.9082h5.6855v1.4434h-5.6855v-1.4434z" transform="matrix(.8 0 0 -.8 685.13 520.91)" fill="#fff"/><path d="m162.76 1.6094v6.4082h2.418v15.746h-2.418v6.4004h8.9727v-19.096l9.5195 19.096h9.1113v-22.146h2.4199v-6.4082h-8.9727v19.105l-9.5234-19.105h-11.527zm-131.24 0.00195-4.0449 3.0391v22.482l4.0449 3.0312h14.049l4.043-3.0312v-22.482l-4.043-3.0391h-14.049zm20.092 0v6.4121h2.4238v19.109l4.0449 3.0332h14.053l4.0391-3.0332v-19.109h2.4277v-6.4121h-8.9785v21.105l-1.4004 1.0469h-6.2305l-1.4023-1.0469v-21.105h-8.9766zm100.15 0-13.102 0.00195v6.4082h2.4141l-4.9629 15.744h-2.3379v6.4043h9.1523v-6.4043l0.53516-1.666h7.6875l0.45899 1.6719v6.3984h9.1543v-6.4102h-2.3398l-6.6602-22.148zm58.59 0-13.102 0.00195v6.4082h2.4141l-4.9629 15.744h-2.3379v6.4043h9.1543v-6.4043l0.5332-1.666h7.6856l0.45899 1.6719v6.3984h9.1543v-6.4102h-2.3398l-6.6582-22.148zm-208.74 0.00195v6.4023h2.3125v15.746h-2.3125v6.4023h23.875v-9.5781h-6.0625v3.1758h-8.9023v-15.746h2.3105v-6.4023h-11.221zm78.984 0v6.4102h2.4219v15.734h-2.4219v6.4102h11.393v-6.4102h-2.4199v-15.734h2.4199v-6.4102h-11.393zm17.432 0-4.041 3.0332v11.418l4.041 3.0312 12.4-0.0059 1.4024 1.0469v2.5859l-1.4024 1.0352h-10.443v-2.9922h-5.9961v9.4023h20.352l4.0391-3.0312v-11.416l-4.0391-3.0293-12.4 0.002-1.4004-1.0449v-2.5879l1.4004-1.0449h9.2129v1.6973h5.9961v-8.0996h-19.121zm22.355 0v6.4102h2.4219v15.734h-2.4219v6.4102h11.393v-6.4102h-2.4219v-15.734h2.4219v-6.4102h-11.393zm-84.965 6.4043h6.248l1.3926 1.0469v13.65l-1.4004 1.0488h-6.2305l-1.3984-1.0488v-13.65l1.3887-1.0469zm111.96 1.6914h0.0449l1.7344 5.7949h-3.6172l1.8379-5.7949zm58.592 0h0.0391l1.7363 5.7949h-3.6133l1.8379-5.7949zm-151.44 29.75v7.9785h6.1719v-1.5762h4.3496v15.746h-2.3203v6.4023h11.225v-6.4023h-2.3125v-15.746h4.3359v1.5762h6.0781v-7.9785h-27.527zm29.148 0v6.3984h2.3145v15.748h-2.3145v6.4023h23.879v-9.5762h-6.0625v3.1738h-8.9063v-4.6621h8.9063v-6.4219h-8.9063v-4.6641h8.9063v3.1777h6.0625v-9.5762h-23.879zm49.016 0v6.4023h2.3125v15.744h-2.3125v6.4023h8.9102v-11.088h8.6953v11.088h8.9102v-6.4023h-2.3106v-15.744h2.3106v-6.4023h-8.9102v11.062h-8.6953v-11.062h-8.9102zm-19.393 0.002-4.1191 2.9902v22.596l4.1191 2.9668h17.76v-9.582h-6.0488v3.1699h-7.7949l-1.4453-1.0234v-13.703l1.4375-1.0137h7.8027v3.1758h6.0488v-9.5762h-17.76z" transform="matrix(.8 0 0 -.8 685.13 520.91)" fill="#003087"/></g></g></svg>
