<svg id="svg" version="1.1" xmlns="http://www.w3.org/2000/svg" xmlns:xlink="http://www.w3.org/1999/xlink" width="400" height="378" viewBox="0, 0, 400,378"><g id="svgg"><path id="path0" d="M119.298 12.191 C 119.144 12.677,118.752 26.469,117.765 66.163 C 117.457 78.535,117.036 93.677,116.829 99.811 C 116.622 105.945,116.451 113.045,116.449 115.589 L 116.446 120.214 126.350 120.315 L 136.254 120.416 137.257 124.386 L 138.260 128.355 138.675 126.843 C 138.903 126.011,139.294 124.480,139.543 123.440 C 140.390 119.901,138.812 120.227,155.126 120.227 L 169.583 120.227 171.061 117.188 C 178.591 101.702,194.434 90.467,214.103 86.665 C 216.290 86.242,216.038 85.983,211.321 83.812 C 208.918 82.707,205.005 80.781,202.625 79.532 L 198.299 77.263 198.110 44.586 L 197.921 11.909 158.684 11.813 C 127.482 11.736,119.418 11.814,119.298 12.191 M331.002 100.848 C 329.451 100.923,315.903 102.923,310.276 103.906 L 308.831 104.159 311.788 106.252 L 314.745 108.346 314.934 114.759 L 315.123 121.172 342.890 121.269 C 358.162 121.322,370.766 121.237,370.899 121.080 C 371.032 120.923,371.041 116.966,370.920 112.287 L 370.699 103.781 365.028 103.727 C 360.936 103.688,356.516 103.297,349.149 102.321 C 339.242 101.009,334.919 100.658,331.002 100.848 M338.450 161.512 C 337.605 162.357,337.817 207.061,338.668 207.516 C 339.094 207.744,339.577 207.742,339.991 207.511 C 341.006 206.943,340.996 162.355,339.981 161.585 C 339.154 160.957,339.012 160.951,338.450 161.512 M13.628 163.800 C 13.679 165.229,15.554 167.366,25.709 177.575 C 38.359 190.293,39.156 191.005,47.403 196.975 C 55.675 202.964,57.945 205.730,58.922 211.016 C 59.363 213.402,60.332 215.965,62.183 219.640 C 63.941 223.130,65.406 227.566,65.406 229.393 C 65.406 231.820,66.446 234.577,68.535 237.695 L 70.510 240.643 70.610 228.809 L 70.710 216.975 72.595 215.804 L 74.480 214.632 74.480 188.979 L 74.480 163.327 44.045 163.327 C 19.940 163.327,13.614 163.425,13.628 163.800 M310.974 257.277 C 299.113 277.431,276.437 287.339,242.189 287.333 C 225.604 287.330,211.395 285.222,198.960 280.919 C 196.621 280.110,194.707 279.537,194.707 279.647 C 194.707 279.756,195.026 280.297,195.415 280.849 C 196.628 282.567,198.351 286.246,199.595 289.774 C 201.562 295.350,203.368 297.707,214.534 309.272 C 221.052 316.023,221.705 317.223,221.728 322.495 C 221.744 326.118,221.868 326.795,223.145 330.246 C 223.915 332.325,224.730 334.756,224.956 335.647 C 226.102 340.165,242.924 354.831,251.796 359.048 C 254.187 360.184,257.550 361.815,259.269 362.672 L 262.395 364.229 269.666 364.490 C 275.414 364.695,277.875 364.957,281.410 365.740 C 288.850 367.386,288.704 367.557,286.143 360.242 C 279.849 342.263,279.596 340.800,280.863 329.679 C 281.301 325.832,281.829 320.643,282.036 318.147 C 282.285 315.146,282.666 313.035,283.162 311.909 C 283.575 310.974,284.536 308.592,285.299 306.616 C 287.027 302.140,288.314 300.238,290.974 298.230 C 292.121 297.363,293.539 295.961,294.125 295.114 C 297.109 290.795,304.520 285.427,324.764 272.922 C 336.674 265.565,339.602 263.276,342.502 259.060 L 344.768 255.766 332.214 255.527 C 321.833 255.329,319.084 255.161,316.333 254.557 L 313.006 253.825 310.974 257.277 M93.762 255.730 C 93.762 256.834,106.831 264.272,108.772 264.272 C 108.839 264.272,109.316 263.319,109.831 262.154 C 110.346 260.989,111.338 259.245,112.035 258.279 C 112.731 257.312,113.423 256.309,113.573 256.049 C 113.787 255.676,111.729 255.577,103.803 255.577 C 98.280 255.577,93.762 255.646,93.762 255.730 M317.849 258.739 C 317.771 258.975,317.465 259.168,317.171 259.168 C 316.792 259.168,316.580 259.809,316.446 261.349 C 316.190 264.307,315.528 264.281,315.388 261.309 C 315.298 259.425,315.159 258.957,314.738 259.119 C 314.194 259.327,313.656 258.871,314.018 258.508 C 314.433 258.093,317.993 258.308,317.849 258.739 M320.562 260.666 L 321.250 262.479 321.947 260.540 C 323.050 257.473,324.078 257.790,323.930 261.153 C 323.809 263.917,323.138 264.636,322.941 262.213 L 322.819 260.721 322.108 262.307 C 321.228 264.275,321.132 264.273,320.318 262.287 L 319.660 260.681 319.471 262.111 C 319.166 264.417,318.536 263.924,318.411 261.282 C 318.236 257.565,319.272 257.268,320.562 260.666 " stroke="none" fill="#fbb414" fill-rule="evenodd"></path><path id="path1" d="M112.892 19.754 C 112.756 27.500,112.566 34.943,112.471 36.295 C 112.307 38.621,112.099 46.165,111.117 85.255 C 110.887 94.405,110.578 105.888,110.430 110.775 C 110.119 121.051,109.875 120.294,113.458 120.150 L 116.257 120.038 116.708 104.726 C 116.955 96.304,117.423 79.036,117.746 66.352 C 118.844 23.282,119.148 12.666,119.298 12.191 C 119.418 11.814,127.482 11.736,158.684 11.813 L 197.921 11.909 198.110 44.589 L 198.299 77.269 202.836 79.646 C 205.331 80.953,209.298 82.896,211.651 83.963 L 215.929 85.904 221.103 85.444 C 227.197 84.904,228.942 84.558,227.788 84.119 C 226.439 83.606,218.021 80.137,215.690 79.134 C 214.442 78.596,211.380 77.117,208.885 75.846 L 204.348 73.535 204.251 39.603 L 204.155 5.671 158.647 5.671 L 113.139 5.671 112.892 19.754 M231.569 91.178 C 203.530 92.214,183.195 103.636,175.981 122.400 C 175.441 123.804,174.844 125.336,174.653 125.803 L 174.307 126.654 159.996 126.654 L 145.685 126.654 145.287 128.261 C 145.068 129.145,143.747 134.291,142.351 139.698 C 140.956 145.104,139.533 150.686,139.189 152.103 C 138.845 153.520,138.393 154.627,138.185 154.563 C 137.977 154.499,136.411 148.832,134.705 141.968 C 132.999 135.105,131.418 128.852,131.193 128.072 L 130.783 126.654 104.144 126.654 L 77.505 126.654 77.505 140.638 L 77.505 154.622 79.001 155.566 C 81.400 157.081,81.285 155.471,81.285 187.725 L 81.285 217.466 80.132 218.544 C 79.498 219.136,78.647 219.726,78.242 219.855 C 77.528 220.081,77.505 220.544,77.505 234.241 L 77.505 248.393 100.000 248.393 L 122.495 248.393 122.495 244.234 C 122.495 240.501,122.894 238.914,123.375 240.737 C 123.471 241.101,123.940 242.975,124.418 244.902 L 125.287 248.406 134.931 248.305 L 144.574 248.204 145.162 245.818 C 145.907 242.794,146.503 242.808,146.503 245.850 L 146.503 248.204 160.576 248.303 L 174.649 248.402 174.754 253.954 L 174.858 259.505 178.261 262.099 C 193.595 273.790,216.140 280.155,242.202 280.150 C 276.618 280.144,299.597 268.738,307.972 247.503 C 308.799 245.405,309.286 245.085,310.683 245.722 C 319.002 249.512,355.794 249.330,368.053 245.437 C 379.110 241.926,386.118 232.702,388.174 218.953 C 388.664 215.674,388.816 209.653,389.000 186.264 C 389.249 154.559,388.986 157.545,391.654 156.067 L 392.817 155.423 392.817 141.605 L 392.817 127.788 368.053 127.788 L 343.289 127.788 343.289 141.572 L 343.289 155.356 344.993 156.354 C 347.250 157.677,347.103 155.555,346.985 185.048 L 346.881 211.116 344.783 212.360 C 340.574 214.857,336.578 214.568,332.420 211.465 L 331.191 210.548 331.191 184.119 L 331.191 157.691 332.907 156.381 L 334.622 155.071 334.702 141.434 L 334.783 127.798 321.550 127.698 L 308.318 127.599 308.216 119.570 L 308.114 111.541 304.813 109.331 C 290.944 100.045,277.044 94.799,259.546 92.247 C 254.971 91.579,251.621 91.360,240.454 90.994 C 239.310 90.957,235.312 91.039,231.569 91.178 M328.733 94.787 C 328.110 94.873,324.707 95.435,321.172 96.037 C 317.637 96.638,312.023 97.397,308.696 97.722 C 305.369 98.048,302.064 98.409,301.352 98.525 L 300.057 98.736 302.393 100.052 C 303.678 100.776,305.622 101.957,306.712 102.676 C 309.071 104.231,308.937 104.236,320.983 102.215 C 331.534 100.445,335.282 100.454,348.960 102.283 C 356.559 103.299,360.883 103.688,365.028 103.727 L 370.699 103.781 370.935 112.098 C 371.065 116.673,371.192 120.543,371.219 120.699 C 371.245 120.855,372.618 120.983,374.269 120.983 L 377.271 120.983 377.053 110.113 C 376.933 104.135,376.796 99.197,376.750 99.139 C 375.954 98.154,371.889 97.542,366.077 97.531 C 362.589 97.524,358.544 97.360,357.089 97.166 C 338.584 94.699,332.863 94.219,328.733 94.787 M255.726 99.061 C 271.958 100.945,286.094 105.765,298.204 113.546 L 300.945 115.307 300.945 134.402 L 300.945 153.497 277.751 153.497 L 254.557 153.497 254.328 148.677 C 253.864 138.908,251.319 134.108,245.777 132.553 C 236.561 129.967,229.559 136.588,230.371 147.120 C 231.076 156.266,235.237 159.086,256.522 164.844 C 296.237 175.588,306.453 186.470,306.388 217.958 C 306.310 255.868,286.039 273.346,242.155 273.342 C 218.815 273.340,199.923 268.525,185.467 258.894 C 181.148 256.017,181.459 256.703,181.569 250.284 L 181.664 244.802 187.807 244.698 L 193.951 244.594 193.951 233.770 L 193.951 222.946 192.481 221.587 C 190.775 220.008,190.175 218.256,190.172 214.839 L 190.170 212.476 210.334 212.476 L 230.498 212.476 230.905 220.888 C 231.516 233.558,233.423 237.258,240.221 238.970 C 250.757 241.623,257.655 231.857,254.849 218.259 C 252.851 208.580,248.296 205.397,230.057 200.931 C 209.417 195.878,198.708 191.572,191.918 185.595 L 190.170 184.057 190.172 171.140 C 190.175 156.631,190.275 155.880,192.481 153.839 L 193.951 152.479 193.951 141.646 L 193.951 130.813 187.546 130.813 C 180.355 130.813,180.561 130.895,181.347 128.339 C 188.469 105.170,215.770 94.423,255.726 99.061 M125.622 134.688 C 125.952 136.162,128.529 146.410,129.116 148.582 C 129.425 149.726,130.108 152.448,130.633 154.631 C 131.158 156.815,131.843 159.537,132.154 160.681 C 132.466 161.824,133.630 166.418,134.741 170.888 L 136.762 179.017 138.122 179.134 C 139.345 179.238,139.507 179.142,139.718 178.188 C 139.847 177.604,140.185 176.276,140.468 175.236 C 140.752 174.197,142.088 169.008,143.436 163.705 C 144.785 158.403,146.851 150.321,148.028 145.747 C 149.204 141.172,150.363 136.664,150.603 135.728 L 151.040 134.026 170.794 133.929 L 190.548 133.831 190.548 142.678 C 190.548 149.769,190.447 151.565,190.036 151.722 C 189.755 151.830,189.032 152.742,188.430 153.748 L 187.335 155.577 187.335 187.713 L 187.335 219.849 188.390 221.610 C 188.971 222.579,189.694 223.467,189.997 223.583 C 190.458 223.760,190.548 225.245,190.548 232.691 L 190.548 241.588 172.023 241.588 L 153.497 241.588 153.497 232.958 L 153.497 224.328 154.412 223.469 C 154.915 222.997,155.723 221.733,156.208 220.662 L 157.089 218.715 156.992 200.378 C 156.938 190.293,156.896 181.829,156.897 181.569 C 156.899 181.284,156.394 181.096,155.622 181.096 C 153.965 181.096,154.767 178.398,146.526 211.720 C 142.643 227.420,139.377 240.568,139.269 240.938 C 139.093 241.541,138.628 241.601,134.874 241.505 L 130.677 241.399 130.351 240.265 C 130.172 239.641,129.534 237.259,128.933 234.972 C 128.332 232.684,127.392 229.112,126.843 227.032 C 126.295 224.953,125.250 220.955,124.522 218.147 C 123.794 215.340,122.858 211.767,122.441 210.208 C 122.025 208.648,121.112 205.161,120.412 202.457 C 119.713 199.754,118.802 196.267,118.387 194.707 C 117.025 189.583,114.934 181.445,114.934 181.269 C 114.934 181.174,114.253 181.096,113.422 181.096 L 111.909 181.096 111.909 199.608 C 111.909 220.214,111.972 220.776,114.557 223.252 L 115.690 224.338 115.690 232.963 L 115.690 241.588 100.189 241.588 C 90.112 241.588,84.685 241.456,84.680 241.210 C 84.676 241.002,84.669 237.164,84.664 232.682 L 84.657 224.532 85.677 223.325 C 88.443 220.052,88.280 222.291,88.280 187.713 L 88.280 156.711 87.399 154.763 C 86.914 153.692,86.106 152.429,85.603 151.956 L 84.688 151.097 84.688 142.467 L 84.688 133.837 105.060 133.837 L 125.432 133.837 125.622 134.688 M327.788 143.177 L 327.788 151.382 326.710 152.534 C 324.109 155.313,324.208 154.095,324.090 184.676 C 323.972 215.314,323.818 213.446,326.677 216.017 C 334.438 222.995,344.765 222.914,351.973 215.819 C 354.454 213.377,354.315 215.356,354.162 184.499 C 354.013 154.780,354.100 155.853,351.602 153.015 L 350.095 151.302 350.095 143.137 L 350.095 134.972 368.053 134.972 L 386.011 134.972 386.011 143.218 L 386.011 151.465 384.828 152.576 C 381.907 155.316,382.067 153.464,381.826 187.335 C 381.668 209.560,381.484 218.182,381.132 219.849 C 379.031 229.810,373.860 236.469,366.352 238.881 C 354.109 242.815,320.696 242.612,310.997 238.545 C 307.036 236.883,307.233 237.137,307.889 234.556 C 310.056 226.021,309.957 209.705,307.678 200.000 C 305.377 190.203,302.330 184.542,296.452 179.147 L 293.840 176.749 293.696 166.635 L 293.553 156.522 298.961 156.522 L 304.370 156.522 304.348 146.219 C 304.335 140.553,304.330 135.704,304.337 135.444 C 304.345 135.077,306.950 134.972,316.068 134.972 L 327.788 134.972 327.788 143.177 M244.934 139.708 C 246.672 141.170,248.540 154.631,247.005 154.631 C 245.598 154.631,239.667 151.549,238.446 150.183 C 237.083 148.659,236.869 143.290,238.074 140.898 C 239.171 138.721,242.976 138.060,244.934 139.708 M6.252 159.072 C 6.687 162.205,7.952 166.780,8.904 168.658 C 9.853 170.531,10.576 171.337,15.695 176.234 C 17.356 177.822,21.872 182.341,25.731 186.276 C 33.321 194.016,36.298 196.602,43.289 201.529 C 49.542 205.935,51.946 208.403,52.537 211.020 C 53.249 214.178,54.059 216.613,55.285 219.282 C 58.454 226.179,59.011 227.701,59.353 230.401 C 59.979 235.338,60.688 237.091,63.956 241.777 C 68.979 248.979,70.155 250.639,70.416 250.891 C 70.572 251.042,70.699 248.875,70.699 246.075 L 70.699 240.984 68.624 237.847 C 66.437 234.541,65.406 231.835,65.406 229.393 C 65.406 227.566,63.941 223.130,62.183 219.640 C 60.332 215.965,59.363 213.402,58.922 211.016 C 57.945 205.730,55.675 202.964,47.403 196.975 C 39.156 191.005,38.359 190.293,25.709 177.575 C 15.554 167.366,13.679 165.229,13.628 163.800 C 13.614 163.425,19.940 163.327,44.045 163.327 L 74.480 163.327 74.473 162.287 C 74.467 161.447,74.108 161.036,72.600 160.140 C 71.473 159.471,70.690 158.723,70.622 158.250 L 70.510 157.467 38.256 157.370 L 6.002 157.274 6.252 159.072 M286.578 163.907 C 286.578 167.864,286.572 167.871,284.197 166.707 C 281.890 165.575,276.744 163.585,272.401 162.143 C 268.012 160.687,268.303 160.816,268.546 160.422 C 268.650 160.252,272.751 160.162,277.657 160.221 L 286.578 160.329 286.578 163.907 M197.041 196.956 C 200.815 198.991,208.090 201.874,213.383 203.434 C 215.794 204.145,217.767 204.856,217.768 205.015 C 217.769 205.174,212.453 205.259,205.955 205.204 L 194.140 205.104 194.034 200.284 C 193.976 197.632,194.005 195.463,194.100 195.463 C 194.194 195.463,195.517 196.135,197.041 196.956 M241.313 211.280 C 246.336 213.568,248.041 216.288,248.311 222.440 C 248.663 230.474,245.336 234.281,240.549 231.322 C 238.270 229.914,238.043 228.862,237.881 218.998 C 237.715 208.926,237.451 209.521,241.313 211.280 M349.229 255.577 C 346.777 255.681,344.651 255.941,344.503 256.156 C 344.355 256.371,343.347 257.843,342.262 259.429 C 339.678 263.205,336.389 265.741,324.764 272.922 C 304.520 285.427,297.109 290.795,294.125 295.114 C 293.539 295.961,292.121 297.363,290.974 298.230 C 288.314 300.238,287.027 302.140,285.299 306.616 C 284.536 308.592,283.575 310.974,283.162 311.909 C 282.666 313.035,282.285 315.146,282.036 318.147 C 281.829 320.643,281.301 325.832,280.863 329.679 C 279.596 340.800,279.849 342.263,286.143 360.242 C 288.704 367.557,288.850 367.386,281.410 365.740 C 277.875 364.957,275.414 364.695,269.666 364.490 L 262.395 364.229 259.269 362.672 C 257.550 361.815,254.187 360.184,251.796 359.048 C 242.924 354.831,226.102 340.165,224.956 335.647 C 224.730 334.756,223.915 332.325,223.145 330.246 C 221.868 326.795,221.744 326.118,221.728 322.495 C 221.705 317.223,221.052 316.023,214.534 309.272 C 203.360 297.700,201.556 295.343,199.601 289.774 C 196.862 281.971,195.205 279.704,190.926 277.900 C 189.367 277.242,186.645 275.906,184.877 274.931 C 183.110 273.955,181.519 273.095,181.343 273.019 C 180.540 272.672,182.135 274.739,185.014 277.776 C 189.870 282.897,191.441 285.505,194.529 293.573 C 196.492 298.699,199.633 302.777,209.238 312.665 C 215.818 319.440,215.501 318.914,215.501 323.077 C 215.501 326.794,215.439 326.541,218.674 336.064 C 220.386 341.103,220.847 341.734,227.676 348.368 C 238.114 358.510,241.645 361.026,253.107 366.490 L 261.059 370.281 268.620 370.548 C 274.545 370.756,276.918 370.999,279.584 371.667 C 289.304 374.102,295.593 372.053,294.215 366.902 C 293.966 365.970,293.762 364.864,293.762 364.446 C 293.762 364.028,292.243 359.139,290.387 353.582 C 285.880 340.085,285.893 340.159,286.692 332.792 C 287.047 329.520,287.606 324.206,287.935 320.983 C 288.382 316.611,288.765 314.583,289.446 312.996 C 289.948 311.827,290.359 310.673,290.359 310.433 C 290.359 308.746,293.175 304.245,295.171 302.740 C 296.343 301.857,298.050 300.113,298.965 298.866 C 301.501 295.408,304.016 293.529,320.227 282.979 C 320.955 282.506,323.677 280.802,326.276 279.192 C 340.313 270.503,344.321 267.439,346.972 263.373 C 347.937 261.892,349.881 259.500,351.292 258.056 C 352.702 256.613,353.818 255.422,353.771 255.410 C 353.725 255.398,351.680 255.473,349.229 255.577 M75.236 255.735 C 75.236 256.038,79.020 257.148,82.428 257.847 C 86.564 258.694,88.195 259.451,92.309 262.433 C 104.860 271.531,112.729 272.753,114.972 265.953 C 115.598 264.056,117.979 260.247,120.510 257.094 C 121.729 255.576,121.730 255.577,117.642 255.577 L 113.923 255.577 112.177 258.129 C 111.216 259.532,110.088 261.489,109.671 262.476 C 109.253 263.464,108.853 264.272,108.781 264.272 C 107.293 264.272,99.869 260.380,96.077 257.612 L 93.289 255.577 84.263 255.577 C 79.298 255.577,75.236 255.648,75.236 255.735 " stroke="none" fill="#faf7f8" fill-rule="evenodd"></path><path id="path2" d="M104.598 12.538 C 104.460 19.434,104.348 27.527,104.348 30.521 C 104.348 33.516,104.199 36.253,104.017 36.603 C 103.835 36.954,103.564 44.556,103.414 53.497 C 103.163 68.550,102.942 77.150,102.100 104.726 C 101.925 110.444,101.764 116.186,101.742 117.486 L 101.701 119.849 86.011 119.849 L 70.321 119.849 70.321 134.405 L 70.321 148.960 35.161 148.960 L 0.000 148.960 0.000 159.161 C 0.000 169.196,0.280 171.749,1.494 172.779 C 1.616 172.883,1.919 173.429,2.167 173.993 C 2.648 175.089,3.119 175.679,5.026 177.577 C 5.693 178.240,9.896 182.420,14.367 186.866 C 18.837 191.312,23.392 195.873,24.488 197.002 C 27.084 199.677,29.489 201.844,30.435 202.363 C 30.851 202.591,31.413 203.088,31.685 203.468 C 31.957 203.848,32.339 204.159,32.536 204.159 C 32.732 204.159,33.220 204.457,33.621 204.820 C 34.810 205.899,35.348 206.298,36.295 206.805 C 37.258 207.321,37.448 207.458,39.023 208.779 C 39.588 209.253,40.897 210.236,41.931 210.964 C 43.967 212.397,44.612 213.402,44.612 215.141 C 44.612 215.755,44.764 216.257,44.948 216.257 C 45.133 216.257,45.404 216.895,45.549 217.675 C 45.695 218.455,46.224 219.991,46.725 221.089 C 47.227 222.187,47.637 223.250,47.637 223.452 C 47.637 223.653,47.785 223.819,47.966 223.819 C 48.147 223.819,48.509 224.584,48.771 225.520 C 49.033 226.456,49.361 227.221,49.501 227.221 C 49.931 227.221,50.662 229.661,50.662 231.101 C 50.662 231.854,50.832 232.575,51.040 232.703 C 51.248 232.832,51.418 233.447,51.418 234.070 C 51.418 235.406,52.182 238.670,52.558 238.941 C 52.703 239.045,53.024 239.755,53.273 240.518 C 53.521 241.281,53.971 242.110,54.273 242.360 C 54.574 242.610,54.820 242.983,54.820 243.188 C 54.820 243.739,57.164 247.259,57.531 247.259 C 57.704 247.259,57.845 247.513,57.845 247.823 C 57.845 248.133,58.185 248.599,58.601 248.859 C 59.017 249.119,59.357 249.503,59.358 249.713 C 59.358 249.923,59.778 250.583,60.292 251.180 C 60.806 251.778,61.327 252.586,61.451 252.976 C 61.575 253.367,61.824 253.686,62.004 253.686 C 62.184 253.686,62.432 254.006,62.557 254.397 C 62.681 254.789,63.075 255.471,63.433 255.913 C 63.790 256.356,64.423 257.159,64.839 257.698 C 66.085 259.313,67.627 260.870,67.982 260.870 C 68.164 260.870,68.620 261.208,68.994 261.621 C 69.368 262.034,70.245 262.579,70.943 262.831 C 71.641 263.083,72.212 263.409,72.212 263.554 C 72.212 263.700,73.105 264.031,74.197 264.289 C 75.288 264.548,76.268 264.892,76.374 265.053 C 76.480 265.214,78.009 265.543,79.773 265.784 C 81.537 266.026,83.066 266.347,83.172 266.498 C 83.278 266.649,83.906 266.991,84.566 267.258 C 85.227 267.526,85.860 267.984,85.972 268.277 C 86.085 268.569,86.429 268.809,86.737 268.809 C 87.045 268.809,87.433 269.022,87.599 269.282 C 88.007 269.919,91.324 272.212,91.839 272.212 C 92.065 272.212,92.250 272.350,92.250 272.519 C 92.250 272.688,92.845 273.060,93.573 273.346 C 94.301 273.631,94.896 273.995,94.896 274.153 C 94.896 274.312,95.874 274.745,97.070 275.116 C 98.266 275.486,99.462 275.999,99.729 276.254 C 99.995 276.510,100.803 276.830,101.524 276.965 C 102.246 277.100,102.836 277.339,102.836 277.495 C 102.836 279.058,114.000 278.871,115.590 277.281 C 115.883 276.988,116.327 276.749,116.578 276.749 C 116.829 276.749,117.306 276.451,117.638 276.087 C 117.970 275.723,118.774 274.943,119.424 274.354 C 120.073 273.764,120.605 273.041,120.605 272.747 C 120.605 272.452,120.762 272.212,120.954 272.212 C 121.145 272.212,121.498 271.574,121.737 270.794 C 122.295 268.973,123.657 266.172,124.386 265.347 C 125.427 264.167,125.792 263.664,126.280 262.736 C 126.546 262.229,126.995 261.679,127.276 261.512 C 127.558 261.346,127.788 261.025,127.788 260.800 C 127.788 260.574,128.171 260.003,128.639 259.531 C 129.107 259.058,129.907 258.146,130.417 257.502 L 131.344 256.333 147.560 256.333 C 163.458 256.333,163.780 256.348,163.974 257.089 C 164.082 257.505,164.327 257.845,164.517 257.845 C 164.707 257.845,164.977 258.143,165.116 258.507 C 165.256 258.871,165.761 259.745,166.239 260.450 C 166.717 261.155,167.108 262.049,167.108 262.438 C 167.108 262.827,167.448 263.437,167.864 263.793 C 168.280 264.149,168.620 264.643,168.620 264.892 C 168.620 265.140,168.759 265.400,168.929 265.469 C 169.432 265.675,171.645 270.499,171.645 271.391 C 171.645 271.842,171.788 272.212,171.963 272.212 C 172.137 272.212,172.490 273.147,172.746 274.291 C 173.002 275.435,173.348 276.371,173.516 276.371 C 173.684 276.371,174.033 276.881,174.291 277.505 C 174.550 278.129,174.899 278.639,175.068 278.639 C 175.236 278.639,175.477 278.963,175.603 279.360 C 175.729 279.756,176.889 281.185,178.181 282.535 C 179.472 283.884,180.784 285.307,181.096 285.697 C 182.742 287.751,183.662 289.124,183.903 289.887 C 184.051 290.354,184.308 290.737,184.475 290.737 C 184.642 290.737,184.993 291.503,185.255 292.439 C 185.517 293.374,185.852 294.140,186.000 294.140 C 186.148 294.140,186.478 295.076,186.734 296.219 C 186.990 297.363,187.336 298.299,187.503 298.299 C 187.671 298.299,187.905 298.789,188.025 299.389 C 188.145 299.989,188.680 301.138,189.214 301.941 C 189.747 302.745,190.394 303.732,190.650 304.135 C 190.906 304.538,191.498 305.238,191.966 305.690 C 192.434 306.143,192.817 306.697,192.817 306.922 C 192.817 307.146,193.123 307.552,193.497 307.824 C 193.872 308.095,194.456 308.722,194.795 309.216 C 195.659 310.474,199.957 315.149,203.875 319.093 L 207.183 322.424 207.183 324.706 C 207.183 325.961,207.329 327.078,207.507 327.188 C 207.686 327.298,207.925 328.286,208.040 329.384 C 208.155 330.482,208.536 332.146,208.887 333.081 C 209.237 334.017,209.775 335.548,210.083 336.484 C 210.390 337.420,210.773 338.440,210.934 338.752 C 211.094 339.064,211.439 340.213,211.700 341.304 C 211.960 342.396,212.308 343.289,212.473 343.289 C 212.638 343.289,212.869 343.672,212.987 344.140 C 213.316 345.446,214.043 346.265,221.408 353.635 C 227.754 359.985,229.303 361.426,232.892 364.326 C 233.620 364.913,234.301 365.482,234.405 365.589 C 234.818 366.016,238.135 368.242,238.357 368.242 C 238.488 368.242,238.945 368.568,239.373 368.967 C 239.800 369.365,240.579 369.799,241.104 369.930 C 241.628 370.062,242.312 370.425,242.624 370.737 C 242.936 371.049,243.681 371.402,244.280 371.521 C 244.879 371.641,245.369 371.881,245.369 372.055 C 245.369 372.228,246.049 372.574,246.881 372.823 C 247.713 373.073,248.393 373.383,248.393 373.512 C 248.393 373.642,249.159 373.974,250.095 374.250 C 251.030 374.527,251.796 374.872,251.796 375.018 C 251.796 375.165,252.391 375.518,253.119 375.803 C 253.847 376.089,254.442 376.439,254.442 376.580 C 254.442 377.798,258.873 378.072,278.551 378.072 L 298.262 378.072 299.654 376.654 C 301.115 375.165,302.079 373.328,302.079 372.035 C 302.079 371.612,302.250 371.267,302.457 371.267 C 302.674 371.267,302.836 370.132,302.836 368.620 C 302.836 367.108,302.674 365.974,302.457 365.974 C 302.250 365.974,302.079 365.321,302.079 364.524 C 302.079 362.667,301.306 358.790,300.935 358.790 C 300.779 358.790,300.534 358.164,300.390 357.399 C 300.247 356.634,299.813 355.316,299.426 354.469 C 299.039 353.623,298.525 352.164,298.284 351.229 C 298.044 350.293,297.715 349.357,297.555 349.149 C 297.395 348.941,297.046 347.836,296.781 346.692 C 296.516 345.548,296.184 344.527,296.045 344.423 C 294.733 343.447,294.792 327.712,296.119 324.386 C 296.243 324.074,296.435 322.340,296.546 320.534 C 296.673 318.452,297.018 316.652,297.488 315.619 C 297.896 314.722,298.349 313.353,298.495 312.575 C 298.675 311.613,299.287 310.647,300.411 309.551 C 303.923 306.124,304.561 305.463,305.293 304.492 C 306.264 303.203,308.126 301.343,309.410 300.378 C 309.963 299.962,310.627 299.452,310.884 299.244 C 312.296 298.104,314.924 296.408,315.279 296.408 C 315.505 296.408,315.690 296.234,315.690 296.021 C 315.690 295.808,316.115 295.472,316.635 295.274 C 317.155 295.076,317.580 294.772,317.580 294.598 C 317.580 294.424,318.176 294.047,318.904 293.762 C 319.631 293.476,320.227 293.107,320.227 292.940 C 320.227 292.774,320.780 292.384,321.456 292.073 C 322.803 291.454,323.582 290.985,325.400 289.698 C 326.062 289.230,326.687 288.847,326.788 288.847 C 326.974 288.847,331.809 285.720,332.514 285.144 C 332.722 284.974,333.445 284.590,334.121 284.291 C 334.797 283.992,335.350 283.610,335.350 283.442 C 335.350 283.274,335.860 282.959,336.484 282.741 C 337.108 282.524,337.618 282.213,337.618 282.050 C 337.618 281.888,338.129 281.544,338.752 281.285 C 339.376 281.027,339.887 280.687,339.887 280.529 C 339.887 280.372,340.397 280.032,341.021 279.773 C 341.645 279.515,342.155 279.165,342.155 278.997 C 342.155 278.828,342.494 278.582,342.909 278.451 C 343.324 278.319,343.876 278.010,344.138 277.764 C 344.399 277.517,345.964 276.309,347.616 275.078 C 350.761 272.734,351.990 271.519,352.813 269.943 C 353.085 269.423,353.520 268.862,353.780 268.696 C 354.040 268.529,354.253 268.220,354.253 268.009 C 354.253 267.383,356.186 265.016,358.370 262.969 C 361.709 259.838,364.951 256.599,366.211 255.135 C 367.136 254.061,367.857 253.657,369.519 253.285 C 370.688 253.024,371.645 252.688,371.645 252.539 C 371.645 252.390,372.183 252.161,372.842 252.029 C 374.152 251.767,378.072 249.886,378.072 249.519 C 378.072 249.393,378.667 249.057,379.395 248.771 C 380.123 248.486,380.718 248.109,380.718 247.935 C 380.718 247.761,381.144 247.457,381.664 247.259 C 382.183 247.061,382.609 246.753,382.609 246.573 C 382.609 246.393,383.040 246.049,383.568 245.809 C 384.639 245.321,384.513 245.414,387.902 242.620 C 389.253 241.506,390.741 240.009,391.209 239.295 C 391.676 238.581,392.302 237.678,392.601 237.289 C 392.899 236.900,393.255 235.922,393.391 235.115 C 393.528 234.308,393.774 233.648,393.939 233.648 C 394.104 233.648,394.460 232.287,394.730 230.624 C 395.000 228.960,395.342 227.599,395.488 227.599 C 395.635 227.599,395.967 226.451,396.226 225.047 C 396.485 223.644,396.887 222.256,397.120 221.964 C 397.810 221.096,397.690 204.453,396.987 203.606 C 396.278 202.751,396.217 186.240,396.921 185.536 C 397.545 184.912,397.509 177.430,396.881 177.221 C 396.530 177.105,396.375 175.157,396.280 169.678 L 396.151 162.292 397.069 162.062 C 397.574 161.935,398.440 161.475,398.993 161.039 L 400.000 160.248 400.000 140.426 L 400.000 120.605 392.817 120.605 L 385.633 120.605 385.587 113.138 C 385.562 109.031,385.434 102.700,385.304 99.068 L 385.066 92.465 383.554 92.114 C 382.722 91.920,381.957 91.642,381.853 91.494 C 381.749 91.346,380.728 91.008,379.584 90.743 C 378.440 90.477,377.334 90.126,377.125 89.962 C 376.352 89.356,370.524 88.873,364.650 88.928 C 361.074 88.962,358.060 88.812,357.278 88.563 C 356.550 88.331,353.094 87.859,349.599 87.515 C 346.103 87.172,342.701 86.735,342.040 86.545 C 340.418 86.080,327.048 86.104,325.671 86.575 C 324.719 86.900,321.115 87.502,312.098 88.842 C 310.851 89.027,307.570 89.300,304.808 89.447 C 302.047 89.594,299.697 89.859,299.588 90.037 C 299.300 90.502,283.276 90.448,282.987 89.981 C 282.858 89.773,282.210 89.600,281.547 89.597 C 280.883 89.594,279.319 89.325,278.072 89.000 C 269.877 86.864,262.581 85.490,259.263 85.458 C 258.483 85.450,257.845 85.274,257.845 85.066 C 257.845 84.858,257.410 84.688,256.878 84.688 C 255.721 84.688,252.517 83.937,251.985 83.541 C 251.777 83.387,250.629 83.044,249.433 82.780 C 248.237 82.515,247.259 82.180,247.259 82.033 C 247.259 81.887,246.238 81.550,244.991 81.285 C 243.743 81.021,242.722 80.684,242.722 80.538 C 242.722 80.392,241.786 80.048,240.643 79.773 C 239.499 79.499,238.563 79.153,238.563 79.004 C 238.563 78.855,238.053 78.631,237.429 78.507 C 236.805 78.382,235.529 77.931,234.594 77.505 C 233.658 77.078,232.382 76.628,231.758 76.503 C 231.134 76.378,230.624 76.158,230.624 76.014 C 230.624 75.869,229.773 75.519,228.733 75.236 C 227.694 74.953,226.843 74.604,226.843 74.461 C 226.843 74.318,226.035 73.975,225.047 73.700 C 224.060 73.425,223.027 72.978,222.752 72.706 C 222.477 72.434,221.965 72.212,221.615 72.212 C 221.264 72.212,220.213 71.807,219.279 71.313 C 218.345 70.819,217.027 70.295,216.352 70.149 C 215.676 70.003,215.123 69.733,215.123 69.550 C 215.123 69.367,214.442 69.014,213.611 68.764 L 212.098 68.311 212.098 34.156 L 212.098 0.000 158.473 -0.000 L 104.848 -0.000 104.598 12.538 M204.537 39.321 L 204.537 73.350 210.302 76.150 C 216.006 78.920,226.627 83.464,228.249 83.827 C 230.528 84.339,229.854 84.959,226.750 85.208 C 199.561 87.389,180.838 98.192,171.142 117.292 L 169.555 120.416 155.005 120.486 L 140.454 120.556 139.509 124.333 C 138.282 129.235,138.231 129.247,137.211 124.881 C 136.734 122.841,136.231 121.037,136.094 120.871 C 135.956 120.705,130.010 120.576,122.880 120.584 L 109.917 120.599 110.185 107.086 C 110.333 99.654,110.604 88.554,110.787 82.420 C 110.970 76.285,111.477 56.635,111.914 38.752 C 112.350 20.870,112.778 6.026,112.863 5.766 C 112.987 5.391,122.507 5.293,158.778 5.293 L 204.537 5.293 204.537 39.321 M255.009 91.305 C 274.622 93.364,294.874 100.819,307.089 110.474 L 308.507 111.595 308.507 119.502 L 308.507 127.410 321.739 127.410 L 334.972 127.410 334.972 141.381 L 334.972 155.351 333.270 156.522 L 331.569 157.692 331.569 184.113 L 331.569 210.535 332.660 211.311 C 336.915 214.341,340.746 214.485,345.084 211.777 L 346.691 210.775 346.691 184.645 C 346.692 155.448,346.864 157.311,344.058 156.149 L 342.911 155.674 342.911 141.542 L 342.911 127.410 368.242 127.410 L 393.573 127.410 393.573 141.416 L 393.573 155.423 392.401 156.067 C 391.757 156.421,390.821 157.021,390.322 157.400 L 389.414 158.089 389.409 182.353 C 389.403 210.131,389.094 217.626,387.725 223.310 C 384.807 235.417,377.270 243.499,366.228 246.362 C 353.526 249.655,322.121 249.741,311.970 246.510 C 309.220 245.634,308.885 245.595,308.885 246.150 C 308.885 249.633,300.079 261.714,293.951 266.637 C 267.798 287.648,206.311 284.778,176.362 261.147 L 174.333 259.546 174.312 254.163 L 174.291 248.780 160.208 248.681 L 146.125 248.582 145.982 246.503 L 145.839 244.423 145.415 246.503 L 144.991 248.582 134.972 248.582 L 124.953 248.582 124.008 244.991 L 123.062 241.399 122.954 245.088 L 122.846 248.777 100.081 248.680 L 77.316 248.582 77.210 234.972 C 77.089 219.371,77.012 220.076,78.965 218.978 C 81.037 217.814,80.907 219.933,80.907 187.150 L 80.907 157.349 79.012 155.987 L 77.117 154.626 77.217 140.546 L 77.316 126.465 104.227 126.368 C 129.621 126.276,131.149 126.308,131.323 126.935 C 131.424 127.300,133.005 133.593,134.836 140.919 L 138.166 154.239 138.980 151.127 C 139.428 149.415,140.517 145.208,141.401 141.777 C 142.284 138.346,143.542 133.497,144.195 131.002 L 145.384 126.465 159.769 126.366 L 174.154 126.267 175.039 123.720 C 183.612 99.022,213.424 86.938,255.009 91.305 M344.423 95.133 C 358.845 96.959,361.118 97.164,365.974 97.077 C 371.178 96.984,376.037 97.755,376.875 98.808 C 377.486 99.576,377.849 121.228,377.254 121.406 C 376.976 121.490,362.798 121.471,345.747 121.365 L 314.745 121.172 314.642 114.716 L 314.538 108.260 310.483 105.596 C 303.820 101.221,301.592 99.826,300.484 99.336 C 298.445 98.433,299.301 98.044,303.875 97.795 C 308.660 97.534,317.533 96.377,322.117 95.418 C 328.382 94.106,335.585 94.014,344.423 95.133 M226.654 98.926 C 209.106 100.395,196.144 106.444,187.492 117.202 C 185.113 120.161,181.096 128.394,181.096 130.312 C 181.096 130.380,184.074 130.435,187.713 130.435 L 194.329 130.435 194.329 141.572 L 194.329 152.709 193.002 153.765 C 190.598 155.678,190.516 156.275,190.633 171.063 L 190.737 184.282 193.573 186.494 C 200.095 191.582,210.559 195.687,227.977 199.990 C 247.777 204.882,251.692 207.200,254.636 215.779 C 259.549 230.098,250.429 243.470,238.861 238.910 C 232.485 236.396,230.889 232.788,230.391 219.754 L 230.127 212.854 210.338 212.854 L 190.548 212.854 190.548 215.382 C 190.548 218.348,191.462 220.587,193.194 221.868 L 194.329 222.707 194.329 233.849 L 194.329 244.991 188.280 244.991 L 182.231 244.991 182.231 250.650 L 182.231 256.310 184.972 258.139 C 200.427 268.454,217.036 272.729,241.777 272.763 C 273.491 272.805,291.847 264.557,300.547 246.356 C 304.671 237.731,305.674 232.150,305.654 217.958 C 305.607 185.497,296.087 175.591,254.442 164.666 C 234.714 159.490,230.123 155.890,230.078 145.558 C 230.038 136.572,234.293 131.801,242.356 131.790 C 250.423 131.778,253.946 136.630,254.670 148.751 L 254.931 153.119 277.749 153.119 L 300.567 153.119 300.567 134.304 L 300.567 115.490 297.448 113.554 C 285.731 106.284,275.026 102.420,259.735 99.940 C 254.010 99.011,233.242 98.375,226.654 98.926 M85.066 142.567 L 85.066 150.919 86.395 152.472 C 88.720 155.188,88.658 154.225,88.658 187.524 C 88.658 221.006,88.707 220.252,86.345 223.012 L 85.066 224.506 85.066 232.858 L 85.066 241.210 100.189 241.210 L 115.312 241.210 115.312 233.089 L 115.312 224.968 113.813 222.988 C 111.592 220.054,111.531 219.419,111.531 199.266 C 111.531 179.617,111.412 180.709,113.547 180.724 C 115.036 180.735,115.328 181.298,116.788 186.988 C 117.584 190.090,118.927 195.265,119.772 198.488 C 122.181 207.670,123.593 213.064,124.821 217.769 C 125.445 220.161,126.269 223.308,126.651 224.764 C 127.034 226.219,128.047 230.132,128.901 233.459 C 131.113 242.068,130.465 241.257,135.026 241.129 L 138.865 241.021 144.600 217.958 C 147.754 205.274,150.638 193.705,151.008 192.250 C 151.379 190.794,151.922 188.582,152.215 187.335 C 153.684 181.096,153.872 180.716,155.504 180.724 C 157.813 180.735,157.701 179.684,157.561 200.033 C 157.421 220.509,157.438 220.343,155.116 223.056 L 153.844 224.543 153.844 232.782 L 153.844 241.021 172.101 241.021 L 190.359 241.021 190.461 232.947 L 190.563 224.872 189.280 223.452 C 186.487 220.360,186.578 221.577,186.578 187.524 L 186.578 157.089 187.430 154.985 C 187.899 153.827,188.792 152.392,189.415 151.795 L 190.548 150.709 190.548 142.462 L 190.548 134.216 170.946 134.216 L 151.343 134.216 150.383 138.091 C 149.856 140.222,148.396 145.964,147.140 150.851 C 145.883 155.737,143.819 163.819,142.553 168.809 C 139.689 180.092,139.900 179.584,138.064 179.584 C 136.399 179.584,136.382 179.545,134.399 171.267 C 133.876 169.083,133.213 166.446,132.925 165.406 C 132.637 164.367,130.832 157.136,128.913 149.338 C 126.995 141.541,125.367 134.948,125.295 134.688 C 125.194 134.318,120.834 134.216,105.116 134.216 L 85.066 134.216 85.066 142.567 M304.637 146.030 L 304.537 156.711 299.108 156.816 C 293.705 156.921,293.680 156.925,293.904 157.761 C 294.028 158.223,294.138 162.684,294.149 167.675 L 294.169 176.749 296.348 178.639 C 307.536 188.347,312.645 209.952,308.864 231.569 C 307.919 236.972,307.899 236.800,309.546 237.597 C 315.788 240.619,321.985 241.336,339.698 241.087 C 366.307 240.713,372.772 238.490,378.008 227.918 C 381.236 221.400,381.204 221.780,381.449 187.146 L 381.664 156.711 382.789 154.678 C 383.408 153.560,384.302 152.392,384.774 152.083 C 385.623 151.526,385.633 151.426,385.633 143.435 L 385.633 135.350 368.053 135.350 L 350.473 135.350 350.473 143.318 L 350.473 151.287 351.668 152.482 C 354.576 155.390,354.430 153.735,354.548 185.116 L 354.654 213.144 353.395 214.795 C 347.089 223.063,334.642 223.769,326.581 216.315 C 323.407 213.380,323.564 215.140,323.717 184.310 C 323.863 154.686,323.801 155.515,326.085 152.845 L 327.410 151.298 327.410 143.324 L 327.410 135.350 316.074 135.350 L 304.738 135.350 304.637 146.030 M240.265 139.488 C 237.577 140.588,236.580 146.365,238.526 149.565 C 239.221 150.707,242.477 152.666,245.386 153.692 L 246.976 154.253 246.807 148.866 C 246.542 140.416,244.644 137.695,240.265 139.488 M71.078 157.848 C 71.078 158.582,71.515 159.066,73.009 159.986 L 74.940 161.174 74.756 187.865 L 74.572 214.556 72.845 215.690 L 71.119 216.824 71.098 234.310 C 71.086 244.343,70.933 251.796,70.739 251.796 C 70.553 251.796,69.837 250.903,69.150 249.811 C 68.462 248.719,67.193 246.890,66.330 245.747 C 61.190 238.938,59.577 235.667,59.059 230.999 C 58.752 228.235,58.325 226.948,55.981 221.739 C 54.481 218.405,53.012 214.502,52.707 213.043 C 51.687 208.162,51.527 207.998,38.324 198.307 C 34.162 195.252,10.695 172.193,9.080 169.572 C 7.357 166.775,5.187 158.366,5.894 157.223 C 6.004 157.045,20.715 156.900,38.586 156.900 L 71.078 156.900 71.078 157.848 M274.109 162.339 C 276.712 163.234,280.434 164.674,282.380 165.537 C 284.326 166.401,285.981 167.108,286.059 167.108 C 286.137 167.108,286.200 165.662,286.200 163.894 L 286.200 160.681 277.788 160.696 L 269.376 160.711 274.109 162.339 M339.911 161.450 C 340.622 161.830,340.643 162.487,340.643 184.694 L 340.643 207.547 339.719 207.779 C 339.211 207.906,338.616 207.900,338.396 207.764 C 337.950 207.488,337.805 161.754,338.248 161.311 C 338.602 160.957,339.063 160.996,339.911 161.450 M194.329 200.567 L 194.329 204.915 205.577 204.895 L 216.824 204.875 213.800 203.978 C 208.702 202.468,203.419 200.447,198.914 198.284 C 196.549 197.148,194.550 196.219,194.471 196.219 C 194.393 196.219,194.329 198.176,194.329 200.567 M238.260 219.187 C 238.489 230.287,239.115 231.758,243.604 231.758 C 248.890 231.758,249.878 218.934,244.970 214.027 C 243.828 212.885,239.490 210.586,238.477 210.586 C 238.210 210.586,238.140 213.357,238.260 219.187 M318.147 254.688 C 322.124 255.403,342.848 255.724,350.083 255.184 C 355.444 254.783,355.366 254.672,352.010 257.949 C 350.480 259.443,348.319 262.046,347.208 263.733 C 344.566 267.745,341.674 269.989,328.733 278.066 C 325.822 279.884,322.845 281.751,322.117 282.216 C 321.389 282.681,319.858 283.658,318.715 284.387 C 306.412 292.232,302.335 295.276,299.688 298.594 C 298.536 300.038,296.858 301.787,295.961 302.480 C 292.859 304.874,292.695 305.137,290.343 311.529 C 288.913 315.415,288.713 316.403,288.235 321.901 C 287.945 325.243,287.454 329.812,287.143 332.055 C 286.077 339.754,286.030 339.490,291.129 354.631 C 296.314 370.030,295.891 372.633,288.133 373.073 C 285.383 373.229,284.204 373.076,278.639 371.841 C 277.287 371.541,273.374 371.192,269.943 371.065 C 261.250 370.742,260.693 370.593,251.610 366.151 C 240.744 360.837,237.802 358.678,226.901 348.018 C 220.164 341.430,220.008 341.192,217.358 333.459 C 215.475 327.964,215.348 327.360,215.313 323.765 C 215.269 319.309,215.410 319.568,210.018 313.989 C 198.276 301.838,195.974 298.759,193.411 291.783 C 191.198 285.760,189.200 282.536,184.870 278.005 C 180.149 273.064,179.389 271.308,182.900 273.450 C 195.534 281.159,213.535 285.921,234.089 286.991 C 272.145 288.973,299.257 278.241,311.209 256.464 C 312.632 253.872,312.836 253.663,313.750 253.861 C 314.297 253.980,316.276 254.352,318.147 254.688 M121.739 255.711 C 121.739 255.889,121.259 256.655,120.672 257.413 C 118.774 259.862,115.690 264.502,115.690 264.910 C 115.690 269.220,110.673 272.078,106.179 270.328 C 100.447 268.096,96.387 265.889,91.682 262.448 C 88.323 259.991,86.208 259.043,82.322 258.252 C 69.526 255.649,71.739 255.242,98.276 255.319 C 111.180 255.357,121.739 255.533,121.739 255.711 M314.556 258.938 C 315.404 259.172,315.513 259.421,315.614 261.358 C 315.764 264.212,316.446 264.143,316.446 261.274 C 316.446 259.249,316.529 259.016,317.297 258.868 C 317.765 258.778,317.127 258.698,315.879 258.690 C 314.403 258.681,313.941 258.768,314.556 258.938 M318.715 261.059 C 318.715 262.612,318.869 263.516,319.136 263.516 C 319.423 263.516,319.473 262.945,319.293 261.720 C 318.993 259.669,319.696 259.897,320.442 262.092 C 321.018 263.789,321.536 263.764,322.114 262.014 C 322.755 260.071,323.251 260.066,323.251 262.004 C 323.251 262.857,323.434 263.516,323.670 263.516 C 323.900 263.516,323.985 263.247,323.859 262.918 C 323.733 262.589,323.629 261.483,323.629 260.461 C 323.629 258.628,323.072 257.969,322.617 259.263 C 322.488 259.627,322.134 260.520,321.828 261.248 L 321.272 262.571 320.346 260.586 C 319.124 257.964,318.715 258.082,318.715 261.059 " stroke="none" fill="#83042a" fill-rule="evenodd"></path><path id="path3" d="M112.800 8.885 C 112.798 10.756,112.862 11.569,112.942 10.692 C 113.021 9.814,113.022 8.283,112.944 7.289 C 112.866 6.295,112.801 7.013,112.800 8.885 M112.433 21.550 C 112.433 24.149,112.493 25.213,112.567 23.913 C 112.641 22.613,112.641 20.487,112.567 19.187 C 112.493 17.888,112.433 18.951,112.433 21.550 M112.049 36.295 C 112.049 38.478,112.112 39.371,112.188 38.280 C 112.264 37.188,112.264 35.402,112.188 34.310 C 112.112 33.218,112.049 34.112,112.049 36.295 M111.663 51.418 C 111.663 53.185,111.728 53.908,111.808 53.025 C 111.888 52.141,111.888 50.695,111.808 49.811 C 111.728 48.927,111.663 49.650,111.663 51.418 M111.285 66.919 C 111.285 68.686,111.350 69.409,111.430 68.526 C 111.510 67.642,111.510 66.196,111.430 65.312 C 111.350 64.428,111.285 65.151,111.285 66.919 M110.916 78.828 C 110.917 81.115,110.980 82.002,111.055 80.799 C 111.130 79.596,111.129 77.724,111.053 76.640 C 110.977 75.556,110.916 76.541,110.916 78.828 M110.531 92.439 C 110.530 94.310,110.594 95.123,110.673 94.246 C 110.753 93.368,110.753 91.837,110.675 90.843 C 110.597 89.849,110.532 90.567,110.531 92.439 M236.389 90.640 C 238.001 90.711,240.638 90.711,242.250 90.640 C 243.861 90.569,242.543 90.511,239.319 90.511 C 236.096 90.511,234.778 90.569,236.389 90.640 M228.265 91.005 C 228.736 91.095,229.416 91.092,229.778 90.997 C 230.139 90.902,229.754 90.828,228.922 90.833 C 228.091 90.837,227.795 90.914,228.265 91.005 M249.059 91.005 C 249.530 91.095,250.210 91.092,250.572 90.997 C 250.933 90.902,250.548 90.828,249.716 90.833 C 248.885 90.837,248.589 90.914,249.059 91.005 M332.994 94.414 C 333.673 94.498,334.694 94.496,335.262 94.410 C 335.830 94.324,335.274 94.255,334.026 94.257 C 332.779 94.259,332.314 94.330,332.994 94.414 M367.391 97.053 C 367.859 97.143,368.625 97.143,369.093 97.053 C 369.560 96.963,369.178 96.889,368.242 96.889 C 367.306 96.889,366.923 96.963,367.391 97.053 M362.098 97.438 C 362.774 97.522,363.880 97.522,364.556 97.438 C 365.232 97.354,364.679 97.285,363.327 97.285 C 361.975 97.285,361.422 97.354,362.098 97.438 M299.439 98.582 C 299.442 99.016,299.541 99.092,299.726 98.802 C 299.880 98.559,300.601 98.289,301.327 98.201 C 302.585 98.049,302.571 98.039,301.040 97.981 C 299.736 97.932,299.434 98.046,299.439 98.582 M235.822 98.580 C 237.746 98.649,240.893 98.649,242.817 98.580 C 244.740 98.512,243.166 98.456,239.319 98.456 C 235.473 98.456,233.899 98.512,235.822 98.580 M250.378 98.937 C 250.742 99.032,251.337 99.032,251.701 98.937 C 252.065 98.842,251.767 98.764,251.040 98.764 C 250.312 98.764,250.014 98.842,250.378 98.937 M377.074 102.457 C 377.074 104.433,377.138 105.241,377.216 104.253 C 377.293 103.266,377.293 101.649,377.216 100.662 C 377.138 99.674,377.074 100.482,377.074 102.457 M180.707 103.875 L 178.261 106.427 180.813 103.981 C 182.216 102.635,183.365 101.487,183.365 101.429 C 183.365 101.150,182.980 101.505,180.707 103.875 M184.866 108.412 L 182.420 110.964 184.972 108.518 C 186.375 107.172,187.524 106.024,187.524 105.966 C 187.524 105.687,187.139 106.042,184.866 108.412 M110.143 108.696 C 110.145 110.151,110.213 110.700,110.295 109.916 C 110.377 109.132,110.375 107.941,110.292 107.269 C 110.208 106.598,110.141 107.240,110.143 108.696 M314.627 114.628 C 314.588 118.099,314.683 121.018,314.839 121.115 C 314.995 121.212,315.078 119.308,315.024 116.884 C 314.848 109.020,314.700 108.181,314.627 114.628 M308.289 119.282 C 308.289 123.648,308.344 125.383,308.411 123.136 C 308.478 120.890,308.478 117.317,308.410 115.197 C 308.343 113.077,308.288 114.915,308.289 119.282 M377.460 115.879 C 377.461 118.374,377.522 119.346,377.596 118.038 C 377.670 116.730,377.669 114.689,377.595 113.501 C 377.520 112.314,377.459 113.384,377.460 115.879 M300.742 134.405 C 300.743 144.802,300.791 149.000,300.850 143.735 C 300.910 138.471,300.910 129.964,300.850 124.832 C 300.791 119.700,300.742 124.008,300.742 134.405 M111.626 120.505 C 112.613 120.583,114.230 120.583,115.217 120.505 C 116.205 120.427,115.397 120.363,113.422 120.363 C 111.446 120.363,110.638 120.427,111.626 120.505 M121.645 120.509 C 124.192 120.575,128.360 120.575,130.907 120.509 C 133.455 120.444,131.371 120.390,126.276 120.390 C 121.181 120.390,119.097 120.444,121.645 120.509 M148.299 120.510 C 152.198 120.571,158.578 120.571,162.476 120.510 C 166.375 120.448,163.185 120.398,155.388 120.398 C 147.590 120.398,144.400 120.448,148.299 120.510 M372.873 121.636 C 373.653 121.718,374.929 121.718,375.709 121.636 C 376.489 121.555,375.851 121.488,374.291 121.488 C 372.732 121.488,372.094 121.555,372.873 121.636 M77.298 140.643 C 77.298 148.440,77.348 151.630,77.410 147.732 C 77.471 143.833,77.471 137.453,77.410 133.554 C 77.348 129.655,77.298 132.845,77.298 140.643 M393.284 141.229 C 393.229 149.839,393.050 155.412,392.818 155.691 C 392.611 155.942,392.698 155.925,393.012 155.654 C 393.505 155.229,393.568 153.265,393.478 141.192 L 393.374 127.221 393.284 141.229 M194.118 141.588 C 194.118 147.826,194.170 150.431,194.233 147.377 C 194.297 144.323,194.297 139.219,194.234 136.035 C 194.170 132.851,194.119 135.350,194.118 141.588 M241.493 131.836 C 241.961 131.926,242.727 131.926,243.195 131.836 C 243.663 131.746,243.280 131.672,242.344 131.672 C 241.408 131.672,241.026 131.746,241.493 131.836 M84.857 134.319 C 84.756 134.584,84.722 138.455,84.783 142.921 L 84.893 151.040 84.980 142.631 L 85.066 134.222 105.009 134.121 L 124.953 134.020 104.998 133.929 C 89.109 133.856,85.005 133.936,84.857 134.319 M161.153 134.121 C 166.508 134.180,175.269 134.180,180.624 134.121 C 185.978 134.062,181.597 134.013,170.888 134.013 C 160.180 134.013,155.799 134.062,161.153 134.121 M304.529 135.444 C 304.230 136.265,304.145 156.837,304.442 156.653 C 304.598 156.556,304.726 151.726,304.726 145.919 L 304.726 135.361 316.163 135.255 L 327.599 135.149 316.151 135.060 C 307.271 134.992,304.663 135.078,304.529 135.444 M368.045 135.253 L 385.618 135.357 385.732 143.293 L 385.845 151.229 385.834 143.195 L 385.822 135.161 368.147 135.155 L 350.472 135.149 368.045 135.253 M254.569 150.473 C 254.569 152.032,254.636 152.670,254.718 151.890 C 254.799 151.111,254.799 149.835,254.718 149.055 C 254.636 148.275,254.569 148.913,254.569 150.473 M247.011 151.418 C 247.012 153.081,247.078 153.715,247.158 152.826 C 247.238 151.936,247.237 150.575,247.156 149.801 C 247.074 149.027,247.009 149.754,247.011 151.418 M189.201 152.079 L 188.091 153.308 189.319 152.198 C 190.465 151.163,190.722 150.851,190.430 150.851 C 190.365 150.851,189.812 151.404,189.201 152.079 M293.926 167.297 C 293.925 172.495,293.979 174.674,294.044 172.139 C 294.109 169.604,294.110 165.351,294.044 162.687 C 293.979 160.024,293.926 162.098,293.926 167.297 M381.653 183.554 C 381.653 197.694,381.700 203.423,381.758 196.286 C 381.815 189.149,381.815 177.580,381.758 170.577 C 381.700 163.575,381.653 169.414,381.653 183.554 M354.370 160.491 C 354.373 161.739,354.443 162.204,354.527 161.524 C 354.611 160.845,354.610 159.824,354.523 159.256 C 354.437 158.688,354.368 159.244,354.370 160.491 M389.215 183.743 C 389.215 197.779,389.262 203.521,389.319 196.503 C 389.377 189.485,389.377 178.001,389.319 170.983 C 389.262 163.965,389.215 169.707,389.215 183.743 M81.087 187.335 C 81.087 203.138,81.134 209.548,81.191 201.579 C 81.248 193.610,81.248 180.680,81.191 172.845 C 81.134 165.011,81.087 171.531,81.087 187.335 M88.649 187.713 C 88.649 203.516,88.695 209.926,88.752 201.957 C 88.809 193.988,88.809 181.058,88.752 173.223 C 88.695 165.389,88.649 171.909,88.649 187.713 M323.809 185.822 C 323.809 200.586,323.855 206.681,323.913 199.366 C 323.970 192.052,323.970 179.972,323.913 172.523 C 323.856 165.074,323.809 171.059,323.809 185.822 M346.871 184.877 C 346.871 199.121,346.918 204.948,346.975 197.826 C 347.033 190.704,347.033 179.050,346.975 171.928 C 346.918 164.806,346.871 170.633,346.871 184.877 M186.569 187.713 C 186.569 203.308,186.616 209.743,186.673 202.013 C 186.730 194.282,186.730 181.523,186.673 173.657 C 186.616 165.792,186.569 172.117,186.569 187.713 M331.286 160.870 C 331.290 161.701,331.368 161.997,331.458 161.527 C 331.549 161.056,331.545 160.376,331.451 160.014 C 331.356 159.653,331.282 160.038,331.286 160.870 M269.187 160.579 C 269.187 160.739,273.027 160.821,277.721 160.761 L 286.255 160.653 286.133 164.070 C 286.066 165.950,286.145 167.487,286.309 167.487 C 286.473 167.486,286.558 165.912,286.498 163.989 L 286.389 160.491 277.788 160.390 C 273.058 160.334,269.187 160.419,269.187 160.579 M74.462 162.297 C 74.646 163.855,74.654 163.863,74.782 162.617 C 74.854 161.915,74.769 161.196,74.593 161.020 C 74.417 160.844,74.358 161.419,74.462 162.297 M331.369 186.389 C 331.369 199.594,331.416 204.995,331.474 198.393 C 331.532 191.791,331.532 180.988,331.474 174.386 C 331.416 167.784,331.369 173.185,331.369 186.389 M74.654 180.718 C 74.654 189.972,74.703 193.757,74.763 189.130 C 74.823 184.504,74.823 176.933,74.763 172.306 C 74.703 167.680,74.654 171.465,74.654 180.718 M10.964 172.212 C 11.669 172.940,12.332 173.535,12.436 173.535 C 12.540 173.535,12.048 172.940,11.342 172.212 C 10.637 171.484,9.975 170.888,9.871 170.888 C 9.767 170.888,10.259 171.484,10.964 172.212 M15.879 176.664 C 15.879 176.721,17.198 178.039,18.809 179.594 L 21.739 182.420 18.913 179.490 C 16.288 176.768,15.879 176.387,15.879 176.664 M112.760 180.979 C 113.124 181.074,113.719 181.074,114.083 180.979 C 114.447 180.884,114.149 180.806,113.422 180.806 C 112.694 180.806,112.396 180.884,112.760 180.979 M154.919 180.986 C 155.390 181.076,156.070 181.073,156.432 180.978 C 156.793 180.883,156.408 180.809,155.577 180.814 C 154.745 180.818,154.449 180.895,154.919 180.986 M157.453 199.244 C 157.453 209.329,157.502 213.455,157.561 208.412 C 157.621 203.370,157.621 195.118,157.561 190.076 C 157.502 185.033,157.453 189.159,157.453 199.244 M295.463 182.987 C 296.487 184.026,297.410 184.877,297.514 184.877 C 297.618 184.877,296.865 184.026,295.841 182.987 C 294.817 181.947,293.894 181.096,293.790 181.096 C 293.686 181.096,294.439 181.947,295.463 182.987 M30.057 191.304 C 31.291 192.552,32.387 193.573,32.491 193.573 C 32.594 193.573,31.669 192.552,30.435 191.304 C 29.200 190.057,28.105 189.036,28.001 189.036 C 27.897 189.036,28.822 190.057,30.057 191.304 M249.527 208.058 C 249.527 208.123,250.080 208.676,250.756 209.287 L 251.985 210.397 250.874 209.168 C 249.839 208.023,249.527 207.766,249.527 208.058 M306.015 217.580 C 306.014 221.115,306.071 222.612,306.141 220.907 C 306.211 219.202,306.211 216.309,306.142 214.480 C 306.072 212.650,306.015 214.045,306.015 217.580 M210.291 212.758 L 230.223 212.861 230.346 217.300 L 230.470 221.739 230.452 217.202 L 230.435 212.665 210.397 212.660 L 190.359 212.655 210.291 212.758 M309.789 217.391 C 309.789 220.198,309.848 221.347,309.921 219.943 C 309.994 218.540,309.994 216.243,309.921 214.839 C 309.848 213.436,309.789 214.584,309.789 217.391 M351.965 216.163 L 350.662 217.580 352.079 216.277 C 353.399 215.065,353.671 214.745,353.382 214.745 C 353.319 214.745,352.681 215.383,351.965 216.163 M70.868 229.112 C 70.868 235.870,70.920 238.634,70.982 235.255 C 71.045 231.876,71.045 226.347,70.982 222.968 C 70.920 219.589,70.868 222.353,70.868 229.112 M77.309 234.405 L 77.316 248.582 100.095 248.587 L 122.873 248.591 100.194 248.489 L 77.514 248.387 77.408 234.307 L 77.302 220.227 77.309 234.405 M248.136 223.819 C 248.136 225.170,248.205 225.723,248.289 225.047 C 248.372 224.371,248.372 223.266,248.289 222.590 C 248.205 221.914,248.136 222.467,248.136 223.819 M255.672 223.251 C 255.676 224.083,255.754 224.379,255.844 223.909 C 255.934 223.438,255.931 222.758,255.836 222.396 C 255.742 222.035,255.668 222.420,255.672 223.251 M188.280 222.425 C 188.280 222.490,188.833 223.043,189.509 223.653 L 190.737 224.764 189.627 223.535 C 188.592 222.390,188.280 222.132,188.280 222.425 M194.118 233.837 C 194.118 240.076,194.170 242.681,194.233 239.626 C 194.297 236.572,194.297 231.468,194.234 228.284 C 194.170 225.100,194.119 227.599,194.118 233.837 M84.866 233.081 L 84.877 241.399 100.000 241.405 L 115.123 241.412 100.102 241.306 L 85.081 241.201 84.968 232.982 L 84.855 224.764 84.866 233.081 M153.657 232.703 C 153.658 237.070,153.713 238.805,153.779 236.558 C 153.846 234.311,153.846 230.738,153.779 228.618 C 153.712 226.498,153.657 228.336,153.657 232.703 M59.067 231.002 C 59.067 231.730,59.145 232.027,59.240 231.664 C 59.335 231.300,59.335 230.704,59.240 230.340 C 59.145 229.976,59.067 230.274,59.067 231.002 M242.817 232.019 C 243.181 232.114,243.776 232.114,244.140 232.019 C 244.504 231.924,244.206 231.846,243.478 231.846 C 242.750 231.846,242.453 231.924,242.817 232.019 M233.270 234.901 C 233.270 234.966,233.823 235.519,234.499 236.130 L 235.728 237.240 234.617 236.011 C 233.582 234.866,233.270 234.609,233.270 234.901 M378.627 239.414 L 376.371 241.777 378.733 239.520 C 380.033 238.279,381.096 237.216,381.096 237.157 C 381.096 236.878,380.723 237.219,378.627 239.414 M130.435 240.306 C 130.435 241.436,138.229 242.357,138.884 241.304 C 138.981 241.148,137.339 241.075,135.235 241.142 C 131.930 241.247,131.343 241.173,130.922 240.597 C 130.654 240.231,130.435 240.100,130.435 240.306 M153.745 241.304 C 153.841 241.460,162.066 241.588,172.023 241.588 C 181.979 241.588,190.204 241.460,190.301 241.304 C 190.397 241.148,182.172 241.021,172.023 241.021 C 161.873 241.021,153.648 241.148,153.745 241.304 M322.212 241.092 C 322.576 241.187,323.171 241.187,323.535 241.092 C 323.899 240.997,323.601 240.919,322.873 240.919 C 322.146 240.919,321.848 240.997,322.212 241.092 M350.378 241.099 C 350.846 241.189,351.612 241.189,352.079 241.099 C 352.547 241.008,352.164 240.935,351.229 240.935 C 350.293 240.935,349.910 241.008,350.378 241.099 M330.931 241.493 C 334.010 241.556,338.944 241.556,341.895 241.492 C 344.845 241.429,342.325 241.377,336.295 241.377 C 330.265 241.377,327.851 241.429,330.931 241.493 M145.831 245.841 C 145.920 246.933,146.060 248.039,146.141 248.299 C 146.257 248.666,149.419 248.771,160.280 248.771 L 174.269 248.771 174.392 253.687 L 174.514 258.602 174.497 253.592 L 174.480 248.582 160.397 248.483 L 146.314 248.384 146.314 246.120 C 146.314 244.875,146.169 243.856,145.991 243.856 C 145.814 243.856,145.742 244.750,145.831 245.841 M182.005 250.662 C 182.005 253.885,182.063 255.203,182.134 253.592 C 182.204 251.980,182.204 249.343,182.134 247.732 C 182.063 246.120,182.005 247.439,182.005 250.662 M144.802 247.964 C 144.802 248.308,142.384 248.391,134.818 248.311 C 129.328 248.252,124.914 248.332,125.011 248.488 C 125.298 248.951,144.718 248.835,145.006 248.368 C 145.143 248.146,145.153 247.863,145.028 247.738 C 144.904 247.613,144.802 247.715,144.802 247.964 M323.724 248.664 C 324.296 248.751,325.232 248.751,325.803 248.664 C 326.375 248.577,325.907 248.506,324.764 248.506 C 323.620 248.506,323.152 248.577,323.724 248.664 M346.786 248.669 C 347.566 248.750,348.842 248.750,349.622 248.669 C 350.402 248.587,349.764 248.520,348.204 248.520 C 346.645 248.520,346.007 248.587,346.786 248.669 M353.263 255.096 L 354.352 255.258 352.696 257.024 L 351.040 258.790 352.836 257.105 C 354.959 255.112,355.038 254.802,353.403 254.877 C 352.190 254.933,352.188 254.936,353.263 255.096 M79.512 255.481 C 82.175 255.546,86.428 255.546,88.963 255.481 C 91.499 255.415,89.319 255.362,84.121 255.362 C 78.922 255.363,76.848 255.416,79.512 255.481 M115.974 255.477 C 117.065 255.554,118.852 255.554,119.943 255.477 C 121.035 255.401,120.142 255.338,117.958 255.338 C 115.775 255.338,114.882 255.401,115.974 255.477 M347.164 255.469 C 347.736 255.556,348.672 255.556,349.244 255.469 C 349.816 255.383,349.348 255.312,348.204 255.312 C 347.060 255.312,346.593 255.383,347.164 255.469 M318.388 260.942 C 318.360 262.333,318.464 263.551,318.620 263.647 C 318.776 263.744,318.854 262.946,318.794 261.874 C 318.614 258.651,318.443 258.258,318.388 260.942 M323.747 260.681 C 323.749 261.928,323.819 262.393,323.903 261.713 C 323.988 261.034,323.986 260.013,323.900 259.445 C 323.813 258.877,323.745 259.433,323.747 260.681 M315.356 261.320 C 315.332 262.503,315.440 263.550,315.595 263.647 C 315.751 263.743,315.828 263.030,315.766 262.062 C 315.589 259.301,315.404 258.966,315.356 261.320 M319.975 260.491 C 319.975 261.380,320.060 261.532,320.309 261.088 C 320.502 260.743,320.502 260.240,320.309 259.895 C 320.060 259.451,319.975 259.603,319.975 260.491 M322.809 262.006 C 322.888 262.839,323.063 263.589,323.197 263.671 C 323.331 263.754,323.381 263.073,323.308 262.157 C 323.235 261.241,323.060 260.491,322.920 260.491 C 322.779 260.491,322.729 261.173,322.809 262.006 M303.763 266.635 L 302.268 268.242 303.875 266.747 C 305.370 265.358,305.656 265.028,305.370 265.028 C 305.308 265.028,304.585 265.751,303.763 266.635 M300.732 269.660 L 299.622 270.888 300.851 269.778 C 301.526 269.167,302.079 268.614,302.079 268.549 C 302.079 268.257,301.767 268.514,300.732 269.660 M231.096 272.850 C 231.460 272.946,232.056 272.946,232.420 272.850 C 232.784 272.755,232.486 272.678,231.758 272.678 C 231.030 272.678,230.733 272.755,231.096 272.850 M240.926 273.243 C 241.706 273.325,242.982 273.325,243.762 273.243 C 244.542 273.162,243.904 273.095,242.344 273.095 C 240.784 273.095,240.147 273.162,240.926 273.243 M224.669 279.656 C 225.033 279.751,225.629 279.751,225.992 279.656 C 226.356 279.561,226.059 279.483,225.331 279.483 C 224.603 279.483,224.305 279.561,224.669 279.656 M228.450 280.034 C 228.814 280.129,229.409 280.129,229.773 280.034 C 230.137 279.939,229.839 279.861,229.112 279.861 C 228.384 279.861,228.086 279.939,228.450 280.034 M234.877 280.422 C 235.449 280.509,236.385 280.509,236.957 280.422 C 237.528 280.335,237.060 280.265,235.917 280.265 C 234.773 280.265,234.305 280.335,234.877 280.422 M247.353 280.422 C 247.925 280.509,248.861 280.509,249.433 280.422 C 250.005 280.335,249.537 280.265,248.393 280.265 C 247.250 280.265,246.782 280.335,247.353 280.422 M233.167 287.229 C 233.839 287.313,235.029 287.314,235.814 287.232 C 236.598 287.151,236.049 287.082,234.594 287.081 C 233.138 287.079,232.496 287.146,233.167 287.229 M248.677 287.230 C 249.353 287.314,250.458 287.314,251.134 287.230 C 251.810 287.146,251.257 287.078,249.905 287.078 C 248.554 287.078,248.001 287.146,248.677 287.230 M297.336 301.040 L 295.841 302.647 297.448 301.152 C 298.942 299.762,299.229 299.433,298.943 299.433 C 298.881 299.433,298.158 300.156,297.336 301.040 M203.403 307.113 C 203.403 307.178,203.956 307.731,204.631 308.341 L 205.860 309.452 204.750 308.223 C 203.715 307.078,203.403 306.821,203.403 307.113 M287.800 324.764 C 287.800 325.491,287.878 325.789,287.973 325.425 C 288.068 325.061,288.068 324.466,287.973 324.102 C 287.878 323.738,287.800 324.036,287.800 324.764 M222.873 344.045 C 224.108 345.293,225.203 346.314,225.307 346.314 C 225.411 346.314,224.486 345.293,223.251 344.045 C 222.017 342.798,220.922 341.777,220.818 341.777 C 220.714 341.777,221.639 342.798,222.873 344.045 M227.977 349.149 C 229.317 350.501,230.498 351.607,230.602 351.607 C 230.706 351.607,229.695 350.501,228.355 349.149 C 227.016 347.798,225.835 346.692,225.731 346.692 C 225.627 346.692,226.638 347.798,227.977 349.149 M263.233 370.771 C 263.596 370.866,264.192 370.866,264.556 370.771 C 264.920 370.676,264.622 370.598,263.894 370.598 C 263.166 370.598,262.869 370.676,263.233 370.771 M272.306 371.159 C 272.878 371.246,273.814 371.246,274.386 371.159 C 274.957 371.073,274.490 371.002,273.346 371.002 C 272.202 371.002,271.734 371.073,272.306 371.159 M284.598 373.046 C 285.068 373.137,285.749 373.133,286.110 373.039 C 286.472 372.944,286.087 372.870,285.255 372.874 C 284.423 372.878,284.128 372.956,284.598 373.046 M288.001 373.046 C 288.471 373.137,289.151 373.133,289.513 373.039 C 289.874 372.944,289.490 372.870,288.658 372.874 C 287.826 372.878,287.530 372.956,288.001 373.046 " stroke="none" fill="#ad5e6f" fill-rule="evenodd"></path><path id="path4" d="M158.505 5.576 L 204.155 5.674 204.254 39.037 L 204.354 72.401 204.351 38.941 L 204.348 5.482 158.601 5.480 L 112.854 5.477 158.505 5.576 M112.807 16.068 C 112.808 18.355,112.870 19.242,112.945 18.039 C 113.020 16.836,113.020 14.964,112.944 13.880 C 112.868 12.796,112.806 13.781,112.807 16.068 M112.435 31.002 C 112.435 33.809,112.495 34.957,112.568 33.554 C 112.640 32.150,112.640 29.853,112.568 28.450 C 112.495 27.046,112.435 28.195,112.435 31.002 M112.046 43.478 C 112.046 45.454,112.109 46.262,112.187 45.274 C 112.265 44.286,112.265 42.670,112.187 41.682 C 112.109 40.695,112.046 41.503,112.046 43.478 M111.663 57.467 C 111.663 59.234,111.728 59.957,111.808 59.074 C 111.888 58.190,111.888 56.744,111.808 55.860 C 111.728 54.976,111.663 55.699,111.663 57.467 M111.295 73.913 C 111.295 76.200,111.358 77.087,111.433 75.884 C 111.508 74.681,111.507 72.809,111.431 71.725 C 111.355 70.641,111.294 71.626,111.295 73.913 M216.635 79.584 C 217.155 79.881,217.750 80.124,217.958 80.124 C 218.166 80.124,217.911 79.881,217.391 79.584 C 216.871 79.287,216.276 79.044,216.068 79.044 C 215.860 79.044,216.115 79.287,216.635 79.584 M110.925 88.091 C 110.925 91.106,110.984 92.339,111.056 90.832 C 111.128 89.324,111.128 86.857,111.056 85.350 C 110.984 83.842,110.925 85.076,110.925 88.091 M228.150 84.283 C 228.269 84.476,227.981 84.708,227.510 84.799 C 226.974 84.902,227.183 84.982,228.072 85.015 C 229.512 85.067,229.981 84.579,228.892 84.161 C 228.067 83.845,227.896 83.873,228.150 84.283 M216.352 86.083 C 216.716 86.178,217.311 86.178,217.675 86.083 C 218.039 85.988,217.741 85.910,217.013 85.910 C 216.285 85.910,215.988 85.988,216.352 86.083 M232.244 91.017 C 233.448 91.092,235.319 91.092,236.403 91.015 C 237.487 90.939,236.503 90.878,234.216 90.879 C 231.928 90.880,231.041 90.942,232.244 91.017 M242.452 91.017 C 243.656 91.092,245.527 91.092,246.611 91.015 C 247.695 90.939,246.711 90.878,244.423 90.879 C 242.136 90.880,241.249 90.942,242.452 91.017 M225.803 91.376 C 226.167 91.471,226.763 91.471,227.127 91.376 C 227.491 91.281,227.193 91.203,226.465 91.203 C 225.737 91.203,225.440 91.281,225.803 91.376 M251.328 91.383 C 251.798 91.473,252.478 91.470,252.840 91.375 C 253.201 91.280,252.817 91.206,251.985 91.211 C 251.153 91.215,250.857 91.292,251.328 91.383 M327.883 94.779 C 328.247 94.874,328.842 94.874,329.206 94.779 C 329.570 94.683,329.272 94.606,328.544 94.606 C 327.817 94.606,327.519 94.683,327.883 94.779 M338.091 94.779 C 338.455 94.874,339.050 94.874,339.414 94.779 C 339.778 94.683,339.480 94.606,338.752 94.606 C 338.025 94.606,337.727 94.683,338.091 94.779 M344.140 95.535 C 344.504 95.630,345.099 95.630,345.463 95.535 C 345.827 95.440,345.529 95.362,344.802 95.362 C 344.074 95.362,343.776 95.440,344.140 95.535 M110.544 100.378 C 110.545 103.081,110.605 104.138,110.678 102.725 C 110.751 101.313,110.750 99.101,110.676 97.810 C 110.603 96.519,110.543 97.675,110.544 100.378 M355.860 97.047 C 356.224 97.142,356.819 97.142,357.183 97.047 C 357.547 96.952,357.250 96.874,356.522 96.874 C 355.794 96.874,355.496 96.952,355.860 97.047 M359.263 97.425 C 359.627 97.520,360.222 97.520,360.586 97.425 C 360.950 97.330,360.652 97.252,359.924 97.252 C 359.197 97.252,358.899 97.330,359.263 97.425 M367.023 97.442 C 367.912 97.522,369.274 97.521,370.048 97.439 C 370.822 97.358,370.095 97.293,368.431 97.294 C 366.767 97.295,366.134 97.362,367.023 97.442 M237.146 98.200 C 238.341 98.275,240.298 98.275,241.493 98.200 C 242.689 98.125,241.711 98.064,239.319 98.064 C 236.928 98.064,235.950 98.125,237.146 98.200 M303.124 98.188 C 303.594 98.278,304.274 98.275,304.636 98.180 C 304.997 98.086,304.612 98.012,303.781 98.016 C 302.949 98.020,302.653 98.098,303.124 98.188 M228.631 98.572 C 229.302 98.655,230.493 98.656,231.277 98.575 C 232.061 98.493,231.512 98.424,230.057 98.423 C 228.601 98.421,227.959 98.488,228.631 98.572 M247.164 98.572 C 247.840 98.656,248.946 98.656,249.622 98.572 C 250.298 98.488,249.745 98.420,248.393 98.420 C 247.042 98.420,246.489 98.488,247.164 98.572 M293.006 102.249 C 293.006 102.353,293.516 102.702,294.140 103.025 C 294.764 103.347,295.274 103.526,295.274 103.422 C 295.274 103.318,294.764 102.969,294.140 102.647 C 293.516 102.324,293.006 102.145,293.006 102.249 M187.125 106.522 L 185.822 107.940 187.240 106.637 C 188.020 105.920,188.658 105.282,188.658 105.219 C 188.658 104.930,188.338 105.202,187.125 106.522 M377.083 110.397 C 377.083 112.996,377.144 114.060,377.218 112.760 C 377.291 111.460,377.291 109.334,377.218 108.034 C 377.144 106.734,377.083 107.798,377.083 110.397 M286.578 107.561 C 287.098 107.859,287.694 108.102,287.902 108.102 C 288.110 108.102,287.854 107.859,287.335 107.561 C 286.815 107.264,286.219 107.021,286.011 107.021 C 285.803 107.021,286.059 107.264,286.578 107.561 M194.486 109.857 L 193.006 111.208 194.612 109.983 C 196.081 108.864,196.439 108.507,196.093 108.507 C 196.024 108.507,195.301 109.114,194.486 109.857 M182.966 110.681 L 181.664 112.098 183.081 110.795 C 183.861 110.079,184.499 109.441,184.499 109.378 C 184.499 109.089,184.179 109.361,182.966 110.681 M110.159 114.934 C 110.159 117.117,110.221 118.010,110.298 116.919 C 110.374 115.827,110.374 114.041,110.298 112.949 C 110.221 111.857,110.159 112.750,110.159 114.934 M189.967 113.894 L 188.091 115.879 190.076 114.003 C 191.167 112.971,192.060 112.078,192.060 112.018 C 192.060 111.736,191.710 112.050,189.967 113.894 M180.340 113.800 C 179.896 114.423,179.618 114.934,179.722 114.934 C 179.826 114.934,180.274 114.423,180.718 113.800 C 181.163 113.176,181.441 112.665,181.337 112.665 C 181.233 112.665,180.784 113.176,180.340 113.800 M377.316 120.542 C 377.316 120.838,376.232 121.008,374.008 121.060 L 370.699 121.137 373.878 121.265 C 376.816 121.384,378.248 121.033,377.574 120.359 C 377.432 120.217,377.316 120.299,377.316 120.542 M159.924 126.276 L 145.369 126.479 159.808 126.566 C 169.122 126.623,174.329 126.520,174.480 126.276 C 174.609 126.068,174.661 125.937,174.597 125.986 C 174.533 126.034,167.930 126.165,159.924 126.276 M103.949 126.558 C 124.653 126.637,130.657 126.764,130.915 127.129 C 131.160 127.475,131.208 127.449,131.094 127.032 C 130.958 126.535,127.637 126.465,104.127 126.461 L 77.316 126.457 103.949 126.558 M308.455 127.510 C 308.613 127.668,314.687 127.753,321.952 127.698 L 335.161 127.599 321.663 127.410 C 314.240 127.306,308.296 127.351,308.455 127.510 M342.911 141.377 C 342.911 149.058,343.039 155.422,343.195 155.518 C 343.351 155.615,343.432 149.415,343.375 141.741 L 343.271 127.788 368.044 127.788 L 392.817 127.788 392.817 141.512 C 392.817 151.957,392.704 155.363,392.344 155.766 C 391.942 156.217,391.970 156.222,392.533 155.796 C 393.142 155.335,393.195 154.188,393.195 141.353 L 393.195 127.410 368.053 127.410 L 342.911 127.410 342.911 141.377 M144.639 129.517 C 144.500 130.071,144.460 130.597,144.549 130.686 C 144.638 130.775,144.824 130.395,144.964 129.841 C 145.103 129.287,145.143 128.760,145.054 128.671 C 144.965 128.582,144.779 128.963,144.639 129.517 M334.764 141.399 C 334.764 148.573,334.814 151.508,334.877 147.921 C 334.939 144.334,334.939 138.464,334.877 134.877 C 334.814 131.290,334.764 134.225,334.764 141.399 M180.815 130.057 C 180.945 130.532,182.030 130.626,187.555 130.638 L 194.140 130.653 187.729 130.534 C 183.219 130.451,181.221 130.278,180.990 129.953 C 180.752 129.618,180.704 129.647,180.815 130.057 M233.436 135.444 L 232.325 136.673 233.554 135.563 C 234.230 134.952,234.783 134.399,234.783 134.334 C 234.783 134.042,234.471 134.299,233.436 135.444 M327.497 143.076 C 327.414 151.039,327.377 151.408,326.570 152.339 L 325.730 153.308 326.767 152.347 L 327.803 151.385 327.694 143.084 L 327.584 134.783 327.497 143.076 M350.197 143.100 L 350.126 151.418 351.622 153.073 C 352.446 153.984,353.119 154.622,353.119 154.492 C 353.119 154.362,352.527 153.600,351.803 152.799 L 350.488 151.343 350.378 143.063 L 350.268 134.783 350.197 143.100 M125.951 136.862 C 125.951 137.174,126.097 137.769,126.276 138.185 C 126.481 138.662,126.601 138.732,126.601 138.374 C 126.601 138.062,126.455 137.467,126.276 137.051 C 126.071 136.574,125.951 136.505,125.951 136.862 M231.569 137.996 C 231.246 138.620,231.068 139.130,231.172 139.130 C 231.275 139.130,231.624 138.620,231.947 137.996 C 232.270 137.372,232.449 136.862,232.345 136.862 C 232.241 136.862,231.892 137.372,231.569 137.996 M149.554 139.346 C 149.415 139.901,149.374 140.427,149.464 140.516 C 149.553 140.605,149.739 140.225,149.878 139.671 C 150.018 139.116,150.058 138.590,149.969 138.501 C 149.880 138.412,149.693 138.792,149.554 139.346 M241.493 139.019 C 241.961 139.109,242.727 139.109,243.195 139.019 C 243.663 138.929,243.280 138.855,242.344 138.855 C 241.408 138.855,241.026 138.929,241.493 139.019 M127.463 142.911 C 127.463 143.223,127.610 143.819,127.788 144.234 C 127.993 144.711,128.113 144.781,128.113 144.423 C 128.113 144.112,127.967 143.516,127.788 143.100 C 127.583 142.624,127.463 142.554,127.463 142.911 M229.985 145.369 C 229.987 146.616,230.058 147.081,230.142 146.402 C 230.226 145.722,230.224 144.701,230.138 144.133 C 230.052 143.565,229.983 144.121,229.985 145.369 M148.042 145.396 C 147.903 145.950,147.862 146.476,147.951 146.565 C 148.040 146.654,148.227 146.274,148.366 145.720 C 148.505 145.166,148.546 144.639,148.457 144.550 C 148.368 144.461,148.181 144.842,148.042 145.396 M246.989 146.881 C 246.992 147.921,247.065 148.301,247.152 147.726 C 247.239 147.152,247.237 146.301,247.147 145.836 C 247.057 145.371,246.986 145.841,246.989 146.881 M140.103 147.286 C 139.964 147.840,139.923 148.366,140.012 148.455 C 140.101 148.545,140.288 148.164,140.427 147.610 C 140.566 147.056,140.607 146.530,140.517 146.441 C 140.428 146.351,140.242 146.732,140.103 147.286 M128.976 148.960 C 128.976 149.272,129.122 149.868,129.301 150.284 C 129.505 150.760,129.625 150.830,129.625 150.473 C 129.625 150.161,129.479 149.565,129.301 149.149 C 129.096 148.673,128.976 148.603,128.976 148.960 M237.807 149.205 C 237.807 149.408,238.360 150.075,239.036 150.685 L 240.265 151.796 239.130 150.474 C 238.507 149.748,237.954 149.081,237.902 148.994 C 237.850 148.906,237.807 149.001,237.807 149.205 M384.479 152.647 L 383.176 154.064 384.594 152.761 C 385.913 151.549,386.185 151.229,385.896 151.229 C 385.833 151.229,385.195 151.867,384.479 152.647 M266.095 153.402 C 272.608 153.461,283.157 153.460,289.536 153.402 C 295.915 153.344,290.586 153.297,277.694 153.297 C 264.802 153.297,259.582 153.344,266.095 153.402 M137.734 153.990 C 137.835 154.932,138.531 154.989,138.649 154.064 L 138.746 153.308 138.422 154.064 L 138.098 154.820 137.880 154.064 C 137.718 153.503,137.680 153.484,137.734 153.990 M324.752 155.030 C 324.524 155.458,324.393 155.976,324.461 156.181 C 324.530 156.386,324.781 156.037,325.020 155.404 C 325.517 154.088,325.368 153.880,324.752 155.030 M130.488 155.009 C 130.488 155.321,130.634 155.917,130.813 156.333 C 131.018 156.809,131.138 156.879,131.138 156.522 C 131.138 156.210,130.992 155.614,130.813 155.198 C 130.608 154.722,130.488 154.652,130.488 155.009 M145.018 157.116 C 144.878 157.670,144.838 158.196,144.927 158.285 C 145.016 158.374,145.203 157.994,145.342 157.440 C 145.481 156.886,145.522 156.360,145.432 156.270 C 145.343 156.181,145.157 156.562,145.018 157.116 M293.383 156.805 C 293.382 156.961,295.041 157.044,297.069 156.989 C 303.637 156.810,304.280 156.660,298.771 156.590 C 295.808 156.552,293.383 156.649,293.383 156.805 M37.960 157.183 C 62.863 157.260,70.195 157.388,70.663 157.753 C 71.197 158.169,71.207 158.147,70.748 157.561 C 70.260 156.939,68.310 156.905,38.044 156.992 L 5.860 157.085 37.960 157.183 M331.336 157.823 C 331.221 158.123,331.194 158.676,331.275 159.052 C 331.368 159.479,331.497 159.274,331.620 158.507 C 331.826 157.219,331.692 156.896,331.336 157.823 M353.971 158.601 C 353.975 159.433,354.052 159.729,354.143 159.258 C 354.233 158.788,354.230 158.108,354.135 157.746 C 354.040 157.385,353.966 157.769,353.971 158.601 M186.948 187.713 C 186.948 204.348,186.994 211.098,187.051 202.713 C 187.108 194.328,187.108 180.717,187.051 172.467 C 186.994 164.217,186.948 171.078,186.948 187.713 M190.341 170.888 C 190.341 178.270,190.391 181.290,190.453 177.599 C 190.515 173.908,190.515 167.869,190.453 164.178 C 190.391 160.487,190.341 163.507,190.341 170.888 M132.011 161.059 C 132.031 162.041,132.626 163.654,132.639 162.760 C 132.645 162.344,132.504 161.664,132.325 161.248 C 132.126 160.784,132.005 160.711,132.011 161.059 M6.491 162.004 C 6.485 162.420,6.627 163.100,6.805 163.516 C 7.219 164.479,7.219 163.486,6.805 162.193 C 6.562 161.433,6.500 161.396,6.491 162.004 M354.432 187.524 C 354.432 201.352,354.479 207.009,354.537 200.095 C 354.594 193.181,354.594 181.867,354.537 174.953 C 354.479 168.039,354.432 173.696,354.432 187.524 M133.513 167.108 C 133.513 167.420,133.659 168.015,133.837 168.431 C 134.042 168.908,134.162 168.977,134.162 168.620 C 134.162 168.308,134.016 167.713,133.837 167.297 C 133.633 166.820,133.513 166.750,133.513 167.108 M12.476 173.275 C 12.476 173.340,13.029 173.893,13.705 174.504 L 14.934 175.614 13.823 174.386 C 12.788 173.240,12.476 172.983,12.476 173.275 M135.414 174.480 C 135.408 174.896,135.549 175.577,135.728 175.992 C 136.142 176.956,136.142 175.962,135.728 174.669 C 135.484 173.909,135.423 173.872,135.414 174.480 M297.732 180.340 C 298.756 181.380,299.679 182.231,299.783 182.231 C 299.887 182.231,299.134 181.380,298.110 180.340 C 297.086 179.301,296.163 178.450,296.059 178.450 C 295.955 178.450,296.708 179.301,297.732 180.340 M136.824 179.319 C 137.000 179.495,137.718 179.580,138.421 179.508 C 139.666 179.379,139.658 179.372,138.101 179.188 C 137.222 179.084,136.648 179.143,136.824 179.319 M111.706 199.055 C 111.706 209.036,111.755 213.065,111.814 208.008 C 111.874 202.951,111.874 194.785,111.814 189.860 C 111.755 184.936,111.706 189.074,111.706 199.055 M294.896 181.971 C 294.896 182.036,295.449 182.589,296.125 183.200 L 297.353 184.310 296.243 183.081 C 295.208 181.936,294.896 181.679,294.896 181.971 M157.065 192.060 C 157.065 197.571,157.118 199.825,157.182 197.070 C 157.247 194.315,157.247 189.806,157.182 187.051 C 157.118 184.296,157.065 186.550,157.065 192.060 M26.087 186.957 C 27.845 188.724,29.369 190.170,29.473 190.170 C 29.577 190.170,28.223 188.724,26.465 186.957 C 24.707 185.189,23.183 183.743,23.079 183.743 C 22.975 183.743,24.329 185.189,26.087 186.957 M152.552 186.389 C 152.408 187.043,152.370 187.657,152.466 187.753 C 152.562 187.849,152.750 187.384,152.883 186.720 C 153.198 185.144,152.893 184.839,152.552 186.389 M116.877 189.036 C 116.877 189.348,117.024 189.943,117.202 190.359 C 117.407 190.836,117.527 190.906,117.527 190.548 C 117.527 190.236,117.381 189.641,117.202 189.225 C 116.997 188.748,116.877 188.678,116.877 189.036 M194.091 200.378 C 194.091 202.561,194.153 203.455,194.230 202.363 C 194.306 201.271,194.306 199.485,194.230 198.393 C 194.153 197.302,194.091 198.195,194.091 200.378 M194.198 205.009 C 194.295 205.165,199.638 205.293,206.071 205.293 C 212.505 205.293,217.769 205.165,217.769 205.009 C 217.770 204.853,212.427 204.726,205.896 204.726 C 199.366 204.726,194.102 204.853,194.198 205.009 M49.527 206.616 C 50.233 207.344,50.895 207.940,50.999 207.940 C 51.103 207.940,50.611 207.344,49.905 206.616 C 49.200 205.888,48.538 205.293,48.434 205.293 C 48.330 205.293,48.822 205.888,49.527 206.616 M121.414 206.427 C 121.414 206.739,121.560 207.335,121.739 207.750 C 121.944 208.227,122.064 208.297,122.064 207.940 C 122.064 207.628,121.918 207.032,121.739 206.616 C 121.534 206.140,121.414 206.070,121.414 206.427 M308.972 207.183 C 308.972 207.911,309.050 208.209,309.145 207.845 C 309.240 207.481,309.240 206.886,309.145 206.522 C 309.050 206.158,308.972 206.456,308.972 207.183 M250.268 209.168 C 251.834 210.838,252.174 211.138,252.174 210.854 C 252.174 210.793,251.366 209.985,250.378 209.058 L 248.582 207.372 250.268 209.168 M305.955 210.019 C 305.960 210.851,306.037 211.146,306.128 210.676 C 306.218 210.206,306.215 209.525,306.120 209.164 C 306.025 208.802,305.951 209.187,305.955 210.019 M309.380 211.153 C 309.382 212.401,309.453 212.866,309.537 212.186 C 309.621 211.507,309.619 210.486,309.533 209.918 C 309.447 209.350,309.378 209.905,309.380 211.153 M381.599 211.531 C 381.600 212.987,381.669 213.536,381.750 212.751 C 381.832 211.967,381.831 210.776,381.747 210.105 C 381.664 209.434,381.597 210.076,381.599 211.531 M237.967 218.526 C 237.967 222.788,238.022 224.532,238.089 222.401 C 238.157 220.269,238.157 216.782,238.089 214.650 C 238.022 212.519,237.967 214.263,237.967 218.526 M388.771 212.854 C 388.771 213.998,388.842 214.466,388.929 213.894 C 389.015 213.322,389.015 212.387,388.929 211.815 C 388.842 211.243,388.771 211.711,388.771 212.854 M122.926 212.098 C 122.926 212.410,123.073 213.006,123.251 213.422 C 123.456 213.898,123.576 213.968,123.576 213.611 C 123.576 213.299,123.430 212.703,123.251 212.287 C 123.047 211.811,122.926 211.741,122.926 212.098 M334.972 213.043 C 335.491 213.341,336.087 213.584,336.295 213.584 C 336.503 213.584,336.248 213.341,335.728 213.043 C 335.208 212.746,334.612 212.503,334.405 212.503 C 334.197 212.503,334.452 212.746,334.972 213.043 M306.385 217.580 C 306.386 220.284,306.446 221.340,306.519 219.928 C 306.592 218.515,306.591 216.304,306.518 215.013 C 306.444 213.722,306.384 214.877,306.385 217.580 M190.287 215.690 C 190.289 216.938,190.360 217.402,190.444 216.723 C 190.528 216.043,190.527 215.023,190.440 214.454 C 190.354 213.886,190.285 214.442,190.287 215.690 M157.003 217.013 C 157.003 217.949,157.077 218.332,157.167 217.864 C 157.257 217.396,157.257 216.630,157.167 216.163 C 157.077 215.695,157.003 216.078,157.003 217.013 M388.375 217.202 C 388.379 218.034,388.457 218.330,388.547 217.859 C 388.638 217.389,388.634 216.709,388.540 216.347 C 388.445 215.986,388.371 216.371,388.375 217.202 M230.753 222.495 C 230.755 224.159,230.821 224.792,230.901 223.903 C 230.981 223.014,230.980 221.653,230.899 220.878 C 230.817 220.104,230.752 220.832,230.753 222.495 M309.384 223.819 C 309.384 225.170,309.452 225.723,309.536 225.047 C 309.620 224.371,309.620 223.266,309.536 222.590 C 309.452 221.914,309.384 222.467,309.384 223.819 M114.265 223.264 L 115.297 224.412 115.407 233.094 L 115.516 241.777 115.603 233.058 L 115.690 224.338 114.461 223.228 L 113.233 222.117 114.265 223.264 M305.968 225.520 C 305.971 226.560,306.045 226.940,306.131 226.365 C 306.218 225.791,306.216 224.940,306.126 224.475 C 306.037 224.010,305.965 224.480,305.968 225.520 M308.972 227.977 C 308.972 228.705,309.050 229.003,309.145 228.639 C 309.240 228.275,309.240 227.680,309.145 227.316 C 309.050 226.952,308.972 227.250,308.972 227.977 M374.456 233.365 L 373.346 234.594 374.575 233.483 C 375.250 232.872,375.803 232.319,375.803 232.254 C 375.803 231.962,375.491 232.219,374.456 233.365 M251.205 236.389 L 250.095 237.618 251.323 236.508 C 251.999 235.897,252.552 235.344,252.552 235.279 C 252.552 234.987,252.240 235.244,251.205 236.389 M242.250 239.593 C 242.925 239.677,244.031 239.677,244.707 239.593 C 245.383 239.509,244.830 239.440,243.478 239.440 C 242.127 239.440,241.574 239.509,242.250 239.593 M122.495 240.454 C 122.495 240.662,122.665 240.832,122.873 240.832 C 123.081 240.832,123.251 241.115,123.251 241.462 C 123.251 241.808,123.352 241.991,123.475 241.868 C 123.790 241.553,123.274 240.076,122.848 240.076 C 122.654 240.076,122.495 240.246,122.495 240.454 M353.403 241.099 C 353.871 241.189,354.636 241.189,355.104 241.099 C 355.572 241.008,355.189 240.935,354.253 240.935 C 353.318 240.935,352.935 241.008,353.403 241.099 M70.782 246.053 C 70.718 249.950,70.593 251.024,70.227 250.818 C 69.852 250.606,69.850 250.654,70.221 251.054 C 71.013 251.908,71.104 251.310,70.982 246.082 L 70.865 241.021 70.782 246.053 M323.539 241.477 C 324.010 241.568,324.690 241.564,325.052 241.470 C 325.413 241.375,325.028 241.301,324.197 241.305 C 323.365 241.309,323.069 241.387,323.539 241.477 M348.116 241.484 C 348.796 241.568,349.817 241.566,350.385 241.480 C 350.953 241.394,350.397 241.325,349.149 241.327 C 347.902 241.329,347.437 241.400,348.116 241.484 M122.632 244.991 C 122.632 246.966,122.695 247.774,122.773 246.786 C 122.851 245.799,122.851 244.182,122.773 243.195 C 122.695 242.207,122.632 243.015,122.632 244.991 M145.751 243.472 C 145.620 243.683,145.681 243.856,145.887 243.856 C 146.093 243.856,146.335 244.239,146.425 244.707 C 146.569 245.452,146.595 245.431,146.640 244.540 C 146.695 243.469,146.154 242.820,145.751 243.472 M371.645 244.045 C 371.125 244.343,370.870 244.586,371.078 244.586 C 371.285 244.586,371.881 244.343,372.401 244.045 C 372.921 243.748,373.176 243.505,372.968 243.505 C 372.760 243.505,372.164 243.748,371.645 244.045 M181.640 245.103 C 181.537 245.373,181.505 247.968,181.569 250.869 L 181.687 256.144 181.770 250.576 L 181.853 245.009 187.996 244.895 L 194.140 244.781 187.984 244.697 C 183.225 244.632,181.786 244.724,181.640 245.103 M366.919 245.747 C 366.442 245.951,366.372 246.072,366.730 246.072 C 367.042 246.072,367.637 245.925,368.053 245.747 C 368.530 245.542,368.599 245.422,368.242 245.422 C 367.930 245.422,367.335 245.568,366.919 245.747 M315.312 247.259 C 315.832 247.425,316.597 247.562,317.013 247.562 C 317.612 247.562,317.573 247.499,316.824 247.259 C 316.304 247.092,315.539 246.956,315.123 246.956 C 314.524 246.956,314.563 247.019,315.312 247.259 M350.378 248.282 C 350.846 248.372,351.612 248.372,352.079 248.282 C 352.547 248.192,352.164 248.118,351.229 248.118 C 350.293 248.118,349.910 248.192,350.378 248.282 M331.285 248.676 C 333.937 248.741,338.275 248.741,340.926 248.676 C 343.578 248.611,341.408 248.558,336.106 248.558 C 330.803 248.558,328.634 248.611,331.285 248.676 M306.049 251.418 C 305.727 252.042,305.548 252.552,305.652 252.552 C 305.756 252.552,306.105 252.042,306.427 251.418 C 306.750 250.794,306.929 250.284,306.825 250.284 C 306.721 250.284,306.372 250.794,306.049 251.418 M292.806 257.561 L 290.170 260.302 292.911 257.666 C 295.457 255.217,295.825 254.820,295.548 254.820 C 295.490 254.820,294.256 256.054,292.806 257.561 M350.950 255.470 C 351.525 255.557,352.376 255.554,352.841 255.465 C 353.306 255.375,352.836 255.304,351.796 255.307 C 350.756 255.309,350.376 255.383,350.950 255.470 M351.216 258.129 L 349.149 260.302 351.323 258.236 C 353.343 256.316,353.670 255.955,353.390 255.955 C 353.331 255.955,352.352 256.933,351.216 258.129 M297.910 262.665 L 295.463 265.217 298.015 262.771 C 299.419 261.425,300.567 260.277,300.567 260.219 C 300.567 259.941,300.182 260.295,297.910 262.665 M89.603 260.629 C 89.603 260.733,90.113 261.182,90.737 261.626 C 91.361 262.070,91.871 262.348,91.871 262.244 C 91.871 262.140,91.361 261.692,90.737 261.248 C 90.113 260.803,89.603 260.525,89.603 260.629 M344.217 267.013 L 342.722 268.620 344.329 267.126 C 345.823 265.736,346.109 265.406,345.823 265.406 C 345.762 265.406,345.039 266.129,344.217 267.013 M98.677 266.710 C 98.677 266.814,99.187 267.163,99.811 267.486 C 100.435 267.808,100.945 267.987,100.945 267.883 C 100.945 267.779,100.435 267.430,99.811 267.108 C 99.187 266.785,98.677 266.606,98.677 266.710 M103.214 268.998 C 103.733 269.295,104.329 269.538,104.537 269.538 C 104.745 269.538,104.490 269.295,103.970 268.998 C 103.450 268.701,102.854 268.458,102.647 268.458 C 102.439 268.458,102.694 268.701,103.214 268.998 M339.698 270.544 L 338.563 271.518 339.792 270.705 C 340.468 270.258,341.021 269.818,341.021 269.729 C 341.021 269.446,340.861 269.544,339.698 270.544 M198.488 273.282 C 198.800 273.475,199.480 273.746,200.000 273.885 C 200.657 274.061,200.772 274.031,200.378 273.788 C 200.066 273.595,199.386 273.324,198.866 273.185 C 198.209 273.009,198.094 273.039,198.488 273.282 M235.066 273.245 C 235.950 273.324,237.396 273.324,238.280 273.245 C 239.164 273.165,238.440 273.100,236.673 273.100 C 234.905 273.100,234.182 273.165,235.066 273.245 M246.418 273.245 C 247.308 273.325,248.669 273.324,249.443 273.243 C 250.217 273.161,249.490 273.096,247.826 273.097 C 246.163 273.099,245.529 273.165,246.418 273.245 M203.970 275.236 C 204.386 275.415,204.981 275.561,205.293 275.561 C 205.650 275.561,205.581 275.441,205.104 275.236 C 204.688 275.058,204.093 274.911,203.781 274.911 C 203.423 274.911,203.493 275.031,203.970 275.236 M209.641 276.749 C 210.057 276.927,210.652 277.074,210.964 277.074 C 211.322 277.074,211.252 276.953,210.775 276.749 C 210.359 276.570,209.764 276.424,209.452 276.424 C 209.094 276.424,209.164 276.544,209.641 276.749 M186.374 279.490 C 187.940 281.159,188.280 281.459,188.280 281.175 C 188.280 281.114,187.472 280.306,186.484 279.379 L 184.688 277.694 186.374 279.490 M227.131 279.662 C 227.601 279.753,228.282 279.749,228.643 279.655 C 229.005 279.560,228.620 279.486,227.788 279.490 C 226.957 279.495,226.661 279.572,227.131 279.662 M255.482 279.662 C 255.950 279.752,256.716 279.752,257.183 279.662 C 257.651 279.572,257.268 279.498,256.333 279.498 C 255.397 279.498,255.014 279.572,255.482 279.662 M230.907 280.040 C 231.375 280.130,232.141 280.130,232.609 280.040 C 233.077 279.950,232.694 279.876,231.758 279.876 C 230.822 279.876,230.440 279.950,230.907 280.040 M251.701 280.040 C 252.169 280.130,252.935 280.130,253.403 280.040 C 253.871 279.950,253.488 279.876,252.552 279.876 C 251.616 279.876,251.233 279.950,251.701 280.040 M239.996 280.432 C 241.304 280.506,243.345 280.505,244.533 280.430 C 245.720 280.355,244.650 280.295,242.155 280.296 C 239.660 280.296,238.688 280.357,239.996 280.432 M194.168 293.384 C 194.307 293.904,194.578 294.584,194.771 294.896 C 195.014 295.290,195.044 295.175,194.868 294.518 C 194.729 293.998,194.458 293.318,194.265 293.006 C 194.022 292.612,193.992 292.727,194.168 293.384 M202.836 306.238 C 203.648 307.070,204.397 307.750,204.501 307.750 C 204.605 307.750,204.026 307.070,203.214 306.238 C 202.401 305.406,201.652 304.726,201.548 304.726 C 201.444 304.726,202.023 305.406,202.836 306.238 M208.885 312.665 C 210.747 314.537,212.357 316.068,212.461 316.068 C 212.565 316.068,211.126 314.537,209.263 312.665 C 207.400 310.794,205.791 309.263,205.687 309.263 C 205.583 309.263,207.022 310.794,208.885 312.665 M288.908 314.005 C 288.275 315.395,288.396 315.692,289.081 314.428 C 289.400 313.838,289.591 313.284,289.505 313.197 C 289.419 313.111,289.150 313.474,288.908 314.005 M287.430 326.087 C 287.434 326.919,287.512 327.214,287.602 326.744 C 287.692 326.274,287.689 325.593,287.594 325.232 C 287.500 324.870,287.426 325.255,287.430 326.087 M286.327 337.996 C 286.327 339.556,286.394 340.194,286.476 339.414 C 286.557 338.634,286.557 337.358,286.476 336.578 C 286.394 335.799,286.327 336.437,286.327 337.996 M232.514 353.308 C 233.220 354.036,233.882 354.631,233.986 354.631 C 234.090 354.631,233.598 354.036,232.892 353.308 C 232.187 352.580,231.525 351.985,231.421 351.985 C 231.317 351.985,231.809 352.580,232.514 353.308 M293.850 364.839 C 293.850 365.567,293.927 365.865,294.022 365.501 C 294.118 365.137,294.118 364.542,294.022 364.178 C 293.927 363.814,293.850 364.112,293.850 364.839 M267.202 370.790 C 268.502 370.864,270.629 370.864,271.928 370.790 C 273.228 370.716,272.164 370.656,269.565 370.656 C 266.966 370.656,265.903 370.716,267.202 370.790 M283.270 372.661 C 283.634 372.756,284.230 372.756,284.594 372.661 C 284.957 372.566,284.660 372.488,283.932 372.488 C 283.204 372.488,282.906 372.566,283.270 372.661 " stroke="none" fill="#bc7c8c" fill-rule="evenodd"></path></g></svg>