<?xml version="1.0" encoding="utf-8"?>
<!-- Generator: Adobe Illustrator 22.1.0, SVG Export Plug-In . SVG Version: 6.00 Build 0)  -->
<svg version="1.1" id="Layer_1" xmlns="http://www.w3.org/2000/svg" xmlns:xlink="http://www.w3.org/1999/xlink" x="0px" y="0px"
	 width="300.5px" height="94.02px" viewBox="0 0 300.5 94.02" style="enable-background:new 0 0 300.5 94.02;" xml:space="preserve"
	>
<style type="text/css">
	.st0{fill:#F6BC25;}
	.st1{fill:#1A1919;}
</style>
<polygon class="st0" points="146.39,52.02 0.25,54.99 146.39,57.96 292.53,54.99 "/>
<path class="st0" d="M139.23,1.46l-8.79,43.35h-13l-2.83-15.82c-0.14-0.77-0.25-1.45-0.37-2.17c-0.06,0.54-0.11,1.04-0.19,1.6
	l-2.11,16.39H99.29L89.32,0.08h13.75l2.02,12.68l0-0.03c0.28,1.79,0.51,3.39,0.72,4.89c0.2-1.51,0.42-3.01,0.66-4.46l2.24-13.08
	h11.47l2.03,11.14c0.36,1.94,0.7,4.06,1.02,6.28c0.15-1.15,0.3-2.25,0.47-3.28l2.24-14.14h13.58L139.23,1.46z M84.96,0.08H71.19
	v44.73h22.37V33.49v-1.15h-8.6V0.08z M45.29,0.08H29.43l-2.75,14.81L24.2,0.08H7.94L2.72,44.81h14.59l0.81-15.22l2.47,15.22h11.45
	l3.2-16.16l0.39,16.16h13.99L45.39,1.12L45.29,0.08z M52.67,44.81h13.77V1.23V0.08H52.67V44.81z M238.09,0.08h-14.67l-4.69,12.61
	l0.21-12.61h-13.79v44.73h13.79l-0.22-14.3l5.56,14.3h14.97l-10.82-23.12L238.09,0.08z M289.92,12.56V0.08h-23.6v44.73h22.45h1.16
	V32.34h-9.83v-4.2h8.82V15.66h-8.82v-3.1H289.92z M239.57,44.81h22.45h1.16V32.34h-9.83v-4.2h8.82V15.66h-8.82v-3.1h9.83V0.08h-23.6
	V44.81z M161.55,0.99l9.28,43.82h-14.26l-0.85-5.39h-5.76l-0.93,5.39h-14.28L145.5,0.08h15.86L161.55,0.99z M151.9,28.19h2.12
	l-0.54-3.61l-0.01-0.04c-0.03-0.18-0.06-0.4-0.1-0.74v-0.01l0-0.01c-0.02-0.24-0.12-1.1-0.29-2.47l-0.25,1.59L151.9,28.19z
	 M187.76,28.46c0.01,1.79-0.24,2.98-0.48,3.39c-0.19,0.28-0.41,0.46-1.28,0.49c-0.8-0.03-1.02-0.2-1.27-0.58
	c-0.26-0.41-0.53-1.57-0.51-3.32V0.08h-13.77v29.05c-0.02,5.57,1.8,9.93,5.54,12.6c2.88,2.08,6.43,3.09,10.53,3.09
	c3.65,0,6.86-0.92,9.5-2.81c1.9-1.37,3.32-2.95,4.19-4.75l0,0c0,0,0-0.01,0-0.01c0-0.01,0.01-0.02,0.01-0.03l-0.01,0
	c0.9-1.75,1.3-3.92,1.3-6.49V0.08h-13.77V28.46z"/>
<path class="st1" d="M278.93,33.49v-6.51h8.82V16.81h-8.82V11.4h9.83V1.23h-21.29v42.42h18.07c-2.08-1.5-3.8-2.27-3.8-2.27
	s1.41-0.22,5.31,2.27h1.72v-1.5c-4.29-2.79-6.64-3.09-6.64-3.09s2.49-0.79,6.64,1.04v-2.3c-3.35-1.23-5.27-0.91-5.27-0.91
	s1.81-0.99,5.27-0.36v-3.04 M240.73,43.66h21.29V33.49h-9.83v-6.51H261V16.81h-8.82V11.4h9.83V1.23h-21.29v5.94
	c3.96,1.17,5.23,3.2,5.23,3.2s-1.56-1.29-5.23-1.88v2.15c3.81,0.63,5.33,2.29,5.33,2.29s-1.63-0.68-5.33-0.69v2.05
	c3.68-0.02,4.57,0.74,4.57,0.74s-1.95-0.2-4.57,0.08V43.66z M237.43,43.66L227.16,21.7l9.15-20.47h-12.09l-6.76,18.19l0.3-18.19
	H206.3v42.42h11.46l-0.3-19.56l7.61,19.56H237.43z M199.19,36.71c0.78-1.52,1.18-3.52,1.18-5.99V1.23h-11.46v27.23
	c0,1.89-0.21,3.21-0.63,3.96c-0.42,0.71-1.18,1.07-2.28,1.07c-1.07,0-1.82-0.38-2.27-1.15c-0.45-0.76-0.67-2.06-0.67-3.9V1.23
	h-11.45v27.89c0,3.33,0.66,6.1,1.96,8.3c5.44-2.08,8.31-0.53,8.31-0.53s-2.74-0.47-7.41,1.83c0.47,0.59,1.02,1.1,1.6,1.59
	c4.48-2.14,7.16-1.25,7.16-1.25s-1.95,0.23-5.56,2.4c0.72,0.43,1.49,0.79,2.29,1.1c2.64-1.43,3.66-1.3,3.66-1.3s-1.2,0.53-2.81,1.58
	c1.72,0.53,3.62,0.81,5.69,0.81c3.46,0,6.4-0.86,8.82-2.59C197.14,39.77,198.42,38.32,199.19,36.71 M157.57,43.66h11.84l-6.04-28.53
	c-2.71-0.31-4.74-0.1-4.74-0.1s0.89-0.76,4.56-0.74l-0.43-2.05c-3.83,0-5.52,0.69-5.52,0.69s1.34-1.68,5.18-2.3l-0.45-2.14
	c-3.68,0.59-5.25,1.89-5.25,1.89s1.04-2.04,4.97-3.21l-1.25-5.93h-14.01l-10.19,42.42h11.84l0.93-5.39h7.72L157.57,43.66z
	 M155.37,29.34h-4.83l1.15-6.65l0.8-5.14c0.02-0.09,0.06-0.36,0.11-0.8c0.06-0.44,0.15-1.22,0.27-2.36
	c0.07-0.57,0.14-1.09,0.21-1.57c0.06-0.48,0.11-0.9,0.15-1.29l0.36,4.02c0.09,0.82,0.16,1.51,0.22,2.04
	c0.05,0.54,0.1,0.97,0.14,1.28c0.35,2.78,0.54,4.37,0.58,4.78c0.05,0.47,0.09,0.72,0.11,0.74L155.37,29.34z M129.5,43.66l8.6-42.42
	h-11.18l-2.09,13.16c-0.29,1.83-0.56,3.87-0.8,6.12c-0.24,2.25-0.46,4.84-0.66,7.75c-0.66-6.48-1.43-12.1-2.31-16.84l-1.86-10.19
	h-9.53l-2.07,12.12c-0.58,3.5-1.06,7.19-1.43,11.07l-0.36,3.32l-0.38-3.87c-0.27-2.65-0.77-6.31-1.48-10.96l-1.87-11.68H90.76
	l6.64,29.79c3.26-0.52,4.96,0.42,4.96,0.42s-1.7-0.31-4.72,0.69l0.47,2.1c3.53-1.28,5.61-0.62,5.61-0.62s-1.85,0.25-5.25,2.24
	l0.47,2.13c3.8-2.39,5.17-2.17,5.17-2.17s-2.38,1.07-4.95,3.15l1.05,4.69h10.72l1.99-15.39c0.17-1.28,0.31-2.5,0.43-3.65
	s0.22-2.25,0.3-3.3c0.19-2.06,0.32-3.45,0.41-4.2c0.04,0.36,0.1,0.89,0.19,1.59c0.1,0.69,0.21,1.56,0.33,2.61
	c0.26,2.11,0.65,4.6,1.17,7.47l2.66,14.87H129.5z M92.4,33.49h-8.6V1.23H72.34v5.88c4.11,1.15,5.42,3.25,5.42,3.25
	s-1.62-1.33-5.42-1.91v2.15c3.95,0.61,5.52,2.32,5.52,2.32s-1.69-0.69-5.52-0.69v2.05c3.83-0.05,4.76,0.74,4.76,0.74
	s-2.04-0.22-4.76,0.1v28.53H92.4V33.49z M53.83,1.23v42.42h11.46V1.23H53.83z M36.77,43.66h11.59L44.24,1.23H30.39l-2.85,15.36
	c-0.41,2.13-0.74,4.53-0.97,7.23c-0.13-1.61-0.27-3.1-0.43-4.48c-0.16-1.37-0.34-2.64-0.53-3.82L23.22,1.23H8.97L8.27,7.18
	c3.85,1.17,4.79,3.19,4.79,3.19s-1.34-1.29-4.94-1.88l-0.25,2.15c3.82,0.63,5.29,2.29,5.29,2.29s-1.68-0.69-5.47-0.69l-0.21,1.79
	c3.93,0.18,4.92,1,4.92,1s-2.15-0.32-5.02-0.16L4.02,43.66h12.2l1.02-19.23l0.27-7.83c0.12,1.25,0.21,2.07,0.25,2.48
	c0.31,2.67,0.56,4.55,0.74,5.65l3.08,18.93h9.52l3.74-18.9c0.25-1.26,0.46-2.57,0.63-3.92c0.17-1.35,0.32-2.76,0.46-4.25l0.37,7.72
	L36.77,43.66z M300.25,3.63c0,1.91-1.39,3.49-3.5,3.49c-2.45,0-3.5-1.83-3.5-3.49c0-1.62,1.03-3.49,3.5-3.49
	C299.04,0.14,300.25,1.81,300.25,3.63 M294.12,3.63c0,1.56,1.04,2.64,2.62,2.64c1.56,0,2.65-1.11,2.65-2.67s-1.08-2.61-2.65-2.61
	C295.16,0.99,294.12,2.07,294.12,3.63 M296,5.54h-0.87V1.76h2.12c0.79,0.03,1.26,0.32,1.26,1.16c0,0.71-0.37,0.99-1,1.03l0.88,1.58
	h-0.99l-0.8-1.49H296V5.54z M296,2.44v0.92h1.06c0.38,0,0.58-0.13,0.58-0.43c0-0.42-0.28-0.49-0.77-0.49H296z M85.48,93.6h3.7V81.41
	c2.04,0,3.6-0.25,4.68-0.73c2.15-1.07,3.22-3.43,3.22-7.09c0-2.59-0.53-4.5-1.6-5.69c-1.07-1.19-2.78-1.78-5.13-1.78h-4.88
	 M89.18,69.23h0.52c1.22,0,2.12,0.38,2.69,1.14c0.57,0.76,0.85,1.96,0.85,3.59c0,1.6-0.3,2.72-0.89,3.35
	c-0.58,0.62-1.64,0.93-3.17,0.93V69.23z M98.49,93.6h3.56l1.05-5.36h5.44l1.03,5.36h3.66l-5.89-27.48h-2.88L98.49,93.6z
	 M103.62,85.37l0.68-3.52c0.36-1.9,0.66-3.69,0.93-5.38c0.26-1.69,0.47-3.36,0.64-5.01c0.34,3.38,0.79,6.56,1.33,9.54l0.82,4.37
	H103.62z M116.88,93.6h3.66l-0.19-11.98c0-0.35,0-0.65-0.01-0.93L120.31,80l-0.21-3.4l-0.19-2.8l-0.05-0.56l-0.09-0.8l0.19,0.82
	l0.12,0.6c0.28,1.33,0.59,2.6,0.93,3.81c0.34,1.21,0.69,2.39,1.07,3.54l4.14,12.37h3.47V66.12h-3.7v10.25
	c0,1.51,0.07,3.14,0.21,4.86c0.14,1.71,0.36,3.64,0.66,5.76c-0.82-3.51-1.76-6.82-2.83-9.91l-3.69-10.96h-3.45V93.6z M133.2,69.36
	h4.27V93.6h3.63V69.36h4.15v-3.24H133.2V69.36z M148.75,93.6h3.7V80h5.43v13.6h3.7V66.12h-3.7v10.75h-5.43V66.12h-3.7V93.6z
	 M167.28,93.6h9.84v-3.13h-6.14v-9.38h5.44v-3.13h-5.44v-8.71h6.14v-3.13h-9.84V93.6z M181.98,93.6h3.7V80.15l5.03,13.45h3.76
	l-5.05-13.37c1.22-0.29,2.16-1.02,2.82-2.21c0.66-1.19,0.99-2.78,0.99-4.74c0-2.56-0.62-4.47-1.87-5.72
	c-0.99-0.96-2.48-1.44-4.5-1.44h-4.88V93.6z M185.68,69.16h0.62c0.58,0,1.08,0.08,1.5,0.26c0.42,0.18,0.77,0.46,1.03,0.84
	c0.27,0.38,0.46,0.88,0.59,1.48c0.12,0.6,0.19,1.33,0.19,2.18c0,1.58-0.3,2.7-0.89,3.36c-0.59,0.67-1.61,1-3.04,1V69.16z
	 M204.19,65.75c-1.9,0-3.41,0.64-4.54,1.91c-1.12,1.25-1.67,2.96-1.67,5.1c0,1.6,0.29,2.91,0.85,3.95c0.3,0.54,0.75,1.16,1.37,1.87
	c0.62,0.71,1.39,1.53,2.33,2.46c0.6,0.6,1.11,1.15,1.51,1.65c0.4,0.49,0.72,0.93,0.95,1.31c0.44,0.8,0.66,1.69,0.66,2.69
	c0,1.15-0.29,2.06-0.85,2.73c-0.57,0.67-1.36,1.01-2.37,1.01c-1.08,0-2.28-0.48-3.6-1.44v3.67c1.11,0.86,2.46,1.3,4.04,1.3
	c1.87,0,3.41-0.67,4.61-2.01c1.2-1.38,1.8-3.13,1.8-5.25c0-1.56-0.27-2.88-0.82-3.97c-0.55-1.11-1.57-2.44-3.08-3.97
	c-0.82-0.82-1.49-1.52-2-2.1c-0.52-0.59-0.89-1.06-1.11-1.43c-0.44-0.69-0.66-1.51-0.66-2.47c0-1.09,0.31-1.96,0.93-2.62
	c0.62-0.69,1.41-1.04,2.39-1.04c0.9,0,1.92,0.41,3.04,1.21v-3.61C206.76,66.06,205.5,65.75,204.19,65.75"/>
</svg>
