<svg xmlns="http://www.w3.org/2000/svg" width="248" height="31.794" viewBox="0 0 248 31.794">
 <path d="m39.143 29.593v0.56608c-2.7098-0.1295-5.0268-0.1295-6.862-0.1295-1.8353 0-4.0204 0-6.6846 0.1295v-0.56608c3.0596-0.60494 3.0596-3.3807 3.0596-9.3648v-14.222l-9.7899 24.847h-0.34978c-3.5845-8.0661-7.3699-16.218-11.356-24.456v10.841c0 7.2833 0.74274 10.971 4.6313 12.354v0.56608c-2.0885-0.08681-3.8011-0.1295-5.1547-0.1295-1.6617 0-3.4957 0.04269-5.4628 0.1295v-0.51814c3.4082-1.4248 4.3676-5.2873 4.3676-12.398v-8.5449c0-3.6423-0.21799-5.4194-2.9696-6.2899v-0.56215c1.8784 0.04404 3.8468 0.088079 5.8126 0.088079 1.398 0 2.796-0.04404 4.194-0.04404 2.7973 5.6798 5.8113 11.445 9.2209 17.298l6.8568-17.342c1.3053 0.04404 2.6225 0.088079 3.9316 0.088079 2.0103 0 4.0192-0.088079 6.0307-0.17357v0.6049c-1.8354 0.30439-2.6212 1.3432-2.6212 3.3846v14.479c0 6.1589 0.26113 8.7598 3.1458 9.3648zm9.8919-2.2019v-0.4197c-2.1317-0.58934-2.2348-2.5323-2.2348-6.624v-4.7861c0-2.1878 0-4.3003 0.10454-6.3469-2.3425 0.52906-4.7115 0.93419-7.0971 1.2137v0.41838c1.817 0.13988 1.9579 1.0738 1.9579 3.5361v6.2458c0 3.7783-0.10184 5.6526-2.2361 6.3469v0.41842c1.7818-0.10496 3.3207-0.14127 4.6862-0.14127 1.5663-0.0038 3.1758 0.02993 4.8193 0.1373zm12.304-11.378c-3.3573-0.76423-5.2422-0.83417-5.2422-3.2253 0.05674-0.85525 0.45275-1.6533 1.1014-2.2193 0.64877-0.56595 1.497-0.85366 2.3591-0.80004 2.411 0 4.4381 1.8043 5.4184 5.2044l0.45303 0.03367 1.6107-4.7148c-2.2091-1.0206-4.6184-1.5439-7.0554-1.5323-5.4209 0-8.636 2.5685-8.636 5.7925 0 3.3301 2.133 4.3391 6.5737 5.4401 3.0741 0.76295 4.613 1.2475 4.613 3.259 0 1.9791-1.7126 3.4-4.1248 3.4-3.0754 0-5.1404-2.1864-5.874-6.4517l-0.49076-0.06865-1.9581 5.7225c2.5361 1.2685 5.3391 1.9223 8.1792 1.9079 6.0829 0 9.5773-2.4959 9.5773-6.3469-0.0027-3.2536-2.1355-4.435-6.5045-5.4012zm18.797 0c-3.3559-0.76423-5.2408-0.83417-5.2408-3.2253 0.05659-0.85525 0.45275-1.6533 1.1014-2.2193 0.64863-0.56595 1.497-0.85366 2.3591-0.80004 2.4096 0 4.438 1.8043 5.4157 5.2044l0.45559 0.03367 1.6069-4.7148c-2.2083-1.0205-4.6167-1.5437-7.0527-1.5323-5.4171 0-8.6322 2.5685-8.6322 5.7925 0 3.3301 2.133 4.3391 6.5684 5.4401 3.0779 0.76295 4.617 1.2475 4.617 3.259 0 1.9791-1.7113 3.4-4.125 3.4-3.0779 0-5.1402-2.1864-5.8738-6.4517l-0.49218-0.06865-1.9579 5.7225c2.5362 1.268 5.3391 1.9219 8.1792 1.9079 6.0828 0 9.5785-2.4959 9.5785-6.3469-0.0027-3.2536-2.1355-4.435-6.5045-5.4012zm28.524 2.2188c0 5.5516-4.125 9.4697-10.556 9.4697-6.1533 0-10.383-3.9894-10.383-9.436 0-5.6527 4.1953-9.5022 10.521-9.5022 6.2618-0.00389 10.42 3.8819 10.42 9.4659zm-5.6612-0.03362c0-5.5503-1.6799-8.3935-4.8298-8.3935-3.0375 0-4.7515 2.8496-4.7515 8.3584 0 5.6202 1.6787 8.4983 4.7515 8.4983 3.1524-0.0026 4.8323-2.8483 4.8323-8.4659zm26.106 0.83288v-5.5154c0-0.38212 0-1.8419 0.0705-4.3042-2.3419 0.53546-4.7098 0.95222-7.0945 1.2486v0.41838c1.8171 0.13988 1.9581 1.0362 1.9581 3.4972v4.5464c0 4.2991-1.8171 6.8314-4.3676 6.8314-2.625 0-3.6732-2.1852-3.6732-6.8314v-9.7145c-2.2842 0.58557-4.6086 1.0029-6.9548 1.2486v0.41838c1.8184 0.13988 1.958 1.0362 1.958 3.4972v4.8922c0 5.6863 2.3053 8.497 6.9888 8.497 1.289 0.10468 2.5791-0.18907 3.6932-0.84111 1.1142-0.65189 1.9977-1.6299 2.5293-2.7999 0.19332 1.0662 0.44949 2.1202 0.76749 3.1566h1.8144c1.646 0 3.1824 0.03362 4.617 0.0661v-0.57899c-2.0625-0.45204-2.3091-2.8095-2.3091-7.7355zm10.343-5.6177v-4.2356c-2.2971 0.5846-4.6343 1.0015-6.9927 1.2474v0.41837c1.8144 0.1399 1.958 1.0738 1.958 3.5361v6.2458c0 3.8133-0.10312 5.6526-2.2334 6.3469v0.41842c1.7792-0.10496 3.3182-0.14127 4.6822-0.14127 1.5741 0 3.1837 0.03631 4.8296 0.14127v-0.4197c-2.1303-0.58934-2.2334-2.5323-2.2334-6.624v-1.6658c0-3.2602 1.0444-4.9609 2.8992-4.9609 0.2719-0.0058 0.54124 0.05434 0.78395 0.17534 0.24396 0.121 0.45388 0.29915 0.61132 0.51893h0.45813l1.9205-5.6539c-0.23261-0.028325-0.46665-0.040013-0.70068-0.034963-2.5547 0-4.5496 1.5617-5.9855 4.685zm13.951 6.9362v-4.7886c0-2.1878 0-4.3003 0.10354-6.3469-2.3446 0.52947-4.7147 0.93461-7.1019 1.2137v0.41838c1.8283 0.13988 1.9588 1.0738 1.9588 3.5361v6.2458c0 3.7783-0.1078 5.6526-2.2382 6.3469v0.41842c1.7829-0.10496 3.3233-0.14127 4.6864-0.14127 1.5673 0 3.1772 0.03631 4.8225 0.14127v-0.42226c-2.1304-0.58934-2.234-2.5323-2.234-6.624zm25.167-7.6007c-3.9814-0.77716-6.8636-0.95333-8.3912-2.1683-0.46098-0.34484-0.83402-0.79058-1.0922-1.3024-0.25815-0.51185-0.3929-1.0759-0.39573-1.6482 0-2.7304 2.5332-4.8962 6.5132-4.8962 4.4112 0 7.2068 2.5595 8.4295 7.6318h0.57161l2.007-6.8974c-3.5247-1.5357-7.3359-2.3173-11.185-2.2939-8.1714 0-13.109 3.8133-13.109 9.0151-6e-3 1.0476 0.21276 2.0845 0.64253 3.0417 0.42976 0.95719 1.0581 1.8128 1.8467 2.5099 1.9248 1.6917 4.8069 2.2992 8.5231 3.0335 4.8906 0.95344 7.6891 1.6476 7.6891 4.9001 0 3.5529-2.6652 5.7639-7.248 5.7639-5.4679 0-9.0508-3.2925-10.144-9.3635h-0.52196l-2.4013 8.067c4.1757 1.9541 8.7529 2.9189 13.368 2.8185 8.5203 0 13.805-4.3806 13.805-10.019-3e-3 -4.4686-2.9261-7.0243-8.9103-8.1952zm16.286 6.1137v-7.8791h3.597l0.4241-1.4598h-4.0211v-1.215c0-1.8367 0.0695-3.3288 0.17162-4.4039h-0.55884c-1.4113 2.6354-3.6254 4.7604-6.3274 6.071l-0.17588 1.009h1.9588l-0.0695 8.3909v2.4985c0 3.0854 0.14184 4.856 1.3276 5.4117 4.0935 0.03362 6.048 0.0661 6.048 0.0661v-0.41318c-2.1659-0.62693-2.3744-3.0531-2.3744-8.0762zm23.626 7.9013v0.58806c-1.4354-0.03248-2.8623-0.0661-4.2963-0.0661h-1.5375c-0.55743-0.87969-0.97018-1.8415-1.2241-2.8497-0.52197 1.0566-1.3503 1.9344-2.3786 2.5212-1.0269 0.58679-2.2084 0.85586-3.3914 0.77274-4.3686 0-7.2012-2.3897-7.2012-5.5127 0-3.8521 4.1616-5.7937 12.551-6.0709v-0.13347c0-4.0931-1.4666-6.2083-4.1601-6.2083-2.7956 0-4.3686 1.8717-5.4183 5.8974h-0.48792l-1.6099-5.1681c2.5659-1.2065 5.3729-1.8237 8.2125-1.8056 3.3219 0 5.77 0.83416 7.1373 2.3315 1.4992 1.5932 1.4992 3.5724 1.4992 6.3805v1.5958c0 4.9181 0.24538 7.2756 2.3049 7.7277zm-7.4778-9.5747c-0.26666-0.02738-0.53616-0.03858-0.80423-0.03376-3.7772 0-5.8012 1.8031-5.8012 4.9986 0 2.5297 1.1844 4.0529 2.8978 4.0529 2.7616 0 3.7077-2.6683 3.7077-7.9427zm16.402 9.7496c-2.1716-0.62565-2.3801-3.0518-2.3801-8.0813v-7.874h3.6027l0.41842-1.4598h-4.0211v-1.215c0-1.8367 0.0709-3.3288 0.17304-4.4039h-0.55601c-1.4127 2.6336-3.6268 4.7581-6.326 6.071l-0.17588 1.009h1.9574l-0.0681 8.3909v2.4985c0 3.0854 0.13051 4.856 1.3248 5.4117 4.0892 0.03362 6.0494 0.0661 6.0494 0.0661zm19.771-6.4182c-1.4354 4.8237-4.5091 7.2135-9.2678 7.2135-5.9771 0-9.9968-3.9519-9.9968-9.5722 0-5.5153 4.0197-9.4348 9.8195-9.4348 5.1771 0 8.4962 2.6398 9.1614 7.352h-13.103c-0.0397 0.59062-0.0737 1.1489-0.0737 1.667 0 5.3404 2.3503 8.3234 6.0154 8.3234 3.146 0 5.3814-2.1826 6.5019-6.3792zm-13.35-5.6888h7.1274c-0.10354-3.2265-1.4638-5.0283-3.3573-5.0283-1.8921 0-3.319 1.7318-3.7701 5.027zm-83.094-11.139c-0.68509-0.072068-1.373 0.12334-1.9162 0.5449-0.54324 0.42157-0.89926 1.0362-0.99429 1.7141 0.16311 0.64242 0.53899 1.2122 1.0666 1.6192 0.52622 0.40701 1.1758 0.62799 1.8439 0.62799 0.66664 0 1.3163-0.22099 1.8425-0.62799 0.52764-0.40699 0.90351-0.97677 1.0666-1.6192-0.0922-0.67866-0.44821-1.2946-0.99146-1.7173-0.54324-0.42267-1.2312-0.61882-1.9177-0.54687zm-106.93 4.514c0.68608 0.073047 1.374-0.12215 1.9175-0.54417 0.54339-0.42201 0.89983-1.0376 0.9933-1.7161-0.094181-0.67809-0.45062-1.2932-0.99401-1.7148-0.54339-0.42169-1.2309-0.61684-1.9168-0.54411-0.68551-0.072026-1.3723 0.12347-1.9151 0.54509-0.54282 0.42162-0.89898 1.0363-0.99316 1.7139 0.09347 0.67799 0.44949 1.2932 0.99245 1.7151 0.54282 0.42194 1.23 0.61748 1.9158 0.54514z" fill="#5e0009"/>
</svg>