<svg xmlns="http://www.w3.org/2000/svg" width="248" height="73.398" viewBox="0 0 248 73.398">
 <g transform="matrix(1.3333 0 0 -1.3333 -802.1 236.34)">
  <g>
   <path d="m636.2 176.31 1.5132-3.2241h112.99l1.5132 3.2241h-116.02zm1.5132-32.594-1.5132-3.2256h116.02l-1.5146 3.2256h-112.99zm50.865-8.5298c-3.9588 0-5.2954-1.5686-5.2954-6.2139 0-3.9364 0.86641-6.2109 5.2954-6.2109 1.2754 0 3.0831 0.23093 3.958 0.39698l0.11133 0.02197-0.06885 2.2134-0.14502-0.01758c-0.75072-0.0977-2.4388-0.24316-3.3779-0.24316-2.2103 0-2.6865 0.68303-2.6865 3.8408 0 3.3085 0.61898 3.8379 2.6074 3.8379 0.88887 0 2.536-0.13642 3.4556-0.25782l0.14502-0.01904 0.09082 2.1592-0.10986 0.02197c-1.0954 0.22745-2.7171 0.47022-3.98 0.47022zm42.281 0c-3.0559 0-4.7402-1.2868-4.7402-3.6255 0-1.9159 1.1216-2.8753 4.292-3.6665 1.9689-0.49118 2.3218-0.79521 2.3218-1.4092 0-1.1456-1.0745-1.3858-1.9732-1.3858-1.3842 0-4.0282 0.30776-4.0547 0.31055l-0.1289 0.01318-0.31494-2.1006 0.12451-0.0249c0.0265-4e-3 2.6945-0.53614 4.5322-0.53614 3.0057 0 4.8018 1.4496 4.8018 3.8804 0 1.9717-0.83985 2.7451-3.9111 3.5977-2.2745 0.62514-2.7041 0.86503-2.7041 1.4985 0 0.91678 1.1053 1.1104 2.0332 1.1104 1.1303 0 3.9097-0.27553 3.939-0.27832l0.1289-0.01172 0.24903 2.1372-0.12305 0.0205c-0.0279 6e-3 -2.6735 0.47022-4.4722 0.47022zm-59.662-0.20801-3.1069-12.012h3.0161l0.53759 2.124h4.5176l0.53614-2.124h3.0176l-3.1084 12.012h-5.4097zm26.383 0v-12.012h9.0029v2.3394h-5.9956v2.5503h4.8062v2.3042h-4.8062v2.4785h5.9956v2.3394h-9.0029zm-43.452-0.00146v-12.01h3.0059v3.9404h2.4184l1.5688-3.9404h3.2915l-1.96 4.5674c1.2935 0.74654 1.9482 1.9046 1.9482 3.4409 0 2.6568-1.6457 4.002-4.897 4.002h-5.376zm57.432 0v-12.01h3.0073v3.9404h2.4185l1.5674-3.9404h3.2915l-1.96 4.5674c1.2935 0.74654 1.9497 1.9032 1.9497 3.4409 0 2.6568-1.6471 4.002-4.897 4.002h-5.3774zm-38.03-2.2354h0.74268l1.3052-5.3115h-3.353l1.3052 5.3115zm-16.396-0.06884h2.3701c1.1819 0 1.8311-0.61367 1.8311-1.73 0-0.64607-0.23152-1.7344-1.793-1.7344h-2.4082v3.4644zm57.434 0h2.3701c1.1805 0 1.831-0.61367 1.831-1.73 0-0.64607-0.23291-1.7344-1.793-1.7344h-2.4082v3.4644z" fill="#ecac00"/>
   <path d="m721.76 169.72c-4.1513 0-7.2817-1.512-7.2817-3.52v-6.2358c0-2.0038 3.1304-3.5186 7.2817-3.5186 1.3731 0 2.2632-0.48742 2.2632-1.2451v-2.8667c0-0.75351-0.89012-1.2436-2.2632-1.2436-1.3717 0-2.2588 0.49014-2.2588 1.2436v2.5781h-5.7817c0.37675-0.92375 0.75879-2.031 0.75879-3.4878v-0.79394c0-2.0066 3.1304-3.5186 7.2817-3.5186 4.1555 0 7.2905 1.512 7.2905 3.5186v6.4321c0 2.0052-3.135 3.5142-7.2905 3.5142-1.3731 0-2.2588 0.49181-2.2588 1.2495v2.71c0 0.7563 0.88572 1.2436 2.2588 1.2436 1.3731 0 2.2632-0.48735 2.2632-1.2436v-2.1226h5.0273v3.7866c0 2.008-3.135 3.52-7.2905 3.52zm-119.36-0.49658c0.64188-1.8168 0.93088-3.6263 0.85693-5.3789l-0.69287-16.354h6.0396c-0.66142 1.4624-0.98152 3.0171-0.95361 4.626l0.1626 9.0908 3.2768-11.676h3.2549l3.2886 11.698 0.07764-9.1128c0.0335-1.7456-0.24947-3.3436-0.81739-4.626h5.9077l-0.69434 16.354c-0.0921 2.1615 0.4019 4.0951 0.85401 5.3789h-7.0869l-3.1538-11.083-3.2095 11.083h-7.1104zm22.654 0c0.7284-1.8405 1.0826-3.57 1.084-5.2808v-13.311c0-2.0066 3.132-3.52 7.2861-3.52 4.1527 0 7.2861 1.5134 7.2861 3.52v13.311c0 1.7108 0.35419 3.4416 1.084 5.2808h-6.1099v-16.734c0-0.75491-0.88858-1.2407-2.2602-1.2407-1.3745 0-2.2632 0.48581-2.2632 1.2407v16.734h-6.1069zm57.075 0c0.27908-1.828 0.20447-3.6453-0.21973-5.3965l-3.977-16.336h5.833c-0.20652 1.2545-0.18547 2.5862 0.06152 3.9551l0.01611 0.0835h4.7022l0.01612-0.08496c0.24559-1.3717 0.26657-2.7019 0.06005-3.9536h5.8316l-3.9741 16.336c-0.4256 1.7484-0.49881 3.5657-0.21973 5.3965h-8.1299zm10.657 0 6.1934-14.514v-1.8442c-1e-3 -1.7415-0.36821-3.5507-1.0854-5.3745h6.7383c-0.72002 1.8224-1.0825 3.6289-1.0825 5.3745l0.00879 1.8823 6.1846 14.476h-5.8257c-0.0181-1.3633-0.33487-2.808-1.0298-4.6597l-1.6245-4.5146-1.623 4.5146c-0.6963 1.8559-1.0173 3.3006-1.0312 4.6597h-5.8228zm38.071 0v-5.1973c0.45629 0.32932 1.7949 1.1748 3.5991 1.1748h0.57714v-12.426c0-1.7052-0.35551-3.439-1.0825-5.2837h7.0767c-0.71584 1.8182-1.0796 3.6289-1.0796 5.376v12.334h0.58886c1.807 0 3.1471-0.84549 3.6006-1.1748v5.1973h-13.28zm16.547 0c0.28047-1.8238 0.20594-3.6397-0.21826-5.3965l-3.9756-16.336h5.833c-0.20792 1.2545-0.18692 2.5848 0.06006 3.9551l0.01465 0.0835h4.7036l0.01465-0.08496c0.24559-1.3717 0.26664-2.7019 0.06152-3.9536h5.8301l-3.9741 16.336c-0.4256 1.754-0.5016 3.5699-0.21973 5.3965h-8.1299zm11.307 0v-5.1973c0.4549 0.32932 1.7949 1.1748 3.6006 1.1748h0.57568v-12.426c0-1.7038-0.35266-3.4348-1.0811-5.2837h7.0752c-0.71445 1.8266-1.0797 3.6331-1.081 5.376v12.334h0.59179c1.807 0 3.1456-0.84549 3.5991-1.1748v5.1973h-13.28zm15.504 0c0.7284-1.8377 1.0825-3.5644 1.0825-5.2793v-11.169c0-1.7163-0.35412-3.4474-1.0825-5.2837h12.686v4.9321c-0.727-0.53722-1.5831-0.79541-2.606-0.79541h-4.084v4.6655h4.5366v4.1309h-4.5366v4.6641h4.084c1.0228 0 1.879-0.26097 2.606-0.79541v4.9307h-12.686zm-130.6-0.00147c0.7298-1.8363 1.084-3.5643 1.084-5.2778v-11.169c0-1.715-0.35418-3.4432-1.084-5.2837h7.0781c-0.71723 1.8224-1.0796 3.6289-1.081 5.3745v3.0381h0.16699c0.27908-8e-3 1.6875-0.17847 2.3057-2.5576l1.4854-5.855h6.23c-1.2586 1.814-2.1604 3.6093-2.6851 5.3452l-0.82324 3.0264 0.08349 0.03369c1.6033 0.65305 2.5239 1.641 2.5239 2.7085v7.0986c0 1.9731-2.8328 3.5186-6.4482 3.5186h-8.8359zm17.666 0c0.72978-1.8405 1.084-3.5671 1.084-5.2778v-11.169c0-1.7136-0.3542-3.4404-1.084-5.2837h7.0781c-0.71584 1.8294-1.0797 3.6372-1.0825 5.3745v3.0381h0.16992c0.28047-0.0112 1.696-0.18375 2.3086-2.581l1.4795-5.8315h6.23c-1.26 1.8168-2.1589 3.6135-2.6821 5.3452l-0.82178 3.0264 0.08057 0.03369c1.6047 0.65444 2.5254 1.641 2.5254 2.7085v7.0986c0 1.9731-2.8342 3.5186-6.4482 3.5186h-8.8374zm-11.669-4.1323h1.9761c1.4233 0 2.4551-0.5237 2.4551-1.2451v-3.3794c0-0.72282-1.0318-1.2466-2.4551-1.2466h-1.9761v5.8711zm17.665 0h1.9746c1.4247 0 2.4595-0.5237 2.4595-1.2451v-3.3794c0-0.72282-1.0348-1.2466-2.4595-1.2466h-1.9746v5.8711zm18.923-0.17578 1.5879-9.252h-3.1772l0.01904 0.11719 1.5703 9.1348zm65.273 0 1.5879-9.252h-3.1772l0.01904 0.11719 1.5703 9.1348z" fill="#002144"/>
  </g>
 </g>
</svg>