<svg xmlns="http://www.w3.org/2000/svg" width="248" height="97.885" viewBox="0 0 248 97.885">
 <g transform="matrix(1.3333 0 0 -1.3333 -275.11 298.78)">
  <g>
   <path d="m228.37 223.2-20.389-51.668c-1.4862-3.8181-1.1393-7.7246 0.97559-11 3.4252-5.2975 11.223-8.6435 21.393-9.1714 0.98399-0.0512 1.9603-0.0747 2.9238-0.0747 15.12 0 28.17 6.3958 31.731 15.551l22.022 56.363h-27.318l-19.422-49.399c-1.1429-2.7487-2.4768-2.746-3.6812-2.606-0.54325 0.0666-0.82132 0.22733-0.87598 0.31787-0.0598 0.10421-0.13755 0.58679 0.25195 1.5674l19.712 50.12h-27.324zm63.483 0-27.737-71.304h27.126l10.749 27.521 6.4175-27.521h23.268l27.735 71.304h-27.127l-10.178-26.109-5.9282 26.109h-24.325zm72.4 0-27.734-71.304h27.318l27.735 71.304h-27.319z" fill="#ffb500"/>
   <path d="m230.4 220.21-19.633-49.764c-1.1463-2.9383-0.90368-5.8032 0.69873-8.2837 2.8973-4.4844 9.8351-7.3293 19.033-7.8076 0.93446-0.0478 1.8563-0.07324 2.7686-0.07324 13.914 0 25.816 5.6108 28.944 13.645l20.426 52.282-20.893 0.00147-18.693-47.546c-1.2402-2.9879-3.2237-4.4956-5.8989-4.4956-0.30237 0-0.60509 0.01807-0.91259 0.05567-1.4384 0.17425-2.5071 0.7848-3.0879 1.7637-0.44586 0.74654-0.79924 2.0809 0.03956 4.1924l18.103 46.03h-20.893zm63.505-0.01612-25.396-65.287h20.67l13.529 34.645 8.0816-34.645h18.823l25.395 65.287h-20.672l-12.996-33.335-7.5718 33.335h-19.863zm72.4 0-25.395-65.287h20.864l25.392 65.287h-20.861z" fill="#500778"/>
  </g>
 </g>
</svg>