<svg xmlns="http://www.w3.org/2000/svg" height="170.95" viewBox="0 0 252 170.95256" width="252"><g transform="matrix(1.25 0 0 -1.25 -417.3 522.32)"><g transform="matrix(3.3328 0 0 3.3328 -1011.3 -812.63)"><path d="m444.96 332.74c0.619-0.119 1.253 0.055 1.737 0.456 0.018 0.016 0.035 0.034 0.054 0.05 1.031-1.048 2.462-1.857 4.288-2.419l6.226-2.218c0.072-0.026 0.144-0.048 0.22-0.065 1.515-0.361 3.051-0.041 4.217 0.878 1.34 1.06 2.077 2.819 2.077 4.954v-0.005l0.065 22.317v0.042c-0.003 0.209-0.146 5.137-5.223 7.254 0.01-0.005 0.023-0.01 0.034-0.015-0.173 0.076-4.312 1.878-8.159 2.873-1.001 0.264-2.112 0.163-3.079-0.254-0.237 0.716-0.846 1.268-1.622 1.421-9.568 1.891-21.787 0.42-23.762 0.067-0.751-0.132-1.353-0.652-1.612-1.332-0.975 0.43-2.102 0.535-3.121 0.267-3.837-0.992-7.976-2.794-8.149-2.871 0.012 0.006 0.024 0.011 0.035 0.014-5.077-2.115-5.221-7.044-5.224-7.253 0-0.008-0.128-23.412-0.128-23.412 0-1.618 0.629-2.968 1.775-3.816 1.516-1.125 3.516-1.083 4.88-0.666 0.031 0.008 0.06 0.018 0.09 0.029l6.554 2.313c0.016 0.006 0.033 0.012 0.049 0.017 1.541 0.587 2.68 1.32 3.522 2.1 0.062-0.066 0.126-0.132 0.195-0.191 0.477-0.404 1.107-0.58 1.723-0.477 2.671 0.422 12.194 1.904 22.338-0.058" fill="#fff"/><path d="m35.748 2.4707c-0.666 0.0012-1.234 0.0093-1.615 0.0293l-0.16211 13.656-2.7285 0.16016 0.08008-13.734c-2.1688 0.16-6.747 0.88305-8.1133 1.123l-0.158 38.875c3.8538-0.6425 6.5862-0.88367 8.0312-1.0449l0.08008-17.027 2.8086-0.16016v16.945c2.09-0.08 6.1045 0.08094 8.0332 0.24219l0.082-38.873c-1.448-0.1208-4.339-0.195-6.338-0.1913zm8.1035 0.19141-0.16016 38.953c1.6862 0.08125 6.4232 0.72367 8.1895 1.0449l0.08203-38.873c-1.285-0.24-6.5851-1.045-8.1113-1.125zm-25.737 2.2363c-0.21218 0.010933-0.41648 0.043594-0.60742 0.09375-4.6575 1.205-9.7988 3.4531-9.7988 3.4531-4.82 2.0088-4.8984 6.666-4.8984 6.666l-0.1606 29.235c0 3.295 3.0509 3.6165 4.8984 3.0527l8.1934-2.8906c5.0587-1.9275 5.6191-5.1409 5.6191-6.5859l0.162-29.717c-0.071-2.4598-1.923-3.3831-3.408-3.3066zm38.941 0.21484c-1.4836-0.07675-3.3352 0.8457-3.4062 3.3066l0.16016 29.719c0 1.4438 0.05133 5.1917 6.0488 7.0117l7.8203 2.7832c2.2475 0.535 4.6016-0.85719 4.6016-4.7109l0.08203-27.896s-0.08164-4.6573-4.9004-6.666c0 0-5.1426-2.2501-9.7988-3.4551-0.19062-0.050156-0.39548-0.080832-0.60742-0.091797zm-44.609 9.2758c0.885 0 0.96289 1.8457 0.96289 1.8457v19.84c-0.15875 0.6425-0.47984 1.7677-1.6836 1.9277-0.8025 0.08-0.96484-0.80266-0.96484-1.2852l0.08008-20.158s0.16172-2.1699 1.6055-2.1699zm50.277 0.21484c1.4475 0 1.6055 2.1699 1.6055 2.1699l0.08203 20.158c0 0.48125-0.16109 1.3652-0.96484 1.2852-1.205-0.16125-1.5282-1.284-1.6895-1.9277v-19.838s0.0843-1.8477 0.9668-1.8477z" transform="matrix(.8 0 0 -.8 403.83 368.96)" fill="#154734"/></g></g></svg>
