<svg xmlns="http://www.w3.org/2000/svg" height="96.342" viewBox="0 0 224.58502 96.341797" width="224.59">
 <g transform="translate(-.62878 -.38649)">
  <path fill="#c7b582" d="m58.27 1.5957-5.3965 0.035156-5.3984 0.035156 0.625 0.75c0.73197 0.87742 0.72711 0.57288 0.09961 4.4375-0.77888 4.7969-0.86719 5.345-0.86719 5.4766 0 0.07424 0.31288 0.50234 0.69531 0.95312l0.69531 0.82031h3.8379 3.8359l0.8125-0.70117c0.44637-0.38521 0.87943-0.7649 0.96289-0.84375s0.32405-1.2113 0.5332-2.5176 0.41176-2.5297 0.45117-2.7188l0.07227-0.34375h-2.7598c-1.518 0-2.765 0.014062-2.7695 0.03125-0.08411 0.31915-0.30271 2.2403-0.25977 2.2832 0.03275 0.032749 0.30365 0.060547 0.60156 0.060547 0.61095 0 0.60544-0.016431 0.40625 1.0703-0.19641 1.0715-0.33376 1.1797-1.4941 1.1797-0.68743 0-1.007-0.05158-1.1133-0.17969-0.11724-0.14127-0.05307-0.79202 0.30078-3.0313 0.24782-1.5682 0.47136-2.954 0.49805-3.0781 0.026-0.1246-0.115-0.4092-0.318-0.64-0.201-0.2287-0.365-0.4515-0.365-0.4961 0-0.044541 0.71719-0.066117 1.5938-0.046875l1.5938 0.035156-0.01367 0.71875-0.01367 0.71875h2.0938 2.0957l0.15625-1.0469c0.0856-0.57533 0.11871-1.18 0.07422-1.3438-0.0445-0.16374-0.34766-0.59421-0.67383-0.95703l-0.59375-0.66016zm50.18 0.00195 0.66992 0.81445 0.67188 0.81445-0.16602 1.0312c-0.091 0.56795-0.44302 2.777-0.7832 4.9082-0.34017 2.1313-0.65757 4.116-0.70508 4.4102l-0.0879 0.53516 1.7305-0.03516 1.7305-0.03516 0.51562-3.2812c0.28359-1.8045 0.54981-3.3154 0.5918-3.3574 0.042-0.041996 0.15745 0.11288 0.25586 0.34375 0.0984 0.23087 0.63008 1.4887 1.1816 2.7949 0.55156 1.3062 1.1175 2.6422 1.2598 2.9688l0.25977 0.59375h1.8633 1.8633l0.0664-0.46875c0.037-0.25781 0.46547-2.9674 0.95312-6.0215s0.88672-5.6557 0.88672-5.7812c0-0.20976-0.13612-0.22852-1.6738-0.22852-1.6333 0-1.6747 0.00683-1.7383 0.28125-0.0358 0.15469-0.27524 1.6312-0.53125 3.2812s-0.50085 3.0418-0.54492 3.0918c-0.0441 0.050037-0.70496-1.4125-1.4688-3.25l-1.3887-3.3418-2.707-0.033203-2.7051-0.035156zm69.383 0.00195c-3.8372-0.0084-3.3205 0.023245-2.4492 1.0586l0.48828 0.58008-0.83398 5.2129c-0.45838 2.8678-0.83328 5.3144-0.83203 5.4355 0.002 0.20691 0.27572 0.21833 4.4688 0.1875l4.4648-0.0332 0.19531-1.2246c0.10821-0.67299 0.17233-1.2496 0.14063-1.2812-0.0317-0.0317-1.0892-0.05664-2.3496-0.05664h-2.293l0.01-0.34375c0.004-0.18906 0.075-0.7375 0.1582-1.2188l0.15039-0.875 2.082-0.035156 2.082-0.033203 0.0703-0.3418c0.10381-0.50992 0.32101-1.9424 0.32226-2.1211 0.001-0.11873-0.49447-0.15625-2.0625-0.15625h-2.0644l0.0801-0.66602c0.0733-0.62397 0.0529-0.69556-0.32422-1.125l-0.4043-0.45898h2.8164 2.8144l0.0703-0.34375c0.0844-0.41446 0.32285-1.9309 0.32422-2.0625 0-0.051562-2.3397-0.09375-5.2012-0.09375-0.73752 0-1.3756-0.00271-1.9238-0.00391zm-103.9 0.00391 0.63672 0.76172c0.35484 0.42467 0.63476 0.88632 0.63476 1.0449 0 0.1563-0.36562 2.5625-0.8125 5.3477s-0.8125 5.1286-0.8125 5.207c0 0.10462 1.1725 0.13349 4.4062 0.10938l4.4043-0.0332 0.21094-1.3125c0.11584-0.72188 0.21564-1.3828 0.2207-1.4688 0.007-0.11971-0.53316-0.15625-2.3066-0.15625h-2.3145l0.06445-0.28125c0.07097-0.31145 1.4395-8.9944 1.4395-9.1328 0-0.047796-1.2976-0.085937-2.8848-0.085937h-2.8867zm16.053 0c-2.9734-0.0004926-5.4062 0.034676-5.4062 0.076172s0.2814 0.41106 0.625 0.82227c0.44912 0.53749 0.6082 0.82301 0.56445 1.0176-0.03347 0.14886-0.39861 2.409-0.81055 5.0215s-0.77956 4.9328-0.81836 5.1563l-0.07031 0.40625h4.6465 4.6484l0.51562-0.46875c0.28302-0.25781 0.70706-0.62849 0.94336-0.82422 0.40667-0.33684 0.44189-0.43041 0.65625-1.75 0.92162-5.6735 1.2379-7.7324 1.2031-7.8301-0.02204-0.061946-0.32227-0.45296-0.66602-0.86914l-0.625-0.75586-5.4062-0.00195zm77.031 0c-1.5469 0-2.8125 0.034675-2.8125 0.076172 0 0.041496 0.28384 0.41476 0.63086 0.83008 0.50398 0.60314 0.61823 0.81994 0.56445 1.0801-0.037 0.17913-0.1534 0.88867-0.25976 1.5762-0.10637 0.6875-0.35953 2.2625-0.56055 3.5-0.20103 1.2375-0.45223 2.8125-0.55859 3.5s-0.22446 1.4047-0.26367 1.5938l-0.0723 0.34375h4.4316 4.4316l0.20313-1.3047c0.11175-0.71751 0.20312-1.3925 0.20312-1.5 0-0.17001-0.29273-0.19531-2.25-0.19531-1.8004 0-2.25-0.03356-2.25-0.16797 0-0.09238 0.30937-2.1179 0.6875-4.502 0.37812-2.3841 0.6875-4.446 0.6875-4.582 0-0.23918-0.0933-0.24805-2.8125-0.24805zm21.037 0-0.92969 0.78125c-0.51128 0.42969-0.95504 0.89375-0.98633 1.0312-0.22544 0.99091-0.67465 4.2276-0.60351 4.3496 0.0484 0.083031 0.36563 0.47337 0.70312 0.86719l0.61329 0.71484 2.334 0.035156 2.332 0.033203-0.0254 0.9375c-0.0353 1.2484-0.1348 1.3267-1.5996 1.2871-1.2184-0.03297-1.3256-0.09965-1.2207-0.74609l0.0664-0.41602h-1.8867c-2.1682 0-2.0712-0.05435-2.2148 1.2148l-0.0859 0.76758 0.67188 0.81836 0.66992 0.82031 3.7285 0.002 3.7266 0.002 0.96875-0.82227 0.96875-0.82422 0.33594-2.1445c0.18484-1.1802 0.33593-2.2596 0.33593-2.3984 0-0.13881-0.29441-0.60288-0.65234-1.0312l-0.65039-0.7793h-2.3398c-2.231 0-2.3463-0.011725-2.4219-0.25-0.0436-0.1375-0.0439-0.35837-0.002-0.49023 0.0515-0.16241-0.0472-0.37857-0.30469-0.67188-0.20915-0.23815-0.38086-0.46923-0.38086-0.51172 0-0.042487 0.70249-0.076172 1.5606-0.076172 1.5502 0 1.5606 0.00124 1.6367 0.30469 0.0422 0.16797 0.0411 0.36484-0.004 0.4375-0.056 0.090696 0.54175 0.13281 1.9102 0.13281h1.9941l0.0859-0.59375c0.0471-0.32656 0.114-0.71253 0.14844-0.85742 0.0454-0.19086-0.13224-0.49219-0.64258-1.0938l-0.70507-0.83008h-3.5664-3.5684zm-124.41 0.00781-0.91406 0.83984-0.91406 0.83984-0.23633 1.5625c-0.12973 0.85938-0.37256 2.4062-0.54102 3.4375-0.16846 1.0312-0.37758 2.3871-0.46484 3.0137l-0.16016 1.1406 0.67774 0.82617 0.67773 0.82812 3.8223 0.002 3.8223 0.002 0.95898-0.82227c0.5276-0.45197 0.98729-0.94416 1.0215-1.0938 0.06064-0.26529 0.13163-0.71516 0.93164-5.8965 0.2123-1.375 0.41252-2.621 0.44531-2.7695 0.04246-0.19225-0.12878-0.50542-0.5957-1.0879l-0.65625-0.81836-3.9375-0.00195-3.9375-0.00195zm93.219 0c-2.9734-0.00462-5.4062 0.024268-5.4062 0.0625s0.27944 0.4137 0.62109 0.83594c0.42661 0.52722 0.60287 0.84922 0.5625 1.0254-0.0809 0.35304-1.2797 8.0372-1.3301 8.5254-0.0333 0.32284 0.0835 0.54281 0.64062 1.2188l0.67969 0.82422h3.8496 3.8516l0.97266-0.85742 0.97265-0.85742 0.35352-2.2988c0.19454-1.2646 0.38176-2.4816 0.41797-2.7051l0.0664-0.40625h-2.7441-2.7441l-0.14843 0.96875c-0.22225 1.4602-0.2402 1.4062 0.46093 1.4062h0.60743l-0.16602 0.95117c-0.1076 0.61877-0.24396 1.0113-0.38867 1.1211-0.14111 0.10706-0.57434 0.17131-1.1856 0.17383-0.79515 0.0033-0.98421-0.03447-1.0762-0.21484-0.0729-0.14306 0.0575-1.2693 0.37695-3.2539l0.48828-3.0332-0.38476-0.4668-0.38282-0.46484 1.5156-0.035156c0.97571-0.022656 1.5762 0.014428 1.6836 0.10352 0.1179 0.097848 0.14527 0.31888 0.0937 0.75391l-0.0723 0.61523h2.0742 2.0742l0.0664-0.40625c0.0366-0.22344 0.12641-0.7588 0.19922-1.1895l0.13086-0.7832-0.66211-0.80273-0.66211-0.80078-5.4062-0.00977zm-9.1094 0.00977c-0.78-0.0007974-1.8502 0.00267-3.0234 0.011719l-4.2676 0.033203 0.62305 0.72852c0.34212 0.40088 0.62109 0.80003 0.62109 0.88672 0 0.086685-0.34193 1.0247-0.76172 2.084-2.5883 6.5316-3.3633 8.5152-3.3633 8.623 0 0.07493 0.77532 0.10909 2.0234 0.08789l2.0215-0.03516 0.44141-1.2188 0.44336-1.2188h1.7227 1.7226v1.25 1.25h2 2v-0.36133c0-0.19902-0.0827-1.4225-0.18359-2.7188-0.10091-1.2963-0.30035-3.9309-0.44336-5.8535-0.143-1.9226-0.27636-3.5127-0.29688-3.5332-0.0103-0.010261-0.49928-0.014827-1.2793-0.015625zm-42.91 0.0039c-0.61985 0.001-1.2981 0.00332-2.0078 0.00781l-5.1621 0.033203 0.6582 0.78711 0.6582 0.78906-0.33789 2.1484c-0.18589 1.1821-0.55802 3.51-0.82812 5.1719-0.27011 1.6618-0.49219 3.1395-0.49219 3.2832 0 0.26081 0.0094 0.26128 4.4668 0.22852l4.4668-0.0332 0.1504-0.875c0.0833-0.48125 0.15592-1.0578 0.16015-1.2812l0.008-0.40625h-2.3125-2.3125l0.008-0.34375c0.004-0.18906 0.075-0.7375 0.1582-1.2188l0.15234-0.875 2.0879-0.035156c2.383-0.03908 2.0878 0.14075 2.3359-1.4121 0.21729-1.3652 0.41275-1.2402-1.9219-1.2402h-2.0527l0.0684-0.66602c0.0638-0.61779 0.0402-0.69889-0.33398-1.125l-0.4043-0.45898h2.8164 2.8144l0.0703-0.34375c0.19204-0.95172 0.34755-2.0509 0.29688-2.1016-0.0236-0.023549-1.3514-0.036215-3.2109-0.033203zm30 0c-0.61992 0.0009433-1.2981 0.00332-2.0078 0.00781l-5.1621 0.033203 0.6582 0.78711 0.6582 0.78711-0.83203 5.2129c-0.45681 2.867-0.82937 5.3124-0.82812 5.4336 0.002 0.20691 0.27416 0.21833 4.4707 0.1875l4.4688-0.0332 0.14844-0.9375c0.0816-0.51562 0.152-1.0922 0.15625-1.2812l0.01-0.34375h-2.3555-2.3535l0.20117-1.2188 0.20117-1.2188 2.0879-0.035156c2.3824-0.03908 2.0878 0.14074 2.3359-1.4121 0.21797-1.3653 0.41241-1.2402-1.9258-1.2402h-2.0566l0.0762-0.62891c0.068-0.57443 0.0401-0.67171-0.32422-1.125l-0.40039-0.49609h2.8086 2.8086l0.0644-0.34375c0.25667-1.3815 0.35284-2.0515 0.30274-2.1016-0.024-0.024042-1.3512-0.036033-3.2109-0.033203zm-44.27 2.4785c1.324 0 1.6239 0.033964 1.6836 0.18945 0.12282 0.32006-0.93043 6.846-1.1445 7.0918-0.15461 0.17748-0.39787 0.21875-1.2949 0.21875-0.60809 0-1.1074-0.03309-1.1074-0.07227s0.228-1.5046 0.50586-3.2578l0.50586-3.1875-0.38086-0.43359c-0.20911-0.23816-0.38086-0.45825-0.38086-0.49023 0-0.031983 0.72689-0.058594 1.6133-0.058594zm53.492 0h0.74805 0.74804l0.0762 1.5938c0.0424 0.87656 0.10706 1.9734 0.14453 2.4375l0.0684 0.84375h-1.1328c-0.82151 0-1.1331-0.042914-1.1348-0.15625-0.001-0.085937 0.28771-0.95661 0.64062-1.9336l0.63-1.7755-0.4-0.5059-0.4-0.5039zm-76.895 0.015625c1.2763-0.010275 1.2919 0.11616 1.1621 0.98438-0.64387 4.3087-1.002 6.1947-1.2031 6.3418-0.13215 0.09663-0.60158 0.1582-1.1973 0.1582-0.79498 0-0.99446-0.03992-1.0586-0.20703-0.04348-0.11331 0.04556-0.99925 0.19726-1.9687 0.15171-0.9695 0.3611-2.3369 0.4668-3.041l0.19336-1.2812-0.38867-0.46875-0.38672-0.4707 1.5879-0.035156c0.23705-0.00525 0.44462-0.010253 0.62695-0.011719z"/>
  <path fill="#001548" d="m84.27 21.088c-5.3313 0.01042-7.9863 0.03649-7.9609 0.07813 0.04192 0.06875 1.8849 2.2906 4.0957 4.9375l4.0195 4.8125-1.0449 6.5c-0.57394 3.575-1.3788 8.6094-1.7891 11.188-0.4103 2.5781-1.9574 12.309-3.4395 21.625-1.4821 9.3156-2.7302 17.101-2.7715 17.301l-0.07422 0.36328 1.4199-0.08203c5.6665-0.3244 13.579-0.6318 20.18-0.7832l3.6328-0.08203 1.2246-7.6406c0.67406-4.2016 1.2818-7.9621 1.3496-8.3574l0.12305-0.71875h5.9668 5.9668l0.83 1.05c0.45797 0.5779 0.83203 1.138 0.83203 1.2441 0 0.10609-0.50659 3.3816-1.127 7.2793-0.62036 3.8977-1.1126 7.098-1.0938 7.1113 0.0188 0.01336 2.8176 0.09074 6.2207 0.17188 6.5194 0.15542 9.9784 0.28571 15.309 0.57812 1.785 0.09793 3.2688 0.15502 3.2969 0.12695s0.15142-0.68632 0.27539-1.4629c2.0152-12.622 2.4971-15.744 2.4414-15.834-0.0364-0.05888-1.4708-1.78-3.1875-3.8242l-3.1211-3.7168 1.0274-0.89453c0.56488-0.49133 2.5466-2.2 4.4043-3.7969l3.377-2.9023 1.9043-12.098c1.0473-6.6531 1.9034-12.158 1.9024-12.232-0.002-0.07482-1.8308-2.3248-4.0645-5l-4.0605-4.8633-32.053-0.0625c-10.683-0.021-18.689-0.027-24.02-0.016zm-62.504 0.01563-5.6855 4.8809c-3.9903 3.4264-5.7123 4.982-5.7793 5.2188-0.05251 0.18554-0.59952 3.5441-1.2148 7.4629-0.61533 3.9188-2.5224 16.012-4.2383 26.875-1.7158 10.862-3.1395 19.931-3.1621 20.152-0.037391 0.36625 0.32438 0.83732 4.0723 5.3223l4.1133 4.9219 1.1367-0.23438c7.5587-1.5665 19.682-3.4608 30.637-4.7871 6.9788-0.84494 20.463-2.1875 21.973-2.1875 0.5283 0 0.63177-0.06691 2.0996-1.3535l1.5449-1.3535 4.4043-27.539 4.4043-27.541-3.1426-3.7617c-1.7285-2.0697-3.586-4.284-4.1289-4.9199l-0.98828-1.1562h-23.023-23.021zm127.44 0 4.0762 4.8711 4.0742 4.873-0.50977 3.2207c-0.28052 1.7721-0.84429 5.332-1.2539 7.9102-0.40962 2.5781-2.1268 13.406-3.8164 24.062s-3.1001 19.516-3.1348 19.688c-0.0513 0.25423 0.13702 0.5512 1.0117 1.5898 1.2164 1.4444 0.93433 1.3229 3.5547 1.5391 10.452 0.86216 24.583 2.6594 35.938 4.5703 3.2684 0.55004 11.359 2.0429 12.375 2.2832 1.0488 0.24804 0.78053 0.43695 6.7363-4.7305 3.0854-2.677 5.6246-4.8844 5.6445-4.9043 0.0354-0.03539 0.57263-3.3874 4.9336-30.848 4.3849-27.611 5.3774-33.817 5.4336-33.969 0.0459-0.12435-2.5077-0.15625-12.502-0.15625-6.9072 0-12.56 0.04219-12.562 0.09375s-2.0694 13.068-4.5937 28.924l-4.5898 28.828-1.1465 1.0156-1.1484 1.0137h-5.7422-5.7402l-0.75196-0.9082-0.75195-0.9082 1.5449-9.748c0.84939-5.3615 1.9098-12.054 2.3574-14.873 0.44762-2.8188 1.7984-11.341 3-18.938 1.2016-7.5969 2.2132-13.967 2.248-14.156l0.0625-0.34375h-17.373-17.373zm-37.449 14.875h9.0469l0.82618 0.92383 0.82812 0.92578-1.2148 7.5957-1.2168 7.5977-1.3652 1.1641v-0.002l-1.3652 1.1641h-5.7891c-3.3569-0.000083-5.8165-0.04706-5.8574-0.11328-0.0388-0.06279 0.38038-2.969 0.93164-6.459s1.0023-6.4624 1.002-6.6035c-0.00036-0.15015-1.0111-1.458-2.4375-3.1562-1.3403-1.5957-2.4375-2.9316-2.4375-2.9688 0-0.03714 4.0729-0.06836 9.0488-0.06836zm-73.33 0.0039 9.9688 0.002 0.74414 0.89648c0.49223 0.59331 0.73652 0.99435 0.7207 1.1855-0.01315 0.15894-1.459 9.3927-3.2129 20.518-1.7538 11.125-3.1895 20.26-3.1895 20.301 0 0.04095-0.54515 0.52865-1.2129 1.084l-1.2148 1.0098h-5.8887-5.8887l-0.75-0.92383-0.74805-0.92188 1.1523-7.2969c0.63422-4.0127 1.9454-12.318 2.9141-18.457l1.7617-11.164-2.5625-3.0605c-1.409-1.6836-2.5625-3.0875-2.5625-3.1191 0-0.03165 4.4859-0.05443 9.9688-0.05273z"/>
 </g>
</svg>
