<?xml version="1.0" encoding="UTF-8"?>
<svg version="1.1" xmlns="http://www.w3.org/2000/svg" width="205" height="246">
<path d="M0 0 C1.4767468 -0.00389878 2.9534925 -0.00823582 4.43023682 -0.01298523 C7.51309862 -0.02040599 10.59584583 -0.02018727 13.67871094 -0.01489258 C17.58952893 -0.00911454 21.49987073 -0.02600863 25.4106102 -0.04923725 C28.45821786 -0.06411981 31.50571478 -0.06482662 34.55335236 -0.06172752 C35.99315582 -0.06223385 37.43296665 -0.06733878 38.87273407 -0.07753944 C61.73523186 -0.21963345 82.47687351 6.86444878 98.953125 22.98828125 C114.40992448 38.85878489 121.9525537 59.04188929 121.93115234 81.10205078 C121.93786957 82.11998215 121.94458679 83.13791351 121.95150757 84.18669128 C121.97035083 87.51904315 121.97440509 90.85119207 121.9765625 94.18359375 C121.98300079 96.52611368 121.9897299 98.86863282 121.99673462 101.21115112 C122.00867393 106.11148948 122.01241898 111.01175752 122.01123047 115.91210938 C122.01102768 122.1486878 122.03830386 128.38480851 122.07277489 134.62127876 C122.0951665 139.45844537 122.09906424 144.29550404 122.09801102 149.13271713 C122.10034956 151.42970223 122.10907278 153.72669112 122.12467575 156.02362442 C122.28704521 182.39818904 117.57784348 203.9540513 99.1484375 223.8515625 C81.50536815 241.0824106 60.59213234 246.42478783 36.640625 246.50390625 C35.63900833 246.50814732 35.63900833 246.50814732 34.61715698 246.51247406 C31.077938 246.52739627 27.53875899 246.53666767 23.99951172 246.54101562 C21.1077809 246.54538759 18.21635057 246.55923852 15.32470703 246.58203125 C-14.6122637 246.81322719 -39.37563819 244.59275469 -62.171875 223.05078125 C-81.63093257 202.74198318 -83.83747616 178.90261911 -83.79296875 152.30078125 C-83.79754004 149.8919256 -83.8028484 147.48307125 -83.80885315 145.07421875 C-83.8177424 140.04812287 -83.81540827 135.02218624 -83.80541992 129.99609375 C-83.79392459 123.59126363 -83.81417267 117.18698441 -83.84333706 110.78222656 C-83.86177857 105.81474381 -83.86139096 100.84739124 -83.85569954 95.87988281 C-83.85554736 93.5198489 -83.86150519 91.15980558 -83.87399101 88.79980469 C-83.94661986 72.82770562 -83.29349812 58.4436374 -75.609375 44.05078125 C-75.26430908 43.38804199 -74.91924316 42.72530273 -74.5637207 42.04248047 C-64.19245585 22.60901394 -48.946553 11.05470225 -28.6875 3.30859375 C-19.11670186 0.41039431 -9.96585643 -0.01107586 0 0 Z " fill="#050303" transform="translate(83.359375,-0.30078125)"/>
<path d="M0 0 C1.4767468 -0.00389878 2.9534925 -0.00823582 4.43023682 -0.01298523 C7.51309862 -0.02040599 10.59584583 -0.02018727 13.67871094 -0.01489258 C17.58952893 -0.00911454 21.49987073 -0.02600863 25.4106102 -0.04923725 C28.45821786 -0.06411981 31.50571478 -0.06482662 34.55335236 -0.06172752 C35.99315582 -0.06223385 37.43296665 -0.06733878 38.87273407 -0.07753944 C61.73523186 -0.21963345 82.47687351 6.86444878 98.953125 22.98828125 C114.40992448 38.85878489 121.9525537 59.04188929 121.93115234 81.10205078 C121.93786957 82.11998215 121.94458679 83.13791351 121.95150757 84.18669128 C121.97035083 87.51904315 121.97440509 90.85119207 121.9765625 94.18359375 C121.98300079 96.52611368 121.9897299 98.86863282 121.99673462 101.21115112 C122.00867393 106.11148948 122.01241898 111.01175752 122.01123047 115.91210938 C122.01102768 122.1486878 122.03830386 128.38480851 122.07277489 134.62127876 C122.0951665 139.45844537 122.09906424 144.29550404 122.09801102 149.13271713 C122.10034956 151.42970223 122.10907278 153.72669112 122.12467575 156.02362442 C122.28704521 182.39818904 117.57784348 203.9540513 99.1484375 223.8515625 C81.50536815 241.0824106 60.59213234 246.42478783 36.640625 246.50390625 C35.63900833 246.50814732 35.63900833 246.50814732 34.61715698 246.51247406 C31.077938 246.52739627 27.53875899 246.53666767 23.99951172 246.54101562 C21.1077809 246.54538759 18.21635057 246.55923852 15.32470703 246.58203125 C-14.6122637 246.81322719 -39.37563819 244.59275469 -62.171875 223.05078125 C-81.63093257 202.74198318 -83.83747616 178.90261911 -83.79296875 152.30078125 C-83.79754004 149.8919256 -83.8028484 147.48307125 -83.80885315 145.07421875 C-83.8177424 140.04812287 -83.81540827 135.02218624 -83.80541992 129.99609375 C-83.79392459 123.59126363 -83.81417267 117.18698441 -83.84333706 110.78222656 C-83.86177857 105.81474381 -83.86139096 100.84739124 -83.85569954 95.87988281 C-83.85554736 93.5198489 -83.86150519 91.15980558 -83.87399101 88.79980469 C-83.94661986 72.82770562 -83.29349812 58.4436374 -75.609375 44.05078125 C-75.26430908 43.38804199 -74.91924316 42.72530273 -74.5637207 42.04248047 C-64.19245585 22.60901394 -48.946553 11.05470225 -28.6875 3.30859375 C-19.11670186 0.41039431 -9.96585643 -0.01107586 0 0 Z M-40.359375 44.30078125 C-49.85329012 55.72128584 -53.48448612 67.59718133 -53.55224609 82.19897461 C-53.56042358 83.18037415 -53.56860107 84.16177368 -53.57702637 85.1729126 C-53.60178023 88.41214405 -53.61837471 91.65133182 -53.6328125 94.890625 C-53.63813618 96.00275423 -53.64345985 97.11488346 -53.64894485 98.26071358 C-53.67563862 104.15239903 -53.6950218 110.04406361 -53.70947266 115.93579102 C-53.72278159 120.78819758 -53.75058427 125.64018064 -53.79150391 130.49243164 C-53.84109005 136.37385088 -53.86562575 142.25488773 -53.87269974 148.13650703 C-53.87937018 150.36539451 -53.89448082 152.59427486 -53.91859055 154.82304192 C-54.08574132 171.21572078 -53.28333649 186.08252714 -42.359375 199.30078125 C-41.80894531 199.98527344 -41.25851563 200.66976562 -40.69140625 201.375 C-33.39878293 209.53838432 -21.46737611 215.75743181 -10.46855164 216.49450684 C-6.90730496 216.58192164 -3.35139151 216.60414462 0.2109375 216.6015625 C1.52415985 216.60584763 2.8373822 216.61013275 4.19039917 216.61454773 C6.96584113 216.62198446 9.74115586 216.62173911 12.51660156 216.61645508 C16.03639572 216.61069039 19.55565849 216.62753028 23.07536507 216.65079975 C26.47474217 216.66927539 29.8740108 216.66534732 33.2734375 216.6640625 C34.51868195 216.67327225 35.76392639 216.68248199 37.04690552 216.69197083 C52.35164406 216.61237594 65.43759335 213.32098679 76.890625 202.80078125 C87.19294962 191.92428249 90.94577914 178.7211882 90.93115234 164.03027344 C90.93786957 163.04522324 90.94458679 162.06017303 90.95150757 161.04527283 C90.97038999 157.8126816 90.9744069 154.58029908 90.9765625 151.34765625 C90.98299739 149.08237628 90.98972625 146.81709712 90.99673462 144.55181885 C91.00868316 139.81105626 91.01241795 135.07036641 91.01123047 130.32958984 C91.01102747 124.2831247 91.03832155 118.23713053 91.07277489 112.19077682 C91.09511623 107.51332497 91.09906578 102.83598514 91.09801102 98.15848541 C91.10035639 95.93076201 91.10911927 93.70303501 91.12467575 91.47536469 C91.24548383 72.38877086 89.17840737 56.8135324 75.66796875 42.1796875 C64.18434129 31.53686513 50.56961446 28.6632363 35.34375 28.83984375 C34.02953064 28.84076019 32.71531128 28.84167664 31.36126709 28.84262085 C28.604718 28.84571758 25.84870059 28.86204281 23.09228516 28.88916016 C19.58354224 28.92327024 16.07537577 28.93078289 12.56648636 28.92926979 C9.1796656 28.92994798 5.7930287 28.9476389 2.40625 28.96484375 C1.15918274 28.9670694 -0.08788452 28.96929504 -1.3727417 28.97158813 C-16.30716071 29.13326687 -29.95046046 32.96813187 -40.359375 44.30078125 Z " fill="#363536" transform="translate(83.359375,-0.30078125)"/>
<path d="M0 0 C1.17239731 -0.01606293 2.34479462 -0.03212585 3.55271912 -0.04867554 C8.91779786 -0.09361946 14.28273566 -0.13463401 19.64794922 -0.15722656 C22.46338921 -0.1704932 25.27809188 -0.19822035 28.09326172 -0.23925781 C65.69099403 -0.77467365 65.69099403 -0.77467365 80.95727539 13.19287109 C91.66815533 24.25281916 96.27294344 37.20069792 96.23193359 52.3815918 C96.23704453 53.36970856 96.24215546 54.35782532 96.24742126 55.37588501 C96.26125494 58.62353675 96.26036497 61.87097474 96.25805664 65.11865234 C96.26194735 67.39015277 96.26628279 69.66165247 96.27104187 71.93315125 C96.27849099 76.68828695 96.27822253 81.4433484 96.27294922 86.19848633 C96.26716037 92.27088495 96.28407809 98.34297798 96.30729389 104.41532612 C96.32207746 109.10556291 96.32289657 113.79572693 96.31978416 118.48598289 C96.32029518 120.72372225 96.32549138 122.96146591 96.33559608 125.19918251 C96.34803112 128.3383083 96.34112615 131.47684929 96.32958984 134.6159668 C96.33723358 135.52697647 96.34487732 136.43798615 96.35275269 137.37660217 C96.2453822 150.69732514 91.53302834 163.66957972 82.45727539 173.50537109 C70.01949361 185.13769411 55.54329351 187.49934087 39.05883789 187.52880859 C37.74748871 187.53546539 36.43613953 187.54212219 35.08505249 187.54898071 C32.32335107 187.56087581 29.56177401 187.5646695 26.80004883 187.56347656 C23.2946871 187.5632735 19.79013718 187.5905964 16.28496742 187.62502098 C12.89708183 187.65285348 9.50933586 187.65144432 6.12133789 187.65380859 C4.88034332 187.66817963 3.63934875 187.68255066 2.36074829 187.69735718 C-12.01544374 187.62290071 -24.2113757 182.83662894 -34.79272461 173.06787109 C-44.40454916 162.9635679 -48.52242345 149.48132722 -48.4309082 135.79296875 C-48.43616516 134.80616623 -48.44142212 133.81936371 -48.44683838 132.80265808 C-48.45994183 129.57058442 -48.45133313 126.33901146 -48.44116211 123.10693359 C-48.44318594 120.84068712 -48.44609994 118.57444128 -48.44985962 116.30819702 C-48.4542702 111.56917085 -48.44789386 106.8303149 -48.43383789 102.09130859 C-48.41676662 96.04370849 -48.42658251 89.99650849 -48.44455528 83.94892311 C-48.45544405 79.2715051 -48.45192313 74.59418046 -48.44417191 69.91675949 C-48.44218294 67.68822557 -48.44458289 65.45968294 -48.45161057 63.23115921 C-48.49755766 44.56467245 -47.43970368 28.43457612 -34.01538086 14.03662109 C-24.28572214 4.94276186 -13.31107671 0.16699573 0 0 Z M-22.04272461 27.19287109 C-28.9265177 35.90270854 -31.35340436 43.6832937 -31.30151367 54.56542969 C-31.30501831 55.47858444 -31.30852295 56.3917392 -31.31213379 57.33256531 C-31.32089848 60.33555828 -31.31511955 63.33831344 -31.30834961 66.34130859 C-31.309698 68.4396672 -31.31163999 70.53802551 -31.31414795 72.63638306 C-31.31709229 77.02926617 -31.3128246 81.42206779 -31.3034668 85.81494141 C-31.29208683 91.42902319 -31.29862696 97.04291342 -31.31061172 102.65698814 C-31.31786096 106.98942491 -31.31552809 111.32181675 -31.31035614 115.65425491 C-31.30902738 117.72338509 -31.31064008 119.79251942 -31.31531525 121.86164474 C-31.32042936 124.76171312 -31.31260134 127.66147753 -31.30151367 130.56152344 C-31.30556213 131.4064888 -31.3096106 132.25145416 -31.31378174 133.12202454 C-31.24864295 142.38063031 -29.75525586 152.06144817 -23.28491211 159.10693359 C-15.90992377 165.90349148 -8.58422742 169.26536405 1.47509766 169.36987305 C3.09817589 169.3891259 3.09817589 169.3891259 4.75404358 169.4087677 C5.91552414 169.41615463 7.0770047 169.42354156 8.27368164 169.43115234 C9.48112534 169.43922409 10.68856903 169.44729584 11.93260193 169.45561218 C14.48874485 169.46943296 17.04490606 169.48016407 19.60107422 169.48803711 C22.20106456 169.49953791 24.80103164 169.51995922 27.40087891 169.54956055 C31.17114196 169.59247255 34.94070392 169.6084412 38.71118164 169.61865234 C40.43214806 169.64491447 40.43214806 169.64491447 42.18788147 169.67170715 C53.26441497 169.64235778 62.93144755 167.35803515 71.04711914 159.47802734 C77.83509522 151.35744247 79.10279276 143.10305909 79.13427734 132.89550781 C79.14084854 131.96635056 79.14741974 131.0371933 79.15419006 130.07987976 C79.17386819 127.01077179 79.18557457 123.94171268 79.19555664 120.87255859 C79.19963217 119.82071507 79.2037077 118.76887154 79.20790672 117.68515396 C79.22874587 112.11578825 79.24305592 106.54644701 79.25244141 100.97705078 C79.26349054 95.24417278 79.2978797 89.51168453 79.33761311 83.77894402 C79.36384388 79.35378328 79.37213907 74.92871445 79.37572289 70.50348282 C79.3805735 68.3913218 79.39214361 66.27916446 79.41076088 64.16707993 C79.70531376 44.13828767 79.70531376 44.13828767 69.95727539 27.19287109 C60.50136919 19.11236943 49.70300564 17.72605047 37.64086914 17.79443359 C36.50375992 17.79156342 35.3666507 17.78869324 34.19508362 17.78573608 C31.80762225 17.78370775 29.42014379 17.78915071 27.03271484 17.80175781 C23.4010672 17.81784323 19.77052981 17.80185831 16.13891602 17.78271484 C13.8062313 17.7846972 11.47354726 17.78854072 9.14086914 17.79443359 C8.06767929 17.7883609 6.99448944 17.78228821 5.88877869 17.77603149 C-4.49853433 17.87187811 -14.20346282 20.00688112 -22.04272461 27.19287109 Z " fill="#868686" transform="translate(78.042724609375,28.80712890625)"/>
<path d="M0 0 C2.62867116 -0.01650098 5.25729854 -0.0437124 7.88574219 -0.08203125 C32.03557454 -0.43117082 52.74790619 1.31777939 71.14282227 18.70556641 C80.28599113 28.83637708 87.63300315 42.02064583 87.66325378 55.94621277 C87.66965126 57.28531708 87.66965126 57.28531708 87.67617798 58.651474 C87.67572479 59.61831619 87.67527161 60.58515839 87.67480469 61.58129883 C87.6781633 62.60959808 87.68152191 63.63789734 87.6849823 64.69735718 C87.69447851 68.09593923 87.69643493 71.49447191 87.69750977 74.89306641 C87.70072391 77.26093058 87.70408811 79.62879456 87.70759583 81.99665833 C87.71358423 86.96221375 87.71543608 91.92775177 87.71484375 96.89331055 C87.71474229 103.24046726 87.72837889 109.58751169 87.74561596 115.93464184 C87.75676414 120.82728075 87.75876207 125.71989279 87.75823402 130.61254311 C87.75941049 132.95158588 87.76381347 135.29062943 87.77156639 137.62965965 C87.78142049 140.91049299 87.77846653 144.19108619 87.77246094 147.47192383 C87.77808044 148.42864487 87.78369995 149.38536591 87.78948975 150.37107849 C87.70916351 167.73736097 81.53699797 180.91184202 69.77954102 193.60009766 C56.09740753 206.74250201 37.83603635 210.82797229 19.47875977 210.78369141 C18.18114212 210.78893326 16.88352448 210.79417511 15.54658508 210.79957581 C12.81953074 210.80842771 10.09277043 210.80617707 7.36572266 210.79614258 C4.60499744 210.78695966 1.84511841 210.79386551 -0.91552734 210.81665039 C-24.77488562 211.01245143 -47.37120113 210.06087074 -65.55249023 192.45947266 C-81.37769748 175.05496774 -82.78815732 155.66838735 -82.77124023 133.36572266 C-82.77513485 131.22019367 -82.77947107 129.07466544 -82.78422546 126.92913818 C-82.79166038 122.44410701 -82.79141668 117.95915458 -82.78613281 113.47412109 C-82.78034828 107.76427918 -82.79725821 102.05476271 -82.82047749 96.34497452 C-82.83530642 91.91622067 -82.83607403 87.48754351 -82.83296776 83.05876923 C-82.83347659 80.95551663 -82.83863065 78.85225924 -82.84877968 76.74903107 C-82.93820203 55.62499839 -81.23290977 36.74328429 -66.47045898 20.35009766 C-65.94967773 19.72490234 -65.42889648 19.09970703 -64.89233398 18.45556641 C-48.21584672 -0.20020092 -22.93852955 0.10515091 0 0 Z M-56.47045898 26.35009766 C-65.9643741 37.77060225 -69.59557011 49.64649774 -69.66333008 64.24829102 C-69.67150757 65.22969055 -69.67968506 66.21109009 -69.68811035 67.222229 C-69.71286422 70.46146045 -69.72945869 73.70064822 -69.74389648 76.93994141 C-69.74922016 78.05207064 -69.75454384 79.16419987 -69.76002884 80.31002998 C-69.7867226 86.20171543 -69.80610579 92.09338002 -69.82055664 97.98510742 C-69.83386558 102.83751399 -69.86166825 107.68949704 -69.90258789 112.54174805 C-69.95217403 118.42316729 -69.97670974 124.30420414 -69.98378372 130.18582344 C-69.99045416 132.41471091 -70.0055648 134.64359127 -70.02967453 136.87235832 C-70.1968253 153.26503719 -69.39442047 168.13184354 -58.47045898 181.35009766 C-57.9200293 182.03458984 -57.36959961 182.71908203 -56.80249023 183.42431641 C-49.50986691 191.58770072 -37.5784601 197.80674821 -26.57963562 198.54382324 C-23.01838895 198.63123804 -19.46247549 198.65346103 -15.90014648 198.65087891 C-14.58692413 198.65516403 -13.27370178 198.65944916 -11.92068481 198.66386414 C-9.14524286 198.67130086 -6.36992812 198.67105552 -3.59448242 198.66577148 C-0.07468826 198.6600068 3.44457451 198.67684668 6.96428108 198.70011616 C10.36365818 198.7185918 13.76292682 198.71466373 17.16235352 198.71337891 C18.40759796 198.72258865 19.65284241 198.7317984 20.93582153 198.74128723 C36.24056007 198.66169235 49.32650937 195.3703032 60.77954102 184.85009766 C71.08186564 173.97359889 74.83469516 160.7705046 74.82006836 146.07958984 C74.82678558 145.09453964 74.83350281 144.10948944 74.84042358 143.09458923 C74.859306 139.861998 74.86332291 136.62961549 74.86547852 133.39697266 C74.8719134 131.13169268 74.87864227 128.86641353 74.88565063 126.60113525 C74.89759918 121.86037267 74.90133397 117.11968282 74.90014648 112.37890625 C74.89994348 106.3324411 74.92723757 100.28644693 74.9616909 94.24009323 C74.98403225 89.56264137 74.9879818 84.88530155 74.98692703 80.20780182 C74.98927241 77.98007841 74.99803529 75.75235141 75.01359177 73.52468109 C75.13439984 54.43808726 73.06732339 38.86284881 59.55688477 24.22900391 C48.0732573 13.58618154 34.45853047 10.7125527 19.23266602 10.88916016 C17.91844666 10.8900766 16.60422729 10.89099304 15.25018311 10.89193726 C12.49363402 10.89503398 9.7376166 10.91135922 6.98120117 10.93847656 C3.47245826 10.97258665 -0.03570821 10.9800993 -3.54459763 10.9785862 C-6.93141839 10.97926438 -10.31805529 10.99695531 -13.70483398 11.01416016 C-14.95190125 11.0163858 -16.19896851 11.01861145 -17.48382568 11.02090454 C-32.41824469 11.18258327 -46.06154444 15.01744828 -56.47045898 26.35009766 Z " fill="#010101" transform="translate(99.470458984375,17.64990234375)"/>
<path d="M0 0 C1.13423904 -0.0066568 2.26847809 -0.0133136 3.43708801 -0.02017212 C5.82986845 -0.03026282 8.22267682 -0.03499025 10.61547852 -0.03466797 C14.2408796 -0.03902804 17.86504926 -0.07535214 21.49023438 -0.11328125 C49.67153898 -0.25024357 49.67153898 -0.25024357 59.59375 7.80078125 C67.6489921 16.10973177 70.55034843 25.76875427 70.47021484 37.10327148 C70.4754718 38.03461914 70.48072876 38.9659668 70.48614502 39.92553711 C70.49925565 42.97787682 70.49063793 46.02968702 70.48046875 49.08203125 C70.48249222 51.2199768 70.48540593 53.35792167 70.48916626 55.49586487 C70.49357767 59.96679281 70.48719727 64.43754037 70.47314453 68.90844727 C70.45606393 74.61885939 70.46589446 80.32884808 70.48386192 86.03924465 C70.49474057 90.45151415 70.49123454 94.8636845 70.48347855 99.27595711 C70.48148728 101.38054518 70.48389781 103.48514246 70.49091721 105.58971977 C70.49859787 108.53978946 70.48683486 111.48918878 70.47021484 114.43920898 C70.47628754 115.29613846 70.48236023 116.15306793 70.48861694 117.03596497 C70.42116909 123.5492595 69.88696513 131.53100362 65.08203125 136.3359375 C64.09203125 136.3359375 63.10203125 136.3359375 62.08203125 136.3359375 C60.74221639 136.6421809 59.40691238 136.97045305 58.08203125 137.3359375 C59.18880208 135.64322917 60.29557292 133.95052083 61.40234375 132.2578125 C62.30759704 130.32284861 62.30759704 130.32284861 61.41015625 128.30859375 C53.96669081 117.25285832 39.54863138 111.25265149 27.08203125 108.3359375 C24.77203125 108.0059375 22.46203125 107.6759375 20.08203125 107.3359375 C20.08203125 102.0559375 20.08203125 96.7759375 20.08203125 91.3359375 C21.73203125 91.9959375 23.38203125 92.6559375 25.08203125 93.3359375 C24.75203125 91.6859375 24.42203125 90.0359375 24.08203125 88.3359375 C31.34203125 88.0059375 38.60203125 87.6759375 46.08203125 87.3359375 C46.74203125 85.6859375 47.40203125 84.0359375 48.08203125 82.3359375 C43.13203125 82.3359375 38.18203125 82.3359375 33.08203125 82.3359375 C33.57703125 80.8509375 33.57703125 80.8509375 34.08203125 79.3359375 C35.27441406 79.29855469 36.46679688 79.26117188 37.6953125 79.22265625 C39.26175025 79.15699718 40.82815509 79.09054982 42.39453125 79.0234375 C43.18021484 79.00087891 43.96589844 78.97832031 44.77539062 78.95507812 C45.53271484 78.91962891 46.29003906 78.88417969 47.0703125 78.84765625 C47.76680908 78.82147217 48.46330566 78.79528809 49.1809082 78.76831055 C51.54175993 78.40889526 51.54175993 78.40889526 54.08203125 75.3359375 C47.15203125 74.8409375 47.15203125 74.8409375 40.08203125 74.3359375 C40.57703125 72.8509375 40.57703125 72.8509375 41.08203125 71.3359375 C42.27441406 71.31015625 43.46679688 71.284375 44.6953125 71.2578125 C46.26175545 71.20153311 47.82816028 71.14418573 49.39453125 71.0859375 C50.18021484 71.07175781 50.96589844 71.05757813 51.77539062 71.04296875 C52.53271484 71.01074219 53.29003906 70.97851562 54.0703125 70.9453125 C55.11505737 70.9138916 55.11505737 70.9138916 56.1809082 70.88183594 C58.68520306 70.36967003 58.68520306 70.36967003 61.08203125 66.3359375 C44.25203125 66.0059375 27.42203125 65.6759375 10.08203125 65.3359375 C10.08203125 64.3459375 10.08203125 63.3559375 10.08203125 62.3359375 C13.38203125 62.3359375 16.68203125 62.3359375 20.08203125 62.3359375 C20.08203125 57.0559375 20.08203125 51.7759375 20.08203125 46.3359375 C22.43328125 45.8203125 24.78453125 45.3046875 27.20703125 44.7734375 C40.23145143 41.63099526 50.60639104 35.9486221 60.08203125 26.3359375 C60.74203125 25.6759375 61.40203125 25.0159375 62.08203125 24.3359375 C61.7755108 21.3933412 61.40931971 18.99051442 60.08203125 16.3359375 C57.05994563 17.45522847 55.90867352 18.55377718 53.859375 21.12890625 C51.10015661 24.51173138 48.01983996 26.73327308 44.33203125 29.0234375 C43.71440918 29.41208984 43.09678711 29.80074219 42.46044922 30.20117188 C34.9749843 34.78897444 28.87469462 36.23685458 20.08203125 37.3359375 C20.08203125 26.7759375 20.08203125 16.2159375 20.08203125 5.3359375 C17.11203125 5.3359375 14.14203125 5.3359375 11.08203125 5.3359375 C11.08203125 15.8959375 11.08203125 26.4559375 11.08203125 37.3359375 C-4.27719857 35.80001452 -16.40560285 30.14983747 -26.66796875 18.2734375 C-27.41046875 17.3040625 -28.15296875 16.3346875 -28.91796875 15.3359375 C-31.44467784 18.83538926 -31.44467784 18.83538926 -31.66796875 23.0234375 C-30.98419794 25.32803311 -30.98419794 25.32803311 -29.91796875 27.3359375 C-31.23796875 27.0059375 -32.55796875 26.6759375 -33.91796875 26.3359375 C-34.24796875 24.6859375 -34.57796875 23.0359375 -34.91796875 21.3359375 C-35.90796875 21.9959375 -36.89796875 22.6559375 -37.91796875 23.3359375 C-36.91462644 16.38686298 -32.97486579 10.76259765 -27.51171875 6.42578125 C-18.60667395 0.83264354 -10.29794971 0.02127626 0 0 Z " fill="#050202" transform="translate(86.91796875,46.6640625)"/>
<path d="M0 0 C27.06 0 54.12 0 82 0 C82 3 82 3 80.75073242 4.65551758 C78.67175151 6.25207983 77.58318027 6.41416616 74.98828125 6.51171875 C74.23095703 6.54716797 73.47363281 6.58261719 72.69335938 6.61914062 C71.90767578 6.64169922 71.12199219 6.66425781 70.3125 6.6875 C69.11657227 6.73874023 69.11657227 6.73874023 67.89648438 6.79101562 C65.93148096 6.87338104 63.96576304 6.93837067 62 7 C61.67 7.66 61.34 8.32 61 9 C65.95 9 70.9 9 76 9 C72 14 72 14 69.98535156 14.56762695 C68.94846191 14.52835083 68.94846191 14.52835083 67.890625 14.48828125 C66.75947266 14.46411133 66.75947266 14.46411133 65.60546875 14.43945312 C64.82816406 14.39755859 64.05085938 14.35566406 63.25 14.3125 C62.45722656 14.28994141 61.66445312 14.26738281 60.84765625 14.24414062 C58.8976238 14.18540471 56.94856688 14.09572654 55 14 C55 14.66 55 15.32 55 16 C61.93 16.495 61.93 16.495 69 17 C68 22 68 22 67 23 C65.44051458 23.15686249 63.87457332 23.25076639 62.30859375 23.31640625 C60.89223633 23.37924805 60.89223633 23.37924805 59.44726562 23.44335938 C58.45404297 23.48267578 57.46082031 23.52199219 56.4375 23.5625 C55.44041016 23.60568359 54.44332031 23.64886719 53.41601562 23.69335938 C50.9441585 23.79980298 48.4721969 23.90181928 46 24 C46 25.32 46 26.64 46 28 C43.13275314 27.42655063 42.1385485 27.1385485 40 25 C40 24.01 40 23.02 40 22 C34.06 22 28.12 22 22 22 C23.90055197 18.19889605 25.91912158 15.49705411 28.625 12.25 C29.44226563 11.26515625 30.25953125 10.2803125 31.1015625 9.265625 C31.72804687 8.51796875 32.35453125 7.7703125 33 7 C29.84226603 5.84291072 27.32815489 5.36749998 24 6 C19.80906566 9.76462646 16.60692691 14.34427843 13.69750977 19.15258789 C12 21 12 21 9.63989258 21.45410156 C8.73392334 21.4331543 7.8279541 21.41220703 6.89453125 21.390625 C5.42016602 21.37128906 5.42016602 21.37128906 3.91601562 21.3515625 C2.89185547 21.31804687 1.86769531 21.28453125 0.8125 21.25 C-0.74114258 21.22292969 -0.74114258 21.22292969 -2.32617188 21.1953125 C-4.88504284 21.14814437 -7.44205842 21.08234057 -10 21 C-10.61254883 18.65405273 -10.61254883 18.65405273 -11 16 C-9.19921875 13.53515625 -9.19921875 13.53515625 -6.6875 11.0625 C-2.72502933 7.13735244 -1.88148659 5.64445976 0 0 Z " fill="#021C1C" transform="translate(66,112)"/>
<path d="M0 0 C2.97 0 5.94 0 9 0 C9 10.56 9 21.12 9 32 C24.9423253 27.44504992 36.808877 23.04772566 47 10 C50 11 50 11 51.25 12.75 C52.21507613 15.64522839 51.86989629 17.08303432 51 20 C42.0834476 31.98757402 28.07273745 37.65522012 14 41 C12.35 41 10.7 41 9 41 C9 46.28 9 51.56 9 57 C5.7 57 2.4 57 -1 57 C-1 51.72 -1 46.44 -1 41 C-2.340625 40.95875 -3.68125 40.9175 -5.0625 40.875 C-17.15841879 39.62428885 -27.8299088 33.71666171 -37 26 C-37.74765625 25.38769531 -38.4953125 24.77539062 -39.265625 24.14453125 C-43.94271661 19.97381767 -43.94271661 19.97381767 -44.1875 15.8125 C-42.89987032 12.76285076 -41.52158648 11.11487899 -39 9 C-38.71769531 9.47308594 -38.43539062 9.94617187 -38.14453125 10.43359375 C-31.63347895 20.22881319 -21.00656165 26.42644102 -10 30 C-5.05 30.99 -5.05 30.99 0 32 C0 21.44 0 10.88 0 0 Z " fill="#E5640E" transform="translate(98,52)"/>
<path d="M0 0 C2.97 0 5.94 0 9 0 C9 5.28 9 10.56 9 16 C11.31 16 13.62 16 16 16 C30.57252189 19.45222407 41.2426086 26.70930671 52 37 C50.56171454 40.90669429 49.11429212 43.19713709 46 46 C45.61070312 45.50371094 45.22140625 45.00742188 44.8203125 44.49609375 C35.40276395 33.06049908 23.61586935 27.08798134 9 25 C9 34.9 9 44.8 9 55 C6.03 55 3.06 55 0 55 C0 44.77 0 34.54 0 24 C-16.38966802 28.42260883 -26.86320614 33.86320614 -39 46 C-41.50995212 43.41398872 -42.90878617 41.82092443 -43.3125 38.1875 C-39.67487884 29.35327719 -29.18834055 24.03780498 -21 20 C-14.43135206 17.31393579 -8.07510066 15.54423851 -1 15 C-0.67 10.05 -0.34 5.1 0 0 Z " fill="#F66505" transform="translate(98,138)"/>
<path d="M0 0 C1.98 0 3.96 0 6 0 C6.495 15.345 6.495 15.345 7 31 C9.31 31.66 11.62 32.32 14 33 C14 34.65 14 36.3 14 38 C11.69 38 9.38 38 7 38 C7 43.61 7 49.22 7 55 C4.36 55 1.72 55 -1 55 C-1 49.39 -1 43.78 -1 38 C-2.423125 38.0825 -3.84625 38.165 -5.3125 38.25 C-11.20933174 38.24158797 -16.91250613 37.08252667 -22 34 C-23.3125 31.35546875 -23.3125 31.35546875 -24 29 C-21.12473931 29.1416533 -18.24986464 29.28818532 -15.375 29.4375 C-14.56675781 29.47681641 -13.75851563 29.51613281 -12.92578125 29.55664062 C-12.13300781 29.59853516 -11.34023437 29.64042969 -10.5234375 29.68359375 C-9.80075684 29.72025146 -9.07807617 29.75690918 -8.33349609 29.79467773 C-5.5375613 30.04068957 -2.76854843 30.53857526 0 31 C0 20.77 0 10.54 0 0 Z " fill="#FB6603" transform="translate(99,53)"/>
<path d="M0 0 C1.61841797 0.03383789 1.61841797 0.03383789 3.26953125 0.06835938 C5.9310935 0.1272435 8.58984228 0.20942999 11.25 0.3125 C11.745 1.7975 11.745 1.7975 12.25 3.3125 C11.29370117 4.890625 11.29370117 4.890625 9.79296875 6.5625 C9.25736328 7.1709375 8.72175781 7.779375 8.16992188 8.40625 C7.59822266 9.0353125 7.02652344 9.664375 6.4375 10.3125 C5.32554833 11.56136631 4.21482439 12.81132709 3.10546875 14.0625 C2.60684326 14.61421875 2.10821777 15.1659375 1.59448242 15.734375 C0.0519607 17.48242871 0.0519607 17.48242871 -1.75 20.3125 C-3.99658203 20.65307617 -3.99658203 20.65307617 -6.7578125 20.60546875 C-7.74394531 20.59580078 -8.73007813 20.58613281 -9.74609375 20.57617188 C-10.77863281 20.55103516 -11.81117187 20.52589844 -12.875 20.5 C-14.43541016 20.47969727 -14.43541016 20.47969727 -16.02734375 20.45898438 C-18.60207627 20.42355228 -21.1757833 20.37415221 -23.75 20.3125 C-24.3581543 17.96875 -24.3581543 17.96875 -24.75 15.3125 C-23.01953125 12.8125 -23.01953125 12.8125 -20.5625 10.3125 C-17.00814032 6.69411692 -17.00814032 6.69411692 -14.18359375 2.51953125 C-10.10257277 -1.18155519 -5.28228724 -0.2080901 0 0 Z " fill="#43F4F3" transform="translate(79.75,112.6875)"/>
<path d="M0 0 C11.90893108 1.42484995 20.76136942 9.93976497 29 18 C27.56171454 21.90669429 26.11429212 24.19713709 23 27 C22.41605469 26.25556641 22.41605469 26.25556641 21.8203125 25.49609375 C12.40276395 14.06049908 0.61586935 8.08798134 -14 6 C-14 15.9 -14 25.8 -14 36 C-16.97 36 -19.94 36 -23 36 C-23 25.77 -23 15.54 -23 5 C-22.67 5 -22.34 5 -22 5 C-22 14.57 -22 24.14 -22 34 C-20.02 34 -18.04 34 -16 34 C-16.00523682 33.12674072 -16.01047363 32.25348145 -16.01586914 31.35375977 C-16.03287751 28.12410727 -16.04543369 24.89447755 -16.05493164 21.66479492 C-16.0599708 20.26504772 -16.06680216 18.8653058 -16.07543945 17.46557617 C-16.0875232 15.45754223 -16.09269807 13.44947043 -16.09765625 11.44140625 C-16.10289307 10.23170166 -16.10812988 9.02199707 -16.11352539 7.77563477 C-16 5 -16 5 -15 4 C-9.78378893 3.66705036 -5.29411752 4.48502013 -0.234375 5.7578125 C2.28575903 6.27253392 2.28575903 6.27253392 5 4 C5 3.34 5 2.68 5 2 C3.35 2 1.7 2 0 2 C0 1.34 0 0.68 0 0 Z " fill="#EF670C" transform="translate(121,157)"/>
<path d="M0 0 C9.24 0 18.48 0 28 0 C24 5 24 5 21.98535156 5.65942383 C20.94846191 5.6829895 20.94846191 5.6829895 19.890625 5.70703125 C19.13652344 5.73603516 18.38242188 5.76503906 17.60546875 5.79492188 C16.82816406 5.80072266 16.05085938 5.80652344 15.25 5.8125 C14.06083984 5.85020508 14.06083984 5.85020508 12.84765625 5.88867188 C10.89896805 5.9473673 8.94943141 5.9765898 7 6 C6.67 6.66 6.34 7.32 6 8 C10.95 8 15.9 8 21 8 C17 13 17 13 14.98535156 13.56762695 C14.2940918 13.54144287 13.60283203 13.51525879 12.890625 13.48828125 C11.75947266 13.46411133 11.75947266 13.46411133 10.60546875 13.43945312 C9.82816406 13.39755859 9.05085938 13.35566406 8.25 13.3125 C7.45722656 13.28994141 6.66445312 13.26738281 5.84765625 13.24414062 C3.8976238 13.18540471 1.94856688 13.09572654 0 13 C0 13.66 0 14.32 0 15 C6.93 15.495 6.93 15.495 14 16 C11 20 11 20 8.45629883 20.45410156 C7.46654053 20.4331543 6.47678223 20.41220703 5.45703125 20.390625 C4.38388672 20.37773437 3.31074219 20.36484375 2.20507812 20.3515625 C1.08552734 20.31804687 -0.03402344 20.28453125 -1.1875 20.25 C-2.31865234 20.23195312 -3.44980469 20.21390625 -4.61523438 20.1953125 C-7.41100376 20.14812652 -10.20507972 20.08230595 -13 20 C-9.95889822 15.25041408 -6.60104446 11.29904627 -2.70703125 7.24609375 C-0.57799031 4.78445326 -0.57799031 4.78445326 0 0 Z " fill="#42ECEA" transform="translate(121,113)"/>
<path d="M0 0 C0 0.66 0 1.32 0 2 C-3.465 3.485 -3.465 3.485 -7 5 C-7 6.65 -7 8.3 -7 10 C-3.535 9.505 -3.535 9.505 0 9 C-1.67540473 10.11693649 -3.37176562 11.20805232 -5.12890625 12.19140625 C-12.71282803 16.46420969 -18.86376426 21.86376426 -25 28 C-27.50995212 25.41398872 -28.90878617 23.82092443 -29.3125 20.1875 C-25.3805771 10.63854438 -13.28177293 4.74603217 -4.265625 0.8046875 C-2 0 -2 0 0 0 Z " fill="#EE660B" transform="translate(84,156)"/>
<path d="M0 0 C8.25 0 16.5 0 25 0 C25.33 1.32 25.66 2.64 26 4 C25.67 4.33 25.34 4.66 25 5 C24.4225 4.98839844 23.845 4.97679688 23.25 4.96484375 C19.05503865 4.91386332 16.75036064 5.35313738 13.5078125 8.1484375 C10.60717054 11.39145032 7.87221044 14.65410869 5.50390625 18.30859375 C4 20 4 20 1.95703125 20.390625 C-0.02864583 20.26041667 -2.01432292 20.13020833 -4 20 C-2.43632643 16.47761953 -0.30504111 13.72876006 2.125 10.75 C2.84945312 9.85796875 3.57390625 8.9659375 4.3203125 8.046875 C5.15175781 7.03367187 5.15175781 7.03367187 6 6 C5.195625 5.7525 4.39125 5.505 3.5625 5.25 C2.716875 4.8375 1.87125 4.425 1 4 C0.67 2.68 0.34 1.36 0 0 Z " fill="#44E7E5" transform="translate(93,113)"/>
<path d="M0 0 C1.61841797 0.03383789 1.61841797 0.03383789 3.26953125 0.06835938 C5.9310935 0.1272435 8.58984228 0.20942999 11.25 0.3125 C11.745 1.7975 11.745 1.7975 12.25 3.3125 C11.59 3.6425 10.93 3.9725 10.25 4.3125 C10.25 3.3225 10.25 2.3325 10.25 1.3125 C3.32 1.3125 -3.61 1.3125 -10.75 1.3125 C-10.75 2.6325 -10.75 3.9525 -10.75 5.3125 C-6.79 5.3125 -2.83 5.3125 1.25 5.3125 C0.30351782 6.76602621 -0.64886016 8.21610388 -1.6328125 9.64453125 C-2.61714571 11.11414762 -3.50464485 12.64764089 -4.375 14.1875 C-7.71642401 17.17719516 -10.36287401 16.70780261 -14.703125 16.48828125 C-15.37859375 16.43027344 -16.0540625 16.37226563 -16.75 16.3125 C-16.42 14.3325 -16.09 12.3525 -15.75 10.3125 C-18.75765886 13.16186103 -21.02845212 15.54761958 -22.75 19.3125 C-19.64548451 19.17355852 -16.54149165 19.025157 -13.4375 18.875 C-12.55642578 18.83568359 -11.67535156 18.79636719 -10.76757812 18.75585938 C-9.92001953 18.71396484 -9.07246094 18.67207031 -8.19921875 18.62890625 C-7.41893311 18.59224854 -6.63864746 18.55559082 -5.8347168 18.51782227 C-3.55670899 18.37124737 -3.55670899 18.37124737 -0.75 17.3125 C-1.08 18.3025 -1.41 19.2925 -1.75 20.3125 C-9.01 20.3125 -16.27 20.3125 -23.75 20.3125 C-24.08 18.6625 -24.41 17.0125 -24.75 15.3125 C-23.01953125 12.8125 -23.01953125 12.8125 -20.5625 10.3125 C-17.00814032 6.69411692 -17.00814032 6.69411692 -14.18359375 2.51953125 C-10.10257277 -1.18155519 -5.28228724 -0.2080901 0 0 Z " fill="#4AE5E3" transform="translate(79.75,112.6875)"/>
<path d="M0 0 C2.5316553 2.5316553 5.0614892 5.06298894 7.5625 7.625 C9.81844584 10.04798796 9.81844584 10.04798796 12.375 11.25 C14 13 14 13 14.0234375 15.18359375 C13.77247945 17.48165249 13.4376975 19.7306336 13 22 C6.02288635 19.54508964 0.30305086 16.1744608 -4 10 C-4.25138075 5.64273362 -2.84992023 3.22164896 0 0 Z " fill="#F1670B" transform="translate(58,61)"/>
<path d="M0 0 C9.24 0 18.48 0 28 0 C24 5 24 5 21.98535156 5.65942383 C20.94846191 5.6829895 20.94846191 5.6829895 19.890625 5.70703125 C19.13652344 5.73603516 18.38242188 5.76503906 17.60546875 5.79492188 C16.82816406 5.80072266 16.05085938 5.80652344 15.25 5.8125 C14.06083984 5.85020508 14.06083984 5.85020508 12.84765625 5.88867188 C10.89896805 5.9473673 8.94943141 5.9765898 7 6 C6.67 6.66 6.34 7.32 6 8 C10.95 8 15.9 8 21 8 C19.68 9.32 18.36 10.64 17 12 C17 11.01 17 10.02 17 9 C12.05 9 7.1 9 2 9 C2.33 8.01 2.66 7.02 3 6 C2.01 6 1.02 6 0 6 C0 4.02 0 2.04 0 0 Z " fill="#40F9F6" transform="translate(121,113)"/>
<path d="M0 0 C4.82238575 0.03007725 8.77697854 2.16747322 13 4.3125 C11 5.3125 11 5.3125 8.3125 4.4375 C7.219375 4.06625 6.12625 3.695 5 3.3125 C2.69 2.9825 0.38 2.6525 -2 2.3125 C-2 12.2125 -2 22.1125 -2 32.3125 C-4.97 32.3125 -7.94 32.3125 -11 32.3125 C-11 22.0825 -11 11.8525 -11 1.3125 C-10.67 1.3125 -10.34 1.3125 -10 1.3125 C-10 10.8825 -10 20.4525 -10 30.3125 C-8.02 30.3125 -6.04 30.3125 -4 30.3125 C-4.00523682 29.43924072 -4.01047363 28.56598145 -4.01586914 27.66625977 C-4.03287751 24.43660727 -4.04543369 21.20697755 -4.05493164 17.97729492 C-4.0599708 16.57754772 -4.06680216 15.1778058 -4.07543945 13.77807617 C-4.0875232 11.77004223 -4.09269807 9.76197043 -4.09765625 7.75390625 C-4.10289307 6.54420166 -4.10812988 5.33449707 -4.11352539 4.08813477 C-3.95565504 0.22828966 -3.86981204 0.40310542 0 0 Z " fill="#D0631A" transform="translate(109,160.6875)"/>
<path d="M0 0 C1.21236328 0.04060547 1.21236328 0.04060547 2.44921875 0.08203125 C3.06410156 0.11683594 3.67898437 0.15164062 4.3125 0.1875 C3.36601782 1.64102621 2.41363984 3.09110388 1.4296875 4.51953125 C0.44535429 5.98914762 -0.44214485 7.52264089 -1.3125 9.0625 C-4.65392401 12.05219516 -7.30037401 11.58280261 -11.640625 11.36328125 C-12.31609375 11.30527344 -12.9915625 11.24726563 -13.6875 11.1875 C-12.75308465 9.91439688 -11.81482889 8.644112 -10.875 7.375 C-10.35292969 6.66730469 -9.83085938 5.95960937 -9.29296875 5.23046875 C-5.0113746 -0.21788585 -5.0113746 -0.21788585 0 0 Z " fill="#011617" transform="translate(76.6875,117.8125)"/>
<path d="M0 0 C3.98381075 2.16264012 6.88983545 4.71211176 10 8 C8.68775452 11.93673644 7.08089673 14.22719294 4 17 C2.87278564 15.73113036 1.74831342 14.45982438 0.625 13.1875 C-0.00148437 12.47980469 -0.62796875 11.77210938 -1.2734375 11.04296875 C-3 9 -3 9 -5 6 C-3.02 6 -1.04 6 1 6 C1.33 5.01 1.66 4.02 2 3 C1.34 2.67 0.68 2.34 0 2 C0 1.34 0 0.68 0 0 Z " fill="#E76610" transform="translate(140,167)"/>
<path d="M0 0 C2.31 0 4.62 0 7 0 C-0.25476838 6.12624885 -10.69920492 8.51892439 -20 9 C-20 14.28 -20 19.56 -20 25 C-23.3 25 -26.6 25 -30 25 C-30 19.72 -30 14.44 -30 9 C-29.67 9 -29.34 9 -29 9 C-29 13.95 -29 18.9 -29 24 C-26.36 24 -23.72 24 -21 24 C-21 18.39 -21 12.78 -21 7 C-19.535625 6.855625 -18.07125 6.71125 -16.5625 6.5625 C-13.48153302 6.46504174 -13.48153302 6.46504174 -11 5 C-9.00041636 4.95919217 -6.99954746 4.95745644 -5 5 C-5 4.34 -5 3.68 -5 3 C-3.35 3 -1.7 3 0 3 C0 2.01 0 1.02 0 0 Z " fill="#B75615" transform="translate(127,84)"/>
<path d="M0 0 C0 10.23 0 20.46 0 31 C2.64 31 5.28 31 8 31 C8 31.33 8 31.66 8 32 C4.7 32 1.4 32 -2 32 C-2 22.43 -2 12.86 -2 3 C-4.97 3 -7.94 3 -11 3 C-7.4144509 0.60963393 -4.2914923 0 0 0 Z " fill="#421402" transform="translate(98,162)"/>
<path d="M0 0 C0.66 0 1.32 0 2 0 C1.67 2.31 1.34 4.62 1 7 C8.29160799 7.30923054 8.29160799 7.30923054 14.6875 4.59765625 C15.90818342 2.79163367 15.90818342 2.79163367 17 0 C18.0448029 3.13440869 18.15317663 4.02096037 17 7 C13.84685215 9.10209857 13.13896919 9.2434761 9.55078125 9.1953125 C8.27944336 9.18564453 8.27944336 9.18564453 6.98242188 9.17578125 C6.10134766 9.15902344 5.22027344 9.14226562 4.3125 9.125 C3.41982422 9.11597656 2.52714844 9.10695312 1.60742188 9.09765625 C-0.59532314 9.07409748 -2.79752588 9.04120329 -5 9 C-4.19928098 5.13673711 -2.6814791 2.92524993 0 0 Z " fill="#37FCFB" transform="translate(62,123)"/>
<path d="M0 0 C0.66 0 1.32 0 2 0 C2 1.32 2 2.64 2 4 C2.66 4 3.32 4 4 4 C3.6721883 6.95030531 3.0936225 8.85176438 1.5 11.375 C-2.30857116 13.85057125 -5.69473379 12.84633438 -10 12 C-9.67 11.01 -9.34 10.02 -9 9 C-7.68 9 -6.36 9 -5 9 C-4.34 7.68 -3.68 6.36 -3 5 C-2.34 5 -1.68 5 -1 5 C-0.67 3.35 -0.34 1.7 0 0 Z " fill="#FB6602" transform="translate(145,64)"/>
<path d="M0 0 C2.31 0 4.62 0 7 0 C7 0.33 7 0.66 7 1 C11.95 1.33 16.9 1.66 22 2 C22 2.33 22 2.66 22 3 C13.585 3.495 13.585 3.495 5 4 C4.67 4.66 4.34 5.32 4 6 C8.95 6 13.9 6 19 6 C17.68 7.32 16.36 8.64 15 10 C15 9.01 15 8.02 15 7 C10.05 7 5.1 7 0 7 C0.33 6.01 0.66 5.02 1 4 C0.01 3.67 -0.98 3.34 -2 3 C-1.34 3 -0.68 3 0 3 C0 2.01 0 1.02 0 0 Z " fill="#38E8E7" transform="translate(123,115)"/>
<path d="M0 0 C0.66 0 1.32 0 2 0 C3.16054924 1.39948585 4.31761861 2.80200231 5.45703125 4.21875 C10.25309382 9.75547033 16.37572603 14.81271075 23 18 C23.99 18 24.98 18 26 18 C27.5625 19.375 27.5625 19.375 29 21 C29.66 21.66 30.32 22.32 31 23 C19.98023056 21.71113808 11.69919291 13.42471188 4 6 C3.24589844 5.29230469 2.49179687 4.58460938 1.71484375 3.85546875 C0 2 0 2 0 0 Z " fill="#282425" transform="translate(17,216)"/>
<path d="M0 0 C5.94 0 11.88 0 18 0 C17.67 1.98 17.34 3.96 17 6 C14.9375 7.375 14.9375 7.375 13 8 C12.67 6.68 12.34 5.36 12 4 C8.04 3.67 4.08 3.34 0 3 C0 2.01 0 1.02 0 0 Z " fill="#36EDEC" transform="translate(69,115)"/>
<path d="M0 0 C10.80847551 2.0188952 20.75931007 13.33757588 27.02734375 21.70703125 C28.41196443 23.77581744 29.74293315 25.85184779 31 28 C30.67 28.66 30.34 29.32 30 30 C29.443125 29.2265625 28.88625 28.453125 28.3125 27.65625 C21.55814978 18.4374747 14.82470487 10.90455377 5.19921875 4.54296875 C3.22995047 3.16133293 1.63137313 1.75808172 0 0 Z " fill="#212020" transform="translate(163,10)"/>
<path d="M0 0 C3 1 3 1 4.25 2.8125 C5.11637742 5.33943414 4.88492145 6.52221994 4 9 C4 8.01 4 7.02 4 6 C3.34 6 2.68 6 2 6 C2 4.68 2 3.36 2 2 C1.34 2 0.68 2 0 2 C0 3.98 0 5.96 0 8 C-0.639375 8.12375 -1.27875 8.2475 -1.9375 8.375 C-2.618125 8.58125 -3.29875 8.7875 -4 9 C-4.33 9.66 -4.66 10.32 -5 11 C-7.06640625 11.8515625 -7.06640625 11.8515625 -9.5625 12.625 C-10.38878906 12.88539062 -11.21507812 13.14578125 -12.06640625 13.4140625 C-12.70449219 13.60742188 -13.34257812 13.80078125 -14 14 C-9.33333333 9.33333333 -4.66666667 4.66666667 0 0 Z " fill="#DB6415" transform="translate(145,62)"/>
<path d="M0 0 C0 0.99 0 1.98 0 3 C-0.66 3.66 -1.32 4.32 -2 5 C-2.99 5 -3.98 5 -5 5 C-5.33 5.99 -5.66 6.98 -6 8 C-10.95 7.67 -15.9 7.34 -21 7 C-20.67 6.01 -20.34 5.02 -20 4 C-18.80761719 3.96261719 -17.61523438 3.92523438 -16.38671875 3.88671875 C-14.820281 3.82105968 -13.25387616 3.75461232 -11.6875 3.6875 C-10.90181641 3.66494141 -10.11613281 3.64238281 -9.30664062 3.61914062 C-8.54931641 3.58369141 -7.79199219 3.54824219 -7.01171875 3.51171875 C-6.31522217 3.48553467 -5.61872559 3.45935059 -4.90112305 3.43237305 C-2.50649641 2.88776232 -1.56727453 1.84170838 0 0 Z " fill="#002223" transform="translate(141,122)"/>
<path d="M0 0 C0.99 0 1.98 0 3 0 C3 0.66 3 1.32 3 2 C9.93 2.495 9.93 2.495 17 3 C17 3.99 17 4.98 17 6 C11.72 6 6.44 6 1 6 C0.34 4.68 -0.32 3.36 -1 2 C-0.67 1.34 -0.34 0.68 0 0 Z " fill="#3CFAF9" transform="translate(121,119)"/>
<path d="M0 0 C0.33 0 0.66 0 1 0 C1.33 9.57 1.66 19.14 2 29 C5.96 28.67 9.92 28.34 14 28 C12 30 12 30 0 32 C0 21.44 0 10.88 0 0 Z " fill="#210200" transform="translate(107,52)"/>
<path d="M0 0 C7.59 0 15.18 0 23 0 C23 0.99 23 1.98 23 3 C17.32313867 3.09156228 11.89274376 2.85557527 6.26171875 2.12109375 C3.9417011 1.99687864 2.20832409 2.31779462 0 3 C0 2.01 0 1.02 0 0 Z " fill="#46F5F3" transform="translate(94,114)"/>
<path d="M0 0 C-0.33 0.99 -0.66 1.98 -1 3 C-1.33 2.67 -1.66 2.34 -2 2 C-4.52670909 5.49945176 -4.52670909 5.49945176 -4.75 9.6875 C-4.06622919 11.99209561 -4.06622919 11.99209561 -3 14 C-4.32 13.67 -5.64 13.34 -7 13 C-7.33 11.35 -7.66 9.7 -8 8 C-8.99 8.66 -9.98 9.32 -11 10 C-10.52048204 5.68433833 -9.29764982 3.7980059 -6 1 C-4 0 -4 0 0 0 Z " fill="#1C0604" transform="translate(60,60)"/>
<path d="M0 0 C4.67692308 1.47692308 4.67692308 1.47692308 6.3125 4.125 C6.539375 4.74375 6.76625 5.3625 7 6 C6.01 7.485 6.01 7.485 5 9 C2 9 2 9 0.375 7.75 C-1.17008194 5.78353207 -1.75936128 4.4866001 -2 2 C-1.34 1.34 -0.68 0.68 0 0 Z " fill="#FC6503" transform="translate(61,69)"/>
<path d="M0 0 C1.66666667 1.66666667 3.33333333 3.33333333 5 5 C5.886875 5.86625 6.77375 6.7325 7.6875 7.625 C10 10 10 10 12 13 C9.50638429 11.79618552 7.31856917 10.54571278 5 9 C5 8.34 5 7.68 5 7 C3.68 6.67 2.36 6.34 1 6 C1 5.34 1 4.68 1 4 C0.01 4.495 0.01 4.495 -1 5 C-1.65772428 8.02934491 -1.65772428 8.02934491 -2 11 C-2.66 10.67 -3.32 10.34 -4 10 C-3.5205537 5.78087253 -2.83374881 3.20336822 0 0 Z " fill="#D3631A" transform="translate(58,61)"/>
<path d="M0 0 C0.33 0 0.66 0 1 0 C1.37743309 8.00996896 1.07378757 15.48473039 -2 23 C-2.66 23.33 -3.32 23.66 -4 24 C-3.76603516 22.51886719 -3.76603516 22.51886719 -3.52734375 21.0078125 C-3.33269531 19.72648437 -3.13804687 18.44515625 -2.9375 17.125 C-2.64166016 15.21074219 -2.64166016 15.21074219 -2.33984375 13.2578125 C-1.71719271 10.11761458 -1.71719271 10.11761458 -3 8 C-2.34 7.34 -1.68 6.68 -1 6 C-0.60235737 4.01178687 -0.26224651 2.01055661 0 0 Z " fill="#201B1E" transform="translate(203,171)"/>
<path d="M0 0 C0 0.66 0 1.32 0 2 C0.99 2.33 1.98 2.66 3 3 C2.34 4.32 1.68 5.64 1 7 C-1.97 6.505 -1.97 6.505 -5 6 C-5 4.35 -5 2.7 -5 1 C-3 0 -3 0 0 0 Z " fill="#FC6603" transform="translate(140,167)"/>
<path d="M0 0 C0.66 0 1.32 0 2 0 C1.01 2.97 0.02 5.94 -1 9 C-1.99 8.67 -2.98 8.34 -4 8 C-6.6569191 8.87914688 -6.6569191 8.87914688 -9 10 C-7.75 7.5625 -7.75 7.5625 -6 5 C-4.67405895 4.63837971 -3.34061543 4.30271961 -2 4 C-0.71563266 2.0162233 -0.71563266 2.0162233 0 0 Z " fill="#120707" transform="translate(154,174)"/>
<path d="M0 0 C5.28 0 10.56 0 16 0 C15.01 1.485 15.01 1.485 14 3 C11.37302936 3.22137393 8.99106036 3.28162025 6.375 3.1875 C5.66859375 3.17396484 4.9621875 3.16042969 4.234375 3.14648438 C2.48925872 3.1111104 0.74453392 3.05730221 -1 3 C-0.67 2.01 -0.34 1.02 0 0 Z " fill="#001919" transform="translate(128,118)"/>
<path d="M0 0 C9.24 0 18.48 0 28 0 C26.68 1.32 25.36 2.64 24 4 C24 3.01 24 2.02 24 1 C16.41 1 8.82 1 1 1 C0.67 1.99 0.34 2.98 0 4 C0 2.68 0 1.36 0 0 Z " fill="#5BD0CE" transform="translate(121,113)"/>
<path d="M0 0 C1.07765625 0.00902344 2.1553125 0.01804688 3.265625 0.02734375 C4.08546875 0.03894531 4.9053125 0.05054687 5.75 0.0625 C4.76 0.7225 3.77 1.3825 2.75 2.0625 C1.41209359 3.05637334 0.07781878 4.0551892 -1.25 5.0625 C-2.24 4.4025 -3.23 3.7425 -4.25 3.0625 C-6.58199388 2.98344936 -8.91832622 2.97451231 -11.25 3.0625 C-10.25 1.0625 -10.25 1.0625 -8.578125 0.44140625 C-5.68791344 -0.02898053 -2.92727465 -0.0318182 0 0 Z " fill="#272526" transform="translate(68.25,0.9375)"/>
<path d="M0 0 C5.93002267 -0.37851209 10.47239641 0.89424625 16 3 C16 3.66 16 4.32 16 5 C14.86111328 4.76603516 14.86111328 4.76603516 13.69921875 4.52734375 C12.20841797 4.23537109 12.20841797 4.23537109 10.6875 3.9375 C9.70136719 3.74027344 8.71523437 3.54304687 7.69921875 3.33984375 C4.90723539 2.79077784 4.90723539 2.79077784 2 4 C1.34 2.68 0.68 1.36 0 0 Z " fill="#282727" transform="translate(140,2)"/>
<path d="M0 0 C0.33 0.66 0.66 1.32 1 2 C-0.57565358 5.4830237 -2.19897271 8.36826557 -5 11 C-9.10033465 11.79815674 -12.87499283 11.54065628 -17 11 C-17 10.67 -17 10.34 -17 10 C-16.03900391 10.04833984 -16.03900391 10.04833984 -15.05859375 10.09765625 C-10.76009219 10.04000124 -8.01547104 9.94586934 -4.77734375 6.9296875 C-3.05877992 4.67826302 -1.47475971 2.41723859 0 0 Z " fill="#4AE7E8" transform="translate(80,119)"/>
<path d="M0 0 C0.33 0 0.66 0 1 0 C1.02685095 2.47923801 1.04676547 4.9581884 1.0625 7.4375 C1.07087891 8.14455078 1.07925781 8.85160156 1.08789062 9.58007812 C1.09653588 11.38693559 1.05220011 13.19387603 1 15 C0 16 0 16 -1.84765625 16.09765625 C-3.8984375 16.06510417 -5.94921875 16.03255208 -8 16 C-5.35261084 14.5393715 -4.10551666 14 -1 14 C-0.67 9.38 -0.34 4.76 0 0 Z " fill="#4E1B02" transform="translate(97,138)"/>
<path d="M0 0 C0.33 1.32 0.66 2.64 1 4 C-1.97 6.475 -1.97 6.475 -5 9 C-5.33 7.02 -5.66 5.04 -6 3 C-4.02 2.01 -2.04 1.02 0 0 Z " fill="#F3680E" transform="translate(148,68)"/>
<path d="M0 0 C0.33 0.66 0.66 1.32 1 2 C-0.12104533 3.31587941 -1.24696965 4.62760353 -2.375 5.9375 C-3.00148437 6.66839844 -3.62796875 7.39929688 -4.2734375 8.15234375 C-6 10 -6 10 -8 11 C-8.33 9.35 -8.66 7.7 -9 6 C-7.68 6.33 -6.36 6.66 -5 7 C-5.33 6.01 -5.66 5.02 -6 4 C-4.35 3.67 -2.7 3.34 -1 3 C-0.67 2.01 -0.34 1.02 0 0 Z " fill="#2B2829" transform="translate(187,215)"/>
<path d="M0 0 C0.33 0.99 0.66 1.98 1 3 C-1 5 -1 5 -3.33837891 5.22705078 C-4.29147949 5.21657715 -5.24458008 5.20610352 -6.2265625 5.1953125 C-7.7734375 5.18564453 -7.7734375 5.18564453 -9.3515625 5.17578125 C-10.43179688 5.15902344 -11.51203125 5.14226562 -12.625 5.125 C-13.71296875 5.11597656 -14.8009375 5.10695312 -15.921875 5.09765625 C-18.61480152 5.07403409 -21.30729255 5.04109556 -24 5 C-24 4.67 -24 4.34 -24 4 C-16.74 4 -9.48 4 -2 4 C-1.34 2.68 -0.68 1.36 0 0 Z " fill="#000F11" transform="translate(134,130)"/>
<path d="M0 0 C0.66 0.99 1.32 1.98 2 3 C-0.64 4.98 -3.28 6.96 -6 9 C-6 8.01 -6 7.02 -6 6 C-8.31 6 -10.62 6 -13 6 C-13 5.67 -13 5.34 -13 5 C-12.09507812 4.96132812 -12.09507812 4.96132812 -11.171875 4.921875 C-5.89464661 4.59668017 -5.89464661 4.59668017 -1.4375 1.9375 C-0.963125 1.298125 -0.48875 0.65875 0 0 Z " fill="#00060A" transform="translate(148,114)"/>
<path d="M0 0 C0 0.66 0 1.32 0 2 C-1.57533086 2.86883706 -3.16064509 3.71959068 -4.75 4.5625 C-5.63171875 5.03816406 -6.5134375 5.51382813 -7.421875 6.00390625 C-10.20701188 7.07998186 -11.26980214 7.06528748 -14 6 C-12.04414675 4.99515796 -10.08523763 3.99626195 -8.125 3 C-6.48917969 2.1646875 -6.48917969 2.1646875 -4.8203125 1.3125 C-2 0 -2 0 0 0 Z " fill="#D96516" transform="translate(84,156)"/>
<path d="M0 0 C0.33 1.32 0.66 2.64 1 4 C-1.97 4 -4.94 4 -8 4 C-7.67 3.01 -7.34 2.02 -7 1 C-4.52260646 0.09162237 -2.66420516 0 0 0 Z " fill="#230801" transform="translate(106,134)"/>
<path d="M0 0 C0.33 0.99 0.66 1.98 1 3 C0.01 4.485 0.01 4.485 -1 6 C-1.66 6 -2.32 6 -3 6 C-3.2475 6.61875 -3.495 7.2375 -3.75 7.875 C-5.22047178 10.37480203 -6.41403076 10.83316022 -9 12 C-6 8 -3 4 0 0 Z " fill="#001A18" transform="translate(90,117)"/>
<path d="M0 0 C1.32 0 2.64 0 4 0 C3.8125 1.875 3.8125 1.875 3 4 C0.5 5.125 0.5 5.125 -2 6 C-2.33 6.66 -2.66 7.32 -3 8 C-2.37240135 5.07120629 -1.41377341 2.63904371 0 0 Z " fill="#030204" transform="translate(106,122)"/>
<path d="M0 0 C0 0.99 0 1.98 0 3 C-1.41623216 3.05447047 -2.83308191 3.09300508 -4.25 3.125 C-5.03890625 3.14820312 -5.8278125 3.17140625 -6.640625 3.1953125 C-9.20731941 2.9828378 -10.7916067 2.28654105 -13 1 C-11.39602723 0.83147753 -9.7918131 0.66525114 -8.1875 0.5 C-7.29417969 0.4071875 -6.40085937 0.314375 -5.48046875 0.21875 C-3 0 -3 0 0 0 Z " fill="#3CF9FB" transform="translate(117,114)"/>
<path d="M0 0 C1.65 0 3.3 0 5 0 C4.75 2.875 4.75 2.875 4 6 C1.9375 7.375 1.9375 7.375 0 8 C0 5.36 0 2.72 0 0 Z " fill="#2DFCFC" transform="translate(82,115)"/>
<path d="M0 0 C0.66 0.33 1.32 0.66 2 1 C2 2.32 2 3.64 2 5 C-0.31 5.33 -2.62 5.66 -5 6 C-3.86695008 2.60085025 -2.87481525 1.94745549 0 0 Z " fill="#39FBFA" transform="translate(100,122)"/>
<path d="M0 0 C5.28 0.33 10.56 0.66 16 1 C14.68 2.32 13.36 3.64 12 5 C12 4.01 12 3.02 12 2 C8.04 2 4.08 2 0 2 C0 1.34 0 0.68 0 0 Z " fill="#5ADAD6" transform="translate(126,120)"/>
<path d="M0 0 C0.66 0.33 1.32 0.66 2 1 C1.67 1.66 1.34 2.32 1 3 C1.66 3.33 2.32 3.66 3 4 C-0.465 5.485 -0.465 5.485 -4 7 C-2.79618552 4.50638429 -1.54571278 2.31856917 0 0 Z " fill="#08090E" transform="translate(57,55)"/>
<path d="M0 0 C0.66 0.33 1.32 0.66 2 1 C-0.31 3.97 -2.62 6.94 -5 10 C-6 7 -6 7 -4.75 4.3125 C-4.1725 3.549375 -3.595 2.78625 -3 2 C-2.01 2 -1.02 2 0 2 C0 1.34 0 0.68 0 0 Z " fill="#011C20" transform="translate(114,122)"/>
<path d="M0 0 C0.33 0 0.66 0 1 0 C1 3.96 1 7.92 1 12 C-0.32 10.68 -1.64 9.36 -3 8 C-2.34 7.34 -1.68 6.68 -1 6 C-0.60235737 4.01178687 -0.26224651 2.01055661 0 0 Z " fill="#282327" transform="translate(203,171)"/>
<path d="M0 0 C0.99 0 1.98 0 3 0 C2.67 2.64 2.34 5.28 2 8 C0.68 7.34 -0.64 6.68 -2 6 C-1.34 4.02 -0.68 2.04 0 0 Z " fill="#F96704" transform="translate(69,75)"/>
<path d="M0 0 C4.51720311 -0.36625971 4.51720311 -0.36625971 6.8125 1.375 C8 3 8 3 8 5 C6.68 4.67 5.36 4.34 4 4 C4 3.34 4 2.68 4 2 C2.68 1.67 1.36 1.34 0 1 C0 0.67 0 0.34 0 0 Z " fill="#04060C" transform="translate(144,58)"/>
<path d="M0 0 C0.66 1.32 1.32 2.64 2 4 C0.02 5.32 -1.96 6.64 -4 8 C-4.66 7.67 -5.32 7.34 -6 7 C-4.02 4.69 -2.04 2.38 0 0 Z " fill="#7E7D7A" transform="translate(152,183)"/>
<path d="M0 0 C1.32 0 2.64 0 4 0 C2.63016497 3.16115776 2.0109362 3.9927092 -1 6 C-0.67 4.02 -0.34 2.04 0 0 Z " fill="#43E9E8" transform="translate(80,124)"/>
</svg>
