<?xml version="1.0" encoding="UTF-8"?>
<svg version="1.1" xmlns="http://www.w3.org/2000/svg" width="583" height="149">
<path d="M0 0 C8.28495522 -0.04658237 16.56985464 -0.08199963 24.85490894 -0.10362434 C28.70304339 -0.11400927 32.55108746 -0.12807028 36.39916992 -0.15087891 C40.12096213 -0.17279796 43.84266805 -0.18460828 47.56451988 -0.18975449 C48.97610518 -0.19341636 50.38768639 -0.20056579 51.79923439 -0.21146011 C75.19228648 -0.38463317 75.19228648 -0.38463317 84 7 C86.72206199 9.75772219 89.25979688 12.51959376 91 16 C92.38336548 16.02187378 92.38336548 16.02187378 93.79467773 16.04418945 C97.25601518 16.10568474 100.71661453 16.17991477 104.17749023 16.26245117 C105.66794757 16.29545795 107.15852262 16.32356327 108.64916992 16.34643555 C116.94739755 16.47718201 124.18052551 16.9155591 132 20 C135.27998334 19.8070598 137.6749914 19.12302637 140.73529971 17.96459973 C144.33731788 16.90033488 147.29486822 16.75157772 151.0477047 16.75390434 C152.08124375 16.75044281 152.08124375 16.75044281 153.13566238 16.74691135 C155.44351595 16.74161934 157.75109022 16.75058868 160.05892944 16.75949097 C161.73052779 16.75861874 163.40212586 16.75686743 165.07372248 16.75431263 C169.66643721 16.74983855 174.25905873 16.75784366 178.85176158 16.76786876 C183.8046676 16.77650005 188.75756831 16.77358332 193.71047974 16.77206421 C202.29151023 16.77101516 210.87251033 16.7772939 219.45353317 16.78853989 C231.86027123 16.80478914 244.26699458 16.81000231 256.67374213 16.81251587 C276.80252262 16.81689387 296.9312869 16.83020584 317.06005859 16.84912109 C336.61409423 16.86747716 356.16812546 16.88163501 375.72216797 16.89013672 C377.52992278 16.89092489 377.52992278 16.89092489 379.37419789 16.89172898 C385.42013884 16.89433904 391.46607982 16.89686646 397.51202083 16.89935279 C447.67469175 16.92008857 497.83734509 16.95531697 548 17 C547.85321624 18.73192235 547.70333102 20.46358199 547.55217743 22.19512844 C547.46905036 23.15947416 547.3859233 24.12381987 547.30027723 25.11738819 C546.85219621 29.418892 546.03120303 33.61359112 545.15820312 37.84594727 C544.97434555 38.76117661 544.79048798 39.67640594 544.60105896 40.61936951 C544.0001654 43.60290193 543.39091322 46.58465461 542.78125 49.56640625 C542.35865843 51.65330923 541.93650566 53.7403011 541.51477051 55.82737732 C540.63408896 60.17936693 539.74949678 64.53053618 538.86181641 68.88110352 C537.72255172 74.46533122 536.59106525 80.0510994 535.46219635 85.63743687 C534.59293388 89.936587 533.72068139 94.23512584 532.84739685 98.53346062 C532.42886971 100.59428061 532.01103127 102.6552406 531.59388733 104.71634102 C531.01274564 107.58435937 530.42784207 110.4515837 529.84179688 113.31860352 C529.66929916 114.17310089 529.49680145 115.02759827 529.31907654 115.9079895 C528.11449855 121.77100291 528.11449855 121.77100291 527 124 C366.95 124 206.9 124 42 124 C43.65 129.94 45.3 135.88 47 142 C47 143.65 47 145.3 47 147 C20.93 147 -5.14 147 -32 147 C-30.28314959 142.70787398 -28.34871781 139.33186851 -25.75390625 135.58984375 C-24.90743829 134.33971024 -24.06176078 133.08904122 -23.21679688 131.83789062 C-21.89713903 129.89317022 -20.57283775 127.95241669 -19.23413086 126.02075195 C-17.93273754 124.13768442 -16.65467414 122.24033587 -15.37890625 120.33984375 C-14.78814049 119.5047654 -14.78814049 119.5047654 -14.18544006 118.65281677 C-10.55980806 113.18537524 -9.35760805 107.35313649 -8 101 C-7.73554581 99.80253647 -7.47109161 98.60507294 -7.19862366 97.37132263 C-6.31628119 93.32953237 -5.45784365 89.28337918 -4.609375 85.234375 C-4.4564222 84.50515083 -4.30346939 83.77592667 -4.14588165 83.0246048 C-3.33982782 79.17754564 -2.53732861 75.32976264 -1.73730469 71.48144531 C-1.07900245 68.31845515 -0.41331392 65.15715623 0.25878906 61.99707031 C1.07760097 58.14707162 1.88381259 54.29463466 2.68114471 50.44013214 C2.98461741 48.98329691 3.29238353 47.52734867 3.60468292 46.07238007 C5.89630623 35.58666965 5.89630623 35.58666965 5 25 C4.81107178 24.12061768 4.62214355 23.24123535 4.42749023 22.33520508 C4.22325439 21.57103271 4.01901855 20.80686035 3.80859375 20.01953125 C3.58623047 19.16552734 3.36386719 18.31152344 3.13476562 17.43164062 C2.66675003 15.67363245 2.19799006 13.91582228 1.72851562 12.15820312 C1.50744141 11.30806641 1.28636719 10.45792969 1.05859375 9.58203125 C0.85548584 8.82124268 0.65237793 8.0604541 0.44311523 7.27661133 C-0.0386628 4.80136052 -0.02955364 2.51596712 0 0 Z " fill="#080808" transform="translate(34,1)"/>
<path d="M0 0 C7.92 0 15.84 0 24 0 C23.01 2.97 22.02 5.94 21 9 C20.34 9 19.68 9 19 9 C18.32407192 23.67806586 17.87503018 38.30669808 18 53 C19.76804006 48.19805418 21.49257274 43.38318423 23.18188477 38.55297852 C23.75960802 36.91911243 24.34813782 35.28901892 24.94848633 33.66333008 C25.82009366 31.29691252 26.64913795 28.9186778 27.47265625 26.53515625 C27.74030289 25.83544205 28.00794952 25.13572784 28.28370667 24.41481018 C30.95309944 16.423411 29.7494314 8.24352232 29 0 C41.56085999 -0.04632891 54.12169967 -0.08187209 66.68262768 -0.10362434 C72.51509302 -0.11406402 78.34749993 -0.1282267 84.17993164 -0.15087891 C89.80794665 -0.17260054 95.43590543 -0.18456724 101.06395912 -0.18975449 C103.21176349 -0.19345145 105.35956475 -0.20067061 107.5073452 -0.21146011 C110.51432332 -0.22596585 113.52106872 -0.22797831 116.52807617 -0.22705078 C117.41712143 -0.23424133 118.30616669 -0.24143188 119.22215271 -0.24884033 C124.44403949 -0.23139698 128.33124348 0.23043495 132.78613281 3.18432617 C136.78027538 9.15867015 134.18097712 20.93622531 132.86804199 27.72018433 C132.22135242 30.78187335 131.52766484 33.82993379 130.80175781 36.8737793 C130.24874486 39.19276324 129.7199711 41.51625006 129.1953125 43.84179688 C123.1139574 70.44770339 123.1139574 70.44770339 118 76 C113.03684303 78.5352253 109.4309987 79.37123507 103.77954102 79.34057617 C102.75388283 79.34123329 102.75388283 79.34123329 101.70750427 79.34190369 C99.47266958 79.33983239 97.23860804 79.31658188 95.00390625 79.29296875 C93.44449778 79.28736685 91.88508399 79.28309956 90.32566833 79.28010559 C86.24029723 79.26870349 82.15525094 79.2392769 78.07000732 79.20599365 C73.89372144 79.17519224 69.71738259 79.16157882 65.54101562 79.14648438 C57.36052876 79.11440217 49.1803049 79.06326272 41 79 C41.33 77.02 41.66 75.04 42 73 C42.66 73 43.32 73 44 73 C44.19360107 72.00383667 44.19360107 72.00383667 44.39111328 70.98754883 C45.12630661 67.38026703 45.93247785 63.79030062 46.7421875 60.19921875 C47.08997792 58.64781653 47.4376294 57.09638316 47.78515625 55.54492188 C48.32565281 53.1340547 48.86690737 50.72337093 49.41064453 48.31323242 C54.49296781 28.10764258 54.49296781 28.10764258 56.1875 7.5 C56.16042969 6.2521875 56.13335937 5.004375 56.10546875 3.71875 C56.05326172 2.37296875 56.05326172 2.37296875 56 1 C55.34 1 54.68 1 54 1 C53.89300781 1.65484375 53.78601563 2.3096875 53.67578125 2.984375 C52.80776118 6.85785185 51.52195851 10.51556602 50.1875 14.25 C49.91687744 15.0128833 49.64625488 15.7757666 49.36743164 16.56176758 C47.76060074 21.03804182 46.0126567 25.38487274 44 29.6953125 C41.69541424 35.0066625 39.9151901 40.53912012 38 46 C36.54403511 50.07130922 34.98758483 54.06784748 33.1875 58 C30.08364649 64.84780131 27.60578501 71.95253599 25 79 C16.42 79 7.84 79 -1 79 C-1.12556319 52.64568227 -0.80875423 26.34228071 0 0 Z " fill="#F9F9F9" transform="translate(218,32)"/>
<path d="M0 0 C8.28495522 -0.04658237 16.56985464 -0.08199963 24.85490894 -0.10362434 C28.70304339 -0.11400927 32.55108746 -0.12807028 36.39916992 -0.15087891 C40.12096213 -0.17279796 43.84266805 -0.18460828 47.56451988 -0.18975449 C48.97610518 -0.19341636 50.38768639 -0.20056579 51.79923439 -0.21146011 C75.19228648 -0.38463317 75.19228648 -0.38463317 84 7 C86.72206199 9.75772219 89.25979688 12.51959376 91 16 C92.38336548 16.02187378 92.38336548 16.02187378 93.79467773 16.04418945 C97.25601518 16.10568474 100.71661453 16.17991477 104.17749023 16.26245117 C105.66794757 16.29545795 107.15852262 16.32356327 108.64916992 16.34643555 C116.94739755 16.47718201 124.18052551 16.9155591 132 20 C135.27998334 19.8070598 137.6749914 19.12302637 140.73529971 17.96459973 C144.33731788 16.90033488 147.29486822 16.75157772 151.0477047 16.75390434 C152.08124375 16.75044281 152.08124375 16.75044281 153.13566238 16.74691135 C155.44351595 16.74161934 157.75109022 16.75058868 160.05892944 16.75949097 C161.73052779 16.75861874 163.40212586 16.75686743 165.07372248 16.75431263 C169.66643721 16.74983855 174.25905873 16.75784366 178.85176158 16.76786876 C183.8046676 16.77650005 188.75756831 16.77358332 193.71047974 16.77206421 C202.29151023 16.77101516 210.87251033 16.7772939 219.45353317 16.78853989 C231.86027123 16.80478914 244.26699458 16.81000231 256.67374213 16.81251587 C276.80252262 16.81689387 296.9312869 16.83020584 317.06005859 16.84912109 C336.61409423 16.86747716 356.16812546 16.88163501 375.72216797 16.89013672 C377.52992278 16.89092489 377.52992278 16.89092489 379.37419789 16.89172898 C385.42013884 16.89433904 391.46607982 16.89686646 397.51202083 16.89935279 C447.67469175 16.92008857 497.83734509 16.95531697 548 17 C547.85321624 18.73192235 547.70333102 20.46358199 547.55217743 22.19512844 C547.46905036 23.15947416 547.3859233 24.12381987 547.30027723 25.11738819 C546.85219621 29.418892 546.03120303 33.61359112 545.15820312 37.84594727 C544.97434555 38.76117661 544.79048798 39.67640594 544.60105896 40.61936951 C544.0001654 43.60290193 543.39091322 46.58465461 542.78125 49.56640625 C542.35865843 51.65330923 541.93650566 53.7403011 541.51477051 55.82737732 C540.63408896 60.17936693 539.74949678 64.53053618 538.86181641 68.88110352 C537.72255172 74.46533122 536.59106525 80.0510994 535.46219635 85.63743687 C534.59293388 89.936587 533.72068139 94.23512584 532.84739685 98.53346062 C532.42886971 100.59428061 532.01103127 102.6552406 531.59388733 104.71634102 C531.01274564 107.58435937 530.42784207 110.4515837 529.84179688 113.31860352 C529.66929916 114.17310089 529.49680145 115.02759827 529.31907654 115.9079895 C528.11449855 121.77100291 528.11449855 121.77100291 527 124 C366.95 124 206.9 124 42 124 C43.65 129.94 45.3 135.88 47 142 C47 143.65 47 145.3 47 147 C20.93 147 -5.14 147 -32 147 C-30.28314959 142.70787398 -28.34871781 139.33186851 -25.75390625 135.58984375 C-24.90743829 134.33971024 -24.06176078 133.08904122 -23.21679688 131.83789062 C-21.89713903 129.89317022 -20.57283775 127.95241669 -19.23413086 126.02075195 C-17.93273754 124.13768442 -16.65467414 122.24033587 -15.37890625 120.33984375 C-14.78814049 119.5047654 -14.78814049 119.5047654 -14.18544006 118.65281677 C-10.55980806 113.18537524 -9.35760805 107.35313649 -8 101 C-7.73554581 99.80253647 -7.47109161 98.60507294 -7.19862366 97.37132263 C-6.31628119 93.32953237 -5.45784365 89.28337918 -4.609375 85.234375 C-4.4564222 84.50515083 -4.30346939 83.77592667 -4.14588165 83.0246048 C-3.33982782 79.17754564 -2.53732861 75.32976264 -1.73730469 71.48144531 C-1.07900245 68.31845515 -0.41331392 65.15715623 0.25878906 61.99707031 C1.07760097 58.14707162 1.88381259 54.29463466 2.68114471 50.44013214 C2.98461741 48.98329691 3.29238353 47.52734867 3.60468292 46.07238007 C5.89630623 35.58666965 5.89630623 35.58666965 5 25 C4.81107178 24.12061768 4.62214355 23.24123535 4.42749023 22.33520508 C4.22325439 21.57103271 4.01901855 20.80686035 3.80859375 20.01953125 C3.58623047 19.16552734 3.36386719 18.31152344 3.13476562 17.43164062 C2.66675003 15.67363245 2.19799006 13.91582228 1.72851562 12.15820312 C1.50744141 11.30806641 1.28636719 10.45792969 1.05859375 9.58203125 C0.85548584 8.82124268 0.65237793 8.0604541 0.44311523 7.27661133 C-0.0386628 4.80136052 -0.02955364 2.51596712 0 0 Z M5 4 C5.14283487 5.42410914 5.29010722 6.84777359 5.43920898 8.27124023 C5.52073715 9.0640892 5.60226532 9.85693817 5.68626404 10.67381287 C6.28215287 15.09201516 7.79883235 19.24334748 9.16015625 23.47265625 C11.1888107 31.99300492 9.23494842 39.3310976 7.25 47.6875 C6.69149638 50.11400605 6.1355302 52.54109746 5.58203125 54.96875 C5.30955566 56.16371094 5.03708008 57.35867187 4.75634766 58.58984375 C3.71790616 63.27188081 2.80803094 67.97178025 1.9375 72.6875 C0.50419811 80.38914889 -0.99155649 88.07512111 -2.5625 95.75 C-2.76045166 96.73830811 -2.95840332 97.72661621 -3.16235352 98.74487305 C-3.73303263 101.50829776 -4.34679052 104.25497715 -5 107 C-5.1762793 107.74781738 -5.35255859 108.49563477 -5.53417969 109.26611328 C-7.57180114 116.48907382 -11.88495373 122.27201599 -16.125 128.375 C-17.58883046 130.50582799 -19.04990662 132.63855156 -20.5078125 134.7734375 C-21.15379395 135.70591309 -21.79977539 136.63838867 -22.46533203 137.59912109 C-24.13367785 139.99353577 -24.13367785 139.99353577 -25 143 C-2.89 143 19.22 143 42 143 C41.02530097 133.73095667 41.02530097 133.73095667 37 120 C197.71 120 358.42 120 524 120 C526.31 108.12 528.62 96.24 531 84 C532.79056359 75.3157666 534.59993757 66.6364429 536.43023682 57.96063232 C537.40164566 53.35262132 538.36738272 48.74346628 539.32763672 44.13311768 C539.6481732 42.59898907 539.97056988 41.06524783 540.29492188 39.53192139 C540.74939609 37.38289244 541.19761286 35.23264237 541.64453125 33.08203125 C542.03668823 31.21381714 542.03668823 31.21381714 542.43676758 29.30786133 C542.92640847 26.43220271 543.04451642 23.90005116 543 21 C492.70514119 20.95422928 442.41028447 20.9189842 392.11540893 20.89786934 C386.17858313 20.89536791 380.24175738 20.89277926 374.30493164 20.89013672 C373.12300898 20.8896121 371.94108633 20.88908748 370.72334784 20.88854696 C351.58203671 20.87984269 332.4407376 20.86407258 313.2994336 20.84569441 C293.66090538 20.82699599 274.02238345 20.8158834 254.3838467 20.81182301 C242.26436755 20.80907784 230.14492233 20.80040515 218.02545362 20.78416707 C209.71639033 20.77360092 201.4073446 20.77039854 193.09827507 20.77299725 C188.3033309 20.7742791 183.50844606 20.77230424 178.71351242 20.76158905 C174.32195638 20.75184697 169.9304995 20.75137135 165.53893887 20.75820221 C163.95197702 20.75904631 162.36500895 20.75651738 160.77805931 20.75023364 C149.24884489 20.7063862 149.24884489 20.7063862 138 23 C137.34 23.66 136.68 24.32 136 25 C132.7956053 24.71725929 130.33760805 23.72102561 127.36132812 22.4675293 C122.93729279 20.80033271 119.03117573 20.60976141 114.34375 20.70703125 C113.55601196 20.71127609 112.76827393 20.71552094 111.95666504 20.71989441 C109.4707441 20.73652383 106.98567081 20.77414386 104.5 20.8125 C102.80209514 20.82756729 101.10417742 20.84125209 99.40625 20.85351562 C95.27051281 20.88637534 91.1353995 20.93804526 87 21 C86.80277344 19.59621094 86.80277344 19.59621094 86.6015625 18.1640625 C85.86663778 14.29854937 84.77344811 12.77344811 82 10 C72.73715172 3.88302472 64.42541509 3.71921432 53.53515625 3.8046875 C52.1326874 3.80842292 50.73021593 3.81126739 49.32774353 3.81326294 C45.65673473 3.82085779 41.98588705 3.84047002 38.31494141 3.8626709 C34.56089456 3.88321928 30.80682139 3.89228379 27.05273438 3.90234375 C19.70174989 3.92372035 12.35089762 3.95780543 5 4 Z " fill="#A2A2A2" transform="translate(34,1)"/>
<path d="M0 0 C6.95584524 -0.10188499 13.91149618 -0.17166837 20.86791992 -0.21972656 C23.23159985 -0.23977282 25.59523061 -0.26701719 27.95874023 -0.30175781 C31.36714857 -0.35058271 34.77489803 -0.37303948 38.18359375 -0.390625 C39.23083115 -0.41127014 40.27806854 -0.43191528 41.35704041 -0.45318604 C47.90009 -0.45516214 53.4374495 0.32829632 59 4 C63.28040876 10.42061313 61.43140545 19.22889268 59.984375 26.4765625 C59.13433928 30.44793737 58.21783287 34.40186658 57.2890625 38.35546875 C56.32614181 42.45718027 55.53807108 46.54256438 54.88085938 50.70263672 C53.56795398 58.88815886 51.45481663 67.52318427 45.41796875 73.58984375 C41.06677267 76.68525159 36.76777925 77.12648766 31.578125 77.09765625 C30.04091797 77.09282227 30.04091797 77.09282227 28.47265625 77.08789062 C27.40917969 77.07951172 26.34570312 77.07113281 25.25 77.0625 C24.17105469 77.05798828 23.09210938 77.05347656 21.98046875 77.04882812 C19.32025617 77.03705727 16.66015635 77.02061399 14 77 C13.91020874 78.01646606 13.91020874 78.01646606 13.81860352 79.0534668 C13.73537842 79.94718994 13.65215332 80.84091309 13.56640625 81.76171875 C13.48592041 82.64561279 13.40543457 83.52950684 13.32250977 84.44018555 C13 87 13 87 11.9375 90.8125 C9.7789564 98.79748834 10.35987536 107.24463387 13 115 C13 116.32 13 117.64 13 119 C1.12 119 -10.76 119 -23 119 C-21.40546334 115.01365834 -19.85608094 112.09462595 -17.58203125 108.5390625 C-13.73180826 101.99358385 -12.10852155 95.78430047 -10.6875 88.375 C-10.41508455 87.0354493 -10.14084514 85.69626852 -9.86499023 84.35742188 C-9.24657372 81.33410975 -8.64301881 78.30824546 -8.04785156 75.28027344 C-7.0716514 70.33040908 -6.05482167 65.38937762 -5.03355408 60.44863892 C-4.10004806 55.92797796 -3.17535127 51.40554517 -2.25283813 46.88262939 C-1.79463784 44.63746618 -1.33483344 42.3926297 -0.87338257 40.14813232 C-0.22127252 36.96491802 0.42009467 33.77971878 1.05859375 30.59375 C1.25510529 29.64283478 1.45161682 28.69191956 1.65408325 27.71218872 C3.19793999 19.91616233 3.62408231 13.28830179 1.5 5.5 C1.2215625 4.4584375 0.943125 3.416875 0.65625 2.34375 C0.4396875 1.5703125 0.223125 0.796875 0 0 Z " fill="#F9F9F9" transform="translate(51,15)"/>
<path d="M0 0 C7.92 0 15.84 0 24 0 C23.01 2.97 22.02 5.94 21 9 C20.34 9 19.68 9 19 9 C18.32407192 23.67806586 17.87503018 38.30669808 18 53 C19.76804006 48.19805418 21.49257274 43.38318423 23.18188477 38.55297852 C23.75960802 36.91911243 24.34813782 35.28901892 24.94848633 33.66333008 C25.82009366 31.29691252 26.64913795 28.9186778 27.47265625 26.53515625 C27.74030289 25.83544205 28.00794952 25.13572784 28.28370667 24.41481018 C31.17383024 15.76260605 29.59545927 10.12280762 29 0 C47.48 0 65.96 0 85 0 C83.02 2.64 81.04 5.28 79 8 C75.72012961 13.00376131 74.31327728 17.25500565 73.625 23.125 C72.2613712 33.17984428 70.17124656 43.04322094 67.98095703 52.94775391 C66.04926935 61.90096048 66.04926935 61.90096048 66 71 C66.99 72.485 66.99 72.485 68 74 C68 74.99 68 75.98 68 77 C68.99 76.67 69.98 76.34 71 76 C70.505 77.485 70.505 77.485 70 79 C60.43 79 50.86 79 41 79 C41.33 77.02 41.66 75.04 42 73 C42.66 73 43.32 73 44 73 C44.19360107 72.00383667 44.19360107 72.00383667 44.39111328 70.98754883 C45.12630661 67.38026703 45.93247785 63.79030062 46.7421875 60.19921875 C47.08997792 58.64781653 47.4376294 57.09638316 47.78515625 55.54492188 C48.32565281 53.1340547 48.86690737 50.72337093 49.41064453 48.31323242 C54.49296781 28.10764258 54.49296781 28.10764258 56.1875 7.5 C56.16042969 6.2521875 56.13335937 5.004375 56.10546875 3.71875 C56.05326172 2.37296875 56.05326172 2.37296875 56 1 C55.34 1 54.68 1 54 1 C53.89300781 1.65484375 53.78601563 2.3096875 53.67578125 2.984375 C52.80776118 6.85785185 51.52195851 10.51556602 50.1875 14.25 C49.91687744 15.0128833 49.64625488 15.7757666 49.36743164 16.56176758 C47.76060074 21.03804182 46.0126567 25.38487274 44 29.6953125 C41.69541424 35.0066625 39.9151901 40.53912012 38 46 C36.54403511 50.07130922 34.98758483 54.06784748 33.1875 58 C30.08364649 64.84780131 27.60578501 71.95253599 25 79 C16.42 79 7.84 79 -1 79 C-1.12556319 52.64568227 -0.80875423 26.34228071 0 0 Z " fill="#F9F9F9" transform="translate(218,32)"/>
<path d="M0 0 C1.7315332 -0.01740234 1.7315332 -0.01740234 3.49804688 -0.03515625 C9.73897264 -0.01367286 14.63391487 0.15861993 20.0625 3.375 C24.00528008 9.28917012 22.31687602 16.63318673 21.034729 23.33456421 C20.28897559 27.00212212 19.49355069 30.65779288 18.6875 34.3125 C18.05041703 37.25820432 17.4195357 40.2052188 16.7890625 43.15234375 C16.63607193 43.86038147 16.48308136 44.56841919 16.32545471 45.2979126 C15.22011777 50.46545778 14.30926026 55.64486904 13.53735352 60.8737793 C12.20110988 67.91224511 9.36323908 72.76530439 3.84375 77.28125 C-1.36802615 80.48146342 -7.93226344 79.55900402 -13.8125 79.5625 C-14.88886719 79.57474609 -15.96523437 79.58699219 -17.07421875 79.59960938 C-27.18326395 79.61830675 -27.18326395 79.61830675 -31.9375 77.375 C-35.33880747 73.7469387 -35.23541742 70.23914394 -35.17822266 65.52783203 C-34.66898791 58.85819966 -33.10321177 52.33775548 -31.6875 45.8125 C-31.36166468 44.28346751 -31.03630857 42.75433282 -30.71142578 41.22509766 C-30.07823997 38.25552652 -29.43811552 35.2875827 -28.79199219 32.32080078 C-28.09180062 29.10235119 -27.41893385 25.87907356 -26.7578125 22.65234375 C-23.36346597 6.51648165 -23.36346597 6.51648165 -16.58203125 1.703125 C-11.08770249 -0.29909556 -5.79995618 -0.05809639 0 0 Z " fill="#F9F9F9" transform="translate(192.9375,31.625)"/>
<path d="M0 0 C5.1411629 -0.07449853 10.28200729 -0.12876593 15.42358398 -0.16479492 C17.1703845 -0.17982429 18.91714765 -0.20025354 20.66381836 -0.22631836 C23.18352515 -0.2629608 25.70273039 -0.27978492 28.22265625 -0.29296875 C28.99585709 -0.30845261 29.76905792 -0.32393646 30.56568909 -0.33988953 C35.77634289 -0.34148455 39.39498942 0.50143184 44 3 C47.33223704 7.99835556 46.44918444 13.26629156 45.5 19.04296875 C44.11524397 25.2507671 42.31292204 31.16041751 38 36 C37.34 36 36.68 36 36 36 C36 36.66 36 37.32 36 38 C34.68 38 33.36 38 32 38 C32.804375 38.804375 33.60875 39.60875 34.4375 40.4375 C38.15396579 44.15396579 38.15396579 44.15396579 38.1875 48.5 C38.15626694 52.8726284 37.48879933 56.74557108 36.45703125 60.9765625 C35.12081002 66.89248215 36.54566775 70.58001628 39 76 C39 76.99 39 77.98 39 79 C35.37506666 79.05787784 31.75025143 79.0935542 28.125 79.125 C27.09246094 79.14175781 26.05992187 79.15851563 24.99609375 79.17578125 C24.00996094 79.18222656 23.02382812 79.18867187 22.0078125 79.1953125 C20.64100342 79.21102295 20.64100342 79.21102295 19.24658203 79.22705078 C17 79 17 79 15 77 C14.5840308 67.19501176 17.40828721 56.66039522 19 47 C16.03 47 13.06 47 10 47 C9.1862674 51.20809596 8.37423172 55.41651765 7.5625 59.625 C7.33240234 60.81480469 7.10230469 62.00460938 6.86523438 63.23046875 C6.64287109 64.38417969 6.42050781 65.53789063 6.19140625 66.7265625 C5.98717041 67.78439941 5.78293457 68.84223633 5.57250977 69.93212891 C5.00974046 72.94780443 4.5043328 75.97400321 4 79 C-4.25 79 -12.5 79 -21 79 C-18.97286204 75.45250858 -16.99210519 71.98719941 -14.85913086 68.52880859 C-12.89483275 64.80038247 -12.03577686 61.66974911 -11.25390625 57.5390625 C-11.11759293 56.83910156 -10.9812796 56.13914063 -10.84083557 55.41796875 C-10.40294963 53.15572186 -9.98267052 50.89059722 -9.5625 48.625 C-9.26218188 47.05753475 -8.96057574 45.49031577 -8.65771484 43.92333984 C-8.05111103 40.77807231 -7.45056376 37.63174734 -6.85498047 34.484375 C-5.65998967 28.18819051 -4.39249523 21.90695504 -3.125 15.625 C-2.73138019 13.65893234 -2.3381171 11.6927932 -1.9453125 9.7265625 C-1.296875 6.484375 -0.6484375 3.2421875 0 0 Z " fill="#F9F9F9" transform="translate(117,32)"/>
<path d="M0 0 C7.59 0 15.18 0 23 0 C23.49371094 2.70832031 23.98742187 5.41664062 24.49609375 8.20703125 C24.97547107 10.82830227 25.45559464 13.44943556 25.93579102 16.07055664 C26.26925476 17.89300497 26.60194186 19.71559559 26.93383789 21.53833008 C27.41088271 24.15744164 27.89071331 26.77602971 28.37109375 29.39453125 C28.51904892 30.21025101 28.66700409 31.02597076 28.81944275 31.8664093 C29.39508701 34.99208917 29.99352413 37.9805724 31 41 C33.64 27.47 36.28 13.94 39 0 C46.59 0 54.18 0 62 0 C58.1875 6.375 58.1875 6.375 57.00463867 8.31396484 C51.14585781 18.34781499 49.56453482 30.15726852 47.30078125 41.40478516 C46.74938531 44.12803585 46.17960313 46.84704513 45.609375 49.56640625 C45.25407227 51.3174782 44.8998676 53.06877339 44.546875 54.8203125 C44.37613464 55.62260284 44.20539429 56.42489319 44.02947998 57.25149536 C42.4578641 65.26778758 43.72337375 71.03180814 46 79 C38.08 79 30.16 79 22 79 C21.50628906 76.45925781 21.01257813 73.91851562 20.50390625 71.30078125 C20.02403965 68.83178079 19.54412655 66.36278938 19.06420898 63.89379883 C18.73147807 62.18189422 18.39879526 60.46998025 18.06616211 58.75805664 C17.58720437 56.2931067 17.10807189 53.82819078 16.62890625 51.36328125 C16.48095108 50.60163162 16.33299591 49.83998199 16.18055725 49.05525208 C15.46362902 45.36813736 14.74154194 41.68224902 14 38 C13.79318604 39.13542236 13.58637207 40.27084473 13.37329102 41.44067383 C12.60579194 45.65103754 11.83543408 49.86087398 11.06420898 54.07055664 C10.73074524 55.89300497 10.39805814 57.71559559 10.06616211 59.53833008 C9.58911729 62.15744164 9.10928669 64.77602971 8.62890625 67.39453125 C8.48095108 68.21025101 8.33299591 69.02597076 8.18055725 69.8664093 C7.60491299 72.99208917 7.00647587 75.9805724 6 79 C-1.26 79 -8.52 79 -16 79 C-14 74 -14 74 -11.56640625 71.12109375 C-7.50296486 65.60035655 -7.0479251 58.66168659 -5.9375 52.0625 C-5.44150112 49.27069082 -4.93356492 46.4810926 -4.42578125 43.69140625 C-4.24375153 42.67713058 -4.24375153 42.67713058 -4.05804443 41.6423645 C-2.91770466 35.35774586 -1.39699935 29.23651803 0.3359375 23.09375 C1.40928165 18.093229 1.23688675 13.947547 0 9 C0 6.03 0 3.06 0 0 Z " fill="#F9F9F9" transform="translate(408,32)"/>
<path d="M0 0 C15.84 0 31.68 0 48 0 C46.875 12.375 46.875 12.375 45.4375 18.6875 C45.16808594 19.88761719 44.89867187 21.08773437 44.62109375 22.32421875 C44.41613281 23.20722656 44.21117187 24.09023438 44 25 C40.59280148 24.39021056 38.64859352 23.10806524 35.9375 21 C30.81795416 17.43338307 26.12611743 17.02290137 20 17 C19.86722656 17.74765625 19.73445312 18.4953125 19.59765625 19.265625 C19.42105469 20.25046875 19.24445312 21.2353125 19.0625 22.25 C18.88847656 23.22453125 18.71445312 24.1990625 18.53515625 25.203125 C18.09864867 27.48443468 17.56333632 29.74665473 17 32 C21.62 32 26.24 32 31 32 C30.01 36.62 29.02 41.24 28 46 C23.38 46 18.76 46 14 46 C13.690625 48.0625 13.38125 50.125 13.0625 52.25 C12.51350804 55.90994643 11.89854168 59.40583327 11 63 C17.435 62.505 17.435 62.505 24 62 C24 61.34 24 60.68 24 60 C26.12232979 58.82823482 28.24757791 57.66245215 30.375 56.5 C30.97828125 56.16613281 31.5815625 55.83226562 32.203125 55.48828125 C36.7734375 53 36.7734375 53 39 53 C37.63716474 61.75421237 35.86010743 70.31949865 34 79 C17.5 79 1 79 -16 79 C-11 70 -11 70 -9 67 C-8.40495736 64.73516176 -7.8877296 62.4495462 -7.4140625 60.15625 C-7.27209442 59.47875198 -7.13012634 58.80125397 -6.9838562 58.10322571 C-6.52443767 55.90343663 -6.07436349 53.7018632 -5.625 51.5 C-5.31364529 49.99298048 -5.00179529 48.48606321 -4.68945312 46.97924805 C-4.22435366 44.73477424 -3.75981407 42.49020033 -3.29803467 40.24504089 C-2.4414991 36.08802823 -1.55310265 31.94083771 -0.6171875 27.80078125 C-0.42431152 26.93710937 -0.23143555 26.0734375 -0.03271484 25.18359375 C0.31027094 23.65697691 0.6609132 22.13204979 1.02099609 20.609375 C1.95852502 16.36442395 1.90264441 13.22845922 1 9 C0.67 6.03 0.34 3.06 0 0 Z " fill="#F9F9F9" transform="translate(517,32)"/>
<path d="M0 0 C15.84 0 31.68 0 48 0 C47.36981917 6.30180826 46.71686793 12.00628384 45.4375 18.125 C45.22963867 19.13046875 45.22963867 19.13046875 45.01757812 20.15625 C44.68293224 21.77178185 44.34215896 23.38604266 44 25 C40.59280148 24.39021056 38.64859352 23.10806524 35.9375 21 C30.68800372 17.34285093 26.31437177 17.15985751 20 17 C19.01 21.95 18.02 26.9 17 32 C21.29 32 25.58 32 30 32 C29.125 42.625 29.125 42.625 28 46 C23.38 46 18.76 46 14 46 C13.690625 47.876875 13.38125 49.75375 13.0625 51.6875 C12.43839492 55.47373749 11.77402909 59.24142629 11 63 C18.77901514 62.84270374 23.76476686 61.64446751 30 57 C34.65517241 54 34.65517241 54 38 54 C38 61 38 61 34 79 C17.5 79 1 79 -16 79 C-14 75 -14 75 -12.0625 72.5625 C-9.30298566 68.55145871 -8.66192657 63.91775481 -7.7109375 59.21875 C-7.00936545 56.04240182 -6.0349752 53.0815803 -5 50 C-3.11002977 43.14169895 -2.09659464 36.28717797 -1.14453125 29.24609375 C-0.48649284 24.59737081 0.51203202 20.46390395 2 16 C2.07147074 13.71288672 2.07147074 13.71288672 1.6875 11.5625 C1.53861328 10.51255859 1.53861328 10.51255859 1.38671875 9.44140625 C1.25910156 8.63574219 1.13148438 7.83007812 1 7 C0.67 4.69 0.34 2.38 0 0 Z " fill="#F9F9F9" transform="translate(356,32)"/>
<path d="M0 0 C0.72539474 0.0028299 1.45078949 0.00565979 2.19816589 0.00857544 C4.50077243 0.01971451 6.80298102 0.04480684 9.10546875 0.0703125 C10.6725204 0.08035044 12.23957818 0.08947487 13.80664062 0.09765625 C17.63556853 0.1196332 21.46420131 0.15411911 25.29296875 0.1953125 C24.9827821 2.39727811 24.67133578 4.59906629 24.359375 6.80078125 C24.18607666 8.02692139 24.01277832 9.25306152 23.83422852 10.51635742 C21.74044774 24.74783351 21.74044774 24.74783351 20.29296875 26.1953125 C17.76247473 26.26844817 15.25992038 26.28778777 12.73046875 26.2578125 C11.6640918 26.25104492 11.6640918 26.25104492 10.57617188 26.24414062 C8.81506862 26.23232114 7.05400839 26.21438513 5.29296875 26.1953125 C5.62296875 23.2253125 5.95296875 20.2553125 6.29296875 17.1953125 C2.99296875 17.1953125 -0.30703125 17.1953125 -3.70703125 17.1953125 C-3.83843506 18.49976318 -3.96983887 19.80421387 -4.10522461 21.14819336 C-4.62378738 25.80298599 -5.41930894 30.35846413 -6.3359375 34.94921875 C-6.48989487 35.73554184 -6.64385223 36.52186493 -6.80247498 37.33201599 C-7.28806067 39.8079713 -7.77869985 42.28289236 -8.26953125 44.7578125 C-8.60255043 46.45110565 -8.93523569 48.14446452 -9.26757812 49.83789062 C-10.07687679 53.95779978 -10.89070461 58.07679037 -11.70703125 62.1953125 C-8.40703125 62.1953125 -5.10703125 62.1953125 -1.70703125 62.1953125 C-1.64644531 61.41285156 -1.58585937 60.63039062 -1.5234375 59.82421875 C-1.39775391 58.30634766 -1.39775391 58.30634766 -1.26953125 56.7578125 C-1.14771484 55.24380859 -1.14771484 55.24380859 -1.0234375 53.69921875 C-0.70703125 51.1953125 -0.70703125 51.1953125 0.29296875 50.1953125 C2.99165925 50.12205814 5.65799431 50.10308899 8.35546875 50.1328125 C10.97484375 50.1534375 13.59421875 50.1740625 16.29296875 50.1953125 C14.64296875 59.7653125 12.99296875 69.3353125 11.29296875 79.1953125 C6.70287071 79.241367 2.11358296 79.28114864 -2.4765625 79.30517578 C-4.03616054 79.31519807 -5.59573995 79.32881955 -7.15527344 79.34619141 C-9.40434379 79.3706066 -11.65316447 79.3818334 -13.90234375 79.390625 C-14.93864426 79.40610886 -14.93864426 79.40610886 -15.99588013 79.42190552 C-21.48388092 79.42316118 -25.87103303 78.78973201 -30.08203125 75.1328125 C-33.90522914 68.22164708 -31.1768778 59.23682816 -29.66015625 51.87890625 C-29.4476825 50.82300797 -29.23520874 49.76710968 -29.01629639 48.67921448 C-28.56671371 46.45882801 -28.11263762 44.2393471 -27.65429688 42.02075195 C-26.95898984 38.64232907 -26.28533555 35.26006858 -25.61328125 31.87695312 C-25.17187649 29.71067147 -24.72921025 27.5446464 -24.28515625 25.37890625 C-24.0870636 24.37661484 -23.88897095 23.37432343 -23.68487549 22.34165955 C-22.22237557 15.38152295 -20.5109914 8.92737623 -15.26953125 3.8203125 C-10.17806845 0.59157999 -5.96429208 -0.08845449 0 0 Z " fill="#F7F7F7" transform="translate(487.70703125,31.8046875)"/>
<path d="M0 0 C24.75 0 49.5 0 75 0 C75 0.33 75 0.66 75 1 C67.74 1 60.48 1 53 1 C53.495 4.0009375 53.495 4.0009375 54 7.0625 C55.38495475 15.45878819 54.93469296 22.17054264 52.8125 30.3125 C51.25916753 36.42637704 49.8676227 42.50862698 48.8359375 48.734375 C44.89937146 72.36219714 44.89937146 72.36219714 37 80 C36.34 80 35.68 80 35 80 C36.26525851 71.65467788 37.59047525 63.32219399 39 55 C36.70583427 56.12012792 34.41470906 57.24582841 32.125 58.375 C31.47402344 58.69210938 30.82304687 59.00921875 30.15234375 59.3359375 C27.41822959 60.68890121 25.17227482 61.82772518 23 64 C20.3984375 64.1953125 20.3984375 64.1953125 17.375 64.125 C16.37210937 64.10695313 15.36921875 64.08890625 14.3359375 64.0703125 C13.56507813 64.04710938 12.79421875 64.02390625 12 64 C12.51482919 58.147205 13.45357192 52.6702363 15 47 C19.62 47 24.24 47 29 47 C29.66 42.38 30.32 37.76 31 33 C26.71 33 22.42 33 18 33 C18.55145271 27.76119922 19.42922093 23.02649303 21 18 C27.61131132 17.20815093 31.9940777 17.45829362 37.5 21.4375 C38.2940625 22.07558594 39.088125 22.71367188 39.90625 23.37109375 C41.9965455 25.18381622 41.9965455 25.18381622 45 26 C45.03738281 25.45214844 45.07476562 24.90429688 45.11328125 24.33984375 C45.78189959 16.27709312 47.37644057 9.11779713 49 1 C33.16 1 17.32 1 1 1 C1.33 3.31 1.66 5.62 2 8 C0 5 0 5 0 0 Z " fill="#0F0F0F" transform="translate(355,31)"/>
<path d="M0 0 C0.99 0.33 1.98 0.66 3 1 C4.19060055 4.57180165 4.19136263 7.84364741 4.1875 11.5625 C4.18737915 12.63189819 4.18737915 12.63189819 4.18725586 13.72290039 C4.03431537 27.96568463 4.03431537 27.96568463 1 31 C0.64866382 32.75892703 0.34982512 34.52840924 0.07421875 36.30078125 C-0.10061035 37.38955566 -0.27543945 38.47833008 -0.45556641 39.60009766 C-0.63522949 40.72206543 -0.81489258 41.8440332 -1 43 C-1.6812187 47.07251707 -2.41886058 51.13064717 -3.1875 55.1875 C-3.35830078 56.20263672 -3.52910156 57.21777344 -3.70507812 58.26367188 C-5.10635977 65.48422944 -7.6109136 70.85664366 -13 76 C-13.66 76 -14.32 76 -15 76 C-19.55072983 68.41545029 -18.1071446 61.30813243 -16.3203125 53.109375 C-16.14748749 52.28350891 -15.97466248 51.45764282 -15.79660034 50.60675049 C-15.24691089 47.98618182 -14.68652989 45.36805453 -14.125 42.75 C-13.57396761 40.15255232 -13.02527142 37.55463393 -12.47872925 34.95623779 C-12.12523961 33.27674237 -11.76941215 31.59773718 -11.41116333 29.91925049 C-10.44519916 25.34420016 -9.64746298 20.78958974 -9 16.15625 C-8.23141504 11.30641934 -6.97571114 8.55087172 -3.875 4.75 C-3.15054687 3.83734375 -2.42609375 2.9246875 -1.6796875 1.984375 C-1.12539063 1.32953125 -0.57109375 0.6746875 0 0 Z " fill="#0B0B0B" transform="translate(301,33)"/>
<path d="M0 0 C3.3 0 6.6 0 10 0 C9.3858075 6.04605106 8.5438372 11.9695182 7.40625 17.9375 C7.25466431 18.74364746 7.10307861 19.54979492 6.94689941 20.38037109 C6.62920367 22.0646083 6.30981058 23.74852617 5.98876953 25.43212891 C5.49616298 28.02015873 5.01146419 30.60958963 4.52734375 33.19921875 C4.21661638 34.84123495 3.90543519 36.48316535 3.59375 38.125 C3.37652283 39.28890259 3.37652283 39.28890259 3.15490723 40.47631836 C2.11483948 45.88516052 2.11483948 45.88516052 1 47 C-0.68608966 47.07205511 -2.37500659 47.08386068 -4.0625 47.0625 C-4.98160156 47.05347656 -5.90070313 47.04445312 -6.84765625 47.03515625 C-7.55792969 47.02355469 -8.26820313 47.01195312 -9 47 C-8.32264364 39.80497019 -7.07464742 32.82687133 -5.625 25.75 C-5.29109253 24.09979858 -5.29109253 24.09979858 -4.95043945 22.41625977 C-3.42169221 14.91447471 -1.81872023 7.4375307 0 0 Z " fill="#101010" transform="translate(186,48)"/>
<path d="M0 0 C1.65322266 0.01740234 1.65322266 0.01740234 3.33984375 0.03515625 C4.99693359 0.04869141 4.99693359 0.04869141 6.6875 0.0625 C7.54214844 0.07410156 8.39679688 0.08570313 9.27734375 0.09765625 C8.64924145 8.22431569 7.28287706 16.15502058 5.77734375 24.16015625 C5.55175781 25.39443359 5.32617188 26.62871094 5.09375 27.90039062 C3.40469755 36.97030245 3.40469755 36.97030245 2.27734375 38.09765625 C0.25770176 38.17009678 -1.76432749 38.18142813 -3.78515625 38.16015625 C-4.88988281 38.15113281 -5.99460937 38.14210937 -7.1328125 38.1328125 C-8.41478516 38.11541016 -8.41478516 38.11541016 -9.72265625 38.09765625 C-9.09455395 29.97099681 -7.72818956 22.04029192 -6.22265625 14.03515625 C-5.99707031 12.80087891 -5.77148438 11.56660156 -5.5390625 10.29492188 C-3.64623668 0.13078324 -3.64623668 0.13078324 0 0 Z " fill="#070707" transform="translate(79.72265625,34.90234375)"/>
<path d="M0 0 C3.3 0 6.6 0 10 0 C9.02973942 10.62268051 7.09874742 21.0014751 4.9375 31.4375 C4.80180603 32.09849701 4.66611206 32.75949402 4.52630615 33.44052124 C2.18117762 44.81882238 2.18117762 44.81882238 1 46 C-2.00003445 46.14177857 -4.99757235 46.04228771 -8 46 C-7.47857523 38.110532 -6.21894841 30.58571144 -4.5 22.875 C-2.62304389 14.43524863 -2.62304389 14.43524863 -1.40625 5.8828125 C-1 2 -1 2 0 0 Z " fill="#0E0E0E" transform="translate(323,49)"/>
<path d="M0 0 C3.3 0 6.6 0 10 0 C9.34 4.95 8.68 9.9 8 15 C4.37 15 0.74 15 -3 15 C-2.69163768 12.87439563 -2.37818386 10.74952935 -2.0625 8.625 C-1.88847656 7.44164062 -1.71445313 6.25828125 -1.53515625 5.0390625 C-1 2 -1 2 0 0 Z " fill="#0A0A0A" transform="translate(133,49)"/>
<path d="M0 0 C1.93166016 0.01740234 1.93166016 0.01740234 3.90234375 0.03515625 C5.19269531 0.04417969 6.48304687 0.05320312 7.8125 0.0625 C8.81152344 0.07410156 9.81054688 0.08570312 10.83984375 0.09765625 C10.50984375 3.39765625 10.17984375 6.69765625 9.83984375 10.09765625 C5.17317708 10.09765625 0.50651042 10.09765625 -4.16015625 10.09765625 C-4.18704841 8.61858733 -4.20650246 7.13938142 -4.22265625 5.66015625 C-4.23425781 4.83644531 -4.24585937 4.01273438 -4.2578125 3.1640625 C-4.09664209 -0.24630333 -3.49217455 0.1079164 0 0 Z " fill="#373737" transform="translate(85.16015625,126.90234375)"/>
<path d="M0 0 C1 2 1 2 0.13549805 5.1328125 C-0.31425566 6.46632603 -0.77281781 7.79688836 -1.23828125 9.125 C-1.47910934 9.8277002 -1.71993744 10.53040039 -1.96806335 11.25439453 C-2.47986148 12.74182041 -2.99541594 14.22795825 -3.5144043 15.71289062 C-4.30814722 17.98752621 -5.08752614 20.26671426 -5.86523438 22.546875 C-6.36373025 23.98987832 -6.86305198 25.43259666 -7.36328125 26.875 C-7.59670731 27.55836426 -7.83013336 28.24172852 -8.07063293 28.94580078 C-9.08900362 31.83738842 -9.80360314 33.80360314 -12 36 C-12 29.07 -12 22.14 -12 15 C-11.67 15 -11.34 15 -11 15 C-10.67 19.29 -10.34 23.58 -10 28 C-9.04287109 25.09380859 -9.04287109 25.09380859 -8.06640625 22.12890625 C-7.44772572 20.25896174 -6.82902433 18.38902405 -6.2097168 16.51928711 C-5.77894911 15.21690951 -5.34925775 13.91417542 -4.9206543 12.61108398 C-4.30538637 10.74109627 -3.68595941 8.87247858 -3.06640625 7.00390625 C-2.69459229 5.87799072 -2.32277832 4.7520752 -1.93969727 3.59204102 C-1 1 -1 1 0 0 Z " fill="#6D6D6D" transform="translate(247,51)"/>
<path d="M0 0 C1.134375 0.020625 2.26875 0.04125 3.4375 0.0625 C2.7775 1.7125 2.1175 3.3625 1.4375 5.0625 C2.0975 5.0625 2.7575 5.0625 3.4375 5.0625 C3.4375 6.3825 3.4375 7.7025 3.4375 9.0625 C0.54515685 9.88888376 -1.44992431 10.0625 -4.5625 10.0625 C-4.58939216 8.58343108 -4.60884621 7.10422517 -4.625 5.625 C-4.63660156 4.80128906 -4.64820312 3.97757813 -4.66015625 3.12890625 C-4.49001835 -0.47121162 -3.73687179 0.06555915 0 0 Z " fill="#434343" transform="translate(85.5625,126.9375)"/>
<path d="M0 0 C0.66 0 1.32 0 2 0 C3.09506492 3.28519475 3.09960608 5.73663415 3.0625 9.1875 C3.05347656 10.27417969 3.04445313 11.36085938 3.03515625 12.48046875 C3.02355469 13.31191406 3.01195312 14.14335938 3 15 C2.67 15 2.34 15 2 15 C2 12.03 2 9.06 2 6 C0.68 6.99 -0.64 7.98 -2 9 C-1.41196203 5.97580475 -0.77321882 2.98241547 0 0 Z " fill="#565656" transform="translate(272,33)"/>
<path d="M0 0 C0.66 0.33 1.32 0.66 2 1 C1.34 2.32 0.68 3.64 0 5 C0.66 5 1.32 5 2 5 C2 6.32 2 7.64 2 9 C0.68 9.33 -0.64 9.66 -2 10 C-3.125 4.25 -3.125 4.25 -2 2 C-1.34 2 -0.68 2 0 2 C0 1.34 0 0.68 0 0 Z " fill="#858585" transform="translate(87,127)"/>
<path d="M0 0 C0.33 0 0.66 0 1 0 C1.33 3.3 1.66 6.6 2 10 C0.02 10.99 0.02 10.99 -2 12 C-1.85904936 10.3745692 -1.71207913 8.74965949 -1.5625 7.125 C-1.48128906 6.22007813 -1.40007812 5.31515625 -1.31640625 4.3828125 C-1 2 -1 2 0 0 Z " fill="#383838" transform="translate(422,68)"/>
<path d="M0 0 C0.66 0.33 1.32 0.66 2 1 C1.50628906 1.47050781 1.01257813 1.94101562 0.50390625 2.42578125 C-0.13675781 3.04839844 -0.77742188 3.67101563 -1.4375 4.3125 C-2.07558594 4.92738281 -2.71367187 5.54226562 -3.37109375 6.17578125 C-5.2221418 8.00644056 -5.2221418 8.00644056 -6 11 C-6.66 11 -7.32 11 -8 11 C-6.46457536 6.52167812 -4.39145948 2.19572974 0 0 Z " fill="#D7D7D7" transform="translate(475,34)"/>
<path d="M0 0 C0.99 0 1.98 0 3 0 C2.67 3.3 2.34 6.6 2 10 C1.01 10 0.02 10 -1 10 C-0.67 8.02 -0.34 6.04 0 4 C0.66 4 1.32 4 2 4 C2 3.01 2 2.02 2 1 C1.34 0.67 0.68 0.34 0 0 Z " fill="#595959" transform="translate(93,127)"/>
<path d="M0 0 C0.33 0.66 0.66 1.32 1 2 C1.66 2 2.32 2 3 2 C2.34 3.65 1.68 5.3 1 7 C-0.32 7 -1.64 7 -3 7 C-1.125 2.25 -1.125 2.25 0 0 Z " fill="#252525" transform="translate(467,36)"/>
<path d="M0 0 C0.99 0.33 1.98 0.66 3 1 C3.33 3.31 3.66 5.62 4 8 C2 5 2 5 2 3 C-0.475 4.485 -0.475 4.485 -3 6 C-1.125 1.125 -1.125 1.125 0 0 Z " fill="#626262" transform="translate(301,33)"/>
</svg>
