<?xml version="1.0" encoding="UTF-8"?>
<svg version="1.1" xmlns="http://www.w3.org/2000/svg" width="541" height="188">
<path d="M0 0 C0.73536987 -0.00067474 1.47073975 -0.00134949 2.22839355 -0.00204468 C19.89394071 0.02362502 36.53247053 2.19548442 53.65332031 6.6237793 C59.46620084 8.22008858 59.46620084 8.22008858 65.4375 8.25 C66.365625 7.2290625 66.365625 7.2290625 67.3125 6.1875 C68.01375 5.548125 68.715 4.90875 69.4375 4.25 C76.58753538 4.76455679 83.06555555 7.40633849 89.72802734 9.86035156 C91.82312095 10.62889609 93.92472862 11.37731652 96.02734375 12.125 C97.35981401 12.61077666 98.69186167 13.09771442 100.0234375 13.5859375 C101.2304834 14.02470215 102.4375293 14.4634668 103.68115234 14.91552734 C104.59074707 15.35590332 105.5003418 15.7962793 106.4375 16.25 C107.4375 19.25 107.4375 19.25 106.20922852 22.25830078 C105.58841984 23.4924537 104.9566503 24.72112935 104.31640625 25.9453125 C103.98100327 26.60612823 103.64560028 27.26694397 103.30003357 27.94778442 C102.58085902 29.36227667 101.85723946 30.774516 101.12963867 32.18469238 C99.6266703 35.09886587 98.14643719 38.02435937 96.66488647 40.94946289 C95.57976677 43.09082204 94.49136054 45.23048933 93.40283203 47.37011719 C91.02530634 52.05354865 88.69786766 56.75884747 86.4375 61.5 C86.1185376 62.15242676 85.7995752 62.80485352 85.47094727 63.47705078 C83.92486749 66.74590517 83.4375 68.52932023 83.4375 72.25 C84.98334296 74.13029091 84.98334296 74.13029091 87.0625 75.875 C93.70684215 82.20182491 97.55999902 89.61749707 100.4375 98.25 C102.2647911 95.50906335 103.37448178 93.11174676 104.5625 90.0625 C105.09230469 88.71091797 105.09230469 88.71091797 105.6328125 87.33203125 C105.89835938 86.64496094 106.16390625 85.95789063 106.4375 85.25 C114.97653386 86.81974487 122.90178182 89.83972314 131 92.875 C132.40409799 93.39636926 133.80839349 93.91720694 135.21289062 94.4375 C138.62339243 95.7022133 142.03116583 96.97409774 145.4375 98.25 C145.1075 101.55 144.7775 104.85 144.4375 108.25 C148.3975 109.24 152.3575 110.23 156.4375 111.25 C156.4375 89.47 156.4375 67.69 156.4375 45.25 C153.7975 44.92 151.1575 44.59 148.4375 44.25 C148.41285426 38.28686834 148.394666 32.32376605 148.38256836 26.3605957 C148.37752722 24.33031702 148.37069443 22.30004198 148.36206055 20.26977539 C148.34998533 17.35822653 148.34426966 14.4467255 148.33984375 11.53515625 C148.33468246 10.6216188 148.32952118 9.70808136 148.32420349 8.76686096 C148.32400832 6.59424573 148.37538195 4.42172704 148.4375 2.25 C150.089345 0.598155 152.06567845 1.12541713 154.27307987 1.11625659 C154.9698556 1.11848732 155.66663134 1.12071804 156.38452148 1.12301636 C157.48730391 1.12067637 157.48730391 1.12067637 158.61236477 1.11828911 C161.09446103 1.11427644 163.57649695 1.11746978 166.05859375 1.12060547 C167.83049557 1.11925155 169.6023971 1.11747166 171.3742981 1.11529541 C176.20060536 1.11072001 181.02689135 1.11251107 185.85319901 1.1156745 C190.89228627 1.11819755 195.93137165 1.11586071 200.97045898 1.11428833 C209.4344109 1.11246647 217.8983541 1.11487337 226.36230469 1.11962891 C236.16265912 1.12507156 245.96299275 1.12330891 255.76334667 1.1178025 C264.16161624 1.11327183 272.55987952 1.1126206 280.95814991 1.11524117 C285.98112644 1.1168042 291.00409318 1.11699701 296.02706909 1.11370468 C300.74819798 1.11082663 305.46929991 1.11280044 310.19042587 1.11859894 C311.928343 1.11992689 313.66626237 1.11953182 315.40417862 1.11733627 C317.76630973 1.11462615 320.12835308 1.11800418 322.49047852 1.12301636 C323.18725425 1.12078564 323.88402998 1.11855491 324.60192013 1.11625659 C329.32335013 1.13585013 329.32335013 1.13585013 330.4375 2.25 C330.52624135 5.35251201 330.55268455 8.4326812 330.53515625 11.53515625 C330.53303383 12.93138466 330.53303383 12.93138466 330.53086853 14.3558197 C330.52525172 17.34141191 330.5126964 20.32693029 330.5 23.3125 C330.49498716 25.33137913 330.49042388 27.35025943 330.48632812 29.36914062 C330.47527683 34.32945572 330.45800095 39.28971532 330.4375 44.25 C327.7975 44.58 325.1575 44.91 322.4375 45.25 C322.54493551 53.03857623 322.65755542 60.82705855 322.77683926 68.61546135 C322.83206054 72.2317282 322.88547924 75.84800315 322.93481445 79.46435547 C322.98246978 82.95275122 323.03481296 86.4410477 323.09044075 89.9293251 C323.12081232 91.91132188 323.14629787 93.89339155 323.17173767 95.87545776 C323.19168289 97.07655182 323.21162811 98.27764587 323.23217773 99.51513672 C323.24772202 100.57658905 323.2632663 101.63804138 323.27928162 102.73165894 C323.27279181 105.24579236 323.27279181 105.24579236 324.4375 107.25 C327.84525133 108.51688167 331.27612398 108.3833211 334.875 108.375 C335.98746094 108.37757812 337.09992188 108.38015625 338.24609375 108.3828125 C341.1247994 108.26301324 343.66951573 108.04372326 346.4375 107.25 C347.77080029 104.58339943 347.59909459 102.50111257 347.64282227 99.51513672 C347.66276749 98.31404266 347.68271271 97.11294861 347.70326233 95.87545776 C347.71997482 94.57335358 347.73668732 93.27124939 347.75390625 91.9296875 C347.77447625 90.58732462 347.79547273 89.24496821 347.81687927 87.90261841 C347.87209531 84.36811562 347.92150658 80.83355443 347.96972656 77.2989502 C348.01994504 73.69273678 348.07562929 70.08660828 348.13085938 66.48046875 C348.23843517 59.40371951 348.33988142 52.32689416 348.4375 45.25 C344.4775 44.755 344.4775 44.755 340.4375 44.25 C340.41285426 38.28686834 340.394666 32.32376605 340.38256836 26.3605957 C340.37752722 24.33031702 340.37069443 22.30004198 340.36206055 20.26977539 C340.34998533 17.35822653 340.34426966 14.4467255 340.33984375 11.53515625 C340.33468246 10.6216188 340.32952118 9.70808136 340.32420349 8.76686096 C340.32400832 6.59424573 340.37538195 4.42172704 340.4375 2.25 C342.313088 0.374412 345.02038718 1.12337021 347.51617432 1.11447144 C348.38997742 1.11649567 349.26378052 1.1185199 350.1640625 1.12060547 C351.07943787 1.11885315 351.99481323 1.11710083 352.93792725 1.11529541 C355.97947049 1.11087539 359.02095611 1.11381541 362.0625 1.1171875 C364.1661785 1.1165145 366.26985692 1.11554452 368.37353516 1.11428833 C372.78874449 1.11281115 377.20393363 1.11496655 381.61914062 1.11962891 C387.29242561 1.1253262 392.96566329 1.1220473 398.63894653 1.11605644 C402.98478556 1.11245136 407.33061328 1.11358917 411.67645264 1.11618423 C413.7689413 1.11685365 415.86143097 1.11602457 417.95391846 1.11370468 C420.87295266 1.11117902 423.79190912 1.11501752 426.7109375 1.12060547 C427.5847406 1.11858124 428.4585437 1.11655701 429.35882568 1.11447144 C435.32323764 1.13573764 435.32323764 1.13573764 436.4375 2.25 C436.52624135 5.35251201 436.55268455 8.4326812 436.53515625 11.53515625 C436.5337413 12.46597519 436.53232635 13.39679413 436.53086853 14.3558197 C436.52525172 17.34141191 436.5126964 20.32693029 436.5 23.3125 C436.49498716 25.33137913 436.49042388 27.35025943 436.48632812 29.36914062 C436.47527683 34.32945572 436.45800095 39.28971532 436.4375 44.25 C434.1275 44.58 431.8175 44.91 429.4375 45.25 C429.44416183 46.01404648 429.45082367 46.77809296 429.45768738 47.56529236 C429.5183559 54.84446892 429.56375291 62.12351908 429.59293652 69.40288448 C429.60844553 73.14329445 429.62940519 76.8834917 429.66381836 80.6237793 C429.92725299 110.03979112 428.84265947 138.28853748 407.12109375 160.6328125 C385.95226333 180.6803405 356.87951465 185.03944676 328.81347656 184.34326172 C307.22323325 183.49580252 286.09747004 178.15317166 268.4375 165.25 C268.4375 164.59 268.4375 163.93 268.4375 163.25 C267.84453125 162.97800781 267.2515625 162.70601562 266.640625 162.42578125 C254.68221804 156.04372364 248.34467966 140.44802432 244.4375 128.25 C241.34194526 117.36453277 241.29682718 106.38546016 241.33984375 95.15234375 C241.34171247 93.70789133 241.34313423 92.26343827 241.34413147 90.81898499 C241.34792091 87.04613446 241.35772003 83.27332339 241.36883545 79.50048828 C241.37912704 75.63900282 241.38364557 71.77751089 241.38867188 67.91601562 C241.39934606 60.36065924 241.41637872 52.80533518 241.4375 45.25 C240.1175 45.25 238.7975 45.25 237.4375 45.25 C237.44749275 46.74098961 237.44749275 46.74098961 237.45768738 48.26210022 C237.51885363 57.69044052 237.56364155 67.11873987 237.59293652 76.54723454 C237.6085043 81.39298419 237.62957743 86.23857198 237.66381836 91.08422852 C237.6967323 95.77214049 237.71441958 100.45989807 237.72213173 105.14791679 C237.72761837 106.92463036 237.73832988 108.70133676 237.75469017 110.47798347 C237.87650124 124.2713139 237.47749936 138.19027766 230.75 150.625 C230.40114746 151.29072021 230.05229492 151.95644043 229.69287109 152.64233398 C221.92951542 166.93673899 209.61121642 175.01164459 194.4375 180.25 C170.47758556 186.85064428 143.81678726 185.87328363 120 179.25 C116.15114762 178.12573753 116.15114762 178.12573753 112.53125 179.24609375 C111.14139991 180.55439651 109.78719244 181.90030756 108.4375 183.25 C103.84701891 182.24280584 100.24396604 180.07016443 96.3125 177.5625 C95.17619315 176.85220522 94.03946395 176.1425857 92.90234375 175.43359375 C90.6174865 173.99759988 88.34105023 172.54994922 86.06640625 171.09765625 C84.48666016 170.12119141 84.48666016 170.12119141 82.875 169.125 C81.92496094 168.52429688 80.97492188 167.92359375 79.99609375 167.3046875 C77.57642246 165.98944756 77.57642246 165.98944756 75.56640625 166.828125 C74.86386719 167.29734375 74.16132813 167.7665625 73.4375 168.25 C35.09164175 188.20021004 -8.19112054 188.15603629 -49.5625 177.25 C-51.29113281 176.66798828 -51.29113281 176.66798828 -53.0546875 176.07421875 C-56.51214595 174.93788895 -58.9095624 175.61529121 -62.23974609 176.89404297 C-65.69712407 177.42387869 -68.76682767 176.48226302 -72.1015625 175.6328125 C-72.82362885 175.45620087 -73.54569519 175.27958923 -74.28964233 175.09762573 C-75.81200313 174.72354465 -77.33328173 174.3450353 -78.85351562 173.96240234 C-81.18401675 173.37587664 -83.51733987 172.80198473 -85.8515625 172.23046875 C-87.33090908 171.86531143 -88.81008209 171.49945007 -90.2890625 171.1328125 C-90.98802643 170.9598465 -91.68699036 170.78688049 -92.40713501 170.6086731 C-97.32608443 169.36820778 -97.32608443 169.36820778 -99.5625 168.25 C-99.00872983 162.13801814 -96.43163592 157.01944308 -93.9375 151.5 C-90.70584078 144.22457917 -87.57935202 136.94169332 -84.75 129.5 C-82.56544974 123.75908774 -80.21567163 118.15436391 -77.6328125 112.578125 C-74.60035576 106.32991221 -74.60035576 106.32991221 -73.625 99.5625 C-74.47811354 97.14206193 -74.47811354 97.14206193 -76.3125 95.0625 C-83.27423934 86.36032583 -85.95533579 76.40924182 -85.875 65.4375 C-85.87081055 64.64996338 -85.86662109 63.86242676 -85.86230469 63.05102539 C-85.74080166 56.75290282 -84.81782846 51.16051597 -82.5625 45.25 C-82.2840625 44.486875 -82.005625 43.72375 -81.71875 42.9375 C-74.53886749 25.11158479 -59.88246823 13.84222146 -42.65625 6.34375 C-28.76667024 1.43329251 -14.64530868 0.0120472 0 0 Z " fill="#0D0B0C" transform="translate(101.5625,1.75)"/>
<path d="M0 0 C0.80856445 0.00248749 1.61712891 0.00497498 2.45019531 0.00753784 C21.28604432 0.09735901 37.88576791 3.13868512 56.11132812 7.97485352 C57.25666016 8.27576904 58.40199219 8.57668457 59.58203125 8.88671875 C60.60272705 9.16088623 61.62342285 9.43505371 62.67504883 9.7175293 C65.76668876 10.34107697 68.47982321 10.52095389 71.625 10.3125 C73.79532476 8.87259377 73.79532476 8.87259377 75.625 7.3125 C76.615 7.3125 77.605 7.3125 78.625 7.3125 C78.00129252 11.91863783 76.11873693 15.71190738 74.02734375 19.80078125 C73.67362198 20.50397995 73.31990021 21.20717865 72.95545959 21.9316864 C71.83009922 24.16568349 70.69644457 26.39534992 69.5625 28.625 C68.7956718 30.14360152 68.02938962 31.66247888 67.26367188 33.18164062 C65.39042351 36.89515171 63.50972764 40.60480273 61.625 44.3125 C59.66796875 43.98828125 59.66796875 43.98828125 57.625 43.3125 C57.398125 42.384375 57.17125 41.45625 56.9375 40.5 C55.45041831 36.8885159 55.09595071 36.73305768 51.69921875 35.28125 C46.62500409 33.1759318 41.47306627 31.83551573 36.125 30.625 C34.79662109 30.30692383 34.79662109 30.30692383 33.44140625 29.98242188 C23.15136393 27.58745608 13.24186264 27.10729305 2.6875 27.0625 C1.47642578 27.041875 0.26535156 27.02125 -0.98242188 27 C-9.53613644 26.96295088 -16.92751627 27.77108073 -24.4375 32.0625 C-27.10067715 35.15522185 -27.44731074 37.26309883 -27.375 41.3125 C-24.32885802 45.82079013 -20.12873919 46.74279022 -15.0065918 47.80249023 C-8.59054935 49.01305326 -2.25743772 49.76809598 4.25 50.25 C60.30431444 54.85098997 60.30431444 54.85098997 73.625 70.3125 C81.25187198 81.38879817 81.58778483 91.14307256 80.625 104.3125 C79.84380735 108.11579221 78.68927172 111.03924671 76.625 114.3125 C76.20089844 114.99957031 75.77679688 115.68664062 75.33984375 116.39453125 C66.49294059 129.28291663 53.4567496 135.57340346 38.625 139.3125 C37.52091797 139.60253906 37.52091797 139.60253906 36.39453125 139.8984375 C9.25811485 146.52644717 -24.04099761 143.68297606 -50.15307617 134.33154297 C-55.0736591 132.57602994 -60.09814646 131.10992232 -65.375 131.3125 C-66.86 132.3025 -66.86 132.3025 -68.375 133.3125 C-69.365 133.3125 -70.355 133.3125 -71.375 133.3125 C-69.16594215 124.95471704 -65.89315348 117.15718159 -62.4375 109.25 C-61.90640181 108.02300243 -61.37580033 106.79578974 -60.84570312 105.56835938 C-58.05889769 99.13324545 -55.23523319 92.71528707 -52.375 86.3125 C-51.715 86.3125 -51.055 86.3125 -50.375 86.3125 C-50.33503906 86.89257812 -50.29507813 87.47265625 -50.25390625 88.0703125 C-49.77161892 91.67853622 -49.26097367 94.38531825 -46.6953125 97.0703125 C-31.65610509 107.59224882 -12.99144909 110.49023691 4.875 110.5 C6.03902344 110.51224609 7.20304687 110.52449219 8.40234375 110.53710938 C19.21299578 110.55526836 31.4876963 110.07917395 40.29296875 102.96484375 C42.86958098 100.2583183 43.62406092 98.31942571 44.125 94.625 C43.58365368 91.03858061 43.38117919 90.43604633 40.625 88.3125 C32.82363304 85.50262712 24.45195876 84.60851224 16.25 83.75 C15.12730713 83.62488037 14.00461426 83.49976074 12.84790039 83.37084961 C6.510067 82.67747445 0.17089971 82.09906237 -6.18457031 81.59667969 C-24.68178692 80.10719116 -46.06609798 77.28447584 -58.96875 62.484375 C-65.24550682 54.0910374 -65.28252621 45.36584664 -64.375 35.3125 C-62.30633831 24.7054025 -53.92226735 16.57478737 -45.3359375 10.55078125 C-39.39724757 6.80065235 -33.1391 4.18626895 -26.375 2.3125 C-25.15425781 1.96058594 -23.93351562 1.60867187 -22.67578125 1.24609375 C-15.25047621 -0.36209931 -7.56077591 -0.0368457 0 0 Z " fill="#FCFBFB" transform="translate(101.375,22.6875)"/>
<path d="M0 0 C18.15 0 36.3 0 55 0 C55 0.99 55 1.98 55 3 C52.69 3.99 50.38 4.98 48 6 C47.90696708 16.11026332 47.83606698 26.22042335 47.79275131 36.33102894 C47.77195288 41.02674892 47.74377828 45.72217419 47.69824219 50.41772461 C47.65450619 54.95650278 47.63080478 59.49499901 47.62049103 64.03397179 C47.61314913 65.7581901 47.59881317 67.4823945 47.57707977 69.20649147 C47.3536056 83.06924108 47.3536056 83.06924108 52 96 C52.99281759 97.00713119 53.99132635 98.00874955 55 99 C55 99.66 55 100.32 55 101 C55.680625 101.268125 56.36125 101.53625 57.0625 101.8125 C59.19037315 102.67270404 61.29221119 103.59824592 63.375 104.5625 C74.71570026 109.05967424 88.6477467 108.04943182 100 104 C106.52253918 100.50578258 110.10807277 96.12158681 112.37588501 89.05227661 C113.82219396 81.9790048 113.35880659 74.59248017 113.29296875 67.40234375 C113.28736562 65.59917048 113.28309891 63.7959926 113.28010559 61.99281311 C113.26871323 57.27290995 113.23929501 52.55328873 113.20599365 47.83349609 C113.17517115 43.00687472 113.16157434 38.18020729 113.14648438 33.35351562 C113.11441938 23.90222065 113.06329173 14.45113387 113 5 C111.02 4.34 109.04 3.68 107 3 C107 2.01 107 1.02 107 0 C124.82 0 142.64 0 161 0 C161 0.99 161 1.98 161 3 C159.02 3.66 157.04 4.32 155 5 C154.99635437 6.01682861 154.99270874 7.03365723 154.98895264 8.08129883 C154.95178427 17.73029146 154.89377695 27.37897137 154.81609726 37.02772522 C154.77682463 41.98659461 154.74453809 46.94529179 154.72900391 51.90429688 C154.71370279 56.70265212 154.6790238 61.50053323 154.63169098 66.29867554 C154.61701441 68.11636195 154.60896701 69.93411611 154.60811615 71.75186157 C154.59029811 90.75548831 152.03862212 108.34904394 138.44921875 122.6796875 C123.07586086 137.24392129 103.43372395 141.40586879 82.875 141.3125 C81.59616943 141.30758545 80.31733887 141.3026709 78.99975586 141.29760742 C57.85656658 141.03651427 37.31050616 136.93894851 21.62109375 121.6875 C8.68042128 106.75784372 7.70470604 89.32914324 7.5859375 70.6484375 C7.56720095 68.77942066 7.54762573 66.91041206 7.5272522 65.04141235 C7.47618759 60.15237308 7.43642538 55.26330646 7.39910889 50.37414551 C7.35890724 45.37306089 7.30788907 40.37208751 7.2578125 35.37109375 C7.16135765 25.5808076 7.0768566 15.79045826 7 6 C4.69 5.01 2.38 4.02 0 3 C0 2.01 0 1.02 0 0 Z " fill="#FDFBFB" transform="translate(356,24)"/>
<path d="M0 0 C4.14224053 1.13596804 8.20773751 2.10105252 12.46850586 2.71362305 C12.46850586 2.05362305 12.46850586 1.39362305 12.46850586 0.71362305 C13.12850586 0.71362305 13.78850586 0.71362305 14.46850586 0.71362305 C14.79850586 -0.27637695 15.12850586 -1.26637695 15.46850586 -2.28637695 C20.03587027 -1.58575212 24.03845636 0.02632512 28.28100586 1.77612305 C28.97387695 2.0577832 29.66674805 2.33944336 30.38061523 2.62963867 C32.0781821 3.32037278 33.77356898 4.01646033 35.46850586 4.71362305 C33.96773596 9.57217611 32.02027426 14.07050004 29.84350586 18.65112305 C29.31889771 19.76221436 29.31889771 19.76221436 28.78369141 20.89575195 C26.10922847 26.50286063 23.2348204 31.98161735 20.27661133 37.44287109 C14.80267624 46.60862666 14.80267624 46.60862666 12.46850586 56.71362305 C13.96967645 58.09099751 13.96967645 58.09099751 15.96850586 59.33862305 C25.08102155 65.90286001 31.72670267 74.45122331 34.07788086 85.60424805 C36.03069412 101.14864162 33.0770943 115.90982687 23.98022461 128.8269043 C11.10936857 144.64669156 -10.12780903 152.03107911 -29.84790039 154.2565918 C-36.30410816 154.8777482 -42.76403463 154.86364538 -49.24365234 154.84399414 C-51.32990881 154.83865907 -53.41594751 154.84395657 -55.50219727 154.8503418 C-73.19169218 154.86080624 -89.26839725 152.3918569 -106.22753906 147.42749023 C-110.6361798 146.15472966 -114.93308882 145.05080068 -119.53149414 144.71362305 C-120.52149414 145.70362305 -120.52149414 145.70362305 -121.53149414 146.71362305 C-128.76334362 146.36369485 -135.56004588 144.58919034 -142.53149414 142.71362305 C-139.87719335 134.25186273 -136.51629081 126.09959319 -133.15649414 117.90112305 C-132.58592989 116.50213715 -132.01561587 115.10304918 -131.44555664 113.70385742 C-121.77446435 89.98953248 -121.77446435 89.98953248 -118.13305664 82.65112305 C-117.37463521 80.20841507 -117.55725212 79.06882949 -118.53149414 76.71362305 C-119.98392935 75.08596387 -119.98392935 75.08596387 -121.78149414 73.58862305 C-129.03979123 66.65889085 -131.5876484 58.20903941 -131.82397461 48.43237305 C-131.89518935 40.09503813 -131.3940146 33.28125717 -127.53149414 25.71362305 C-127.1305957 24.87702148 -126.72969727 24.04041992 -126.31665039 23.1784668 C-118.27511462 8.09767362 -103.23612074 0.19004662 -87.46899414 -4.66137695 C-58.58592877 -12.04550905 -28.33344717 -7.78688327 0 0 Z M-113.73852539 22.4909668 C-121.46906139 32.07413669 -122.61219861 42.84354205 -121.53149414 54.71362305 C-120.71047909 57.89916145 -119.52613831 60.12058563 -117.53149414 62.71362305 C-117.11899414 63.31174805 -116.70649414 63.90987305 -116.28149414 64.52612305 C-106.32958446 77.64454945 -88.00387234 80.97431575 -72.61352539 83.1003418 C-66.38941084 83.88880231 -60.14441989 84.41895558 -53.89379883 84.94702148 C-47.30979422 85.51520786 -40.76572598 86.24909253 -34.21899414 87.15112305 C-33.37804199 87.26133789 -32.53708984 87.37155273 -31.6706543 87.48510742 C-17.76794682 89.47717037 -17.76794682 89.47717037 -13.53149414 93.71362305 C-13.00853402 97.04749384 -12.92549121 99.52635199 -14.48852539 102.58862305 C-19.31819611 109.04674182 -26.3772958 111.02508189 -34.06665039 112.29956055 C-57.5181625 114.91820201 -84.99441648 113.48752888 -104.53149414 98.71362305 C-106.82783239 95.26911568 -107.07165899 92.77550022 -107.53149414 88.71362305 C-110.68485587 89.38066165 -110.68485587 89.38066165 -111.71069336 91.94750977 C-112.08210449 92.91962402 -112.45351562 93.89173828 -112.83618164 94.89331055 C-113.25512695 95.96838867 -113.67407227 97.0434668 -114.10571289 98.15112305 C-114.5349707 99.28549805 -114.96422852 100.41987305 -115.40649414 101.58862305 C-116.25543919 103.79536094 -117.10698671 106.00109948 -117.96118164 108.20581055 C-118.38214111 109.2930542 -118.80310059 110.38029785 -119.23681641 111.50048828 C-120.83683856 115.47142766 -122.6064808 119.34597563 -124.44091797 123.21337891 C-126.20501664 127.25773407 -127.39563633 131.4564649 -128.53149414 135.71362305 C-126.36275162 135.20758313 -124.53181787 134.71378491 -122.53149414 133.71362305 C-116.34035409 133.78727892 -110.86005603 135.46114221 -105.09399414 137.52612305 C-79.65816323 145.94629522 -49.84435953 148.13197371 -23.53149414 142.71362305 C-22.49895508 142.50737305 -21.46641602 142.30112305 -20.40258789 142.08862305 C-6.56115328 138.97739381 7.4367761 133.09489587 16.46850586 121.71362305 C23.84017774 109.99882168 24.76006334 99.38010334 23.46850586 85.71362305 C22.38447668 81.80482075 20.89886672 78.93605138 18.46850586 75.71362305 C17.76725586 74.66174805 17.06600586 73.60987305 16.34350586 72.52612305 C4.02853198 58.94116749 -17.11708452 55.76019874 -34.34399414 54.08862305 C-35.57577393 53.96165039 -36.80755371 53.83467773 -38.07666016 53.70385742 C-44.37204063 53.06862389 -50.65078861 52.54338325 -56.96899414 52.21362305 C-63.71521436 51.8227644 -70.03804921 50.56120544 -76.53149414 48.71362305 C-77.29977539 48.50995117 -78.06805664 48.3062793 -78.85961914 48.09643555 C-80.78149414 47.46362305 -80.78149414 47.46362305 -83.53149414 45.71362305 C-84.78149414 42.33862305 -84.78149414 42.33862305 -84.53149414 38.71362305 C-81.15581474 33.92233616 -76.91065573 32.37913751 -71.53149414 30.71362305 C-70.54149414 30.38362305 -69.55149414 30.05362305 -68.53149414 29.71362305 C-47.88959751 28.43895503 -18.36989385 27.90571825 -0.53149414 40.71362305 C0.28100586 43.40112305 0.28100586 43.40112305 0.46850586 45.71362305 C1.78850586 46.04362305 3.10850586 46.37362305 4.46850586 46.71362305 C6.89722875 41.93027004 9.31808137 37.14304833 11.73168945 32.35205078 C12.55407415 30.72237846 13.37860851 29.09378911 14.20532227 27.46630859 C15.39245792 25.12837817 16.57183772 22.78667697 17.74975586 20.4440918 C18.30753723 19.35175484 18.30753723 19.35175484 18.87658691 18.23735046 C20.92724019 14.17743452 20.92724019 14.17743452 21.46850586 9.71362305 C18.50675463 10.32639916 17.08791803 10.96734826 14.46850586 12.71362305 C5.3058482 12.32792596 -3.50291159 9.60000416 -12.34399414 7.32885742 C-26.28970211 3.84243043 -39.88913632 2.33998267 -54.2199707 2.34301758 C-56.53028181 2.33862535 -58.83870292 2.30207231 -61.14868164 2.2644043 C-80.9479354 2.11670172 -99.70392719 7.95213153 -113.73852539 22.4909668 Z " fill="#A22337" transform="translate(158.531494140625,20.286376953125)"/>
<path d="M0 0 C24.75 0 49.5 0 75 0 C75 7.59 75 15.18 75 23 C72.36 23 69.72 23 67 23 C67.03813774 32.11934585 67.09761613 41.23823582 67.18390274 50.35725403 C67.22331362 54.5921884 67.25553319 58.82691683 67.27099609 63.06201172 C67.28620513 67.15363413 67.32072493 71.24469013 67.36830902 75.33605957 C67.38307928 76.89240581 67.39103851 78.44883293 67.39188385 80.00524902 C67.35765122 91.5961112 67.35765122 91.5961112 72 102 C77.10152588 106.9421032 83.57576609 106.21307478 90.25 106.25 C91.16652344 106.270625 92.08304687 106.29125 93.02734375 106.3125 C99.06552442 106.34695467 103.51073774 105.56124128 109 103 C113.07523765 98.79330307 113.13719505 94.61281089 113.20532227 88.95825195 C113.21522186 88.24580322 113.22512146 87.53335449 113.23532104 86.79931641 C113.266895 84.44567176 113.29167719 82.09200694 113.31640625 79.73828125 C113.33697933 78.10588559 113.35797589 76.47349521 113.37937927 74.84111023 C113.43456344 70.54544354 113.48398883 66.24972906 113.53222656 61.95397949 C113.58246827 57.57018788 113.6381404 53.18646562 113.69335938 48.80273438 C113.80089625 40.20188157 113.90235114 31.60097072 114 23 C111.69 23 109.38 23 107 23 C107 15.41 107 7.82 107 0 C131.42 0 155.84 0 181 0 C181 7.59 181 15.18 181 23 C178.69 23 176.38 23 174 23 C174.00444122 23.89598907 174.00888245 24.79197815 174.01345825 25.71511841 C174.05376467 34.21667691 174.08410007 42.71820268 174.10362434 51.21983528 C174.11399983 55.58914437 174.12804304 59.95837358 174.15087891 64.32763672 C174.17283231 68.55518234 174.18461532 72.78265181 174.18975449 77.01025009 C174.19341033 78.6119392 174.20054734 80.21362481 174.21146011 81.81528091 C174.3569825 104.0875426 170.96506844 123.98908703 155.1796875 140.90625 C135.87490774 159.44990941 108.48399504 161.42828422 83.1875 161.21875 C75.11859122 161.05151873 67.79295222 160.10473215 60 158 C58.88238281 157.7215625 57.76476562 157.443125 56.61328125 157.15625 C39.62486576 152.49197498 25.36327858 142.9516948 16.39453125 127.6328125 C10.43836837 116.38784392 7.82111026 105.66889937 7.88647461 92.93164062 C7.88632858 92.16969391 7.88618256 91.40774719 7.8860321 90.62271118 C7.88672219 88.13386062 7.89447171 85.6450873 7.90234375 83.15625 C7.90421115 81.41890504 7.90563353 79.68155955 7.90663147 77.94421387 C7.9104313 73.39374309 7.9202397 68.84330474 7.93133545 64.29284668 C7.9416043 59.64054808 7.94614077 54.98824419 7.95117188 50.3359375 C7.96186446 41.22394417 7.97891012 32.11197479 8 23 C5.36 23 2.72 23 0 23 C0 15.41 0 7.82 0 0 Z M10 10 C10 10.99 10 11.98 10 13 C13.465 14.485 13.465 14.485 17 16 C17.00586624 17.02349045 17.01173248 18.0469809 17.01777649 19.10148621 C17.07524556 28.79552576 17.14813123 38.48934618 17.23571491 48.18316174 C17.28024677 53.16562945 17.31953977 58.14801863 17.34643555 63.13061523 C17.37264122 67.94834446 17.41316275 72.76576859 17.46318626 77.58330727 C17.47973914 79.41184985 17.49132489 81.24044506 17.49761391 83.06905174 C17.56623327 101.20404458 19.6341297 119.43906777 32.95703125 133.203125 C39.72863118 139.15902552 46.93747876 143.30698467 55.375 146.375 C56.02130371 146.6136377 56.66760742 146.85227539 57.33349609 147.09814453 C80.74110826 154.99200643 111.1430016 154.0818378 133.5 143.3125 C146.71904262 136.45210635 156.23897515 126.14917515 161.17578125 112.03125 C161.44777344 111.0309375 161.71976563 110.030625 162 109 C162.16613297 108.40494659 162.33226593 107.80989319 162.50343323 107.19680786 C164.67550985 98.14254299 164.3552364 88.90099798 164.4140625 79.6484375 C164.43279905 77.77942066 164.45237427 75.91041206 164.4727478 74.04141235 C164.52381241 69.15237308 164.56357462 64.26330646 164.60089111 59.37414551 C164.64109276 54.37306089 164.69211093 49.37208751 164.7421875 44.37109375 C164.83864235 34.5808076 164.9231434 24.79045826 165 15 C166.98 14.34 168.96 13.68 171 13 C171 12.01 171 11.02 171 10 C153.18 10 135.36 10 117 10 C117 10.99 117 11.98 117 13 C118.98 13.66 120.96 14.32 123 15 C123.06968359 25.40560862 123.12290427 35.8111612 123.15543652 46.21695614 C123.17105481 51.04942539 123.19222264 55.88173432 123.22631836 60.71411133 C123.2590491 65.38254421 123.27688184 70.05082343 123.28463173 74.71936226 C123.2901507 76.49545267 123.30092767 78.27153521 123.31719017 80.04755974 C123.512591 102.28291341 123.512591 102.28291341 115.87109375 110.49609375 C106.39582696 118.11191361 92.56933254 117.91607209 81.11328125 116.69140625 C75.64247593 115.74469721 71.69026174 113.93141359 67 111 C66.34 111 65.68 111 65 111 C63.56645606 108.17791126 62.22438695 105.3293258 60.9375 102.4375 C60.59589844 101.67308594 60.25429688 100.90867187 59.90234375 100.12109375 C58.05209527 95.77180836 57.86350406 92.05823385 57.88647461 87.4074707 C57.88632858 86.63650055 57.88618256 85.8655304 57.8860321 85.07119751 C57.88672881 82.52269681 57.8945099 79.97426918 57.90234375 77.42578125 C57.90420879 75.65886983 57.90563229 73.8919579 57.90663147 72.12504578 C57.91044988 67.47421847 57.92027442 62.82342239 57.93133545 58.17260742 C57.94156409 53.42692487 57.94613221 48.68123727 57.95117188 43.93554688 C57.96189727 34.6236842 57.97896561 25.3118447 58 16 C61.465 14.515 61.465 14.515 65 13 C65 12.01 65 11.02 65 10 C46.85 10 28.7 10 10 10 Z " fill="#A22337" transform="translate(346,14)"/>
<path d="M0 0 C17.82 0 35.64 0 54 0 C54 0.99 54 1.98 54 3 C52.02 3.66 50.04 4.32 48 5 C47.99120064 6.84257133 47.99120064 6.84257133 47.98222351 8.72236633 C47.92487267 20.33010522 47.85204666 31.93765899 47.76428509 43.54520893 C47.71966347 49.51197761 47.68038924 55.4786793 47.65356445 61.44555664 C47.62744965 67.20989429 47.58698944 72.973973 47.53681374 78.73814964 C47.52020024 80.93119256 47.50865177 83.1242802 47.50238609 85.31737709 C47.49268487 88.40236833 47.46455387 91.4867053 47.43237305 94.5715332 C47.43452568 95.91482193 47.43452568 95.91482193 47.4367218 97.2852478 C47.27817384 108.11636567 44.47862168 119.11283865 36.95703125 127.1953125 C20.83872327 142.23166865 -1.65423686 141.90704916 -22.49267578 141.23974609 C-33.67792573 140.47516894 -44.59544182 137.32329035 -55.10375977 133.53735352 C-57.69032639 132.80437641 -59.48141427 133.13648489 -62 134 C-65.81818182 135.09090909 -65.81818182 135.09090909 -68 134 C-67.56242026 129.62420258 -66.268149 126.4362481 -64.23046875 122.57421875 C-62.65161585 119.27115823 -61.38719465 115.87017847 -60.125 112.4375 C-57.22940087 104.56378013 -54.15019404 96.77494699 -51 89 C-50.01 89 -49.02 89 -48 89 C-47.938125 90.216875 -47.87625 91.43375 -47.8125 92.6875 C-47.38585632 95.95651303 -46.99923245 97.0010234 -44.9375 99.75 C-34.58352047 107.68070772 -20.46993017 109.75445865 -7.59375 109.34765625 C-3.5844171 108.81026073 -0.03805874 107.73791318 3 105 C6.26529979 99.81400426 6.4150937 95.61356271 6.34057617 89.68994141 C6.34101425 88.77222961 6.34145233 87.85451782 6.34190369 86.90899658 C6.33982139 83.88963199 6.31651653 80.87082955 6.29296875 77.8515625 C6.28737081 75.75263777 6.28310165 73.65370911 6.28010559 71.55477905 C6.26867242 66.04080307 6.23921822 60.5270656 6.20599365 55.01318359 C6.17525992 49.3825198 6.16159318 43.75181732 6.14648438 38.12109375 C6.1143472 27.0806246 6.06316919 16.04033216 6 5 C4.02 4.34 2.04 3.68 0 3 C0 2.01 0 1.02 0 0 Z " fill="#FCFAFB" transform="translate(271,24)"/>
<path d="M0 0 C24.75 0 49.5 0 75 0 C75 7.59 75 15.18 75 23 C72.36 23 69.72 23 67 23 C67.00888245 24.16129929 67.01776489 25.32259857 67.0269165 26.51908875 C67.10829758 37.50794428 67.16810652 48.496738 67.20724869 59.48582745 C67.22804915 65.1343163 67.25622812 70.78256025 67.30175781 76.4309082 C67.34548559 81.89039807 67.3691937 87.3496536 67.37950897 92.80930519 C67.38685225 94.8835398 67.40119087 96.9577628 67.42292023 99.03189659 C67.5982329 116.47288891 65.79993431 131.24058755 54 145 C35.76628208 161.54423007 11.31490169 162.1142003 -12 161 C-22.8510966 160.1437492 -33.29913342 158.43658297 -43.50390625 154.57421875 C-45.96113502 153.76928098 -45.96113502 153.76928098 -48.08984375 154.76953125 C-49.34765719 155.57977917 -50.60523183 156.39039794 -51.86254883 157.20141602 C-54 158 -54 158 -56.01464844 157.30908203 C-57.05153809 156.66495361 -57.05153809 156.66495361 -58.109375 156.0078125 C-59.24052734 155.32138672 -59.24052734 155.32138672 -60.39453125 154.62109375 C-61.56048828 153.88052734 -61.56048828 153.88052734 -62.75 153.125 C-63.54277344 152.63902344 -64.33554688 152.15304688 -65.15234375 151.65234375 C-67.11086195 150.4489169 -69.05896138 149.23135033 -71 148 C-69.82457435 143.68298216 -68.52426551 139.61629599 -66.75 135.5 C-64.7655571 130.83655918 -62.85996519 126.15128212 -61 121.4375 C-59.27905104 117.08975315 -57.48412772 112.79784956 -55.5 108.5625 C-52.2361995 101.54586048 -49.6522208 94.26398619 -47 87 C-41.85404946 87.57618751 -37.44921945 88.74743278 -32.5625 90.5625 C-31.32628906 91.01753906 -30.09007812 91.47257812 -28.81640625 91.94140625 C-27.42228516 92.46541016 -27.42228516 92.46541016 -26 93 C-26 96.63 -26 100.26 -26 104 C-10.14135881 109.74378154 -10.14135881 109.74378154 6 108 C6.33 79.95 6.66 51.9 7 23 C4.69 23 2.38 23 0 23 C0 15.41 0 7.82 0 0 Z M10 10 C10 10.99 10 11.98 10 13 C11.98 13.66 13.96 14.32 16 15 C16.06953218 27.15241671 16.12282775 39.30478604 16.15543652 51.45736122 C16.17108764 57.10038915 16.19231608 62.74328091 16.22631836 68.38623047 C16.25893115 73.83270988 16.27685718 79.27905837 16.28463173 84.7256279 C16.29017176 86.80284053 16.30099007 88.88004606 16.31719017 90.95720291 C16.3389897 93.86827288 16.34196584 96.77880285 16.34057617 99.68994141 C16.351362 100.54733917 16.36214783 101.40473694 16.3732605 102.28811646 C16.34750555 107.27910429 15.73442457 110.65714787 13 115 C8.34173614 119.19804984 2.49578224 119.54558791 -3.51171875 119.32421875 C-14.93190545 118.26276803 -25.61159053 116.89324981 -34.9375 109.75 C-37.70548177 106.05935765 -37.76794829 103.56368368 -38 99 C-38.99 99 -39.98 99 -41 99 C-42.49375496 102.6619349 -43.98706024 106.32405284 -45.47998047 109.98632812 C-46.23251937 111.83212423 -46.98539629 113.67778252 -47.73828125 115.5234375 C-50.51652963 122.33940686 -53.27591593 129.16221191 -56 136 C-56.36641602 136.8544873 -56.73283203 137.70897461 -57.11035156 138.58935547 C-58.17311243 141.04081439 -58.17311243 141.04081439 -58 144 C-55.60280568 144.67958603 -55.60280568 144.67958603 -53 145 C-52.01 144.01 -52.01 144.01 -51 143 C-46.28428486 143.378174 -41.94990366 144.5005016 -37.4375 145.875 C-34.95852872 146.58401684 -32.47936437 147.29235901 -30 148 C-28.48019531 148.46019531 -28.48019531 148.46019531 -26.9296875 148.9296875 C-18.76133645 151.07925357 -10.85398935 151.28270915 -2.4375 151.3125 C-1.31384033 151.31797852 -0.19018066 151.32345703 0.9675293 151.32910156 C16.76813214 151.19548124 33.94690256 149.2842181 46.04296875 138.11328125 C55.02244302 128.36796696 57.28787331 117.74239469 57.31884766 104.79858398 C57.32889328 103.82191269 57.3389389 102.84524139 57.34928894 101.838974 C57.37994465 98.64135272 57.39710686 95.44381448 57.4140625 92.24609375 C57.43278832 90.01692499 57.45236278 87.78776321 57.4727478 85.55860901 C57.52392549 79.7143873 57.56362794 73.87014265 57.60089111 68.02581787 C57.64102103 62.05296215 57.69207227 56.08020069 57.7421875 50.10742188 C57.83877664 38.40501427 57.92323562 26.70255327 58 15 C59.98 14.34 61.96 13.68 64 13 C64 12.01 64 11.02 64 10 C46.18 10 28.36 10 10 10 Z " fill="#A12236" transform="translate(261,14)"/>
<path d="M0 0 C1.98 0 3.96 0 6 0 C6.06975834 10.50145129 6.12294184 21.00284671 6.15543652 31.50448322 C6.17103867 36.38173467 6.1921765 41.25882664 6.22631836 46.13598633 C6.25910731 50.84981524 6.27689392 55.56349154 6.28463173 60.27742577 C6.29014037 62.06860949 6.30089668 63.85978562 6.31719017 65.6509037 C6.47245432 83.43932723 3.61330663 98.29560577 -8.671875 111.84375 C-22.44969891 125.26829638 -43.77261065 127.21552498 -62.04443359 127.18334961 C-78.57041508 126.96603757 -95.73606806 124.58658272 -109 114 C-109.66 113.01 -110.32 112.02 -111 111 C-108.26048695 111.86510939 -105.56409167 112.74893647 -102.9375 113.91796875 C-80.8839473 123.6409033 -52.45459599 122.70699857 -30 114.6875 C-18.1949173 109.75029313 -9.93615405 102.91023799 -5 91 C-0.83903173 80.45788005 -0.39620893 70.81169841 -0.390625 59.66796875 C-0.37561026 57.93775409 -0.35887633 56.20755359 -0.34051514 54.47737122 C-0.29719845 49.96808134 -0.27692264 45.45898465 -0.26177979 40.94952393 C-0.24207864 36.33016706 -0.20012417 31.71101498 -0.16015625 27.09179688 C-0.08524171 18.06126165 -0.03471696 9.0307731 0 0 Z " fill="#B6B6B6" transform="translate(497,31)"/>
<path d="M0 0 C1.98 0 3.96 0 6 0 C6.09296032 12.57030066 6.16389686 25.14051861 6.20724869 37.7110939 C6.22806258 43.54905652 6.25626666 49.38678276 6.30175781 55.22460938 C6.34543695 60.8656418 6.36918365 66.50644783 6.37950897 72.14763641 C6.38686085 74.29247345 6.40121672 76.43729905 6.42292023 78.58203888 C6.69324248 106.41964282 6.69324248 106.41964282 -2.9609375 116.3203125 C-12.42048689 124.11266162 -25.06162869 126.50630795 -37 127 C-38.25554687 127.05285156 -39.51109375 127.10570312 -40.8046875 127.16015625 C-58.47528495 127.65234428 -74.48858593 124.09561165 -91 118 C-90.67 117.01 -90.34 116.02 -90 115 C-84.68525794 115.55544609 -79.95403961 116.55091986 -74.8125 118.0625 C-55.94779575 122.9313717 -33.13643087 122.22642963 -15.3125 114 C-7.87770283 109.51106586 -3.70508699 104.46989958 -1.44935608 95.91059875 C-0.83000496 91.89889696 -0.82207481 87.94923984 -0.79467773 83.89526367 C-0.78477814 82.98745148 -0.77487854 82.07963928 -0.76467896 81.14431763 C-0.73316365 78.15222761 -0.70834599 75.16012172 -0.68359375 72.16796875 C-0.66301561 70.09002781 -0.64201892 68.01209098 -0.62062073 65.93415833 C-0.56548886 60.47127614 -0.51604044 55.00835673 -0.46777344 49.54541016 C-0.41749349 43.96839087 -0.36184134 38.39142549 -0.30664062 32.81445312 C-0.19916774 21.87634815 -0.09769869 10.93819634 0 0 Z " fill="#B5B5B5" transform="translate(305,31)"/>
<path d="M0 0 C3.06280014 1.322869 4.73694379 2.56568274 6.625 5.3125 C7.02976563 5.88613281 7.43453125 6.45976563 7.8515625 7.05078125 C12.51949826 14.97357017 12.14623438 25.12266399 10.41796875 33.984375 C6.97097862 43.86889465 -0.38082728 50.69666003 -9.5 55.375 C-43.25495964 71.64249862 -86.00129842 64.64454526 -120 53 C-120.66 52.67 -121.32 52.34 -122 52 C-121.67 51.01 -121.34 50.02 -121 49 C-116.60794289 49.96320413 -112.2208484 50.93771341 -107.8515625 52 C-89.25634169 56.45462638 -71.0860966 57.47407281 -52 57 C-50.12634766 56.95552734 -50.12634766 56.95552734 -48.21484375 56.91015625 C-32.75750181 56.124839 -14.89963053 51.57180641 -3.390625 40.5859375 C3.77039183 32.41915988 5.52585202 23.70985819 5.40234375 13.01953125 C4.74792377 8.1082046 2.58311223 4.16988118 0 0 Z " fill="#B5B5B5" transform="translate(164,94)"/>
<path d="M0 0 C1.17336914 0.00870117 2.34673828 0.01740234 3.55566406 0.02636719 C21.29761942 0.32118039 41.33102676 2.42130101 57 11.375 C58.65 8.735 60.3 6.095 62 3.375 C64.31 4.035 66.62 4.695 69 5.375 C67.68938409 9.60929756 66.05643741 13.44907404 64 17.375 C61.28169995 16.72895852 58.6612013 15.95472324 56.0234375 15.03515625 C39.04591854 9.19010692 23.56536054 7.20470269 5.5625 7.0625 C4.34240234 7.03349609 3.12230469 7.00449219 1.86523438 6.97460938 C-9.61185995 6.89528868 -20.03617319 8.6044995 -28.609375 16.69140625 C-31.28606712 19.93200822 -31.10977933 23.04375672 -31.0625 27.0625 C-31.05347656 28.05636719 -31.04445313 29.05023438 -31.03515625 30.07421875 C-31.02355469 30.83347656 -31.01195313 31.59273437 -31 32.375 C-34.73456644 29.72149227 -36.85100903 27.86651015 -38 23.375 C-38.52824 18.62084004 -38.07644976 15.15991339 -35.44140625 11.07421875 C-26.68104819 0.74696737 -12.62153363 -0.15772332 0 0 Z " fill="#B6B6B6" transform="translate(98,35.625)"/>
<path d="M0 0 C5.74495105 0.47370118 11.33153424 1.19502399 16.9765625 2.3581543 C29.40777938 4.90429266 41.86997068 6.0414581 54.49804688 7.04833984 C55.57209778 7.134347 55.57209778 7.134347 56.66784668 7.22209167 C58.62720331 7.37700973 60.58702729 7.52598413 62.546875 7.67456055 C65.73702643 7.97521608 68.84831389 8.42869647 72 9 C72 9.66 72 10.32 72 11 C63.57876984 14.32561142 56.28137299 15.62469622 47.25 15.4375 C46.11401367 15.42356201 44.97802734 15.40962402 43.80761719 15.39526367 C30.60355431 15.10695305 10.00211172 13.90500384 0 4 C0 2.68 0 1.36 0 0 Z " fill="#060102" transform="translate(62,109)"/>
<path d="M0 0 C1.65 0 3.3 0 5 0 C5.00546844 1.44793694 5.00546844 1.44793694 5.01104736 2.92512512 C5.04812762 12.06062207 5.10604143 21.19578599 5.18390274 30.33102894 C5.22326661 35.02660755 5.25550915 39.72200173 5.27099609 44.41772461 C5.28623617 48.95671848 5.32081055 53.49520495 5.36830902 58.03397179 C5.38304747 59.75809993 5.39103665 61.48230054 5.39188385 63.20649147 C5.40064286 72.10111154 5.49705307 79.78113847 9.24407959 88.04374695 C9.49353333 88.68931046 9.74298706 89.33487396 10 90 C9.505 90.99 9.505 90.99 9 92 C8.04646075 90.86747928 7.11317635 89.71790624 6.1875 88.5625 C5.66542969 87.92441406 5.14335937 87.28632812 4.60546875 86.62890625 C-0.96424217 77.50867401 -0.39483271 67.9927075 -0.29296875 57.71484375 C-0.28736464 56.04619226 -0.2830984 54.37753578 -0.28010559 52.70887756 C-0.26872089 48.34406603 -0.23930962 43.97956004 -0.20599365 39.61486816 C-0.17515432 35.15018851 -0.16157079 30.68545888 -0.14648438 26.22070312 C-0.11443295 17.48032946 -0.06331504 8.74020288 0 0 Z " fill="#B2B2B2" transform="translate(391,32)"/>
<path d="M0 0 C1.11181641 0.58007812 1.11181641 0.58007812 2.24609375 1.171875 C20.39926783 10.14847516 40.02184145 11.34945181 59.88720703 13.35449219 C63.30895548 13.70379667 66.72860385 14.06998837 70.1484375 14.4375 C71.17576996 14.53554932 72.20310242 14.63359863 73.26156616 14.73461914 C82.16516537 15.70064305 91.35774955 17.58679266 98 24 C97.67 24.66 97.34 25.32 97 26 C95.97519531 25.54753906 94.95039063 25.09507813 93.89453125 24.62890625 C87.69777515 22.31209491 81.21883596 21.73703053 74.6875 20.9375 C73.33756167 20.76506702 71.98770856 20.5919656 70.63793945 20.41821289 C63.33117375 19.48724139 56.01756422 18.66056815 48.6875 17.9375 C32.28569206 16.29000891 13.87322951 14.43592719 1 3 C0.67 2.01 0.34 1.02 0 0 Z " fill="#B6B6B6" transform="translate(48,79)"/>
<path d="M0 0 C0 0.99 0 1.98 0 3 C-0.57927246 2.89453857 -1.15854492 2.78907715 -1.75537109 2.68041992 C-17.14023037 -0.06868766 -32.42462832 -1.82112885 -47.99951172 -2.96020508 C-48.71586288 -3.01577072 -49.43221405 -3.07133636 -50.17027283 -3.12858582 C-52.12916017 -3.28002265 -54.08885815 -3.420866 -56.04858398 -3.56103516 C-59 -4 -59 -4 -61 -6 C-41.05442964 -9.27621064 -18.96784604 -6.60741784 0 0 Z " fill="#0D0204" transform="translate(149,66)"/>
</svg>
