<svg xmlns="http://www.w3.org/2000/svg" width="247" height="105.14" viewBox="0 0 247 105.14">
 <g transform="matrix(1.3333 0 0 -1.3333 -102.05 649.85)">
  <g transform="translate(-2.9027 2.4561)">
   <path d="m240.55 466.39v-38.367h-19.591v23.393l-0.022 0.325c-1.352 10.136-9.974 13.794-14.345 14.313l-55.144 0.017-0.236-0.047c-13.948-2.756-17.037-13.677-16.73-19.19-0.337-10.45 8.86-16.313 13.79-17.956l0.175-0.058 2.494-0.432h-21.453c-0.178 0.118-0.297 0.222-0.373 0.299v55.225h-23.484v-17.204h-25.396v-21.294l25.555-0.046v-21.371l0.034-0.201c1.845-11.072 11.174-15.582 15.848-16.419l0.191-0.034 0.194-5e-3c3.175-0.062 22.085-0.422 36.612-0.422 8.314 0 15.193 0.118 16.862 0.477 4.858 1.047 10.143 4.664 10.367 4.817l0.11 0.081c6.783 5.259 6.774 13.513 6.755 14.332-0.011 5.921-3.012 10.184-3.335 10.626-3.12 4.354-8.767 6.619-9.007 6.713l-0.189 0.076-3.492 0.745h21.758v-20.787l0.019-0.302c1.626-13.172 15.838-16.503 16.442-16.637l0.265-0.06h31.715l0.24 0.048c13.264 2.668 16.257 14.508 16.378 15.011l0.068 0.283v44.051z" fill="#171796"/>
   <path d="m107.64 482.01v-17.203h-25.396v-17.476l25.554-0.0454v-23.076l9e-3 -0.0894c2.087-12.524 14.178-14.829 14.3-14.851l0.0864-0.0103c1.302-0.026 21.856-0.4248 37.069-0.4248 7.946 0 14.436 0.10899 15.962 0.43799 4.492 0.967 9.474 4.3766 9.709 4.5396 6.225 4.826 6.0252 12.483 6.0132 12.787 0 5.512-2.8538 9.3827-2.9678 9.5347-2.792 3.91-7.9456 5.9755-8.1636 6.0615l-21.091 4.5102h41.292c0.112-0.067 0.32526-0.32679 0.48926-0.59179v-22.109l4e-3 -0.0659c1.463-11.851 14.828-14.977 14.962-15.007l0.06-0.0132h31.258l0.10839 0.0103c12.08 2.43 14.869 13.473 14.896 13.585l0.0147 41.975h-19.251v-38.231c0-0.092-0.11331-0.12477-0.17431-0.13477h-23.241v25.304l-6e-3 0.0718c-1.495 11.213-12.563 12.654-12.674 12.668l-54.678 3e-3 -0.10693-0.0102c-15.56-3.076-15.22-16.511-15.186-17.285-0.448-11.725 12.35-16.13 12.479-16.173l22.616-3.9258c0.124-0.031 0.21525-0.0619 0.28125-0.0879-0.078-0.066-0.18257-0.13915-0.28857-0.20215h-42.51c-1.426 0.747-1.7265 1.5567-1.7695 1.7007v53.824zm1.0913-1.0913h17.476v-52.794l7e-3 -0.082c0.023-0.15 0.28799-1.4943 2.48-2.5913l0.11573-0.0571h43.039l0.11573 0.0571c0.358 0.18 1.185 0.6746 1.106 1.3916-0.078 0.709-0.93683 0.92249-1.2568 1.0005l-22.53 3.9067c-0.731 0.259-12.118 4.484-11.697 15.104l1e-3 0.0308-1e-3 0.0278c-0.035 0.537-0.67559 13.185 14.254 16.166h54.523c0.604-0.085 10.321-1.61 11.688-11.688v-25.141c-0.085-0.21-0.11203-0.48096 0.022-0.73096 0.173-0.324 0.5338-0.48779 1.0708-0.48779h23.279l0.0542 3e-3c0.471 0.047 1.1748 0.41308 1.1748 1.2261v37.137h17.067v-40.686c-0.228-0.842-3.0649-10.474-13.982-12.699h-31.08c-0.915 0.225-12.715 3.3358-14.06 14.029v22.362l-0.0674 0.12158c-0.262 0.476-0.80077 1.2744-1.4678 1.2744h-43.794l-0.104-0.0103c-0.519-0.1-0.83658-0.36695-0.87158-0.73095-0.054-0.561 0.56697-0.81009 0.77197-0.89209l23.391-5.001c0.479-0.198 5.1561-2.1948 7.6421-5.6748 0.028-0.037 2.7598-3.7552 2.7598-8.9092 3e-3 -0.074 0.19513-7.4182-5.5679-11.887-0.049-0.034-5.0124-3.431-9.2944-4.352-4.267-0.92-51.016-0.0238-52.736 0.0102-0.863 0.166-11.429 2.4293-13.368 13.904v24.122l-25.556 0.0439v15.294h25.396z" fill="#fff"/>
  </g>
 </g>
</svg>