<?xml version="1.0" encoding="UTF-8" standalone="no"?>
<svg xmlns:rdf="http://www.w3.org/1999/02/22-rdf-syntax-ns#" xmlns="http://www.w3.org/2000/svg" xml:space="preserve" height="67.45" viewBox="0 0 252 67.449753" width="252" version="1.1" xmlns:cc="http://creativecommons.org/ns#" xmlns:dc="http://purl.org/dc/elements/1.1/"><g transform="matrix(1.25 0 0 -1.25 -571.34 798.57)"><g transform="matrix(5.517 0 0 5.517 -2515.5 -2759.5)"><path d="m568.32 609.02-0.614 0.132v-2.271l0.415-0.089v1.737l0.124-0.044 0.618-1.853 0.62-0.134v2.272l-0.415 0.089v-1.741l-0.106 0.016-0.642 1.886zm-1.8256-1.368c-0.062-0.139-0.177-0.237-0.324-0.237h-0.004c-0.019 0-0.039 0.001-0.06 0.005h-0.003c-0.162 0.024-0.283 0.139-0.354 0.299-0.072 0.16-0.105 0.37-0.105 0.615 0 0.227 0.028 0.417 0.093 0.559 0.063 0.141 0.18 0.241 0.331 0.239 0.02 0 0.04-0.002 0.06-0.005 0.333-0.058 0.458-0.438 0.459-0.914 0-0.229-0.028-0.419-0.093-0.561m-0.384 1.8c-0.052 0.008-0.105 0.012-0.156 0.012-0.43-0.006-0.817-0.258-0.824-1.032 0.003-0.866 0.511-1.262 1.001-1.339 0.052-0.007 0.105-0.012 0.157-0.012 0.429 0.007 0.816 0.259 0.823 1.033-0.002 0.865-0.511 1.262-1.001 1.338m-2.4068-2.015 0.507-0.053v1.923l0.516-0.054v0.351l-1.539 0.161v-0.351l0.453-0.048 0.063-0.006v-1.923zm-1.5368 0.5158-0.037-0.02c-0.057-0.03-0.122-0.037-0.19-0.037-0.018 0-0.037 0-0.057 0.002-0.35 0.022-0.611 0.353-0.608 0.844 0.001 0.234 0.053 0.437 0.174 0.584 0.121 0.148 0.31 0.231 0.55 0.23 0.025 0 0.05-0.001 0.075-0.003 0.18-0.011 0.337-0.056 0.462-0.12l0.023 0.349c-0.108 0.04-0.294 0.097-0.556 0.114-0.046 0.003-0.09 0.004-0.133 0.004-0.778-0.007-1.117-0.446-1.125-1.112 0.004-0.769 0.52-1.198 1.236-1.248 0.046-0.003 0.092-0.005 0.137-0.005 0.213 0 0.405 0.033 0.517 0.071v1.191l-0.796 0.051v-0.31l0.328-0.021v-0.564m-3.2314 2.0341-0.635 0.014v-2.274l0.427-0.01v1.81l0.086-0.005 0.666-1.818 0.641-0.018v2.274l-0.427 0.01v-1.762l-0.086 0.002-0.672 1.777zm-1.4 0.01-0.511-0.004v-2.274l0.511 0.003v2.275zm-1.9261-0.0369-0.511-0.017v-2.274l1.306 0.043v0.352l-0.795-0.027v1.923zm-2.0485-1.1116-0.264-0.018v0.683l0.242 0.016c0.013 0.001 0.025 0.001 0.036 0.001 0.099 0.001 0.185-0.033 0.24-0.097s0.077-0.148 0.077-0.238c-0.002-0.196-0.16-0.335-0.331-0.347m0.372-1.242 0.525 0.036-0.192 0.656c-0.103 0.324-0.156 0.379-0.275 0.415l-0.053 0.014v0.036l0.049 0.015c0.197 0.066 0.413 0.241 0.414 0.558-0.009 0.382-0.186 0.522-0.586 0.533-0.033 0-0.067-0.001-0.102-0.004l-0.898-0.062v-2.274l0.509 0.035v0.944l0.065 0.005 0.032 0.002c0.014 0.001 0.027 0.001 0.038 0.001 0.116 0.008 0.257-0.071 0.309-0.293l0.165-0.617m-3.0868 0.557 0.296 1.121 0.047 0.005 0.007 0.001 0.062 0.007 0.24-1.06-0.652-0.074zm0.67 1.514-0.61-0.068-0.751-2.359 0.466 0.053 0.154 0.529 0.751 0.084 0.06 0.007 0.127-0.498 0.521 0.059-0.718 2.193zm-3.3848-0.8311 0.082 0.014-0.001-1.922 0.502 0.086v1.923l0.511 0.088-0.001 0.35-1.523-0.263 0.001-0.35 0.429 0.074zm-2.1585-1.5865c0 0.013 0 0.026 0.001 0.038v1.439l-0.481-0.113v-1.453c0.011-0.545 0.22-0.693 0.545-0.703 0.081 0 0.171 0.012 0.265 0.034 0.474 0.117 0.837 0.415 0.841 1.091v1.42l-0.479-0.113v-1.474c0.003-0.268-0.064-0.519-0.331-0.582-0.03-0.007-0.06-0.011-0.088-0.011-0.099-0.002-0.182 0.055-0.221 0.136-0.04 0.08-0.052 0.178-0.052 0.291" stroke="#0064b1" stroke-width=".16" fill="#0064b1"/><path d="m24.555 0.51172v4.957l1.7441 0.035156v-1.668l0.39062 0.015625c0.215 0.0075 0.39039 0.041484 0.49414 0.27148 0.14375 0.3025 0.16469 1.0741 0.24219 1.4316l1.834 0.10938-0.01758-0.042969c-0.181-0.4887-0.162-1.2494-0.43-1.7831-0.162-0.2675-0.39-0.4756-0.767-0.5606v-0.013672c0.65125-0.14625 1.0859-0.51133 1.0859-1.2676 0-0.9475-0.67031-1.3409-1.7578-1.3809l-2.818-0.10338zm-0.72266 0.005859-3.9395 0.11523v4.9375l3.9863-0.11719v-1.1875l-2.2812 0.064453v-0.66992l2.1367-0.0625v-1.1875l-2.1367 0.060547v-0.69922l2.2344-0.064453v-1.1895zm-4.285 0.14258-1.777 0.17773-0.852 3.041-0.012 0.002-0.844-2.8731-1.863 0.1856 1.617 4.7754 2.057-0.2051 1.674-5.1035zm10.301 0.16406v4.8867l1.7422 0.16602v-2.6836l-0.002 0.00195c-0.0012-0.445-0.29117-0.96016-0.70117-1.4727-0.38125-0.4775-0.76906-0.72844-1.0391-0.89844zm1.6094 0.087891c0.0038 0.01625 0.008 0.030625 0.01172 0.046875-0.0025-0.01125-0.0034-0.023906-0.0059-0.035156-0.0012-0.00375-0.000704-0.006719-0.002-0.011719h-0.0039zm0.01172 0.048828c0.05125 0.28875 0.08211 0.63211 0.09961 0.91211l0.0078 0.00781-0.01563-0.22266c-0.01625-0.24375-0.0493-0.47477-0.0918-0.69727zm2.873 0.27148c-1.2088 0.0054-2.168 0.68078-2.168 2.1289 0 1.7612 1.2017 2.7974 2.6992 3.0137 0.44 0.06375 0.91844 0.033672 1.2422-0.017578v-1.3086c-0.3175 0.075-0.62 0.10094-0.9375 0.054687-0.71625-0.10375-1.2344-0.60828-1.2344-1.457 0-0.80625 0.55672-1.1583 1.293-1.0508 0.29 0.04125 0.58148 0.1693 0.86523 0.31055v-1.3027c-0.465-0.16-0.74976-0.26328-1.2285-0.33203-0.18078-0.02625-0.35856-0.039834-0.53125-0.039063zm-21.182 0.1231-2.373 0.4316-1.6054 5.3301 1.7424-0.4024 0.281-1.1347 1.453-0.2637 0.305 1.0332 1.83-0.2695-1.633-4.7246zm23.475 0.25391v5.0312l1.709 0.35742v-2.1484l0.01367 0.00195 1.1445 2.418 2.0449 0.48242-1.6777-3.0801 1.498-1.9648-1.9453-0.45117-1.0645 1.6914-0.01367-0.00391v-1.9375l-1.709-0.39648zm-10.414 0.066406 0.48047 0.017578c0.3525 0.01375 0.68555 0.090156 0.68555 0.53516 0 0.5025-0.35344 0.53008-0.71094 0.51758l-0.45508-0.015625v-1.0547zm-17.442 0.4961-2.4766 0.7754-0.5644 2.8789-0.0137 0.0039-0.584-2.5879-4.6523 1.5449 2.1836 0.0449v4.2715l1.4297-0.52148 0.017578-3.8906 0.025391-0.00781 0.83203 3.6035 1.4004-0.4277 0.8593-4.1426 0.0137-0.0039 0.0273 3.9043 1.502-0.4043v-5.041zm3.1719 0.46289 0.48828 1.5312-0.99609 0.18164 0.49609-1.709 0.01172-0.00391zm30.994 0.66602c-0.60547-0.021985-1.0898 0.21992-1.0898 1.0684 0 1.9175 2.2812 2.1123 2.2812 2.7773 0 0.2475-0.35359 0.21758-0.74609 0.080078-0.49625-0.17375-1.0447-0.47766-1.4922-0.84766v1.2812c0.62125 0.38 1.151 0.63367 1.791 0.85742 0.96375 0.33625 2.1133 0.40648 2.1133-0.91602 0-1.9025-2.2812-2.0906-2.2812-2.7344 0-0.31875 0.45359-0.16672 0.71484-0.074219 0.4725 0.165 0.91141 0.41656 1.2852 0.69531v-1.2656c-0.453-0.2649-0.969-0.5074-1.435-0.6699-0.37-0.1298-0.777-0.2387-1.141-0.2519zm-18.438 4.3027v3.1914l0.88281 0.01953v-1.7383l0.64258 1.752 1.0977 0.02539v-3.1914l-0.88281-0.019531v1.7129l-0.65039-1.7266-1.0898-0.025391zm-0.60742 0.00781-0.98633 0.00781v3.1914l0.98633-0.0078v-3.1914zm-2.4082 0.041016-0.98633 0.033203v3.1914l1.9805-0.06641v-0.78711l-0.99414 0.0332v-2.4043zm7.6523 0.082031c-0.52375-0.00125-0.92445 0.16016-1.1895 0.44141-0.265 0.28125-0.39062 0.67555-0.39062 1.123-0.005 1.0525 0.74703 1.6774 1.707 1.7324 0.06125 0.0038 0.12359 0.0059 0.18359 0.0059 0.32375-0.0012 0.60383-0.0518 0.76758-0.12305l0.05078-0.02148v-1.7676l-1.3418-0.087891v0.73633l0.4082 0.027344 0.002 0.42773c-0.03 0.0062-0.06687 0.01172-0.10938 0.01172-0.02 0-0.04125-0.000703-0.0625-0.002-0.32125-0.02125-0.5907-0.32156-0.5957-0.88281 0.01125-0.53625 0.21422-0.835 0.73047-0.84375 0.02625 0 0.05523 0.00141 0.08398 0.00391 0.26125 0.01625 0.47523 0.096562 0.61523 0.19531l0.128 0.0884 0.057-0.8574-0.057-0.0254c-0.13125-0.0525-0.40484-0.15078-0.80859-0.17578-0.06125-0.005-0.12024-0.00586-0.17774-0.00586zm-10.068 0.039063c-0.04625 0-0.09313 0.00141-0.14062 0.00391l-1.2832 0.087891v3.1914l0.98242-0.06641v-1.1797c0.08625 0.00875 0.14109 0.00828 0.21484 0.23828h-0.002l0.24414 0.91016 1.0156-0.07031-0.30273-1.0273c-0.075-0.27625-0.16875-0.42727-0.28125-0.50977 0.23375-0.12 0.46023-0.34828 0.45898-0.73828 0-0.27375-0.08164-0.49297-0.24414-0.63672-0.16125-0.1425-0.38836-0.20312-0.66211-0.20312zm5.6055 0.00781 0.79492 0.017578 0.83008 2.2246 0.11719 0.002v-2.2051l0.5332 0.013672v2.8418l-0.80078-0.02344-0.84766-2.3223-0.0918-0.00586v2.3125l-0.53516-0.01172v-2.8438zm-0.95508 0.00586v2.8437l-0.63867 0.0039v-2.8438l0.63867-0.00391zm-2.4082 0.044922v2.4043l0.99414-0.0332v0.43945l-1.6328 0.05469 0.002-2.8438 0.63672-0.021484zm9.2988 0.050781v0.78906l0.64453 0.068359v2.4023l0.98242 0.10352v-2.4023l0.64453 0.066406v-0.78906l-2.2715-0.23828zm-1.4727 0.025391c0.05375 0 0.10852 0.0001563 0.16602 0.00391 0.3275 0.02125 0.56031 0.092578 0.69531 0.14258l-0.0293 0.4375c-0.15625-0.08-0.35312-0.13664-0.57812-0.15039-0.03125-0.0025-0.0625-0.00391-0.09375-0.00391-0.3-0.0013-0.537 0.1021-0.688 0.2871-0.15125 0.18375-0.21555 0.43797-0.2168 0.73047-0.0038 0.61375 0.32226 1.0272 0.75976 1.0547 0.025 0.0025 0.04977 0.002 0.07227 0.002 0.085 0 0.16383-0.0074 0.23633-0.04492l0.04687-0.02539v-0.70508l-0.41016-0.025391v-0.38867l0.99609 0.064453v1.4883c-0.14 0.0475-0.38023 0.08984-0.64648 0.08984-0.05625 0-0.11438-0.0041-0.17188-0.0078-0.895-0.0625-1.5412-0.59734-1.5449-1.5586 0.0087-0.8325 0.4325-1.3819 1.4062-1.3906zm-10.068 0.037109c0.5 0.01375 0.71922 0.19047 0.73047 0.66797 0 0.39625-0.26938 0.61477-0.51562 0.69727l-0.0625 0.017578v0.044922l0.06641 0.017578c0.14875 0.045 0.21625 0.11453 0.34375 0.51953l0.24023 0.82031-0.65625 0.04492-0.20508-0.77148c-0.065-0.2775-0.24172-0.37719-0.38672-0.36719-0.01375 0-0.03133 0.0007031-0.04883 0.00195l-0.03906 0.00195-0.08203 0.00781v1.1797l-0.63477 0.04297v-2.8418l1.1211-0.078125c0.045-0.00375 0.08766-0.00586 0.12891-0.00586zm-2.7539 0.052734-1.0137 0.11523-1.0566 3.3086 0.9668-0.10742 0.19141-0.66016 0.74805-0.08594 0.1582 0.62109 1.0156-0.11328-1.0098-3.0781zm14.469 0.078125 1.9238 0.20117v0.43945l-0.64453-0.068359v2.4043l-0.63476-0.06641v-2.4023l-0.07813-0.00781-0.56641-0.060547v-0.43945zm-14.59 0.10938 0.89844 2.7422-0.65234 0.07422-0.1582-0.62305-0.07422 0.0078-0.9375 0.10547-0.19531 0.66211l-0.583 0.067 0.939-2.9495 0.762-0.086zm18.048 0.0938c-0.3075-0.00125-0.61289 0.099844-0.83789 0.33984-0.22625 0.24-0.36719 0.61-0.36719 1.125-0.0025 1.1575 0.71289 1.745 1.4004 1.8438 0.0725 0.01 0.14695 0.01758 0.2207 0.01758h0.002c0.3075 0 0.61164-0.1018 0.83789-0.3418 0.225-0.23875 0.36524-0.6068 0.36524-1.123 0.0038-1.1562-0.71094-1.7457-1.3984-1.8457-0.075-0.01125-0.14891-0.015625-0.22266-0.015625zm-20.738 0.066406-2.252 0.38867v0.79102l0.63867-0.11133v2.4043l0.97461-0.16992v-2.4043l0.63867-0.10938v-0.78906zm5.2637 0.023437c-0.01375 0-0.02867 0.0007031-0.04492 0.00195l-0.30274 0.021484v0.85156l0.33008-0.021484c0.21375-0.01375 0.41086-0.18859 0.41211-0.43359 0-0.11125-0.02695-0.21758-0.0957-0.29883-0.06875-0.07875-0.17508-0.12234-0.29883-0.12109zm15.474 0.084c0.065 0 0.12906 0.00367 0.19531 0.013672 0.61125 0.09625 1.2482 0.59258 1.252 1.6738-0.0087 0.9675-0.49375 1.2823-1.0312 1.291-0.065 0-0.13031-0.0056-0.19531-0.01563-0.61125-0.095-1.2475-0.59062-1.25-1.6719 0.008-0.9675 0.491-1.2822 1.029-1.291zm-15.512 0.0957c0.01125-0.00125 0.0193 0 0.0293 0 0.16375 0.0075 0.2075 0.072734 0.21875 0.24023 0.0012 0.14-0.11734 0.24516-0.24609 0.25391l-0.14258 0.00977v-0.49219l0.14062-0.011719zm-5.4004 0.00195v0.4375l-0.63867 0.11133v2.4023l-0.62695 0.10742v-2.4023l-0.10156 0.017578-0.53711 0.09375v-0.4375l1.9043-0.33008zm22.928 0.076172v3.1953l0.86719 0.18555v-1.7129l0.61914 1.8477 1.084 0.23242v-3.1953l-0.86719-0.18555v1.6875l-0.629-1.8226-1.074-0.2324zm-20.387 0.033203-0.07813 0.00977-0.0078 0.00195-0.05859 0.00586-0.37109 1.4004 0.81641-0.091797-0.30078-1.3262zm-4.9688 0.13672-0.94727 0.22266v1.9805c-0.005 0.33-0.063594 0.50734-0.27734 0.55859-0.0275 0.0063-0.052266 0.0098-0.072266 0.0098-0.06625-0.0037-0.088594-0.02117-0.12109-0.07617-0.02875-0.05625-0.044922-0.15766-0.044922-0.28516 0-0.01375-0.00125-0.02726 0-0.04101v-2.0254l-0.94922 0.22461v1.9531c0 0.36625 0.083984 0.63164 0.24023 0.80664 0.155 0.175 0.37258 0.24609 0.61133 0.24609h0.00391c0.11875 0 0.24234-0.01687 0.37109-0.04687 0.645-0.145 1.1918-0.61445 1.1855-1.5332v-1.9941zm25.529 0.044922 0.76758 0.16602 0.80469 2.3594 0.13086 0.03125v-2.1895l0.51953 0.11133v2.8398l-0.77539-0.16797-0.77344-2.3203-0.1543-0.052734v2.1738l-0.51953-0.11133v-2.8398zm-2.0469 0.025391c-0.18875-0.00125-0.33531 0.12328-0.41406 0.30078-0.08125 0.1775-0.11524 0.41477-0.11524 0.69727 0 0.30625 0.03961 0.56828 0.13086 0.76953 0.0875 0.19875 0.23961 0.34305 0.44336 0.37305h0.0039c0.02625 0.0038 0.04922 0.0059 0.07422 0.0059h0.0039c0.18375 0 0.32875-0.12188 0.40625-0.29688 0.08-0.17625 0.11524-0.41367 0.11524-0.70117-0.0012-0.595-0.15797-1.0701-0.57422-1.1426-0.02375-0.00375-0.04922-0.00586-0.07422-0.00586zm-23.656 0.14844v1.7754c-0.005 0.845-0.45828 1.219-1.0508 1.3652-0.1175 0.0275-0.23078 0.04102-0.33203 0.04102-0.4059-0.011-0.6676-0.197-0.6813-0.879v-1.8164l0.60156-0.14062v1.7988 0.04687c0 0.14125 0.014453 0.26524 0.064453 0.36524 0.04875 0.10125 0.15164 0.17367 0.27539 0.16992 0.035 0 0.073828-0.0049 0.11133-0.01367 0.3333-0.077 0.4173-0.392 0.4143-0.728v-1.8418l0.59766-0.14258zm23.656 0.027344c0.015 0 0.03133 0.00141 0.04883 0.00391 0.25875 0.02875 0.42578 0.3875 0.42578 0.96875 0 0.2725-0.03461 0.49016-0.09961 0.62891-0.0675 0.14-0.14195 0.19281-0.25195 0.19531-0.015 0-0.03133-0.0014-0.04883-0.0039h-0.002-0.002c-0.135-0.02125-0.23305-0.10719-0.31055-0.27344-0.075-0.165-0.11524-0.40602-0.11524-0.69727 0-0.2675 0.03656-0.485 0.10156-0.625 0.0675-0.14125 0.14141-0.19602 0.25391-0.19727zm-18.592 0.042969 0.17383 0.75977-0.38476 0.042969 0.21094-0.80273z" transform="matrix(.8 0 0 -.8 538.56 616.23)" fill="#f58026"/><path d="m563.83 614.4c-0.001 0.003-0.002 0.007-0.003 0.01 0.002-0.065 0.003-0.104 0.003-0.104v0.094" fill="#0064b1"/></g></g></svg>
