<?xml version="1.0" encoding="UTF-8" standalone="no"?>
<svg xmlns:rdf="http://www.w3.org/1999/02/22-rdf-syntax-ns#" xmlns="http://www.w3.org/2000/svg" xml:space="preserve" height="90.751" viewBox="0 0 232.80895 90.750839" width="232.81" version="1.1" xmlns:cc="http://creativecommons.org/ns#" xmlns:dc="http://purl.org/dc/elements/1.1/"><g transform="matrix(1.25 0 0 -1.25 -77.846 472.73)"><path d="m178.53 376.84-22.714-1.3625-6.9156-51.594 23.569 1.4141 1.2422 9.2641-11.748-0.70469 1.7281 12.898 10.112 0.60625 1.1828 8.8375-10.111-0.60781 1.175 8.5641-4.5078 2.4875 4.8812 0.29375 10.866 0.63907 1.2406 9.2641zm-80.864-0.725-34.298-9.7812 0.34688-11.203 9.9969 2.85 1.5859-51.188 14.306 4.0797-1.4984 48.355-5.0672 1.4141 4.9797 1.4203 9.9953 2.85-0.34688 11.203zm87.242-0.54688-10.814-50.602 15.097-0.0547c10.833-0.04 14.75 2.2519 18.305 18.886l2.7031 12.65c3.555 16.634 0.63925 19.024-10.194 19.064l-15.097 0.0562zm-44.964-1.1172-12.008-2.0844-2.6578-51.667 22.445 2.9734 0.49844 9.4266-10.419-1.2469-4.9781-0.71563 5.1266 3.5453 1.9922 39.769zm89.644-1.2313c-6.7893 0.0362-11.148-2.2242-13.242-8.9484l-9.6531-31c-2.577-8.275 2.076-11.11 11.825-12.317 9.749-1.206 15.756 0.30837 18.333 8.5844l9.6531 30.998c2.577 8.276-2.076 11.11-11.825 12.317-1.8278 0.22631-3.5239 0.35727-5.0906 0.36562zm-113.49-3.4516c-2.1864 0.011-4.8397-0.43031-7.9297-1.1953-9.888-2.449-15.294-5.9929-15.294-14.386v-31.442c0-8.395 5.4058-9.2605 15.294-6.8125 9.888 2.449 15.295 5.9919 15.295 14.386v31.442c0 5.7709-2.5555 7.9836-7.3656 8.0078zm73.741-2.8922 4.8266-0.0172 3.0641-0.0109c2.516-0.01 2.8351-1.1307 2.0281-4.9047l-4.9281-23.064c-0.807-3.774-1.6043-4.8902-4.1203-4.8812l-3.075 0.0125 6.4125 30.12-4.2078 2.7453zm34.383-1.7656 7.7437-0.95937c2.175-0.269 2.865-0.85757 2.275-2.7516l-9.2609-29.738c-0.59-1.893-1.5828-2.2799-3.7578-2.0109-2.174 0.269-2.8634 0.8638-2.2734 2.7578l9.1578 29.408-3.8844 3.2938zm-114.64-5.1219c1.1704 0.0613 1.65-0.45688 1.65-1.8969v-30.162c0-1.921-0.85438-2.6306-3.0594-3.1766s-3.0578-0.2575-3.0578 1.6625v29.827l-4.7953 1.5609 7.8531 1.9438c0.55125 0.1365 1.0192 0.22175 1.4094 0.24219z" fill-rule="evenodd" stroke="#002569" stroke-width="0.8" fill="#ffce00"/></g></svg>
