<?xml version="1.0" encoding="UTF-8" standalone="no"?>
<svg xmlns:rdf="http://www.w3.org/1999/02/22-rdf-syntax-ns#" xmlns="http://www.w3.org/2000/svg" xml:space="preserve" height="32.617" width="89.874" version="1.1" xmlns:cc="http://creativecommons.org/ns#" xmlns:dc="http://purl.org/dc/elements/1.1/" viewBox="0 0 89.873749 32.61676"><path fill="#fc0" d="m24.52 6.12 2.2888-5.5388h-22.49l-3.8988 9.5262h6.5262l-4.1888 10.289v0.0075c-0.2188 0.586-0.3626 1.207-0.4376 1.895-0.54375 4.965 2.7538 9.185 8.1662 9.8175 0 0 1.2038 0.1425 2.4475 0.05125-1.4062-2.865-1.3912-4.8762-1.4425-5.48h60.645c-0.09375 0.4075-0.7875 3.0575-3.3975 4.965 0.31125 0.075 0.76875 0.17 1.34 0.235 2.9662 0.3375 8.4-0.19125 11.466-7.0625l7.748-18.706h-64.774z"/><path d="m5.05 1.66-3.0274 7.3848h6.5274l-4.711 11.562v0.0062c-0.24125 0.5825-0.37656 1.1793-0.44531 1.8105-0.47 4.305 2.3568 8.0621 7.2167 8.6309 0.21375 0.02375 0.42741 0.03825 0.63866 0.05075-1.3262-3.031-0.969-5.488-0.969-5.488h63.235c-0.06125 0.3825-0.64171 3.5765-2.6992 5.3652 0 0 6.7848 0.65781 9.7422-6.4922l7.1328-17.292h-64.768l2.2871-5.5371h-20.16z"/><path d="m6.2875 3.535-1.5098 3.6778h6.5059l-5.3985 13.19c-1.96 5.1912 1.0466 7.4626 2.9316 8.3926-0.6491-2.182-0.371-4.827 1.2339-8.63l5.3301-12.971h5.584l1.5118-3.6601h-16.19zm75.149 5.4882-3.1601 7.7754-0.67578-7.7735-3.4434 0.0025-5.9961 14.742h3.4414l3.1601-7.7735c1.885 9.3138-0.21094 12.524-0.21094 12.524 1.9075-0.72375 3.3826-2.5408 4.3301-4.752l5.998-14.744h-3.4434zm-54.006 0.01-6.8028 0.0025c-3.0238 0-3.9641 1.1812-4.6504 2.8574l-4.7812 11.889h6.8028c3.0062-0.0175 3.966-1.1787 4.6348-2.8574l4.796-11.891zm5.8281 0-3.5215 0.0025-5.9395 14.735 13.451 0.01363c3.019-0.003 3.957-1.181 4.64-2.86l4.7989-11.889-3.5176 0.00625-4.8184 11.883h-3.1739l4.801-11.882-3.526-0.0066-4.818 11.889h-3.1758l4.801-11.891zm38.594 0-6.8008 0.0025c-3.0238 0-3.9649 1.1812-4.6524 2.8574l-4.7812 11.889h6.8048c3.007-0.019 3.965-1.179 4.632-2.858l4.797-11.89zm-12.608 0.0025-6.8164 0.0075c-3.0312 0.005-3.9732 1.1879-4.6582 2.8691l-2.3574 5.9316h6.7832l-1.2344 3.0801h-3.2989l-2.9199-1.418-1.7226 4.2754h6.7969c3.0138-0.0038 3.9706-1.1879 4.6406-2.8691l2.3868-5.8945h-6.8048l1.2402-3.1074 3.3086-0.0063 2.9278 1.418 1.7285-4.2871zm-39.764 2.8574h3.2989l-3.6309 9.0312h-3.3008l3.6328-9.0312zm44.422 0h3.3008l-3.6328 9.0312h-3.3008l3.6328-9.0312z" fill="#fff"/></svg>
