<svg height="303.208647" viewBox="0 0 500 459.67" width="329.805897" xmlns="http://www.w3.org/2000/svg"><g transform="matrix(1.3333 0 0 -1.3333 -479.95 651.32)"><path d="m661.81 276.49c.96395 7.9478-3.3218 15.859-11.221 16.244.48561 10.307-3.6136 17.913-11.314 23.432-.50256.36209 1.9243 24.885-17.545 45.953 2.3421 1.6155 5.418 3.7335 7.7443 5.3381-3.8558 2.2101-7.2587 4.1598-11.115 6.3686-.75808 7.5712-3.1946 9.4046-5.177 16.671-.53405 1.9546-1.0354 4.3027-1.4617 7.2636-.88766 6.1688-1.2728 2.026 5.2073 2.026 4.1634 0 7.5966 3.042 4.9142 8.4915-1.5791 3.2055-2.4486 5.1782-1.0112 13.601 1.5937 9.3392.98696 15.205-.95427 18.995-5.016 9.7921-18.95 5.7099-26.91 11.765-5.9811 4.5485-12.31 6.755-24.987 1.8165-12.329 3.3847-23.576-1.1904-29.749-2.6182-1.0294.27247-2.0478.54737-3.059.81742-8.8754 2.3711-17.13 4.3741-26.684 1.7293-7.3108 2.2222-16.522 5.2448-24.081-1.1868-9.7316-8.2796-23.542-1.2606-28.454-14.195-1.9146-5.0414-1.5137-9.6565-.815-14.049.98333-6.1967 2.5564-11.955-.94821-17.849-.69511-1.1698-.84891-2.4159-.55222-3.5506.85376-3.2624 5.4531-5.6081 11.819-2.5746-.68179-3.9358-.97728-7.2563-1.871-10.479-.29427-1.0596-.65272-2.1071-1.1105-3.1643-7.2866-16.776-1.0548-11.926-7.071-15.398-2.8083-1.6191-5.3151-3.065-8.2118-4.7362 2.4765-1.6966.79321-.54373 7.593-5.2012-20.152-26.911-13.55-47.346-15.056-50.241-4.8331-9.2823-5.969-22.69 1.5392-34.779 2.6933-4.3366 6.4994-8.5036 11.647-12.249 15.378-11.19 15.401-8.919 16.493-10.634 7.599-11.946 6.0877-17.084 13.57-23.084 2.3191-1.8601 6.0635-4.0883 10.974-4.4419 3.3181-4.8815 7.9272-7.5433 13.723-7.9296.14895-4.1743.80289-6.8652 5.1189-10.918.97848-.91915 3.5482-4.6781 8.3753-4.6781.61155 0 1.2074.0666 1.7874.18529 2.8059.56917 5.24 2.4159 7.1618 4.643 9.5596 5.6638 8.6162 15.431 5.0256 25.931 1.8238 1.3006 2.7635 1.2594 5.2061 1.1819 2.6908-7.8703 1.9764-9.6408 3.0759-14.275-5.8649-2.6715-6.9887-12.544-9.4506-19.045-1.8649-4.8888-2.089-4.5049-2.5685-6.4752-.7932-3.2733.12473-8.3074 3.4489-10.66 3.6185-6.2294 9.3525-5.7583 15.616-4.5412 9.7328 1.8916 9.2508 10.479 14.424 20.792 1.8274 3.6451 2.7478 4.0629 2.824 4.0932 18.777 6.078 18.59 24.264 31.253 42.707 11.014-3.0541 20.565-3.1607 26.802-1.9049 16.238-14.253 42.553 1.3442 36.033 30.815" fill="#fff"/><g transform="matrix(.75 0 0 -.75 359.96 488.49)"><path d="m40.766 2.5215-39.084 125.54 125.22-43.344c-.93158-5.8575-1.4661-12.009 1.0859-18.73 6.5491-17.245 24.964-7.8863 37.939-18.926 10.079-8.5755 22.36-4.5469 32.107-1.584 12.74-3.5264 23.744-.85683 35.578 2.3047l130.75-45.254-323.6-.0039062zm456.92 27.037-151.13 33.93c2.5883 5.0523 3.398 12.874 1.2715 25.326-1.9166 11.23-.7543 13.859 1.3496 18.135 3.5781 7.2644-.99991 11.32-6.5527 11.32-8.6385 0-8.1269-5.5236-6.9434 2.7031.56837 3.9462 1.2384 7.0759 1.9473 9.6836l128.58.00195 31.477-101.1zm-203.59 14.133c-3.7239.041467-8.2706.83399-13.955 2.8047-3.1809 1.1044-2.4868 1.0542-2.9551.91211-16.368-4.6486-31.557 1.7954-39.525 3.5215-12.066-3.1777-24.978-7.5792-39.502-3.4102-1.0528.32293-19.118-8.9839-30.928 1.0625-7.5308 6.407-15.115 6.0742-25.486 8.1797-12.609 2.5625-14.762 14.774-12.916 27.455 1.5065 10.326 3.8086 16.454-1.4648 25.32-2.9629 6.5878 6.625 10.267 16.297 2.9805-1.7261 5.3784-1.9655 15.821-4.8477 22.494-1.6147 3.7428-5.4156 12.115-5.7676 19.365-7.6471 4.4113-5.0231 2.8958-12.979 7.4863l9.2324 6.3203c-8.9081 11.766-15.224 21.163-18.904 38.836-3.21 15.422-1.4316 26.977-1.4316 27.904-1.8472 4.0076-8.0334 12.505-4.7266 31.068 2.3639 13.279 10.023 22.831 20.887 30.734 21.288 15.489 20.432 11.469 22.502 14.723 3.1534 4.9586 7.4535 13.541 9.7285 19.744 2.5738 7.0125 11.092 15.749 22.426 16.082 4.5534 7.2159 11.08 10.575 19.133 10.586.03387 2.0377.10346 4.4941.50391 6.2363 1.1448 5.2541 5.7714 8.6549 6.4883 9.543 5.4495 6.7768 13.122 6.7526 19.676-1.043 17.164-9.8527 5.722-31.813 5.7188-33.791 4.0448-3.2552 5.6748-2.8938 10.664-2.7598 4.5259 12.764 2.9293 14.648 5.0332 22.154.00132.52156-4.3443-.13367-7.9062 8.8164-2.0974 5.2848-3.9016 12.716-5.1934 16.121-2.5254 6.625-2.7699 6.0087-3.3496 8.3984-.73628 4.5598.21782 9.841 4.1641 12.344 4.823 8.8613 13.96 6.4538 18.93 5.4883 9.9124-1.9279 11.261-10.736 14.008-17.807 1.3353-3.3892 5.4773-14.197 8.7324-15.303 24.441-7.899 23.6-32.128 41.484-57.363 11.299 3.2875 24.036 5.0174 35.773 2.9668 2.1362-.3746.59163-.55981 3.9824 1.8477 21.9 15.527 48.433-6.0162 43.844-35.584-.46987-3.0662-1.0215-5.2889-1.0215-5.3906 1.3063-9.6476-3.7316-19.567-13.465-19.748-2.5899-.0452-1.1528 1.317-1.4902-5.7617-.86224-17.724-12.383-24.377-15.115-26.484.24543-40.819-24.371-62.087-24.373-62.594l9.6035-6.6172-12.977-7.4356c-.43435-7.1852-4.1547-15.391-5.75-19.084-3.0259-7.0076-2.9934-16.472-4.8066-22.367.39074.00133 1.0854.54684 2.1172 1.1524 3.9172 2.2977 10.878 4.0243 13.494.31054 2.8596-4.0689-1.5828-5.7666-2.7695-13.607-.22605-6.3634.59528-9.7387 1.2734-13.971 6.1987-36.106-17.319-28.153-32.387-34.352-4.775-1.9642-8.5316-8.6106-19.703-8.4863zm-113.15 9.002h.00196c2.4546-.068666 5.5646.38693 9.625 1.6953-1.697 1.9118-3.5389 3.6608-4.209 7.0273-.0904.45856-.84199.70746 5.0644-2.2441 17.574-8.7563 27.59-4.349 46.477.3125h.00195c18.887-4.6615 28.901-9.0688 46.475-.3125 5.9048 2.9516 5.1545 2.7027 5.0625 2.2441-.66847-3.3666-2.5084-5.1156-4.207-7.0273 12.993-4.1868 16.259.36404 19.439 2.8555 3.9462 3.2003 13.417 5.8096 19.244 6.793 8.5819 1.458 13.002.73503 14.123 9.0215.89936 6.9834-2.0165 17.297.59765 26.906-6.2617-7.1836-2.0334-16.504-5.0254-25.848-2.5819-8.0475-8.7396-1.5819-12.156 4.4844 7.0706 3.3763 6.7151 11.662 3.7441 18.902-1.5485 3.7605 1.5063-5.9344-6.6445-11.193-1.9424-1.253-4.2062-2.1627-6.8203-2.4453 11.07 16.96 11.828 33.278 12.721 38.395 8.0911 31.559 7.1986 26.763 7.0371 31.326-.67008 18.791-12.745 37.881-12.711 37.137-.09854.16629.28465-8.0981-4.209-16.16 1.4532-6.4248 1.6022-17.743-3.1465-22.482 1.303 4.8569.19372 12.011-1.873 16.031-2.816-2.6061-7.0643-4.876-8.6289-5.002 13.968 15.963 16.271 36.782 6.543 54.016-5.5496-4.7003-13.249-2.0322-17.371 3.498-6.3279 2.4365-9.9984 5.4735-11.062 6.4375-4.5436-8.2445-.57636-5.987-17.414-23.377 3.0146-6.1115.36629-12.85-1.4922-8.8164-.93812 1.8682-2.6056 4.4625-4.9356 6.1191 0 0 .17062-1.8956-.31054-3.8203-12.911-8.9808-10.822-5.7794-13.561-20.66l12.307-7.4219c-1.7939-.60226-3.5915-.78692-5.0996-.79492-2.1685.00267-3.7051.36719-3.7051.36719.00004 0 .01852-.01071.05078-.03711-.11786.02427-.18359.03711-.18359.03711s2.9275-2.396 9.3555-2.4219c4.048-.0372 9.5048.8693 16.516 3.9355-.34876-.53928-6.3401-5.4223-13.721-8.3223-3.5797-3.8397-5.9275-6.7984-11.377-8.9395-2.8176.36327-5.0801.46894-6.9531.46094h-1.2578c-1.873.008-4.1336-.09759-6.9512-.46094-5.4495 2.141-7.7956 5.0998-11.377 8.9395-7.3806 2.8999-13.374 7.783-13.721 8.3223 7.0109-3.0662 12.468-3.9728 16.516-3.9355 6.4264.02586 9.3555 2.4219 9.3555 2.4219s-.06572-.01338-.18359-.03711c.03227.02547.05078.03711.05078.03711s-1.5402-.36452-3.707-.36719c-1.5097.008-3.3038.19266-5.0977.79492l12.338 7.4395c-2.7336 14.86-.65065 11.665-13.557 20.643-.48116 1.9247-.3125 3.8203-.3125 3.8203-2.3284-1.6566-3.9955-4.251-4.9336-6.1191-1.8585-4.0334-4.5068 2.7049-1.4922 8.8164-6.6524 6.8704-12.805 13.176-14.725 17.734-7.1126 16.88-13.092 16.096-22.186 7.2344-19.106-18.624-19.671-45.8-2.3945-65.543-1.5662.12586-5.8142 2.3959-8.627 5.002-2.0668-4.0205-3.178-11.174-1.875-16.031-4.7504 4.739-4.5997 16.058-3.1465 22.482-4.4952 8.062-4.1124 16.326-4.2109 16.16.03387.74436-12.039-18.345-12.711-37.137-.16148-4.563-1.0552.23244 7.0391-31.326.88968-5.1169 1.6506-21.434 12.721-38.395-2.6142.28257-4.8779 1.1923-6.8203 2.4453-8.1508 5.259-5.0961 14.954-6.6445 11.193-2.971-7.2402-3.3284-15.526 3.7422-18.902h.00196c-3.4183-6.0663-9.576-12.532-12.156-4.4844-2.992 9.3441 1.2376 18.664-5.0274 25.848 2.6158-9.6089-.29942-19.923.60156-26.906 1.1206-8.2865 5.5392-7.5634 14.121-9.0215 5.8273-.98333 15.3-3.5927 19.246-6.793 2.1869-1.7129 4.4123-4.3999 9.8125-4.5508zm40.453 33.488c-3.0235-.002667-6.1313.53972-9.1094 2.1367 4.6793-.071066 19.182 4.3125 19.256 4.1914 2.2492.58935 4.3248.86362 6.3496.86523 2.0248-.001333 4.0984-.27589 6.3477-.86523.07426.12107 14.575-4.2625 19.256-4.1914-9.5298-5.1104-20.375.5781-25.604.37305-3.5944.14097-9.8444-2.5042-16.496-2.5098zm-15.443 8.5098c-4.4135.008-8.7477.67246-12.863 2.3594 29.829 4.295 25.175 4.836 33.232 7.0352 4.2417 1.1577 8.092 1.6019 11.568 1.6035h.00195c3.4748-.00133 7.3263-.44582 11.566-1.6035 8.0572-2.1992 3.4051-2.7402 33.234-7.0352-10.976-4.4985-23.5-1.7276-34.961 1.3887-3.7202 1.014-6.8866 1.3953-9.8398 1.3711h-.00195c-2.9532.024267-6.1197-.35709-9.8398-1.3711-7.164-1.9477-14.742-3.7607-22.098-3.748zm-6.2637 17.334c-.62672-.04013-1.1455.00399-1.5332.15039 14.29 9.9205 19.665 8.593 25.168 12.316 3.1648 2.141 5.4117 5.0513 4.7109 8.8086-.8574 4.605-6.4211 6.004-11.076 6.7402-8.1331 1.169-12.929-1.5454-26.484-10.986-1.3418-.9349-2.7262-1.807-4.1406-2.6289-3.7396-2.1798-7.406-5.1222-10.498-8.3047.94943 3.6056 2.5083 6.7377 4.9238 9.6328-9.7364-.10654-12.228 12.395-5.6113 16.953-3.0065-6.9673 1.443-13.196 6.6777-11.812-2.3299 9.4248 3.0058 15.972 11.531 17.178-1.4629.57804-7.293 3.4995-11.961 10.346-.68302 1.0011-.06521-.42973 6.127-3.1973 8.1912-3.662 11.865-4.1416 20.146-6.373 10.024-2.5334 13.474-6.9679 26.496-7.6719 1.3127-.07107 2.5507-.10905 3.7246-.11719h.00195c1.1755.008 2.4122.04612 3.7266.11719 13.021.70399 16.47 5.1384 26.494 7.6719 8.2816 2.2314 11.954 2.711 20.146 6.373 6.1922 2.7675 6.8083 4.1984 6.127 3.1973-4.6696-6.8462-10.5-9.7677-11.961-10.346 8.5238-1.2062 13.86-7.7529 11.531-17.178 5.2332-1.3838 9.6862 4.8452 6.6797 11.812 6.6169-4.5582 4.1228-17.06-5.6152-16.953 2.4172-2.8951 3.9767-6.0273 4.9277-9.6328-3.0937 3.1825-6.7624 6.1249-10.502 8.3047-1.4128.82187-2.7969 1.694-4.1387 2.6289-13.555 9.4409-18.351 12.155-26.482 10.986-4.6551-.73628-10.219-2.1352-11.078-6.7402-.70076-3.7573 1.5462-6.6675 4.7109-8.8086 5.5012-3.7234 10.88-2.3959 25.17-12.316-3.1034-1.1738-14.688 4.2697-21.389 6.1621-.38591.10813-.7756.19694-1.168.2793-7.9958 1.6712-11.469 6.6144-12.773 9.6855-.62811 1.4807-.93928 3.3251-1.041 4.2422-.07267.65556-.06055 1.2747-.06055 2.7715-1.3596-.03227-2.4392-.03464-3.3047-.02344h-.00195c-.86547-.01067-1.9432-.00936-3.3027.02344 0-1.4968.00932-2.1159-.06054-2.7715-.10334-.91712-.41522-2.7615-1.0449-4.2422-1.3014-3.0711-4.7737-8.0144-12.77-9.6855-.39396-.0824-.78435-.17111-1.1719-.2793-5.8618-1.6558-15.465-6.0312-19.852-6.3125zm-74.787 1.2246-77.518 17.4 90.781.00195c1.1916-4.2966 1.5886-8.723 2.4961-13.971-8.4887 4.0442-14.622.91732-15.76-3.4316zm63.84 21.439c1.0366.55868 2.6445 1.1726 3.0547 1.2969.20665 1.4338-1.3461 2.5147-2.7363 1.9512-.63295-.25351-.54879-.58212-.58594-.08008-.34392 5.4269 5.8065 7.06 9.5606 4.5977.02427.01333 2.2593 1.059 2.2852 1.0703-6.6766 6.6363-16.645-2.4887-11.578-8.8359zm98.301 0c5.0668 6.3473-4.9018 15.472-11.58 8.8359.02747-.01067 2.2613-1.0574 2.2871-1.0703 3.7509 2.4624 9.9025.82922 9.5586-4.5977-.0372-.50216.04893-.17355-.58399.08008-1.3918.56352-2.943-.51735-2.7363-1.9512.41012-.12427 2.0181-.7382 3.0547-1.2969zm54.432 43.574c8.9517 13.258 15.73 23.237 17.766 42.963-3.9285-1.6889-8.9228-1.2674-11.723 1.3984-8.2251-1.085-14.284.20858-20.184 3.002-2.1346-2.0183-4.7734-3.1816-4.7734-3.1816 3.365-3.8913 4.9199-7.5566 4.9199-7.5566l20.592 2.4688-11.855-19.674c2.4963-6.4167 4.2196-12.963 5.2578-19.42zm-207.42.96875c.08106.0856.84565 7.1078 4.5801 17.162.86868 2.3396 2.1273-.9093-11.195 21.336.80088-.10013 12.199-1.4988 20.586-2.5274 9.4183 14.64 19.628 22.107 19.629 22.375.40526 10.728.39954 9.9693.33007 9.9531.02267.06787-11.665-.70353-15.893 4.3633.14045 0 7.7879-1.1832 17.957 2.2383 6.4716 2.175 12.81 5.8295 18.594 11.035 6.0824 5.8693 24.451 27.257 26.408 35.516 2.1281 8.4092.02226 16.06-2.5273 19.424-.66687-11.816-8.0781-16.089-9.168-16.654-.1841-.12319-.26215-.12658-.19922.00196 5.4463 11.214 5.7226 23.389-4.8066 29.85 0-.03387.17931-1.115-.07422-3.2383-6.5588.03066-2.2443.66599-4.9004-7.543-1.4209-4.379-4.1567-6.9383-6.8144-7.8457-.6055-.20506 8.5519 17.594-4.3477 25.451-1.1303.68784-.86347.62343-.85547-.46485-.00667-3.1131.0576-2.4212-.8418-2.3438-3.9801.32294-7.967-1.9103-10.996-4.4824-6.273-6.1131-8.1021-20.468-7.8809-28.582-.05173 0-1.5486.93983-2.7871 2.8144-1.4064 2.1217.48817 1.5454-4.3203-5.1797-6.7719-9.4974-9.2636-7.601-14.816-15.938-4.0657-6.1131-5.1646-11.683-5.1387-11.318-.092-.13564-1.9698 1.4026-2.1426 6.4726-.29385 8.6126 4.7236 11.485.57227 8.5078-9.7268-6.9721-16.898-14.205-18.725-26.551 0 .03067-1.8452-9.464.98047-17.24 1.0204-2.803 2.4887-5.4049 4.3262-8.8086-.56675-6.893-1.0865-12.05-.18555-20.404 2.3025-21.307 13.371-36.665 14.645-37.305 0-.05562.00275-.07829.00782-.07422zm67.414 1.5215c-.45343-.0324-.94476.08174-1.4394.39453-2.6416 1.6696-.11334 5.6582 2.5234 3.9902 2.1463-1.3565.88089-4.2444-1.084-4.3848zm72.861 0c-1.9649.14034-3.2303 3.0282-1.084 4.3848 2.6368 1.668 5.1631-2.3207 2.5215-3.9902-.4947-.31274-.98408-.42693-1.4375-.39453zm-84.262.03711c-.45333-.03254-.94507.08013-1.4394.39257-2.64 1.6712-.11493 5.6582 2.5234 3.9902 2.1463-1.3565.88043-4.242-1.084-4.3828zm95.662 0c-1.9649.14081-3.2303 3.0263-1.084 4.3828 2.6368 1.6679 5.1615-2.3191 2.5215-3.9902-.4947-.31244-.98406-.42508-1.4375-.39257zm-120.95.11328c-.00666.02093-.011.02757-.01367.05664.0388-.0952.02941-.09211.01367-.05664zm146.23 0c-.01613-.03547-.02676-.0387.00977.05664-.00133-.02907-.00443-.03558-.00977-.05664zm-114.47 10.133c-.45332-.0324-.9431.08174-1.4375.39453-2.6416 1.6696-.11534 5.6566 2.5215 3.9902 2.1463-1.3566.88042-4.2444-1.084-4.3848zm82.707 0c-1.9649.14036-3.2303 3.0282-1.084 4.3848 2.6384 1.6663 5.165-2.3207 2.5234-3.9902-.49471-.31273-.98602-.42693-1.4395-.39453zm-94.107.03516c-.45332-.03227-.9431.08174-1.4375.39453-2.64 1.6696-.11534 5.6566 2.5215 3.9902 2.1463-1.3578.88041-4.2448-1.084-4.3848zm105.51 0c-1.9644.14-3.2303 3.0269-1.084 4.3848 2.6368 1.6663 5.1615-2.3207 2.5215-3.9902-.49439-.31274-.98418-.42685-1.4375-.39453zm-50.133 5.9062c1.0189.07106 2.4784.07466 2.3008 1.3066-.31483 2.2783.47025 1.5098-3.5664 1.3516.05493-1.3902-.12294-2.7567 1.2656-2.6582zm-5.3125.01757c.6718.00934 1.2413.20147 1.2676.97852.092 2.2993.72608 1.4061-3.2734 1.9551-.19053-1.3789-.60379-2.691.78321-2.8379.38024-.04.81959-.10104 1.2226-.09571zm11.336.96875c.13227-.00666.28163.00799.45117.05078.96718.24383 2.4503.50727 2.0547 1.6973-.71208 2.1911.19992 1.5672-3.7754.69531.26139-1.1952.34414-2.3922 1.2695-2.4434zm-17.432.04297c.50377-.012.92114.16297 1.0527.77735.49409 2.2508.96572 1.25-2.9063 2.5078-.43273-1.3321-1.0654-2.5429.28126-2.9336.47874-.13887 1.0685-.33925 1.5723-.35157zm-83.512 3.166c1.6555-.05974 3.2456.97173 3.668 3.3223.0468.26803 1.1513-.3901-12.178 6.2559 4.7358-7.0964 4.7143-7.0691 5.0469-7.5664.84771-1.2581 2.1753-1.9653 3.4629-2.0117zm184.6 0c1.2876.0464 2.6132.75358 3.4609 2.0117.331.49568.31303.46996 5.0488 7.5664-13.329-6.6459-12.225-5.9878-12.178-6.2559.42233-2.3505 2.0125-3.3819 3.668-3.3223zm-138.57.14648c-.45334-.03253-.94312.08175-1.4375.39453-2.6416 1.6696-.11533 5.6566 2.5215 3.9902 2.1463-1.3552.88042-4.2441-1.084-4.3848zm92.553 0c-1.9644.14071-3.2303 3.0296-1.084 4.3848 2.6367 1.6663 5.1631-2.3207 2.5215-3.9902-.49439-.31273-.98418-.42701-1.4375-.39453zm-46.602 4.248c12.263-.14677 22.86 5.4594 25.145 11.621 2.0377 5.4947.82534 6.8058-1.1074 7.957-16.261 9.6961-32.319 9.0066-47.426 0-1.9311-1.1512-3.1432-2.4623-1.1055-7.957.90581-2.4446 2.5965-4.5293 4.8086-5.9082 6.3813-3.9808 13.262-5.636 19.686-5.7129zm69.209 21.326c5.921.18892 10.544 2.1697 12.916 4.209.98656.8493-13.694 10.679-13.602 44.295.0516 18.105 5.1418 14.673-3.3223 13.68-8.4479-.98978-11.555 1.0607-14.186-.17773-11.567-5.4479-18.249-41.97-3.832-55 1.1545-1.0366-1.1461 2.3924.60742 16.424 1.0076 8.0265 2.9326 16.059 4.5117 20.908-.00533-4.3644 3.2346-27.366 13.057-40.254.36816-.48279 3.2748-4.1033 3.8496-4.084zm37.471 4.2344c.591.0216-4.6498 3.7972-5.0762 52.23 7.4614-10.923 21.452-32.752 25.842-45.371 22.198 14.306 1.9918 59.04-9.4238 64.096-10.862 4.8085-7.1559-3.4553-26.451-7.668-7.1562-1.5614-7.388-1.0305-9.0156-1.8281-1.9715-.96396-3.7849-2.3395-4.3984-4.8164-3.6685-15.263-1.0492-56.927 27.051-56.561.88827.10773 1.3363-.0871 1.4727-.08203zm-166.96 6.7637c1.3531.97201 2.6954 1.7946 4 2.4355-4.7358 7.0109-2.1842 3.2308-5.9609 8.832-.65877-.19699-1.2991-.37267-1.9062-.5293.37299-6.013.47802-9.0009 3.8672-10.738zm11.484 13.688c.43757-.00134 15.127 8.6568 37.732 10.961 12.942 22.537 11.339 19.744 11.482 20.002.15985-.27932 4.2618-7.473 11.428-20.035 2.4123-.25348 3.5377-.46289 3.9316-.46289-.18414.6281-.37471 1.2454-.05665 3.4688-3.1825 5.154-2.9195 13.368-1.2031 18.82 4.0254 12.778 17.073 18.964 29.686 15.803 5.1249 5.6481 14.842 12.745 24.607 16.213.0484.01453-2.0457 1.6427-14.982 29.568-2.2024 4.7536-5.0651 10.484-8.7207 14.273-5.1427 5.33-12.37 6.6006-14.332 6.3164-11.624-1.6808-11.682-16.532-12.457-20.773-.73629-4.0447-1.9931-8.4913-3.2832-12.242 13.523-1.2336 31.421-7.0863 37.053-19.807 0-.03227-.31056.1556-5.5098 2.2676-23.054 9.3651-41.899 13.155-65.119 4.541 18.667-20.606-15.574-54.709-33.789-66.746l3.5332-2.168zm49.031.11328c0 20.288.01197 19.154-.01563 19.211-4.5711-10.463-5.7433-10.749-4.9844-14.92.62649-2.5932 2.5441-4.3864 5-4.291zm29.854 3.9473c-.11946 11.632 2.711 27.586 10.473 36.186-10.426 1.8343-20.407-6.1004-19.719-20.826 0 0 .99485 5.6192 3.4394 8.2656-.02427-5.6707.85931-20.733 5.8066-23.625zm117.14 7.3613c.0388.00667.1232.04465.2168.08985-.22704.0356-.2588-.09651-.2168-.08985zm-3.5918 13.5c.00133.36168 5.0079 12.514-.13477 29.035-.042.1324.54399-.26556 1.4434-.9082 9.6202-6.8623 9.4537-11.183 8.916-6.3652-.76212 6.822-4.0974 15.154-9.7051 18.561-3.6298 2.2024-11.768 3.2803-18.014-.82422-1.7438-1.1448-2.5963-2.1124-5.1895-4.3164 8.6094-5.7821 17.948-17.721 22.684-35.182zm-272.81 5.5098-.1582.09961-54.016 176.08 150.89-37.697 12.205-40.145v-.00195c-.77504.15662-1.5694.24609-2.3848.24609-6.4361 0-9.8633-5.0128-11.168-6.2383v-.00195c-5.7531-5.4027-6.6256-8.9906-6.8242-14.555-7.7278-.5167-13.873-4.0655-18.297-10.574-6.5491-.47148-11.541-3.4437-14.633-5.9238-9.9754-8.0006-7.9634-14.851-18.094-30.779-1.4548-2.2847-1.4856.74142-21.99-14.18-6.8623-4.9926-11.937-10.548-15.529-16.33zm104.79 45.898c3.352 1.169 6.8768 2.2762 10.305 3.1934-5.4769 4.689-20.233 24.212-33.496 12.242.50377-.42788-.01334.01333 2.3379-1.9824 12.217-.06627 19.336-6.8185 20.854-13.453zm9.7266 15.766c1.1835 3.6718 3.0193 9.9671 2.7012 13.826.00267 2.7417-4.0131 7.5133-5.1191 6.4121-2.9629-2.9419-2.0134-6.3298-2.916-4.2695-.83154 1.8988.04974 4.8705.85547 6.0508.22607.32778.51967.28539-1.0078 1.7774-4.3354 1.7874-6.3652-3.7169-6.2812-7.668-1.3628.56998-1.5646 2.9003-1.3047 4.5117-1.5387-1.781-1.5119-2.8306-1.5039-8.3398.00666-4.7019 1.3278.80061 14.576-12.301zm30.346 22.939c.44012.0852.062.8327 3.3438 3.75 1.7713 1.5743 3.786 2.8023 6.0449 3.6387h.00196c2.6739.98817 2.0092-.46275-.45313 3.4141-2.6642 4.1868-5.36 11.342-6.7324 16.076-.07427 2.4156-.38507 4.7831-2.4922 5.8262.32288-1.2933.24786-2.3619-.02344-3.1191-.93973-2.6238-.28123 2.0823-3.8965 4.7949-2.0587 1.5469-5.0008.28054-4.4922-.13281 1.7874-1.9247 3.5777-5.7295 1.9824-7.7559-1.2336 4.0415-4.5772 6.1773-4.9082 5.9141-3.5668-2.8402-1.5755-7.7527.74805-11.66 2.1669-5.5754 4.8538-17.134 6.8398-19.627.61196-.76696 1.7228-.85661 3.1582-1.0391.49448-.06293.7322-.10848.87891-.08008z" fill="#510c76"/><path d="m139.04 174.44c1.0915 6.8316 2.9708 13.414 5.5059 19.686 4.2724-1.6792.67651 2.8478-4.4727-19.318-.34876-.10013-.69251-.22187-1.0332-.36719zm197.73 0c-.34232.14532-.6864.26674-1.0352.36524-5.1492 22.168-8.7451 17.641-4.4727 19.32 2.5366-6.273 4.4147-12.854 5.5078-19.686zm-180.33 35.791c-.28539.04299-.56193.83733-2.0547 2.0879 3.2616 4.7019 6.9551 9.1072 11.018 13.178-3.126-4.4355-5.2663-8.6133-6.8535-12.844-1.5299-1.7551-1.824-2.4649-2.1094-2.4219zm162.93 0c-.28539-.04279-.58028.66559-2.1094 2.4199-2.8773 7.6761-3.8581 6.0384-1.3828 6.8926 1.9634-2.3219 3.8176-4.73 5.5469-7.2246-1.4936-1.2506-1.7693-2.0451-2.0547-2.0879zm-121.6 27.307c-1.2724 1.2384-2.6922 2.3044-4.2891 3.0762.2099 1.4984.10464 3.0323-.28126 4.5 9.6541 4.6002 20.195 7.7526 31.318 9.1719.4392-3.591 2.444-6.87 5.5684-8.6074-11.471-.89453-22.36-3.7164-32.316-8.1406zm72.73 2.9746c-7.8311 2.7223-16.143 4.4927-24.785 5.166 3.1244 1.7374 5.1311 5.0164 5.5703 8.6074 1.2352-.15824 2.461-.34079 3.6816-.54102 5.1104-9.2633 14.316-8.4648 14.316-8.4648.1292-1.5937.82928-3.7003 1.2168-4.7676z" fill="#00a8e2"/></g></g></svg>