<svg xmlns="http://www.w3.org/2000/svg" width="248" height="44.109" viewBox="0 0 248 44.109">
 <g transform="matrix(1.3333 0 0 -1.3333 -928.8 895.79)">
  <g>
   <path d="m785.66 670.95c-8.7068 0-15.791-7.0839-15.791-15.791 0-8.7071 7.0843-15.791 15.791-15.791 4.636 0 9.021 2.0307 12.031 5.5693l0.21973 0.25635v13.009h-13.169v-7.5029h5.6646v-2.3276c-1.3973-0.98303-3.028-1.5015-4.7461-1.5015-4.5698 0-8.2881 3.7182-8.2881 8.2881 0 4.5698 3.7182 8.2881 8.2881 8.2881 2.2096 0 4.2907-0.86294 5.8579-2.4302l0.64892-0.65039 5.3086 5.3086-0.64893 0.65039c-2.9825 2.9825-6.9484 4.6245-11.166 4.6245zm79.261 0c-0.33917 0-0.6509-0.18703-0.81006-0.48632l-16.248-30.387h8.5078l2.272 4.2495h12.558l2.272-4.2495h8.5093l-16.251 30.387c-0.16024 0.29893-0.47124 0.48632-0.81006 0.48632zm-167.44-0.70898 16.251-30.387c0.15989-0.29893 0.47125-0.48633 0.81006-0.48633 0.33917 0 0.65052 0.1874 0.81005 0.48633l16.247 30.387h-8.6704l-8.5488-15.99-8.5532 15.99h-8.3452zm34.5 0v-30.164h7.5029v30.164h-7.5029zm9.9141 0v-30.164h7.5029v10.623h6.0059l5.2969-10.623h8.3833l-5.8418 11.719c1.4127 0.73081 2.6251 1.795 3.542 3.1172 1.135 1.6369 1.7344 3.5585 1.7344 5.5576 0 5.3876-4.3826 9.7705-9.7705 9.7705h-16.853zm58.425 0v-30.164h7.5029v30.164h-7.5029zm9.9155 0v-30.164h7.5015v17.263l12.313-17.263h7.5161v30.164h-7.5029v-17.262l-12.312 17.262h-7.5161zm29.742 0v-30.164h7.5029v30.164h-7.5029zm-90.58-7.5015h9.3501c1.2511 0 2.2676-1.0183 2.2676-2.269s-1.0165-2.2687-2.2676-2.269l-9.3501 0.00146v4.5366zm115.52-6.6709 2.2661-4.2393h-4.5337l2.2676 4.2393z" fill="#f84c1e"/>
   <path d="m785.66 670.03c-8.2138 0-14.873-6.6588-14.873-14.873 0-8.2134 6.6588-14.871 14.873-14.871 4.5404 0 8.6028 2.0364 11.331 5.2441v11.751h-11.331v-5.6646h5.666v-3.7075c-1.564-1.2252-3.5304-1.9585-5.666-1.9585-5.0768 0-9.2066 4.1301-9.2066 9.2066 0 5.0764 4.1297 9.2065 9.2066 9.2065 2.5384 0 4.8401-1.0326 6.5068-2.6997l4.0093 4.0093c-2.6911 2.6911-6.4094 4.3564-10.516 4.3564zm79.261 0-15.524-29.036h6.4233l2.272 4.2495h13.658l2.2734-4.2495h6.4248l-15.527 29.036zm-165.91-0.70899 15.527-29.036 15.524 29.036h-6.5874l-9.0996-17.02-9.104 17.02h-6.2607zm33.885 0v-28.327h5.666v28.327h-5.666zm9.9141 0v-28.327h5.666v10.623h7.4941l5.2954-10.623h6.331l-5.6045 11.24c3.2814 1.2953 5.6045 4.4933 5.6045 8.2354 0 4.8885-3.9631 8.852-8.852 8.852h-15.935zm58.425 0v-28.327h5.666v28.327h-5.666zm9.9141 0v-28.327h5.6675v19.214l13.704-19.214h6.1245v28.327h-5.666v-19.213l-13.705 19.213h-6.1245zm29.744 0v-28.327h5.666v28.327h-5.666zm-92.417-5.6646h10.269c1.7573 0 3.186-1.4306 3.186-3.1875 0-1.7577-1.4287-3.1875-3.186-3.1875h-10.269v6.375zm116.44-5.6411 3.7998-7.1074h-7.5996l3.7998 7.1074z" fill="#232d4b"/>
  </g>
 </g>
</svg>