<?xml version="1.0" encoding="UTF-8" standalone="no"?>
<svg xmlns:rdf="http://www.w3.org/1999/02/22-rdf-syntax-ns#" xmlns="http://www.w3.org/2000/svg" xml:space="preserve" height="37.574" viewBox="0 0 177.55812 37.573749" width="177.56" version="1.1" xmlns:cc="http://creativecommons.org/ns#" xmlns:dc="http://purl.org/dc/elements/1.1/"><g transform="matrix(1.25 0 0 -1.25 -87.779 55.36)"><g><path d="m204.78 39.764-2.1375-1.9835c-0.28-1.8945-1.009-12.356-1.3885-16.926-0.2045-2.469-0.0305-3.3225-0.5065-3.609l-0.0525-0.0325-0.057-0.025c-0.1355-0.06-0.2825-0.09-0.4475-0.09-0.2595 0-0.706 0.0735-2.078 0.2975-5.2645 0.8685-21.282 3.509-46.054 3.806-1.336 0.0145-4.3 0.1905-4.3925 0.1965-0.0135 0-1.462 0.0375-3.9955 0.0375-8.79 0-31.782-0.442-55.389-4.53l-0.0825-0.012h-0.084c-0.7415 0-0.854 0.4015-1.1875 1.595l-0.65 2.3295-1.968 7.0655-2.7715 9.9665-2.413 1.8555-2.2735 1.7475h2.8665 58.66c1.325 0 2.5385-0.181 3.6135-0.54 1.9335-0.6655 3.9825-2.39 4.4655-5.3225 0.503 3.4525 3.4875 5.8625 7.464 5.8625h50.194 2.4835l-1.8195-1.689zm-0.664 3.6385h-50.194c-3.079 0-5.752-1.231-7.469-3.251-0.9875 1.1745-2.292 2.0775-3.8265 2.6045-1.289 0.431-2.7125 0.6465-4.2475 0.6465h-58.66-2.8665-5.734l4.5455-3.495 2.2735-1.747 1.897-1.4595 2.5975-9.34 1.968-7.0655 0.651-2.3315c0.336-1.203 0.8435-3.0205 3.065-3.0205h0.084 0.143l0.142 0.021 0.083 0.0125 0.0235 0.004 0.024 0.004c23.463 4.063 46.319 4.502 55.056 4.502 2.1495 0 3.5285-0.028 3.9165-0.0365 0.431-0.026 3.119-0.183 4.4485-0.199 24.631-0.2945 40.534-2.9165 45.759-3.779 1.555-0.255 1.9725-0.323 2.3955-0.323 0.439 0 0.8565 0.086 1.2415 0.258l0.0315 0.0125 0.1375 0.0595 0.1275 0.08 0.052 0.033c1.1955 0.7195 1.251 1.9725 1.3085 3.299 0.021 0.475 0.047 1.066 0.108 1.8005 0.124 1.492 0.285 3.61 0.4555 5.8535 0.2875 3.784 0.636 8.3765 0.839 10.292l1.615 1.498 1.8185 1.6885 3.639 3.3785h-4.9645-2.4835z" fill="#a1a1a4"/><path d="m76.85 41.452 2.2734-1.7469 2.4125-1.8562 2.7719-9.9664 1.968-7.0656 0.65-2.3289c0.3335-1.1935 0.446-1.5953 1.1875-1.5953h0.08359l0.08281 0.01172c23.608 4.0885 46.599 4.5305 55.389 4.5305 2.5335 0 3.9826-0.0375 3.9961-0.0375 0.0925-0.006 3.0562-0.18187 4.3922-0.19687 24.771-0.2965 40.789-2.9375 46.054-3.8055 1.372-0.2245 1.8184-0.29766 2.0774-0.29766 0.165 0 0.31265 0.03012 0.44765 0.09063l0.057 0.02422 0.0523 0.03281c0.476 0.287 0.30253 1.1396 0.50703 3.6086 0.3795 4.57 1.1083 15.032 1.3883 16.927l2.1375 1.9828 1.8195 1.6891h-2.4836-50.195c-3.9765 0-6.9611-2.4092-7.4641-5.8617-0.483 2.9325-2.5321 4.6564-4.4656 5.3219-1.075 0.359-2.2883 0.53984-3.6133 0.53984h-58.66-2.8664zm96.251-2.6367h0.43281l3.4531-8.2719c2.104-5.0375 2.7897-7.003 3.3477-7.0555v-0.34922c-0.414 0.018-1.1404 0.09787-2.0734 0.17188-0.8085 0.0625-1.621 0.14184-2.332 0.17734v0.28672c0.7005 0.054 0.1576 1.7132-0.5789 3.6172h-4.4258c-0.7735-1.904-1.1221-3.2032-0.40312-3.2547v-0.28828c-0.6895 0.0365-1.4576 0.08378-2.1906 0.11328-0.952 0.036-1.5199 0.07616-1.9234 0.09766v0.28906c0.555 0.0515 1.0105 1.1394 3.168 6.2094l3.5258 8.257zm-19.195-0.14453c0.775 0 1.6894-0.12347 2.2109-0.30547-0.053-1.023-0.0705-1.8874-0.0875-3.1094h-0.27032c-0.09 0.3955-0.32444 0.6645-0.61094 0.8625-0.271 0.162-0.65056 0.26953-1.1141 0.26953-1.1175 0-1.8891-0.61088-1.8891-1.5469 0-0.5925 0.26859-1.025 0.73359-1.4375 0.4345-0.3965 1.0274-0.82862 1.8024-1.4406 1.258-0.9895 2.0484-2.068 2.0484-3.632v-0.01953c0-2.2485-1.7798-3.9586-4.6758-3.9586-1.097 0-2.2299 0.23666-2.8594 0.52266 0.034 0.9175 0.0712 1.7441 0.10625 3.1656h0.26875c0.127-0.4855 0.39709-0.82769 0.72109-1.0422 0.414-0.2325 0.98953-0.34453 1.582-0.34453 1.153 0 1.9977 0.57909 1.9977 1.6211 0 0.6475-0.361 1.1669-1.025 1.6914-0.468 0.3775-0.98847 0.77434-1.5305 1.2023-1.295 0.992-1.9602 2.0883-1.9602 3.5453 0 2.1605 1.6361 3.9562 4.5516 3.9562zm-36.571-0.03438c0.8645 0 1.745-0.10744 2.393-0.32344 1.06-0.323 2.4469-1.2935 2.4469-3.3805 0-1.513-1.0252-2.7349-2.2852-3.0414v-0.01875c1.5285-0.252 2.8594-1.5453 2.8594-3.3258v-0.02031c0-1.4195-0.36687-3.0854-1.5344-3.9914-0.8315-0.6455-2.0658-0.80769-4.1812-0.92969-0.6125-0.0365-2.8998-0.24297-3.5273-0.24297v0.26797c0.7725 0.0365 0.77265 1.8928 0.77265 6.9133v2.4102c0 4.6765-0.0008 5.252-0.70312 5.325v0.28594c0.4145 0 1.2056 0.01641 1.6726 0.01641 0.522 0.02 1.3512 0.05547 2.0867 0.05547zm21.013 0c1.007 0 1.8873-0.12778 2.6453-0.37578 1.257-0.432 2.5531-1.6021 2.5531-3.8336 0-1.601-0.81047-2.6623-1.493-3.1828-0.342-0.2885-0.75621-0.53869-1.0992-0.66719v-0.05312c0.577-0.7545 1.08-1.4558 3.257-4.4062 0.523-0.701 1.0426-1.2426 1.4391-1.3141v-0.25312h-1.6547-1.2773c-0.3235 0-0.61032 0.03897-0.80782 0.21797-1.0985 1.6365-2.2682 3.4179-3.5102 5.2344-0.1785 0-0.41291 0.01875-0.59141 0.01875v-0.775c0-3.7405 0.0172-4.3715 0.69922-4.443l0.002-0.32422c-0.4295 0.018-1.2425-0.06328-1.9805-0.06328-0.846 0-1.5831-0.000187-2.0516-0.01719v0.26953c0.7385 0.0715 0.75703 0.8375 0.75703 5.875v2.4102c0 4.6765-0.0004 5.3069-0.75703 5.3414v0.26953c0.4685 0 1.1182 0.01594 1.8547 0.03594 0.541 0.019 1.4203 0.03594 2.0148 0.03594zm51.577-0.01953c0.6295 0 2.1398-0.02031 3.8312-0.02031-1.6915 0-3.2018 0.01953-3.8312 0.01953v0.0008zm8.1117 0c0-0.000249 0.00002-0.00052 0-0.0008-0.28323-0.0049-0.66101-0.0051-0.99609-0.0078 0.33508 0.0028 0.71286 0.0036 0.99609 0.0086zm-113.71-0.0164c0.4685 0 1.1516-0.01953 2.0156-0.01953 0.827 0 1.4941 0.01953 2.3391 0.01953v-0.27109c-0.8815-0.089-0.71875-0.69934 0.14375-3.7398 0.648-2.2485 0.89909-3.2195 1.1336-4.157h0.03594c0.358 0.9375 0.69853 1.7442 1.707 4.0312 0.6125 1.313 1.3313 2.7339 1.8898 3.8859h0.37812c0.557-1.1335 1.2238-2.4828 1.9062-3.8688 0.9365-2.193 1.2942-3.0385 1.6547-3.957h0.05469c0.198 0.9355 0.43262 1.817 1.0781 3.9945 0.865 3.1285 1.0258 3.7219 0.16328 3.8109v0.27109c0.5945-0.02 1.2951-0.01953 2.1586-0.01953 0.863 0 1.367-0.00048 1.8875 0.01953v-0.27109c-0.556-0.1075-0.44085-0.71153-1.7898-5.2445l-2.7281-11.32-0.60938-0.08516c-2.9055 7.64-3.7942 8.9169-4.1352 9.8344h-0.01875c-0.341-0.937-1.1308-2.5678-3.3398-11.026l-0.70234-0.13125-3.0977 12.736c-1.3685 4.5535-1.513 5.1469-2.125 5.2359v0.27109zm19.106 0c0.63 0 2.1392-0.01953 3.8312-0.01953 1.5295 0 3.148-0.00048 4.2805 0.01953-0.0355-0.88-0.0531-1.78-0.0711-3.057h-0.26953c-0.108 0.683-0.75569 0.86406-1.9797 0.86406h-2.3726v-3.6352h2.032c1.278 0 1.619 0.03609 1.7625 0.43359h0.25156c-0.018-0.542-0.018-1.0296-0.018-1.4766 0-0.5415-0.00003-1.0435 0.018-1.6375h-0.25156c-0.108 0.432-0.48457 0.50469-1.7266 0.50469h-2.068v-4.457c0-0.377 0.0346-0.46784 0.36015-0.50234 0.898-0.0185 1.8549 0.09231 2.7344 0.19531 0.995 0.1185 1.4008 0.39134 1.5273 1.0023h0.26953c-0.0355-1.2955 0-2.731 0-3.6305-1.447-0.115-2.5535-0.21756-4.0305-0.36406-2.422-0.2395-3.1811-0.31466-4.3141-0.39766v0.26797c0.7525 0.072 0.75234 2.7953 0.75234 7.8328v2.4102c0 4.6765 0.00004 5.3068-0.71796 5.3758v0.27109zm20.958 0c0.6295 0 2.1421-0.01953 3.8336-0.01953 1.527 0 3.1464-0.00048 4.2789 0.01953-0.0365-0.88-0.0529-1.78-0.0719-3.057h-0.26875c-0.109 0.683-0.75618 0.86406-1.9797 0.86406h-2.3742v-3.6352h2.0336c1.276 0 1.6177 0.03609 1.7617 0.43359h0.25078c-0.0165-0.542-0.0164-1.0296-0.0164-1.4766 0-0.5415-0.00009-1.0435 0.0164-1.6375h-0.25078c-0.1085 0.432-0.48578 0.50469-1.7258 0.50469h-2.0695v-3.2922c0-0.3785 0.0359-0.46762 0.35937-0.50312 0.8985-0.019 1.9064-0.019 2.7359 0 0.8805 0.0165 1.4018 0.14291 1.5273 0.75391h0.27031c-0.0375-1.296 0-2.3051 0-3.2031-1.242 0.015-2.8434-0.08662-4.1734-0.14062-2.1205-0.088-3.5634-0.10863-4.1734-0.12813v0.26953c0.756 0.0745 0.75625 1.1531 0.75625 6.1906v2.4102c0 4.6765 0.00019 5.3068-0.72031 5.3758v0.27109zm33.116 0c1.474-0.02 3.1468-0.01953 4.5328-0.01953h2.0141c1.5485 0 3.2028-0.00048 4.5328 0.01953v-3.1305h-0.2875c-0.1635 0.7375-0.57547 0.9375-1.4555 0.9375h-2.4297v-5.8641c0-5.055 0.0268-6.138 0.88829-6.1555v-0.28203c-0.5935 0.019-1.436 0.06897-2.2555 0.09297-0.8625 0.0325-1.5808 0.0605-2.1562 0.0875v0.27109c0.8275 0.089 0.825 0.94844 0.825 5.9859v5.8641h-2.4281c-0.8985 0-1.331-0.2345-1.493-0.9375h-0.27188c0 1.1885-0.0156 2.2505-0.0156 3.1305zm20.453 0c1.4745-0.02 3.1486-0.01953 4.5336-0.01953h2.0133c1.548 0 3.2026-0.00048 4.5352 0.01953v-3.1305h-0.28906c-0.1615 0.7375-0.57497 0.9375-1.4555 0.9375h-2.4297v-5.8641c0-5.055 0.007-7.6211 0.87031-7.6391v-0.26953c-0.5845 0.065-1.3432 0.13866-2.1937 0.21016-0.8595 0.073-1.5563 0.17803-2.2008 0.21953v0.27031c0.8265 0.092 0.82579 2.1711 0.82579 7.2086v5.8641h-2.4274c-0.899 0-1.333-0.2345-1.4945-0.9375h-0.27031c0 1.1885-0.0172 2.2505-0.0172 3.1305zm11.967-0.25469c0.13471-0.01341 0.24387-0.04626 0.33281-0.12187-0.0889 0.07559-0.1981 0.10847-0.33281 0.12187zm-72.356-1.8859c-0.2875 0-0.59294-0.03534-0.77344-0.05234v-3.5992c0.1995 0 0.37869-0.01797 0.50469-0.01797 0.305 0 0.66481 0.036 1.0078 0.1625 0.5765 0.197 1.2242 0.73803 1.2242 1.707v0.02188c0 1.113-0.79378 1.7781-1.9633 1.7781zm21.03-0.03516c-0.3245 0-0.64734-0.03647-0.78984-0.05547v-4.35c0.195-0.0215 0.39419-0.02109 0.59219-0.02109 0.541 0 1.0428 0.14666 1.4203 0.39766 0.5235 0.3065 1.0086 0.93597 1.0086 1.9055v0.01719c0 1.2775-0.82826 2.1062-2.2313 2.1062zm34.572-2.9875c-0.1235-0.43-0.39447-1.1328-1.4555-3.9023l-0.018-0.05469h2.8953l-0.0164 0.05469c-1.026 2.7525-1.2594 3.4523-1.3859 3.9023h-0.0195zm-55.691-2.732c-0.1795 0-0.48488-0.01928-0.68438-0.03828v-4.0117c0-0.27 0.0368-0.30587 0.14531-0.35937 0.215-0.0335 0.50253-0.03359 0.71953-0.03359 0.4675 0 0.97154 0.10603 1.332 0.30703 0.485 0.251 1.0377 0.75878 1.0062 2.1758v0.01562c0 0.9905-0.68393 1.5663-1.3484 1.7828-0.3065 0.089-0.77481 0.16172-1.1703 0.16172zm79.66-0.59844h0.25c0.00001-0.000284-0.00001-0.00048 0-0.0008h-0.25c-0.00006 0.000252 0.00007 0.00052 0 0.0008z" fill="#4b2682"/><path fill="#fff" d="m193.76 38.597c-1.692 0-3.2015 0.0195-3.831 0.0195v-0.271c0.7185-0.0715 0.7185-0.7 0.7185-5.378v-2.4095c0-5.038 0-8.0245-0.756-8.0975v-0.269c0.647-0.117 2.2525-0.3055 4.174-0.5845 1.5525-0.2265 2.9165-0.3915 4.049-0.618 0 0.899 0.089 3.002 0.1235 4.2965h-0.27c-0.1245-0.6115-0.645-0.7605-1.527-0.754-0.391 0.0035-2.376 0.2525-2.736 0.3245-0.319 0.0635-0.359 0.123-0.359 0.5005v5.253h2.0705c1.2385 0 1.617-0.071 1.727-0.5035h0.25c-0.0175 0.5945-0.0175 1.0975-0.0175 1.638 0 0.449 0 0.934 0.0175 1.4755h-0.25c-0.145-0.397-0.4885-0.4325-1.765-0.4325h-2.0325v3.6345h2.373c1.2245 0 1.8725-0.181 1.981-0.863h0.268c0.0185 1.276 0.0375 2.176 0.072 3.058-1.132-0.0195-2.751-0.0195-4.28-0.0195m-76.276-7.892c0.3955 0 0.86459-0.07272 1.1711-0.16172 0.6645-0.2165 1.3484-0.79231 1.3484-1.7828v-0.01562c0.031-1.417-0.52202-1.9248-1.007-2.1758-0.3605-0.201-0.86482-0.30703-1.3328-0.30703-0.217 0-0.50375 0.000093-0.71875 0.03359-0.1085 0.0535-0.14531 0.08937-0.14531 0.35937v4.0117c0.199 0.019 0.50488 0.03828 0.68438 0.03828zm55.691 2.732h0.0195c0.1265-0.45 0.35994-1.1498 1.3859-3.9023l0.0164-0.05469h-2.8953l0.018 0.05469c1.061 2.7695 1.332 3.4723 1.4555 3.9023zm-34.572 2.9875c1.403 0 2.2313-0.82925 2.2313-2.1062v-0.01641c0-0.97-0.48432-1.6005-1.0078-1.907-0.3775-0.251-0.88037-0.39766-1.4219-0.39766-0.1975 0-0.39613 0.00064-0.59063 0.02266v4.3492c0.1425 0.019 0.46456 0.05547 0.78906 0.05547zm-21.03 0.03516c1.17 0 1.9633-0.66512 1.9633-1.7781v-0.02266c0-0.969-0.64772-1.5092-1.2242-1.7062-0.343-0.1265-0.70281-0.1625-1.0078-0.1625-0.126 0-0.30569 0.01875-0.50469 0.01875v3.5984c0.1805 0.017 0.48644 0.05234 0.77344 0.05234zm-14.138 2.1406v-0.27109c0.718-0.069 0.71796-0.69928 0.71796-5.3758v-2.4102c0-5.0375 0.00016-7.7608-0.75234-7.8328v-0.26797c1.133 0.083 1.8921 0.15816 4.3141 0.39766 1.477 0.1465 2.5835 0.24906 4.0305 0.36406 0 0.8995-0.0355 2.335 0 3.6305h-0.26953c-0.1265-0.611-0.53234-0.88384-1.5273-1.0023-0.8795-0.103-1.8364-0.21381-2.7344-0.19531-0.326 0.0345-0.36015 0.12534-0.36015 0.50234v4.457h2.068c1.242 0 1.6186-0.07269 1.7266-0.50469h0.25156c-0.0185 0.594-0.018 1.096-0.018 1.6375 0 0.447-0.00052 0.93456 0.018 1.4766h-0.25156c-0.1435-0.3975-0.4845-0.43359-1.7625-0.43359h-2.032v3.6352h2.3726c1.224 0 1.8717-0.18106 1.9797-0.86406h0.26953c0.018 1.2775 0.0364 2.177 0.0719 3.057-1.1325-0.02-2.751-0.01953-4.2805-0.01953-1.692 0-3.202 0.01953-3.832 0.01953zm-19.106 0v-0.27109c0.612-0.089 0.7565-0.68244 2.125-5.2359l3.0977-12.736 0.70234 0.13125c2.209 8.458 2.9988 10.089 3.3398 11.026h0.01875c0.341-0.9175 1.2297-2.1944 4.1352-9.8344l0.60938 0.08516 2.7281 11.32c1.349 4.533 1.2338 5.137 1.7898 5.2445v0.27109c-0.5205-0.02-1.0245-0.01953-1.8875-0.01953-0.864 0-1.5646-0.00048-2.1586 0.01953v-0.27109c0.8625-0.089 0.70172-0.68244-0.16328-3.8109-0.646-2.1775-0.88012-3.059-1.0781-3.9945h-0.05469c-0.3605 0.9185-0.71819 1.764-1.6547 3.957-0.6825 1.386-1.3492 2.7352-1.9062 3.8688h-0.37812c-0.5585-1.152-1.2773-2.5729-1.8898-3.8859-1.0085-2.287-1.349-3.0938-1.707-4.0312h-0.03594c-0.2345 0.93752-0.48559 1.9086-1.1336 4.1571-0.863 3.0405-1.0252 3.6508-0.14375 3.7398v0.27109c-0.845 0-1.5121-0.01953-2.3391-0.01953-0.864 0-1.5471 0.01953-2.0156 0.01953zm93.634 0.0008c0-0.88 0.0172-1.942 0.0172-3.1305h0.27109c0.161 0.703 0.59425 0.93672 1.4938 0.93672h2.4274v-5.8641c0-5.0375-0.00007-7.1174-0.82657-7.2094v-0.26953c0.6445-0.0415 1.3426-0.14603 2.2016-0.21953 0.851-0.071 1.6085-0.14544 2.193-0.21094v0.27031c-0.863 0.018-0.86954 2.5836-0.86954 7.6391v5.8641h2.4297c0.8805 0 1.294-0.19922 1.4555-0.93672h0.28906v3.1305c-1.3325-0.02-2.9872-0.02031-4.5352-0.02031h-2.0141c-1.385 0-3.0578 0.000312-4.5328 0.02031zm-20.453 0c0-0.88 0.0164-1.942 0.0164-3.1305h0.27187c0.162 0.703 0.59319 0.93672 1.4922 0.93672h2.4281v-5.8641c0-5.0375 0.002-5.8969-0.82578-5.9859v-0.27031c0.5755-0.027 1.295-0.05606 2.157-0.08906 0.8195-0.0235 1.6615-0.07369 2.2555-0.09219v0.28125c-0.862 0.018-0.8875 1.1008-0.8875 6.1562v5.8641h2.4289c0.88 0 1.2922-0.19922 1.4562-0.93672h0.2875v3.1305c-1.3305-0.02-2.9846-0.02031-4.5336-0.02031h-2.0141c-1.386 0-3.0583 0.000312-4.5328 0.02031zm-33.116 0v-0.27109c0.721-0.0695 0.72031-0.70034 0.72031-5.3773v-2.4094c0-5.0375 0.00025-6.1166-0.75625-6.1906v-0.26953c0.61 0.02 2.0529 0.04012 4.1734 0.12812 1.3305 0.0545 2.9314 0.15562 4.1734 0.14062 0 0.898-0.037 1.9071 0 3.2031h-0.27109c-0.1255-0.611-0.64556-0.73691-1.5266-0.75391-0.829-0.0185-1.8369-0.0185-2.7359 0-0.3235 0.0355-0.35937 0.12412-0.35937 0.50312v3.293h2.0695c1.24 0 1.6173-0.07425 1.7258-0.50625h0.25078c-0.0165 0.5945-0.0172 1.0971-0.0172 1.6391 0 0.447 0.0008 0.93428 0.0172 1.4758h-0.25078c-0.144-0.3975-0.48572-0.43359-1.7617-0.43359h-2.0336v3.6352h2.3742c1.2235 0 1.8712-0.18056 1.9797-0.86406h0.26797c0.0195 1.2775 0.0362 2.1778 0.0727 3.0578-1.1325-0.02-2.7527-0.02031-4.2797-0.02031-1.6915 0-3.2033 0.02031-3.8328 0.02031zm13.96 0.03516c-0.5945 0-1.4743-0.01694-2.0148-0.03594-0.737-0.0195-1.3862-0.03594-1.8547-0.03594v-0.26953c0.756-0.0345 0.75625-0.66569 0.75625-5.3422v-2.4094c0-5.038-0.0178-5.8035-0.75625-5.875v-0.26953c0.4685 0.017 1.2051 0.01719 2.0516 0.01719 0.7375 0 1.551 0.08078 1.9805 0.06328l-0.002 0.32422c-0.6825 0.0715-0.69843 0.70247-0.69843 4.443v0.775c0.1785 0 0.41212-0.01875 0.59062-0.01875 1.2425-1.8165 2.4112-3.5979 3.5102-5.2344 0.1975-0.179 0.48353-0.21797 0.80703-0.21797h1.2781 1.6547v0.25312c-0.3965 0.0715-0.91578 0.61306-1.4383 1.3141-2.177 2.9505-2.6803 3.6518-3.2578 4.4062v0.05312c0.343 0.1285 0.75772 0.37897 1.0992 0.66797 0.683 0.52 1.493 1.5815 1.493 3.182 0 2.2315-1.2956 3.4016-2.5531 3.8336-0.7575 0.248-1.6383 0.37578-2.6453 0.37578zm-21.013 0c-0.7355 0-1.5647-0.03547-2.0867-0.05547-0.467 0-1.2582-0.01719-1.6726-0.01719v-0.28516c0.7025-0.073 0.70312-0.64878 0.70312-5.3258v-2.4094c0-5.021-0.00015-6.8763-0.77265-6.9133v-0.26797c0.628 0 2.9148 0.20647 3.5273 0.24297 2.1155 0.1215 3.3498 0.28419 4.1812 0.92969 1.1675 0.9055 1.5344 2.5714 1.5344 3.9914v0.02031c0 1.7805-1.3309 3.0738-2.8594 3.3258v0.01875c1.26 0.3065 2.2852 1.5289 2.2852 3.0414 0 2.0875-1.3869 3.057-2.4469 3.3805-0.648 0.2155-1.5285 0.32344-2.393 0.32344zm36.571 0.03438c-2.9155 0-4.5516-1.7958-4.5516-3.9562 0-1.457 0.66515-2.5533 1.9602-3.5453 0.542-0.428 1.0625-0.82406 1.5305-1.2016 0.664-0.5245 1.025-1.0447 1.025-1.6922 0-1.042-0.84466-1.6203-1.9977-1.6203-0.5925 0-1.168 0.11125-1.582 0.34375-0.324 0.2145-0.59409 0.55669-0.72109 1.0422h-0.26875c-0.035-1.4215-0.0722-2.2484-0.10625-3.1664 0.6295-0.2855 1.7624-0.52188 2.8594-0.52188 2.896 0 4.6758 1.7101 4.6758 3.9586v0.01953c0 1.564-0.79044 2.6425-2.0484 3.632-0.775 0.612-1.3678 1.0441-1.8024 1.4406-0.465 0.4125-0.73359 0.84472-0.73359 1.4367 0 0.9365 0.77156 1.5477 1.8891 1.5477 0.4635 0 0.84306-0.10781 1.1141-0.27031 0.2865-0.1975 0.52094-0.46622 0.61094-0.86172h0.27032c0.017 1.222 0.0345 2.0864 0.0875 3.1094-0.5215 0.182-1.4359 0.30547-2.2109 0.30547zm19.195 0.14453-3.5266-8.257c-2.1575-5.07-2.6125-6.1579-3.168-6.2094v-0.28906c0.4035-0.0215 0.97094-0.06216 1.9234-0.09766 0.7325-0.03 1.5011-0.07678 2.1906-0.11328v0.28828c-0.7195 0.0515-0.37088 1.351 0.40312 3.2555h4.4258c0.736-1.9045 1.2794-3.5635 0.5789-3.618v-0.2875c0.7105-0.0355 1.5232-0.11378 2.3312-0.17578 0.933-0.0745 1.6607-0.15466 2.0742-0.17266v0.34844c-0.558 0.0525-1.2429 2.0188-3.3469 7.0562l-3.4539 8.2719h-0.43203z"/></g></g></svg>
