<?xml version="1.0" encoding="UTF-8"?>
<svg version="1.1" xmlns="http://www.w3.org/2000/svg" width="588" height="83">
<path d="M0 0 C6.27 0 12.54 0 19 0 C20.03934764 3.11804292 20.29568375 5.7076779 20.53515625 8.98046875 C20.62216797 10.14384766 20.70917969 11.30722656 20.79882812 12.50585938 C20.88583984 13.72080078 20.97285156 14.93574219 21.0625 16.1875 C21.15337891 17.41404297 21.24425781 18.64058594 21.33789062 19.90429688 C21.56202158 22.93596295 21.7825812 25.96784637 22 29 C22.21934204 27.78884521 22.21934204 27.78884521 22.44311523 26.55322266 C23.10475026 22.90989962 23.77106424 19.26744781 24.4375 15.625 C24.66759766 14.35398437 24.89769531 13.08296875 25.13476562 11.7734375 C25.46831055 9.95585937 25.46831055 9.95585937 25.80859375 8.1015625 C26.11494751 6.42054443 26.11494751 6.42054443 26.42749023 4.70556641 C27 2 27 2 28 0 C34.27 0 40.54 0 47 0 C48.62524557 8.56947664 50.23156666 17.12254324 51.5703125 25.7421875 C51.8983665 28.02349134 51.8983665 28.02349134 53 30 C54.485 15.15 54.485 15.15 56 0 C62.27 0 68.54 0 75 0 C73.36889238 15.57278542 71.28036359 31.07450051 69.1541748 46.58612061 C68.6831754 50.02594027 68.21475824 53.46611157 67.74609375 56.90625 C66.83319014 63.60450427 65.91728621 70.30234451 65 77 C57.74 77 50.48 77 43 77 C42.18725407 73.10421783 41.3747936 69.20837649 40.5625 65.3125 C40.33240234 64.20970703 40.10230469 63.10691406 39.86523438 61.97070312 C39.64287109 60.90400391 39.42050781 59.83730469 39.19140625 58.73828125 C38.98717041 57.75899658 38.78293457 56.77971191 38.57250977 55.77075195 C38.03771458 53.18252569 37.51513069 50.59220381 37 48 C36.85377197 48.77190674 36.70754395 49.54381348 36.55688477 50.33911133 C35.89422068 53.83064924 35.2283985 57.32157757 34.5625 60.8125 C34.33240234 62.02744141 34.10230469 63.24238281 33.86523438 64.49414062 C33.64287109 65.65751953 33.42050781 66.82089844 33.19140625 68.01953125 C32.98717041 69.09307861 32.78293457 70.16662598 32.57250977 71.27270508 C32 74 32 74 31 77 C24.07 77 17.14 77 10 77 C8.64813361 70.91660124 7.52455024 65.10982715 6.81640625 58.9609375 C6.71623199 58.12484451 6.61605774 57.28875153 6.5128479 56.42732239 C6.19201786 53.74367878 5.87723024 51.05936511 5.5625 48.375 C5.12427632 44.69118091 4.6831674 41.00770877 4.2421875 37.32421875 C4.13510971 36.42606949 4.02803192 35.52792023 3.91770935 34.60255432 C2.95374051 26.54158931 1.91336996 18.49226169 0.81274414 10.44873047 C0.70309326 9.6342041 0.59344238 8.81967773 0.48046875 7.98046875 C0.38660889 7.29879639 0.29274902 6.61712402 0.19604492 5.91479492 C-0.00487629 3.95237271 0 1.97268099 0 0 Z " fill="#050400" transform="translate(1,3)"/>
<path d="M0 0 C6.6 0 13.2 0 20 0 C20 10.56 20 21.12 20 32 C22.64 32 25.28 32 28 32 C28 21.44 28 10.88 28 0 C34.6 0 41.2 0 48 0 C48 25.41 48 50.82 48 77 C41.4 77 34.8 77 28 77 C28 67.76 28 58.52 28 49 C25.36 49 22.72 49 20 49 C20 58.24 20 67.48 20 77 C13.4 77 6.8 77 0 77 C0 66.44 0 55.88 0 45 C-1.32 44.34 -2.64 43.68 -4 43 C-6.27045266 41.48088071 -8.51630798 39.94594823 -10.75 38.375 C-11.35199219 37.95476563 -11.95398438 37.53453125 -12.57421875 37.1015625 C-14.05113043 36.07006863 -15.52579194 35.03535421 -17 34 C-16.67 33.34 -16.34 32.68 -16 32 C-10.72 32 -5.44 32 0 32 C0 21.44 0 10.88 0 0 Z " fill="#060500" transform="translate(160,3)"/>
<path d="M0 0 C1.99908057 0.00848712 3.9982025 -0.021627 5.99707031 -0.05200195 C7.26808594 -0.05135742 8.53910156 -0.05071289 9.84863281 -0.05004883 C11.00669434 -0.05190186 12.16475586 -0.05375488 13.35791016 -0.05566406 C17.3762805 0.55902635 19.51254787 1.8782936 22.63769531 4.44604492 C24.56491866 7.24538689 24.88100109 9.41464067 24.83300781 12.77416992 C24.8280127 13.49507812 24.82301758 14.21598633 24.81787109 14.95874023 C24.79966309 15.86205078 24.78145508 16.76536133 24.76269531 17.69604492 C24.72144531 20.58354492 24.68019531 23.47104492 24.63769531 26.44604492 C18.36769531 26.44604492 12.09769531 26.44604492 5.63769531 26.44604492 C5.63769531 23.14604492 5.63769531 19.84604492 5.63769531 16.44604492 C3.65769531 16.44604492 1.67769531 16.44604492 -0.36230469 16.44604492 C-0.47606867 22.16452577 -0.47606867 22.16452577 1.99755859 27.12329102 C3.83312911 28.59886484 5.70785255 29.87792666 7.70019531 31.13354492 C8.38033691 31.59631836 9.06047852 32.0590918 9.76123047 32.53588867 C11.10255413 33.44825786 12.45103978 34.35020385 13.80712891 35.24047852 C16.09121901 36.74472457 18.31099255 38.32394947 20.51269531 39.94604492 C21.10824219 40.36885742 21.70378906 40.79166992 22.31738281 41.22729492 C24.40119286 43.15081189 24.61970597 45.17091706 24.79882812 47.91040039 C24.84420771 51.04739613 24.87294891 54.18374861 24.88769531 57.32104492 C24.90832031 58.41030273 24.92894531 59.49956055 24.95019531 60.62182617 C24.95792969 62.20157227 24.95792969 62.20157227 24.96582031 63.81323242 C24.97983887 65.25351807 24.97983887 65.25351807 24.99414062 66.72290039 C24.45654007 70.83002132 22.74673945 73.31932616 19.87597656 76.23583984 C16.7729769 77.91358519 14.34125283 77.81798526 10.82519531 77.80932617 C10.17446045 77.80982468 9.52372559 77.81032318 8.85327148 77.81083679 C7.48157691 77.80850307 6.10987749 77.79881585 4.73828125 77.78222656 C2.64446526 77.75862125 0.55192324 77.76167178 -1.54199219 77.76831055 C-12.71131927 77.72168239 -12.71131927 77.72168239 -16.36230469 75.44604492 C-16.36230469 74.78604492 -16.36230469 74.12604492 -16.36230469 73.44604492 C-17.02230469 73.44604492 -17.68230469 73.44604492 -18.36230469 73.44604492 C-20.2195622 69.49696278 -20.59881958 66.39836596 -20.55761719 62.05151367 C-20.55117188 60.84946289 -20.54472656 59.64741211 -20.53808594 58.40893555 C-20.52132813 57.16305664 -20.50457031 55.91717773 -20.48730469 54.63354492 C-20.47828125 53.36833008 -20.46925781 52.10311523 -20.45996094 50.79956055 C-20.43642863 47.68152928 -20.40355014 44.56388395 -20.36230469 41.44604492 C-17.27227404 42.59433382 -14.6825787 43.74069402 -12.10058594 45.79370117 C-11.53919922 46.23391602 -10.9778125 46.67413086 -10.39941406 47.12768555 C-9.83029297 47.58336914 -9.26117188 48.03905273 -8.67480469 48.50854492 C-4.71300838 51.77162797 -4.71300838 51.77162797 -0.36230469 54.44604492 C-0.36230469 56.75604492 -0.36230469 59.06604492 -0.36230469 61.44604492 C1.61769531 61.44604492 3.59769531 61.44604492 5.63769531 61.44604492 C6.37078599 57.6806246 6.12453269 54.9969081 4.63769531 51.44604492 C-0.50456079 46.07854399 -7.2009436 42.1843133 -13.37695312 38.12036133 C-16.72615258 35.84502391 -18.90260419 34.23790562 -20.36230469 30.44604492 C-20.80033724 26.99847103 -20.73254759 23.5437274 -20.73730469 20.07104492 C-20.76179688 19.13776367 -20.78628906 18.20448242 -20.81152344 17.24291992 C-20.83608296 11.4632452 -20.3401136 7.95422835 -16.36230469 3.44604492 C-11.65810419 -0.9842082 -6.12343872 -0.03971393 0 0 Z " fill="#060500" transform="translate(384.3623046875,2.553955078125)"/>
<path d="M0 0 C0.91644287 0.00523682 1.83288574 0.01047363 2.77709961 0.01586914 C4.26113281 0.02070312 4.26113281 0.02070312 5.77514648 0.02563477 C6.81606445 0.03401367 7.85698242 0.04239258 8.92944336 0.05102539 C10.49662109 0.05779297 10.49662109 0.05779297 12.09545898 0.06469727 C14.68600996 0.07652627 17.27644895 0.0930085 19.86694336 0.11352539 C23.47641165 16.88261129 27.04199259 33.65108458 30.22192383 50.50805664 C31.49143565 57.22736309 32.85917471 63.9083473 34.38647461 70.57446289 C34.86694336 73.11352539 34.86694336 73.11352539 34.86694336 77.11352539 C28.26694336 77.11352539 21.66694336 77.11352539 14.86694336 77.11352539 C14.20694336 73.15352539 13.54694336 69.19352539 12.86694336 65.11352539 C9.89694336 65.11352539 6.92694336 65.11352539 3.86694336 65.11352539 C3.77606445 66.1615332 3.77606445 66.1615332 3.68334961 67.23071289 C3.59956055 68.14079102 3.51577148 69.05086914 3.42944336 69.98852539 C3.34823242 70.89344727 3.26702148 71.79836914 3.18334961 72.73071289 C2.86694336 75.11352539 2.86694336 75.11352539 1.86694336 77.11352539 C-4.73305664 77.11352539 -11.33305664 77.11352539 -18.13305664 77.11352539 C-17.61222331 74.18383789 -17.09138997 71.25415039 -16.57055664 68.32446289 C-15.78126404 62.53161901 -15.55892298 59.16213077 -19.13305664 54.36352539 C-22.13305664 50.28019206 -22.13305664 50.28019206 -22.13305664 48.11352539 C-18.83305664 48.11352539 -15.53305664 48.11352539 -12.13305664 48.11352539 C-11.74827148 45.70620117 -11.74827148 45.70620117 -11.35571289 43.25024414 C-10.07507198 35.57204027 -8.57315947 27.94185275 -7.04638672 20.30957031 C-6.5639278 17.89281998 -6.08768078 15.4748932 -5.61157227 13.05688477 C-5.30530636 11.51970068 -4.99867961 9.98258844 -4.69165039 8.44555664 C-4.54996933 7.7227803 -4.40828827 7.00000397 -4.26231384 6.25532532 C-3.03219465 0.16137925 -3.03219465 0.16137925 0 0 Z " fill="#060500" transform="translate(470.133056640625,2.886474609375)"/>
<path d="M0 0 C7.59 0 15.18 0 23 0 C24.95885561 9.59596131 26.91524414 19.19241646 28.86727142 28.78976917 C29.77373484 33.24598722 30.68128567 37.70197807 31.59130859 42.1574707 C32.46918243 46.45576349 33.34421682 50.75462531 34.2172699 55.05389977 C34.55116824 56.69558061 34.88609619 58.33705238 35.22206116 59.97831154 C35.69176855 62.27381753 36.15783843 64.57003375 36.62304688 66.86645508 C36.83343849 67.88820831 36.83343849 67.88820831 37.04808044 68.93060303 C37.60265995 71.68464951 38 74.1808621 38 77 C31.4 77 24.8 77 18 77 C16 69 16 69 16 65 C12.7 65 9.4 65 6 65 C6.020625 66.2375 6.04125 67.475 6.0625 68.75 C6.11433318 71.8599909 5.782223 73.87110801 5 77 C-1.6 77 -8.2 77 -15 77 C-14 68 -14 68 -13.0625 64 C-12.52907045 60.19740934 -13.79660573 58.29832994 -15.9375 55.1875 C-16.50339844 54.45917969 -17.06929688 53.73085938 -17.65234375 52.98046875 C-19 51 -19 51 -19 48 C-15.7 48 -12.4 48 -9 48 C-8.87310791 46.70908447 -8.74621582 45.41816895 -8.61547852 44.08813477 C-8.06918234 39.18725708 -7.16769088 34.41237384 -6.15234375 29.58984375 C-5.97619034 28.73693253 -5.80003693 27.8840213 -5.61854553 27.00526428 C-5.06204787 24.31519376 -4.49987789 21.62634667 -3.9375 18.9375 C-3.55626291 17.09968769 -3.17540005 15.2617977 -2.79492188 13.42382812 C-1.86829294 8.9481498 -0.93398133 4.47417479 0 0 Z M11 34 C10.34 38.62 9.68 43.24 9 48 C10.32 48 11.64 48 13 48 C12.67 43.38 12.34 38.76 12 34 C11.67 34 11.34 34 11 34 Z " fill="#050400" transform="translate(294,3)"/>
<path d="M0 0 C2.16227385 -0.0171609 4.32299711 -0.0610394 6.48486328 -0.10522461 C7.86896666 -0.11535674 9.253083 -0.12387122 10.63720703 -0.13061523 C11.89178711 -0.14519775 13.14636719 -0.15978027 14.43896484 -0.17480469 C18.61307212 0.38646637 20.71565764 1.6140289 23.93408203 4.29516602 C25.91696253 7.15545871 26.17585464 9.40399276 26.12939453 12.84204102 C26.12294922 13.68637695 26.11650391 14.53071289 26.10986328 15.40063477 C26.09310547 16.27333008 26.07634766 17.14602539 26.05908203 18.04516602 C26.05005859 18.93333008 26.04103516 19.82149414 26.03173828 20.73657227 C26.0082278 22.92304659 25.97536702 25.10896696 25.93408203 27.29516602 C22.7882678 27.32405116 19.64248734 27.34192525 16.49658203 27.35766602 C15.59875 27.36604492 14.70091797 27.37442383 13.77587891 27.38305664 C12.49487305 27.38789062 12.49487305 27.38789062 11.18798828 27.39282227 C10.00184937 27.40067749 10.00184937 27.40067749 8.79174805 27.40869141 C6.93408203 27.29516602 6.93408203 27.29516602 5.93408203 26.29516602 C5.86202692 24.60907636 5.85022136 22.92015942 5.87158203 21.23266602 C5.88060547 20.31356445 5.88962891 19.39446289 5.89892578 18.44750977 C5.91052734 17.73723633 5.92212891 17.02696289 5.93408203 16.29516602 C3.62408203 16.29516602 1.31408203 16.29516602 -1.06591797 16.29516602 C-1.06591797 31.14516602 -1.06591797 45.99516602 -1.06591797 61.29516602 C1.24408203 61.29516602 3.55408203 61.29516602 5.93408203 61.29516602 C5.93408203 53.37516602 5.93408203 45.45516602 5.93408203 37.29516602 C9.43225868 38.69443668 11.57558774 39.55661962 14.44970703 41.64282227 C15.06072266 42.08303711 15.67173828 42.52325195 16.30126953 42.97680664 C16.92259766 43.43249023 17.54392578 43.88817383 18.18408203 44.35766602 C19.13927734 45.04699219 19.13927734 45.04699219 20.11376953 45.75024414 C24.74260037 49.10368436 24.74260037 49.10368436 25.93408203 50.29516602 C26.08858275 53.2039391 26.16585118 56.07256661 26.18408203 58.98266602 C26.20470703 59.78639648 26.22533203 60.59012695 26.24658203 61.41821289 C26.27941943 66.43822995 25.8746332 70.03136683 22.93408203 74.29516602 C17.36957133 78.48184555 11.28333545 77.8174954 4.6418457 77.79614258 C2.50546488 77.79517006 0.37267943 77.83682673 -1.76318359 77.88110352 C-13.16769139 77.98017274 -13.16769139 77.98017274 -16.97607422 74.88891602 C-20.03849613 71.08807836 -20.20214471 69.21037782 -20.25878906 64.38012695 C-20.27485199 63.13833679 -20.29091492 61.89654663 -20.3074646 60.61712646 C-20.31895288 59.25460495 -20.32956128 57.89207577 -20.33935547 56.52954102 C-20.34467915 55.84381264 -20.35000282 55.15808426 -20.35548782 54.45157623 C-20.38221696 50.82018654 -20.40159029 47.18883116 -20.41601562 43.55737305 C-20.42934276 40.55608559 -20.45717084 37.55548002 -20.49804688 34.55444336 C-20.54744639 30.92753673 -20.57214558 27.30124753 -20.57924271 23.67401886 C-20.58594328 22.29453036 -20.60113461 20.91505498 -20.62513351 19.53575897 C-20.82433582 7.39150553 -20.82433582 7.39150553 -17.65820312 3.46411133 C-12.3932145 -0.94106469 -6.55802703 0.03626081 0 0 Z " fill="#050400" transform="translate(127.06591796875,2.704833984375)"/>
<path d="M0 0 C1.60279192 0.00015914 3.20558896 0.00585476 4.80834961 0.01586914 C5.65038437 0.01728409 6.49241913 0.01869904 7.35997009 0.02015686 C10.06024671 0.02577276 12.76044163 0.03832791 15.46069336 0.05102539 C17.28686404 0.05603834 19.11303602 0.06060161 20.93920898 0.06469727 C25.42556878 0.07574735 29.9118672 0.0930226 34.39819336 0.11352539 C34.28144435 1.46842835 34.15425913 2.82243235 34.02319336 4.17602539 C33.95358398 4.93012695 33.88397461 5.68422852 33.81225586 6.46118164 C33.30069913 9.73804032 32.30931927 12.92458471 31.39819336 16.11352539 C26.11819336 16.11352539 20.83819336 16.11352539 15.39819336 16.11352539 C15.39819336 20.73352539 15.39819336 25.35352539 15.39819336 30.11352539 C19.35819336 30.11352539 23.31819336 30.11352539 27.39819336 30.11352539 C27.39819336 35.39352539 27.39819336 40.67352539 27.39819336 46.11352539 C23.43819336 46.11352539 19.47819336 46.11352539 15.39819336 46.11352539 C15.39819336 51.06352539 15.39819336 56.01352539 15.39819336 61.11352539 C21.00819336 61.11352539 26.61819336 61.11352539 32.39819336 61.11352539 C32.39819336 66.39352539 32.39819336 71.67352539 32.39819336 77.11352539 C27.28949525 77.13643435 22.1809741 77.15636141 17.07226562 77.16845703 C15.33300168 77.17349743 13.593742 77.18032969 11.85449219 77.18896484 C9.35993399 77.20104331 6.86543163 77.20675647 4.37084961 77.21118164 C3.58855484 77.21634293 2.80626007 77.22150421 2.0002594 77.2268219 C0.13252222 77.22701765 -1.73509868 77.17552233 -3.60180664 77.11352539 C-4.60180664 76.11352539 -4.60180664 76.11352539 -4.69604492 73.14526367 C-4.68814941 71.83799316 -4.68025391 70.53072266 -4.67211914 69.18383789 C-4.6807186 67.73330515 -4.69120015 66.28278258 -4.70336914 64.83227539 C-4.71992197 62.54993219 -4.72715977 60.26983193 -4.70141602 57.98754883 C-4.60960208 48.47645992 -5.10838548 41.98675485 -11.10131836 34.11303711 C-12.60180664 32.11352539 -12.60180664 32.11352539 -12.60180664 30.11352539 C-9.96180664 30.11352539 -7.32180664 30.11352539 -4.60180664 30.11352539 C-4.60704346 29.24026611 -4.61228027 28.36700684 -4.61767578 27.46728516 C-4.63468415 24.23763267 -4.64724033 21.00800294 -4.65673828 17.77832031 C-4.66177744 16.37857311 -4.66860881 14.97883119 -4.67724609 13.57910156 C-4.68932984 11.57106762 -4.69450471 9.56299582 -4.69946289 7.55493164 C-4.70469971 6.34522705 -4.70993652 5.13552246 -4.71533203 3.88916016 C-4.54452382 -0.2870087 -4.3197295 0.13615361 0 0 Z " fill="#030200" transform="translate(552.601806640625,2.886474609375)"/>
<path d="M0 0 C16.83 0 33.66 0 51 0 C50.28257809 5.73937532 49.46550351 10.52878691 48 16 C43.38 16 38.76 16 34 16 C34.00523682 17.81234131 34.01047363 19.62468262 34.01586914 21.49194336 C34.03196724 27.4670505 34.04347249 33.44215153 34.05181217 39.41727352 C34.05704002 43.0414596 34.06413587 46.6656223 34.07543945 50.28979492 C34.08627184 53.78459975 34.09227758 57.27938204 34.09487724 60.77420235 C34.09763551 62.76239389 34.10544688 64.75057631 34.11329651 66.73875427 C34.11337204 67.93992386 34.11344757 69.14109344 34.11352539 70.37866211 C34.115746 71.44233505 34.11796661 72.506008 34.12025452 73.60191345 C34 76 34 76 33 77 C31.59651265 77.09860131 30.18819523 77.13078937 28.78125 77.1328125 C27.50701172 77.13474609 27.50701172 77.13474609 26.20703125 77.13671875 C25.31371094 77.13285156 24.42039062 77.12898438 23.5 77.125 C22.60667969 77.12886719 21.71335937 77.13273437 20.79296875 77.13671875 C19.94347656 77.13542969 19.09398437 77.13414063 18.21875 77.1328125 C17.43435547 77.13168457 16.64996094 77.13055664 15.84179688 77.12939453 C14 77 14 77 13 76 C12.90613619 74.1281906 12.88256196 72.2528194 12.88647461 70.37866211 C12.88655014 69.17749252 12.88662567 67.97632294 12.88670349 66.73875427 C12.89186478 65.4314888 12.89702606 64.12422333 12.90234375 62.77734375 C12.90420802 61.43355868 12.90563188 60.08977293 12.90663147 58.74598694 C12.91045598 55.20317723 12.92028568 51.6604083 12.93133545 48.11761475 C12.94155101 44.50484773 12.9461294 40.89207416 12.95117188 37.27929688 C12.96190802 30.1861812 12.97898364 23.09309326 13 16 C12.14535156 16.01160156 11.29070312 16.02320312 10.41015625 16.03515625 C9.30542969 16.04417969 8.20070312 16.05320312 7.0625 16.0625 C5.96035156 16.07410156 4.85820312 16.08570312 3.72265625 16.09765625 C1 16 1 16 0 15 C0 10.05 0 5.1 0 0 Z " fill="#020100" transform="translate(238,3)"/>
<path d="M0 0 C16.83 0 33.66 0 51 0 C51 5.28 51 10.56 51 16 C46.71 16 42.42 16 38 16 C38 36.13 38 56.26 38 77 C31.4 77 24.8 77 18 77 C18 56.87 18 36.74 18 16 C13.38 16 8.76 16 4 16 C2 13 2 13 0 0 Z " fill="#060500" transform="translate(494,3)"/>
<path d="M0 0 C16.83 0 33.66 0 51 0 C49 12 49 12 47 16 C42.38 16 37.76 16 33 16 C33 36.13 33 56.26 33 77 C26.4 77 19.8 77 13 77 C13 56.87 13 36.74 13 16 C8.71 16 4.42 16 0 16 C0 10.72 0 5.44 0 0 Z " fill="#0A0800" transform="translate(412,3)"/>
<path d="M0 0 C6.6 0 13.2 0 20 0 C20 25.41 20 50.82 20 77 C13.4 77 6.8 77 0 77 C0 51.59 0 26.18 0 0 Z " fill="#0A0800" transform="translate(215,3)"/>
<path d="M0 0 C6.6 0 13.2 0 20 0 C20 25.41 20 50.82 20 77 C13.4 77 6.8 77 0 77 C0 51.59 0 26.18 0 0 Z " fill="#010000" transform="translate(81,3)"/>
<path d="M0 0 C6.27 0 12.54 0 19 0 C20.03934764 3.11804292 20.29568375 5.7076779 20.53515625 8.98046875 C20.62216797 10.14384766 20.70917969 11.30722656 20.79882812 12.50585938 C20.88583984 13.72080078 20.97285156 14.93574219 21.0625 16.1875 C21.15337891 17.41404297 21.24425781 18.64058594 21.33789062 19.90429688 C21.56202158 22.93596295 21.7825812 25.96784637 22 29 C22.21934204 27.78884521 22.21934204 27.78884521 22.44311523 26.55322266 C23.10475026 22.90989962 23.77106424 19.26744781 24.4375 15.625 C24.66759766 14.35398437 24.89769531 13.08296875 25.13476562 11.7734375 C25.46831055 9.95585937 25.46831055 9.95585937 25.80859375 8.1015625 C26.11494751 6.42054443 26.11494751 6.42054443 26.42749023 4.70556641 C27 2 27 2 28 0 C34.27 0 40.54 0 47 0 C48.62524557 8.56947664 50.23156666 17.12254324 51.5703125 25.7421875 C51.8983665 28.02349134 51.8983665 28.02349134 53 30 C54.485 15.15 54.485 15.15 56 0 C62.27 0 68.54 0 75 0 C73.36889238 15.57278542 71.28036359 31.07450051 69.1541748 46.58612061 C68.6831754 50.02594027 68.21475824 53.46611157 67.74609375 56.90625 C66.83319014 63.60450427 65.91728621 70.30234451 65 77 C57.74 77 50.48 77 43 77 C42.18725407 73.10421783 41.3747936 69.20837649 40.5625 65.3125 C40.33240234 64.20970703 40.10230469 63.10691406 39.86523438 61.97070312 C39.64287109 60.90400391 39.42050781 59.83730469 39.19140625 58.73828125 C38.98717041 57.75899658 38.78293457 56.77971191 38.57250977 55.77075195 C38.03771458 53.18252569 37.51513069 50.59220381 37 48 C36.85377197 48.77190674 36.70754395 49.54381348 36.55688477 50.33911133 C35.89422068 53.83064924 35.2283985 57.32157757 34.5625 60.8125 C34.33240234 62.02744141 34.10230469 63.24238281 33.86523438 64.49414062 C33.64287109 65.65751953 33.42050781 66.82089844 33.19140625 68.01953125 C32.98717041 69.09307861 32.78293457 70.16662598 32.57250977 71.27270508 C32 74 32 74 31 77 C24.07 77 17.14 77 10 77 C8.64813361 70.91660124 7.52455024 65.10982715 6.81640625 58.9609375 C6.71623199 58.12484451 6.61605774 57.28875153 6.5128479 56.42732239 C6.19201786 53.74367878 5.87723024 51.05936511 5.5625 48.375 C5.12427632 44.69118091 4.6831674 41.00770877 4.2421875 37.32421875 C4.13510971 36.42606949 4.02803192 35.52792023 3.91770935 34.60255432 C2.95374051 26.54158931 1.91336996 18.49226169 0.81274414 10.44873047 C0.70309326 9.6342041 0.59344238 8.81967773 0.48046875 7.98046875 C0.38660889 7.29879639 0.29274902 6.61712402 0.19604492 5.91479492 C-0.00487629 3.95237271 0 1.97268099 0 0 Z M3 2 C3.57547312 14.08493543 4.94928537 25.92444144 6.58398438 37.90771484 C7.29667755 43.20523349 7.9616018 48.50861902 8.625 53.8125 C8.74794434 54.78380859 8.87088867 55.75511719 8.99755859 56.75585938 C9.75839821 62.8299831 10.41334505 68.90653676 11 75 C16.94 75 22.88 75 29 75 C30.44993115 69.92524097 31.62389114 65.05128542 32.5078125 59.87890625 C32.63815887 59.13414536 32.76850525 58.38938446 32.90280151 57.62205505 C33.31372216 55.26946712 33.71944547 52.91601827 34.125 50.5625 C34.40460327 48.95632017 34.68454792 47.35019974 34.96484375 45.74414062 C35.64717615 41.83010231 36.32485252 37.91528379 37 34 C37.19335938 35.26714844 37.38671875 36.53429688 37.5859375 37.83984375 C37.84880377 39.53908642 38.11183336 41.23830383 38.375 42.9375 C38.50132813 43.76830078 38.62765625 44.59910156 38.7578125 45.45507812 C39.62526693 51.02847282 40.71435636 56.50883051 42 62 C42.28101563 63.22847656 42.56203125 64.45695312 42.8515625 65.72265625 C43.10679688 66.82480469 43.36203125 67.92695312 43.625 69.0625 C44.07875 71.021875 44.5325 72.98125 45 75 C50.94 75 56.88 75 63 75 C63.34611328 72.34324219 63.34611328 72.34324219 63.69921875 69.6328125 C64.02801157 67.13012493 64.35749628 64.62752819 64.6875 62.125 C64.77414917 61.46650055 64.86079834 60.8080011 64.95007324 60.12954712 C66.02367545 51.99344886 67.15195696 43.86838475 68.37890625 35.75390625 C68.49324509 34.99434631 68.60758392 34.23478638 68.72538757 33.45220947 C69.28299818 29.75398819 69.84814298 26.05715226 70.42456055 22.36181641 C71.473225 15.51798551 72.27698986 8.93244055 72 2 C67.38 2 62.76 2 58 2 C57.88406494 3.21059082 57.76812988 4.42118164 57.64868164 5.66845703 C57.21654304 10.17500888 56.78165339 14.68129179 56.34594727 19.1875 C56.1580259 21.13501922 55.97084306 23.08260986 55.78442383 25.03027344 C55.51579457 27.83547928 55.24447953 30.64041458 54.97265625 33.4453125 C54.8491555 34.74409836 54.8491555 34.74409836 54.72315979 36.06912231 C54.29933762 40.41499999 53.78584894 44.70076415 53 49 C52.57656558 46.45939347 52.15313727 43.91878593 51.72973633 41.37817383 C51.36639776 39.19830599 51.00295268 37.0184559 50.6394043 34.83862305 C49.79101222 29.75089026 48.94349223 24.66302532 48.1015625 19.57421875 C47.9672583 18.76388184 47.8329541 17.95354492 47.69458008 17.11865234 C47.44635025 15.620391 47.19875556 14.12202425 46.9519043 12.62353516 C46.3622121 9.06837573 45.73310986 5.52851944 45 2 C42.52076199 1.97314905 40.0418116 1.95323453 37.5625 1.9375 C36.85544922 1.92912109 36.14839844 1.92074219 35.41992188 1.91210938 C33.61306441 1.90346412 31.80612397 1.94779989 30 2 C28.16721374 3.83278626 28.28400257 6.73062296 27.87890625 9.203125 C27.66556641 10.49476562 27.45222656 11.78640625 27.23242188 13.1171875 C27.00907612 14.49478543 26.78576901 15.87238963 26.5625 17.25 C26.34345429 18.5807877 26.12405704 19.91151759 25.90429688 21.2421875 C24.68472532 28.65701831 23.52285067 36.07777787 22.44506836 43.51464844 C22 46 22 46 21 48 C20.91435791 46.78417236 20.82871582 45.56834473 20.74047852 44.31567383 C20.42127183 39.79607261 20.09786136 35.27678027 19.77319336 30.75756836 C19.63337737 28.80322279 19.49469483 26.84879578 19.35717773 24.89428711 C19.15908423 22.08164543 18.95688915 19.26932378 18.75390625 16.45703125 C18.6934462 15.58601273 18.63298615 14.7149942 18.57069397 13.81758118 C18.51070724 12.997108 18.45072052 12.17663483 18.38891602 11.33129883 C18.33784195 10.61404129 18.28676788 9.89678375 18.23414612 9.15779114 C17.97295718 6.75078484 17.47482381 4.37411906 17 2 C12.38 2 7.76 2 3 2 Z " fill="#ECC92B" transform="translate(1,3)"/>
<path d="M0 0 C6.6 0 13.2 0 20 0 C20 10.56 20 21.12 20 32 C22.64 32 25.28 32 28 32 C28 21.44 28 10.88 28 0 C34.6 0 41.2 0 48 0 C48 25.41 48 50.82 48 77 C41.4 77 34.8 77 28 77 C28 67.76 28 58.52 28 49 C25.36 49 22.72 49 20 49 C20 58.24 20 67.48 20 77 C13.4 77 6.8 77 0 77 C0 66.44 0 55.88 0 45 C-1.32 44.34 -2.64 43.68 -4 43 C-6.27045266 41.48088071 -8.51630798 39.94594823 -10.75 38.375 C-11.35199219 37.95476563 -11.95398438 37.53453125 -12.57421875 37.1015625 C-14.05113043 36.07006863 -15.52579194 35.03535421 -17 34 C-16.67 33.34 -16.34 32.68 -16 32 C-10.72 32 -5.44 32 0 32 C0 21.44 0 10.88 0 0 Z M2 2 C2 12.89 2 23.78 2 35 C-1.96 35 -5.92 35 -10 35 C-7.40297159 37.74979479 -5.20191513 39.88878758 -1.87060547 41.72363281 C1 44 1 44 1.77294922 47.29980469 C1.78342285 48.57758789 1.79389648 49.85537109 1.8046875 51.171875 C1.81839386 51.8542926 1.83210022 52.53671021 1.84622192 53.23980713 C1.88348979 55.41054405 1.87981057 57.57898891 1.875 59.75 C1.8931296 61.22529612 1.91393315 62.70056197 1.9375 64.17578125 C1.99434106 67.78518885 1.99575132 71.38862023 2 75 C7.28 75 12.56 75 18 75 C18 65.76 18 56.52 18 47 C21.96 47 25.92 47 30 47 C30 56.24 30 65.48 30 75 C35.28 75 40.56 75 46 75 C46 50.91 46 26.82 46 2 C40.72 2 35.44 2 30 2 C30 12.56 30 23.12 30 34 C26.04 34 22.08 34 18 34 C18 23.44 18 12.88 18 2 C12.72 2 7.44 2 2 2 Z " fill="#FAD52C" transform="translate(160,3)"/>
<path d="M0 0 C1.99908057 0.00848712 3.9982025 -0.021627 5.99707031 -0.05200195 C7.26808594 -0.05135742 8.53910156 -0.05071289 9.84863281 -0.05004883 C11.00669434 -0.05190186 12.16475586 -0.05375488 13.35791016 -0.05566406 C17.3762805 0.55902635 19.51254787 1.8782936 22.63769531 4.44604492 C24.56491866 7.24538689 24.88100109 9.41464067 24.83300781 12.77416992 C24.8280127 13.49507812 24.82301758 14.21598633 24.81787109 14.95874023 C24.79966309 15.86205078 24.78145508 16.76536133 24.76269531 17.69604492 C24.72144531 20.58354492 24.68019531 23.47104492 24.63769531 26.44604492 C18.36769531 26.44604492 12.09769531 26.44604492 5.63769531 26.44604492 C5.63769531 23.14604492 5.63769531 19.84604492 5.63769531 16.44604492 C3.65769531 16.44604492 1.67769531 16.44604492 -0.36230469 16.44604492 C-0.47606867 22.16452577 -0.47606867 22.16452577 1.99755859 27.12329102 C3.83312911 28.59886484 5.70785255 29.87792666 7.70019531 31.13354492 C8.38033691 31.59631836 9.06047852 32.0590918 9.76123047 32.53588867 C11.10255413 33.44825786 12.45103978 34.35020385 13.80712891 35.24047852 C16.09121901 36.74472457 18.31099255 38.32394947 20.51269531 39.94604492 C21.10824219 40.36885742 21.70378906 40.79166992 22.31738281 41.22729492 C24.40119286 43.15081189 24.61970597 45.17091706 24.79882812 47.91040039 C24.84420771 51.04739613 24.87294891 54.18374861 24.88769531 57.32104492 C24.90832031 58.41030273 24.92894531 59.49956055 24.95019531 60.62182617 C24.95792969 62.20157227 24.95792969 62.20157227 24.96582031 63.81323242 C24.97983887 65.25351807 24.97983887 65.25351807 24.99414062 66.72290039 C24.45654007 70.83002132 22.74673945 73.31932616 19.87597656 76.23583984 C16.7729769 77.91358519 14.34125283 77.81798526 10.82519531 77.80932617 C10.17446045 77.80982468 9.52372559 77.81032318 8.85327148 77.81083679 C7.48157691 77.80850307 6.10987749 77.79881585 4.73828125 77.78222656 C2.64446526 77.75862125 0.55192324 77.76167178 -1.54199219 77.76831055 C-12.71131927 77.72168239 -12.71131927 77.72168239 -16.36230469 75.44604492 C-16.36230469 74.78604492 -16.36230469 74.12604492 -16.36230469 73.44604492 C-17.02230469 73.44604492 -17.68230469 73.44604492 -18.36230469 73.44604492 C-20.2195622 69.49696278 -20.59881958 66.39836596 -20.55761719 62.05151367 C-20.55117188 60.84946289 -20.54472656 59.64741211 -20.53808594 58.40893555 C-20.52132813 57.16305664 -20.50457031 55.91717773 -20.48730469 54.63354492 C-20.47828125 53.36833008 -20.46925781 52.10311523 -20.45996094 50.79956055 C-20.43642863 47.68152928 -20.40355014 44.56388395 -20.36230469 41.44604492 C-17.27227404 42.59433382 -14.6825787 43.74069402 -12.10058594 45.79370117 C-11.53919922 46.23391602 -10.9778125 46.67413086 -10.39941406 47.12768555 C-9.83029297 47.58336914 -9.26117188 48.03905273 -8.67480469 48.50854492 C-4.71300838 51.77162797 -4.71300838 51.77162797 -0.36230469 54.44604492 C-0.36230469 56.75604492 -0.36230469 59.06604492 -0.36230469 61.44604492 C1.61769531 61.44604492 3.59769531 61.44604492 5.63769531 61.44604492 C6.37078599 57.6806246 6.12453269 54.9969081 4.63769531 51.44604492 C-0.50456079 46.07854399 -7.2009436 42.1843133 -13.37695312 38.12036133 C-16.72615258 35.84502391 -18.90260419 34.23790562 -20.36230469 30.44604492 C-20.80033724 26.99847103 -20.73254759 23.5437274 -20.73730469 20.07104492 C-20.76179688 19.13776367 -20.78628906 18.20448242 -20.81152344 17.24291992 C-20.83608296 11.4632452 -20.3401136 7.95422835 -16.36230469 3.44604492 C-11.65810419 -0.9842082 -6.12343872 -0.03971393 0 0 Z M-15.36230469 5.44604492 C-18.37653685 9.96739316 -17.88832309 14.37083524 -17.98730469 19.69604492 C-18.0453125 20.72084961 -18.10332031 21.7456543 -18.16308594 22.80151367 C-18.28506054 28.5321758 -18.28506054 28.5321758 -15.81396484 33.53222656 C-13.75644278 35.36177739 -11.64425773 36.90744414 -9.36230469 38.44604492 C-8.02855589 39.47207951 -6.69771931 40.50191312 -5.37011719 41.53588867 C-4.07865515 42.48892542 -2.78439651 43.43818465 -1.48730469 44.38354492 C-0.4934375 45.12314453 -0.4934375 45.12314453 0.52050781 45.87768555 C3.74294502 48.52811558 3.74294502 48.52811558 7.63769531 49.44604492 C7.63769531 54.39604492 7.63769531 59.34604492 7.63769531 64.44604492 C4.00769531 64.44604492 0.37769531 64.44604492 -3.36230469 64.44604492 C-3.09417969 63.16729492 -2.82605469 61.88854492 -2.54980469 60.57104492 C-2.37361672 58.03713361 -2.37361672 58.03713361 -3.36230469 55.44604492 C-7.30752368 51.50082593 -11.61673247 48.36780468 -16.36230469 45.44604492 C-17.02230469 45.44604492 -17.68230469 45.44604492 -18.36230469 45.44604492 C-18.50823258 49.15396037 -18.59658364 52.86113218 -18.67480469 56.57104492 C-18.71669922 57.61776367 -18.75859375 58.66448242 -18.80175781 59.74291992 C-18.98797871 66.40976302 -18.98797871 66.40976302 -15.96777344 72.12573242 C-10.6653942 76.84779129 -4.8739284 75.66786062 1.95019531 75.69604492 C3.18705078 75.71666992 4.42390625 75.73729492 5.69824219 75.75854492 C6.89126953 75.76370117 8.08429688 75.76885742 9.31347656 75.77416992 C10.40571533 75.78351563 11.4979541 75.79286133 12.62329102 75.80249023 C16.08100812 75.39362436 17.89595309 74.57267384 20.63769531 72.44604492 C23.79008094 67.89923157 23.04557652 62.32347324 23.07519531 57.00854492 C23.10806641 55.97149414 23.1409375 54.93444336 23.17480469 53.8659668 C23.2630786 47.80176411 23.2630786 47.80176411 20.55175781 42.54370117 C19.59011719 41.85147461 18.62847656 41.15924805 17.63769531 40.44604492 C17.09024658 40.03136963 16.54279785 39.61669434 15.97875977 39.18945312 C14.20402071 37.85808956 12.39819408 36.5853516 10.57519531 35.32104492 C9.35488511 34.46464177 8.13482633 33.60788023 6.91503906 32.75073242 C6.34640137 32.35466797 5.77776367 31.95860352 5.19189453 31.55053711 C3.87796808 30.61679484 2.59903842 29.63409994 1.32910156 28.64135742 C-0.28933248 27.25366912 -0.28933248 27.25366912 -2.36230469 27.44604492 C-2.36230469 23.15604492 -2.36230469 18.86604492 -2.36230469 14.44604492 C0.93769531 14.44604492 4.23769531 14.44604492 7.63769531 14.44604492 C7.63769531 17.74604492 7.63769531 21.04604492 7.63769531 24.44604492 C12.58769531 24.44604492 17.53769531 24.44604492 22.63769531 24.44604492 C22.69957031 22.07416992 22.76144531 19.70229492 22.82519531 17.25854492 C22.85250732 16.52095947 22.87981934 15.78337402 22.90795898 15.0234375 C22.96331766 10.61557728 22.43018206 7.87860729 19.63769531 4.44604492 C14.56570577 1.19615659 8.5037617 2.11774861 2.70019531 2.13354492 C0.92999023 2.109375 0.92999023 2.109375 -0.87597656 2.0847168 C-2.01486328 2.08407227 -3.15375 2.08342773 -4.32714844 2.08276367 C-5.36476318 2.07978271 -6.40237793 2.07680176 -7.47143555 2.07373047 C-10.82013815 2.5050092 -12.66189865 3.44603746 -15.36230469 5.44604492 Z " fill="#F9D638" transform="translate(384.3623046875,2.553955078125)"/>
<path d="M0 0 C2.16227385 -0.0171609 4.32299711 -0.0610394 6.48486328 -0.10522461 C7.86896666 -0.11535674 9.253083 -0.12387122 10.63720703 -0.13061523 C11.89178711 -0.14519775 13.14636719 -0.15978027 14.43896484 -0.17480469 C18.61307212 0.38646637 20.71565764 1.6140289 23.93408203 4.29516602 C25.91696253 7.15545871 26.17585464 9.40399276 26.12939453 12.84204102 C26.12294922 13.68637695 26.11650391 14.53071289 26.10986328 15.40063477 C26.09310547 16.27333008 26.07634766 17.14602539 26.05908203 18.04516602 C26.05005859 18.93333008 26.04103516 19.82149414 26.03173828 20.73657227 C26.0082278 22.92304659 25.97536702 25.10896696 25.93408203 27.29516602 C22.7882678 27.32405116 19.64248734 27.34192525 16.49658203 27.35766602 C15.59875 27.36604492 14.70091797 27.37442383 13.77587891 27.38305664 C12.49487305 27.38789062 12.49487305 27.38789062 11.18798828 27.39282227 C10.00184937 27.40067749 10.00184937 27.40067749 8.79174805 27.40869141 C6.93408203 27.29516602 6.93408203 27.29516602 5.93408203 26.29516602 C5.86202692 24.60907636 5.85022136 22.92015942 5.87158203 21.23266602 C5.88060547 20.31356445 5.88962891 19.39446289 5.89892578 18.44750977 C5.91052734 17.73723633 5.92212891 17.02696289 5.93408203 16.29516602 C3.62408203 16.29516602 1.31408203 16.29516602 -1.06591797 16.29516602 C-1.06591797 31.14516602 -1.06591797 45.99516602 -1.06591797 61.29516602 C1.24408203 61.29516602 3.55408203 61.29516602 5.93408203 61.29516602 C5.93408203 53.37516602 5.93408203 45.45516602 5.93408203 37.29516602 C9.43225868 38.69443668 11.57558774 39.55661962 14.44970703 41.64282227 C15.06072266 42.08303711 15.67173828 42.52325195 16.30126953 42.97680664 C16.92259766 43.43249023 17.54392578 43.88817383 18.18408203 44.35766602 C19.13927734 45.04699219 19.13927734 45.04699219 20.11376953 45.75024414 C24.74260037 49.10368436 24.74260037 49.10368436 25.93408203 50.29516602 C26.08858275 53.2039391 26.16585118 56.07256661 26.18408203 58.98266602 C26.20470703 59.78639648 26.22533203 60.59012695 26.24658203 61.41821289 C26.27941943 66.43822995 25.8746332 70.03136683 22.93408203 74.29516602 C17.36957133 78.48184555 11.28333545 77.8174954 4.6418457 77.79614258 C2.50546488 77.79517006 0.37267943 77.83682673 -1.76318359 77.88110352 C-13.16769139 77.98017274 -13.16769139 77.98017274 -16.97607422 74.88891602 C-20.03849613 71.08807836 -20.20214471 69.21037782 -20.25878906 64.38012695 C-20.27485199 63.13833679 -20.29091492 61.89654663 -20.3074646 60.61712646 C-20.31895288 59.25460495 -20.32956128 57.89207577 -20.33935547 56.52954102 C-20.34467915 55.84381264 -20.35000282 55.15808426 -20.35548782 54.45157623 C-20.38221696 50.82018654 -20.40159029 47.18883116 -20.41601562 43.55737305 C-20.42934276 40.55608559 -20.45717084 37.55548002 -20.49804688 34.55444336 C-20.54744639 30.92753673 -20.57214558 27.30124753 -20.57924271 23.67401886 C-20.58594328 22.29453036 -20.60113461 20.91505498 -20.62513351 19.53575897 C-20.82433582 7.39150553 -20.82433582 7.39150553 -17.65820312 3.46411133 C-12.3932145 -0.94106469 -6.55802703 0.03626081 0 0 Z M-17.06591797 6.29516602 C-18.11315797 9.43688602 -18.20510798 11.6739695 -18.22705078 14.97241211 C-18.23665833 16.13727142 -18.24626587 17.30213074 -18.25616455 18.50228882 C-18.26041443 19.76167267 -18.26466431 21.02105652 -18.26904297 22.31860352 C-18.27474304 23.61206696 -18.28044312 24.9055304 -18.28631592 26.2381897 C-18.2968147 28.97691236 -18.30266472 31.71560576 -18.30615234 34.4543457 C-18.31163535 37.95707125 -18.33566338 41.45940774 -18.3641243 44.96201134 C-18.38727054 48.31003457 -18.38920148 51.65800442 -18.39404297 55.00610352 C-18.40638977 56.2614389 -18.41873657 57.51677429 -18.43145752 58.81015015 C-18.42845642 59.98131378 -18.42545532 61.15247742 -18.42236328 62.35913086 C-18.42600891 63.38710785 -18.42965454 64.41508484 -18.43341064 65.47421265 C-18.00243004 68.78251314 -17.03931805 70.62402727 -15.06591797 73.29516602 C-10.35131195 76.43823669 -5.32950038 75.70517834 0.22094727 75.72070312 C2.22915052 75.73256307 4.23701363 75.78225664 6.24462891 75.83227539 C14.02156309 76.1265926 14.02156309 76.1265926 20.78955078 72.89282227 C24.9602704 67.84085771 25.08806621 62.02981457 24.89501953 55.67407227 C24.44338222 52.09257297 23.51528979 50.37665198 20.84814453 47.94750977 C15.30554819 43.50061991 15.30554819 43.50061991 8.93408203 41.29516602 C8.93408203 48.88516602 8.93408203 56.47516602 8.93408203 64.29516602 C4.97408203 64.29516602 1.01408203 64.29516602 -3.06591797 64.29516602 C-3.06591797 47.46516602 -3.06591797 30.63516602 -3.06591797 13.29516602 C0.89408203 13.29516602 4.85408203 13.29516602 8.93408203 13.29516602 C8.93408203 17.25516602 8.93408203 21.21516602 8.93408203 25.29516602 C13.88408203 25.29516602 18.83408203 25.29516602 23.93408203 25.29516602 C23.9881577 22.71155083 24.02778903 20.12907347 24.05908203 17.54516602 C24.07583984 16.81555664 24.09259766 16.08594727 24.10986328 15.33422852 C24.23955568 9.9495319 24.23955568 9.9495319 21.93408203 5.29516602 C15.93257674 0.92360731 9.57890558 1.81925299 2.43408203 1.85766602 C1.11537109 1.83768555 -0.20333984 1.81770508 -1.56201172 1.79711914 C-3.46660156 1.79808594 -3.46660156 1.79808594 -5.40966797 1.79907227 C-6.56660156 1.79721924 -7.72353516 1.79536621 -8.91552734 1.79345703 C-12.71985722 2.39930777 -14.37026329 3.58694061 -17.06591797 6.29516602 Z " fill="#F9DC57" transform="translate(127.06591796875,2.704833984375)"/>
<path d="M0 0 C1.60279192 0.00015914 3.20558896 0.00585476 4.80834961 0.01586914 C5.65038437 0.01728409 6.49241913 0.01869904 7.35997009 0.02015686 C10.06024671 0.02577276 12.76044163 0.03832791 15.46069336 0.05102539 C17.28686404 0.05603834 19.11303602 0.06060161 20.93920898 0.06469727 C25.42556878 0.07574735 29.9118672 0.0930226 34.39819336 0.11352539 C34.28144435 1.46842835 34.15425913 2.82243235 34.02319336 4.17602539 C33.95358398 4.93012695 33.88397461 5.68422852 33.81225586 6.46118164 C33.30069913 9.73804032 32.30931927 12.92458471 31.39819336 16.11352539 C26.11819336 16.11352539 20.83819336 16.11352539 15.39819336 16.11352539 C15.39819336 20.73352539 15.39819336 25.35352539 15.39819336 30.11352539 C19.35819336 30.11352539 23.31819336 30.11352539 27.39819336 30.11352539 C27.39819336 35.39352539 27.39819336 40.67352539 27.39819336 46.11352539 C23.43819336 46.11352539 19.47819336 46.11352539 15.39819336 46.11352539 C15.39819336 51.06352539 15.39819336 56.01352539 15.39819336 61.11352539 C21.00819336 61.11352539 26.61819336 61.11352539 32.39819336 61.11352539 C32.39819336 66.39352539 32.39819336 71.67352539 32.39819336 77.11352539 C27.28949525 77.13643435 22.1809741 77.15636141 17.07226562 77.16845703 C15.33300168 77.17349743 13.593742 77.18032969 11.85449219 77.18896484 C9.35993399 77.20104331 6.86543163 77.20675647 4.37084961 77.21118164 C3.58855484 77.21634293 2.80626007 77.22150421 2.0002594 77.2268219 C0.13252222 77.22701765 -1.73509868 77.17552233 -3.60180664 77.11352539 C-4.60180664 76.11352539 -4.60180664 76.11352539 -4.69604492 73.14526367 C-4.68814941 71.83799316 -4.68025391 70.53072266 -4.67211914 69.18383789 C-4.6807186 67.73330515 -4.69120015 66.28278258 -4.70336914 64.83227539 C-4.71992197 62.54993219 -4.72715977 60.26983193 -4.70141602 57.98754883 C-4.60960208 48.47645992 -5.10838548 41.98675485 -11.10131836 34.11303711 C-12.60180664 32.11352539 -12.60180664 32.11352539 -12.60180664 30.11352539 C-9.96180664 30.11352539 -7.32180664 30.11352539 -4.60180664 30.11352539 C-4.60704346 29.24026611 -4.61228027 28.36700684 -4.61767578 27.46728516 C-4.63468415 24.23763267 -4.64724033 21.00800294 -4.65673828 17.77832031 C-4.66177744 16.37857311 -4.66860881 14.97883119 -4.67724609 13.57910156 C-4.68932984 11.57106762 -4.69450471 9.56299582 -4.69946289 7.55493164 C-4.70469971 6.34522705 -4.70993652 5.13552246 -4.71533203 3.88916016 C-4.54452382 -0.2870087 -4.3197295 0.13615361 0 0 Z M-1.60180664 2.11352539 C-1.60180664 12.34352539 -1.60180664 22.57352539 -1.60180664 33.11352539 C-3.91180664 33.11352539 -6.22180664 33.11352539 -8.60180664 33.11352539 C-7.5509787 36.09087121 -6.47042298 38.2886512 -4.56176758 40.83276367 C-2.25994354 44.68576709 -2.06611072 47.02312873 -1.99243164 51.48071289 C-1.96181641 52.72449707 -1.93120117 53.96828125 -1.8996582 55.24975586 C-1.88386719 56.8135498 -1.86807617 58.37734375 -1.85180664 59.98852539 C-1.76930664 64.97977539 -1.68680664 69.97102539 -1.60180664 75.11352539 C8.95819336 75.11352539 19.51819336 75.11352539 30.39819336 75.11352539 C30.39819336 71.48352539 30.39819336 67.85352539 30.39819336 64.11352539 C24.78819336 64.11352539 19.17819336 64.11352539 13.39819336 64.11352539 C13.39819336 57.51352539 13.39819336 50.91352539 13.39819336 44.11352539 C17.35819336 44.11352539 21.31819336 44.11352539 25.39819336 44.11352539 C25.39819336 40.15352539 25.39819336 36.19352539 25.39819336 32.11352539 C21.43819336 32.11352539 17.47819336 32.11352539 13.39819336 32.11352539 C13.39819336 25.84352539 13.39819336 19.57352539 13.39819336 13.11352539 C19.00819336 13.11352539 24.61819336 13.11352539 30.39819336 13.11352539 C31.68115159 8.66887674 31.68115159 8.66887674 31.39819336 2.11352539 C20.50819336 2.11352539 9.61819336 2.11352539 -1.60180664 2.11352539 Z " fill="#E7C321" transform="translate(552.601806640625,2.886474609375)"/>
<path d="M0 0 C16.83 0 33.66 0 51 0 C50.28257809 5.73937532 49.46550351 10.52878691 48 16 C43.38 16 38.76 16 34 16 C34.00523682 17.81234131 34.01047363 19.62468262 34.01586914 21.49194336 C34.03196724 27.4670505 34.04347249 33.44215153 34.05181217 39.41727352 C34.05704002 43.0414596 34.06413587 46.6656223 34.07543945 50.28979492 C34.08627184 53.78459975 34.09227758 57.27938204 34.09487724 60.77420235 C34.09763551 62.76239389 34.10544688 64.75057631 34.11329651 66.73875427 C34.11337204 67.93992386 34.11344757 69.14109344 34.11352539 70.37866211 C34.115746 71.44233505 34.11796661 72.506008 34.12025452 73.60191345 C34 76 34 76 33 77 C31.59651265 77.09860131 30.18819523 77.13078937 28.78125 77.1328125 C27.50701172 77.13474609 27.50701172 77.13474609 26.20703125 77.13671875 C25.31371094 77.13285156 24.42039062 77.12898438 23.5 77.125 C22.60667969 77.12886719 21.71335937 77.13273437 20.79296875 77.13671875 C19.94347656 77.13542969 19.09398437 77.13414063 18.21875 77.1328125 C17.43435547 77.13168457 16.64996094 77.13055664 15.84179688 77.12939453 C14 77 14 77 13 76 C12.90613619 74.1281906 12.88256196 72.2528194 12.88647461 70.37866211 C12.88655014 69.17749252 12.88662567 67.97632294 12.88670349 66.73875427 C12.89186478 65.4314888 12.89702606 64.12422333 12.90234375 62.77734375 C12.90420802 61.43355868 12.90563188 60.08977293 12.90663147 58.74598694 C12.91045598 55.20317723 12.92028568 51.6604083 12.93133545 48.11761475 C12.94155101 44.50484773 12.9461294 40.89207416 12.95117188 37.27929688 C12.96190802 30.1861812 12.97898364 23.09309326 13 16 C12.14535156 16.01160156 11.29070312 16.02320312 10.41015625 16.03515625 C9.30542969 16.04417969 8.20070312 16.05320312 7.0625 16.0625 C5.96035156 16.07410156 4.85820312 16.08570312 3.72265625 16.09765625 C1 16 1 16 0 15 C0 10.05 0 5.1 0 0 Z M2 2 C2 5.63 2 9.26 2 13 C6.62 13 11.24 13 16 13 C16 33.46 16 53.92 16 75 C20.95 75 25.9 75 31 75 C31 54.54 31 34.08 31 13 C36.28 13 41.56 13 47 13 C47.33 9.37 47.66 5.74 48 2 C32.82 2 17.64 2 2 2 Z " fill="#EDCE42" transform="translate(238,3)"/>
<path d="M0 0 C7.59 0 15.18 0 23 0 C24.95885561 9.59596131 26.91524414 19.19241646 28.86727142 28.78976917 C29.77373484 33.24598722 30.68128567 37.70197807 31.59130859 42.1574707 C32.46918243 46.45576349 33.34421682 50.75462531 34.2172699 55.05389977 C34.55116824 56.69558061 34.88609619 58.33705238 35.22206116 59.97831154 C35.69176855 62.27381753 36.15783843 64.57003375 36.62304688 66.86645508 C36.83343849 67.88820831 36.83343849 67.88820831 37.04808044 68.93060303 C37.60265995 71.68464951 38 74.1808621 38 77 C31.4 77 24.8 77 18 77 C16 69 16 69 16 65 C12.7 65 9.4 65 6 65 C6.020625 66.2375 6.04125 67.475 6.0625 68.75 C6.11433318 71.8599909 5.782223 73.87110801 5 77 C-1.6 77 -8.2 77 -15 77 C-14 68 -14 68 -13.0625 64 C-12.52907045 60.19740934 -13.79660573 58.29832994 -15.9375 55.1875 C-16.50339844 54.45917969 -17.06929688 53.73085938 -17.65234375 52.98046875 C-19 51 -19 51 -19 48 C-15.7 48 -12.4 48 -9 48 C-8.87310791 46.70908447 -8.74621582 45.41816895 -8.61547852 44.08813477 C-8.06918234 39.18725708 -7.16769088 34.41237384 -6.15234375 29.58984375 C-5.97619034 28.73693253 -5.80003693 27.8840213 -5.61854553 27.00526428 C-5.06204787 24.31519376 -4.49987789 21.62634667 -3.9375 18.9375 C-3.55626291 17.09968769 -3.17540005 15.2617977 -2.79492188 13.42382812 C-1.86829294 8.9481498 -0.93398133 4.47417479 0 0 Z M2 2 C-0.13608231 11.75429519 -0.13608231 11.75429519 -2 21.5625 C-2.70754823 25.60563272 -3.59774663 29.57298848 -4.5625 33.5625 C-5.86388015 39.05721618 -6.5800145 44.37219424 -7 50 C-9.97 50 -12.94 50 -16 50 C-14.7315625 51.7325 -14.7315625 51.7325 -13.4375 53.5 C-9.48054887 60.42466448 -11.16407126 67.34803692 -12 75 C-7.05 75 -2.1 75 3 75 C3.33 71.04 3.66 67.08 4 63 C10.93 63.495 10.93 63.495 18 64 C18.22786458 66.57161458 18.45572917 69.14322917 18.68359375 71.71484375 C18.76044976 73.96159732 18.76044976 73.96159732 20 75 C22.53049402 75.07313567 25.03304837 75.09247527 27.5625 75.0625 C28.62887695 75.05573242 28.62887695 75.05573242 29.71679688 75.04882812 C31.47790013 75.03700864 33.23896036 75.01907263 35 75 C33.68943949 66.07685593 32.15196065 57.22029482 30.43359375 48.3671875 C30.19463882 47.12752228 29.9556839 45.88785706 29.70948792 44.61062622 C29.08208593 41.35978915 28.45236455 38.10941219 27.82177734 34.85919189 C27.30600739 32.1960462 26.79359611 29.53225864 26.28117275 26.86846733 C25.6673447 23.68014777 25.05035717 20.49244032 24.43359375 17.3046875 C24.20441757 16.11414764 23.97524139 14.92360779 23.73912048 13.69699097 C23.52542313 12.59799469 23.31172577 11.49899841 23.09155273 10.36669922 C22.90439194 9.39997284 22.71723114 8.43324646 22.5243988 7.43722534 C22.02052949 4.87892389 22.02052949 4.87892389 21 2 C14.73 2 8.46 2 2 2 Z " fill="#EAC930" transform="translate(294,3)"/>
<path d="M0 0 C0.91644287 0.00523682 1.83288574 0.01047363 2.77709961 0.01586914 C4.26113281 0.02070312 4.26113281 0.02070312 5.77514648 0.02563477 C6.81606445 0.03401367 7.85698242 0.04239258 8.92944336 0.05102539 C10.49662109 0.05779297 10.49662109 0.05779297 12.09545898 0.06469727 C14.68600996 0.07652627 17.27644895 0.0930085 19.86694336 0.11352539 C23.47641165 16.88261129 27.04199259 33.65108458 30.22192383 50.50805664 C31.49143565 57.22736309 32.85917471 63.9083473 34.38647461 70.57446289 C34.86694336 73.11352539 34.86694336 73.11352539 34.86694336 77.11352539 C28.26694336 77.11352539 21.66694336 77.11352539 14.86694336 77.11352539 C14.20694336 73.15352539 13.54694336 69.19352539 12.86694336 65.11352539 C9.89694336 65.11352539 6.92694336 65.11352539 3.86694336 65.11352539 C3.77606445 66.1615332 3.77606445 66.1615332 3.68334961 67.23071289 C3.59956055 68.14079102 3.51577148 69.05086914 3.42944336 69.98852539 C3.34823242 70.89344727 3.26702148 71.79836914 3.18334961 72.73071289 C2.86694336 75.11352539 2.86694336 75.11352539 1.86694336 77.11352539 C-4.73305664 77.11352539 -11.33305664 77.11352539 -18.13305664 77.11352539 C-17.61222331 74.18383789 -17.09138997 71.25415039 -16.57055664 68.32446289 C-15.78126404 62.53161901 -15.55892298 59.16213077 -19.13305664 54.36352539 C-22.13305664 50.28019206 -22.13305664 50.28019206 -22.13305664 48.11352539 C-18.83305664 48.11352539 -15.53305664 48.11352539 -12.13305664 48.11352539 C-11.74827148 45.70620117 -11.74827148 45.70620117 -11.35571289 43.25024414 C-10.07507198 35.57204027 -8.57315947 27.94185275 -7.04638672 20.30957031 C-6.5639278 17.89281998 -6.08768078 15.4748932 -5.61157227 13.05688477 C-5.30530636 11.51970068 -4.99867961 9.98258844 -4.69165039 8.44555664 C-4.54996933 7.7227803 -4.40828827 7.00000397 -4.26231384 6.25532532 C-3.03219465 0.16137925 -3.03219465 0.16137925 0 0 Z M-1.13305664 2.11352539 C-2.09749887 6.69849405 -3.05905428 11.28389925 -4.01391602 15.87084961 C-4.338181 17.4245659 -4.66397654 18.97796371 -4.99145508 20.53100586 C-7.06304082 30.36150631 -8.86282149 40.14167938 -10.13305664 50.11352539 C-12.77305664 50.11352539 -15.41305664 50.11352539 -18.13305664 50.11352539 C-17.00853937 53.08546389 -15.91011873 55.44793226 -14.13305664 58.11352539 C-13.99780273 60.01464844 -13.99780273 60.01464844 -14.15649414 62.12524414 C-14.20805664 62.88256836 -14.25961914 63.63989258 -14.31274414 64.42016602 C-14.37719727 65.20584961 -14.44165039 65.9915332 -14.50805664 66.80102539 C-14.56477539 67.59831055 -14.62149414 68.3955957 -14.67993164 69.21704102 C-14.82121692 71.1832612 -14.9758557 73.14851363 -15.13305664 75.11352539 C-12.65381863 75.14037634 -10.17486824 75.16029087 -7.69555664 75.17602539 C-6.98850586 75.1844043 -6.28145508 75.1927832 -5.55297852 75.20141602 C-3.74612105 75.21006127 -1.93918061 75.16572551 -0.13305664 75.11352539 C1.60650994 73.37395881 1.23884721 70.91986319 1.42944336 68.55102539 C1.57381836 66.75665039 1.71819336 64.96227539 1.86694336 63.11352539 C6.48694336 63.11352539 11.10694336 63.11352539 15.86694336 63.11352539 C15.83439128 65.06665039 15.80183919 67.01977539 15.76928711 68.97290039 C15.8116408 71.45351715 15.8116408 71.45351715 16.86694336 75.11352539 C21.81694336 75.11352539 26.76694336 75.11352539 31.86694336 75.11352539 C31.02200855 67.3401251 29.58829918 59.67510778 28.17944336 51.98852539 C27.98410507 50.91802444 27.98410507 50.91802444 27.78482056 49.82589722 C25.79336645 38.9257131 23.71585454 28.04375658 21.55444336 17.17602539 C21.17316284 15.24895752 21.17316284 15.24895752 20.78417969 13.28295898 C20.54723389 12.10427246 20.31028809 10.92558594 20.06616211 9.71118164 C19.85822021 8.67485596 19.65027832 7.63853027 19.43603516 6.57080078 C18.97086085 4.12646137 18.97086085 4.12646137 17.86694336 2.11352539 C11.59694336 2.11352539 5.32694336 2.11352539 -1.13305664 2.11352539 Z " fill="#F2D033" transform="translate(470.133056640625,2.886474609375)"/>
<path d="M0 0 C16.83 0 33.66 0 51 0 C51 5.28 51 10.56 51 16 C46.71 16 42.42 16 38 16 C38 36.13 38 56.26 38 77 C31.4 77 24.8 77 18 77 C18 56.87 18 36.74 18 16 C13.38 16 8.76 16 4 16 C2 13 2 13 0 0 Z M3 2 C3.81135156 8.53695382 3.81135156 8.53695382 5 13 C9.95 13 14.9 13 20 13 C20 33.46 20 53.92 20 75 C25.28 75 30.56 75 36 75 C36 54.87 36 34.74 36 14 C40.29 14 44.58 14 49 14 C49 10.04 49 6.08 49 2 C33.82 2 18.64 2 3 2 Z " fill="#F9D532" transform="translate(494,3)"/>
<path d="M0 0 C16.83 0 33.66 0 51 0 C49 12 49 12 47 16 C42.38 16 37.76 16 33 16 C33 36.13 33 56.26 33 77 C26.4 77 19.8 77 13 77 C13 56.87 13 36.74 13 16 C8.71 16 4.42 16 0 16 C0 10.72 0 5.44 0 0 Z M2 2 C2 5.96 2 9.92 2 14 C6.29 14 10.58 14 15 14 C15 34.13 15 54.26 15 75 C20.28 75 25.56 75 31 75 C31 54.54 31 34.08 31 13 C35.95 13 40.9 13 46 13 C46.66 9.37 47.32 5.74 48 2 C32.82 2 17.64 2 2 2 Z " fill="#FBD839" transform="translate(412,3)"/>
<path d="M0 0 C6.6 0 13.2 0 20 0 C20 25.41 20 50.82 20 77 C13.4 77 6.8 77 0 77 C0 51.59 0 26.18 0 0 Z M2 2 C2 26.09 2 50.18 2 75 C6.95 75 11.9 75 17 75 C17 50.91 17 26.82 17 2 C12.05 2 7.1 2 2 2 Z " fill="#E8C525" transform="translate(81,3)"/>
<path d="M0 0 C6.6 0 13.2 0 20 0 C20 25.41 20 50.82 20 77 C13.4 77 6.8 77 0 77 C0 51.59 0 26.18 0 0 Z M2 2 C2 26.09 2 50.18 2 75 C7.28 75 12.56 75 18 75 C18 50.91 18 26.82 18 2 C12.72 2 7.44 2 2 2 Z " fill="#FAD630" transform="translate(215,3)"/>
<path d="M0 0 C15.84 0 31.68 0 48 0 C48 1.65 48 3.3 48 5 C47.505 3.02 47.505 3.02 47 1 C31.82 1 16.64 1 1 1 C1 4.63 1 8.26 1 12 C5.62 12 10.24 12 15 12 C15 32.46 15 52.92 15 74 C19.62 74 24.24 74 29 74 C30.485 74.99 30.485 74.99 32 76 C28.85418577 76.02888514 25.70840531 76.04675923 22.5625 76.0625 C21.21575195 76.07506836 21.21575195 76.07506836 19.84179688 76.08789062 C18.56079102 76.09272461 18.56079102 76.09272461 17.25390625 76.09765625 C16.46314697 76.10289307 15.6723877 76.10812988 14.85766602 76.11352539 C13 76 13 76 12 75 C11.90613619 73.1281906 11.88256196 71.2528194 11.88647461 69.37866211 C11.88655014 68.17749252 11.88662567 66.97632294 11.88670349 65.73875427 C11.89186478 64.4314888 11.89702606 63.12422333 11.90234375 61.77734375 C11.90420802 60.43355868 11.90563188 59.08977293 11.90663147 57.74598694 C11.91045598 54.20317723 11.92028568 50.6604083 11.93133545 47.11761475 C11.94155101 43.50484773 11.9461294 39.89207416 11.95117188 36.27929688 C11.96190802 29.18617961 11.97950428 22.09309675 12 15 C8.04 15 4.08 15 0 15 C0 10.05 0 5.1 0 0 Z " fill="#E4C433" transform="translate(239,4)"/>
<path d="M0 0 C1.92295898 0.0009668 1.92295898 0.0009668 3.88476562 0.00195312 C4.88141235 0.01440063 4.88141235 0.01440063 5.89819336 0.02709961 C7.93057764 0.05074616 9.96165319 0.04764891 11.99414062 0.04101562 C21.97053908 0.09624481 21.97053908 0.09624481 25.37109375 2.36328125 C25.37109375 3.02328125 25.37109375 3.68328125 25.37109375 4.36328125 C24.83282959 4.2024707 24.29456543 4.04166016 23.73999023 3.87597656 C18.74300631 2.79448978 13.52538314 3.13545562 8.43359375 3.11328125 C7.25345703 3.09265625 6.07332031 3.07203125 4.85742188 3.05078125 C3.1490918 3.04304687 3.1490918 3.04304687 1.40625 3.03515625 C0.36863525 3.02581055 -0.66897949 3.01646484 -1.73803711 3.00683594 C-5.06958689 3.41761735 -6.93872326 4.38809606 -9.62890625 6.36328125 C-11.61877463 10.34301801 -11.03248191 15.23668748 -11.12890625 19.61328125 C-11.21011719 21.16982422 -11.21011719 21.16982422 -11.29296875 22.7578125 C-11.47204077 28.294239 -11.47204077 28.294239 -9.34936523 33.24438477 C-7.53421486 34.86689625 -5.71783961 36.1134133 -3.62890625 37.36328125 C-2.91299316 37.8030127 -2.19708008 38.24274414 -1.45947266 38.69580078 C0.03568004 39.60047769 1.53335294 40.50100185 3.03344727 41.39746094 C12.5699587 47.27962294 12.5699587 47.27962294 14.14550781 51.37744141 C14.83623734 55.80945072 14.28739063 59.97942949 13.37109375 64.36328125 C9.74109375 64.36328125 6.11109375 64.36328125 2.37109375 64.36328125 C2.37109375 61.39328125 2.37109375 58.42328125 2.37109375 55.36328125 C3.03109375 55.69328125 3.69109375 56.02328125 4.37109375 56.36328125 C4.37109375 58.34328125 4.37109375 60.32328125 4.37109375 62.36328125 C6.68109375 62.36328125 8.99109375 62.36328125 11.37109375 62.36328125 C12.07822257 58.28121944 11.88243641 55.24020373 10.37109375 51.36328125 C5.83399361 46.48464729 -0.08942482 42.99041673 -5.62890625 39.36328125 C-13.03357652 34.50699483 -13.03357652 34.50699483 -14.62890625 30.36328125 C-15.06693881 26.91570736 -14.99914915 23.46096373 -15.00390625 19.98828125 C-15.02839844 19.055 -15.05289062 18.12171875 -15.078125 17.16015625 C-15.10268452 11.38048153 -14.60671516 7.87146468 -10.62890625 3.36328125 C-7.20034227 0.11330347 -4.65206272 -0.01180322 0 0 Z " fill="#DCBF3E" transform="translate(378.62890625,2.63671875)"/>
<path d="M0 0 C1.60279192 0.00015914 3.20558896 0.00585476 4.80834961 0.01586914 C5.65038437 0.01728409 6.49241913 0.01869904 7.35997009 0.02015686 C10.06024671 0.02577276 12.76044163 0.03832791 15.46069336 0.05102539 C17.28686404 0.05603834 19.11303602 0.06060161 20.93920898 0.06469727 C25.42556878 0.07574735 29.9118672 0.0930226 34.39819336 0.11352539 C34.39819336 1.76352539 34.39819336 3.41352539 34.39819336 5.11352539 C33.90319336 3.13352539 33.90319336 3.13352539 33.39819336 1.11352539 C21.51819336 1.11352539 9.63819336 1.11352539 -2.60180664 1.11352539 C-2.60180664 11.34352539 -2.60180664 21.57352539 -2.60180664 32.11352539 C-4.91180664 32.11352539 -7.22180664 32.11352539 -9.60180664 32.11352539 C-9.10156982 32.63092285 -8.60133301 33.14832031 -8.0859375 33.68139648 C-1.13142342 41.96433989 -1.77648945 49.490542 -2.16430664 59.73852539 C-2.30868164 65.14227539 -2.45305664 70.54602539 -2.60180664 76.11352539 C8.61819336 76.11352539 19.83819336 76.11352539 31.39819336 76.11352539 C31.39819336 71.49352539 31.39819336 66.87352539 31.39819336 62.11352539 C26.11819336 62.11352539 20.83819336 62.11352539 15.39819336 62.11352539 C15.39819336 61.78352539 15.39819336 61.45352539 15.39819336 61.11352539 C21.00819336 61.11352539 26.61819336 61.11352539 32.39819336 61.11352539 C32.39819336 66.39352539 32.39819336 71.67352539 32.39819336 77.11352539 C27.28949525 77.13643435 22.1809741 77.15636141 17.07226562 77.16845703 C15.33300168 77.17349743 13.593742 77.18032969 11.85449219 77.18896484 C9.35993399 77.20104331 6.86543163 77.20675647 4.37084961 77.21118164 C3.58855484 77.21634293 2.80626007 77.22150421 2.0002594 77.2268219 C0.13252222 77.22701765 -1.73509868 77.17552233 -3.60180664 77.11352539 C-4.60180664 76.11352539 -4.60180664 76.11352539 -4.69604492 73.14526367 C-4.68814941 71.83799316 -4.68025391 70.53072266 -4.67211914 69.18383789 C-4.6807186 67.73330515 -4.69120015 66.28278258 -4.70336914 64.83227539 C-4.71992197 62.54993219 -4.72715977 60.26983193 -4.70141602 57.98754883 C-4.60960208 48.47645992 -5.10838548 41.98675485 -11.10131836 34.11303711 C-12.60180664 32.11352539 -12.60180664 32.11352539 -12.60180664 30.11352539 C-9.96180664 30.11352539 -7.32180664 30.11352539 -4.60180664 30.11352539 C-4.60704346 29.24026611 -4.61228027 28.36700684 -4.61767578 27.46728516 C-4.63468415 24.23763267 -4.64724033 21.00800294 -4.65673828 17.77832031 C-4.66177744 16.37857311 -4.66860881 14.97883119 -4.67724609 13.57910156 C-4.68932984 11.57106762 -4.69450471 9.56299582 -4.69946289 7.55493164 C-4.70469971 6.34522705 -4.70993652 5.13552246 -4.71533203 3.88916016 C-4.54452382 -0.2870087 -4.3197295 0.13615361 0 0 Z " fill="#FBDF5E" transform="translate(552.601806640625,2.886474609375)"/>
<path d="M0 0 C2.16227385 -0.0171609 4.32299711 -0.0610394 6.48486328 -0.10522461 C7.86896666 -0.11535674 9.253083 -0.12387122 10.63720703 -0.13061523 C11.89178711 -0.14519775 13.14636719 -0.15978027 14.43896484 -0.17480469 C18.61307212 0.38646637 20.71565764 1.6140289 23.93408203 4.29516602 C25.91696253 7.15545871 26.17585464 9.40399276 26.12939453 12.84204102 C26.12439941 13.60355469 26.1194043 14.36506836 26.11425781 15.1496582 C26.0960498 16.10517578 26.0778418 17.06069336 26.05908203 18.04516602 C26.01783203 21.09766602 25.97658203 24.15016602 25.93408203 27.29516602 C19.66408203 27.29516602 13.39408203 27.29516602 6.93408203 27.29516602 C6.93408203 26.96516602 6.93408203 26.63516602 6.93408203 26.29516602 C12.87408203 26.29516602 18.81408203 26.29516602 24.93408203 26.29516602 C24.43908203 25.30516602 24.43908203 25.30516602 23.93408203 24.29516602 C23.72649542 21.83295818 23.56020445 19.38655999 23.43408203 16.92016602 C23.41122561 10.93836217 23.41122561 10.93836217 21.93408203 5.29516602 C15.82811301 2.20692119 9.17775775 2.88715625 2.49658203 2.85766602 C0.53108398 2.80835938 0.53108398 2.80835938 -1.47412109 2.75805664 C-2.740625 2.7509668 -4.00712891 2.74387695 -5.31201172 2.73657227 C-6.4637085 2.72311768 -7.61540527 2.70966309 -8.80200195 2.69580078 C-12.07981838 3.2977186 -14.44570798 4.02203635 -16.91426086 6.33589172 C-19.68454233 11.0488755 -18.90936478 17.03534117 -18.87060547 22.34594727 C-18.8818616 23.7288799 -18.89574489 25.11179343 -18.91213989 26.49467468 C-18.948132 30.12312957 -18.9485577 33.75074113 -18.94146729 37.3793335 C-18.94055343 41.08645654 -18.97342617 44.7932651 -19.00341797 48.50024414 C-19.05723654 55.76532998 -19.07346753 63.0298572 -19.06591797 70.29516602 C-19.39591797 70.29516602 -19.72591797 70.29516602 -20.06591797 70.29516602 C-20.18197121 62.18470268 -20.2707126 54.07458851 -20.32497883 45.96349907 C-20.35102939 42.19680242 -20.38634197 38.43067545 -20.44311523 34.66430664 C-20.49760075 31.02677978 -20.52737265 27.38979946 -20.54030418 23.7518959 C-20.54951475 22.36680628 -20.56750156 20.98174526 -20.59456825 19.5968895 C-20.82369942 7.38336071 -20.82369942 7.38336071 -17.66040039 3.4597168 C-12.39011043 -0.9372335 -6.55823986 0.03626199 0 0 Z " fill="#F8D73C" transform="translate(127.06591796875,2.704833984375)"/>
<path d="M0 0 C0.33 0 0.66 0 1 0 C1 1.98 1 3.96 1 6 C-1.31 6.33 -3.62 6.66 -6 7 C-5.62746094 7.44988281 -5.25492187 7.89976563 -4.87109375 8.36328125 C-1.04885979 13.56026966 -0.60931398 17.05138733 -1.5078125 23.38671875 C-1.98645508 25.92808292 -2.49283478 28.4641739 -3 31 C1.95 31 6.9 31 12 31 C12.33 27.04 12.66 23.08 13 19 C17.62 19 22.24 19 27 19 C27 22.96 27 26.92 27 31 C26.67 31 26.34 31 26 31 C25.67 27.7 25.34 24.4 25 21 C21.7 21 18.4 21 15 21 C15.020625 22.2375 15.04125 23.475 15.0625 24.75 C15.11433318 27.8599909 14.782223 29.87110801 14 33 C7.4 33 0.8 33 -6 33 C-5 24 -5 24 -4.0625 20 C-3.52907045 16.19740934 -4.79660573 14.29832994 -6.9375 11.1875 C-7.50339844 10.45917969 -8.06929688 9.73085938 -8.65234375 8.98046875 C-10 7 -10 7 -10 4 C-6.7 4 -3.4 4 0 4 C0 2.68 0 1.36 0 0 Z " fill="#EFCB28" transform="translate(285,47)"/>
<path d="M0 0 C5.61 0 11.22 0 17 0 C17 0.33 17 0.66 17 1 C11.72 1 6.44 1 1 1 C1 11.89 1 22.78 1 34 C-4.445 34.495 -4.445 34.495 -10 35 C-9.21391357 35.391875 -8.42782715 35.78375 -7.61791992 36.1875 C-4.19974645 38.20230904 -1.65621384 40.03791911 1 43 C2.36961816 48.38122164 2.04979423 53.52270777 1.6875 59 C1.63224033 60.45684573 1.5820645 61.91389365 1.53710938 63.37109375 C1.42598065 66.92317205 1.21139127 70.44691847 1 74 C6.28 74 11.56 74 17 74 C17 65.42 17 56.84 17 48 C17.33 48 17.66 48 18 48 C18 56.91 18 65.82 18 75 C12.06 75 6.12 75 0 75 C0 64.77 0 54.54 0 44 C-1.32 43.67 -2.64 43.34 -4 43 C-6.15851747 41.57124038 -8.19939799 40.12988598 -10.25 38.5625 C-10.80429688 38.15451172 -11.35859375 37.74652344 -11.9296875 37.32617188 C-13.32810909 36.27046691 -14.66950652 35.14012413 -16 34 C-16 33.34 -16 32.68 -16 32 C-10.72 32 -5.44 32 0 32 C0 21.44 0 10.88 0 0 Z " fill="#F3C701" transform="translate(161,4)"/>
<path d="M0 0 C3.96 0 7.92 0 12 0 C12 3.96 12 7.92 12 12 C19.92 11.505 19.92 11.505 28 11 C28 11.66 28 12.32 28 13 C22.06 13 16.12 13 10 13 C10 9.37 10 5.74 10 2 C7.03 2 4.06 2 1 2 C1 17.51 1 33.02 1 49 C4.3 49 7.6 49 11 49 C11 41.74 11 34.48 11 27 C11.66 27.33 12.32 27.66 13 28 C12.67 35.59 12.34 43.18 12 51 C8.04 51 4.08 51 0 51 C0 34.17 0 17.34 0 0 Z " fill="#DEB602" transform="translate(124,16)"/>
<path d="M0 0 C0.33 0 0.66 0 1 0 C1 10.23 1 20.46 1 31 C6.94 31 12.88 31 19 31 C18.67 21.43 18.34 11.86 18 2 C21.96 2 25.92 2 30 2 C30.04939662 5.95096978 30.08571755 9.9018203 30.10986328 13.85302734 C30.12488107 15.8591136 30.15028981 17.86511324 30.17578125 19.87109375 C30.18222656 21.12792969 30.18867188 22.38476562 30.1953125 23.6796875 C30.20578613 24.84226074 30.21625977 26.00483398 30.22705078 27.20263672 C30 30 30 30 28 32 C28 22.76 28 13.52 28 4 C25.36 4 22.72 4 20 4 C20 13.24 20 22.48 20 32 C13.4 32 6.8 32 0 32 C0 21.44 0 10.88 0 0 Z " fill="#FBDD50" transform="translate(160,48)"/>
<path d="M0 0 C2.77622524 2.77622524 2.5878203 4.93927324 3.0625 8.8125 C3.14483887 9.47451416 3.22717773 10.13652832 3.31201172 10.81860352 C4.07959326 17.19561019 4.58928289 23.59065143 5 30 C2.03 30 -0.94 30 -4 30 C-2.07289294 8.88382688 -2.07289294 8.88382688 0 0 Z " fill="#E6BF0C" transform="translate(478,23)"/>
<path d="M0 0 C0.33 0 0.66 0 1 0 C1 10.23 1 20.46 1 31 C11.56 31 22.12 31 33 31 C33 27.37 33 23.74 33 20 C27.39 20 21.78 20 16 20 C16 13.4 16 6.8 16 0 C16.66 0 17.32 0 18 0 C18 5.94 18 11.88 18 18 C23.28 18 28.56 18 34 18 C34 22.62 34 27.24 34 32 C22.78 32 11.56 32 0 32 C0 21.44 0 10.88 0 0 Z " fill="#DEB601" transform="translate(550,47)"/>
<path d="M0 0 C0.66 0 1.32 0 2 0 C3.39508721 3.97424313 4.46271516 7.85655128 5.25390625 11.9921875 C5.46853516 13.10980469 5.68316406 14.22742188 5.90429688 15.37890625 C6.12150391 16.53261719 6.33871094 17.68632813 6.5625 18.875 C6.78357422 20.02097656 7.00464844 21.16695312 7.23242188 22.34765625 C8.35514633 28.2428076 9.25367382 34.0293906 10 40 C3.4 40 -3.2 40 -10 40 C-10 35.38 -10 30.76 -10 26 C-9.67 26 -9.34 26 -9 26 C-8.67 29.96 -8.34 33.92 -8 38 C-3.05 38 1.9 38 7 38 C6.66226562 36.34613281 6.32453125 34.69226563 5.9765625 32.98828125 C1.37024702 10.28707834 1.37024702 10.28707834 0 0 Z " fill="#EDC81D" transform="translate(495,40)"/>
<path d="M0 0 C5.28 0 10.56 0 16 0 C16 0.33 16 0.66 16 1 C11.05 1 6.1 1 1 1 C1.02707031 3.18085205 1.02707031 3.18085205 1.0546875 5.40576172 C1.05289999 10.49023164 0.67637794 15.45713216 0.125 20.5078125 C0.03621582 21.35930878 -0.05256836 22.21080505 -0.14404297 23.08810425 C-0.42453564 25.76760412 -0.71213216 28.44628352 -1 31.125 C-1.19318192 32.95828349 -1.38589435 34.79161652 -1.578125 36.625 C-2.04666733 41.08392341 -2.52157545 45.54212654 -3 50 C-5.66782556 47.33217444 -5.59610663 45.39395116 -6.125 41.6875 C-6.29257812 40.55699219 -6.46015625 39.42648438 -6.6328125 38.26171875 C-6.94757121 35.46572381 -7.07376764 32.80843941 -7 30 C-6.34 30.66 -5.68 31.32 -5 32 C-4.04042363 29.1212709 -3.63899296 26.63674169 -3.28125 23.6328125 C-3.15363281 22.58222656 -3.02601562 21.53164063 -2.89453125 20.44921875 C-2.76433594 19.35222656 -2.63414063 18.25523438 -2.5 17.125 C-2.24131213 14.96073016 -1.98095418 12.79665915 -1.71875 10.6328125 C-1.60466797 9.67262207 -1.49058594 8.71243164 -1.37304688 7.72314453 C-1.01816371 5.13259031 -0.5127945 2.56397251 0 0 Z " fill="#E9C41B" transform="translate(58,4)"/>
<path d="M0 0 C16.83 0 33.66 0 51 0 C51 4.95 51 9.9 51 15 C50.67 15 50.34 15 50 15 C50 10.71 50 6.42 50 2 C34.49 2 18.98 2 3 2 C3.33 4.97 3.66 7.94 4 11 C3.34 11.66 2.68 12.32 2 13 C1.34 8.71 0.68 4.42 0 0 Z " fill="#F9D222" transform="translate(494,3)"/>
<path d="M0 0 C6.27 0 12.54 0 19 0 C17.64796771 12.57263672 16.09631426 25.09821012 14.375 37.625 C14.14302597 39.32549313 13.91125434 41.02601388 13.6796875 42.7265625 C13.12210965 46.81802853 12.56184614 50.90911801 12 55 C11.67 55 11.34 55 11 55 C10.62267867 42.91733243 11.75227368 31.43849566 13.5 19.5 C13.74189407 17.790507 13.98278475 16.08087172 14.22265625 14.37109375 C14.80360103 10.24567111 15.39791108 6.12238751 16 2 C11.05 1.67 6.1 1.34 1 1 C1 2.65 1 4.3 1 6 C0.67 6 0.34 6 0 6 C0 4.02 0 2.04 0 0 Z " fill="#F2D037" transform="translate(57,3)"/>
<path d="M0 0 C3.09003065 1.1482889 5.67972599 2.2946491 8.26171875 4.34765625 C8.82310547 4.78787109 9.38449219 5.22808594 9.96289062 5.68164062 C10.53201172 6.13732422 11.10113281 6.59300781 11.6875 7.0625 C15.64929631 10.32558304 15.64929631 10.32558304 20 13 C20 15.31 20 17.62 20 20 C21.98 20 23.96 20 26 20 C26 20.33 26 20.66 26 21 C23.69 21 21.38 21 19 21 C19.020625 20.13375 19.04125 19.2675 19.0625 18.375 C17.66046453 13.92147557 15.51301184 12.91520603 11.6171875 10.58984375 C8.27730519 8.56098987 5.16386357 6.2936077 2 4 C2.08148343 7.68836336 2.19427268 11.37514597 2.3125 15.0625 C2.33505859 16.10083984 2.35761719 17.13917969 2.38085938 18.20898438 C2.59001102 24.1983269 3.1862658 28.68181606 6 34 C5.34 34 4.68 34 4 34 C4 33.34 4 32.68 4 32 C3.34 32 2.68 32 2 32 C0.14274249 28.05091786 -0.23651489 24.95232103 -0.1953125 20.60546875 C-0.18886719 19.40341797 -0.18242187 18.20136719 -0.17578125 16.96289062 C-0.15902344 15.71701172 -0.14226562 14.47113281 -0.125 13.1875 C-0.11597656 11.92228516 -0.10695313 10.65707031 -0.09765625 9.35351562 C-0.07412394 6.23548436 -0.04124545 3.11783903 0 0 Z " fill="#F9DD5C" transform="translate(364,44)"/>
<path d="M0 0 C0.33 0 0.66 0 1 0 C1.02715383 1.74991334 1.04646551 3.49994945 1.0625 5.25 C1.07410156 6.22453125 1.08570313 7.1990625 1.09765625 8.203125 C1 11 1 11 0 15 C4.95 14.67 9.9 14.34 15 14 C15.66 10.37 16.32 6.74 17 3 C21.29 3 25.58 3 30 3 C30 6.63 30 10.26 30 14 C29.67 14 29.34 14 29 14 C28.67 11.03 28.34 8.06 28 5 C25.03 5 22.06 5 19 5 C18.90912109 6.04800781 18.90912109 6.04800781 18.81640625 7.1171875 C18.73261719 8.02726562 18.64882813 8.93734375 18.5625 9.875 C18.48128906 10.77992187 18.40007812 11.68484375 18.31640625 12.6171875 C18 15 18 15 17 17 C10.4 17 3.8 17 -3 17 C-0.99107143 4.8125 -0.99107143 4.8125 0 0 Z " fill="#F4CF23" transform="translate(455,63)"/>
<path d="M0 0 C0.33 0 0.66 0 1 0 C1.67310593 4.0614603 2.33735482 8.12432096 3 12.1875 C3.19078125 13.33798828 3.3815625 14.48847656 3.578125 15.67382812 C3.75859375 16.78564453 3.9390625 17.89746094 4.125 19.04296875 C4.29257812 20.06414795 4.46015625 21.08532715 4.6328125 22.13745117 C4.97414707 24.79845372 5.06884702 27.32142068 5 30 C2.03 30 -0.94 30 -4 30 C-2.5615142 9.33123028 -2.5615142 9.33123028 0 0 Z M0 14 C-0.66 18.62 -1.32 23.24 -2 28 C-0.68 28 0.64 28 2 28 C1.67 23.38 1.34 18.76 1 14 C0.67 14 0.34 14 0 14 Z " fill="#EBC829" transform="translate(305,23)"/>
<path d="M0 0 C0.66 0.33 1.32 0.66 2 1 C2.47070312 2.71484375 2.47070312 2.71484375 2.78125 4.9375 C2.90113281 5.75089844 3.02101563 6.56429687 3.14453125 7.40234375 C3.26183594 8.25957031 3.37914062 9.11679687 3.5 10 C4.31502045 15.74096826 5.26132423 21.37597535 6.56738281 27.02685547 C7.36359658 30.65834513 7.64795248 34.30350105 8 38 C3.5421974 31.3132961 2.44642911 22.78846441 1 15 C-0.485 21.435 -0.485 21.435 -2 28 C-2.66 27.67 -3.32 27.34 -4 27 C-3.28174711 20.97504376 -2.39912131 14.99057867 -1.4375 9 C-1.29892578 8.12988281 -1.16035156 7.25976562 -1.01757812 6.36328125 C-0.67957148 4.24199817 -0.33995416 2.12097184 0 0 Z " fill="#DEBA16" transform="translate(37,36)"/>
<path d="M0 0 C0.33 0 0.66 0 1 0 C1 3.3 1 6.6 1 10 C-4.28 10 -9.56 10 -15 10 C-15 29.8 -15 49.6 -15 70 C-15.33 70 -15.66 70 -16 70 C-16 49.54 -16 29.08 -16 8 C-11.05 8 -6.1 8 -1 8 C-0.67 5.36 -0.34 2.72 0 0 Z " fill="#ECC101" transform="translate(459,8)"/>
<path d="M0 0 C0.66 0.33 1.32 0.66 2 1 C1.69075786 3.10464793 1.3774944 5.2087053 1.0625 7.3125 C0.80146484 9.07013672 0.80146484 9.07013672 0.53515625 10.86328125 C0 14 0 14 -1 17 C-7.93 17 -14.86 17 -22 17 C-22.33 14.69 -22.66 12.38 -23 10 C-22.34 9.67 -21.68 9.34 -21 9 C-21 10.98 -21 12.96 -21 15 C-15.06 14.67 -9.12 14.34 -3 14 C-2.01 9.38 -1.02 4.76 0 0 Z " fill="#F6D024" transform="translate(33,63)"/>
<path d="M0 0 C1.92295898 0.0009668 1.92295898 0.0009668 3.88476562 0.00195312 C4.88141235 0.01440063 4.88141235 0.01440063 5.89819336 0.02709961 C7.93057764 0.05074616 9.96165319 0.04764891 11.99414062 0.04101562 C21.97053908 0.09624481 21.97053908 0.09624481 25.37109375 2.36328125 C25.37109375 3.02328125 25.37109375 3.68328125 25.37109375 4.36328125 C24.83282959 4.2024707 24.29456543 4.04166016 23.73999023 3.87597656 C18.74300631 2.79448978 13.52538314 3.13545562 8.43359375 3.11328125 C7.25345703 3.09265625 6.07332031 3.07203125 4.85742188 3.05078125 C3.1490918 3.04304687 3.1490918 3.04304687 1.40625 3.03515625 C0.36863525 3.02581055 -0.66897949 3.01646484 -1.73803711 3.00683594 C-6.02136353 3.53497179 -8.62047124 5.35484624 -11.62890625 8.36328125 C-11.31563745 5.46554481 -11.08255465 3.82045735 -8.99633789 1.71801758 C-5.85989263 -0.07677821 -3.60323772 -0.00914214 0 0 Z " fill="#F1CB1F" transform="translate(378.62890625,2.63671875)"/>
<path d="M0 0 C1.32403468 2.64806936 1.09839884 4.59900673 1.06591797 7.5637207 C1.05128006 9.31112297 1.05128006 9.31112297 1.03634644 11.09382629 C1.02177399 12.35837143 1.00720154 13.62291656 0.9921875 14.92578125 C0.97915482 16.90418611 0.96614 18.88259128 0.95417976 20.86100292 C0.9236217 25.7491737 0.88368086 30.63718952 0.82861328 35.52514648 C0.79820961 38.26450861 0.77583094 41.0037128 0.76223755 43.74320984 C0.74907265 46.32534354 0.7239632 48.90744946 0.6857605 51.48933411 C0.68230621 52.66372543 0.67885193 53.83811676 0.67529297 55.0480957 C0.66561493 56.0790889 0.65593689 57.11008209 0.64596558 58.1723175 C1.17737949 62.41673477 3.01914733 65.01914733 6 68 C1.25 67.25 1.25 67.25 -1 65 C-1.24723816 62.33653259 -1.24723816 62.33653259 -1.24291992 58.91381836 C-1.24753487 56.9968943 -1.24753487 56.9968943 -1.25224304 55.04124451 C-1.24534582 53.64077576 -1.23807889 52.2403088 -1.23046875 50.83984375 C-1.22927706 49.41020245 -1.22882376 47.98056035 -1.2290802 46.55091858 C-1.22751509 43.55399682 -1.2192226 40.55719446 -1.20581055 37.56030273 C-1.18880528 33.71090198 -1.18499662 29.86163236 -1.18575573 26.01219845 C-1.18548437 23.06033568 -1.18000899 20.10850182 -1.17275429 17.15664864 C-1.16956326 15.73681418 -1.1675992 14.31697644 -1.16686058 12.8971386 C-1.16470249 10.91700952 -1.15517331 8.93689256 -1.14526367 6.95678711 C-1.14145187 5.82808701 -1.13764008 4.6993869 -1.13371277 3.53648376 C-1 1 -1 1 0 0 Z " fill="#F3C807" transform="translate(109,10)"/>
<path d="M0 0 C3.96 0 7.92 0 12 0 C12.04939662 3.95096978 12.08571755 7.9018203 12.10986328 11.85302734 C12.12488107 13.8591136 12.15028981 15.86511324 12.17578125 17.87109375 C12.18222656 19.12792969 12.18867188 20.38476562 12.1953125 21.6796875 C12.20578613 22.84226074 12.21625977 24.00483398 12.22705078 25.20263672 C12 28 12 28 10 30 C10 20.76 10 11.52 10 2 C6.7 2 3.4 2 0 2 C0 1.34 0 0.68 0 0 Z " fill="#FBD93E" transform="translate(178,50)"/>
<path d="M0 0 C1.60080151 4.00200378 0.29279692 7.04556236 -1 11 C-3.64 11 -6.28 11 -9 11 C-8.45859375 11.74443359 -8.45859375 11.74443359 -7.90625 12.50390625 C-4.63348556 17.29486975 -3.39608896 20.20245406 -4 26 C-4.33 26 -4.66 26 -5 26 C-5.20625 25.195625 -5.4125 24.39125 -5.625 23.5625 C-7.17308422 19.55155451 -9.27831885 16.44102516 -11.7578125 12.953125 C-13 11 -13 11 -13 9 C-9.7 9 -6.4 9 -3 9 C-2.87625 8.2575 -2.7525 7.515 -2.625 6.75 C-2.04513299 4.19858515 -1.26291261 2.2732427 0 0 Z " fill="#E8C422" transform="translate(461,42)"/>
<path d="M0 0 C0.52110352 0.32597168 1.04220703 0.65194336 1.57910156 0.98779297 C4.74822389 2.31284149 7.30301355 2.22541216 10.734375 2.1953125 C12.67763672 2.18564453 12.67763672 2.18564453 14.66015625 2.17578125 C16.02344019 2.15907193 17.38672144 2.14214206 18.75 2.125 C20.12889985 2.1149634 21.50780665 2.10583873 22.88671875 2.09765625 C26.25798882 2.07408093 29.62890636 2.0411727 33 2 C33 2.99 33 3.98 33 5 C28.78250781 5.07419134 24.56536189 5.1286204 20.34741211 5.16479492 C18.91277448 5.17987589 17.47818292 5.2003438 16.04370117 5.22631836 C13.98084141 5.26273437 11.91859142 5.27973243 9.85546875 5.29296875 C8.61434326 5.3086792 7.37321777 5.32438965 6.09448242 5.34057617 C3 5 3 5 1.0715332 3.60668945 C0 2 0 2 0 0 Z " fill="#F4CE20" transform="translate(369,75)"/>
<path d="M0 0 C2.48046875 1.01953125 2.48046875 1.01953125 5 3 C5.38060051 5.78599571 5.47962905 7.93372751 5.3125 10.6875 C5.27866211 11.7403418 5.27866211 11.7403418 5.24414062 12.81445312 C5.18531647 14.5438833 5.09563389 16.27221438 5 18 C1.37 18 -2.26 18 -6 18 C-6 15.03 -6 12.06 -6 9 C-5.01 9.495 -5.01 9.495 -4 10 C-4 11.98 -4 13.96 -4 16 C-1.69 16 0.62 16 3 16 C2.88487847 14.27014758 2.75744323 12.54111249 2.625 10.8125 C2.55539062 9.84957031 2.48578125 8.88664062 2.4140625 7.89453125 C1.99784147 4.98491062 1.20125904 2.67109226 0 0 Z " fill="#CFAB06" transform="translate(387,49)"/>
<path d="M0 0 C0.66 0.33 1.32 0.66 2 1 C2.59423828 3.32910156 2.59423828 3.32910156 3.0703125 6.390625 C3.33134766 8.04384766 3.33134766 8.04384766 3.59765625 9.73046875 C3.77167969 10.89191406 3.94570313 12.05335937 4.125 13.25 C4.30675781 14.39597656 4.48851562 15.54195312 4.67578125 16.72265625 C5.41968371 21.52725932 6.1150398 26.12812034 6 31 C5.67 30.34 5.34 29.68 5 29 C4.34 29 3.68 29 3 29 C2.29777768 25.10667179 1.61582272 21.21005728 0.9375 17.3125 C0.73833984 16.20970703 0.53917969 15.10691406 0.33398438 13.97070312 C0.15029297 12.90400391 -0.03339844 11.83730469 -0.22265625 10.73828125 C-0.48187866 9.26935425 -0.48187866 9.26935425 -0.74633789 7.77075195 C-1.00632629 4.93089791 -0.70433521 2.74932093 0 0 Z " fill="#EAC830" transform="translate(47,5)"/>
<path d="M0 0 C7.59 0 15.18 0 23 0 C23 3.3 23 6.6 23 10 C22.67 10 22.34 10 22 10 C21.67 7.36 21.34 4.72 21 2 C14.73 2 8.46 2 2 2 C1.67 4.64 1.34 7.28 1 10 C0.67 10 0.34 10 0 10 C0 6.7 0 3.4 0 0 Z " fill="#F4CD1B" transform="translate(294,3)"/>
<path d="M0 0 C1.78033765 3.1805926 2.57988826 6.1516323 3.2890625 9.71875 C3.50820313 10.81574219 3.72734375 11.91273437 3.953125 13.04296875 C4.17484375 14.18378906 4.3965625 15.32460938 4.625 16.5 C4.85445313 17.64082031 5.08390625 18.78164063 5.3203125 19.95703125 C7 28.46544829 7 28.46544829 7 33 C6.34 33 5.68 33 5 33 C4.35170438 30.29223506 3.70629398 27.58383555 3.0625 24.875 C2.88009766 24.11445313 2.69769531 23.35390625 2.50976562 22.5703125 C1.08771295 16.57183576 -0.14626465 10.82358398 -0.0625 4.625 C-0.05347656 3.75101563 -0.04445313 2.87703125 -0.03515625 1.9765625 C-0.02355469 1.32429687 -0.01195312 0.67203125 0 0 Z " fill="#F3D135" transform="translate(490,7)"/>
<path d="M0 0 C0.33 0 0.66 0 1 0 C1.33 3.96 1.66 7.92 2 12 C6.95 12 11.9 12 17 12 C17 10.35 17 8.7 17 7 C17.33 7.99 17.66 8.98 18 10 C18.66 10 19.32 10 20 10 C20 11.32 20 12.64 20 14 C13.4 14 6.8 14 0 14 C0 9.38 0 4.76 0 0 Z " fill="#E9C41B" transform="translate(485,66)"/>
<path d="M0 0 C0.33 0 0.66 0 1 0 C1.33 3.3 1.66 6.6 2 10 C6.95 10.33 11.9 10.66 17 11 C16.67 9.35 16.34 7.7 16 6 C16.99 6 17.98 6 19 6 C19.33 8.31 19.66 10.62 20 13 C13.4 13 6.8 13 0 13 C0 8.71 0 4.42 0 0 Z " fill="#EBC61F" transform="translate(312,67)"/>
<path d="M0 0 C4.35590891 2.48909081 8.0637313 4.61869061 11.9375 7.625 C12.70964844 8.21539062 13.48179687 8.80578125 14.27734375 9.4140625 C14.84582031 9.93742187 15.41429687 10.46078125 16 11 C16 11.66 16 12.32 16 13 C11.03231242 11.44759763 6.82132943 8.48945219 3 5 C3 4.34 3 3.68 3 3 C2.34 3 1.68 3 1 3 C1 10.26 1 17.52 1 25 C0.67 25 0.34 25 0 25 C0 16.75 0 8.5 0 0 Z " fill="#FAD21E" transform="translate(134,40)"/>
<path d="M0 0 C7.99045513 3.73865332 15.01309557 9.67199746 22 15 C21.67 15.66 21.34 16.32 21 17 C13.65448742 12.5312471 6.27826984 7.92418087 0 2 C0 1.34 0 0.68 0 0 Z " fill="#ECCA31" transform="translate(386,30)"/>
<path d="M0 0 C7.26 0 14.52 0 22 0 C22 2.97 22 5.94 22 9 C21.67 9 21.34 9 21 9 C20.67 6.69 20.34 4.38 20 2 C13.73 2 7.46 2 1 2 C1 3.65 1 5.3 1 7 C0.67 7 0.34 7 0 7 C0 4.69 0 2.38 0 0 Z " fill="#F4CC16" transform="translate(468,3)"/>
<path d="M0 0 C0.66 0.33 1.32 0.66 2 1 C2.4140625 3.28515625 2.4140625 3.28515625 2.625 6.0625 C2.69976562 6.98160156 2.77453125 7.90070312 2.8515625 8.84765625 C2.90054688 9.55792969 2.94953125 10.26820312 3 11 C2.34 11 1.68 11 1 11 C-0.35355433 15.060663 -0.3785996 19.02860994 -0.62109375 23.28515625 C-1 26 -1 26 -3 28 C-3.97089442 24.18598795 -3.93412837 21.33966602 -3.22265625 17.48046875 C-2.94711914 15.9480957 -2.94711914 15.9480957 -2.66601562 14.38476562 C-2.46685547 13.32966797 -2.26769531 12.27457031 -2.0625 11.1875 C-1.86720703 10.11306641 -1.67191406 9.03863281 -1.47070312 7.93164062 C-0.98863538 5.28614693 -0.49814846 2.64250457 0 0 Z " fill="#DAB50E" transform="translate(37,36)"/>
<path d="M0 0 C6.27 0 12.54 0 19 0 C18.67 0.99 18.34 1.98 18 3 C12.72 3 7.44 3 2 3 C1.01 5.97 0.02 8.94 -1 12 C-2 8 -2 8 0 0 Z " fill="#F8D327" transform="translate(29,3)"/>
<path d="M0 0 C4.95 0 9.9 0 15 0 C15 0.33 15 0.66 15 1 C11.37 1 7.74 1 4 1 C4 1.66 4 2.32 4 3 C4.66 3.20625 5.32 3.4125 6 3.625 C10.11606263 5.51152871 13.4587703 8.20567979 17 11 C15.20214844 11.6262207 15.20214844 11.6262207 13 12 C10.56279925 10.47822127 8.46319108 8.98480572 6.25 7.1875 C5.64800781 6.72279297 5.04601562 6.25808594 4.42578125 5.77929688 C2.90372301 4.57649122 1.44589419 3.29336489 0 2 C0 1.34 0 0.68 0 0 Z " fill="#EBC723" transform="translate(145,36)"/>
<path d="M0 0 C4.29 0 8.58 0 13 0 C13 3.63 13 7.26 13 11 C12.67 11 12.34 11 12 11 C11.67 8.03 11.34 5.06 11 2 C8.03 2 5.06 2 2 2 C1.67 5.3 1.34 8.6 1 12 C0.67 12 0.34 12 0 12 C0 8.04 0 4.08 0 0 Z " fill="#FBDD54" transform="translate(472,66)"/>
<path d="M0 0 C0.33 0 0.66 0 1 0 C1.05437005 2.85442753 1.09384974 5.70780076 1.125 8.5625 C1.15013672 9.76229492 1.15013672 9.76229492 1.17578125 10.98632812 C1.21723982 16.06500335 0.64056075 20.18811906 -1 25 C-1.66 25 -2.32 25 -3 25 C-2.68889371 22.14567529 -2.37615574 19.29154475 -2.0625 16.4375 C-1.97548828 15.63763672 -1.88847656 14.83777344 -1.79882812 14.01367188 C-1.28238548 9.32743303 -0.69478469 4.66319454 0 0 Z " fill="#DBB920" transform="translate(67,48)"/>
<path d="M0 0 C2.34770643 3.52155964 2.37669614 5.50771843 2.625 9.6875 C2.69976562 10.86699219 2.77453125 12.04648437 2.8515625 13.26171875 C2.90054687 14.16535156 2.94953125 15.06898437 3 16 C1.35 16 -0.3 16 -2 16 C-1.85833643 14.08302063 -1.71150416 12.16642277 -1.5625 10.25 C-1.48128906 9.18265625 -1.40007812 8.1153125 -1.31640625 7.015625 C-1.05909227 4.56320038 -0.68187782 2.36078709 0 0 Z " fill="#FEF7D6" transform="translate(478,36)"/>
<path d="M0 0 C0.33 0 0.66 0 1 0 C1.41641669 2.43558828 1.8086148 4.8710445 2.1875 7.3125 C2.30802734 8.00279297 2.42855469 8.69308594 2.55273438 9.40429688 C3.31923709 14.52255692 3.31923709 14.52255692 1.67578125 16.98046875 C0 18 0 18 -2 18 C-2.20190089 11.64012196 -1.6277833 6.14778871 0 0 Z " fill="#E4BE11" transform="translate(305,23)"/>
<path d="M0 0 C4.29 0 8.58 0 13 0 C13 3.96 13 7.92 13 12 C12.67 12 12.34 12 12 12 C11.67 8.7 11.34 5.4 11 2 C7.7 2 4.4 2 1 2 C1 4.64 1 7.28 1 10 C0.67 10 0.34 10 0 10 C0 6.7 0 3.4 0 0 Z " fill="#FBDC4D" transform="translate(299,66)"/>
<path d="M0 0 C2.12406054 3.62013796 2.85012346 7.42794469 3.625 11.5 C3.7590625 12.16386719 3.893125 12.82773437 4.03125 13.51171875 C4.66826364 16.7682885 5 19.66414099 5 23 C4.34 23 3.68 23 3 23 C0.95062675 15.21726112 -0.49155247 8.06510168 0 0 Z " fill="#F4D23A" transform="translate(317,8)"/>
<path d="M0 0 C5.55874015 0.84911484 9.94369927 3.08237622 14 7 C14.5625 10.875 14.5625 10.875 14 14 C15.98 14 17.96 14 20 14 C20 14.33 20 14.66 20 15 C17.69 15 15.38 15 13 15 C13.020625 14.13375 13.04125 13.2675 13.0625 12.375 C11.62853755 7.82006045 9.2207252 6.75590105 5.2265625 4.39453125 C3.15910479 3.09964984 1.6386257 1.79191649 0 0 Z " fill="#F1D557" transform="translate(370,50)"/>
<path d="M0 0 C0.33 0 0.66 0 1 0 C0.28174711 6.02495624 -0.60087869 12.00942133 -1.5625 18 C-1.70107422 18.87011719 -1.83964844 19.74023438 -1.98242188 20.63671875 C-2.32042852 22.75800183 -2.66004584 24.87902816 -3 27 C-3.33 27 -3.66 27 -4 27 C-4.27310247 17.0469322 -3.28997643 9.39993266 0 0 Z " fill="#E4BF19" transform="translate(29,9)"/>
<path d="M0 0 C0.33 1.32 0.66 2.64 1 4 C5.95 4 10.9 4 16 4 C15.67 4.66 15.34 5.32 15 6 C9.72 6 4.44 6 -1 6 C-0.67 4.02 -0.34 2.04 0 0 Z " fill="#C7A404" transform="translate(498,12)"/>
<path d="M0 0 C0.33 0 0.66 0 1 0 C1.53132389 2.58157368 2.05034379 5.16461756 2.5625 7.75 C2.78969727 8.84441406 2.78969727 8.84441406 3.02148438 9.9609375 C3.74557178 13.66557073 4.09817231 16.39322322 3 20 C3 19.01 3 18.02 3 17 C2.34 17 1.68 17 1 17 C-0.18681726 13.43954823 -0.09689832 10.56191663 -0.0625 6.8125 C-0.05347656 5.54019531 -0.04445313 4.26789062 -0.03515625 2.95703125 C-0.02355469 1.98121094 -0.01195312 1.00539062 0 0 Z " fill="#ECCD41" transform="translate(500,56)"/>
<path d="M0 0 C1.3357457 3.77371512 0.72408671 6.85831347 0.0625 10.75 C-0.13214844 11.92046875 -0.32679687 13.0909375 -0.52734375 14.296875 C-0.68332031 15.18890625 -0.83929687 16.0809375 -1 17 C-3 15 -3 15 -3.1953125 12.8359375 C-3.17210938 12.02382813 -3.14890625 11.21171875 -3.125 10.375 C-3.10695313 9.55773438 -3.08890625 8.74046875 -3.0703125 7.8984375 C-3.04710938 7.27195312 -3.02390625 6.64546875 -3 6 C-2.34 6 -1.68 6 -1 6 C-0.67 4.02 -0.34 2.04 0 0 Z " fill="#E1B901" transform="translate(24,36)"/>
<path d="M0 0 C5.28776943 0.33048559 9.24100622 3.48352195 13 7 C13 7.66 13 8.32 13 9 C7.97290493 7.42903279 3.97133531 4.38006951 0 1 C0 0.67 0 0.34 0 0 Z " fill="#E7C323" transform="translate(137,44)"/>
<path d="M0 0 C0.33 0 0.66 0 1 0 C1.2494783 7.29031024 0.72330907 13.90673679 -1 21 C-1.33 21 -1.66 21 -2 21 C-2.2494783 13.70968976 -1.72330907 7.09326321 0 0 Z " fill="#EECB29" transform="translate(288,32)"/>
<path d="M0 0 C0.33 0 0.66 0 1 0 C1 3.3 1 6.6 1 10 C-4.61 9.67 -10.22 9.34 -16 9 C-16 8.67 -16 8.34 -16 8 C-11.05 8 -6.1 8 -1 8 C-0.67 5.36 -0.34 2.72 0 0 Z " fill="#B59606" transform="translate(459,8)"/>
<path d="M0 0 C5.63860699 0.40275764 8.07346846 2.16478314 12 6 C12.33 6.99 12.66 7.98 13 9 C9.91220974 7.53400783 7.09532795 5.82973607 4.25 3.9375 C3.45078125 3.41027344 2.6515625 2.88304687 1.828125 2.33984375 C1.22484375 1.89769531 0.6215625 1.45554688 0 1 C0 0.67 0 0.34 0 0 Z " fill="#F2D03A" transform="translate(375,43)"/>
<path d="M0 0 C1.27310312 0.93441535 2.543388 1.87267111 3.8125 2.8125 C4.52019531 3.33457031 5.22789062 3.85664062 5.95703125 4.39453125 C7.78531393 5.83128877 9.39896688 7.31815763 11 9 C6.49068763 8.46949266 3.51318661 6.8595705 0 4 C0 2.68 0 1.36 0 0 Z " fill="#E7C31F" transform="translate(367,34)"/>
<path d="M0 0 C2.31316656 1.69389362 3.83186747 3.02005597 4.33007812 5.92382812 C4.3934207 8.21029088 4.34853117 10.46483482 4.25 12.75 C4.23195313 13.54277344 4.21390625 14.33554687 4.1953125 15.15234375 C4.14833082 17.10208348 4.07659044 19.05119878 4 21 C3.67 21 3.34 21 3 21 C2.92652344 19.55367187 2.92652344 19.55367187 2.8515625 18.078125 C2.77679688 16.81484375 2.70203125 15.5515625 2.625 14.25 C2.55539062 12.99703125 2.48578125 11.7440625 2.4140625 10.453125 C2.03883772 7.32389193 1.48646062 5.68288015 0 3 C0 2.01 0 1.02 0 0 Z " fill="#F7CF19" transform="translate(404,5)"/>
<path d="M0 0 C2 2 2 2 2.1953125 5.0390625 C2.17210937 6.22242188 2.14890625 7.40578125 2.125 8.625 C2.10695313 9.81351563 2.08890625 11.00203125 2.0703125 12.2265625 C2.04710937 13.14179688 2.02390625 14.05703125 2 15 C1.67 15 1.34 15 1 15 C-1.39306591 5.19270308 -1.39306591 5.19270308 -1 1 C-0.67 0.67 -0.34 0.34 0 0 Z " fill="#EACA36" transform="translate(19,4)"/>
<path d="M0 0 C4.95 0 9.9 0 15 0 C15 0.33 15 0.66 15 1 C11.37 1 7.74 1 4 1 C4.33 2.32 4.66 3.64 5 5 C2.5 3.625 2.5 3.625 0 2 C0 1.34 0 0.68 0 0 Z " fill="#F9D21F" transform="translate(145,36)"/>
<path d="M0 0 C0.99 0.33 1.98 0.66 3 1 C3 3.97 3 6.94 3 10 C2.67 10 2.34 10 2 10 C1.67 8.35 1.34 6.7 1 5 C0.34 6.32 -0.32 7.64 -1 9 C-0.67 6.03 -0.34 3.06 0 0 Z " fill="#FBDE5B" transform="translate(37,46)"/>
<path d="M0 0 C3.16115776 1.36983503 3.9927092 1.9890638 6 5 C5.625 7.1875 5.625 7.1875 5 9 C4.16094435 7.87926138 3.32892169 6.75325453 2.5 5.625 C2.0359375 4.99851562 1.571875 4.37203125 1.09375 3.7265625 C0 2 0 2 0 0 Z " fill="#EECB2E" transform="translate(542,37)"/>
<path d="M0 0 C0.66 0 1.32 0 2 0 C3.32229189 2.64458379 3.09677194 4.67761301 3.0625 7.625 C3.05347656 8.62789062 3.04445313 9.63078125 3.03515625 10.6640625 C3.02355469 11.43492188 3.01195312 12.20578125 3 13 C2.67 13 2.34 13 2 13 C1.34 8.71 0.68 4.42 0 0 Z " fill="#E7C218" transform="translate(320,31)"/>
<path d="M0 0 C3.37503669 1.1858237 5.64722731 2.27573689 8 5 C5.23723823 4.47731534 2.6739124 3.89130413 0 3 C0 2.01 0 1.02 0 0 Z " fill="#F9D533" transform="translate(365,45)"/>
</svg>
