<svg xmlns="http://www.w3.org/2000/svg" height="120.18" viewBox="0 0 250 120.17737" width="250"><g transform="matrix(1.25 0 0 -1.25 -43.109 724.5)"><g><path d="m16.152 1.1191l4.375 12.156-19.353 55.149 3.3709 11.824h25.648l6.668-6.295 1.862 6.295h25.013l10.596-9.557 2.816 9.557h36.702l10.52-9.424 2.77 9.424h21.52 14.05 1.13l0.84-0.75 9.83-8.809 2.11 7.422 0.61 2.137h2.23 46.9 4.2l-1.43-3.947-2.83-7.815 21.55-63.472 1.32-3.8949h-59.18-36.95l-9.42 9.8609-3.63-9.8609h-68.56l-3.563 10.49h-15.338l-7.009 7.34 6.05-17.83-35.418 0.0001zm167.79 33.873l-2.98 8.766-9.51-8.74 12.49-0.026zm-62.49 0.026h14.68l11.06 10.162h-14.68l-11.06-10.162zm-33.794 1.402l9.537 8.76h-12.509l2.972-8.76zm103.44 51.725c-5.01 0-7.91 0.163-9.89 1.035-2.07 0.909-3.02 2.621-3.95 5.271l-1.27 3.611c-0.19 0.517-0.37 1.026-0.44 1.586-0.2 1.722 0.75 3.032 2.84 3.892l6.02 2.44c1.42 0.56 1.54 0.91 1.46 1.52-0.02 0.17-0.09 0.36-0.16 0.58l-0.05 0.12-1.62 4.59c-0.36 1.01-0.8 1.55-2.02 1.55-0.63 0-1.02-0.1-1.21-0.33-0.14-0.15-0.19-0.36-0.15-0.64 0.03-0.26 0.05-0.46 0.13-0.61l2.14-5.98h-10.04l-2.23 6.2c-0.54 1.5-0.72 2.49-0.77 2.95-0.1 0.82 0.05 1.44 0.47 1.92 1.19 1.35 4.63 1.45 9.74 1.45 5.26 0 8.62-0.1 10.7-1.44 1.61-1.02 2.13-2.46 2.8-4.28 0.07-0.21 0.14-0.42 0.22-0.63l2.07-5.77c0.18-0.45 0.35-0.91 0.41-1.39 0.2-1.67-0.89-2.97-3.25-3.87l-5.53-2.162c-1.2-0.472-1.59-0.852-1.52-1.453 0.05-0.416 0.17-0.681 0.21-0.776l1.01-2.914c0.35-0.928 0.83-1.549 2.08-1.549 0.63 0 1.02 0.101 1.21 0.325 0.14 0.154 0.19 0.363 0.15 0.636 0 0.01-0.02 0.202-0.19 0.618l-1.53 4.341h9.86l1.62-4.562c0.08-0.239 0.17-0.47 0.25-0.703 0.29-0.79 0.56-1.538 0.64-2.211 0.1-0.825-0.06-1.459-0.48-1.934-1.18-1.334-4.46-1.431-9.73-1.431zm-151.28 0.189l-10.914 30.736h9.973l4.344-12.23h0.75c1.089 0 1.664 0.13 1.925 0.42 0.129 0.15 0.18 0.34 0.149 0.59-0.025 0.22-0.053 0.46-0.145 0.69l-3.765 10.53h9.98l3.529-9.99c0.224-0.6 0.384-1.24 0.459-1.85 0.205-1.72-0.714-2.58-3.279-3.1l-0.217-0.05 0.217-0.04c4.834-1.02 5.678-2.82 6.861-6.198l1.102-3.192c0.5-1.356 0.749-2.229 0.828-2.912 0.098-0.787-0.058-1.4-0.471-1.869-0.884-0.994-2.695-1.535-9.736-1.535h-11.59zm48.932 0l-17.156 30.736h9.369l2.943-6.07h4.318l-1.451 6.07h9.442l4.669-30.736h-12.134zm38.154 0l-10.92 30.736h9.03l6.32-17.77h0.45l-0.01 0.06-2.68 17.71h5.58l9.9-17.77h0.51l-0.02 0.07-6.3 17.7h8.96l10.98-30.736h-12.25l-8.99 15.606h-0.5l0.01-0.06 2.19-15.546h-12.26zm-78.81 4.879h0.865c1.032 0 1.636 0.058 1.89 0.348 0.123 0.138 0.169 0.325 0.137 0.58-0.003 0.044-0.12 0.468-0.385 1.185l-1.363 3.85c-0.538 1.504-0.735 2.064-2.91 2.064-0.138 0-0.277-0.01-0.422-0.01-0.17-0.01-0.362-0.03-0.586-0.03h-0.066l0.021-0.06 2.819-7.927zm43.699 2.889h0.508l-0.014 0.056-2.76 11.912h-3.387l5.653-11.968z" transform="matrix(.8 0 0 -.8 34.487 579.6)"/><path d="m104.31 4.0684l-8.79 9.1916-6.823 20.111 18.993 17.459-5.4 15.916h-4.038l4.338-12.775-5.522-5.065h-13.65l-6.652 19.612 2.584 8.787h19.314 14.056l9.84-8.825 7.37-21.673-19-17.461 3.86-11.42-3.62-3.311h8.8l-3.93 11.586 5.53 5.09h13.63l6.12-18.031-3.39-9.1916h-33.62zm50 0l-8.79 9.1916-6.83 20.111 19 17.459-5.4 15.916h-4.04l4.33-12.775-5.52-5.065h-13.65l-6.65 19.612 2.59 8.787h19.31 14.05l9.85-8.825 7.36-21.673-18.99-17.461 3.86-11.42-3.63-3.311h8.81l-3.93 11.586 5.53 5.09h13.63l6.12-18.031-3.39-9.1916h-33.62zm38.07 0l3.32 9.1916-18.74 55.258 2.5 8.787h46.9l-3.18-8.787 21.88-64.45-20.68 0.0004-21.24 62.575h-4.24l21.25-62.575-27.77 0.0004zm-172.03 0.0019l3.32 9.1897-19.402 55.26 2.5035 8.787h22.25l9.308-8.787 2.594 8.787h21.681l9.733-8.787 18.818-55.26 8.092-9.1897h-25.707l-21.238 62.594h-4.399l17.711-52.107h-11.828l-8.746 9.16-14.588 42.947h-4.236l21.24-62.594-27.107 0.0003z" transform="matrix(.8 0 0 -.8 34.487 579.6)" fill="#fff"/><path d="m24.549 7.0137l2.25 6.2323-19.442 55.365 1.641 5.746h18.854l11.947-11.277 3.33 11.277h18.342l8.324-7.511 18.76-55.092 4.172-4.7403h-17.075l-21.238 62.597h-10.621l17.707-52.107h-6.449l-7.428 7.773-13.398 39.453-5.182 4.881h-6.939l21.238-62.597-18.793-0.0003zm81.021 0l-7.468 7.8123-5.997 17.672 18.995 17.459-6.69 19.731h-10.271l5.039-14.846-3.258-2.988h-10.393l-5.673 16.726 1.701 5.777h29.955l8.39-7.455 6.62-19.224-18.99-17.455 3.86-11.416-7.84-7.135h20.53l-4.63 13.66 3.28 3.012 10.36-0.004 5.11-15.039-2.32-6.2873h-30.31zm49.99 0l-7.46 7.8123-6 17.672 19 17.459-6.69 19.731h-10.28l5.04-14.846-3.26-2.988h-10.38l-5.68 16.726 1.7 5.777h29.96l8.51-7.556 6.5-19.123-18.99-17.455 3.85-11.416-7.83-7.135h20.53l-4.63 13.66 3.27 3.012 10.36-0.004 5.11-15.039-2.31-6.2873h-30.32zm41.01 0l2.25 6.2163-18.78 55.362 1.64 5.767h40.47l-2.1-5.81 20.89-61.535-14.45-0.0003-21.24 62.574h-10.46l21.24-62.574-19.46-0.0003z" transform="matrix(.8 0 0 -.8 34.487 579.6)" fill="#c8102e"/><path d="m99.248 4.0684l-6.521 2.9453-4.172 4.7403-18.76 55.092-8.324 7.511h-18.34l-2.205 2.946h21.681l9.731-8.783 18.816-55.262 8.094-9.1896zm38.692 0l-2.06 2.9453 2.32 6.2853-5.11 15.043-10.36 0.004-3.28-3.014-3.41 0.869 5.53 5.09h13.63l6.12-18.031-3.38-9.1916zm49.99 0l-2.05 2.9453 2.31 6.2853-5.1 15.043-10.37 0.004-3.27-3.014-3.41 0.869 5.53 5.09h13.63l6.12-18.031-3.39-9.1916zm57.13 0l-4.12 2.9453-20.89 61.535 2.11 5.81h-40.47l-2.23 2.946h46.9l-3.18-8.787 21.88-64.45zm-197.6 0.0019l-4.111 2.9434-21.239 62.597 4.112-2.945 21.238-62.596zm172.7 0l-4.12 2.9434-21.24 62.576 4.11-2.947 21.25-62.573zm-116.59 7.6017l7.61 2.945h8.8l4.11-2.945h-20.52zm49.99 0l7.61 2.945h8.81l4.11-2.945h-20.53zm-87.935 2.883l-4.117 2.951-16.385 48.213-1.326 3.892 4.117-2.945 17.711-52.111zm49.175 3.371l-3.41 0.881-3.85 11.416 3.4-0.875 3.86-11.422zm50 0l-3.41 0.881-3.86 11.416 3.41-0.875 3.86-11.422zm-72.686 14.572l-3.409 0.871 18.995 17.459 3.41-0.871-18.996-17.459zm49.996 0l-3.41 0.871 19 17.459 3.4-0.871-18.99-17.459zm-12.17 14.311l-3.41 0.869-6.62 19.224-8.39 7.455h-29.951l-2.209 2.946h33.37l9.84-8.821 7.37-21.673zm50 0l-3.41 0.869-6.5 19.127-8.51 7.552h-29.96l-2.2 2.946h33.36l9.85-8.821 7.37-21.673zm-77.34 7.162l-3.416 0.873-5.031 14.845 4.109-2.945 4.338-12.773zm49.99 0l-3.41 0.873-5.04 14.845 4.12-2.945 4.33-12.773zm-112.78 9.109l-11.947 11.277h-18.852l-2.2285 2.95h22.252l9.308-8.791 1.467-5.436z" transform="matrix(.8 0 0 -.8 34.487 579.6)" fill="#a7a8aa"/></g></g></svg>
