<svg xmlns="http://www.w3.org/2000/svg" height="53.499" width="303.81" viewBox="0 0 303.80862 53.498989"><path d="m21.334 1.7109c-2.995 0-5.594 0.4424-7.816 1.1934-1.446 0.4877-2.74 1.1019-3.8578 1.8398-2.0674 1.3467-3.5658 3.0573-4.4981 4.9434-0.4057 0.8205-0.6972 1.6755-0.8828 2.5425-0.1597 0.747-0.25 1.502-0.25 2.266 0 1.273 0.1642 2.55 0.4922 3.797 0.1683 0.647 0.3817 1.281 0.6406 1.902 0.9107 2.184 2.3832 4.249 4.4981 6.096 0.1251 0.121 0.2603 0.239 0.3988 0.352 1.014 0.837 2.161 1.632 3.447 2.353 7.432 4.226 10.723 5.708 10.723 9.631 0 0.751-0.174 1.368-0.528 1.848-0.6 0.82-1.722 1.254-3.418 1.254-1.614 0-2.819-0.486-3.527-1.254-0.488-0.514-0.756-1.165-0.756-1.903v-4.099h-6.3398-5.1856c0.0044 0.228-0.0094 0.445-0.0137 0.673v4.586c-0.4359 2.064-1.1701 3.916-2.2578 5.651h2.2715c1.0229 1.61 3.2218 2.966 5.1856 3.98 0.8118 0.419 1.7108 0.783 2.6778 1.098 2.426 0.777 5.311 1.195 8.6 1.195 2.848 0 5.343-0.448 7.505-1.195 3.026-1.053 5.357-2.731 6.932-4.76 1.221-1.584 1.981-3.37 2.266-5.226 0.077-0.531 0.134-1.062 0.134-1.606 0-2.697-0.838-5.408-2.4-7.877-0.993-1.562-2.266-3.037-3.824-4.349-1.342-1.131-2.89-2.138-4.625-2.989-4.838-2.382-7.313-3.553-8.465-5.361-0.639-0.988-0.877-2.174-0.877-3.857 0-0.993 0.56-1.731 1.363-2.206 0.678-0.388 1.537-0.599 2.387-0.599 0.816 0 1.556 0.228 2.139 0.599 0.738 0.484 1.213 1.213 1.213 2.145v3.918h11.376v-10.258c-1.476-2.2312-4.566-4.0257-7.626-5.1307-2.098-0.751-4.478-1.1934-7.102-1.1934zm263.71 0c-3 0-5.6 0.4424-7.82 1.1934-1.45 0.4877-2.74 1.1019-3.86 1.8398-2.06 1.3467-3.57 3.0573-4.5 4.9434-0.41 0.8205-0.7 1.6755-0.89 2.5425-0.16 0.747-0.24 1.502-0.24 2.266 0 1.273 0.16 2.55 0.48 3.797 0.18 0.647 0.39 1.281 0.65 1.902 0.91 2.184 2.39 4.249 4.5 6.096 0.13 0.121 0.26 0.239 0.41 0.352 1 0.837 2.13 1.632 3.43 2.353 7.43 4.226 10.72 5.708 10.72 9.631 0 0.751-0.18 1.368-0.53 1.848-0.6 0.82-1.72 1.254-3.41 1.254-1.62 0-2.82-0.486-3.54-1.254-0.48-0.514-0.74-1.165-0.74-1.903v-4.099h-6.34-5.19c0 0.228-0.01 0.445-0.01 0.673v10.237h0.01c1.02 1.61 3.23 2.966 5.19 3.98 0.82 0.419 1.71 0.783 2.68 1.098 2.43 0.777 5.31 1.195 8.6 1.195 2.84 0 5.34-0.448 7.49-1.195 3.03-1.053 5.36-2.731 6.94-4.76 1.23-1.584 1.98-3.37 2.26-5.226 0.09-0.531 0.15-1.062 0.15-1.606 0-2.697-0.84-5.408-2.41-7.877-0.99-1.562-2.27-3.037-3.82-4.349-1.34-1.131-2.89-2.138-4.63-2.989-4.83-2.382-7.31-3.553-8.47-5.361-0.63-0.988-0.87-2.174-0.87-3.857 0-0.993 0.56-1.731 1.37-2.206 0.67-0.388 1.53-0.599 2.39-0.599 0.81 0 1.55 0.228 2.13 0.599 0.74 0.484 1.21 1.213 1.21 2.145v3.918h11.23 0.15v-3.096c0.31-2.706 1.11-5.03 2.45-7.1618h-2.45c-1.48-2.2314-4.57-4.0259-7.64-5.1309-2.09-0.751-4.47-1.1934-7.08-1.1934zm-248.32 1.1856c1.993 1.6096 2.873 3.4216 2.83 5.6914v31.293c0 6.483 6.774 11.773 15.748 11.773 9.038 0 15.287-5.29 15.287-11.773v-31.791l0.008-0.0002c0.069-1.6832 0.694-3.1009 1.941-4.3828h1.754c1.368 1.407 1.992 2.9795 1.949 4.8828v36.193c0.048 2.266-0.829 4.064-2.818 5.678h2.818 11.424 2.818c-1.985-1.614-2.865-3.412-2.818-5.678v-16.678l10.695 22.356h10.529v-41.879c-0.05-2.266 0.83-4.0756 2.82-5.6855h-2.82-11.357-2.826c1.99 1.6099 2.878 3.4211 2.826 5.6914v17.076l-10.224-22.768-11.067 0.0005h-2.818-0.014-2.818-12.612v36.214c0 1.244-1.124 2.017-2.677 2.017-1.42 0-2.617-0.773-2.617-2.016v-36.214l-13.129-0.0005h-2.832zm123.78 0v0.0019-0.0019zm0 0.0019c1.99 1.6052 2.88 3.4193 2.83 5.6973v31.574 4.594c0.05 2.274-0.84 4.083-2.83 5.697h2.83 30.53l-2.55-9.986h-15.19v-0.305-9.563h7.03l2.56-9.043h-9.59v-9.334h13.38l6.12 27.94 2.25 10.291h11.83l2.25-10.291 7.72-35.283c0.25-0.406 0.58-0.808 0.95-1.1878h1.74c1.38 1.4156 2 2.9931 1.97 4.8965v31.576 4.592c0.04 2.274-0.85 4.085-2.84 5.699h2.84 12.77 2.83 2.83 6.78 4.76 1.23 10.78 0.06 1.51v-0.203l-1.57-6.117-1.01-3.971h-1.57-7.86-0.34v-0.047-32.035l0.01-0.0002c0.1-2.0372 0.98-3.7024 2.82-5.1914h-2.83-7.02-5.75-2.83-2.84-4.72-0.51-7.54-4.23-11.65l-3.81 27.17-4.39-27.17-12.78 0.0004h-24.13-2.83zm-30.84 0v0.0078h-2.84c2 1.6099 2.88 3.4212 2.84 5.6915v36.173c0.04 2.271-0.84 4.078-2.84 5.692h2.84 18.07c6.13 0 11.36-3.866 11.36-9.865v-27.827c0-6.0031-5.23-9.8726-11.36-9.8726h-18.07zm109.39 0.8008h1.75c1.37 1.4114 2 2.9889 1.96 4.8965v31.574 4.594c0.04 1.899-0.59 3.481-1.96 4.888h-1.75c-1.37-1.407-1.99-2.989-1.95-4.888v-4.594-31.574c-0.04-1.908 0.58-3.4855 1.95-4.8968zm-96.61 8.8338h2.44c1.42 0 2.2 0.53 2.2 1.903v24.554c0 1.368-0.78 1.903-2.2 1.903h-2.44v-28.358-0.002zm97.48 37.92h0.02l-0.01 0.008-0.01-0.008z" transform="translate(-.00065613)" stroke="#ffc72c" stroke-width="1.5538" fill="#7d2248"/></svg>
