<?xml version="1.0" encoding="UTF-8"?>
<svg version="1.1" xmlns="http://www.w3.org/2000/svg" width="588" height="76">
<path d="M0 0 C10.23 0 20.46 0 31 0 C31.33 8.25 31.66 16.5 32 25 C33.093125 23.47375 34.18625 21.9475 35.3125 20.375 C36.46105469 18.88129883 36.46105469 18.88129883 37.6328125 17.35742188 C39.31841752 15.09974699 40.54145687 12.91896107 41.6796875 10.34570312 C43.96034606 5.81232945 46.45734266 2.43358859 51 0 C61.17917837 -2.27699736 71.99942655 -1.38405903 82.35040283 -0.96130371 C86.25793467 -0.8170074 90.16673318 -0.75392405 94.07617188 -0.68359375 C101.72091912 -0.5342914 109.3593758 -0.29602223 117 0 C130.65182344 38.57172599 130.65182344 38.57172599 136.375 56.3125 C136.74939209 57.46588867 137.12378418 58.61927734 137.50952148 59.80761719 C138.01140991 61.3820459 138.01140991 61.3820459 138.5234375 62.98828125 C138.81138184 63.89102783 139.09932617 64.79377441 139.39599609 65.72387695 C140 68 140 68 140 71 C126.01796567 72.77692092 126.01796567 72.77692092 120.53515625 68.9375 C117.75616277 66.65499743 115.21484276 64.13192148 112.67236328 61.59179688 C109.74298003 58.80353719 106.52167025 56.39203251 103.3125 53.9375 C97.25535292 49.25535292 97.25535292 49.25535292 95 47 C91.88988277 54.85713826 89.47865559 62.92722447 87 71 C82.66935928 69.45909761 80.49905182 66.12482554 77.875 62.5625 C77.43285156 61.97662109 76.99070312 61.39074219 76.53515625 60.78710938 C70.97619632 53.38915817 70.97619632 53.38915817 71.19116211 49.87475586 C72.11822844 45.43362405 73.44030266 41.27861459 74.94140625 37.00390625 C75.22853989 36.17036118 75.51567352 35.3368161 75.81150818 34.47801208 C76.72262172 31.83742948 77.64240888 29.19996613 78.5625 26.5625 C79.18482191 24.76387145 79.80657267 22.96504518 80.42773438 21.16601562 C81.94522472 16.77502865 83.47049699 12.38681634 85 8 C81.52263974 4.21965377 81.52263974 4.21965377 77 2 C76.57332031 2.59683594 76.14664063 3.19367187 75.70703125 3.80859375 C70.72662674 10.71954681 65.59142562 17.49917068 60.39379883 24.24780273 C59.85392334 24.94977783 59.31404785 25.65175293 58.7578125 26.375 C58.2745752 27.00148438 57.79133789 27.62796875 57.29345703 28.2734375 C54.80166851 31.22392398 54.80166851 31.22392398 54.109375 34.83203125 C55.35944926 37.87497517 57.20452403 40.11086011 59.25 42.6875 C60.15145442 43.83561354 61.05247266 44.98406965 61.953125 46.1328125 C62.43974609 46.74930664 62.92636719 47.36580078 63.42773438 48.00097656 C66.31169095 51.66772135 69.15653498 55.36432658 72 59.0625 C72.84546387 60.15147583 72.84546387 60.15147583 73.70800781 61.26245117 C74.23749023 61.95056885 74.76697266 62.63868652 75.3125 63.34765625 C75.78300781 63.95617432 76.25351563 64.56469238 76.73828125 65.19165039 C78.03903121 67.05594121 79.03484196 68.9447911 80 71 C57.27361546 73.36430057 57.27361546 73.36430057 50.68847656 69.72119141 C46.98479812 66.41623433 44.54202079 62.36097392 42.16894531 58.04052734 C40.68233441 55.44547848 38.93394971 53.13591943 37.09326172 50.78442383 C35.35392519 48.55477269 33.68320372 46.27232502 32 44 C31.67 52.91 31.34 61.82 31 71 C18.85636358 72.08425325 18.85636358 72.08425325 16 71 C11.90188617 67.44223164 8.56267362 63.40168485 7.31002808 58.05496216 C7.09890893 54.81615022 7.1252801 51.66515618 7.24609375 48.421875 C7.25468163 46.66656464 7.25468163 46.66656464 7.26344299 44.87579346 C7.28349026 41.16560857 7.35475525 37.45928068 7.4375 33.75 C7.51478941 30.02662458 7.57967378 26.30550037 7.60084534 22.58135986 C7.61407168 20.27262054 7.65918786 17.9637836 7.74034119 15.65643311 C7.89610528 9.91223555 7.89610528 9.91223555 5.39944458 4.95666504 C3.66501081 3.48278001 1.90153539 2.24294415 0 1 C0 0.67 0 0.34 0 0 Z M101 21 C99.99572108 24.45710552 98.9973056 27.91587697 98 31.375 C97.71382813 32.35984375 97.42765625 33.3446875 97.1328125 34.359375 C96.86210937 35.30039062 96.59140625 36.24140625 96.3125 37.2109375 C95.93544922 38.51490479 95.93544922 38.51490479 95.55078125 39.84521484 C94.91745122 41.95227289 94.91745122 41.95227289 95 44 C99.62 44 104.24 44 109 44 C108.37650642 41.47878568 107.75124639 38.95803069 107.125 36.4375 C106.95097656 35.73302734 106.77695313 35.02855469 106.59765625 34.30273438 C105.48705185 29.83975002 104.28798784 25.41512948 103 21 C102.34 21 101.68 21 101 21 Z " fill="#A7273E" transform="translate(144,3)"/>
<path d="M0 0 C4.5895203 -0.22340401 9.17584819 -0.38617929 13.76953125 -0.49438477 C15.32966242 -0.5395005 16.88941597 -0.60081719 18.44824219 -0.67895508 C31.31726858 -1.30761441 31.31726858 -1.30761441 35.21118164 1.71826172 C36.81085471 4.07548526 37.90541408 6.37284372 39 9 C39.87373463 10.55573305 40.76296493 12.10287158 41.66796875 13.640625 C42.51181409 15.17488925 43.351675 16.71135179 44.1875 18.25 C45.03439742 19.79729058 45.88203359 21.34417708 46.73046875 22.890625 C47.09551514 23.56125977 47.46056152 24.23189453 47.83666992 24.92285156 C49.17407681 27.31081752 50.59183737 29.65306229 52 32 C52.33 21.44 52.66 10.88 53 0 C60.26 0 67.52 0 75 0 C75 23.43 75 46.86 75 71 C67.74 71 60.48 71 53 71 C46.73643657 62.92696269 46.73643657 62.92696269 45.25 59.11328125 C42.82823005 53.37839546 39.63764421 48.22485649 36.375 42.9375 C34.60125 39.988125 32.8275 37.03875 31 34 C30.67 46.21 30.34 58.42 30 71 C22.74 71 15.48 71 8 71 C7.67 49.55 7.34 28.1 7 6 C5.68 5.34 4.36 4.68 3 4 C2.01 3.34 1.02 2.68 0 2 C0 1.34 0 0.68 0 0 Z " fill="#A5233A" transform="translate(279,3)"/>
<path d="M0 0 C7.99740886 -0.06958568 15.99469069 -0.12285447 23.99232769 -0.15543652 C27.70617574 -0.17107623 31.41981628 -0.19228309 35.13354492 -0.22631836 C38.71916041 -0.25897295 42.30457662 -0.27686576 45.89032936 -0.28463173 C47.25665231 -0.29016435 48.62296465 -0.30096836 49.9892025 -0.31719017 C51.90634857 -0.33904275 53.82369622 -0.34022607 55.7409668 -0.34057617 C56.83128708 -0.34723801 57.92160736 -0.35389984 59.04496765 -0.36076355 C63.62596737 0.19850536 66.16788254 2.09853942 69.25 5.4375 C73.75362077 12.03208755 72.81233735 21.99928111 71.57421875 29.62109375 C70.37781013 33.50391682 68.71643973 35.49484522 65.3125 37.5 C64.219375 37.995 63.12625 38.49 62 39 C63.2934681 41.73482548 64.71957069 44.12436636 66.5390625 46.5390625 C67.2810791 47.52688721 67.2810791 47.52688721 68.03808594 48.53466797 C68.56176758 49.22447754 69.08544922 49.91428711 69.625 50.625 C70.42599121 51.68871826 70.42599121 51.68871826 71.24316406 52.77392578 C74.94441254 57.66923307 78.7411678 62.46603456 82.671875 67.1796875 C84 69 84 69 84 71 C61.31063083 73.51781305 61.31063083 73.51781305 54.75292969 69.6875 C51.06326478 66.15131533 48.74394304 61.79132542 46.35400391 57.31933594 C43.96698878 53.23050729 40.86680851 49.72628709 37.8125 46.125 C36.71156242 44.79698426 35.61363019 43.46646795 34.51953125 42.1328125 C34.05651611 41.57480957 33.59350098 41.01680664 33.11645508 40.44189453 C32 39 32 39 31 37 C30.67 48.22 30.34 59.44 30 71 C22.74 71 15.48 71 8 71 C8.00636475 69.08743408 8.01272949 67.17486816 8.01928711 65.2043457 C8.03215391 58.87773113 8.01278792 52.55185398 7.97153378 46.22536945 C7.94770157 42.39028843 7.93672151 38.55607585 7.95532227 34.72094727 C7.97280529 31.01806037 7.95625485 27.3167319 7.91632271 23.61403465 C7.90704449 22.20311355 7.90993103 20.79205718 7.92530632 19.38118935 C8.33400978 11.73396294 8.33400978 11.73396294 5.38162231 5.06454468 C3.26835171 3.52935814 3.26835171 3.52935814 0 2 C0 1.34 0 0.68 0 0 Z M30 16 C30 21.61 30 27.22 30 33 C32.59875 33.04125 35.1975 33.0825 37.875 33.125 C39.10065674 33.15231201 39.10065674 33.15231201 40.35107422 33.18017578 C42.23495049 33.19477217 44.11869312 33.09943482 46 33 C48.32866229 31.11153817 48.32866229 31.11153817 48.1953125 27.9609375 C48.17210938 26.77757812 48.14890625 25.59421875 48.125 24.375 C48.10695313 23.18648437 48.08890625 21.99796875 48.0703125 20.7734375 C48.04710938 19.85820312 48.02390625 18.94296875 48 18 C44.29583874 15.62409858 41.07015427 15.79499714 36.75 15.875 C34.5225 15.91625 32.295 15.9575 30 16 Z " fill="#A6253C" transform="translate(71,3)"/>
<path d="M0 0 C1.3990004 0.002062 1.3990004 0.002062 2.82626343 0.00416565 C4.78793872 0.01318883 6.74959533 0.03671556 8.7109375 0.07397461 C11.70910914 0.12887277 14.70450218 0.13550227 17.703125 0.13476562 C19.61460729 0.14950968 21.52607083 0.16699403 23.4375 0.1875 C24.3303067 0.19083847 25.2231134 0.19417694 26.14297485 0.19761658 C30.89115117 0.30607311 34.29193095 0.51557623 38.0859375 3.69140625 C41.7531666 10.76391952 42.0859375 15.66944796 42.0859375 23.69140625 C35.1559375 23.69140625 28.2259375 23.69140625 21.0859375 23.69140625 C20.4259375 21.71140625 19.7659375 19.73140625 19.0859375 17.69140625 C13.8059375 17.69140625 8.5259375 17.69140625 3.0859375 17.69140625 C3.0859375 20.00140625 3.0859375 22.31140625 3.0859375 24.69140625 C3.96330566 24.79163086 4.84067383 24.89185547 5.74462891 24.99511719 C9.02278219 25.3774167 12.29852112 25.77419056 15.57373047 26.18066406 C16.98710138 26.35309725 18.40117671 26.51986072 19.81591797 26.68066406 C21.8585979 26.91386642 23.8978101 27.16787111 25.9375 27.42578125 C27.16291504 27.57241211 28.38833008 27.71904297 29.65087891 27.87011719 C34.52202667 29.03476119 37.90514972 31.10345027 40.8984375 35.12890625 C44.86842767 43.69572713 44.07678689 54.84218883 41.07421875 63.59375 C39.62337018 66.67321909 37.75766911 68.62081425 35.0859375 70.69140625 C32.35044994 71.60323544 30.69695512 71.8265986 27.87744141 71.85253906 C27.03291412 71.86214661 26.18838684 71.87175415 25.31826782 71.88165283 C24.40886444 71.88590271 23.49946106 71.89015259 22.5625 71.89453125 C21.15500992 71.90308136 21.15500992 71.90308136 19.71908569 71.9118042 C17.73363369 71.92125019 15.74816604 71.92778659 13.76269531 71.93164062 C10.72953886 71.94134673 7.69705994 71.97237411 4.6640625 72.00390625 C2.73437902 72.01043648 0.8046907 72.01568687 -1.125 72.01953125 C-2.48303238 72.03805145 -2.48303238 72.03805145 -3.86849976 72.0569458 C-8.7229882 72.03982279 -11.96790742 71.84389155 -15.9140625 68.69140625 C-18.67273575 65.75295429 -19.45537283 63.25982016 -20.1015625 59.31640625 C-20.26011719 58.40117188 -20.41867187 57.4859375 -20.58203125 56.54296875 C-20.9140625 53.69140625 -20.9140625 53.69140625 -20.9140625 47.69140625 C-13.9840625 47.69140625 -7.0540625 47.69140625 0.0859375 47.69140625 C0.4159375 50.00140625 0.7459375 52.31140625 1.0859375 54.69140625 C7.6859375 54.69140625 14.2859375 54.69140625 21.0859375 54.69140625 C20.5909375 50.73140625 20.5909375 50.73140625 20.0859375 46.69140625 C19.20856934 46.59118164 18.33120117 46.49095703 17.42724609 46.38769531 C14.14909281 46.0053958 10.87335388 45.60862194 7.59814453 45.20214844 C6.18477362 45.02971525 4.77069829 44.86295178 3.35595703 44.70214844 C1.3132771 44.46894608 -0.7259351 44.21494139 -2.765625 43.95703125 C-4.60374756 43.73708496 -4.60374756 43.73708496 -6.47900391 43.51269531 C-10.37920789 42.58019452 -12.78064786 41.16898992 -15.9140625 38.69140625 C-20.69860803 30.77215847 -20.94280033 22.07146841 -19.48828125 13.05078125 C-16.68257779 2.9295933 -9.92856817 -0.24081427 0 0 Z " fill="#A7273E" transform="translate(378.9140625,2.30859375)"/>
<path d="M0 0 C0.82458206 -0.00960754 1.64916412 -0.01921509 2.49873352 -0.02911377 C3.39142441 -0.03336365 4.2841153 -0.03761353 5.20385742 -0.04199219 C6.12140305 -0.04769226 7.03894867 -0.05339233 7.98429871 -0.05926514 C9.92864832 -0.06872152 11.87301401 -0.07525164 13.81738281 -0.07910156 C16.78698872 -0.08879428 19.7558988 -0.11980622 22.7253418 -0.15136719 C24.61400956 -0.15789852 26.50268228 -0.16314848 28.39135742 -0.16699219 C29.27797562 -0.17933899 30.16459381 -0.19168579 31.07807922 -0.20440674 C35.89147279 -0.18708683 39.08172464 0.0419925 42.99682617 3.16113281 C48.2560215 8.98381335 47.07771889 15.71900254 46.99682617 23.16113281 C40.39682617 23.16113281 33.79682617 23.16113281 26.99682617 23.16113281 C26.33682617 21.18113281 25.67682617 19.20113281 24.99682617 17.16113281 C19.38682617 16.83113281 13.77682617 16.50113281 7.99682617 16.16113281 C7.54961258 21.63938362 7.54961258 21.63938362 8.99682617 24.16113281 C11.80819648 24.77346871 11.80819648 24.77346871 15.22729492 25.12597656 C17.14445313 25.36670898 17.14445313 25.36670898 19.1003418 25.61230469 C21.13619583 25.85660717 23.17243718 26.09724077 25.20898438 26.33569336 C27.17453816 26.56906539 29.13844848 26.81614818 31.10229492 27.06347656 C32.27945068 27.20261475 33.45660645 27.34175293 34.66943359 27.48510742 C39.09198981 28.38363689 42.69525942 29.76980284 45.80932617 33.09863281 C48.56699754 37.88827255 48.2137097 43.03798563 48.24682617 48.41113281 C48.26745117 49.23226562 48.28807617 50.05339844 48.30932617 50.89941406 C48.34592572 56.67299285 47.4352414 60.90782494 44.99682617 66.16113281 C41.38846647 69.59347497 38.85498098 71.27679248 33.91772461 71.32226562 C33.07634949 71.33187317 32.23497437 71.34148071 31.36810303 71.35137939 C30.45667542 71.35562927 29.5452478 71.35987915 28.60620117 71.36425781 C27.20014618 71.37280792 27.20014618 71.37280792 25.76568604 71.38153076 C23.77845389 71.39098846 21.791206 71.39751779 19.80395508 71.40136719 C16.77291181 71.41104949 13.74255328 71.44205597 10.71166992 71.47363281 C8.78068436 71.48016521 6.84969396 71.48541475 4.91870117 71.48925781 C4.01537048 71.50160461 3.11203979 71.51395142 2.18133545 71.52667236 C-2.95391048 71.50862591 -6.58945052 71.09151315 -11.00317383 68.16113281 C-15.41106652 61.32129933 -15.00317383 55.24300799 -15.00317383 47.16113281 C-8.07317383 47.16113281 -1.14317383 47.16113281 5.99682617 47.16113281 C6.32682617 49.14113281 6.65682617 51.12113281 6.99682617 53.16113281 C10.03112294 54.6782812 13.17284284 54.30477197 16.49682617 54.28613281 C17.18647461 54.29 17.87612305 54.29386719 18.58666992 54.29785156 C22.41848831 54.35154147 22.41848831 54.35154147 25.99682617 53.16113281 C25.99682617 50.85113281 25.99682617 48.54113281 25.99682617 46.16113281 C24.6729187 46.00294067 24.6729187 46.00294067 23.32226562 45.84155273 C20.03159622 45.44269027 16.74257941 45.03334521 13.45410156 44.61694336 C12.03372059 44.43925427 10.6128165 44.26569397 9.19140625 44.09643555 C7.14193892 43.85164803 5.09484567 43.59180713 3.04760742 43.32910156 C1.81695557 43.17723389 0.58630371 43.02536621 -0.68164062 42.86889648 C-5.19511606 41.90714968 -9.19505416 39.90529237 -12.00317383 36.16113281 C-14.80268171 27.87582456 -15.64083038 17.9634464 -12.81567383 9.53613281 C-9.77793392 3.8796516 -6.55404372 0.06158936 0 0 Z " fill="#A6263D" transform="translate(511.003173828125,2.8388671875)"/>
<path d="M0 0 C13.2 0 26.4 0 40 0 C45.74001627 17.13983119 45.74001627 17.13983119 48.17578125 24.4296875 C49.83990424 29.41008615 51.50468891 34.39025691 53.17333984 39.36914062 C54.51811455 43.38178468 55.85998272 47.39538972 57.19981384 51.40968704 C57.71231497 52.94348597 58.22587469 54.4769316 58.74049377 56.01002121 C59.45933205 58.15208568 60.17444644 60.2953587 60.88867188 62.43896484 C61.2972644 63.66030121 61.70585693 64.88163757 62.12683105 66.13998413 C63 69 63 69 63 71 C47.57129353 72.37824673 47.57129353 72.37824673 41.6875 67.5625 C40.10634693 66.06106893 38.54435797 64.53925266 37 63 C35.14059066 61.4395648 33.26518627 59.89800918 31.375 58.375 C30.46621094 57.62992188 29.55742187 56.88484375 28.62109375 56.1171875 C22.61989435 51.09819876 22.61989435 51.09819876 16 47 C15.90203125 47.57105469 15.8040625 48.14210937 15.703125 48.73046875 C12.18323587 67.81676413 12.18323587 67.81676413 9 71 C7.36527118 71.08700342 5.72685945 71.10701063 4.08984375 71.09765625 C3.10048828 71.09443359 2.11113281 71.09121094 1.09179688 71.08789062 C0.05087891 71.07951172 -0.99003906 71.07113281 -2.0625 71.0625 C-3.10728516 71.05798828 -4.15207031 71.05347656 -5.22851562 71.04882812 C-7.81906936 71.03699911 -10.40949746 71.01967834 -13 71 C-11.08439206 63.70924519 -8.93935608 56.54077393 -6.53125 49.3984375 C-6.20966919 48.43652496 -5.88808838 47.47461243 -5.5567627 46.48355103 C-4.54069177 43.44640396 -3.52044169 40.41068097 -2.5 37.375 C-1.81612509 35.33342749 -1.13252914 33.29176152 -0.44921875 31.25 C0.80882291 27.49209475 2.06849129 23.73474383 3.33007812 19.97802734 C4.89360016 15.32097177 6.44868121 10.66113347 8 6 C7.4225 5.7525 6.845 5.505 6.25 5.25 C4 4 4 4 0 0 Z M24 20 C22.99093539 23.24725579 21.99434878 26.49821074 21 29.75 C20.71382813 30.67039062 20.42765625 31.59078125 20.1328125 32.5390625 C19.72675781 33.87324219 19.72675781 33.87324219 19.3125 35.234375 C18.93544922 36.45979004 18.93544922 36.45979004 18.55078125 37.70996094 C17.84410442 40.25562575 17.84410442 40.25562575 18 44 C22.29 44 26.58 44 31 44 C30.36145015 38.47324097 29.06306646 33.37632649 27.4375 28.0625 C27.20353516 27.28326172 26.96957031 26.50402344 26.72851562 25.70117188 C26.15682579 23.79942813 25.57904309 21.89951774 25 20 C24.67 20 24.34 20 24 20 Z " fill="#A7283E" transform="translate(434,3)"/>
<path d="M0 0 C12.87 0 25.74 0 39 0 C43.50056227 11.25140567 43.50056227 11.25140567 45.29003906 16.62719727 C45.69015198 17.82445938 46.09026489 19.0217215 46.50250244 20.25526428 C46.92365306 21.52560855 47.34469138 22.79599006 47.765625 24.06640625 C48.20809334 25.39500623 48.6507854 26.72353173 49.09368896 28.05198669 C50.01321575 30.81211841 50.93074596 33.57290243 51.84667969 36.33422852 C53.02272323 39.87950295 54.20280602 43.42341673 55.38422012 46.96690464 C56.29473733 49.69872725 57.20369468 52.43106668 58.11211395 55.16358757 C58.54715708 56.47190268 58.98256559 57.78009634 59.41834259 59.08816719 C60.02292143 60.90405948 60.62528889 62.72068758 61.22753906 64.53735352 C61.57077209 65.57086441 61.91400513 66.60437531 62.26763916 67.66920471 C63 70 63 70 63 71 C48.16639675 72.9395026 48.16639675 72.9395026 42.24609375 68.71484375 C39.24818612 66.21637719 36.50232879 63.46647075 33.75878906 60.69433594 C30.76948816 57.81458188 27.48118835 55.33115325 24.1875 52.8125 C18.08766234 48.08766234 18.08766234 48.08766234 17 47 C16.82871582 47.54938232 16.65743164 48.09876465 16.48095703 48.66479492 C15.69768583 51.17300805 14.91137088 53.68025703 14.125 56.1875 C13.85558594 57.05181641 13.58617188 57.91613281 13.30859375 58.80664062 C13.04433594 59.64775391 12.78007812 60.48886719 12.5078125 61.35546875 C12.26691895 62.12528076 12.02602539 62.89509277 11.77783203 63.68823242 C10.94639261 66.15932467 9.96829665 68.57925837 9 71 C1.74 71 -5.52 71 -13 71 C-10.75 60.875 -10.75 60.875 -9.12060547 56.02124023 C-8.760383 54.94079941 -8.40016052 53.86035858 -8.02902222 52.74717712 C-7.64561676 51.61244461 -7.2622113 50.4777121 -6.8671875 49.30859375 C-6.47048859 48.12274185 -6.07378967 46.93688995 -5.66506958 45.71510315 C-4.61947651 42.59218913 -3.5699986 39.4706182 -2.51855469 36.34967041 C-1.44264078 33.15284692 -0.37194383 29.95427734 0.69921875 26.75585938 C2.79472122 20.50230174 4.89536246 14.25048875 7 8 C6.21625 7.236875 5.4325 6.47375 4.625 5.6875 C2 3 2 3 0 0 Z M24 21 C20.65686733 28.51780596 18.71176255 35.954716 17 44 C21.62 44 26.24 44 31 44 C29.58761051 36.11415867 27.46063198 28.62079223 25 21 C24.67 21 24.34 21 24 21 Z " fill="#A7283E" transform="translate(14,3)"/>
<path d="M0 0 C3.0165998 2.58565697 4.34598553 4.46560511 4.9609375 8.3984375 C5.05645621 13.8430041 4.35777479 16.99878427 0.625 21.25 C-3.57246186 23.79657728 -7.58445327 24.06364572 -12.375 23.25 C-15.7233456 21.53689295 -17.82576672 19.13354919 -19.8125 15.9375 C-20.87652842 10.85380868 -20.33981008 6.7803884 -17.5625 2.375 C-12.32955547 -2.70843183 -6.44430538 -3.34149168 0 0 Z M-16.375 5.25 C-17.73205063 9.2625139 -17.81837533 12.23023674 -16.125 16.125 C-14.37473763 18.45937224 -14.37473763 18.45937224 -11.375 20.25 C-9.31790404 20.49055468 -9.31790404 20.49055468 -7.1875 20.375 C-5.929375 20.33375 -4.67125 20.2925 -3.375 20.25 C-3.045 19.59 -2.715 18.93 -2.375 18.25 C-3.014375 17.63125 -3.65375 17.0125 -4.3125 16.375 C-6.375 14.25 -6.375 14.25 -7.375 12.25 C-8.365 12.25 -9.355 12.25 -10.375 12.25 C-10.375 14.23 -10.375 16.21 -10.375 18.25 C-11.035 18.25 -11.695 18.25 -12.375 18.25 C-12.375 13.3 -12.375 8.35 -12.375 3.25 C-9.075 3.91 -5.775 4.57 -2.375 5.25 C-2.375 6.9 -2.375 8.55 -2.375 10.25 C-3.365 10.745 -3.365 10.745 -4.375 11.25 C-3.715 13.23 -3.055 15.21 -2.375 17.25 C-1.385 17.25 -0.395 17.25 0.625 17.25 C2.65401001 13.19197998 2.92573579 10.61675586 1.625 6.25 C-1.30080924 2.7579051 -3.12104343 1.36829779 -7.6875 0.9375 C-12.06933524 1.30884197 -13.53456566 1.90831254 -16.375 5.25 Z " fill="#BF6373" transform="translate(582.375,50.75)"/>
<path d="M0 0 C1.258125 -0.04125 2.51625 -0.0825 3.8125 -0.125 C4.52019531 -0.14820313 5.22789062 -0.17140625 5.95703125 -0.1953125 C8 0 8 0 11 2 C11.1875 4.625 11.1875 4.625 11 7 C10.01 7.33 9.02 7.66 8 8 C8.99 9.98 9.98 11.96 11 14 C13.16343011 11.96731398 13.16343011 11.96731398 15 9 C15.8125 11.1875 15.8125 11.1875 16 14 C14.125 16.875 14.125 16.875 11 19 C7.89407402 19.11925926 5.02805112 18.66630319 2 18 C2 17.67 2 17.34 2 17 C5.465 16.505 5.465 16.505 9 16 C8.34 15.21625 7.68 14.4325 7 13.625 C5 11 5 11 5 9 C4.01 9 3.02 9 2 9 C2 10.98 2 12.96 2 15 C1.34 15 0.68 15 0 15 C0 10.05 0 5.1 0 0 Z " fill="#C26C7B" transform="translate(570,54)"/>
<path d="M0 0 C0.99 0.33 1.98 0.66 3 1 C2.67 10.57 2.34 20.14 2 30 C-2.95 30 -7.9 30 -13 30 C-13 29.67 -13 29.34 -13 29 C-8.71 29 -4.42 29 0 29 C0 19.43 0 9.86 0 0 Z " fill="#C36E7D" transform="translate(173,44)"/>
<path d="M0 0 C7.75 -0.125 7.75 -0.125 10 1 C10 2.65 10 4.3 10 6 C9.34 5.34 8.68 4.68 8 4 C6.01178687 3.60235737 4.01055661 3.26224651 2 3 C2 3.99 2 4.98 2 6 C3.65 6 5.3 6 7 6 C6.67 6.99 6.34 7.98 6 9 C4.68 9 3.36 9 2 9 C2 10.98 2 12.96 2 15 C1.34 15 0.68 15 0 15 C0 10.05 0 5.1 0 0 Z " fill="#B5495C" transform="translate(570,54)"/>
<path d="M0 0 C6.05761794 -0.41776675 9.19025097 -0.12264203 14 4 C15.88519858 7.00612746 16.22852251 9.23023483 16.125 12.75 C16.10695313 13.54921875 16.08890625 14.3484375 16.0703125 15.171875 C16.04710937 15.77515625 16.02390625 16.3784375 16 17 C15.34 17.33 14.68 17.66 14 18 C13.89042969 17.31292969 13.78085937 16.62585938 13.66796875 15.91796875 C13.50941406 15.01691406 13.35085938 14.11585937 13.1875 13.1875 C13.03667969 12.29417969 12.88585937 11.40085937 12.73046875 10.48046875 C11.92329765 7.73954015 11.28515184 6.68072652 9 5 C6.92159753 4.35302647 4.88416777 4.00161192 2.7421875 3.625 C2.16726563 3.41875 1.59234375 3.2125 1 3 C0.67 2.01 0.34 1.02 0 0 Z " fill="#BD5D6E" transform="translate(571,49)"/>
<path d="M0 0 C0.33 0 0.66 0 1 0 C1 1.65 1 3.3 1 5 C0.360625 5.103125 -0.27875 5.20625 -0.9375 5.3125 C-1.618125 5.539375 -2.29875 5.76625 -3 6 C-3.33 6.99 -3.66 7.98 -4 9 C-4.33 8.34 -4.66 7.68 -5 7 C-4.67 6.34 -4.34 5.68 -4 5 C-5.32 4.67 -6.64 4.34 -8 4 C-8 3.01 -8 2.02 -8 1 C-6.00045254 0.95745644 -3.99958364 0.95919217 -2 1 C-1.67 1.33 -1.34 1.66 -1 2 C-0.67 1.34 -0.34 0.68 0 0 Z " fill="#BF6373" transform="translate(580,56)"/>
<path d="M0 0 C4.95 0.33 9.9 0.66 15 1 C15 1.66 15 2.32 15 3 C14.21753906 3.04898438 13.43507812 3.09796875 12.62890625 3.1484375 C11.61699219 3.22320312 10.60507813 3.29796875 9.5625 3.375 C8.55316406 3.44460937 7.54382813 3.51421875 6.50390625 3.5859375 C5.26447266 3.79089844 5.26447266 3.79089844 4 4 C3.67 4.66 3.34 5.32 3 6 C1.5 4.6875 1.5 4.6875 0 3 C0 2.01 0 1.02 0 0 Z " fill="#BE6070" transform="translate(238,46)"/>
<path d="M0 0 C0 0.33 0 0.66 0 1 C-1.5159375 1.3403125 -1.5159375 1.3403125 -3.0625 1.6875 C-7.43018335 2.90866861 -10.43955933 5.23884193 -14 8 C-13.69209738 5.15190074 -13.34521809 3.41713852 -11.5 1.1875 C-7.73512805 -0.60081417 -4.09873595 -0.23646554 0 0 Z " fill="#B4475A" transform="translate(578,50)"/>
<path d="M0 0 C5.28 0 10.56 0 16 0 C16 0.66 16 1.32 16 2 C11.71 2 7.42 2 3 2 C2.67 2.99 2.34 3.98 2 5 C1.34 4.34 0.68 3.68 0 3 C0 2.01 0 1.02 0 0 Z " fill="#C16878" transform="translate(30,46)"/>
<path d="M0 0 C3.3 0.33 6.6 0.66 10 1 C10 1.66 10 2.32 10 3 C7.03 3 4.06 3 1 3 C0.67 2.01 0.34 1.02 0 0 Z " fill="#B54A5D" transform="translate(569,71)"/>
<path d="M0 0 C1.98 0 3.96 0 6 0 C6 0.99 6 1.98 6 3 C4.02 3 2.04 3 0 3 C0 2.01 0 1.02 0 0 Z " fill="#FAF4F5" transform="translate(572,57)"/>
</svg>
