<?xml version="1.0" encoding="UTF-8" standalone="no"?>
<svg xmlns:rdf="http://www.w3.org/1999/02/22-rdf-syntax-ns#" xmlns="http://www.w3.org/2000/svg" xml:space="preserve" height="169.79" viewBox="0 0 316.99875 169.78688" width="317" version="1.1" xmlns:cc="http://creativecommons.org/ns#" xmlns:dc="http://purl.org/dc/elements/1.1/"><g transform="matrix(1.25 0 0 -1.25 -157.5 253.68)"><g transform="matrix(.5 0 0 .5 126.64 67.752)"><path d="m329.95 154.01 8.492-0.002-0.01-30.588-8.482 30.59zm-164.4 0.027 8.498 0.003-8.486-30.546-0.012 30.543zm164.27 62.949 0.011 51.452-155.69 0.021-0.053-51.476l-174.06 0.07-0.03-165.54 102.55-0.028h42.988l-14.3-51.439 241.46-0.043-14.281 51.446 42.99-0.009 102.56-0.011 0.03 165.53-174.18 0.029" fill="#fff"/><path d="m247.19 30.234-0.0137 45.803 24.678 0.002c-7.4062 26.656-46.048 168.89-63.02 226.03l-1.3965 4.709 79.09 0.0176 0.008-45.799-18.033-0.006 16.225-56.754 60.393 0.0117 16.207 56.754-18.031-0.002-0.01 45.803 79.004 0.0176-33.293-120.02c-8.0062-28.839-16.007-57.678-22.02-79.318l-7.2617-26.146c-0.59625-2.165-1.0802-3.8962-1.4727-5.2812h24.471l0.01-45.797-135.53-0.02539zm-219.97 62.041-0.01367 88.309 51.336 0.004-0.03906 39.879-27.096 0.008v-12.826h-24.213l-0.0059 37.029 75.498 0.0156 0.0137-88.32h-51.287l0.01563-39.883 27.135 0.004v12.82h24.143v-37.027l-75.486-0.01172zm102.55 0.0078v24.225l25.631 0.002-0.0176 128.19h24.207l0.0234-128.19 25.641 0.008v-24.211l-75.484-0.02344zm294.85 0.06055v24.207l25.631 0.004-0.0234 128.19 24.221 0.01 0.0176-128.19 25.643-0.008 0.006-24.211-75.494-0.0059zm102.56 0.01367-0.0312 152.41 75.5 0.006v-24.211l-51.281-0.004 0.008-39.885 51.281 0.006 0.006-24.215-51.283-0.0176 0.008-39.871 51.285 0.0137v-24.221l-75.492-0.0098zm-212.23 0.99219 20.75 77.92-41.539-0.008 20.789-77.912z" transform="matrix(.8 0 0 -.8 0 269)" fill="#cc092f"/><path d="m225.23 8.2676-0.01 64.094-217.94-0.0332-0.033203 192.29 115.38 0.0312 0.0215-125.36 12.814 0.004-0.0254 125.36 56.27-0.004-17.816 64.098 134.6 0.0156 0.0215-89.727-8.9043-0.006 2.4922-12.812h25.646s2.9582 12.824 2.8457 12.824c0 0-9.108-0.0409-9.2617-0.006l-0.0176 89.734 134.61 0.0234c0.06 0.006-7.6336-27.799-17.715-64.102l56.184 0.0176 0.0117-125.35 12.836-0.002-0.0195 125.36 115.36 0.0117 0.0273-192.29-217.92-0.04102 0.008-64.09-179.47-0.033203zm12.812 12.816 153.83 0.0332-0.006 51.273v12.822l-19.236-0.002 64.055 230.75-102.54-0.0195 0.006-64.092h13.537c0.3525 0.007-9.9707-38.455-9.9707-38.455l-45.576-0.004c0.1875 1.1188-9.2656 38.451-9.2656 38.451l12.818-0.004-0.0137 64.104-101.22-0.0293 63.51-230.73h-19.939l0.0156-64.1zm-217.94 64.066 89.738 0.02148-0.008 51.258-38.457-0.002v-12.809l-12.824-0.0117v25.641l51.273 0.006-0.0117 102.56-89.738-0.0215 0.0078-51.275 38.455 0.006v12.82h12.822v-25.633l-51.277-0.0117 0.01953-102.55zm102.56 0.02148 89.736 0.01172-0.008 38.457h-25.639l-0.0195 128.18-38.461-0.004 0.0195-128.19-25.635-0.004 0.006-38.451zm294.84 0.04102 89.744 0.01758-0.008 38.457-25.648-0.006-0.0215 128.2-38.459-0.006 0.0312-128.19-25.645-0.008 0.006-38.461zm102.56 0.02148 89.734 0.01758-0.006 38.455-51.275-0.008v25.635l51.275 0.006-0.008 38.461-51.273-0.0137-0.006 25.643 51.271 0.0137-0.006 38.457-89.732-0.0195 0.0254-166.65zm-294.85 12.764 12.814 0.0039-38.482 138.44 0.0137-99.996 25.646 0.008 0.008-38.459zm166.65 0.0293 12.629 0.0059-0.006 38.455 25.834 0.01-0.0234 99.715c-17.83-64.21-38.43-138.19-38.43-138.19zm-76.916 26.338-9.9766 37.748 19.232 0.004-9.2559-37.752z" transform="matrix(.8 0 0 -.8 0 269)"/></g></g></svg>
