<svg xmlns="http://www.w3.org/2000/svg" height="57.5" width="136.43" viewBox="0 0 136.42773 57.5"><g><path fill="#fff" d="m119.78 1.0342c-1.2888 0-2.5379 0.20812-3.7441 0.57812h-112.43v2.9395h-2.6387v14.818h2.3125v21.75l-2.32 0.269 0.003906 15.145s34.143-4.3711 59.535-4.3711c32.854 0 54.916 2.0078 54.916 2.0078 1.275 0.4325 2.6382 0.6582 4.0644 0.6582 4.3912 0 8.2737-2.1137 10.701-5.7949 3.3075-2.715 5.207-7.0719 5.207-12.016 0-3.9838-1.2299-7.8462-3.5449-11.312v-2.7266h2.6367v-21.375h-10.924c-1.21-0.37344-2.48-0.57-3.77-0.57z"/><path fill="#00205b" d="m129.7 24.052h1.2188v-2.9412h2.64v-18.575h-9.7162c-1.1438-0.37625-2.3488-0.57125-3.5888-0.57125-1.8275 0-3.53 0.4175-5.0938 1.1988v-0.62125h-109.68v2.94h-2.6388v12.018h2.3112v24.335l-2.315 0.33125 0.00125 12.304s33.635-4.175 58.114-4.175c29.285 0 47.479 1.4338 55.195 2.0225 1.1762 0.42375 2.455 0.64375 3.8088 0.64375 4.1162 0 7.5538-2.0325 9.6538-5.3325 3-2.3725 4.8538-6.3275 4.8538-11.08 0-5.8625-2.735-10.082-4.765-12.496"/><path fill="#fff" d="m120.25 3.2081c-3.7662 0-6.3418 2.1133-6.3418 2.1133v-1.5352h-107.18v9.5215h2.3125l-0.00195 26.758-2.3145 0.26758 0.00195 9.7773c7.7425-0.99625 36.789-3.6777 56.998-3.6777 38.291 0 55.316 1.707 55.316 1.707s1.4034 0.63086 3.5547 0.63086c6.1538 0 10.623-5.1441 10.623-12.227 0-7.275-4.5591-11.894-6.0566-13.41l-3.4902-3.2734h8.6387v-16.08h-8.6602s-1.439-0.57227-3.3965-0.57227z"/><path d="m120.25 5.542c-4.8575 0-8.5117 4.2094-8.5117 10.391 0 2.7175 0.76907 5.2759 2.1641 7.4609 1.635 2.5038 3.6541 4.2112 5.3379 5.9688 2.0188 2.0762 4.8398 4.593 4.8398 7.418 0 2.1838-1.0576 3.7676-2.5488 3.7676-3.1175 0-4.9023-3.4618-4.9023-6.498 0-0.47875 0.00078-0.95773 0.0508-1.4902l-5.1856 0.002v11.965l4.3672 0.37891v-3.0723c1.2525 2.865 3.3855 4.6016 6.7305 4.6016 4.675 0 8.2871-3.9256 8.2871-9.8906 0-5.4925-2.9028-9.2602-5.3828-11.771-1.3138-1.3275-2.9874-2.7109-5.2949-5.0547-1.7325-1.7588-2.5664-3.8091-2.5664-5.6191 0-1.8125 0.92-4.1602 3.1875-4.1602 2.2212 0 4.5557 1.7056 4.7832 6.4531v1.1348h4.3691v-11.412h-4.3691v1.666c-1.35-1.4642-3.18-2.2412-5.35-2.2412zm-111.19 0.5762v4.8574h2.3105v31.168c-0.7725 0.09-1.5411 0.17633-2.3086 0.26758l-0.00195 5.0723h0.00195v-0.01758c5.7537-0.68625 11.696-1.2956 17.803-1.8281 1.8675-0.4275 2.6602-1.3468 2.6602-2.9043v-13.1c0-3.5612-1.4187-5.0838-4.7324-5.2676 1.2738-0.8425 4.2656-3.0083 4.2656-5.332 0-2.8562 0.01758-6.4066 0.01758-8.1191 0-4.8088-3.7875-4.7969-8.7812-4.7969h-11.234zm20.789 0v4.8574h2.3125v29.32c-0.66875 0.045-1.335 0.09367-2 0.13867v5.0938c3.7175-0.26875 7.4995-0.50383 11.346-0.70508v-5.082c-0.54375 0.02625-1.0825 0.05594-1.625 0.08594v-11.846c2.59-0.0675 2.8959-0.0077 3.4922 2.2148 0.41875 1.5662 1.8164 14.412 1.8164 14.412 2.5525-0.11875 4.6552-0.16984 7.1465-0.24609v-5.0742c-0.45 0.015-0.90297 0.03063-1.3555 0.04687-0.21875-1.6025-0.67953-4.825-1.1133-7.7188-0.60375-4.0362-0.97266-7.065-4.2852-7.25 1.2738-0.8425 4.2637-3.0063 4.2637-5.3301 0-2.8575 0.01953-6.4066 0.01953-8.1191 0-4.8088-3.7875-4.7988-8.7812-4.7988h-11.236zm21.154 0v4.8574h2.1719v24.699c0 3.3725 2.5726 9.248 10.049 9.248 7.4738 0 9.2852-5.4045 9.2852-9.5645v-24.383h2.0605v-4.8574h-10.752v4.8574h2.1719v24.65c0 1.9425-0.58969 4.0137-2.4609 4.0137-1.9075 0-2.6328-1.5364-2.6328-4.0039v-24.66h2.0605v-4.8574h-11.953zm24.637 0v4.8574h2.1719l0.0059 28.012c-0.68-0.0075-1.3559-0.02039-2.0371-0.02539v5.0742c4.0188 0.0325 7.9949 0.10274 11.92 0.20898v-5.0781c-0.71125-0.0175-1.4308-0.03133-2.1445-0.04883l-0.02344-28.143h2.0605v-4.8574h-11.953zm13.375 0v4.8574h2.0332v28.293c-0.68-0.02125-1.3566-0.04766-2.0391-0.06641v5.0801c2.9138 0.085 5.798 0.19141 8.6543 0.31641v-5.084c-0.585-0.025-1.1762-0.04656-1.7637-0.07031v-20.266c2.96 9.0538 6.9234 18.599 9.5371 25.584l4.3809 0.46094v-34.248h1.7578v-4.8574h-8.5078v4.8574h1.8984v14.143c-2.1325-6.4925-3.919-11.965-6.6152-19h-9.3359zm-69.922 4.623c1.02 0 1.7861 0.0039 2.3398 0.0039 1.5188 0 1.5898 0.68148 1.5898 2.3652 0 0.965-0.02539 4.941-0.02539 6.1348l-3.9043 4.1289v-12.633zm20.789 0c1.02 0 1.7868 0.0039 2.3418 0.0039 1.5188 0 1.5898 0.68273 1.5898 2.3652 0 0.96625-0.02539 4.941-0.02539 6.1348l-3.9062 4.1309v-12.635zm-19.033 17.219c1.5601 0.04805 2.4961 0.42695 2.4961 2.2363 0 2.6012 0.01172 4.7501 0.01172 6.6426 0 2.4962 0.18789 3.9095-1.0684 4.1758-0.645 0.1375-1.51 0.16508-2.8125 0.26758-0.12875 0.0125-0.25531 0.02906-0.38281 0.03906v-13.34c0.64719-0.01687 1.2358-0.0375 1.7559-0.02148z" fill="#c8102e"/></g></svg>