<?xml version="1.0" encoding="UTF-8"?>
<svg version="1.1" xmlns="http://www.w3.org/2000/svg" width="1062" height="364">
<path d="M0 0 C23.04507697 -0.07027462 46.09013611 -0.12307823 69.13529873 -0.15543652 C79.8370619 -0.17086453 90.53875825 -0.19187576 101.24047852 -0.22631836 C110.5748517 -0.25634579 119.90917646 -0.2756045 129.24359661 -0.28226548 C134.17996506 -0.28615526 139.11619505 -0.29521073 144.05251884 -0.31719017 C148.71216708 -0.33776682 153.37162167 -0.34379168 158.03131104 -0.33932304 C159.72865417 -0.34013888 161.42600475 -0.34597704 163.12330818 -0.35761642 C182.98762034 -0.48699274 203.19728425 1.75556538 219 15 C220.14342784 16.52173834 220.14342784 16.52173834 221.30995524 18.07421887 C225.20778707 21.94566745 229.19604409 21.72957686 234.4766708 21.79680657 C235.75721984 21.78264884 237.03776887 21.7684911 238.35712242 21.75390434 C239.74211488 21.76005235 241.12709772 21.76883089 242.51205879 21.77999961 C246.32984001 21.80313098 250.14671269 21.78880311 253.96447652 21.76853636 C258.11316504 21.75310513 262.26171287 21.77242993 266.41038287 21.78740036 C273.68519528 21.80883935 280.95974184 21.80796964 288.23456573 21.79260826 C299.05194036 21.76986699 309.86908708 21.78141246 320.68645982 21.80006396 C338.88189504 21.83046171 357.07723455 21.83293316 375.272686 21.81957626 C393.29258924 21.80643918 411.31242294 21.80566065 429.33232498 21.82144547 C430.45208074 21.82241937 431.5718365 21.82339328 432.72552426 21.8243967 C438.41202696 21.82940701 444.09852944 21.83463868 449.78503187 21.83995558 C490.07918869 21.87723239 530.37330901 21.88671241 570.66748047 21.87988281 C609.81658257 21.87331082 648.96564972 21.87930644 688.11474609 21.90234375 C689.32115411 21.90304865 690.52756213 21.90375355 691.77052797 21.90447981 C703.88559754 21.91157248 716.00066693 21.91892096 728.11573623 21.92645685 C752.79628307 21.94180299 777.47683076 21.95544165 802.15737915 21.9680481 C803.29219046 21.96862984 804.42700177 21.96921159 805.5962013 21.96981097 C881.39746163 22.00847395 957.19873189 22.00733213 1033 22 C1032.68501354 23.44383653 1032.36842689 24.88732403 1032.05116272 26.33066177 C1031.8750348 27.13454087 1031.69890688 27.93841996 1031.51744175 28.76665902 C1030.94644563 31.23114711 1030.22533722 33.58694617 1029.37109375 35.96777344 C1028.9087307 37.26923309 1028.9087307 37.26923309 1028.43702698 38.59698486 C1028.10718307 39.50857361 1027.77733917 40.42016235 1027.4375 41.359375 C1027.08956894 42.33493347 1026.74163788 43.31049194 1026.38316345 44.31561279 C1025.26009949 47.46209552 1024.1299912 50.60599928 1023 53.75 C1021.45733988 58.06689021 1019.91829611 62.38506775 1018.37890625 66.703125 C1017.81122276 68.29302246 1017.81122276 68.29302246 1017.23207092 69.91503906 C1012.71562267 82.57448169 1008.3539492 95.28370393 1004 108 C1023.14 108.33 1042.28 108.66 1062 109 C1058.62461464 121.376413 1058.62461464 121.376413 1056.96630859 126.17626953 C1056.59516937 127.25595001 1056.22403015 128.33563049 1055.84164429 129.44802856 C1055.25100693 131.14824661 1055.25100693 131.14824661 1054.6484375 132.8828125 C1054.23010651 134.09532684 1053.81177551 135.30784119 1053.38076782 136.55709839 C1052.49708469 139.11776838 1051.61106388 141.67761232 1050.72314453 144.23681641 C1049.61387849 147.43417158 1048.5090584 150.63303867 1047.40581894 153.83247757 C1042.97476788 166.68002353 1038.49423749 179.50948563 1033.9140625 192.3046875 C1033.34285172 193.90777267 1033.34285172 193.90777267 1032.76010132 195.54324341 C1032.41081573 196.5136557 1032.06153015 197.48406799 1031.70166016 198.48388672 C1031.39588043 199.33586639 1031.09010071 200.18784607 1030.77505493 201.06564331 C1030 203 1030 203 1029 204 C1027.46617321 204.1225355 1025.92689481 204.17777938 1024.38842773 204.20532227 C1023.40748642 204.22526749 1022.4265451 204.24521271 1021.4158783 204.26576233 C1019.81589745 204.29083107 1019.81589745 204.29083107 1018.18359375 204.31640625 C1017.0974025 204.33718735 1016.01121124 204.35796844 1014.8921051 204.37937927 C1011.40730373 204.44499442 1007.92242432 204.50381511 1004.4375 204.5625 C1002.08137199 204.60567385 999.72525201 204.64928776 997.36914062 204.69335938 C991.57951063 204.80068792 985.78980225 204.90243165 980 205 C979.47043701 206.47593628 979.47043701 206.47593628 978.93017578 207.98168945 C977.61850776 211.63404784 976.30151511 215.28446709 974.98291016 218.93432617 C974.41309661 220.51388047 973.84472585 222.09395602 973.27783203 223.67456055 C972.46245571 225.94718999 971.64189875 228.21789058 970.8203125 230.48828125 C970.56814972 231.19463211 970.31598694 231.90098297 970.05618286 232.6287384 C968.93545917 235.71160997 967.83016191 238.25475714 966 241 C963.47802734 241.34057617 963.47802734 241.34057617 960.3359375 241.29296875 C959.21445312 241.28330078 958.09296875 241.27363281 956.9375 241.26367188 C955.761875 241.23853516 954.58625 241.21339844 953.375 241.1875 C952.19164062 241.17396484 951.00828125 241.16042969 949.7890625 241.14648438 C946.85892461 241.11103916 943.92968541 241.06162769 941 241 C940.83908875 241.56271606 940.67817749 242.12543213 940.51239014 242.7052002 C938.33893437 250.13944282 935.79856021 257.42274141 933.203125 264.71875 C932.73205877 266.04840621 932.26119793 267.3781352 931.79052734 268.70793152 C930.53819144 272.24412328 929.28282449 275.77923118 928.02662659 279.31405258 C926.98708635 282.24001512 925.94898616 285.1664877 924.9108696 288.09295559 C922.57809654 294.66900002 920.24302954 301.24422595 917.90625 307.81884766 C915.7156932 313.98225622 913.53048679 320.14753897 911.34869385 326.3140564 C909.96638166 330.21921695 908.58086293 334.123233 907.19421387 338.02685547 C906.5696875 339.78667146 905.94637643 341.54691926 905.32434082 343.30761719 C904.47507431 345.71029549 903.62101734 348.11121579 902.765625 350.51171875 C902.52602051 351.19308395 902.28641602 351.87444916 902.03955078 352.57646179 C900.59927906 356.59827599 898.931556 360.136888 897 364 C653.46 364 409.92 364 159 364 C160.82649521 357.91168262 162.64813734 352.04723203 164.91796875 346.1484375 C165.45648988 344.70495298 165.99355328 343.26092394 166.52929688 341.81640625 C167.35251062 339.60019289 168.1824222 337.38808302 169.0378418 335.18408203 C173.03076165 324.85776455 175.80111039 315.17452839 174 304 C171.82372284 300.03573884 169.21183594 297.1551898 166 294 C164.82654793 292.56803366 163.65946925 291.13081161 162.5 289.6875 C158.84896438 285.21109729 154.13416013 281.51701859 148.349823 280.56282043 C145.29944095 280.42718816 142.28314392 280.43847575 139.23046875 280.50390625 C136.93684886 280.5020758 134.64322906 280.50011873 132.34960938 280.49804688 C128.76865203 280.52526264 125.18798235 280.56249424 121.60717773 280.60522461 C118.12704486 280.63804475 114.64822023 280.6346504 111.16796875 280.62890625 C110.1124028 280.65368546 109.05683685 280.67846466 107.96928406 280.70399475 C98.11547551 280.67068552 90.98262627 276.84614712 83.6875 270.375 C76.20768353 262.37190418 72.60733753 252.60798194 72.7890625 241.72265625 C73.74694299 229.35890255 77.43642805 216.1271439 83 205 C82.25016846 204.93006836 81.50033691 204.86013672 80.7277832 204.78808594 C52.77771748 202.11615158 52.77771748 202.11615158 43 198 C42.13117187 197.65324219 41.26234375 197.30648437 40.3671875 196.94921875 C28.45233743 191.64765702 18.77353957 181.44458346 13.8125 169.4140625 C7.2981199 150.05883701 13.07704517 130.34849309 19.5 111.8125 C20.03130141 110.25151333 20.56197045 108.69031131 21.09204102 107.12890625 C34.20605077 68.68687979 34.20605077 68.68687979 41.27954102 53.54101562 C42.2464562 51.04649286 42.2464562 51.04649286 41.2578125 48.81274414 C39.51967161 46.30775655 37.52698117 44.15777812 35.4375 41.9375 C32.0046517 38.24636541 28.72061908 34.49589741 25.5625 30.5625 C22.34054956 26.56773606 18.9932543 22.7546584 15.5 19 C2.51613209 5.03226419 2.51613209 5.03226419 0 0 Z " fill="#06519B" transform="translate(0,0)"/>
<path d="M0 0 C244.53 0 489.06 0 741 0 C740.30133798 4.1919721 739.73014189 7.11687909 738.25 10.921875 C737.89325195 11.85217529 737.53650391 12.78247559 737.16894531 13.7409668 C736.59031738 15.23043823 736.59031738 15.23043823 736 16.75 C732.19143501 26.7109215 728.61136164 36.73099781 725.18359375 46.82910156 C722.63209655 54.30919307 719.8431642 61.60777309 717 69 C483.36 69 249.72 69 9 69 C9.89585986 64.52070069 11.18497377 60.47424284 12.7578125 56.21484375 C13.30641459 54.70002364 13.85457862 53.18504483 14.40234375 51.66992188 C15.26465147 49.2959902 16.13019301 46.92340612 17.00341797 44.5534668 C17.84788837 42.25647879 18.67880347 39.95494913 19.5078125 37.65234375 C19.77232208 36.94496567 20.03683167 36.23758759 20.30935669 35.5087738 C21.26289259 32.83728966 22.04608071 30.58735519 21.82202148 27.73144531 C20.87642891 25.73971899 19.80461373 24.2943604 18.33984375 22.64453125 C17.52519653 21.7167688 17.52519653 21.7167688 16.6940918 20.77026367 C16.1144165 20.12420166 15.53474121 19.47813965 14.9375 18.8125 C14.35202393 18.14774658 13.76654785 17.48299316 13.16333008 16.7980957 C10.58344434 13.87427257 7.9777033 10.97539447 5.359375 8.0859375 C4.64265625 7.29445313 3.9259375 6.50296875 3.1875 5.6875 C2.56230469 5.01074219 1.93710938 4.33398438 1.29296875 3.63671875 C0 2 0 2 0 0 Z " fill="#06519B" transform="translate(170,282)"/>
<path d="M0 0 C23.04507697 -0.07027462 46.09013611 -0.12307823 69.13529873 -0.15543652 C79.8370619 -0.17086453 90.53875825 -0.19187576 101.24047852 -0.22631836 C110.5748517 -0.25634579 119.90917646 -0.2756045 129.24359661 -0.28226548 C134.17996506 -0.28615526 139.11619505 -0.29521073 144.05251884 -0.31719017 C148.71216708 -0.33776682 153.37162167 -0.34379168 158.03131104 -0.33932304 C159.72865417 -0.34013888 161.42600475 -0.34597704 163.12330818 -0.35761642 C182.98762034 -0.48699274 203.19728425 1.75556538 219 15 C220.14342784 16.52173834 220.14342784 16.52173834 221.30995524 18.07421887 C225.20778707 21.94566745 229.19604409 21.72957686 234.4766708 21.79680657 C235.75721984 21.78264884 237.03776887 21.7684911 238.35712242 21.75390434 C239.74211488 21.76005235 241.12709772 21.76883089 242.51205879 21.77999961 C246.32984001 21.80313098 250.14671269 21.78880311 253.96447652 21.76853636 C258.11316504 21.75310513 262.26171287 21.77242993 266.41038287 21.78740036 C273.68519528 21.80883935 280.95974184 21.80796964 288.23456573 21.79260826 C299.05194036 21.76986699 309.86908708 21.78141246 320.68645982 21.80006396 C338.88189504 21.83046171 357.07723455 21.83293316 375.272686 21.81957626 C393.29258924 21.80643918 411.31242294 21.80566065 429.33232498 21.82144547 C430.45208074 21.82241937 431.5718365 21.82339328 432.72552426 21.8243967 C438.41202696 21.82940701 444.09852944 21.83463868 449.78503187 21.83995558 C490.07918869 21.87723239 530.37330901 21.88671241 570.66748047 21.87988281 C609.81658257 21.87331082 648.96564972 21.87930644 688.11474609 21.90234375 C689.32115411 21.90304865 690.52756213 21.90375355 691.77052797 21.90447981 C703.88559754 21.91157248 716.00066693 21.91892096 728.11573623 21.92645685 C752.79628307 21.94180299 777.47683076 21.95544165 802.15737915 21.9680481 C803.29219046 21.96862984 804.42700177 21.96921159 805.5962013 21.96981097 C881.39746163 22.00847395 957.19873189 22.00733213 1033 22 C1032.68501354 23.44383653 1032.36842689 24.88732403 1032.05116272 26.33066177 C1031.8750348 27.13454087 1031.69890688 27.93841996 1031.51744175 28.76665902 C1030.94644563 31.23114711 1030.22533722 33.58694617 1029.37109375 35.96777344 C1028.9087307 37.26923309 1028.9087307 37.26923309 1028.43702698 38.59698486 C1028.10718307 39.50857361 1027.77733917 40.42016235 1027.4375 41.359375 C1027.08956894 42.33493347 1026.74163788 43.31049194 1026.38316345 44.31561279 C1025.26009949 47.46209552 1024.1299912 50.60599928 1023 53.75 C1021.45733988 58.06689021 1019.91829611 62.38506775 1018.37890625 66.703125 C1017.81122276 68.29302246 1017.81122276 68.29302246 1017.23207092 69.91503906 C1012.71562267 82.57448169 1008.3539492 95.28370393 1004 108 C1023.14 108.33 1042.28 108.66 1062 109 C1058.62461464 121.376413 1058.62461464 121.376413 1056.96630859 126.17626953 C1056.59516937 127.25595001 1056.22403015 128.33563049 1055.84164429 129.44802856 C1055.25100693 131.14824661 1055.25100693 131.14824661 1054.6484375 132.8828125 C1054.23010651 134.09532684 1053.81177551 135.30784119 1053.38076782 136.55709839 C1052.49708469 139.11776838 1051.61106388 141.67761232 1050.72314453 144.23681641 C1049.61387849 147.43417158 1048.5090584 150.63303867 1047.40581894 153.83247757 C1042.97476788 166.68002353 1038.49423749 179.50948563 1033.9140625 192.3046875 C1033.34285172 193.90777267 1033.34285172 193.90777267 1032.76010132 195.54324341 C1032.41081573 196.5136557 1032.06153015 197.48406799 1031.70166016 198.48388672 C1031.39588043 199.33586639 1031.09010071 200.18784607 1030.77505493 201.06564331 C1030 203 1030 203 1029 204 C1027.46617321 204.1225355 1025.92689481 204.17777938 1024.38842773 204.20532227 C1023.40748642 204.22526749 1022.4265451 204.24521271 1021.4158783 204.26576233 C1019.81589745 204.29083107 1019.81589745 204.29083107 1018.18359375 204.31640625 C1017.0974025 204.33718735 1016.01121124 204.35796844 1014.8921051 204.37937927 C1011.40730373 204.44499442 1007.92242432 204.50381511 1004.4375 204.5625 C1002.08137199 204.60567385 999.72525201 204.64928776 997.36914062 204.69335938 C991.57951063 204.80068792 985.78980225 204.90243165 980 205 C979.47043701 206.47593628 979.47043701 206.47593628 978.93017578 207.98168945 C977.61850776 211.63404784 976.30151511 215.28446709 974.98291016 218.93432617 C974.41309661 220.51388047 973.84472585 222.09395602 973.27783203 223.67456055 C972.46245571 225.94718999 971.64189875 228.21789058 970.8203125 230.48828125 C970.56814972 231.19463211 970.31598694 231.90098297 970.05618286 232.6287384 C968.93545917 235.71160997 967.83016191 238.25475714 966 241 C963.47802734 241.34057617 963.47802734 241.34057617 960.3359375 241.29296875 C959.21445312 241.28330078 958.09296875 241.27363281 956.9375 241.26367188 C955.761875 241.23853516 954.58625 241.21339844 953.375 241.1875 C952.19164062 241.17396484 951.00828125 241.16042969 949.7890625 241.14648438 C946.85892461 241.11103916 943.92968541 241.06162769 941 241 C940.83908875 241.56271606 940.67817749 242.12543213 940.51239014 242.7052002 C938.33893437 250.13944282 935.79856021 257.42274141 933.203125 264.71875 C932.73205877 266.04840621 932.26119793 267.3781352 931.79052734 268.70793152 C930.53819144 272.24412328 929.28282449 275.77923118 928.02662659 279.31405258 C926.98708635 282.24001512 925.94898616 285.1664877 924.9108696 288.09295559 C922.57809654 294.66900002 920.24302954 301.24422595 917.90625 307.81884766 C915.7156932 313.98225622 913.53048679 320.14753897 911.34869385 326.3140564 C909.96638166 330.21921695 908.58086293 334.123233 907.19421387 338.02685547 C906.5696875 339.78667146 905.94637643 341.54691926 905.32434082 343.30761719 C904.47507431 345.71029549 903.62101734 348.11121579 902.765625 350.51171875 C902.52602051 351.19308395 902.28641602 351.87444916 902.03955078 352.57646179 C900.59927906 356.59827599 898.931556 360.136888 897 364 C653.46 364 409.92 364 159 364 C160.82649521 357.91168262 162.64813734 352.04723203 164.91796875 346.1484375 C165.45648988 344.70495298 165.99355328 343.26092394 166.52929688 341.81640625 C167.35251062 339.60019289 168.1824222 337.38808302 169.0378418 335.18408203 C173.03076165 324.85776455 175.80111039 315.17452839 174 304 C171.82372284 300.03573884 169.21183594 297.1551898 166 294 C164.82654793 292.56803366 163.65946925 291.13081161 162.5 289.6875 C158.84896438 285.21109729 154.13416013 281.51701859 148.349823 280.56282043 C145.29944095 280.42718816 142.28314392 280.43847575 139.23046875 280.50390625 C136.93684886 280.5020758 134.64322906 280.50011873 132.34960938 280.49804688 C128.76865203 280.52526264 125.18798235 280.56249424 121.60717773 280.60522461 C118.12704486 280.63804475 114.64822023 280.6346504 111.16796875 280.62890625 C110.1124028 280.65368546 109.05683685 280.67846466 107.96928406 280.70399475 C98.11547551 280.67068552 90.98262627 276.84614712 83.6875 270.375 C76.20768353 262.37190418 72.60733753 252.60798194 72.7890625 241.72265625 C73.74694299 229.35890255 77.43642805 216.1271439 83 205 C82.25016846 204.93006836 81.50033691 204.86013672 80.7277832 204.78808594 C52.77771748 202.11615158 52.77771748 202.11615158 43 198 C42.13117187 197.65324219 41.26234375 197.30648437 40.3671875 196.94921875 C28.45233743 191.64765702 18.77353957 181.44458346 13.8125 169.4140625 C7.2981199 150.05883701 13.07704517 130.34849309 19.5 111.8125 C20.03130141 110.25151333 20.56197045 108.69031131 21.09204102 107.12890625 C34.20605077 68.68687979 34.20605077 68.68687979 41.27954102 53.54101562 C42.2464562 51.04649286 42.2464562 51.04649286 41.2578125 48.81274414 C39.51967161 46.30775655 37.52698117 44.15777812 35.4375 41.9375 C32.0046517 38.24636541 28.72061908 34.49589741 25.5625 30.5625 C22.34054956 26.56773606 18.9932543 22.7546584 15.5 19 C2.51613209 5.03226419 2.51613209 5.03226419 0 0 Z M31 14 C33.65850687 18.05812536 36.36404324 21.64997195 39.6875 25.1875 C43.96122127 29.80790957 47.9769089 34.56759655 51.89453125 39.4921875 C54.12769406 42.1520957 56.51287161 44.57797968 59 47 C57.80641646 49.99762868 56.59730311 52.98848678 55.37768555 55.97558594 C50.27212464 68.54026091 45.55571609 81.22563099 40.98071289 93.9921875 C39.80808603 97.2623093 38.62803351 100.52968513 37.44726562 103.796875 C24.74944106 134.5401443 24.74944106 134.5401443 27.55078125 166.4375 C34.38355327 178.51916697 44.82120056 184.38617699 57.7265625 188.23828125 C63.79483633 189.65034974 69.55289169 190.05097333 75.765625 190.140625 C76.98507813 190.15996094 78.20453125 190.17929688 79.4609375 190.19921875 C82.0024413 190.23328014 84.54420678 190.25131793 87.0859375 190.25390625 C88.30023438 190.27839844 89.51453125 190.30289063 90.765625 190.328125 C92.41739746 190.34214355 92.41739746 190.34214355 94.10253906 190.35644531 C97 191 97 191 99.44775391 193.29907227 C101 196 101 196 100.0703125 199.88671875 C99.38885054 201.59461952 98.69745211 203.29856649 98 205 C97.17343802 207.35668971 96.35929521 209.71775599 95.5546875 212.08203125 C95.11418733 213.35643334 94.67276844 214.63051822 94.23046875 215.90429688 C94.00794434 216.54616943 93.78541992 217.18804199 93.55615234 217.84936523 C93.09889372 219.16722064 92.64120557 220.48492709 92.18310547 221.80249023 C91.51375691 223.72847292 90.84655914 225.65518977 90.1796875 227.58203125 C89.78507324 228.71874268 89.39045898 229.8554541 88.98388672 231.02661133 C86.54491414 238.39739223 85.63500413 245.45204626 88.6875 252.8125 C92.43337548 260.2389918 99.15264273 265.38421424 107 268 C108.85361372 268.09225734 110.71043101 268.12448503 112.56633919 268.1241985 C113.73414901 268.12644579 114.90195882 268.12869308 116.10515681 268.13100848 C118.04261496 268.12706796 118.04261496 268.12706796 120.01921368 268.12304783 C121.40410712 268.12378704 122.78900038 268.12496516 124.17389312 268.12654433 C128.00512363 268.12962653 131.8363278 268.12642734 135.66755636 268.12226619 C139.82588111 268.11884336 143.98420308 268.12120061 148.14252836 268.12284368 C155.43892197 268.12492163 162.73530746 268.12326648 170.03170013 268.11920547 C180.88125995 268.11318358 191.7308146 268.11286845 202.58037578 268.11374746 C220.8288813 268.11506306 239.07738321 268.11171351 257.32588768 268.10573006 C275.40127772 268.09981852 293.47666626 268.09596522 311.55205727 268.09487724 C312.67479194 268.0948085 313.79752661 268.09473976 314.95428355 268.09466894 C320.65579305 268.09433062 326.35730255 268.09402923 332.05881206 268.09374207 C372.47109383 268.09164014 412.88337363 268.08489856 453.2956543 268.07543945 C492.56225575 268.0662591 531.82885667 268.05917349 571.09545898 268.05493164 C572.30524969 268.05480011 573.5150404 268.05466859 574.76149144 268.05453308 C586.91040651 268.05321459 599.05932159 268.05193877 611.20823668 268.05069422 C635.95826723 268.04815782 660.70829775 268.04533657 685.45832825 268.04234314 C686.5963624 268.04220585 687.73439656 268.04206856 688.9069166 268.04192711 C764.93794522 268.03272223 840.96897275 268.01687654 917 268 C918.51277879 263.75032377 920.0243669 259.50022637 921.53491211 255.24975586 C922.04761573 253.80758576 922.56062948 252.36552586 923.07397461 250.92358398 C923.81708512 248.83607296 924.55903295 246.74815163 925.30078125 244.66015625 C925.63847282 243.71270287 925.63847282 243.71270287 925.98298645 242.74610901 C927.72069137 237.84926602 929.35594061 232.93217816 931 228 C939.58 227.67 948.16 227.34 957 227 C959.55997769 220.07418481 959.55997769 220.07418481 962.109375 213.14453125 C963.25825519 210.01412285 964.41395795 206.88646945 965.578125 203.76171875 C966.02671875 202.54097656 966.4753125 201.32023438 966.9375 200.0625 C967.53884766 198.44021484 967.53884766 198.44021484 968.15234375 196.78515625 C969.19410774 193.84743261 969.19410774 193.84743261 969 190 C985.5 190 1002 190 1019 190 C1021.67360267 183.98439399 1024.12529881 178.13417418 1026.25 171.9375 C1026.54302002 171.091875 1026.83604004 170.24625 1027.13793945 169.375 C1030.51672191 159.58070661 1033.78464136 149.7484494 1037.03271484 139.91015625 C1037.72341953 137.83211488 1038.42260771 135.75688542 1039.12744141 133.68359375 C1039.49401855 132.60207031 1039.8605957 131.52054687 1040.23828125 130.40625 C1040.57512939 129.41947266 1040.91197754 128.43269531 1041.2590332 127.41601562 C1042.09773666 125.1024983 1042.09773666 125.1024983 1042 123 C1022.86 123 1003.72 123 984 123 C993.67507167 93.70224775 993.67507167 93.70224775 998.5 80.4375 C1001.685053 71.67537471 1004.82075438 62.89826458 1007.87890625 54.09109497 C1008.33147384 52.78945806 1008.78571508 51.48840174 1009.24169922 50.18795776 C1009.87535677 48.37951058 1010.50228291 46.56870905 1011.12890625 44.7578125 C1011.67140015 43.19764404 1011.67140015 43.19764404 1012.22485352 41.60595703 C1013.14255314 38.97388509 1013.14255314 38.97388509 1013 36 C750.32 36 487.64 36 217 36 C216.01 33.525 216.01 33.525 215 31 C208.4870967 21.97163405 196.61465065 17.17937436 186 15 C178.18218494 13.90569035 170.45871537 13.86468011 162.57592773 13.88647461 C161.13619489 13.88675715 159.69646189 13.88659744 158.25672913 13.8860321 C154.37307561 13.88574674 150.48945336 13.89160114 146.60580707 13.89860606 C142.53791131 13.90488318 138.47001472 13.90544684 134.40211487 13.90663147 C126.71005963 13.90973198 119.01801871 13.91792803 111.32596976 13.92798096 C102.56414012 13.93918196 93.80230979 13.94466257 85.04047477 13.94967639 C67.02697508 13.96011178 49.0134887 13.97768631 31 14 Z M170 282 C171.90523175 285.8104635 173.67659044 287.99593882 176.5625 291.0625 C180.15247356 294.95511668 183.66476616 298.87546563 187.0625 302.9375 C187.79597656 303.81277344 188.52945313 304.68804687 189.28515625 305.58984375 C190.96296279 307.94794542 191.56198881 309.19782544 192 312 C191.18427466 314.80349104 190.29317039 317.44138977 189.25390625 320.16015625 C188.81896095 321.33958046 188.81896095 321.33958046 188.37522888 322.54283142 C187.44782685 325.0533049 186.50607782 327.55806617 185.5625 330.0625 C184.62458795 332.57120459 183.689819 335.08098586 182.76048279 337.59288025 C182.18170156 339.15527401 181.59760673 340.71571168 181.00770569 342.27394104 C179.87503627 345.31567001 179 347.72610739 179 351 C412.64 351 646.28 351 887 351 C890.90462638 340.58766298 894.74789129 330.17471213 898.4375 319.6875 C901.8859845 309.90366913 905.36160356 300.1332896 909.07006836 290.4440918 C910.18680824 287.47988854 911 285.19714422 911 282 C666.47 282 421.94 282 170 282 Z " fill="#CBCCCC" transform="translate(0,0)"/>
<path d="M0 0 C12.70071283 -0.06971638 25.40137963 -0.12292087 38.10224533 -0.15543652 C44.00068707 -0.17104765 49.89899724 -0.19220244 55.79736328 -0.22631836 C61.49674003 -0.25907452 67.19599074 -0.2768872 72.89545441 -0.28463173 C75.06260408 -0.29014615 77.22974739 -0.300914 79.39684296 -0.31719017 C108.19745127 -0.52476561 108.19745127 -0.52476561 116.6953125 7.40234375 C120.06137559 11.52425933 120.33595187 14.68636121 120 20 C119.50081147 22.45611377 118.91356086 24.89560716 118.25 27.3125 C117.92515625 28.52550781 117.6003125 29.73851563 117.265625 30.98828125 C115.76446364 35.74659211 113.85304996 40.3673751 112 45 C97.81 45 83.62 45 69 45 C71 36 71 36 74 27 C60.635 27.495 60.635 27.495 47 28 C40.99691585 41.24209739 35.57819739 54.48659631 30.75 68.1875 C30.38449036 69.21807526 30.38449036 69.21807526 30.01159668 70.26947021 C25.95257767 81.75039212 22.50456136 93.31812881 19 105 C42.43 105 65.86 105 90 105 C87.74794354 115.13425409 87.74794354 115.13425409 86.52734375 118.5625 C86.26759766 119.29597656 86.00785156 120.02945313 85.74023438 120.78515625 C85.47533203 121.51605469 85.21042969 122.24695313 84.9375 123 C84.66873047 123.76183594 84.39996094 124.52367187 84.12304688 125.30859375 C82.13842536 130.86157464 82.13842536 130.86157464 81 132 C78.23308598 132.10588116 75.49100505 132.1467776 72.72338867 132.14526367 C71.42072052 132.15030159 71.42072052 132.15030159 70.09173584 132.15544128 C67.20046582 132.16499178 64.30925359 132.16689726 61.41796875 132.16796875 C59.40790279 132.17118143 57.39783707 132.17454552 55.38777161 132.17805481 C51.15995747 132.18405836 46.9321638 132.18589375 42.7043457 132.18530273 C37.31235696 132.18520171 31.92050169 132.19878601 26.52854443 132.21607494 C22.3684073 132.22725733 18.20830163 132.22921994 14.04815102 132.22869301 C12.06243752 132.22986635 10.07672303 132.23425152 8.0910244 132.24202538 C-22.11917812 132.34910378 -22.11917812 132.34910378 -30 125 C-33.99589996 119.40574005 -33.82888675 114.66621632 -33 108 C-29.55491212 91.57049469 -22.67492021 75.70790526 -16.76477051 60.03326416 C-15.9860522 57.96291756 -15.21263089 55.89065655 -14.44042969 53.81787109 C-13.14183292 50.33485787 -11.83059541 46.85683807 -10.51031494 43.38198853 C-10.01289584 42.06896103 -9.51874199 40.75469072 -9.02825928 39.4390564 C-5.38969769 29.70086854 -1.49314012 19.4393345 6 12 C6 8.86416588 4.38616776 7.15677336 2.4375 4.875 C0 2 0 2 0 0 Z " fill="#FDFEFE" transform="translate(80,36)"/>
<path d="M0 0 C11.70947301 -0.04642961 23.41892395 -0.08192314 35.12847042 -0.10362434 C40.56623026 -0.1140421 46.00392691 -0.1281646 51.44165039 -0.15087891 C56.69362061 -0.17267891 61.9455302 -0.18458372 67.19754219 -0.18975449 C69.19690466 -0.19343741 71.19626398 -0.20062913 73.19560051 -0.21146011 C76.00539075 -0.22607018 78.81493348 -0.22797398 81.62475586 -0.22705078 C82.44331558 -0.23424133 83.26187531 -0.24143188 84.10523987 -0.24884033 C92.94341945 -0.21761002 101.44004175 1.16003516 108.375 7 C111.61569956 12.98282996 110.70340712 18.85350383 108.859375 25.21484375 C105.57481437 35.52094447 101.92862871 44.42796861 92.16796875 50.03515625 C88.57196513 51.63553984 84.87533276 52.39896459 81 53 C81 53.66 81 54.32 81 55 C81.60328125 55.15855469 82.2065625 55.31710938 82.828125 55.48046875 C86.63571092 56.59203819 89.48163109 57.5701331 92.5625 60.125 C95.19005104 65.38010208 94.48863898 70.9903891 92.80664062 76.51000977 C92.27039078 78.07529949 91.72006002 79.63583109 91.15625 81.19140625 C90.77291504 82.29832825 90.77291504 82.29832825 90.38183594 83.4276123 C89.43641605 86.14457563 88.46683695 88.85308405 87.5 91.5625 C85.355 97.646875 83.21 103.73125 81 110 C66.81 110 52.62 110 38 110 C39.86288941 103.79036863 41.74345002 97.67891656 43.91796875 91.5859375 C44.31113029 90.47516342 44.31113029 90.47516342 44.7122345 89.34194946 C45.53507956 87.01883013 46.36122092 84.69689984 47.1875 82.375 C47.75217358 80.78263024 48.31662845 79.19018291 48.88085938 77.59765625 C50.25098523 73.73072249 51.62558091 69.8654205 53 66 C45.08 66 37.16 66 29 66 C28.67 67.98 28.34 69.96 28 72 C27.2502252 74.30582129 26.44625035 76.59441904 25.6015625 78.8671875 C25.24812271 79.82481491 25.24812271 79.82481491 24.88754272 80.80178833 C24.13834396 82.82808035 23.3818047 84.85153814 22.625 86.875 C22.12451403 88.22508036 21.62450983 89.57533943 21.125 90.92578125 C18.76768173 97.29049205 16.3831567 103.64491546 14 110 C-0.19 110 -14.38 110 -29 110 C-27.87517479 103.25104874 -27.87517479 103.25104874 -26.66552734 99.87182617 C-26.26160263 98.73104362 -26.26160263 98.73104362 -25.84951782 97.56721497 C-25.55628632 96.75483871 -25.26305481 95.94246246 -24.9609375 95.10546875 C-24.65199554 94.23657516 -24.34305359 93.36768158 -24.02474976 92.47245789 C-23.36165985 90.60804339 -22.69656969 88.74433929 -22.02966309 86.88128662 C-20.65947681 83.04712045 -19.3059392 79.20716186 -17.95187378 75.36727905 C-16.54397238 71.37682439 -15.13085978 67.38822198 -13.71795654 63.39953613 C-12.60180134 60.24697579 -11.48757565 57.09373788 -10.37353516 53.94042969 C-7.24687536 45.09851835 -4.12058727 36.25818202 -0.859375 27.46484375 C-0.42802246 26.29590576 0.00333008 25.12696777 0.44775391 23.92260742 C1.20612496 21.87884304 1.97335821 19.83833433 2.75146484 17.80200195 C3.07324707 16.93406006 3.3950293 16.06611816 3.7265625 15.171875 C4.13769287 14.0905127 4.13769287 14.0905127 4.55712891 12.98730469 C5.08738267 10.60788595 4.86035894 9.26859635 4 7 C2.9790625 5.9790625 2.9790625 5.9790625 1.9375 4.9375 C1.298125 4.298125 0.65875 3.65875 0 3 C0 2.01 0 1.02 0 0 Z " fill="#FDFDFE" transform="translate(652,58)"/>
<path d="M0 0 C17.16 0 34.32 0 52 0 C58.91678687 21.90315841 58.91678687 21.90315841 61.140625 29.140625 C61.39374451 29.96278503 61.64686401 30.78494507 61.90765381 31.63201904 C62.42868855 33.32504885 62.9493849 35.01818283 63.46972656 36.71142578 C64.2626078 39.29101875 65.05702801 41.87013457 65.8515625 44.44921875 C66.36467366 46.11715972 66.87769783 47.78512745 67.390625 49.453125 C67.62396545 50.21046936 67.85730591 50.96781372 68.09771729 51.74810791 C69.44975152 56.15187303 70.74891721 60.56646625 72 65 C72.31114746 64.0613208 72.62229492 63.1226416 72.94287109 62.15551758 C79.82976751 41.38945233 86.8287795 20.66998849 94 0 C106.54 0 119.08 0 132 0 C130.58679838 6.35940727 129.04011624 12.22703237 126.875 18.3125 C126.54298584 19.25762451 126.21097168 20.20274902 125.86889648 21.17651367 C121.66986243 33.05549126 117.32204031 44.88186057 113.00228882 56.71731567 C107.82704015 70.89822372 102.74929696 85.10266866 97.9128418 99.40332031 C96.66408231 102.95555512 95.32209854 106.4744039 94 110 C80.47 110 66.94 110 53 110 C37.87394958 65.77430972 37.87394958 65.77430972 32 48 C27.05492012 60.84487698 22.59115192 73.83608694 18.1875 86.875 C17.16922252 89.88578973 16.15019115 92.89631805 15.12947083 95.90628052 C14.5002595 97.76211093 13.87250545 99.61843623 13.24638367 101.47531128 C12.96551407 102.30443024 12.68464447 103.13354919 12.39526367 103.98779297 C12.14910812 104.71674774 11.90295258 105.44570251 11.64933777 106.19674683 C11 108 11 108 10 110 C-2.21 110 -14.42 110 -27 110 C-24.75184794 99.88331573 -24.75184794 99.88331573 -22.96875 95.015625 C-22.5756665 93.93112061 -22.18258301 92.84661621 -21.77758789 91.72924805 C-21.35598389 90.58109619 -20.93437988 89.43294434 -20.5 88.25 C-19.59103753 85.74138265 -18.68327256 83.23236722 -17.77734375 80.72265625 C-17.42995399 79.76230217 -17.42995399 79.76230217 -17.07554626 78.782547 C-14.2400896 70.92691933 -11.54074656 63.02460003 -8.84643555 55.11962891 C-6.60180394 48.55894326 -4.29162156 42.03207147 -1.890625 35.52734375 C-1.11652721 33.4127525 -0.34343497 31.29779585 0.42947388 29.18276978 C0.92951923 27.82532551 1.43516373 26.46992898 1.94674683 25.11679077 C2.65935781 23.23148259 3.35156409 21.33850054 4.04296875 19.4453125 C4.44539795 18.36781738 4.84782715 17.29032227 5.26245117 16.18017578 C6.16192928 12.30179051 6.03612121 9.84845022 5 6 C3.35 4.02 1.7 2.04 0 0 Z " fill="#FDFDFE" transform="translate(343,58)"/>
<path d="M0 0 C26.73 0 53.46 0 81 0 C81 12.37662476 81 12.37662476 80.51269531 17.46069336 C80.40535065 18.60610596 80.29800598 19.75151855 80.18740845 20.93164062 C80.06884491 22.13884766 79.95028137 23.34605469 79.828125 24.58984375 C79.64435806 26.52065796 79.64435806 26.52065796 79.45687866 28.49047852 C79.12875235 31.93277625 78.79379019 35.37437445 78.45703888 38.81583786 C78.24943932 40.9432457 78.04388916 43.07084152 77.83905029 45.19851685 C75.75686159 66.82290462 73.49384931 88.41861178 71 110 C56.48 110 41.96 110 27 110 C27.474375 106.101875 27.94875 102.20375 28.4375 98.1875 C28.58501709 96.96184326 28.73253418 95.73618652 28.88452148 94.47338867 C29.00384033 93.5063501 29.12315918 92.53931152 29.24609375 91.54296875 C29.36654053 90.55321045 29.4869873 89.56345215 29.61108398 88.54370117 C30 86 30 86 31 83 C22.42108447 81.86267652 13.21958845 80.81392612 5 84 C-1.69161026 90.36765344 -4.85061197 99.49759808 -8 108 C-8.33 108.66 -8.66 109.32 -9 110 C-23.19 110 -37.38 110 -52 110 C-50.58391514 105.75174542 -49.69087885 103.16030821 -47.41796875 99.59375 C-46.64900269 98.3728064 -46.64900269 98.3728064 -45.86450195 97.12719727 C-45.31109131 96.26022217 -44.75768066 95.39324707 -44.1875 94.5 C-42.99552287 92.60404081 -41.80547328 90.70686866 -40.6171875 88.80859375 C-40.01100586 87.84034668 -39.40482422 86.87209961 -38.78027344 85.87451172 C-36.05658249 81.47671451 -33.42994931 77.024099 -30.8125 72.5625 C-25.95304722 64.29182543 -21.04787233 56.05017202 -16.10888672 47.82684326 C-14.94589603 45.88899004 -13.7851899 43.94978501 -12.625 42.01025391 C-9.17651372 36.25061671 -5.70880404 30.50795181 -2.1484375 24.81640625 C-1.29390991 23.43702881 -1.29390991 23.43702881 -0.42211914 22.02978516 C0.61853018 20.3538236 1.67070222 18.68493825 2.73657227 17.02490234 C5.27772549 12.9663668 5.27772549 12.9663668 6.11328125 8.34765625 C4.71947791 5.15650755 4.71947791 5.15650755 0 0 Z " fill="#FDFEFE" transform="translate(809,58)"/>
<path d="M0 0 C36.63 0 73.26 0 111 0 C107.62354006 12.3803531 107.62354006 12.3803531 105.9921875 16.81640625 C105.64542969 17.76451172 105.29867187 18.71261719 104.94140625 19.68945312 C104.58949219 20.63755859 104.23757813 21.58566406 103.875 22.5625 C103.51535156 23.54541016 103.15570313 24.52832031 102.78515625 25.54101562 C100.16554383 32.66891234 100.16554383 32.66891234 99 35 C87.45 35 75.9 35 64 35 C65 28 65 28 66 24 C59.07 24 52.14 24 45 24 C41.535 33.9 41.535 33.9 38 44 C48.56 44 59.12 44 70 44 C67 54 67 54 63 64 C52.11 64 41.22 64 30 64 C29.01 67.63 28.02 71.26 27 75 C25.68 78.96 24.36 82.92 23 87 C41.81 87 60.62 87 80 87 C77.89140951 94.73149846 75.53421037 102.39736888 73 110 C39.67 110 6.34 110 -28 110 C-24.63017417 97.64397195 -24.63017417 97.64397195 -22.87109375 93.0390625 C-22.28642334 91.49013306 -22.28642334 91.49013306 -21.68994141 89.90991211 C-21.27663574 88.82589111 -20.86333008 87.74187012 -20.4375 86.625 C-16.42155154 75.93815588 -12.60739332 65.19846292 -8.91430664 54.39624023 C-5.46105604 44.30520276 -1.9309314 34.24275328 1.625 24.1875 C2.03029938 23.0411055 2.03029938 23.0411055 2.44378662 21.87155151 C3.96108033 17.58052234 5.47985524 13.29002014 7 9 C6.4946875 8.43410156 5.989375 7.86820312 5.46875 7.28515625 C4.49421875 6.18494141 4.49421875 6.18494141 3.5 5.0625 C2.8503125 4.33160156 2.200625 3.60070313 1.53125 2.84765625 C0 1 0 1 0 0 Z " fill="#FDFEFE" transform="translate(216,58)"/>
<path d="M0 0 C0.98724029 0.00092179 1.97448057 0.00184359 2.99163723 0.00279331 C4.12050854 0.00141865 5.24937984 0.00004398 6.41245937 -0.00137234 C8.2865649 0.00402058 8.2865649 0.00402058 10.19853115 0.00952244 C11.50565563 0.00937641 12.81278011 0.00923038 14.15951443 0.00907993 C17.7543955 0.00879197 21.34924348 0.01468855 24.94411683 0.02165389 C28.69708703 0.02788757 32.45005791 0.02849124 36.20303249 0.0296793 C43.31453277 0.03279257 50.42601776 0.04100591 57.53751129 0.05102879 C65.63169517 0.06219005 73.72587977 0.06770041 81.82006943 0.07272422 C98.47479676 0.08318852 115.12950869 0.10078789 131.78422451 0.12304783 C131.4721535 1.55910823 131.15814375 2.99474742 130.8433218 4.43020725 C130.66866673 5.22972372 130.49401167 6.02924019 130.31406403 6.85298443 C129.66958611 9.61420872 128.82176795 12.25613848 127.87406826 14.92773533 C127.34909756 16.4204697 127.34909756 16.4204697 126.81352139 17.94336033 C126.27308193 19.45543064 126.27308193 19.45543064 125.72172451 20.99804783 C125.35756435 22.02929783 124.9934042 23.06054783 124.61820889 24.12304783 C123.94802242 26.02087714 123.27567442 27.91794565 122.60038662 29.8139658 C121.97707805 31.5774275 121.3756897 33.34865225 120.78422451 35.12304783 C110.88422451 35.12304783 100.98422451 35.12304783 90.78422451 35.12304783 C91.78422451 28.12304783 91.78422451 28.12304783 93.78422451 23.12304783 C88.83422451 23.12304783 83.88422451 23.12304783 78.78422451 23.12304783 C78.37688076 24.35152439 77.96953701 25.58000095 77.54984951 26.84570408 C71.54039348 44.86356612 65.22986132 62.77918257 58.85441494 80.67019749 C58.18598746 82.54598477 57.51825564 84.4220201 56.85124111 86.29831028 C55.90556768 88.95691556 54.95672796 91.61436877 54.00688076 94.27148533 C53.72597088 95.06207844 53.445061 95.85267155 53.15563869 96.66722202 C52.75341343 97.7888348 52.75341343 97.7888348 52.3430624 98.93310642 C52.1134129 99.57621769 51.88376339 100.21932896 51.64715481 100.88192844 C50.44747762 103.99761438 49.09939146 107.05432495 47.78422451 110.12304783 C33.59422451 110.12304783 19.40422451 110.12304783 4.78422451 110.12304783 C5.77422451 107.15304783 6.76422451 104.18304783 7.78422451 101.12304783 C8.21219326 99.79273533 8.64016201 98.46242283 9.08109951 97.09179783 C13.19237086 84.38462649 17.75074022 71.84862195 22.34672451 59.31054783 C22.66774136 58.43462986 22.9887582 57.55871189 23.31950283 56.65625095 C27.42639516 45.46029827 31.58487702 34.2846417 35.78422451 23.12304783 C30.50422451 23.12304783 25.22422451 23.12304783 19.78422451 23.12304783 C19.49547451 24.36054783 19.20672451 25.59804783 18.90922451 26.87304783 C18.17271043 30.02953675 17.2847486 32.12199964 15.78422451 35.12304783 C6.21422451 35.12304783 -3.35577549 35.12304783 -13.21577549 35.12304783 C-13.21577549 29.80464248 -12.81057129 27.25471501 -11.06343174 22.44726658 C-10.61677158 21.20783298 -10.17011143 19.96839939 -9.70991611 18.6914072 C-9.3576395 17.73657444 -9.3576395 17.73657444 -8.99824619 16.76245213 C-8.27515431 14.80208604 -7.56562855 12.83721621 -6.85835361 10.8710947 C-2.9687395 0.1648619 -2.9687395 0.1648619 0 0 Z " fill="#FDFDFE" transform="translate(502.21577548980713,57.876952171325684)"/>
<path d="M0 0 C17.16 0 34.32 0 52 0 C51.35852892 3.8488265 50.81817005 6.92347539 49.6171875 10.51171875 C49.20279419 11.75598633 49.20279419 11.75598633 48.7800293 13.02539062 C48.48136963 13.90388672 48.18270996 14.78238281 47.875 15.6875 C47.56151611 16.61884766 47.24803223 17.55019531 46.92504883 18.50976562 C44.67773248 25.13532875 42.29509227 31.7025406 39.84399414 38.25488281 C37.04708063 45.77414932 34.42273078 53.35191279 31.8125 60.9375 C31.39637451 62.14599609 30.98024902 63.35449219 30.55151367 64.59960938 C27.99291663 72.05360419 25.49240735 79.52277795 23 87 C42.14 87 61.28 87 81 87 C79 96 79 96 74 110 C40.34 110 6.68 110 -28 110 C-27.29094036 105.03658253 -26.63488689 101.44214765 -25.02563477 96.86645508 C-24.41347862 95.11085014 -24.41347862 95.11085014 -23.78895569 93.31977844 C-23.33992148 92.05297657 -22.89073389 90.78622907 -22.44140625 89.51953125 C-21.97300547 88.1843276 -21.50515722 86.84893001 -21.03782654 85.51335144 C-19.80292447 81.98919755 -18.56018313 78.46785694 -17.31585693 74.94702148 C-16.33154682 72.15812953 -15.35245076 69.36742342 -14.37380409 66.57653999 C-13.4091429 63.82573578 -12.44289314 61.07549116 -11.47636032 58.32534409 C-10.99504986 56.95572869 -10.51397297 55.58603119 -10.03313065 54.21625137 C-7.41118699 46.7511667 -4.75379795 39.30205359 -2.01123047 31.88037109 C-1.53533122 30.58325819 -1.05973404 29.28603441 -0.5844574 27.98869324 C0.30664913 25.56382598 1.20777696 23.14261008 2.12046814 20.7257843 C2.51520828 19.64798203 2.90994843 18.57017975 3.31665039 17.4597168 C3.66724014 16.52169724 4.0178299 15.58367767 4.37904358 14.61723328 C5.08501593 11.64167127 4.91544269 9.90144204 4 7 C2.70055256 5.30678061 1.37073786 3.63604196 0 2 C0 1.34 0 0.68 0 0 Z " fill="#FDFEFE" transform="translate(930,58)"/>
<path d="M0 0 C7.43803225 -0.10153917 14.8758853 -0.17152433 22.31445312 -0.21972656 C24.84414347 -0.23982405 27.37378746 -0.26710668 29.90332031 -0.30175781 C33.54243417 -0.35035556 37.180933 -0.37298812 40.8203125 -0.390625 C41.94865509 -0.41127014 43.07699768 -0.43191528 44.23953247 -0.45318604 C50.48297898 -0.45496447 54.25338204 -0.20377326 59 4 C60 5 60 5 60.06347656 6.95239258 C59.53507678 14.9910848 57.24472359 22.136398 54.49951172 29.63500977 C53.74941442 31.68910358 53.02386091 33.75071427 52.30078125 35.81445312 C45.80865643 54.04816909 45.80865643 54.04816909 38 59 C32.89061467 61.13180048 28.31831483 61.32125564 22.875 61.3359375 C21.57731689 61.3459227 21.57731689 61.3459227 20.25341797 61.35610962 C18.43133662 61.36619714 16.60921862 61.37092785 14.78710938 61.37060547 C12.00849477 61.37498661 9.23145991 61.41136812 6.453125 61.44921875 C4.67708873 61.45508627 2.90104497 61.4590561 1.125 61.4609375 C0.29983887 61.47530853 -0.52532227 61.48967957 -1.37548828 61.50448608 C-6.6959112 61.46256868 -9.82048356 60.60279215 -14 57 C-16.60568246 50.18722607 -13.30774881 43.62160372 -11 37.0625 C-10.58935303 35.86496094 -10.17870605 34.66742188 -9.75561523 33.43359375 C-2.24751468 11.87127202 -2.24751468 11.87127202 3 4 C2.01 2.68 1.02 1.36 0 0 Z " fill="#C9CACB" transform="translate(196,190)"/>
<path d="M0 0 C9.57 0 19.14 0 29 0 C30.27875 3.91875 31.5575 7.8375 32.875 11.875 C33.27444824 13.08913574 33.67389648 14.30327148 34.08544922 15.55419922 C36.16271697 21.98483416 37.87058679 28.33476514 39 35 C39.66 35 40.32 35 41 35 C41.23460937 33.79472656 41.46921875 32.58945313 41.7109375 31.34765625 C43.15066105 24.86890028 45.41223704 18.68509791 47.625 12.4375 C48.04523438 11.23802734 48.46546875 10.03855469 48.8984375 8.80273438 C49.92773785 5.86688906 50.96324026 2.93321942 52 0 C59.26 0 66.52 0 74 0 C68.87070233 15.68830741 63.62055846 31.31514299 57.9375 46.8125 C57.69639496 47.47260071 57.45528992 48.13270142 57.20687866 48.81280518 C53.1793428 59.8206572 53.1793428 59.8206572 52 61 C50.29227642 61.08713831 48.58101351 61.10700007 46.87109375 61.09765625 C45.93966553 61.09515869 45.0082373 61.09266113 44.04858398 61.09008789 C42.26109741 61.07643188 42.26109741 61.07643188 40.4375 61.0625 C36.663125 61.041875 32.88875 61.02125 29 61 C25.37 50.44 21.74 39.88 18 29 C15.87554618 32.18668072 14.85071994 35.01519404 13.6171875 38.63671875 C13.39805695 39.27615921 13.17892639 39.91559967 12.95315552 40.57441711 C12.25636368 42.61074701 11.56561146 44.6490668 10.875 46.6875 C10.40274097 48.07109919 9.93008921 49.45456439 9.45703125 50.83789062 C8.29938561 54.22349638 7.14993336 57.61172771 6 61 C-0.93 61 -7.86 61 -15 61 C-12.7503675 50.87665373 -12.7503675 50.87665373 -11.41186523 47.11035156 C-11.11493271 46.26627747 -10.81800018 45.42220337 -10.5120697 44.55255127 C-10.19742264 43.6741156 -9.88277557 42.79567993 -9.55859375 41.890625 C-9.23085464 40.96078796 -8.90311554 40.03095093 -8.56544495 39.07293701 C-7.52769591 36.13019813 -6.48319742 33.1899229 -5.4375 30.25 C-4.38888407 27.29557579 -3.34183638 24.3406305 -2.29884338 21.38421631 C-1.65232055 19.5521509 -1.00251281 17.72124048 -0.34898376 15.8916626 C1.90295028 10.06798227 1.90295028 10.06798227 3 4 C2.01 2.68 1.02 1.36 0 0 Z " fill="#C9CACB" transform="translate(361,190)"/>
<path d="M0 0 C9.24 0 18.48 0 28 0 C30.52009031 6.30022577 32.81190216 12.27294654 34.625 18.75 C35.03283427 20.18258241 35.44167036 21.61488003 35.8515625 23.046875 C36.04266602 23.71525391 36.23376953 24.38363281 36.43066406 25.07226562 C37.21811443 27.73852123 38.09865237 30.3703803 39 33 C41.16947229 29.74579156 42.16084987 26.85741772 43.3828125 23.14453125 C43.60194305 22.48289474 43.82107361 21.82125824 44.04684448 21.13957214 C44.74380979 19.03192179 45.43447773 16.92226898 46.125 14.8125 C46.59724213 13.38072272 47.06989367 11.9490804 47.54296875 10.51757812 C48.70083994 7.01349427 49.85016931 3.50677145 51 0 C58.26 0 65.52 0 73 0 C72.35450374 3.87297754 71.86407298 6.78067649 70.58886719 10.33032227 C70.3047699 11.12878067 70.02067261 11.92723907 69.72796631 12.74989319 C69.42070618 13.5968425 69.11344604 14.44379181 68.796875 15.31640625 C68.47720764 16.2093187 68.15754028 17.10223114 67.82818604 18.02220154 C67.15133486 19.909939 66.47206208 21.79680972 65.79052734 23.68286133 C64.76282366 26.52701076 63.74204763 29.37356522 62.72265625 32.22070312 C59.26321361 41.86084348 55.72664838 51.45949125 52 61 C44.41 61 36.82 61 29 61 C26.20958534 54.02396336 23.61066741 47.16983129 21.25 40.0625 C20.93417969 39.13115234 20.61835938 38.19980469 20.29296875 37.24023438 C19.84630859 35.9012207 19.84630859 35.9012207 19.390625 34.53515625 C19.12282227 33.734729 18.85501953 32.93430176 18.57910156 32.10961914 C18 30 18 30 18 27 C17.34 27 16.68 27 16 27 C15.75378906 28.2271875 15.50757813 29.454375 15.25390625 30.71875 C13.9047474 36.78580444 11.92777476 42.61818623 9.9375 48.5 C9.57333984 49.59570312 9.20917969 50.69140625 8.83398438 51.8203125 C6.13368056 59.86631944 6.13368056 59.86631944 5 61 C3.5112814 61.08669432 2.018555 61.10703494 0.52734375 61.09765625 C-0.37177734 61.09443359 -1.27089844 61.09121094 -2.19726562 61.08789062 C-3.61555664 61.07532227 -3.61555664 61.07532227 -5.0625 61.0625 C-6.01189453 61.05798828 -6.96128906 61.05347656 -7.93945312 61.04882812 C-10.29303065 61.0370011 -12.64648477 61.02052025 -15 61 C-14.45174146 54.87014672 -13.04933388 49.65253118 -10.91015625 43.8984375 C-10.60556992 43.05834137 -10.30098358 42.21824524 -9.98716736 41.35269165 C-9.02011316 38.69052768 -8.04165275 36.03273481 -7.0625 33.375 C-6.08959094 30.70920506 -5.11900809 28.04257093 -4.14854431 25.37588501 C-3.54617914 23.72344344 -2.94191938 22.07169085 -2.33546448 20.42074585 C1.56249118 10.37931664 1.56249118 10.37931664 0 0 Z " fill="#C9CACB" transform="translate(274,190)"/>
<path d="M0 0 C9.57 0 19.14 0 29 0 C28.31674766 3.41626172 27.64287952 6.28625079 26.50952148 9.51489258 C26.20928574 10.37540726 25.90904999 11.23592194 25.59971619 12.12251282 C25.27677078 13.0372789 24.95382538 13.95204498 24.62109375 14.89453125 C24.12380516 16.31556404 24.12380516 16.31556404 23.61647034 17.76530457 C22.55993018 20.78213962 21.49878038 23.79732964 20.4375 26.8125 C19.7190962 28.86122126 19.00099374 30.9100482 18.28320312 32.95898438 C16.52562588 37.97388805 14.76391351 42.98732167 13 48 C16.96 48 20.92 48 25 48 C25.09531006 47.21157715 25.19062012 46.4231543 25.28881836 45.61083984 C26.20461191 40.96113624 27.76131792 36.67308292 29.37890625 32.2265625 C29.87619484 30.8409462 29.87619484 30.8409462 30.38352966 29.42733765 C31.43842095 26.49148422 32.50035077 23.55823441 33.5625 20.625 C34.28106566 18.62907421 34.99916979 16.63298219 35.71679688 14.63671875 C37.47166872 9.75553763 39.23604387 4.87794366 41 0 C49.25 0 57.5 0 66 0 C62.39648438 10.20996094 62.39648438 10.20996094 58.79296875 20.41992188 C58.5325177 21.15852448 58.27206665 21.89712708 58.00372314 22.65811157 C57.47312243 24.16014582 56.94084153 25.66158755 56.40692139 27.16244507 C55.0441944 30.99991768 53.71334656 34.84379871 52.43847656 38.71142578 C52.18232574 39.47403214 51.92617493 40.23663849 51.66226196 41.02235413 C51.18018064 42.46019211 50.70815881 43.90146177 50.24862671 45.34666443 C48.21341885 51.35463611 45.46248749 55.54260945 39.9375 58.8125 C34.7486115 60.91013578 30.1097389 61.17312485 24.54296875 61.203125 C23.31118645 61.21167511 23.31118645 61.21167511 22.05451965 61.22039795 C20.31883017 61.22982987 18.58312293 61.23637474 16.84741211 61.24023438 C14.20719757 61.24992768 11.56776599 61.28096252 8.92773438 61.3125 C7.23698376 61.31903206 5.54622761 61.32428173 3.85546875 61.328125 C3.07294235 61.3404718 2.29041595 61.3528186 1.48417664 61.36553955 C-3.72569445 61.34461849 -7.40535291 60.52382546 -12 58 C-14.76980758 51.30705513 -11.2309688 44.52477497 -8.9375 38.0625 C-8.5264502 36.86351074 -8.11540039 35.66452148 -7.69189453 34.42919922 C-5.88673231 29.2026167 -4.02788271 24.00277097 -2.02734375 18.84765625 C-1.7444751 18.11861084 -1.46160645 17.38956543 -1.17016602 16.63842773 C-0.43029735 14.76501757 0.33464966 12.90156511 1.1015625 11.0390625 C2.38028128 6.71365723 1.38831533 4.164946 0 0 Z " fill="#C9CACB" transform="translate(798,190)"/>
<path d="M0 0 C20.13 0 40.26 0 61 0 C57.535 9.9 57.535 9.9 54 20 C47.4 20 40.8 20 34 20 C34.33 17.69 34.66 15.38 35 13 C31.04 13 27.08 13 23 13 C22.690625 14.44375 22.38125 15.8875 22.0625 17.375 C21.54516353 19.78923686 21.10514766 21.78970467 20 24 C25.94 24 31.88 24 38 24 C35.125 33.75 35.125 33.75 34 36 C27.73 36 21.46 36 15 36 C14.67 37.65 14.34 39.3 14 41 C13.01 43.64 12.02 46.28 11 49 C21.23 49 31.46 49 42 49 C41 57 41 57 39 61 C20.85 61 2.7 61 -16 61 C-14.87506362 52.00050894 -14.87506362 52.00050894 -13.7565918 48.97753906 C-13.50930832 48.29612854 -13.26202484 47.61471802 -13.00724792 46.91265869 C-12.7405983 46.20413757 -12.47394867 45.49561646 -12.19921875 44.765625 C-11.92157181 44.00634705 -11.64392487 43.24706909 -11.35786438 42.46478271 C-10.47567136 40.05685001 -9.58210071 37.65334709 -8.6875 35.25 C-7.52178315 32.08962636 -6.36049021 28.92763428 -5.19921875 25.765625 C-4.92028778 25.00882446 -4.64135681 24.25202393 -4.35397339 23.47229004 C-2.10722852 17.35529315 -0.00100025 11.20226099 2 5 C1.34 4.34 0.68 3.68 0 3 C0 2.01 0 1.02 0 0 Z " fill="#C9CACB" transform="translate(450,190)"/>
<path d="M0 0 C6.11977981 -0.04964874 12.23944086 -0.08583716 18.359375 -0.10986328 C20.43882288 -0.1198855 22.51825679 -0.13350687 24.59765625 -0.15087891 C27.59638936 -0.17529388 30.5949352 -0.18652117 33.59375 -0.1953125 C34.51490601 -0.20563507 35.43606201 -0.21595764 36.38513184 -0.22659302 C42.84752128 -0.22770197 48.53275238 0.43973857 54.5 3.125 C57.04773735 6.30967169 56.39454568 9.05454317 56 13 C55.01 15.97 54.02 18.94 53 22 C46.4 22 39.8 22 33 22 C34 16 34 16 35 14 C30.71 14 26.42 14 22 14 C21.62875 15.134375 21.2575 16.26875 20.875 17.4375 C19.07133128 22.85709507 17.16132888 28.2381316 15.24560547 33.61889648 C13.43155871 38.72780814 11.71527317 43.85418048 10 49 C20.89 49 31.78 49 43 49 C40 60 40 60 39 62 C32.25568885 62.07612011 25.51148866 62.12862932 18.7668457 62.16479492 C16.47285828 62.17987308 14.17889963 62.2003387 11.88500977 62.22631836 C8.58602795 62.26274358 5.2874276 62.27973631 1.98828125 62.29296875 C0.45207878 62.31619453 0.45207878 62.31619453 -1.11515808 62.33988953 C-10.0983663 62.34200851 -10.0983663 62.34200851 -14 59 C-16.22966978 54.54066045 -14.46352398 48.61913722 -13.15039062 44.03222656 C-12.07392498 40.87250706 -10.92958145 37.74764604 -9.75 34.625 C-9.36714844 33.57828125 -8.98429687 32.5315625 -8.58984375 31.453125 C-6.60300438 26.07071736 -4.52805862 20.72279427 -2.390625 15.3984375 C-1.81103027 13.95090088 -1.81103027 13.95090088 -1.21972656 12.47412109 C-0.05585234 10.11329215 1.02188961 8.70277688 3 7 C2.690625 6.401875 2.38125 5.80375 2.0625 5.1875 C1 3 1 3 0 0 Z " fill="#C6C8CB" transform="translate(119,189)"/>
<path d="M0 0 C25.08 0 50.16 0 76 0 C72.535 9.9 72.535 9.9 69 20 C63.39 20 57.78 20 52 20 C52.33 18.02 52.66 16.04 53 14 C50.36 13.67 47.72 13.34 45 13 C44.73719238 14.29091553 44.47438477 15.58183105 44.20361328 16.91186523 C43.09227825 21.90118359 41.50064774 26.61674672 39.7421875 31.41015625 C39.43427277 32.26306747 39.12635803 33.1159787 38.80911255 33.99473572 C37.83623404 36.68589277 36.85576244 39.37420748 35.875 42.0625 C35.20912885 43.90020716 34.54375952 45.73809622 33.87890625 47.57617188 C32.25931544 52.05327017 30.62945835 56.52643485 29 61 C21.08 61 13.16 61 5 61 C7.25 50.875 7.25 50.875 8.51220703 47.39819336 C8.93241623 46.22799904 8.93241623 46.22799904 9.3611145 45.03416443 C9.65702484 44.2275386 9.95293518 43.42091278 10.2578125 42.58984375 C10.56572723 41.73693253 10.87364197 40.8840213 11.19088745 40.00526428 C12.16376596 37.31410723 13.14423756 34.62579252 14.125 31.9375 C14.79087115 30.09979284 15.45624048 28.26190378 16.12109375 26.42382812 C17.74160655 21.94709645 19.36892933 17.47289521 21 13 C18.36 13.33 15.72 13.66 13 14 C12.34 15.98 11.68 17.96 11 20 C5.39 20 -0.22 20 -6 20 C-5 13 -5 13 0 0 Z " fill="#C9CACB" transform="translate(876,190)"/>
<path d="M0 0 C7.01077881 -0.10157378 14.02136725 -0.17153861 21.03271484 -0.21972656 C23.41690157 -0.23981893 25.80103915 -0.26709781 28.18505859 -0.30175781 C31.61568338 -0.35037859 35.04565555 -0.37299312 38.4765625 -0.390625 C39.53928375 -0.41127014 40.602005 -0.43191528 41.69692993 -0.45318604 C47.75735156 -0.45501596 51.4304938 -0.14161024 56 4 C56.69140625 6.078125 56.69140625 6.078125 56.5625 8.25 C56.53349609 9.30960938 56.53349609 9.30960938 56.50390625 10.390625 C55.79773253 14.04740052 54.30770214 17.51279429 53 21 C46.07 21 39.14 21 32 21 C32.66 18.69 33.32 16.38 34 14 C30.04 13.67 26.08 13.34 22 13 C21.57847656 14.27617187 21.15695312 15.55234375 20.72265625 16.8671875 C18.73094224 22.84349908 16.6260426 28.7789119 14.51757812 34.71484375 C14.22173828 35.55402344 13.92589844 36.39320313 13.62109375 37.2578125 C13.3573999 38.0017627 13.09370605 38.74571289 12.82202148 39.51220703 C11.78683137 42.64514058 10.90645031 45.82742391 10 49 C20.56 49 31.12 49 42 49 C40.875 56.875 40.875 56.875 39 61 C32.25568885 61.07612011 25.51148866 61.12862932 18.7668457 61.16479492 C16.47285828 61.17987308 14.17889963 61.2003387 11.88500977 61.22631836 C8.58602795 61.26274358 5.2874276 61.27973631 1.98828125 61.29296875 C0.45207878 61.31619453 0.45207878 61.31619453 -1.11515808 61.33988953 C-10.28208251 61.34205184 -10.28208251 61.34205184 -14 58 C-15.53497469 52.72071466 -14.70734497 48.48144852 -13.0625 43.375 C-12.84086182 42.65787842 -12.61922363 41.94075684 -12.39086914 41.2019043 C-10.42609021 35.00661378 -8.2128295 28.8995791 -5.9375 22.8125 C-5.60951416 21.92804199 -5.28152832 21.04358398 -4.94360352 20.13232422 C-3.49959194 16.36975378 -2.09732422 12.93070045 0.24609375 9.63671875 C2.36923062 6.97271662 2.36923062 6.97271662 2 3 C1.34 2.01 0.68 1.02 0 0 Z " fill="#C9CACB" transform="translate(727,190)"/>
<path d="M0 0 C25.08 0 50.16 0 76 0 C70 18 70 18 69 20 C63.39 20 57.78 20 52 20 C52.66 17.69 53.32 15.38 54 13 C51.36 13.33 48.72 13.66 46 14 C45.80177139 14.56154282 45.60354279 15.12308563 45.39930725 15.7016449 C43.34263122 21.52602738 41.28198765 27.34899483 39.21899414 33.17114258 C38.44876069 35.34656022 37.67955275 37.52234124 36.91137695 39.69848633 C35.80947531 42.8194753 34.7039381 45.93915516 33.59765625 49.05859375 C33.25283707 50.03775253 32.90801788 51.01691132 32.55274963 52.02574158 C32.07236488 53.37702904 32.07236488 53.37702904 31.58227539 54.75561523 C31.15924889 55.95141457 31.15924889 55.95141457 30.72767639 57.17137146 C30 59 30 59 29 60 C27.29227642 60.08713831 25.58101351 60.10700007 23.87109375 60.09765625 C22.31938477 60.09282227 22.31938477 60.09282227 20.73632812 60.08789062 C19.64771484 60.07951172 18.55910156 60.07113281 17.4375 60.0625 C15.7987793 60.05573242 15.7987793 60.05573242 14.12695312 60.04882812 C11.41791505 60.03699826 8.70898401 60.02051543 6 60 C6.58874751 54.50035783 7.97463424 49.75131606 9.90625 44.58203125 C10.19101196 43.80236496 10.47577393 43.02269867 10.76916504 42.21940613 C11.67302201 39.74802476 12.58605015 37.2801646 13.5 34.8125 C14.41225068 32.33353699 15.32254678 29.85387641 16.23083496 27.37345886 C16.7946439 25.83545642 17.36102214 24.29839276 17.93029785 22.7624054 C19.12002245 19.53143771 20.2073645 16.34969261 21 13 C18.36 13 15.72 13 13 13 C12.34 15.31 11.68 17.62 11 20 C5.39 20 -0.22 20 -6 20 C-4.59704602 12.86831728 -2.54323678 6.99390114 0 0 Z " fill="#C9CACB" transform="translate(596,190)"/>
<path d="M0 0 C6.72600022 -0.07620013 13.45188868 -0.12866292 20.17822266 -0.16479492 C22.46537435 -0.17986116 24.75249725 -0.20031797 27.03955078 -0.22631836 C30.33112707 -0.26279606 33.62232062 -0.27974834 36.9140625 -0.29296875 C37.93303619 -0.30845261 38.95200989 -0.32393646 40.00186157 -0.33988953 C45.4059979 -0.34116437 49.37025797 -0.13912346 54 3 C55.26556371 5.53112743 54.97191739 6.94827642 54.6875 9.75 C54.60886719 10.59046875 54.53023437 11.4309375 54.44921875 12.296875 C54 15 54 15 52 21 C45.07 21 38.14 21 31 21 C31.66 18.69 32.32 16.38 33 14 C29.04 14 25.08 14 21 14 C19.55616074 17.76851128 18.11982074 21.53961173 16.6875 25.3125 C16.08131836 26.8912793 16.08131836 26.8912793 15.46289062 28.50195312 C15.06650391 29.54931641 14.67011719 30.59667969 14.26171875 31.67578125 C13.90037842 32.62364502 13.53903809 33.57150879 13.16674805 34.5480957 C11.56139109 39.29765461 10.31914695 44.16312786 9 49 C19.56 49 30.12 49 41 49 C39 58 39 58 38 61 C31.25568885 61.07612011 24.51148866 61.12862932 17.7668457 61.16479492 C15.47285828 61.17987308 13.17889963 61.2003387 10.88500977 61.22631836 C7.58602795 61.26274358 4.2874276 61.27973631 0.98828125 61.29296875 C-0.54792122 61.31619453 -0.54792122 61.31619453 -2.11515808 61.33988953 C-11.0983663 61.34200851 -11.0983663 61.34200851 -15 58 C-17.75189343 52.49621314 -15.00072072 44.45576078 -13.1796875 38.94921875 C-12.42689889 36.85636079 -11.65821283 34.76916347 -10.875 32.6875 C-10.47555176 31.5946167 -10.07610352 30.5017334 -9.66455078 29.37573242 C-6.98308827 22.18657459 -3.95364751 15.41086979 -0.1171875 8.76953125 C1.24573465 5.39081864 0.7075971 3.51039711 0 0 Z " fill="#C9CACB" transform="translate(525,190)"/>
<path d="M0 0 C9.9 0 19.8 0 30 0 C26.62444761 11.25184132 26.62444761 11.25184132 25.11474609 15.6015625 C24.7778476 16.57536865 24.4409491 17.5491748 24.09384155 18.55249023 C23.74060822 19.56641846 23.38737488 20.58034668 23.0234375 21.625 C22.65272125 22.69371338 22.282005 23.76242676 21.90005493 24.86352539 C21.12285257 27.10256301 20.3446304 29.34124688 19.56542969 31.57958984 C18.36908794 35.01698687 17.17650052 38.45567 15.984375 41.89453125 C15.22678259 44.07559729 14.46897775 46.25658957 13.7109375 48.4375 C13.3536557 49.46762207 12.9963739 50.49774414 12.62826538 51.55908203 C12.13237411 52.98196533 12.13237411 52.98196533 11.62646484 54.43359375 C11.19036392 55.68740845 11.19036392 55.68740845 10.74545288 56.96655273 C10 59 10 59 9 61 C1.08 61 -6.84 61 -15 61 C-12.7503675 50.87665373 -12.7503675 50.87665373 -11.41186523 47.11035156 C-11.11493271 46.26627747 -10.81800018 45.42220337 -10.5120697 44.55255127 C-10.19742264 43.6741156 -9.88277557 42.79567993 -9.55859375 41.890625 C-9.23085464 40.96078796 -8.90311554 40.03095093 -8.56544495 39.07293701 C-7.52769591 36.13019813 -6.48319742 33.1899229 -5.4375 30.25 C-4.38888407 27.29557579 -3.34183638 24.3406305 -2.29884338 21.38421631 C-1.65232055 19.5521509 -1.00251281 17.72124048 -0.34898376 15.8916626 C1.90295028 10.06798227 1.90295028 10.06798227 3 4 C2.01 2.68 1.02 1.36 0 0 Z " fill="#C9CACB" transform="translate(682,190)"/>
<path d="M0 0 C3.95827235 -0.05785647 7.9164367 -0.09354717 11.875 -0.125 C13.00292969 -0.14175781 14.13085938 -0.15851563 15.29296875 -0.17578125 C16.36933594 -0.18222656 17.44570313 -0.18867188 18.5546875 -0.1953125 C19.54968262 -0.20578613 20.54467773 -0.21625977 21.56982422 -0.22705078 C24 0 24 0 26 2 C25.71700981 8.17727155 23.47829769 13.5625023 21.1875 19.25 C20.84396484 20.1471875 20.50042969 21.044375 20.14648438 21.96875 C19.80294922 22.82984375 19.45941406 23.6909375 19.10546875 24.578125 C18.79762451 25.35575195 18.48978027 26.13337891 18.17260742 26.93457031 C16.18657398 30.43276787 13.75115399 31.74961534 10 33 C8.51876453 33.0806622 7.03417796 33.10761193 5.55078125 33.09765625 C4.70322266 33.09443359 3.85566406 33.09121094 2.98242188 33.08789062 C1.66081055 33.07532227 1.66081055 33.07532227 0.3125 33.0625 C-0.58017578 33.05798828 -1.47285156 33.05347656 -2.39257812 33.04882812 C-4.59511987 33.03704983 -6.79752599 33.02060164 -9 33 C-8.43116017 28.9158873 -7.52141737 25.40339371 -5.93359375 21.6015625 C-5.53076172 20.62832031 -5.12792969 19.65507812 -4.71289062 18.65234375 C-4.29201172 17.65332031 -3.87113281 16.65429688 -3.4375 15.625 C-3.01275391 14.60277344 -2.58800781 13.58054687 -2.15039062 12.52734375 C-1.10587881 10.01582095 -0.05560951 7.50687381 1 5 C0.34 5 -0.32 5 -1 5 C-0.67 3.35 -0.34 1.7 0 0 Z " fill="#C3C7CA" transform="translate(527,303)"/>
<path d="M0 0 C3.81248426 -0.02887236 7.6249407 -0.04675492 11.4375 -0.0625 C12.52611328 -0.07087891 13.61472656 -0.07925781 14.73632812 -0.08789062 C15.77080078 -0.09111328 16.80527344 -0.09433594 17.87109375 -0.09765625 C18.82943115 -0.10289307 19.78776855 -0.10812988 20.77514648 -0.11352539 C23 0 23 0 24 1 C24.6084164 5.98901452 23.24051895 9.02740355 20.875 13.265625 C19.84985732 14.97383814 19.84985732 14.97383814 20 17 C19.35971918 22.6344712 17.88724292 26.92140641 14.03515625 31.1640625 C9.61657768 33.83681916 5.74239737 33.43576301 0.6875 33.25 C-0.70952148 33.22292969 -0.70952148 33.22292969 -2.13476562 33.1953125 C-4.42424197 33.14834888 -6.71158184 33.08269475 -9 33 C-6.50247446 23.65519759 -2.76401469 14.88926208 1 6 C0.34 5.67 -0.32 5.34 -1 5 C-0.67 3.35 -0.34 1.7 0 0 Z " fill="#C3C7CA" transform="translate(219,303)"/>
<path d="M0 0 C2.97 0 5.94 0 9 0 C8.45371735 6.32127063 6.36700755 11.60919951 3.9375 17.4375 C3.37192383 18.82098633 3.37192383 18.82098633 2.79492188 20.23242188 C1.87034946 22.49118739 0.93614342 24.74600548 0 27 C3.63 26.67 7.26 26.34 11 26 C14.2798869 18.97167093 17.25629835 11.91282622 19.984375 4.65234375 C21 2 21 2 22 0 C23.98 0 25.96 0 28 0 C27.4293192 6.15999569 25.54828358 11.40463977 23.25 17.125 C22.91484375 18.00542969 22.5796875 18.88585937 22.234375 19.79296875 C20.22495927 24.83934235 18.34113763 28.51308623 14 32 C10.30531685 33.23156105 6.84902154 33.22260483 3 33.25 C2.27554687 33.270625 1.55109375 33.29125 0.8046875 33.3125 C-2.14392103 33.33426095 -4.44916937 33.30462603 -7.0625 31.859375 C-8.54996987 28.90922642 -7.85037612 27.17522416 -7 24 C-5.9060698 20.83564498 -4.68805558 17.73033999 -3.4375 14.625 C-2.9434668 13.37783203 -2.9434668 13.37783203 -2.43945312 12.10546875 C-1.63155238 10.06815382 -0.8182989 8.03315558 0 6 C-0.66 5.67 -1.32 5.34 -2 5 C-1.34 3.35 -0.68 1.7 0 0 Z " fill="#C2C6CA" transform="translate(352,303)"/>
<path d="M0 0 C8.25 0 16.5 0 25 0 C22.36 7.26 19.72 14.52 17 22 C9.08 22 1.16 22 -7 22 C-4 11 -4 11 0 0 Z " fill="#08529C" transform="translate(696,81)"/>
<path d="M0 0 C1.27133789 0.00966797 1.27133789 0.00966797 2.56835938 0.01953125 C3.8899707 0.04466797 3.8899707 0.04466797 5.23828125 0.0703125 C6.57729492 0.08384766 6.57729492 0.08384766 7.94335938 0.09765625 C10.14610439 0.12121502 12.34830713 0.15410921 14.55078125 0.1953125 C13.93628128 3.53354207 13.20517296 6.21740742 11.55078125 9.1953125 C9.57078125 9.1953125 7.59078125 9.1953125 5.55078125 9.1953125 C5.88078125 7.8753125 6.21078125 6.5553125 6.55078125 5.1953125 C2.44377348 5.23534305 2.44377348 5.23534305 -1.44921875 6.1953125 C-3.13905382 8.48512159 -3.63884736 10.40966083 -4.44921875 13.1953125 C-3.29292969 13.16050781 -3.29292969 13.16050781 -2.11328125 13.125 C-1.11039063 13.10695313 -0.1075 13.08890625 0.92578125 13.0703125 C1.92351563 13.04710937 2.92125 13.02390625 3.94921875 13 C6.55078125 13.1953125 6.55078125 13.1953125 8.55078125 15.1953125 C9.31439825 20.54063148 7.60519719 24.87186988 4.55078125 29.1953125 C2.36077952 31.55951891 0.70553163 33.02139213 -2.5402832 33.51025391 C-4.95988737 33.58868926 -7.34301711 33.54458044 -9.76171875 33.4453125 C-11.0156543 33.41824219 -11.0156543 33.41824219 -12.29492188 33.390625 C-14.34685103 33.34372376 -16.39818631 33.27198661 -18.44921875 33.1953125 C-17.57421875 28.3203125 -17.57421875 28.3203125 -16.44921875 27.1953125 C-13.91872473 27.12217683 -11.41617038 27.10283723 -8.88671875 27.1328125 C-8.17580078 27.13732422 -7.46488281 27.14183594 -6.73242188 27.14648438 C-4.97131862 27.15830386 -3.21025839 27.17623987 -1.44921875 27.1953125 C-1.13984375 26.2465625 -0.83046875 25.2978125 -0.51171875 24.3203125 C0.55078125 21.1953125 0.55078125 21.1953125 1.55078125 19.1953125 C0.79152344 19.21851563 0.03226563 19.24171875 -0.75 19.265625 C-1.74386719 19.28367187 -2.73773437 19.30171875 -3.76171875 19.3203125 C-5.24091797 19.35511719 -5.24091797 19.35511719 -6.75 19.390625 C-9.44921875 19.1953125 -9.44921875 19.1953125 -12.44921875 17.1953125 C-12.01834164 11.0553137 -10.92310399 7.30396726 -7.44921875 2.1953125 C-4.2960709 0.09321393 -3.58818794 -0.0481636 0 0 Z " fill="#C0C5CA" transform="translate(862.44921875,302.8046875)"/>
<path d="M0 0 C7.92 0 15.84 0 24 0 C23.67 1.65 23.34 3.3 23 5 C18.05 5 13.1 5 8 5 C7.34 7.64 6.68 10.28 6 13 C9.96 13 13.92 13 18 13 C17 18 17 18 16 19 C13.81707226 19.23481693 11.62796826 19.41363323 9.4375 19.5625 C7.64119141 19.68818359 7.64119141 19.68818359 5.80859375 19.81640625 C4.88175781 19.87699219 3.95492187 19.93757813 3 20 C2.01 22.31 1.02 24.62 0 27 C4.62 27 9.24 27 14 27 C13.34 28.98 12.68 30.96 12 33 C5.07 33 -1.86 33 -9 33 C-8.26567253 29.32836267 -7.50716236 26.41789183 -6.1875 22.98828125 C-5.83429687 22.06595703 -5.48109375 21.14363281 -5.1171875 20.19335938 C-4.74851562 19.24267578 -4.37984375 18.29199219 -4 17.3125 C-3.63132812 16.35021484 -3.26265625 15.38792969 -2.8828125 14.39648438 C-0.16636588 7.33273176 -0.16636588 7.33273176 1 5 C0.34 5 -0.32 5 -1 5 C-0.67 3.35 -0.34 1.7 0 0 Z " fill="#C1C6CA" transform="translate(597,303)"/>
<path d="M0 0 C7.92 0 15.84 0 24 0 C23.67 1.65 23.34 3.3 23 5 C18.38 5.33 13.76 5.66 9 6 C8.01 8.64 7.02 11.28 6 14 C9.96 14 13.92 14 18 14 C17.67 15.65 17.34 17.3 17 19 C12.38 19 7.76 19 3 19 C2.34 21.64 1.68 24.28 1 27 C5.29 27 9.58 27 14 27 C13 32 13 32 12 33 C10.43827255 33.08685603 8.87270656 33.10702219 7.30859375 33.09765625 C6.36435547 33.09443359 5.42011719 33.09121094 4.44726562 33.08789062 C3.45404297 33.07951172 2.46082031 33.07113281 1.4375 33.0625 C0.44041016 33.05798828 -0.55667969 33.05347656 -1.58398438 33.04882812 C-4.05604849 33.03700007 -6.52799518 33.02051849 -9 33 C-7.09527705 26.31183512 -4.88630143 19.83368334 -2.3125 13.375 C-1.99216797 12.56160156 -1.67183594 11.74820312 -1.34179688 10.91015625 C-0.56480309 8.93867949 0.21706853 6.96912627 1 5 C0.34 5 -0.32 5 -1 5 C-0.67 3.35 -0.34 1.7 0 0 Z " fill="#C2C6CA" transform="translate(423,303)"/>
<path d="M0 0 C4.29 0 8.58 0 13 0 C9.45425602 11.84637967 5.36346859 23.43114957 1 35 C-3.29 35 -7.58 35 -12 35 C-10.56357814 27.5196173 -8.16955123 20.66238036 -5.4375 13.5625 C-5.02564453 12.47517578 -4.61378906 11.38785156 -4.18945312 10.26757812 C-1.19210633 2.38421266 -1.19210633 2.38421266 0 0 Z " fill="#08539B" transform="translate(218,203)"/>
<path d="M0 0 C6.15234375 -0.09765625 6.15234375 -0.09765625 8 0 C9 1 9 1 9.11352539 3.13305664 C9.10828857 4.04949951 9.10305176 4.96594238 9.09765625 5.91015625 C9.09443359 6.89951172 9.09121094 7.88886719 9.08789062 8.90820312 C9.07951172 9.94912109 9.07113281 10.99003906 9.0625 12.0625 C9.05798828 13.10728516 9.05347656 14.15207031 9.04882812 15.22851562 C9.03699913 17.8190666 9.02051689 20.40950559 9 23 C9.37286133 22.48091064 9.74572266 21.96182129 10.12988281 21.42700195 C11.83521732 19.05451222 13.54259005 16.68349648 15.25 14.3125 C15.83652344 13.49587891 16.42304687 12.67925781 17.02734375 11.83789062 C18.67515624 9.55131936 20.3354195 7.27437993 22 5 C22.7321875 3.989375 23.464375 2.97875 24.21875 1.9375 C26 0 26 0 29.25 -0.3125 C30.1575 -0.209375 31.065 -0.10625 32 0 C31.38201719 3.37849591 30.14481236 5.46642253 28.0859375 8.1953125 C27.49321045 8.9896167 26.9004834 9.7839209 26.28979492 10.60229492 C25.34197144 11.85103394 25.34197144 11.85103394 24.375 13.125 C19.3648241 19.63359003 19.3648241 19.63359003 14.83203125 26.47265625 C14.28933594 27.36855469 13.74664063 28.26445312 13.1875 29.1875 C12.76855469 29.94417969 12.34960938 30.70085937 11.91796875 31.48046875 C10 33 10 33 1 33 C1 23.76 1 14.52 1 5 C0.01 5 -0.98 5 -2 5 C-1.34 3.35 -0.68 1.7 0 0 Z " fill="#C3C7CB" transform="translate(663,303)"/>
<path d="M0 0 C0.33 0 0.66 0 1 0 C0.17152027 9.42752798 -1.20356175 18.7627949 -2.5625 28.125 C-2.79902476 29.76559666 -3.03535446 31.40622146 -3.27148438 33.046875 C-3.84504828 37.03163475 -4.42260851 41.01578565 -5 45 C-11.6 45 -18.2 45 -25 45 C-19.57420313 34.58247002 -13.80762727 24.41855492 -7.83740234 14.30273438 C-5.06810136 9.60006098 -2.33636465 4.93419971 0 0 Z " fill="#0E579E" transform="translate(849,77)"/>
<path d="M0 0 C3.3 0 6.6 0 10 0 C9.36352687 6.00103235 7.12278022 11.30423384 4.9375 16.875 C4.56044922 17.84953125 4.18339844 18.8240625 3.79492188 19.828125 C2.86837441 22.22072859 1.93487514 24.61063803 1 27 C4.63 27 8.26 27 12 27 C11.34 28.98 10.68 30.96 10 33 C3.73 33 -2.54 33 -9 33 C-6.3663063 23.39476416 -2.67507822 14.24307344 1 5 C0.34 5 -0.32 5 -1 5 C-0.67 3.35 -0.34 1.7 0 0 Z " fill="#C6CACE" transform="translate(789,303)"/>
<path d="M0 0 C2.97 0 5.94 0 9 0 C9.66882247 6.20750858 7.26216035 11.23488398 5 16.875 C4.6184375 17.84953125 4.236875 18.8240625 3.84375 19.828125 C2.9048549 22.22230751 1.95363668 24.61165099 1 27 C4.63 27 8.26 27 12 27 C11.34 28.98 10.68 30.96 10 33 C3.73 33 -2.54 33 -9 33 C-8.22535932 29.12679662 -7.3673787 26.09522235 -5.93359375 22.48046875 C-5.3293457 20.9480957 -5.3293457 20.9480957 -4.71289062 19.38476562 C-4.29201172 18.32966797 -3.87113281 17.27457031 -3.4375 16.1875 C-3.01275391 15.11306641 -2.58800781 14.03863281 -2.15039062 12.93164062 C-1.10399344 10.28625448 -0.05374756 7.64246489 1 5 C0.34 5 -0.32 5 -1 5 C-0.67 3.35 -0.34 1.7 0 0 Z " fill="#BFC5CA" transform="translate(288,303)"/>
<path d="M0 0 C3.3 0 6.6 0 10 0 C9.40405108 4.5007486 8.23171075 8.30276716 6.49609375 12.4921875 C6.00302734 13.69101562 5.50996094 14.88984375 5.00195312 16.125 C4.48060478 17.37505674 3.95911869 18.62505604 3.4375 19.875 C2.91153536 21.14820052 2.3861391 22.421636 1.86132812 23.6953125 C0.57978638 26.79923011 -0.70748804 29.90063822 -2 33 C-4.31 33 -6.62 33 -9 33 C-6.46277869 23.38272302 -2.66846291 14.22643548 1 5 C0.34 5 -0.32 5 -1 5 C-0.67 3.35 -0.34 1.7 0 0 Z " fill="#C4C8CB" transform="translate(736,303)"/>
<path d="M0 0 C3.3 0 6.6 0 10 0 C9.37910554 4.99043921 7.90498961 9.20727748 6 13.8125 C5.72671875 14.49248047 5.4534375 15.17246094 5.171875 15.87304688 C3.14553571 20.85446429 3.14553571 20.85446429 2 22 C0.31391034 22.07205511 -1.37500659 22.08386068 -3.0625 22.0625 C-3.98160156 22.05347656 -4.90070312 22.04445313 -5.84765625 22.03515625 C-6.55792969 22.02355469 -7.26820313 22.01195312 -8 22 C-5.92957946 14.39162534 -3.14169523 7.2271408 0 0 Z " fill="#09539C" transform="translate(535,308)"/>
<path d="M0 0 C1 2 1 2 0.44140625 3.9453125 C0.15136719 4.66460937 -0.13867188 5.38390625 -0.4375 6.125 C-0.72496094 6.84945313 -1.01242187 7.57390625 -1.30859375 8.3203125 C-1.53675781 8.87460937 -1.76492188 9.42890625 -2 10 C-0.68 10 0.64 10 2 10 C1.67 8.02 1.34 6.04 1 4 C2.32 3.34 3.64 2.68 5 2 C4.67 3.65 4.34 5.3 4 7 C7.63 7 11.26 7 15 7 C14.34 8.98 13.68 10.96 13 13 C6.73 13 0.46 13 -6 13 C-5.01 9.7 -4.02 6.4 -3 3 C-2.34 3 -1.68 3 -1 3 C-0.67 2.01 -0.34 1.02 0 0 Z " fill="#B5C0C9" transform="translate(786,323)"/>
<path d="M0 0 C2.64 0 5.28 0 8 0 C7.125 6.75 7.125 6.75 6 9 C3.03 9 0.06 9 -3 9 C-2.44271087 5.65626525 -1.64826111 2.96687001 0 0 Z " fill="#0E579D" transform="translate(223,321)"/>
<path d="M0 0 C1.134375 0.020625 2.26875 0.04125 3.4375 0.0625 C2.5625 6.9375 2.5625 6.9375 1.4375 8.0625 C-1.23308851 8.20365161 -3.88682238 8.10497107 -6.5625 8.0625 C-4.38461538 0.07692308 -4.38461538 0.07692308 0 0 Z " fill="#08559C" transform="translate(231.5625,307.9375)"/>
<path d="M0 0 C1 3 1 3 0.0625 5.1875 C-0.4634375 6.0846875 -0.4634375 6.0846875 -1 7 C-0.34 7.33 0.32 7.66 1 8 C0.01 8.66 -0.98 9.32 -2 10 C-2.2502157 13.08365871 -2.2502157 13.08365871 -2 16 C-3.32 16 -4.64 16 -6 16 C-5.52846905 13.57498366 -5.05397926 11.18892739 -4.375 8.8125 C-3.78653641 6.91096507 -3.78653641 6.91096507 -5 5 C-3.35 3.35 -1.7 1.7 0 0 Z " fill="#D0D3D6" transform="translate(790,317)"/>
<path d="M0 0 C3.3 0 6.6 0 10 0 C9.125 5.75 9.125 5.75 8 8 C7.01 8 6.02 8 5 8 C5.66 6.02 6.32 4.04 7 2 C5.02 2 3.04 2 1 2 C0.67 1.34 0.34 0.68 0 0 Z " fill="#C4C8CC" transform="translate(789,303)"/>
<path d="M0 0 C2.31 0.33 4.62 0.66 7 1 C6.34 2.65 5.68 4.3 5 6 C4.34 4.68 3.68 3.36 3 2 C2.34 2 1.68 2 1 2 C1 2.66 1 3.32 1 4 C0.34 4 -0.32 4 -1 4 C-0.67 2.68 -0.34 1.36 0 0 Z " fill="#D0D3D6" transform="translate(789,304)"/>
<path d="M0 0 C0.33 0.66 0.66 1.32 1 2 C-0.59617578 5.83082186 -1.49984971 7.66656647 -5 10 C-4.34 7.69 -3.68 5.38 -3 3 C-2.34 3 -1.68 3 -1 3 C-0.67 2.01 -0.34 1.02 0 0 Z " fill="#C4C8CB" transform="translate(786,323)"/>
<path d="M0 0 C0.66 0 1.32 0 2 0 C1.34 2.31 0.68 4.62 0 7 C-0.99 7 -1.98 7 -3 7 C-1.125 1.125 -1.125 1.125 0 0 Z " fill="#C4C8CC" transform="translate(792,317)"/>
</svg>
