<svg xmlns="http://www.w3.org/2000/svg" height="248.83" viewBox="0 0 214 248.83325" width="214"><g transform="matrix(1.25 0 0 -1.25 -443.83 831.87)"><g><path d="m464.55 467.15h-50.775l-37.984 32.999-0.0855 131.58 37.707 32.854 89.563 0.037v-73.252l-53.363 0.0702v19.35h-20.582v-89.647h20.582v19.012h53.363v-40.09l-38.425-32.91z" fill="#c6bc89"/><path d="m462.43 472.89h-46.509l-34.389 29.876-0.0817 126.35 34.114 29.723 81.669 0.0345v-61.76l-41.878 0.0549v19.359l-32.066-0.001v-101.13h32.066v19.012h41.878v-31.706l-34.804-29.811z" fill="#772432"/><path d="m460.34 621.51v-19.366l31.913-0.0421v51.788l-31.913-0.004v-7.6047l-9.0565 7.5754h-33.851l-30.996-27.007 0.0779-121.81 31.269-27.167h42.805l31.664 27.121v24.432h-31.913v-19.012h-42.032v111.09l42.032 0.001z" fill="#fff"/><path d="m171.5 14.516l-20 17.377v30.394l-19.88 16.842 39.88 0.051v-64.664zm0 64.664v0.045-0.045zm-90.822-44.405l-21.637 18.514 0.092 142.23 8.986 7.97 10.949-9.64 0.034-138.82 52.488-0.016 0.03-8.869-13.25-11.37h-37.692zm90.812 135.38l-19.93 17.23-0.05 7.86-21.77 18.96h-27.42l-23.918 20.36h53.508l39.6-33.93-0.02-30.48z" transform="matrix(.8 0 0 -.8 355.06 665.49)" fill="#d5d6d2"/><path d="m355.78 547.66h169.6v36.037h-169.6v-36.037z" fill="#772432"/><path d="m167.87 113.36l-3.3 3.03v17.18l3.18 3.13 8.71 0.01 3.36-3.14v-17.2l-3.38-3.01h-8.57zm-149.47 0.02l-3.421 2.89v17.94l3.328 2.47h7.64l3.285-2.56v-3.78h-4.927v1.75h-4.516v-13.93h4.428v1.72h5.015v-6.43h-5.015v1.21l-1.643-1.28h-4.174zm39.52 0.05l-3.887 18.51h-1.277v4.7h7.603v-4.7h-1.228l0.25-1.29h1.437 1.143 1.447l0.244 1.29h-1.142v4.7h7.599v-4.7h-1.359l-3.893-18.51h-3.328-0.283-3.326zm74.672 0l-3.32 2.92v8.89l2.77 2.21h6.5v4.6h-4.35v-1.85h-4.92v4.05l3.52 2.39h7.64l3.08-2.78v-8.81l-3.18-2.16h-5.9v-4.6h4.13v1.59h5.01v-6.43h-5.01v1.28l-1.85-1.3h-4.12zm-100.31 0.02v4.71h1.281v13.78h-1.281v4.7h7.598v-4.7h-1.299v-4.36h4.836v4.36h-1.383v4.7h7.6v-4.7h-1.192v-13.78h1.192v-4.71h-7.6v4.71h1.383v4.83h-4.836v-4.83h1.299v-4.71h-7.598zm40.832 0v4.71h1.516v13.78h-1.387v4.7h7.594v-4.7h-1.352v-4.49h1.151l3.871 9.19h0.596 2.976 1.442v-4.7h-1.874l-1.951-4.94 2.871-2.85v-7.03l-3.31-3.65h-4.123l-2.072 1.61v-1.63h-5.948zm19.858 0v4.71h1.39v13.81h-1.39v4.71h14.449l-0.03-6.43h-4.81v1.72h-3.203v-13.81h1.193v-4.71h-7.599zm17.649 0v4.71h1.44v13.82h-1.44v4.7h14.94v-2.36h0.03v-4.19h-4.81v1.85h-3.7v-4.4h6.13v-4.59h-6.13v-4.83h3.7v1.84h4.81v-4.18h-0.03v-2.37h-14.94zm35.09 0l0.03 6.55h4.81v-1.84h0.97v13.78h-1.41v4.7h7.6v-4.7h-1.17v-13.78h0.86v1.84h4.82l-0.02-6.55h-16.49zm40.88 0.02l-0.01 0.02h-4.68v4.72h1.12v13.63h-1.07v4.71h7.59v-4.71h-1.45v-6.42l5.06 11.22h5.02v-18.43h1.16v-4.72h-7.6v4.72h1.22v5.85l-4.72-10.59h-1.64zm-17.03 4.9h5.16l0.03 13.34h-5.19v-13.34zm-90.173 0.02h4.269v4.5h-4.269v-4.5zm-18.242 3.29h0.488l1.096 4.37h-1.202-0.283-1.191l1.092-4.37z" transform="matrix(.8 0 0 -.8 355.06 665.49)" fill="#fff"/></g></g></svg>