<?xml version="1.0" encoding="utf-8"?>
<!-- Generator: Adobe Illustrator 22.1.0, SVG Export Plug-In . SVG Version: 6.00 Build 0)  -->
<svg version="1.1" id="Layer_2" xmlns="http://www.w3.org/2000/svg" xmlns:xlink="http://www.w3.org/1999/xlink" x="0px" y="0px"
	 width="300.5px" height="179.37px" viewBox="0 0 300.5 179.37" enable-background="new 0 0 300.5 179.37" xml:space="preserve">
<g>
	<path fill="#84BD00" d="M244.81,155.39h-79.03l-0.3-0.16l-0.55-0.31l-0.51-0.33l-0.51-0.34l-0.45-0.36l-0.49-0.36l-0.57-0.27
		l-0.1-0.6l0.02-0.62l-0.11-0.53l-0.48-0.39l-0.51-0.32l-0.4-0.45l-0.43-0.33l-0.16-0.55l-0.11-0.55l-0.18-0.54l-0.2-0.52
		l-0.16-0.53l-0.11-0.53l-0.1-0.56l-0.17-0.54l-0.23-0.49l-0.13-0.55l-0.15-0.48l0.07-0.57l-0.04-0.56l-0.17-0.55l0.05-0.58
		l-0.11-0.53l0.04-0.55l-0.01-0.55l0.04-0.57l-0.01-0.54l-0.04-0.56l-0.01-0.53l-0.03-0.56l-0.12-0.55l0.05-0.56l-0.13-0.53
		l0.03-0.55l-0.03-0.53l0.05-0.55l-0.08-0.52l-0.03-0.51l-0.04-0.55l0.04-0.56l-0.05-0.54l-0.1-0.54l0.07-0.54l-0.09-0.55
		l-0.07-0.54l-0.03-0.49l0.06-0.55l-0.04-0.55l-0.01-0.54l-0.08-0.55l-0.07-0.55l-0.06-0.55l-0.05-0.55l0.03-0.55l-0.01-0.54
		l-0.1-0.55l0.03-0.55l-0.1-0.54l-0.06-0.54l-0.03-0.54l0.09-0.56l-0.05-0.55l-0.03-0.54l-0.03-0.56l-0.04-0.54l-0.19-0.54
		l0.03-0.56l0.06-0.55l-0.1-0.54l-0.02-0.54l-0.05-0.54l-0.02-0.55l-0.08-0.52l-0.05-0.5v-0.55l0.03-0.53l-0.07-0.54v-0.54
		l0.02-0.53l-0.1-0.53l-0.01-0.53l0.06-0.54l-0.02-0.5l0.03-0.53l0.02-0.54l-0.08-0.53l0.07-0.53l-0.12-0.53l0.05-0.52l-0.02-0.53
		l0.01-0.54l0.02-0.52l0.05-0.53l-0.03-0.54l-0.09-0.48l0.1-0.56l-0.04-0.56l-0.06-0.55l0.09-0.55l-0.11-0.54l0.02-0.55l-0.09-0.55
		l-0.04-0.56l0.1-0.53l-0.06-0.54l0.05-0.53l-0.05-0.54l-0.04-0.55l0.02-0.55l-0.07-0.53v-0.54l0.01-0.5l0.03-0.54l-0.02-0.55
		l-0.03-0.55l-0.07-0.54l-0.08-0.54v-0.55l0.08-0.55l-0.13-0.54l0.01-0.55l-0.05-0.54l0.14-0.57l-0.17-0.53l0.12-0.55l-0.12-0.53
		l0.04-0.55l-0.01-0.54l0.01-0.56l-0.06-0.54l-0.12-0.53l0.12-0.55l-0.03-0.54l-0.11-0.55l0.05-0.54l-0.05-0.54l0.01-0.55
		l-0.03-0.54l0.03-0.54l-0.1-0.54L156,77.54l0.04-0.52l-0.08-0.53l-0.02-0.51l0.09-0.5l-0.09-0.49c0.05-0.17,0.28-0.19,0.37-0.29
		l0.29-0.09c0.03-0.11,0.27-0.06,0.27-0.23l0.15-0.02l0.29-0.16c-0.06-0.18,0.21-0.09,0.25-0.18c0.18-0.04,0.12-0.28,0.35-0.24
		c0.21,0.04,0.07,0.32,0.11,0.45c0.16,0.1,0.12-0.13,0.23-0.12v0.09l0.19-0.25c0.19,0.07,0.32,0.22,0.56,0.16l0.32,0.14
		c-0.03,0.21-0.24,0.26-0.28,0.42h0.06l0.03,0.11c0.23,0,0.35-0.17,0.45-0.32l0.05,0.19l0.08-0.03l0.02,0.03h0.05v-0.07l0.22,0.06
		l-0.14,0.3l0.13,0.03c-0.03,0.19,0.26,0.12,0.14,0.27c-0.1-0.02-0.11-0.16-0.28-0.11v0.09l-0.23,0.01c0-0.2-0.3-0.01-0.26-0.24
		l-0.11-0.01v0.09c-0.07,0.07-0.15,0.3-0.3,0.15v-0.1h-0.07l-0.06-0.1h-0.24v-0.04h-0.16v0.06l-0.15,0.04l0.01,0.12
		c-0.13,0.11-0.12-0.1-0.28-0.04v0.07l-0.1,0.07l0.14,0.21c-0.23,0.09-0.46-0.14-0.6-0.03h0.06l0.03,0.12l0.33,0.03l0.17,0.25
		l0.34,0.04l0.09,0.14L158,76.07l0,0.09c0.09,0.09,0.38-0.06,0.34,0.15l-0.1,0.04l0,0.1l-0.19,0.04l-0.03,0.23l0.28-0.25l0.04,0.02
		l-0.16,0.24v0.11h0.07c0.01-0.16,0.26-0.16,0.4-0.11v0.09c0.29,0.01-0.06,0.32,0.17,0.4l0.31-0.09c0.27,0.06-0.09,0.2,0.12,0.29
		c-0.1,0.38-0.44-0.15-0.46,0.23l-0.05-0.06h-0.19c-0.07,0.15,0.12,0.16,0.05,0.25h-0.06c0.08,0.35-0.39-0.05-0.45,0.02
		c-0.24,0.18,0.05,0.32,0.06,0.42l-0.2,0.1h0.07l0.01,0.13l-0.41,0.04v0.1c0.17,0,0.33-0.02,0.47,0.02l-0.05,0.13h0.07l-0.02,0.27
		c0.26,0.03,0.24-0.26,0.49-0.26c0.07,0.18-0.26,0.19-0.21,0.29c0.28,0.07,0.26-0.23,0.51-0.16c-0.02,0.17,0.21,0.28,0,0.33
		l0.09,0.32c0.14-0.08,0.17-0.39,0.33-0.48l0.04,0.24l0.14,0.12l0.33,0.01l0.04,0.09h-0.04c-0.04,0.18,0.04,0.22,0.04,0.39
		l0.21-0.01l0.07,0.14c0.25,0.04,0.09,0.38,0.2,0.52c0.11-0.01-0.05-0.24,0.14-0.22v-0.06l0.14-0.09c0.18-0.37,0.18,0.23,0.42,0.14
		l0.04-0.25l0.13,0.08v-0.09c0.17-0.04,0.35,0.12,0.45-0.02l-0.17-0.07c0.01-0.23-0.34-0.12-0.29-0.38l0.19-0.08l-0.02-0.12
		l-0.03-0.04c0.23-0.23,0.4,0.1,0.59,0.17c0.05-0.19,0.33-0.09,0.43-0.24l0.1-0.08l-0.06-0.41l0.05,0.05l0.08-0.11l0.08,0.07
		l0.05-0.17h-0.11l-0.01-0.22l-0.43-0.1l0.14-0.13l-0.59-0.01c0.19-0.19,0.04-0.26,0.05-0.54c0.15-0.04,0.22-0.3,0.42-0.31
		l0.02-0.12c0.24-0.09,0.44,0.05,0.42,0.27l0.27,0.01l-0.08,0.03l-0.07,0.22h0.09l0.05-0.14c0.2-0.02,0.02,0.24,0.1,0.19
		c-0.17,0.02-0.06,0.2-0.12,0.26l0.29,0.03l-0.08,0.32l0.22,0.07l-0.02,0.31h-0.07v0.08h0.16l0-0.08h0.3l-0.04,0.11l-0.11-0.05
		l-0.1,0.21l0.13,0.05l0.01-0.09c0.1-0.03,0.21-0.22,0.28-0.05c0.17-0.04,0.11-0.22,0.2-0.34c0.19-0.02,0.06,0.18,0.13,0.27
		l0.07,0.01v-0.07l0.17-0.08l0.12-0.26l0.01,0.12l0.21-0.14l-0.12-0.16l0.27-0.12l-0.07-0.1l0.12-0.02v-0.12
		c0.34,0.01-0.01-0.67,0.37-0.59c-0.03-0.12-0.27-0.08-0.27-0.24L165,77.1l-0.14-0.28l0.21-0.08c-0.27,0.08-0.24-0.25-0.49-0.17
		l0.26-0.14l-0.11,0l-0.15-0.08l0.09-0.18c-0.17-0.1-0.53,0.1-0.56-0.17l0.21-0.16c-0.01-0.16,0.11-0.15,0.22-0.13l-0.01-0.06
		c0.05-0.1,0.07-0.25,0.28-0.21c0.04,0.23,0.17,0.4,0.4,0.41v-0.09c0.17-0.03,0.41-0.05,0.55,0.04c0.2-0.09,0.35-0.11,0.5,0.07
		l0.06-0.09c-0.18-0.06-0.15-0.24-0.26-0.33l0.05-0.09L166,75.31h0.19c-0.05-0.15,0.2-0.07,0.16-0.24c-0.2-0.01-0.28-0.22-0.37-0.31
		l0.17,0.12c0.22-0.04,0.25,0.22,0.48,0.15v-0.09l0.14,0.04c-0.06-0.13-0.27-0.19-0.2-0.37l0.21-0.1l-0.24-0.05l0.02-0.13l0.07,0.02
		l0.01-0.1l-0.08-0.01l-0.06-0.14l0.14-0.02c-0.28-0.03-0.48,0.03-0.69-0.06c0.05-0.17,0.28-0.04,0.42-0.11v-0.08
		c-0.22-0.06-0.4,0.11-0.5,0.05l-0.19-0.07l0.33-0.07l0.14-0.09c-0.07-0.32-0.07,0.17-0.3,0l0.02-0.19l-0.12-0.07
		c-0.02,0.15-0.08-0.02-0.13,0c0.11-0.26-0.23-0.18-0.31-0.32c0.17,0.07,0.43-0.25,0.49,0.07l0.36,0.06
		c0.06,0.07,0.3-0.06,0.25,0.14l0.37,0.06l-0.05,0.14l0.25,0.23c0.43-0.15,0.36,0.32,0.64,0.32l-0.09-0.15
		c0.19-0.06,0.07-0.09,0.12-0.27l0.17,0.07v-0.07l-0.08-0.01l-0.04-0.12l0.07-0.02l0.03,0.07l0.04-0.21h0.12
		c-0.05-0.21-0.31-0.4-0.15-0.7c0.3-0.06-0.09-0.3,0.01-0.43h0.02v-0.3l0.14-0.02l0.52,0.15c-0.05-0.22-0.35-0.31-0.56-0.36
		c-0.13-0.05-0.37-0.1-0.35-0.27h0.08l0.02,0.06c0.18-0.06,0.2,0.12,0.39,0.06c0.07-0.3-0.3-0.17-0.37-0.37
		c0.38-0.05,0.43,0.01,0.8-0.05v-0.09c-0.16,0-0.25-0.06-0.35-0.13c0.29-0.15,0.67-0.14,0.95-0.3c0.13-0.31,0.59-0.03,0.79-0.18
		c0.07-0.22-0.05-0.28-0.2-0.33l0.1-0.05c-0.04-0.22,0.27-0.17,0.23-0.41c0.25,0.07,0.36-0.18,0.63-0.13
		c-0.06-0.17-0.16-0.33-0.19-0.52c-0.36-0.1-0.56,0.1-0.85,0.2l-0.05-0.07c-0.19-0.04-0.3,0.06-0.42,0.12
		c-0.14-0.13-0.23-0.39-0.27-0.6c0.4,0.01,0.56-0.37,0.71-0.67c0.3-0.06,0.19-0.32,0.49-0.35l0.35,0.06
		c0.21-0.04,0.12,0.18,0.17,0.27h0.22v-0.09l-0.11-0.01c0.2,0.01,0.09-0.16,0.14-0.28l0.13,0.06l0.06-0.11
		c0.06,0.04,0.29-0.02,0.23,0.17l-0.1,0.19l0.21,0.09l0.08,0.23l0.02-0.09c0.31-0.06,0.05-0.43,0.3-0.45
		c-0.07-0.11-0.34,0.02-0.18-0.22l0.07,0.07c0.07-0.16-0.1-0.07-0.11-0.2l0.19-0.01c0.11-0.11,0.2-0.05,0.16-0.25l-0.21-0.03
		l0.12-0.21l-0.27,0c-0.07-0.16,0.22-0.22,0.02-0.28l0.1-0.08l-0.01-0.03l0.14-0.08l0.03-0.09c0.06-0.16,0.04-0.34-0.12-0.48h-0.07
		v-0.12l-0.1-0.02l-0.15,0.15l0.01,0.06l-0.14,0.04v-0.04l-0.03,0.07l-0.06-0.05v0.05c-0.26-0.21,0.36-0.1,0.22-0.43l-0.09-0.01
		l0.13-0.17l-0.42-0.1l0.24-0.28l-0.63-0.03l-0.06-0.16l0.05-0.02v-0.21h-0.12v0.09l-0.13,0.06c-0.03-0.16-0.06-0.15-0.03-0.29
		h-0.06l-0.08-0.26h-0.11l-0.03,0.21l-0.04-0.08l-0.22-0.03c-0.22,0.11-0.22,0.32-0.28,0.55c-0.36-0.1-0.52,0.16-0.71,0.24
		l-0.18-0.12c0.09-0.44-0.32,0.06-0.28-0.4c-0.26-0.09-0.08-0.25-0.14-0.41l0.42-0.04l-0.09-0.23c-0.23-0.08-0.37,0.15-0.54-0.04
		l0.07-0.04c-0.33-0.28,0.48-0.11,0.15-0.47l-0.28-0.04c0.16-0.16,0.43-0.09,0.71-0.16l0.14-0.24l0.08,0.11
		c0.17,0.05,0.22-0.06,0.36-0.1c0.34,0.11,0.03-0.33,0.29-0.34c0.17-0.02,0.38,0.03,0.47-0.04l0.12,0.09l0.1,0.11l0.31-0.05
		l-0.17-0.03l0.27-0.02l-0.1-0.16l0.15-0.08l0.03,0.07l0.11,0.14v-0.1l0.13-0.04c-0.15-0.17,0.09-0.18,0.1-0.35
		c-0.15-0.04,0.13-0.11-0.06-0.19l0.39-0.13h-0.04l-0.1-0.15l0.16-0.08v0.08l-0.02,0.05h0.02c0,0,0.24-0.35,0.5-0.38
		c-0.24-0.07,0.07-0.18,0.04-0.29l-0.13-0.04l0.02-0.12l0.04,0.08c0.06-0.05,0.31,0,0.23-0.18l-0.21-0.04l0.06-0.02l-0.02-0.3
		c-0.25-0.06-0.48-0.12-0.74-0.11l0.05-0.02v-0.24l-0.33-0.03l0.01-0.46l-0.27,0.04c-0.16,0.04-0.15,0.26-0.27,0.36l-0.23-0.14
		l0.05-0.02l0.17-0.19l-0.12-0.01c-0.27-0.05-0.45,0.11-0.58,0.01l0.05-0.03c0.01-0.27,0.03-0.53-0.13-0.74l-0.32,0.2
		c-0.08-0.18-0.13-0.37-0.29-0.49c-0.23-0.07-0.28,0.11-0.48,0.04l0-0.06c-0.19,0.09-0.2-0.18-0.37-0.06
		c-0.08,0.29,0.1,0.73-0.16,0.89l-0.06-0.09c-0.23-0.05-0.21,0.18-0.31,0.27l-0.03-0.12c0.06,0.02-0.05-0.28,0.16-0.19l0.02-0.25
		l-0.01-0.28l-0.1-0.01c-0.31-0.09-0.06-0.32-0.11-0.55l-0.22,0.01l-0.01,0.07l-0.1,0.04l0.03-0.2l-0.17-0.07l-0.05,0.16
		c0.03,0.36-0.16-0.19-0.32,0.04l0.08,0.07l-0.12,0.09c-0.03-0.09-0.22-0.02-0.18-0.21h-0.06v0.09c-0.19,0.05-0.18,0.32-0.38,0.32
		c0.03,0.22-0.19,0.24-0.19,0.37l0.1,0.03c-0.26,0-0.05,0.32-0.24,0.39l0.09,0.14l-0.09,0.02l-0.14,0.11h-0.3
		c0.1-0.12,0.05-0.32,0.23-0.32c-0.31-0.1,0-0.34,0.06-0.49l-0.24,0.09c-0.43-0.27,0.26-0.15,0.27-0.34l-0.13-0.02
		c0.16-0.11,0.19-0.09,0.37-0.02l-0.02-0.24l0.12-0.04c-0.09-0.19,0.16-0.21,0.07-0.4c-0.21,0.13-0.05-0.2-0.25-0.14
		c-0.22-0.16,0.05-0.29,0-0.53c0.39-0.07,0.98,0.09,1.22-0.22c0.16,0,0.18-0.3,0.29-0.18l-0.01-0.14v0.09h-0.15
		c-0.26-0.1-0.26,0.3-0.55,0.17l-0.01,0.09c-0.23,0-0.43,0.1-0.67,0.01c-0.04-0.22-0.44-0.03-0.45-0.27
		c-0.21,0.12-0.28-0.18-0.4-0.02l-0.02-0.11c-0.3,0.09-0.17-0.23-0.26-0.34l0.05-0.08l-0.11-0.02l0.07-0.06h-0.07
		c-0.16-0.34-0.17-0.73-0.13-1.13h0.06l-0.06-0.07l0.07-0.04v-0.28c0.1-0.19,0.46-0.09,0.68-0.09l-0.01,0.07l0.23,0.09l-0.13,0.12
		c0.07,0.3-0.25,0.18-0.2,0.42h0.05l0.04,0.12l0.14,0.03l-0.05,0.25h0.06l0.07,0.14l0.1,0c0.22-0.06,0.12,0.18,0.14,0.28
		c0.18,0.5,0.28-0.21,0.67,0.01c0-0.31,0.36,0.03,0.47-0.16l-0.11,0.04c0.09-0.16-0.19-0.24-0.02-0.39
		c-0.07,0.03-0.03-0.19-0.18-0.19c-0.07-0.18,0.09-0.26,0.14-0.38l-0.44-0.29c0.14-0.12-0.15-0.18-0.06-0.41
		c-0.04-0.18-0.27-0.12-0.42-0.22l0.21-0.01l0.05-0.28c0.31-0.07-0.11-0.23,0.03-0.42h-0.06l-0.05-0.11l0.07-0.03l-0.08-0.14
		l0.09-0.05V52.7h-0.07l0.01-0.34c0.26-0.22,0.17,0.24,0.48,0.11v-0.05l0.29-0.04L166.59,52c0.15,0.03,0.29,0.15,0.5,0.15l-0.11-0.2
		l0.11,0.06v-0.28l0.19-0.09c0-0.14-0.2-0.3,0.03-0.37c0.05-0.21-0.19-0.26-0.28-0.36c0.16-0.02,0.19-0.22,0.25-0.3l-0.04-0.04
		l0.05-0.19l0.03,0.04l0.21,0.01c0.01-0.18-0.23-0.4-0.12-0.51l0.01,0.05l0.19,0.05l0.35-0.22l0.02,0.04l0.12-0.09
		c-0.06-0.12-0.23-0.19-0.27-0.34l0.05-0.03l0.05,0.04h0.22v-0.18h-0.07l-0.11-0.14l0.27-0.13l-0.4-0.21l-0.21-0.29l0.27-0.02
		l-0.02-0.25l0.43-0.02c0.2-0.07,0.04-0.08,0.08-0.26c-0.47-0.18,0.26-0.04,0.15-0.31l-0.27-0.1c0.09,0.05,0.12-0.18,0.16-0.02
		l0.12-0.18l-0.15-0.06c0.1-0.18-0.27-0.07-0.22-0.08l-0.05-0.05c-0.08-0.27,0.2-0.17,0.3-0.32c0.46,0.11,1.28-0.19,1.42,0.3
		l0.02-0.28c0.2-0.04,0.64,0.15,0.63-0.15L170,46.59l0.02-0.34l0.4-0.04l-0.15-0.25L170.24,46l-0.23,0.03
		c0.05-0.3,0.6,0.1,0.54-0.31c0.3,0,0.26-0.35,0.66-0.23c0.04-0.11,0.3-0.11,0.21-0.34c-0.08-0.08-0.15-0.26-0.33-0.27
		c-0.08-0.53,0.52-0.31,0.78-0.5c0.01-0.15,0.19-0.21,0.25-0.23l-0.09-0.21v0.07c-0.17,0.09-0.22-0.07-0.31-0.13l0.23-0.13
		l-0.35,0.04l-0.19-0.08c-0.02-0.2,0.27-0.09,0.27-0.25l-0.27,0.11c-0.12-0.14-0.2-0.41-0.39-0.24v-0.14l-0.25-0.31
		c0.03-0.16,0.01-0.3-0.13-0.37c-0.34-0.17-0.61,0.26-0.8,0.48c-0.33-0.65-0.21,0.35-0.48,0.31l-0.17-0.15
		c-0.12,0.08,0.02,0.46-0.23,0.38c-0.08-0.28-0.26,0.05-0.46,0.02c-0.03,0.23-0.26,0.28-0.27,0.53l-0.27-0.09l0.1-0.25h-0.1
		l-0.03-0.19c-0.08-0.16-0.12-0.52-0.07-0.76l0.28,0.04v0.03c0.22,0.03,0.31-0.15,0.48-0.15l-0.16-0.14
		c-0.28-0.17-0.3-0.35-0.39-0.63l0.19-0.07c0.3,0.23,0.4-0.17,0.63-0.22c0.15-0.05,0.5,0.12,0.5-0.13c0.21,0.01,0.21-0.32,0.42-0.11
		l0.18-0.15l0.07,0.04l0.04-0.35l0.27-0.2l0.25-0.15c-0.04-0.12-0.26,0.03-0.25-0.19l0.08-0.08c-0.14-0.12,0.13-0.15,0.05-0.34
		l-0.42-0.1l0.12-0.02v-0.09h0.05l-0.08-0.34l0.32-0.11c0.33-0.36-0.44-0.07-0.34-0.45c-0.2,0.09-0.32-0.21-0.51-0.02l-0.03-0.08
		l0.06-0.02v-0.16c-0.26,0.02-0.18,0.41-0.43,0.36c0-0.19-0.26-0.25-0.27-0.45l0.14-0.02c-0.05-0.21,0.18-0.26,0.29-0.33
		c-0.2,0.04-0.34,0.2-0.56,0.14l0.14-0.23l-0.12-0.17v0.03c-0.18,0.12-0.2-0.03-0.29-0.12l0.23-0.11l-0.07-0.05l-0.29,0.09
		l-0.13-0.07c-0.57,0.13,0.26-0.25,0.19-0.25l-0.29,0.04l0.1-0.42l0.22,0.1L168.48,37l0.12-0.05v-0.06l0.13-0.08l0.09,0.1h0.21
		c0.06-0.13,0.31-0.04,0.28-0.25l-0.05-0.02l-0.08-0.43c-0.15-0.17,0.2-0.13,0.17-0.3l0.06,0.05v-0.05c-0.16-0.07,0.08-0.07,0-0.18
		l-0.13-0.24l0.4-0.04c0.17-0.06,0.14-0.25,0.19-0.46l0.79,0.01l0.49-0.46l0.08,0.11l0.2-0.03c-0.05-0.21,0.2-0.14,0.27-0.15
		l-0.05-0.14h0.34l-0.26-0.3c0.22-0.12,0.3,0.13,0.48,0.01c-0.18,0.07-0.11-0.14-0.22-0.14l0.25-0.34h0.12
		c-0.1-0.12-0.35,0.11-0.55,0.04l0.19-0.21l-0.14-0.06h0.11c0.31,0.13,0.25-0.38,0.25-0.36l-0.33-0.13
		c-0.07,0.13-0.24-0.04-0.31,0.12l-0.19-0.02c0.01-0.16,0.17-0.19,0.17-0.29l0.02,0.02l0.03-0.29c0.17-0.02,0.19,0.12,0.36,0.05
		l-0.16-0.1l-0.05-0.13c0.15-0.03,0.35,0.07,0.35-0.12c-0.22-0.17-0.42,0.22-0.42,0.14l0.03,0.01l-0.18,0.17l-0.05-0.3
		c0.17-0.12,0.24-0.38,0.55-0.28l0.02-0.28h0.15c0.08-0.2-0.13-0.09-0.17-0.25l0.17-0.07v-0.12l-0.29-0.01v-0.14l-0.28-0.13
		l0.09-0.02l-0.23-0.03l0.05-0.37H172l-0.14-0.3l0.07-0.03l0.03,0.05l0.1-0.09l-0.02-0.22l0.26-0.24l0.26-0.13l-0.28-0.19
		c0.16-0.06-0.02-0.35,0.18-0.33l-0.14-0.06l0.03-0.02h-0.12v-0.06l-0.1,0.05l-0.04-0.25h-0.02v0.06h0.01l-0.09,0.05l-0.04-0.08
		l0.07-0.02l0.01-0.24c-0.14-0.11-0.23-0.25-0.49-0.23c0.11-0.18,0.29-0.43,0.35-0.62l0.07-0.24l-0.07,0.04l0-0.12l-0.1,0.04
		l-0.02-0.04l-0.08-0.21c0.23-0.11,0.41-0.06,0.5-0.41c-0.27-0.18,0.06-0.47-0.05-0.77h-0.08c-0.15,0.02-0.06-0.17-0.09-0.26
		c-0.06-0.18-0.37-0.08-0.56-0.12l-0.11,0.29c-0.1,0.05-0.12-0.12-0.28-0.1c-0.04-0.18,0.07-0.23,0.19-0.28
		c0.02-0.07,0.23,0.06,0.16-0.12l-0.09-0.02c0.13-0.27,0.68-0.02,0.73-0.33l-0.64-0.04v-0.04l0.28-0.04v-0.07l-0.27-0.02v-0.14
		l-0.27-0.06v-0.23l-0.31,0.02l-0.05,0.12l-0.02-0.07h-0.04l-0.11,0.16h0.03l-0.02,0.11l-0.19-0.04l0.04-0.02v-0.22h-0.33
		c-0.15,0.2-0.11,0.46-0.27,0.65c-0.25-0.1-0.22,0.13-0.39,0.17l-0.03-0.07l0.06-0.04l0-0.2l-0.19,0.04
		c-0.37-0.08-0.13,0.37-0.39,0.41c-0.04-0.23-0.04-0.54,0.01-0.8l0.14,0.01c0.07-0.28,0.52-0.12,0.72-0.2l0.15-0.21l-0.15-0.17
		c-0.27,0.06-0.04-0.37-0.19-0.46c-0.16-0.05-0.19,0.06-0.3,0.12l-0.04-0.13l-0.32-0.01l0.05-0.27h-0.07
		c-0.14,0.01-0.34,0.01-0.3,0.2c-0.29-0.02-0.32,0.25-0.44,0.39h0.07l0.01,0.1c-0.18-0.07-0.41,0.25-0.43-0.07l-0.35,0.21l0.09-0.29
		h-0.04c0.03-0.26-0.12-0.33-0.26-0.49c-0.34,0-0.48,0.35-0.69,0.43v-0.07l-0.16-0.01c-0.18,0.05-0.36,0.17-0.57,0.2
		c-0.04-0.16-0.02-0.31-0.02-0.48h-0.2c-0.18,0.26-0.39,0.65-0.74,0.62l0.03-0.16h-0.07l-0.1-0.07c0.17-0.04,0.28-0.16,0.43-0.21
		c-0.11-0.19-0.36,0.16-0.46-0.07l0.14-0.05v-0.07l0.13,0.04v-0.04l-0.51-0.06v-0.08l0.14-0.07l-0.04-0.07
		c-0.19,0.07-0.24-0.12-0.29-0.24h-0.33l-0.07-0.14l0.18-0.04c0.19-0.43,0.61,0.06,0.85-0.1l-0.26-0.31c0.21-0.11,0.3,0.12,0.49,0
		c-0.18,0.07-0.12-0.13-0.23-0.13l0.26-0.34h0.11c-0.08-0.11-0.34,0.12-0.56,0.04l0.2-0.21c-0.14-0.05-0.19,0.17-0.28,0l-0.07,0.07
		l-0.08-0.21l-0.06,0.07l-0.04-0.07c-0.15,0.21-0.22-0.12-0.33-0.07c-0.1,0.22-0.26-0.14-0.3,0.14c-0.18,0.04-0.22-0.07-0.26-0.14
		l-0.03,0.04c-0.18,0.04-0.27-0.15-0.35-0.27c0.18,0.03,0.2-0.11,0.3-0.19c0.16,0,0.28-0.14,0.37-0.04l0.3,0.05l-0.17-0.21
		c0.09-0.07,0.36,0.09,0.34-0.14l-0.2-0.07c0.12-0.08,0.23-0.16,0.41-0.17c-0.04-0.22-0.34-0.03-0.47-0.14v-0.1l0.39-0.04v-0.16
		h-0.06l-0.1-0.12c0.01-0.11,0.26,0.06,0.17-0.15l-0.3-0.01l0.03-0.14l-0.18-0.06l-0.23,0.05l-0.27-0.07
		c0.17-0.18,0.58,0.04,0.68-0.19l-0.6-0.04l0.08-0.15c-0.14-0.03-0.28,0.01-0.44-0.03l0.09-0.04l-0.34-0.1v-0.07
		c-0.23-0.01-0.42,0.24-0.58,0.09v-0.01c-0.13-0.16-0.24,0.18-0.34-0.01l-0.05,0.11c-0.16,0.05-0.19-0.07-0.28-0.13l-0.02,0.06
		l-0.05-0.02v-0.23l-0.16-0.07l-0.07-0.1l-0.15,0.07l-0.14-0.08l-0.27,0.21l-0.18-0.04l0.02,0.04l-0.1,0.07
		c-0.11,0-0.22,0.27-0.32,0.09l0.04,0.16l-0.35-0.06c0.09,0.17-0.16,0-0.16,0.13c-0.11-0.24-0.25-0.41-0.41-0.55l-0.06,0.07
		c0.06-0.12-0.18-0.16-0.02-0.26l-0.02-0.09l-0.12-0.08l0.07-0.02v-0.09c0.08-0.05,0.11-0.21,0.31-0.18c0-0.26,0.37-0.39,0.47-0.61
		c-0.09-0.19,0.19-0.54,0.11-0.76l0.03-0.02c0.01-0.16-0.05-0.35-0.11-0.47l0.14,0.01l0.28,0.33c0.19,0.04,0.3-0.05,0.28-0.23
		c0.28,0.05,0.49-0.15,0.68-0.22h-0.29v-0.1l0.18-0.03c0.16,0.05,0.14-0.32,0.35-0.34c-0.07-0.16,0.12-0.11,0.15-0.23l-0.35-0.19
		l0.07-0.07l-0.11-0.1c-0.12,0.17-0.12,0.1-0.3,0.07l0.06-0.07l-0.14-0.14c0.08-0.13,0.3-0.13,0.34-0.29l-0.05-0.04l-0.17,0.06
		l-0.11-0.13l0.14-0.16c-0.18-0.05-0.32,0.26-0.47,0.02l-0.02-0.22c0.04-0.37,0.48-0.39,0.72-0.53l0.22,0.18
		c0.06,0.16-0.12,0.16-0.05,0.31h0.11l-0.07-0.09l0.12-0.08c-0.01-0.33,0.56-0.22,0.7-0.48l-0.26-0.01l-0.35,0.07l-0.1,0.07
		l-0.03-0.07c-0.1,0.15-0.24-0.04-0.29-0.12c0.12-0.02-0.04-0.28,0.15-0.28l-0.06-0.09l0.1,0.02l0.01-0.44h-0.06
		c0,0.11-0.12,0.27,0.05,0.33l-0.25,0.01l0.05,0.11c-0.31,0.49-0.73,0.78-1.26,0.92l-0.06-0.23h0.08l0.27-0.18l-0.22,0.03
		c-0.12-0.02-0.4,0.08-0.46-0.09l0.05-0.06l-0.32-0.12l0.21-0.23c0.08-0.15,0.28-0.15,0.39-0.27l0.01,0.07l0.25-0.06l0.14-0.04
		l-0.09-0.06h-0.14l-0.02,0.06c-0.14,0.03-0.4,0.03-0.41-0.14l0.06-0.02l0.05-0.11c-0.11-0.18,0.1-0.28,0.17-0.39l0.1-0.23
		c-0.2-0.02-0.12-0.02-0.31-0.01c0.05-0.18,0.42-0.11,0.5-0.27l-0.33-0.04l0.21-0.14l0.27-0.17l-0.28-0.01l0.14-0.19l-0.12-0.06
		l-0.17,0.13c-0.18,0.03-0.33-0.08-0.33-0.19h0.02l-0.02-0.12l-0.09-0.04v0.04l-0.44,0l0.31-0.22c0.04-0.19-0.22-0.08-0.34-0.1
		c-0.07,0.16-0.33-0.01-0.4,0.13c-0.04-0.14-0.37,0.06-0.27-0.22c0.11-0.06-0.06-0.31,0.18-0.25l-0.04-0.16l-0.38,0.06l-0.24-0.15
		V9.6l-0.09,0.02c-0.27-0.19,0.07-0.18,0.1-0.39l0.06,0.05l0.04-0.08l-0.15-0.02l-0.03-0.11h-0.09c-0.04-0.05-0.26,0.04-0.19-0.15
		c0.2,0,0.16-0.01,0.41-0.01l-0.27-0.14l0.06-0.03l0.13-0.2l0.02,0.04l0.04-0.11h0.02c-0.14-0.22-0.37,0.01-0.52,0.01l-0.03-0.06
		h-0.22c-0.16-0.06-0.29,0.14-0.43-0.13l-0.26,0.04l0.26-0.13c0-0.22,0.32-0.35,0.38-0.53c-0.12,0.04-0.17-0.21-0.23,0l-0.15-0.02
		l0.09-0.04l-0.07-0.06l-0.04,0.05l-0.02-0.16l-0.22,0.15l-0.01-0.07l-0.18,0.11c-0.1-0.16,0.12-0.23,0-0.39l-0.13,0.14l-0.02,0.21
		c-0.26-0.23-0.3,0.23-0.57,0.04l0.18-0.19c0-0.18-0.19-0.13-0.29-0.21c-0.11,0.05-0.15-0.18-0.19-0.02l-0.06-0.19l-0.12,0.04
		c-0.12-0.07-0.37-0.04-0.33-0.25c-0.19-0.01-0.32,0.27-0.49,0.06v0.04c-0.21-0.07-0.23,0.18-0.47,0.09v0.04
		c-0.26-0.02-0.22,0.39-0.54,0.18c0.01-0.24,0.19-0.26,0.32-0.37l-0.17-0.19c0-0.45,0.51,0.01,0.69-0.27
		c0.13,0.23,0.45-0.04,0.57,0.15c0.09-0.19,0.57-0.08,0.42-0.46c0.06-0.17,0.19-0.23,0.35-0.28c-0.06-0.06-0.03-0.31-0.06-0.46
		l-0.13,0.04c-0.02-0.15-0.32-0.16-0.16-0.33c-0.02-0.14-0.25,0.03-0.27-0.14l0.14-0.08l0-0.05l-0.28-0.1V4.64l-0.19-0.07l0.04-0.02
		c-0.15-0.31-0.62,0.2-0.68-0.26c0.11-0.06,0.3-0.04,0.27-0.2c-0.27,0.07-0.03-0.28-0.17-0.35l0.11-0.02h-0.18l-0.03-0.05
		l-0.08,0.05l-0.2-0.26c-0.35,0.09-0.35-0.29-0.71-0.15c0-0.07-0.19-0.14-0.03-0.22h-0.06c-0.09-0.18-0.17-0.2-0.36-0.25
		c-0.16-0.05-0.09-0.21-0.06-0.34h0.19c0.23-0.02,0.29-0.22,0.34-0.45H153l-0.05-0.11c-0.06-0.12,0.19-0.19,0.01-0.23l-0.27,0.07
		l-0.03-0.21l-0.28,0.04l0.15-0.19h-0.02l0.02-0.11l-0.25-0.1c-0.36,0.24-0.38-0.39-0.84-0.22c-0.16-0.14-0.36,0.02-0.48,0.02
		l-0.26-0.17l-0.09,0.17c-0.16-0.36-0.47,0.28-0.5-0.16h0.09c0.03-0.23-0.19,0-0.3-0.11l0.09-0.19l-0.3,0.06l-0.21-0.27l0.03-0.02
		h-0.04l-0.02-0.14l-0.14,0.09c-0.37-0.23-0.05,0.18-0.38,0.08V0.29l-0.11-0.01v0.09c-0.09,0.4-0.16-0.16-0.42-0.07l-0.06,0.2
		l-0.14-0.1l0.05-0.04l-0.11-0.06l-0.06,0.1l-0.02-0.03c-0.07,0.15-0.34,0.14-0.39-0.03l-0.03,0.19l-0.21-0.13l0.05,0.08
		c-0.14-0.01-0.07,0.21-0.23,0.14l-0.06,0.2L147.27,1l-0.23,0.04v0.04l0.08,0.01c0,0.21,0.2,0.14,0.25,0.27
		c-0.16,0.27-0.18-0.13-0.37-0.05l0.09,0.18c0.07,0.21-0.09,0.23-0.19,0.29l-0.32-0.27c-0.05,0.17-0.06-0.05-0.14-0.03v0.06
		l-0.38-0.01c0.02,0.28-0.37,0.13-0.26,0.46l-0.16-0.07l-0.12,0.16c-0.23-0.07-0.26,0.12-0.48,0.06l0.07,0.2l-0.26-0.02l0.05,0.24
		l-0.15,0.05v0.09l0.1,0.14c0.22,0.14-0.1,0.16-0.1,0.28l-0.1,0.04l-0.07-0.07l-0.07-0.01v0.08c0.21,0.22-0.18,0.07-0.21,0.12
		l0.03,0.04l-0.05,0.05c-0.05,0.34,0.4,0.3,0.6,0.49l-0.15,0.23l0.07,0.02c0.11,0.1-0.15,0.1,0.02,0.14l-0.33,0.09
		c-0.12,0.27-0.34-0.2-0.39,0.04l0.03,0.02c-0.12,0.19-0.26,0.21-0.28,0.42c0.13,0.16,0.26,0.3,0.4,0.45l-0.09,0.04
		c0.17,0.14,0.45,0.19,0.69,0.28l-0.05,0.2c-0.21,0.09-0.47,0.19-0.68,0.07c-0.46,0.05,0.07-0.19-0.05-0.34
		c-0.2-0.23-0.55-0.12-0.82-0.17V5.31l-0.16,0.04l-0.1-0.14l0.04,0.1l-0.14,0.12l-0.04-0.06v0.06l-0.1,0.14
		c-0.07,0.18-0.44,0-0.47-0.05l-0.11,0.14l-0.08-0.06l-0.07,0.24l-0.06-0.1l-0.1,0.12c0.15,0.23-0.3,0.02-0.38,0.14h0.07l0.03,0.06
		l-0.05,0.05l-0.07,0.21l-0.12-0.05c0.08,0.08-0.2-0.05-0.14,0.12l-0.09,0.06l0.05,0.13l-0.05,0.02l-0.05,0.21h-0.14L140.89,7
		l-0.06,0.1c0.23,0.08-0.05,0.39,0.23,0.42c-0.17,0.07-0.29,0.04-0.37,0.16l-0.18-0.02l-0.15,0.05c0.03,0.25-0.23,0.02-0.32,0.15
		L140.15,8l-0.26,0.04c0,0.13-0.13,0.13,0.03,0.23l-0.09,0.05c-0.08,0.24-0.01,0.21-0.1,0.41l0.13,0.19
		c0.27,0.05,0.23,0.45,0.55,0.45c0.09,0.25-0.19,0.25-0.19,0.4l0.18,0.06l-0.38,0.04v0.1c0.13,0.08,0.39,0.14,0.38,0.34
		c0.06,0.12,0.21-0.09,0.23,0.07l0.23-0.04l0.04,0.04l0.19,0.08l0.13-0.08c0.17,0.01,0.23,0.14,0.27,0.25l-0.14,0.01l0.05,0.13
		c-0.11,0.21-0.15-0.05-0.3,0.14l0.11,0.14l-0.19,0.04l0.06,0.14l-0.1,0.03l-0.02-0.05l-0.12,0.05v0.15
		c-0.03,0.2-0.23,0.18-0.41,0.2c0.03,0.25,0.23,0.28,0.27,0.52c0.11,0.3-0.31,0.11-0.34,0.28c-0.18,0.01-0.37,0.08-0.5-0.03v0.03
		l-0.05,0.15l-0.18-0.04l-0.05-0.08h-0.19v0.09h0.03l0.06,0.14l-0.13,0.04l0.08,0.1l-0.18,0.2c0.2,0.03,0.46,0,0.54,0.15
		c0.31,0.05,0.23,0.36,0.4,0.5c0.06,0.22-0.02,0.21,0.05,0.38l-0.08,0.15l-0.05-0.07l-0.6-0.01c-0.13,0.32-0.3-0.13-0.51-0.01
		l-0.01,0.09l-0.14,0.04c-0.04-0.04-0.22,0.02-0.17-0.13l-0.25-0.01l0.09,0.16l-0.23,0.18c0.21,0.07-0.05,0.12,0.09,0.24
		c-0.36-0.05-0.4,0.18-0.57,0.36c0.23,0.04,0.12,0.35,0.12,0.51h-0.07l-0.02-0.08c-0.23,0.08-0.25-0.14-0.48-0.07v0.04h0.07
		l0.16,0.14l-0.05,0.02l-0.01-0.04l-0.32,0.12l0.04,0.14l-0.41-0.07l-0.01,0.15c0.29,0.07,0.55,0.07,0.75,0.21l-0.04,0.14h0.02
		l0.02,0.12h-0.04c-0.07,0.25,0.1,0.22,0.17,0.34l-0.22,0.01l0.04,0.15c0.03,0.21,0.35,0.1,0.53,0.13c0.26,0.23,0.33-0.18,0.63-0.08
		l0.05-0.1c0.12,0.17,0.21,0.4,0.23,0.61c-0.17-0.04-0.09,0.21-0.17,0.29c-0.19-0.03-0.39-0.08-0.52-0.15l-0.17,0.07
		c-0.18,0-0.29,0.22-0.54,0.17c0.03,0.17,0.08,0.28,0.13,0.38c-0.1,0.06,0.02,0.25-0.13,0.21l-0.01-0.04l-0.08,0.04l-0.07-0.07
		c-0.3-0.07-0.39-0.35-0.7-0.43v0.16h-0.03l0.05,0.13l-0.14,0.06c-0.26,0.02-0.41-0.36-0.61-0.29l-0.01-0.12h-0.1v-0.02l-0.11,0.07
		l0.23,0.23c-0.17,0.12-0.25-0.02-0.35-0.1v0.05l-0.05,0.02c0.22,0.17-0.05,0.29-0.14,0.38c0.01,0.25,0.41,0.14,0.41,0.44
		c-0.22-0.01,0.07,0.22-0.14,0.17l-0.03-0.04l-0.52-0.04l-0.24-0.04c0.04,0.16-0.05,0.27-0.14,0.37l0.13-0.04l0.32,0.04l0.19,0.2
		l0.04,0.28c0.19-0.03,0.03,0.22,0.15,0.22c0.27-0.1,0.55,0.19,0.82,0.24c0.06,0.21-0.24,0.14-0.13,0.36l0.12-0.02l-0.12,0.25
		c-0.18-0.07-0.3-0.19-0.51-0.23v0.07c-0.07,0.21-0.1-0.07-0.24,0.02c-0.19-0.19-0.3-0.24-0.56-0.14l-0.05,0.19l-0.04-0.05
		l-0.23-0.03c0,0.17-0.09,0.17-0.24,0.14l0.05,0.18h-0.28l0.22,0.33c-0.26-0.03-0.43,0.25-0.65,0.06l-0.04,0.11l0.16,0.01
		l-0.05,0.14l0.07,0.18l-0.13,0.05l0.09,0.09l-0.03,0.02l-0.58-0.01l-0.06,0.12l0.14,0.03l-0.04,0.09c0.14,0.14,0.24,0.26,0.51,0.29
		l0.05,0.21h0.04l0.09,0.13l0.37,0.06v0.04l0.09-0.09l0.18,0.19c0.02,0.05-0.02,0.2-0.18,0.15l0.1,0.07c0,0.28,0.21,0.28,0.39,0.35
		c0.17,0.23-0.16,0.31-0.16,0.54l-0.21-0.07l-0.21,0.06c-0.16-0.02-0.37-0.17-0.49-0.14l-0.07-0.33c-0.18-0.07-0.18-0.32-0.44-0.32
		c-0.05,0.17,0.1,0.09,0.1,0.17l-0.03,0.05c-0.21,0.06-0.43-0.1-0.54-0.22c-0.23,0.16,0.24,0.21-0.04,0.36l-0.22-0.27l0.06-0.02
		l-0.15-0.01c-0.01,0.37-0.21-0.13-0.37,0.03l0.01,0.28c-0.17,0-0.25-0.1-0.35-0.17l0.1,0.19c-0.21,0.1-0.23-0.19-0.44-0.17v0.2
		l-0.12-0.15c-0.09,0-0.17,0.28-0.27,0.1l-0.47,0.11l-0.11-0.14l-0.08,0.07l-0.04-0.05l-0.28,0.11l-0.24-0.05
		c0.52,0.2,0.9,0.64,0.92,1.25c-0.08,0.21-0.04,0.5-0.24,0.64c-0.05,0.23-0.33,0.25-0.34,0.48l0.33,0.06
		c-0.26,0.22-0.63,0.22-1.03,0.19l0.26,0.12c0.02,0.24-0.32,0.03-0.4,0.18h0.08l0.07,0.12l-0.1,0.1l0.04,0.15
		c0.19,0.13,0.52,0.06,0.75,0.07l0.34,0.09l0.03,0.12l-0.09,0.12l0.08,0.14c0.17,0.03,0.22-0.13,0.41-0.09l-0.17,0.23l-0.04-0.06
		l-0.05,0.12h0.02l0.03,0.18l0.09,0.05c0.05,0.2-0.19,0.14-0.23,0.31c0.13,0.24,0.18-0.16,0.37-0.03l-0.05,0.05
		c0.16,0.06,0.18-0.12,0.33-0.04l-0.11,0.08l0.12,0.13c0.16,0.12,0.35-0.04,0.52-0.06l0.01,0.1l-0.05,0.04l-0.01,0.23h0.22
		c0.07-0.19,0.26,0.06,0.3-0.04l0.1,0.32l-0.28,0.35c0.01,0.17,0.15,0.21,0.16,0.35c-0.17,0.01-0.37-0.1-0.53-0.22l0.06-0.02h-0.12
		l0.05,0.17c-0.1,0.04-0.17,0.16-0.33,0.1l0.16,0.24c0.09,0.41,0.63,0.18,0.76,0.53c-0.19,0.12,0.04,0.07,0.04,0.19l-0.16,0.03
		c-0.15,0.11-0.4,0.09-0.3,0.32c-0.06,0.17-0.26,0.07-0.33,0.1v-0.05l-0.04,0.05l-0.03-0.12c-0.28-0.05-0.51-0.24-0.82-0.19h0.17
		c0.13,0.39-0.27-0.01-0.39,0.21l0.14,0.13l0.05-0.09l0.13,0.15l-0.13,0.06c-0.27-0.14-0.18,0.23-0.33,0.29
		c0.37,0.06,0.88-0.09,1.1,0.16c-0.03,0.15-0.26,0.05-0.21,0.24c-0.22,0.02-0.36-0.05-0.5-0.15c-0.17-0.15-0.2-0.15-0.39,0
		l-0.06-0.07l-0.15,0.2l-0.26,0.05l0.13,0.27c-0.11,0.05-0.2-0.24-0.37-0.05c0.03-0.2-0.25-0.2-0.32-0.25l0.02,0.1l-0.11,0.17
		l-0.12-0.03l-0.11,0.1c0.17,0,0.08,0.22,0.23,0.19c0.09,0.22-0.14,0.2-0.23,0.22l0.28,0.14h-0.34v-0.02l-0.27-0.01V33h0.1
		c0.07,0.44-0.4-0.12-0.54,0.05v-0.03h-0.21l0.09,0.09l-0.15,0.11l0.1,0.03l-0.13,0.17l0.13,0.01l-0.13,0.13
		c0.06,0.08,0.29,0.01,0.26,0.17c0.21,0,0.14,0.24,0.28,0.24c0.18,0.19-0.12,0.22-0.14,0.37h0.02l0.03,0.13
		c-0.22-0.06-0.38,0.07-0.38,0.2l-0.05-0.05l-0.04,0.07c0.02,0.28,0.51,0.01,0.41,0.38l0.28,0.02c0.08,0.29-0.32,0.05-0.32,0.24
		c-0.09,0.18-0.42,0.09-0.55,0.17c-0.12,0.16-0.35,0.13-0.46,0.25l-0.1,0.02l0.04,0.17l-0.23,0.13c0.16,0.07,0.3,0.01,0.46,0.07
		l-0.09,0.08l0.44,0.09c0,0.2,0.24,0.03,0.25,0.15l0.12-0.05c-0.02,0.31-0.44,0.27-0.4,0.65l0.12-0.05l0.06,0.27h0.36
		c0.07,0.28,0.49-0.15,0.59,0.06c0.16,0.01,0.38,0.09,0.49-0.04c0.07-0.13,0.36-0.19,0.21-0.45c0.22-0.2,0.39,0.05,0.67,0.01
		c0.06-0.09,0.16-0.12,0.16-0.28c0.21-0.03,0.2-0.25,0.41-0.32l-0.07-0.07c0.25-0.01,0.33-0.24,0.49-0.37l-0.1-0.12l0.24-0.11
		c-0.03-0.25,0.03-0.49,0.17-0.65c0.26-0.02,0.11,0.21,0.27,0.32l-0.09,0.03l0.11,0.12c0.09,0.22,0.41,0.19,0.56,0.32l0.29,0.06
		c0.05,0.17-0.07,0.22-0.1,0.31l0.47,0.06l-0.18,0.04l-0.1,0.22h0.04l0.05,0.15h-0.09c-0.23-0.03-0.26,0.19-0.53,0.1l0.06,0.12
		c0.26,0-0.02,0.12,0.03,0.23c-0.24-0.02-0.44-0.19-0.69-0.21v0.11c0.32,0.04,0.03,0.18-0.04,0.19l0.19,0.18
		c-0.19,0-0.54-0.03-0.59,0.08l0.06,0.08c0,0.18-0.26,0.06-0.32,0.13l0.18,0.08c0.19-0.16,0.16,0.2,0.4,0.1
		c0.41,0.61,0.56-0.28,1-0.18v0.05l0.28,0.03c0.1,0.3-0.26,0.25-0.37,0.36l0.13,0.02l0.05,0.02l-0.02,0.09
		c-0.16-0.07-0.23,0.09-0.21,0.13l0.05-0.01l0.09,0.09l-0.1,0.06c0.11-0.01,0.13,0.15,0.3,0.09l0.04,0.18
		c-0.12,0.23-0.21-0.09-0.21-0.09l-0.03,0.03l-0.05-0.08l-0.25,0.34l-0.01-0.12l-0.31-0.1c0.03,0.4-0.25-0.09-0.36,0.03l-0.03,0.14
		l-0.18-0.11L131,38.74l0.14,0.28c-0.12,0.04-0.16-0.19-0.37-0.12l-0.05,0.13l-0.07-0.02l0.03-0.05l-0.23-0.11
		c0.02,0.18,0.09,0.29,0.17,0.44c-0.27,0.04-0.34-0.3-0.59-0.24l0.08,0.15l-0.36-0.08c-0.01,0.25,0.32,0.19,0.42,0.28l0.07-0.03
		l0.04,0.14l-0.18-0.07l-0.45,0l-0.05,0.12c0.16-0.07,0.14,0.11,0.23,0.14l0.12-0.08l0.11,0.18c-0.35,0.11-0.48-0.23-0.79-0.28
		c-0.02,0.25,0.25,0.35,0.24,0.56c-0.25-0.06-0.5-0.44-0.76-0.36l0.02-0.09h-0.1v0.04l0.06,0.02l-0.1,0.1l0.14,0.17
		c-0.44-0.1-0.18,0.23-0.33,0.41l0.15,0.09l-0.06,0.14l0.09,0.05v-0.03l0.15-0.01v0.01l0.11-0.01l0.07,0.08l0.1-0.04l0.05,0.05
		c-0.17,0.21-0.25,0.12-0.47,0.06l0.11,0.3l-0.21,0.09l-0.03-0.08l-0.19,0.09l0.19,0.17l-0.03,0.03c-0.08,0.17-0.17-0.03-0.25-0.05
		v0.07l-0.28,0.04v0.04l-0.15,0.02l0.24,0.2c-0.14,0.24-0.21-0.07-0.36-0.07l-0.04,0.07c0.1,0.12,0.34,0.33,0.58,0.35l-0.05,0.15
		h0.23c-0.05,0.32-0.26,0-0.47,0.09v0.07l-0.27,0.06c0.04,0.18,0.36-0.02,0.4,0.17c-0.35,0.13-0.57-0.12-0.9-0.13v0.1l-0.17,0.18
		l0.13,0.24l-0.28,0.05l0.05,0.16l-0.14,0.05l0.14,0.18l0.11-0.04l0.03,0.08l-0.05,0.06l-0.09,0.09l0.28,0.07l-0.24,0.12v0.03
		c0.47,0.06-0.17,0.15-0.05,0.34l0.03,0.05l-0.03,0.04h0.03c0.32-0.07,0.64-0.18,1.02-0.1c0,0.19,0.44,0.1,0.24,0.39
		c0.16,0.09,0.37,0.09,0.52,0.18l0.01,0.35l-0.12-0.04l-0.04,0.04l-0.01-0.07c-0.17,0.05-0.21-0.06-0.35-0.07l0.05,0.17
		c-0.23,0.13-0.19,0.27-0.48,0.12l-0.04,0.18l0.18,0.05c-0.13,0.11-0.07,0.25-0.25,0.31h0.08c0.17,0.31-0.2,0-0.21,0.22l-0.07-0.15
		l-0.05,0.07l0.01,0.03l-0.03,0.25l-0.18-0.36l0.04,0.17c-0.19,0.17-0.35-0.05-0.51-0.03v0.08h0.02l0.02,0.16l-0.02-0.03l-0.48,0.15
		c0,0.17,0.29,0.09,0.3,0.22c-0.06,0.08-0.34-0.05-0.36,0.13c-0.17,0-0.3,0.26-0.42,0.03l-0.18,0.05h0.04l0.09,0.2l-0.22-0.05
		l-0.06,0.03c0.09,0.11,0.28,0.23,0.44,0.25l-0.16,0.12l0.37,0.07c0.16,0.1,0.02,0.2,0,0.31h0.07l0.02,0.17
		c-0.16-0.04-0.29,0.08-0.3,0.11l0.01,0.06l0.19,0.04l-0.14,0.05c0.05,0.03,0,0.36,0.28,0.28c0.16,0.02,0.32,0.12,0.29,0.29h-0.07
		v0.07c-0.16,0.02-0.35,0.1-0.48-0.01l-0.17-0.09l-0.12-0.14l-0.26-0.05l0.14,0.14l-0.12,0.04l-0.13-0.1
		c-0.17,0.03-0.14-0.13-0.22-0.17c-0.21,0.25,0.23,0.25,0.15,0.44c-0.18,0.02-0.21-0.15-0.39-0.1v0.21l0.28,0.07
		c-0.06,0.16,0.28,0.14,0.19,0.28l0.06-0.02l0.03,0.04l0.15,0.01l-0.02,0.13l0.24,0.1l-0.08,0.16l-0.14-0.06l-0.11,0.17
		c0.17-0.07,0.17,0.18,0.17,0.19l0.07-0.05l0.03,0.17l-0.06-0.05c-0.13,0.06-0.18,0.32-0.36,0.17l-0.24,0.02l0.19,0.21
		c-0.05,0.19-0.35,0.08-0.48,0.18c0.05,0.08,0.28,0.01,0.23,0.16l-0.2,0.06v0.07l-0.09,0.09v0.06h0.09l0.05,0.14
		c0.4,0.04-0.06,0.35,0.11,0.42l0.28-0.04c0.35-0.11,0.02,0.33,0.3,0.28l-0.19,0.09c-0.01,0.18-0.34-0.03-0.29,0.18l0.3-0.04
		c0.14-0.02,0.05,0.24,0.21,0.18l0.03,0.1l-0.26,0.16l0.13,0.07l-0.08,0.04l-0.14,0.1l0.41,0.04l-0.14,0.2
		c0.11,0.09,0.39,0.1,0.27,0.31l0.29-0.32c0.14-0.05,0.36-0.1,0.53-0.1c0.09-0.17,0.22-0.32,0.38-0.46l-0.17,0.3l-0.19,0.27v0.1
		l0.33-0.03l0.09,0.2c-0.02-0.35,0.46-0.13,0.63-0.27l-0.08-0.14c0.18-0.09,0.24,0.28,0.55,0.14c0.08-0.04,0.22-0.13,0.13-0.29
		c0.24-0.12,0.17,0.11,0.39,0.08l0.03-0.09c0.19-0.06,0.23-0.06,0.36,0.05l0.18,0.05c-0.16,0.16-0.47,0.19-0.61,0.17l-0.04-0.06
		l-0.19,0.15l0.19,0.1l-0.11,0.09l-0.04-0.08h-0.14c-0.15,0.17,0.11,0.17,0.14,0.31l-0.3,0.04l0.09,0.17l-0.2,0.06l0.08,0.05
		c-0.02,0.25-0.45,0.08-0.58,0.13l-0.06,0.19c0.2,0,0.09,0,0.27,0l-0.15,0.17l0.19,0.08c0.12,0-0.04,0.24,0.14,0.17l0.09,0.12
		l-0.22,0.06l-0.34-0.06v0.04l-0.08,0.02c-0.05-0.21-0.38,0-0.35-0.28h-0.17l0.05,0.25c-0.16-0.07-0.24-0.1-0.48-0.05
		c0.1,0.02,0.03,0.23,0.19,0.18l-0.04,0.26c-0.27,0-0.62-0.12-0.82-0.13l0.02,0.07c-0.21,0-0.21,0.03-0.41,0.04l0.09,0.03
		l-0.26,0.31c-0.27,0.5,0.63,0.1,0.8,0.38l-0.13,0.03v0.14l-0.09-0.01v0.13c-0.22,0.05-0.33,0.21-0.62,0.17v0.09l0.37-0.05
		l0.07,0.06l0.25,0.28l0.27-0.12l0.05,0.12h0.1l-0.02,0.15l0.05,0.01l-0.19,0.16c-0.03,0.21,0.08,0.26,0.13,0.38
		c0.14-0.24,0.26,0,0.45-0.19l0.07,0.06l0.22-0.02c0.05,0.51,0.48,0.18,0.8,0.34v0.09l0.18,0.04c-0.17,0.04-0.17,0.21-0.28,0.28
		l0,0.15c0.18,0.21,0.2-0.04,0.35-0.14c0.21,0,0.47-0.09,0.58,0.11l0.13-0.02l-0.19,0.33c0.03,0.44,0.08,0,0.35,0.1v-0.09l0.1-0.01
		v-0.09l0.21-0.19c-0.03,0.18,0.04,0.39-0.05,0.52c0.3,0.15,0.18-0.2,0.32-0.23l0.05,0.11l-0.09,0.04v0.24
		c0.23-0.03,0.58-0.06,0.72-0.24l0.02,0.02l0.11,0.08c0.12-0.07-0.13-0.27,0.12-0.23l0.14,0.11h0.3l0.03-0.23l-0.2-0.07l0.02-0.02
		l0.19,0.05c0.24,0,0.39-0.46,0.62-0.13c0.02-0.25,0.39-0.04,0.3-0.38l0.26,0.07l0.14-0.18l-0.08-0.02l0.22-0.28
		c-0.08-0.28,0.36-0.02,0.19-0.33c-0.2-0.02-0.13-0.25-0.26-0.35l0.14-0.03l0.26-0.34l0.12-0.16l0.13-0.06
		c0.15-0.35,0.38,0.23,0.56-0.09l-0.23-0.03v-0.05c0.13-0.21,0.28,0.05,0.44,0.06c-0.1,0.09-0.17,0.19-0.32,0.17
		c-0.01,0.25-0.36,0.08-0.31,0.34l-0.3,0.06l0,0.1c0.26-0.07,0.2,0.24,0.46,0.17l-0.02,0.04l-0.07,0.09l0.19,0.02l-0.05,0.1
		c0.12-0.02,0.22,0.18,0.34,0.03c0.03,0.19-0.14,0.37-0.22,0.56l0.26-0.03v-0.09l0.16-0.02l-0.13,0.3l-0.01,0.09h0.09l0.04,0.14
		h0.12v-0.08l0.11-0.03l0.02-0.13l0.14,0.12c0.16-0.28,0.58-0.01,0.86-0.1c0.07-0.1,0.19-0.14,0.36-0.17
		c0.23-0.23,0.37-0.69,0.82-0.67l0.24,0.17l0.04,0.2l0.19-0.07c0.05,0.13,0.24,0.12,0.24,0.28c0.07,0.16,0.17,0.21,0.34,0.26
		l0.03-0.14l0.12,0.02c0.03-0.18,0.22-0.29,0.35-0.32v0.14l0.2,0.16v-0.09c0.19-0.11,0.12,0.14,0.27,0.14l-0.06,0.13h0.04l0.15,0.39
		l-0.28,0.05v0.09c0.16-0.05,0.12,0.18,0.15,0.18c-0.15-0.07-0.29,0.21-0.39-0.02l-0.1,0.24l0.19,0.06c-0.1,0.39-0.25-0.12-0.42,0
		v0.06l-0.1,0.05l-0.01-0.12h-0.07l-0.07-0.16l-0.16,0.02l-0.03,0.12c-0.04-0.11-0.27,0-0.22-0.2l-0.18,0.07l-0.11-0.14
		c-0.16-0.09-0.37,0.09-0.53-0.05c-0.11-0.14-0.25-0.23-0.45-0.3c-0.17,0.11,0.04,0,0,0.16l-0.05,0.03
		c-0.17,0.01-0.37-0.13-0.55-0.01l-0.12-0.12c-0.14,0.02-0.08,0.22-0.26,0.14l-0.01,0.08l-0.11,0.03l-0.04-0.12l-0.31-0.01v0.24
		l-0.17,0.04c0.07-0.18-0.21-0.07-0.17-0.28c-0.26-0.12-0.28,0.04-0.48,0.07l0.02,0.14c-0.21,0.21-0.37-0.05-0.5-0.18
		c-0.05-0.13-0.24,0.05-0.2-0.17l-0.15-0.03l0.04,0.25l-0.3,0.03c-0.04,0.14-0.29,0.08-0.12,0.24c-0.19,0.06-0.32-0.17-0.51-0.17
		v0.06l0.12,0.14l0.02,0.13l-0.2-0.1l0.05,0.25l-0.32,0.02l0.05,0.09c-0.09,0.28-0.24-0.08-0.38-0.03v0.03l-0.42,0.02v0.11
		c-0.15-0.04-0.15,0.07-0.27-0.03l-0.04,0.04l-0.05-0.04l0.12,0.17l0.07,0.14l-0.11,0.02l-0.11-0.13h-0.11l0,0.1l-0.28,0.01
		l0.14,0.29l0.28,0.01l0,0.1l-0.23,0.04l-0.07,0.25c-0.05,0.49-0.33-0.18-0.68-0.01c-0.05-0.14-0.21-0.11-0.38-0.11
		c0.05,0.17-0.13,0.13-0.18,0.18l0.03,0.17c-0.11,0.22-0.29-0.02-0.36-0.04c-0.08,0.19-0.02,0.39,0.12,0.46h-0.34l0-0.1
		c-0.23,0-0.42-0.07-0.54-0.21l-0.08-0.01v0.05c-0.04,0.16-0.21,0.07-0.33,0.09v0.06l0.09,0.1l0.15,0.13
		c-0.16,0.09-0.26-0.03-0.36-0.09l-0.22,0.09l0.16,0.15l-0.24,0.01c-0.04,0.19,0.22,0.09,0.15,0.26l0.08,0.02l-0.14,0.1
		c0.14,0.07,0.38-0.01,0.41,0.15c-0.16,0.12-0.38,0.04-0.55,0.02l0.14,0.14c-0.05,0.21,0.25,0.17,0.27,0.36
		c-0.04,0.23-0.18,0.19-0.41,0.22l-0.03,0.12c-0.17,0.04-0.24-0.05-0.3-0.12v0.18h0.06l0.04,0.1h-0.08
		c-0.06-0.07-0.28,0.07-0.23-0.15h-0.11l-0.03,0.22l-0.07-0.07c-0.04,0.15,0.19,0.11,0.19,0.23l-0.37,0.01l0.1,0.14l-0.12,0.14
		l-0.06-0.06l-0.15,0.16l0.1,0.03l-0.19,0.25l0.31,0.04l-0.18,0.11h0.04l0.14,0.15h0.07c0.18,0.15,0.51,0.11,0.66,0.26
		c0.12,0,0.17-0.18,0.33-0.09c-0.05,0.24-0.44,0.05-0.47,0.25h0.08l0.02,0.12l-0.45-0.01v-0.08l-0.11,0.05
		c-0.06-0.24-0.49-0.09-0.64-0.21v0.1c-0.31-0.1-0.24-0.1-0.5,0.1l-0.11-0.06c-0.15,0.13-0.23,0.12-0.45,0.11
		c0.28,0.22-0.25,0.12-0.17,0.13l0.02,0.13l-0.38,0.04l0.04,0.09c0.36-0.01,0.57,0.13,0.75,0.33c0.07,0.24-0.33,0.06-0.28,0.27
		c0.19-0.05,0.16,0.16,0.28,0.16l-0.09,0.09l0.27,0.04l-0.03,0.12h0.38c-0.06,0.24,0.29,0.05,0.25,0.29l-0.24,0.06l0.06,0.19
		c-0.22,0.2-0.21-0.26-0.46-0.09l-0.11,0.37c-0.21,0.15-0.13-0.21-0.36-0.11l-0.05,0.24l0.09,0.02c-0.56,0.04,0.14,0.37-0.05,0.54
		c0,0.19,0.28,0.15,0.44,0.15l0.02,0.26l0.05,0.03c-0.19,0.11-0.22,0.11-0.22,0.27c0.05,0.28-0.01,0.28,0.05,0.54
		c0.04,0.2-0.26,0.24-0.2,0.44c-0.1,0.32,0.46,0.32,0.48,0.7c0.37,0.11,0.33-0.24,0.61-0.26c0.2-0.16,0.2,0.16,0.33,0.21l-0.29,0.09
		l0.09,0.18c-0.09,0.15-0.35,0.01-0.52,0.09v0.08h0.02l-0.02,0.14l0.05,0.2l0.05-0.03l0.14,0.14c0.01,0.2-0.21,0.1-0.3,0.14
		c0.04,0.18-0.16,0.13-0.19,0.25l0.52,0.03l-0.09,0.02c0.06,0.24-0.24,0.04-0.17,0.25h0.26v0.28c0.21,0.01,0.14-0.28,0.37-0.29
		c0.02-0.34,0.37-0.04,0.48-0.14c0.04-0.2,0.31-0.13,0.42-0.27l-0.18-0.28l0.05-0.37l-0.14-0.17c0.27-0.27,0.32,0.18,0.53,0.18
		l0.18-0.02c-0.03,0.2,0.21,0.19,0.23,0.3l0.16,0.42h-0.02c-0.03,0.39-0.51,0.2-0.61,0.39l0.07,0l0.11,0.12l-0.37,0.02v0.12
		l-0.19,0.05l0.32,0.25l-0.04,0.02c0.06,0.21-0.22,0.06-0.2,0.23l0.38,0.03c-0.07,0.18,0.13,0.06,0.13,0.17l-0.05,0.08l0.25,0.01
		l-0.04,0.02h0.04l0.02,0.13h0.17l-0.04-0.13l0.19-0.15l-0.05-0.09l0.19-0.05l-0.04-0.09l0.11-0.18l-0.04,0.02l-0.15-0.11l0.12-0.03
		c0.09-0.15,0.2-0.36,0.14-0.67h-0.07c0.11-0.07-0.1-0.14,0.06-0.23l0.09,0.04c0.17-0.14,0.32,0.05,0.51,0.06
		c-0.4,0.04-0.03,0.39-0.1,0.65c0.16,0,0.21,0.11,0.37,0.11l-0.18,0.4L128.4,72l0.04,0.12c-0.04,0.07-0.12,0.23-0.29,0.18
		l-0.19,0.35c0.09,0.05,0.35-0.02,0.33,0.17l-0.05,0.03l0.16,0.25l0.02-0.04l0.04,0.18h0.07v-0.09l0.1-0.02l0.02,0.12h0.12
		c0.01-0.17,0.12-0.25,0.19-0.33l0.13,0.05l-0.05-0.3l0.13-0.07v0.04c0.15,0.06,0.2-0.08,0.2-0.2l-0.06-0.01l-0.05-0.14h0.12
		l0.03-0.17h-0.05l-0.04,0.04l-0.29-0.04l0.2-0.09l-0.07,0l-0.18-0.12c-0.15-0.21-0.31-0.51-0.18-0.86
		c0.16-0.05,0.37,0.11,0.44,0.01l0.25,0.35c0.03-0.12,0.28-0.02,0.24-0.21l0.1,0.02l-0.03,0.14l0.02,0.06l-0.04,0.02
		c-0.09,0.28,0.18,0.45,0.08,0.61l0.1,0.02l0.21,0.11v-0.11l0.14-0.01l0.02,0.25h0.18l0.24,0.14h0.19l0.07-0.18l0.02,0.04l0.24,0.01
		v-0.14c0.2-0.35,0.28,0.22,0.58,0.02v-0.14h-0.1c-0.02-0.11-0.01-0.39,0.07-0.57c0.28,0.12,0.33-0.2,0.52-0.03l0.22-0.2
		c-0.17,0.03,0-0.07-0.09-0.14c0.15-0.3,0.29,0.19,0.51,0.1c-0.13-0.08-0.03-0.35-0.22-0.44l0.12-0.02l0.03,0.05
		c0.25,0.09,0.19-0.17,0.38-0.13l0.01-0.12l-0.14-0.03c-0.09-0.25-0.33-0.28-0.55-0.26c0.02-0.16,0.27-0.09,0.42-0.15l0.07,0.17
		l0.33-0.15l0.24,0.09l0.03,0.04l0.37,0.06c0.07,0.32-0.25,0.44-0.19,0.73c-0.17,0.09-0.21,0.31-0.37,0.37l0.04,0.1l-0.24,0.05
		c0.05,0.2-0.24,0.06-0.28,0.22l-0.43,0.02l0.01,0.14c0.16-0.01,0.35,0.04,0.47-0.06l0.09,0.05l0.05-0.05l0.07,0.33
		c0.38-0.06-0.01-0.25,0.16-0.53c0.33-0.19,0.56-0.55,0.75-0.96c0.16-0.12,0.09-0.4,0.29-0.56c0.46-0.5,0.43,0.33,0.76,0.4
		l0.01-0.09h-0.04l-0.02-0.15h-0.07c0.07-0.08-0.11-0.26,0.08-0.31l0.03-0.18c0.31-0.17,0.63-0.35,0.82-0.65l0.15-0.29
		c-0.13-0.46,0.54-0.04,0.62-0.37l0.09,0.1c-0.07,0.16-0.21,0.33-0.12,0.48h-0.03c0.08,0.33-0.18,0.34-0.29,0.5
		c-0.19,0.07-0.35,0.21-0.6,0.18l0.04,0.12l-0.23,0.11c0.3,0.12,0.35-0.2,0.66-0.13c0.01-0.18,0.29-0.09,0.38-0.17l0.33,0.21
		c-0.02-0.17-0.14-0.24-0.26-0.32c0.14-0.12,0.19-0.34,0.27-0.49h-0.03l0.09-0.29l0.01-0.2c0.28-0.03,0.14-0.36,0.33-0.49
		c0.19,0.04,0.08-0.24,0.26-0.21l-0.06-0.11l0.14-0.09l0.05,0.2l0.09-0.06c0.3,0.23-0.21,0.06-0.18,0.23
		c0.01,0.25-0.12,0.32,0.13,0.41l-0.28,0.07v0.07c0.18,0.18,0.18,0.09,0.41,0.08c-0.05,0.15,0.26,0.01,0.19,0.22
		c0.35,0.05-0.04,0.14,0,0.3l0.09,0.01l0.28,0.12l-0.1,0.02c-0.02,0.12,0.21,0.18,0,0.23l-0.02-0.07l-0.3-0.01l0.08,0.25
		c0.16-0.03,0.47,0.1,0.51-0.11c0.19-0.05,0.44-0.03,0.6,0.07l0.1-0.04l-0.05,0.21l-0.04-0.08l-0.2-0.03v0.13l0.09,0.01l0.05,0.14
		h0.06l0.04,0.13l-0.47,0.04l-0.01,0.09l0.04,0.03l-0.13,0.15l-0.12-0.14l-0.12,0.12c0.33,0.24-0.25,0.09-0.23,0.17v0.08l0.18,0.04
		l-0.14,0.01v0.19c0.16-0.01,0.05,0.17,0.14,0.21c0.2-0.02,0.15,0.2,0.25,0.28l0.18-0.16l0.22,0.16l0.19,0.01
		c-0.04,0.23-0.32,0.09-0.46,0.16l-0.06,0.14l-0.08-0.14c-0.21,0-0.49-0.12-0.54,0.1c-0.16,0.04-0.23-0.06-0.34-0.12l-0.04,0.14
		l-0.32-0.14c-0.09,0.15-0.09,0.19,0,0.28c-0.15,0,0.07,0.18-0.12,0.12l-0.01,0.09l-0.26,0.05c-0.03,0.2,0.24,0.14,0.26,0.25
		c0.17-0.04,0.19,0.1,0.27,0.12l-0.29,0.04c-0.13,0.12-0.2,0.23-0.24,0.42l-0.14-0.03l0.1-0.03v-0.09l-0.12,0.07l-0.01-0.07h-0.17
		l0.13,0.23h0.07c0.05,0.22,0.3,0.19,0.39,0.32l-0.22,0.03l-0.01,0.17l-0.35-0.23c-0.09,0.13-0.09-0.18-0.29-0.1l0.06,0.27
		l-0.37-0.01l0.03,0.01l-0.06,0.11l0.1,0.03l-0.1,0.25h0.09l0.05,0.17l-0.09,0l-0.05,0.11l-0.02-0.11
		c-0.05,0.35-0.32-0.04-0.42,0.04v-0.04l-0.15,0.1l0.15,0.13l0.09-0.04l0.01,0.19l0.13-0.11l0.02,0.11h0.05v-0.02
		c0.04,0.02,0.28,0,0.23,0.18l-0.03,0.01c0.19,0.02,0.24,0.19,0.48,0.18c0.02,0.2-0.22,0.1-0.33,0.17c0.05,0.1,0.31,0.01,0.28,0.18
		c0.06,0.08,0.28-0.03,0.23,0.15l-0.06,0.02c0.15,0.18-0.14,0.23-0.28,0.28l0.08,0.16h-0.26v0.08c-0.25,0.21,0.26,0.25,0.19,0.55
		c0.18-0.11,0.39,0.07,0.65,0.05l-0.11,0.03v0.09l-0.13,0.02v0.09c0.13-0.05,0.21,0.23,0.35,0.06l0.02,0.09l-0.13,0.18l0.18,0.26
		l0.19-0.12c0.19,0.27-0.3,0.08-0.28,0.28l0.31,0.03v0.09h0.05c-0.02,0.17-0.12,0.33-0.23,0.44l0.3-0.14l0.02,0.13l-0.09,0.03
		l0.06,0.2l0.3-0.13l-0.04,0.25l0.15,0.07c-0.04-0.18,0.16-0.1,0.18-0.19l0.03,0.05c0.17,0.05,0.44,0.05,0.51-0.12
		c0.28,0.09,0.17-0.15,0.39-0.15c-0.02-0.17,0.07-0.05,0.01-0.2c0.1-0.06-0.02-0.22,0.14-0.22l0.03,0.15h0.16
		c0.16,0.31-0.15,0.37-0.18,0.56h0.09l0.04,0.12l0.27,0.04c-0.27,0.2,0.17,0.23,0.19,0.4l-0.02,0.25l0.02-0.1
		c0.23,0.17-0.13,0.28-0.01,0.52c0.16,0.1,0.27-0.01,0.36-0.1c0.2,0.04,0.35-0.21,0.49,0.01l0.04,0.25c0.17,0,0.32,0.02,0.42-0.09
		v0.05l0.3-0.09c0.08-0.35,0.17-0.67,0.36-0.96h0.1l-0.06,0.44l0.05,0.09l-0.06,0.02c-0.17,0.05-0.06,0.26-0.09,0.4l-0.14,0.04
		c0.02,0.15-0.05,0.31,0.11,0.33c0.29-0.22,0.08,0.25,0.31,0.28l0.26-0.07c0.04-0.67,1.22,0.13,1.13-0.67
		c0.16-0.03,0.16,0.11,0.32,0.07c0.19-0.14,0.6,0.06,0.69-0.17c0-0.19-0.23-0.2-0.26-0.36c0.16-0.02-0.05-0.06,0.05-0.12h0.03
		l0.19-0.3c-0.21-0.19,0.18-0.17,0.12-0.37c0.19-0.04,0.22,0.1,0.37,0.13l0.03-0.14c0.16-0.08-0.03-0.16-0.07-0.27l0.14-0.12
		c0.24,0.19,0.43-0.06,0.65,0.01l0.1,0.49l0.04,0.54v0.55l-0.04,0.55l-0.1,0.56l0.1,0.54l-0.05,0.54v0.55l0.04,0.55l-0.11,0.55
		l0.02,0.55l-0.02,0.54v0.54l0.08,0.57l0.01,0.54l-0.02,0.55l-0.13,0.55l-0.01,0.54l0.03,0.55l0.04,0.55l-0.02,0.54l0.01,0.55
		l-0.01,0.54l0.02,0.55l0.02,0.56l-0.06,0.54l-0.01,0.55l-0.06,0.54l-0.06,0.55l0.03,0.55l0.09,0.54l-0.03,0.55l-0.01,0.55
		l-0.04,0.55l0.06,0.55l-0.12,0.54l0.1,0.55l-0.08,0.56l0.03,0.54l-0.08,0.54l-0.04,0.55l-0.02,0.54l0.01,0.54l0.04,0.55l0.03,0.54
		l-0.05,0.54l0.04,0.56l0.04,0.54l-0.04,0.54l-0.04,0.54l0.04,0.54l-0.04,0.54l-0.11,0.53l0.13,0.52l-0.02,0.54l-0.01,0.51
		l-0.14,0.56l0.01,0.55l0.03,0.57l-0.01,0.56l-0.03,0.55l-0.16,0.55l0.09,0.56l-0.07,0.55l-0.12,0.55l0.02,0.57l-0.06,0.55l0.1,0.57
		l-0.15,0.55l0.02,0.55l-0.09,0.56l-0.03,0.55l-0.01,0.56l0.05,0.55l-0.02,0.55l-0.04,0.55l-0.07,0.57v0.55v0.57l-0.16,0.53
		l0.04,0.56l-0.08,0.54l0.01,0.56l-0.1,0.55l0,0.56l0.05,0.54l-0.02,0.55l-0.14,0.54l0.02,0.55l-0.02,0.54l-0.1,0.54l-0.05,0.55
		l0,0.54l-0.04,0.55l-0.05,0.48l0.12,0.55l-0.09,0.55l-0.08,0.54v0.56v0.55l-0.02,0.55l-0.02,0.55l-0.02,0.55l-0.1,0.54l0.03,0.54
		l-0.12,0.55l-0.1,0.53l0.1,0.56l-0.1,0.55l0.06,0.55l-0.04,0.56l-0.04,0.54l-0.05,0.55l-0.15,0.55l0.06,0.54l-0.01,0.53l-0.03,0.55
		l-0.07,0.54l-0.04,0.55l-0.1,0.53l0.06,0.5l-0.06,0.55l-0.17,0.53l-0.08,0.53l-0.03,0.57l-0.16,0.53l-0.11,0.54l0.01,0.55
		l-0.08,0.54l-0.17,0.53l-0.02,0.53l-0.1,0.53l-0.14,0.47l-0.26,0.47l-0.16,0.52l-0.14,0.49l-0.23,0.46l-0.18,0.45l-0.5,0.33
		l-0.47,0.33l-0.51,0.24l-0.43,0.4l-0.41,0.4l-0.48,0.33l-0.55,0.45l-0.1,0.14H56.97c-0.77,0-1.4,0.63-1.4,1.4
		c0,0.78,0.63,1.41,1.4,1.41h187.84c0.77,0,1.41-0.63,1.41-1.41C246.22,156.01,245.58,155.39,244.81,155.39z M168.66,67.59
		c0.13,0.02,0.13,0.26,0.29,0.29l-0.06,0.17c-0.04-0.08-0.07-0.22-0.24-0.2l-0.06,0.11h-0.07C168.53,67.81,168.73,67.8,168.66,67.59
		z M167.8,68.54c0.22-0.06,0.15,0.19,0.36,0.13c-0.07,0.14-0.1,0.35-0.36,0.26l0.06-0.18L167.8,68.54z M169.25,46.35l0.08,0.22
		l-0.61-0.01C168.83,46.32,169.09,46.48,169.25,46.35z M126.9,47.75c-0.13,0-0.32-0.09-0.54-0.11l0.29-0.14l-0.08-0.16h0.4
		C126.98,47.49,126.68,47.66,126.9,47.75z M132.88,39.04l-0.16-0.01v-0.04l0.09-0.07l-0.14-0.21h0.2V39.04z M128.56,70.34
		l-0.22-0.14l0.09-0.02l0.28-0.22l0.3,0.19C128.86,70.21,128.8,70.4,128.56,70.34z M135.07,66.43l0.02,0.1h0.04
		c0.06-0.14,0.21,0.19,0.18-0.1l0.1,0.1l-0.2,0.07l-0.08-0.08l-0.01,0.01l-0.03-0.01l-0.07-0.1H135.07z M132.8,69.26
		c-0.07-0.21,0.14-0.21,0.19-0.37h0.08c0.05,0.2-0.06,0.27-0.14,0.39l0.01,0.02l-0.06,0.07l0.06-0.09L132.8,69.26z M135.7,69.03
		l-0.18,0.27c-0.35,0.27-0.77,0.62-1.21,0.6c-0.14,0.16-0.4,0.06-0.62,0.07c-0.12-0.18-0.42-0.07-0.54-0.28h-0.2l0.01-0.12
		l0.09-0.03v-0.09c0.36-0.12,0.28,0.54,0.64,0.22V69.6c0.2-0.06,0.44,0.09,0.64-0.05l0.01-0.09l0.09-0.06v-0.06l0.42-0.02
		l-0.28-0.18l0.03-0.41c-0.03-0.14-0.07-0.05-0.03-0.23c0.43-0.06,0.85,0.07,1.28,0.01v0.19h0.1C135.8,68.79,135.84,69,135.7,69.03z
		 M136.28,67.78c-0.23,0.14-0.02,0.71-0.54,0.5l-0.01-0.07l-0.08,0.12l-0.07-0.12l-0.08,0.07v-0.05l-0.92-0.04l0.18-0.13
		c-0.15-0.02-0.25-0.17-0.46-0.17c-0.02-0.16,0.26-0.01,0.19-0.23l0.14-0.03c0.04,0.15-0.01,0.29,0.19,0.32l0.09-0.05v-0.09h0.12
		l0.02-0.19l0.21,0.02l0.02-0.13l0.35-0.02c0.1-0.16-0.27-0.09-0.05-0.23c0.18-0.02,0.18-0.26,0.43-0.13l0.04,0.08
		c0.13,0.09,0.41,0.04,0.34,0.29C136.21,67.52,136.31,67.69,136.28,67.78z M137.14,67.79c-0.16,0.23-0.28,0.49-0.62,0.56
		c0-0.43,0.27-0.65,0.39-1.01c0.08-0.13,0.36-0.29,0.5-0.1C137.22,67.34,137.34,67.66,137.14,67.79z M144.97,52
		c0.11,0.1,0.35,0.03,0.53,0.05c0.01-0.09,0.29-0.04,0.15-0.21l-0.26,0.05c-0.05-0.14-0.3-0.19-0.28-0.4
		c0.16,0.07,0.1-0.11,0.2-0.13l-0.33-0.12l-0.04-0.08h-0.09c-0.05-0.2,0.34-0.09,0.14-0.26c0.3-0.05,0.5-0.23,0.83-0.09
		c-0.04-0.23,0.38-0.2,0.15-0.41c-0.19-0.08-0.53,0.04-0.65-0.11c0.22-0.18,0.29,0.23,0.52,0c-0.19,0.01,0.02-0.3-0.18-0.24
		c0.28,0,0-0.28,0.14-0.41c0.12-0.1,0.21-0.19,0.24-0.35c-0.21-0.07-0.38,0.05-0.57,0.09l0.2-0.24l-0.38-0.02l0.03-0.19l-0.29,0.09
		l-0.01-0.04c-0.12,0.02-0.11,0.2-0.27,0.13l0.04-0.18l-0.03-0.05l-0.17,0.1v-0.05c-0.18-0.11-0.2,0.16-0.39,0.13v0.04l-0.26-0.01
		c0.32-0.13,0.04-0.28,0.37-0.46l-0.27-0.09c-0.02-0.18,0.32-0.07,0.17-0.33l-0.31,0.05l0.09-0.19c-0.17-0.05-0.28,0.08-0.4,0.09
		l-0.09,0.09c-0.09-0.07,0.2-0.3-0.1-0.28l-0.03,0.14l-0.14,0.05v0.09c-0.21,0.11-0.51-0.22-0.72,0.04l0.09-0.09l0.06-0.14
		c-0.17-0.03-0.24-0.08-0.28-0.21l-0.19,0.01v-0.07l0.19-0.06l-0.05-0.17l0.09-0.01c-0.09-0.04-0.02-0.21-0.18-0.15
		c-0.07-0.21,0.45-0.32,0.06-0.43l-0.08-0.18l0.15-0.07l0.02,0.08l0.04-0.05l0.14,0.05c0.08-0.46,0.54-0.21,0.7-0.04
		c-0.16,0.09-0.19,0.25-0.28,0.36c0.08,0.05,0.07,0.24,0.22,0.16c-0.06,0.04-0.17,0.04-0.11,0.18l0.23,0.04l0.14-0.19l-0.07,0.39
		l0.11-0.03l0.03-0.17l0.48,0.01l0.03-0.24l0.25,0.04c0.08-0.11,0.1-0.3,0.08-0.49l-0.17-0.17l0.13,0.11l0.05-0.02
		c0.05,0.07,0.22,0.21,0.27,0.38l0.21,0.19l0.27,0.08c0.12-0.1-0.15-0.14,0.03-0.19c0.19-0.1,0.25,0.18,0.38-0.03l-0.09-0.12
		c0.17-0.03,0.2,0.31,0.36,0.08l-0.13-0.24l0.05-0.04l-0.09-0.05c0.17-0.31,0.26,0.23,0.53,0.06l0.23,0.24l-0.02-0.01
		c-0.03,0.3-0.03,0.61-0.08,0.97c-0.21,0.09-0.08,0.36-0.13,0.53c0.16,0.09-0.05,0.18,0.04,0.28v0.14h0.02l0.05,0.26l-0.14,0.08
		c0.06,0.27-0.01,0.24,0.06,0.49c0.03-0.01-0.18,0.17,0.03,0.15l-0.01,0.4c0,0.09-0.01,0.41-0.01,0.59h-0.03
		c0.03,0.3-0.01,0.77,0.3,0.91c-0.1,0.28-0.1,0.65-0.11,0.99l-0.06,0.03l-0.1,0.3c-0.12,0.06-0.38,0.09-0.59,0.09
		c-0.21-0.07-0.56-0.08-0.8-0.11l-0.03-0.04l-0.13,0.08l-0.01-0.08c-0.1,0.15-0.22-0.09-0.29-0.04c-0.18-0.21-0.65-0.01-0.65-0.4
		l-0.15,0.04c0.11-0.09-0.03-0.41,0.23-0.43c0.24-0.02,0.5-0.42,0.73-0.06c0.11,0.04,0.25,0.25,0.45,0.15L144.97,52z M141.64,31.84
		c0.08-0.44,0.65-0.01,0.59-0.51c0.26,0.04-0.04-0.44,0.26-0.45l-0.09-0.08c0.13-0.01,0.28-0.03,0.24-0.22l-0.09-0.02l-0.01-0.2
		l-0.31,0.05v-0.05l-0.18-0.04c-0.02-0.14,0.28-0.02,0.21-0.19l-0.19,0.02v0.03c-0.15-0.03-0.26-0.13-0.48-0.15l-0.08-0.37
		l0.05-0.04l-0.04-0.07l0.15,0.07h-0.02c-0.09,0.06,0.11,0.09-0.05,0.11c0.15,0.01,0.14,0.28,0.26,0.11l0.27,0.04l0.26-0.13
		c0.11,0.13,0.25-0.05,0.45,0.01l0.12-0.29c0.14,0.01,0.36,0.08,0.4-0.12l-0.02-0.12h-0.07c-0.09-0.31,0.27-0.05,0.33-0.23l0.1-0.05
		l-0.05-0.06h0.02l-0.06-0.24c0.15,0,0.31,0.12,0.46-0.02l-0.08-0.18c-0.1,0.09-0.31,0.02-0.47,0.04l0.05-0.12l-0.14-0.06
		l-0.23,0.04c0.02-0.09,0.32,0.06,0.23-0.18l-0.23-0.09l0.19-0.14l-0.24-0.14h-0.04l0.04-0.05l-0.28-0.05l-0.01-0.19l-0.31,0.13
		l0.18-0.31l-0.18-0.05l0,0.09l-0.12,0.09v0.04l-0.18,0c-0.11-0.22-0.23,0.12-0.43,0l0.05-0.12c-0.09-0.12-0.3-0.07-0.27-0.28
		l0.14-0.06l-0.05-0.1l-0.27,0.04l0.09-0.21l0.05-0.02c-0.17,0.06-0.32-0.26-0.34,0.03l-0.09-0.18l-0.21,0.23
		c-0.1-0.02-0.06-0.25-0.24-0.18c0.03,0.21-0.19,0.18-0.19,0.31l-0.23-0.13l0.1-0.08l0.03-0.14l0.02-0.03l-0.35,0.03l0.06-0.21
		l-0.22,0.09l0.09-0.17l0.1-0.08l0.45-0.21c0.31-0.25,0.71-0.3,1.08-0.47c0.21,0.15,0.4,0.12,0.6,0.24l0.03,0.04
		c0.11-0.08,0.26,0.14,0.48,0.09c0.04,0.35,0.51,0.16,0.75,0.21c0.07,0,0.05-0.28,0.26-0.18V26l-0.06-0.04l-0.13,0.29
		c0.26,0.1,0.3-0.35,0.47,0.01l0.13,0.02l0.41-0.17l-0.14-0.04l0.17-0.12l0.02,0.05c0.2-0.05,0.04-0.09,0.09-0.27l-0.09-0.02
		l0.09-0.12c-0.06-0.24-0.23,0.13-0.27-0.12l-0.02,0.05c0.02-0.12-0.19-0.05-0.11-0.22c0.16,0.25,0.14-0.17,0.32-0.05
		c0.06-0.33,0.26-0.35,0.1-0.67l0.04-0.37l-0.13-0.21c0.16-0.14,0.36,0.01,0.5,0.1l-0.11,0.11c0.32,0.18-0.42,0.32-0.01,0.53
		c0.16,0.02,0.27,0.17,0.35-0.04c0,0.19,0.07,0.35,0.17,0.49c0.17,0.22,0.24-0.13,0.46-0.03c0.12,0.21,0.04-0.15,0.24-0.02
		l0.07-0.35l0.23-0.02c0.25,0.12-0.05,0.44,0.08,0.67c-0.05,0.33-0.16,0.82-0.09,1.18c-0.04,0.61-0.45,0.92-0.44,1.57v0.42
		c-0.12-0.18-0.3,0.09-0.54-0.06l-0.1-0.04l-0.2,0.28c-0.15-0.03-0.14-0.31-0.31-0.1l0.03,0.15l-0.26-0.01l-0.15,0.04l0.13,0.22
		l-0.12,0.06l0.06,0.1l-0.08,0.08c0.05,0.14,0.18,0.17,0.16,0.34l-0.16,0.18c-0.14-0.01-0.38-0.09-0.43,0.07l0.09,0.16L144,29.87
		l-0.25,0.18l-0.02-0.04c-0.21,0,0.05,0.24-0.21,0.14l-0.02,0.1h-0.18l0.28,0.16l-0.11,0.21h-0.2v0.1h-0.29l-0.01,0.09l-0.19,0.08
		v0.14l-0.14-0.01l0.13,0.33l-0.13-0.06l-0.02,0.28c0.24,0.16,0.47-0.17,0.56,0.1c0.4-0.1,0.39,0.38,0.73,0.14
		c0.07,0.13-0.15,0.44,0.09,0.46l0.04-0.02l0.04,0.02c-0.02-0.22,0.24-0.14,0.33-0.27c0.03,0.28,0.46,0.07,0.39,0.4
		c0.21,0.08,0.51,0.26,0.71,0.09c0.2-0.04,0.03,0.21,0.24,0.15l0.16-0.07l0.19,0.08l0.02-0.08l0.11,0.08l0.02-0.15h0.13
		c-0.17,0.15,0.08,0.23-0.01,0.43l-0.27,0.01l-0.15,0.16c-0.28-0.07-0.5,0.16-0.64,0.09l-0.06,0.16c-0.15,0.09-0.24-0.44-0.46-0.12
		h-0.13l0.1-0.19c-0.18-0.22-0.37,0.06-0.56,0.04l-0.06-0.1l-0.19,0.06l0.03,0.23l-0.06-0.01c0.01-0.17-0.18-0.1-0.23-0.23
		c-0.21,0.06-0.27,0.27-0.56,0.17l-0.1,0.14l-0.1-0.05l-0.18,0.05l0.01-0.17l0.04,0.04l0.09-0.02c-0.14-0.05,0.07-0.35-0.15-0.37
		l-0.07-0.09l0.18-0.1l-0.2-0.19h-0.09l0.24-0.17l0.1-0.17l-0.23-0.03l0.09-0.17c-0.2-0.09-0.35,0.05-0.51,0.07l-0.09-0.1
		l-0.28,0.04l0.05-0.04C141.88,31.68,141.8,31.95,141.64,31.84z M141.27,29.85c-0.19,0.17-0.21-0.13-0.35-0.13v-0.05h0.04
		l-0.08-0.16c0.16,0,0.04-0.2,0.26-0.13c-0.08,0.19,0.14,0.18,0.14,0.32l-0.13-0.05C141.03,29.81,141.27,29.74,141.27,29.85z
		 M139.61,67.02c0.24-0.03,0.42,0.05,0.53,0.21c-0.25,0.19-0.3,0.72-0.65,0.62C139.61,67.55,139.35,67.26,139.61,67.02z
		 M139.95,66.44c0.05-0.21-0.23-0.07-0.32-0.15c-0.06-0.2,0.11-0.2,0.14-0.36c0.18,0.15,0.41,0.16,0.52,0.41
		C140.09,66.26,140.17,66.55,139.95,66.44z M146.27,40.64l0.02,0.17l-0.14,0c0.12-0.26-0.19,0.05-0.13-0.21l-0.3-0.04v0.06
		l-0.02-0.12c0.05-0.06,0.23-0.02,0.19-0.18l-0.04-0.14l0.19-0.14c0.26-0.04,0.11,0.3,0.34,0.27v0.17
		C146.2,40.46,146.33,40.63,146.27,40.64z M143.25,47.22c0,0.01-0.01,0.01-0.01,0.02L143.25,47.22L143.25,47.22z M152.07,26.27
		l0.04-0.44l-0.03-0.25c0.07-0.29-0.02-0.63,0.1-0.9l0.47,0.22c0.15,0.06,0.29,0.1,0.38,0.19l0.02,0.19h0.07l0.11,0.24
		c0.22-0.02,0.54-0.11,0.62,0.09c-0.21,0.01-0.19,0.22-0.21,0.31h-0.11l0.04,0.08c-0.24,0.25-0.52,0.51-0.62,0.85l-0.13,0.05
		l-0.01,0.04l-0.07-0.04c-0.02,0.21-0.28,0.17-0.31,0.36c-0.16,0.13-0.23,0.06-0.35-0.05h0.1l-0.04-0.13l0.04-0.01l-0.03-0.13
		c0.06-0.09-0.04-0.23-0.04-0.38l-0.06-0.09l0.04,0.06l0.06-0.2L152.07,26.27z M156.08,27.77l-0.03,0.22l-0.18,0.13l0.28,0.06
		c-0.02,0.14-0.33,0.07-0.14,0.21h0.04l0.2,0.35c-0.13,0.16-0.2,0.41-0.47,0.41l0.12,0.17l-0.06,0.04c0.06,0.07,0.19,0.33,0.33,0.14
		l-0.12,0.15l-0.01,0.1c0.33,0,0.56,0.12,0.82,0.17l0.24,0.14c-0.32,0.09-0.64,0.27-0.94,0.4l-0.32-0.36l-0.2,0.03l-0.03-0.03
		c-0.13,0.1-0.3,0.19-0.28,0.42l-0.04,0.03c0.02,0.16,0.02,0.04,0,0.21c-0.12,0.18-0.01,0.35-0.14,0.48
		c-0.09,0.26-0.2,0.49-0.41,0.62l-0.03,0.15c-0.22,0.1-0.42-0.25-0.42,0.09l-0.26,0.09v-0.22l0.12,0.08l-0.06-0.2h-0.1l0.1-0.16
		l-0.06-0.21l0.06-0.04l-0.28-0.06l-0.02-0.14h-0.07l0.05-0.12l-0.28-0.01l0.05-0.06l-0.22-0.14c-0.07,0.17-0.12,0.09-0.15,0.23
		c-0.02-0.12,0.08-0.15-0.09-0.28c-0.1,0.19-0.14,0.37-0.41,0.27l-0.09-0.08l0.09-0.06l-0.14-0.3l0.05-0.02l-0.09-0.17h0.02
		l0.12-0.22c0.12-0.04,0.19-0.21,0.35-0.28l0.28-0.14c0.31-0.15,0.38-0.62,0.86-0.57c0.35-0.09,0.43-0.48,0.66-0.69
		c-0.02-0.23,0.24-0.3,0.3-0.47c0.27,0.04,0.19-0.32,0.44-0.33c0.16-0.19,0.1-0.57,0.42-0.62l0.08,0.14l-0.05,0.08
		C156.14,27.47,156.05,27.65,156.08,27.77z M158.02,31.14c0.12,0.08,0.12-0.15,0.19,0l-0.02,0.1c0.28,0.14,0.48-0.11,0.71,0
		c0.24,0.22,0.25-0.22,0.44-0.29l0.09-0.07c0.21,0.14-0.06,0.32-0.01,0.51l-0.25,0.04v0.04l-0.13-0.04
		c-0.23,0.21,0.16,0.19-0.08,0.42h-0.11l0.04-0.05c-0.06-0.1-0.11-0.18-0.28-0.23c-0.17,0.07,0.03,0.13-0.02,0.28
		c-0.21,0.04-0.04-0.26-0.24-0.24l-0.25,0.09l0.12,0.24c-0.19,0.01-0.07-0.28-0.3-0.24l-0.02,0.18l0.14,0.03
		c-0.15,0.11-0.15-0.07-0.3-0.13c-0.18,0.16,0.08,0.22,0.07,0.33l0.1,0.1l-0.24,0.07l0.2,0.14h0.03v0.06h-0.44v-0.02
		c-0.14,0-0.42-0.28-0.61-0.4l0.09-0.07l-0.14-0.02l0.04-0.04l-0.04-0.08h0.02c-0.08-0.3,0.28-0.51,0.43-0.71
		c0.14,0.2,0.18-0.14,0.36-0.13l0.28-0.2C158.15,30.87,157.72,31.06,158.02,31.14z M157.76,32.82l-0.11-0.05l-0.12,0.12v-0.13
		l0.12,0.01l0.02-0.01L157.76,32.82l0.02,0l0.21,0.13l-0.2-0.06l-0.05,0.03l0.04-0.03L157.76,32.82z M157.6,33.57l-0.15,0.12v-0.04
		l-0.21,0.08v0.1c-0.22,0.07-0.24-0.22-0.45-0.2c-0.05,0.21,0.16,0.46-0.1,0.6c0.18,0.14-0.12,0.09-0.05,0.23l-0.26-0.19
		c-0.12-0.1-0.15-0.34-0.39-0.33l-0.02,0.18l-0.07-0.21l0.05-0.31l-0.38-0.05c0.01-0.23,0.39-0.27,0.24-0.49
		c0.27-0.14,0.31-0.5,0.31-0.8l-0.12,0.01l0.15-0.13l0.21,0.07c0.05-0.16,0.08,0.07,0.19,0c0.09,0.21,0.29,0.27,0.43,0.42l0.15-0.08
		l-0.05-0.11h0.02l0.14,0.15h-0.14l0.07,0.2l0.07-0.07c-0.01,0.18,0.32,0.22,0.29,0.44l0.15,0.12l-0.15,0.27H157.6z M156.88,53.59
		v0.12l-0.06-0.03l-0.03,0.24l-0.06-0.04c-0.06,0.47-0.56,0.73-0.77,1.12c-0.01,0.3-0.01,0.2-0.17,0.39l-0.14,0.14l-0.39,0.1
		c-0.03,0.16-0.05-0.08-0.13,0.01l-0.1-0.09l-0.17,0.07c-0.11-0.1-0.03-0.32-0.07-0.49l0-0.28c-0.05-0.24-0.07-0.74-0.07-0.97
		c-0.25-0.1,0.12-0.25-0.13-0.36l0.1-0.04c-0.17-0.23-0.05-0.41-0.13-0.72v-0.33h0.03c-0.12-0.43-0.05-0.55-0.02-0.83l-0.02-0.03
		l-0.03-0.14l0.03-1.39l0.04-0.32c-0.02-0.09-0.01-0.47,0.05-0.63l-0.04-0.09l0.24-0.35c0.42-0.16,0.89-0.45,1.31-0.66
		c0.15-0.1,0.17,0.19,0.25-0.01l0.01,0.09l-0.16,0l0.02,0.21c0,0.12,0.2-0.02,0.13,0.17c-0.28,0.06-0.36,0.49-0.69,0.26l-0.16,0.04
		l0.09,0.11h0.06c-0.04,0.13-0.39,0.03-0.2,0.23h0.05v0.08l-0.27,0.06l0.02,0.07l-0.26,0.11c0.14,0.19,0.35,0.2,0.57,0.23
		l-0.21,0.04c-0.04,0.16,0.09,0.24,0.18,0.25l-0.04,0.03l0.14,0.09l-0.1,0.07l0.3,0.05l0.05,0.06l0.23-0.12l-0.21,0.3
		c-0.23-0.02-0.1,0.23-0.22,0.27l0.27-0.02l0.02-0.05h0.07l-0.17,0.26c0.22,0.02,0.32-0.09,0.51-0.07l0.14,0.21
		c0.19-0.13,0.36,0.01,0.54,0.03l-0.57,0.03c-0.03,0.21,0.21,0.13,0.3,0.16h0.08c-0.08,0.09-0.31-0.05-0.36,0.1l-0.32-0.05
		c-0.11,0.11,0.11,0.12,0.02,0.29l-0.15,0.03l0.03,0.13h0.07c-0.13,0.08-0.27,0.18-0.28,0.33c0.18,0.16,0.18-0.12,0.3-0.15
		c0.02,0.13-0.28,0.18-0.18,0.44l-0.02,0.2l0.31-0.23c-0.02,0.23-0.32,0.26-0.17,0.5l0.36-0.27c0.26-0.02,0.45-0.11,0.63-0.27
		l0.17-0.08v-0.05c0.16,0.01,0.09,0.19,0.11,0.31c-0.14,0.16-0.21,0.47-0.38,0.58C157.05,53.26,157.04,53.5,156.88,53.59z
		 M154.47,46.5c0.1-0.09-0.2-0.35-0.05-0.56l-0.09-0.16c0.05-0.15,0.11-0.29,0.3-0.34l0.2,0.14v0.14c-0.23,0.24,0.21,0.21,0.14,0.48
		l0.21,0.1l-0.08,0.21l-0.35,0.14l-0.04-0.09l-0.03,0.09h-0.07l-0.06-0.1l-0.02,0.1h-0.02l0.03-0.15H154.47z M154,40.44h0.03
		c-0.07-0.12,0.12-0.43,0.18-0.66c0.23-0.06,0.52-0.08,0.81-0.05c0.25-0.02,0.48-0.21,0.73-0.06c0.22-0.15,0.3-0.01,0.5-0.27
		l0.32-0.18c0.04-0.14,0.14-0.19,0.31-0.14l0.01,0.05l0.12-0.06l0.1,0.09h-0.15l-0.14-0.02c-0.03,0.25,0.39,0.43,0.06,0.63
		l0.11,0.19c-0.13-0.09-0.05,0-0.25-0.09l-0.02,0.14c0.16,0.12,0.2,0.24,0.34,0.35l-0.25,0.04h-0.1l0.1,0.16h0.04
		c-0.17,0.1-0.61-0.13-0.62,0.18l-0.36,0.06c-0.02-0.11-0.37-0.12-0.54-0.12c-0.02,0.25-0.37,0.09-0.43,0.34
		c0.26,0.05-0.02,0.52,0.34,0.42l-0.34,0.12l0.08,0.01c-0.08,0.07-0.09,0.24-0.26,0.17l0.04-0.18l-0.29-0.11h-0.08l-0.11-0.24
		l-0.06-0.01c0.04-0.27-0.3-0.2-0.22-0.55L154,40.44z M153.81,37.67l-0.13,0.02v0.07l0.12,0.01l-0.02,0.05
		c-0.19,0.01-0.09-0.28-0.35-0.19l-0.06-0.33h-0.07l0.09-0.21c0.02-0.18,0.17-0.3,0.34-0.37c0.27,0.07,0.78-0.13,0.8,0.22l0.03,0.13
		l0.06,0.01c0.09,0.36,0.28-0.08,0.54-0.04l-0.04-0.23c0.13,0,0.27-0.05,0.22-0.21c-0.13-0.17,0.17-0.25,0.24-0.41l0.21-0.06v0.22
		l-0.14,0.18l0.1,0.17l0.27-0.03L156.02,37l0.02,0.03l-0.39,0.28h-0.07l0.14,0.2c0.19,0.03,0.41-0.3,0.5-0.04l-0.17,0.05l0.03,0.09
		l-0.3,0.06l0.01,0.03l-0.01-0.01l-0.08,0.09l-0.14-0.1l-0.04,0.03l0.11,0.11c-0.15-0.08-0.15-0.14-0.33-0.06l-0.23,0.13l-0.06-0.08
		c-0.12,0.22-0.26-0.1-0.4,0.02l0.03,0.02l-0.09,0.04l0.06-0.07h-0.22l0.1,0.09l-0.25-0.09l0.15,0.15l-0.07,0.09L154.24,38
		l-0.21,0.23l-0.13-0.28v-0.16l0.05-0.03L153.81,37.67z M153.62,32.12l0.24,0.25l-0.14,0.03c0.18,0.19-0.24,0.36-0.01,0.53
		c-0.3,0.02-0.34,0.58-0.67,0.25c0.21-0.15,0.19-0.39,0.42-0.52C153.32,32.5,153.58,32.33,153.62,32.12z M154.82,35.21
		c0.08,0.17-0.29,0.15-0.17,0.38h-0.12l-0.05-0.08h-0.1l-0.02,0.27c-0.16-0.04-0.1-0.3-0.23-0.42c-0.06,0.12-0.42,0.11-0.19,0.33
		l-0.15-0.06l-0.13,0.21l-0.21-0.12l0.19-0.09c-0.04-0.12,0.21-0.12,0.29-0.27c0.14-0.19,0.49-0.23,0.6-0.48l0.34-0.14l-0.02,0.22
		C155.09,35.09,154.68,35.04,154.82,35.21z M157.47,32.73l-0.12,0.02V32.6l0.12,0.04V32.73z M155.16,63.43
		c0.3,0.11,0.81,0.17,0.81,0.59h-0.03v0.16l-0.09,0.07v0.07c-0.21-0.1-0.11,0.15-0.21,0.21c-0.1-0.16-0.29,0.04-0.34,0.02l-0.04-0.1
		l-0.06,0.12l0.02-0.12l0.04-0.12l0.04-0.12l-0.14-0.04l0.1-0.09C155.09,63.96,155.21,63.64,155.16,63.43z M156.57,71.92l0.12,0.07
		l-0.06,0.11l-0.06-0.11l-0.06,0.06v0.06l-0.08-0.06l-0.27,0.22l-0.09-0.04v0.14l-0.09-0.12c-0.17-0.02-0.14,0.23-0.25,0.09
		c0.16-0.34-0.19-1.25,0.13-1.62l0.16,0.17l0.01,0.21h0.08c-0.17,0.02-0.02,0.2-0.08,0.3h-0.04c-0.01,0.07,0.07,0.25,0.26,0.17
		l0.46,0.01l0.09,0.12C156.59,71.65,156.69,71.87,156.57,71.92z M162.66,54.69c0.1-0.18-0.14-0.26-0.01-0.37l-0.19,0.09l-0.11,0.36
		l-0.14-0.23l-0.29,0.1v-0.19l-0.39,0.17c-0.14,0.11,0.06,0.15-0.01,0.31l-0.07-0.06l0.06-0.06l-0.15-0.04
		c-0.14,0.23,0.16,0.41-0.05,0.54l-0.26-0.14h-0.08l0.11-0.09c-0.2,0.02-0.07-0.18-0.23-0.23c-0.07,0.06,0.1,0.25-0.1,0.2l-0.13-0.2
		h-0.05l0.05,0.2c0,0.1-0.29,0.05-0.22,0.25l-0.12,0.05c0.11,0.19-0.05,0.15-0.09,0.24l-0.11,0.05l0.01,0.1l0.01,0.01l-0.16,0.11
		c-0.03,0.21,0.24,0.14,0.27,0.31c-0.37-0.14-0.09,0.34-0.38,0.3v0.11l-0.27,0.02c0.09,0.23,0.48,0.04,0.54,0.26
		c0.09,0.12-0.1,0.4,0.2,0.31h0.07c0.11,0.3-0.22,0.15-0.19,0.37h-0.17v-0.02c-0.16,0.05-0.19,0.05-0.35-0.01l0.15,0.18l-0.26-0.01
		l0.05,0.27l-0.11,0.03l0.03,0.11l-0.25,0.04l0.06,0.1h-0.02c0,0.07,0.09,0.23,0.27,0.17h0.07l-0.02,0.17
		c0.16,0.14,0.41,0.16,0.55,0.35l0.13-0.08h-0.01v0.1l-0.1,0.09l0.14,0.17l0.02-0.02l-0.02,0.05c0.14,0.09,0.49-0.08,0.43,0.17
		c0.33-0.05,0.05,0.43,0.42,0.31c0.33-0.14,0.32,0.19,0.62,0.14v0.1l-0.07-0.05l-0.03,0.18l-0.13,0.12v0.04l-0.21-0.02l-0.05-0.14
		c-0.07-0.18-0.39-0.1-0.55-0.19l-0.2,0.04c0.05-0.16-0.16-0.1-0.17-0.2h-0.15l0.07-0.07c-0.08-0.11-0.19-0.36-0.37-0.2h-0.1
		l0.05-0.08l-0.1-0.02l-0.01-0.25l-0.08,0.12l-0.25-0.09c0.03,0.18,0.03,0.06,0,0.23l-0.2-0.01l-0.17-0.14l-0.13,0.08v0.07
		c-0.15-0.25-0.27,0.15-0.36,0l-0.18,0.09v0.02l-0.16-0.13l-0.14,0.03l0.03,0.13l0.11,0.26l-0.06,0.26l0.05,0.17
		c-0.17-0.04-0.2-0.21-0.39-0.29l-0.03,0.26c-0.11-0.01-0.3-0.24-0.31,0.02l0.17,0.21c-0.15-0.06-0.41-0.09-0.58-0.09l0.31,0.26
		l-0.15,0.04l0.12,0.23c-0.18,0.04-0.51-0.02-0.6,0.16c0.12,0.03,0.08,0.24,0.27,0.16l0.12,0.43c0.13,0.08,0.19,0.19,0.43,0.14
		l-0.23,0.12v0.14l0.12,0.03c-0.12,0.02-0.22,0.09-0.39,0.08c-0.08-0.09-0.4-0.16-0.56-0.25l-0.01-0.12l-0.08,0.08l-0.26-0.22
		c-0.22,0.09-0.19-0.17-0.34-0.13c-0.09,0.01-0.13-0.2-0.31-0.2c-0.16-0.23-0.67-0.48-0.41-0.84l-0.04-0.02l0.14-0.47
		c0.29,0.1,0.7-0.16,0.84,0.13l0.16,0.12c0.34,0.04,0.72-0.03,1-0.23c0.29-0.09,0.39-0.33,0.58-0.53c0.13-0.11,0.03-0.39,0.26-0.44
		c0.01-0.4,0.18-0.69,0.42-0.96c0.01-0.28,0.28-0.4,0.3-0.69c0.22-0.5,0.48-0.94,0.75-1.38l0.2-0.28c0.12-0.06,0.06-0.3,0.23-0.32
		c0.11-0.07,0.18-0.21,0.21-0.37l0.23-0.28c0.03-0.3,0.3-0.41,0.33-0.71c0.07-0.07,0.24-0.07,0.2-0.26c0.2,0.05,0.32-0.11,0.44-0.19
		c0.05-0.15,0.35-0.1,0.21-0.26l0.07,0.04c0.05-0.23,0.39-0.09,0.45-0.31h0.06v0.16l0.33-0.05c-0.03,0.27,0.26,0.31,0.28,0.52
		c0.2,0.11,0.27,0.29,0.48,0.29c-0.12-0.19-0.12-0.21-0.05-0.36l0.21-0.13c0.16,0.08,0.28-0.09,0.46-0.02
		c-0.05,0.28-0.14,0.43-0.32,0.51v0.06l-0.26-0.02l-0.09,0.15c0.21,0.01,0.09,0.22,0.11,0.34l-0.05,0.07v0.14h-0.07v0.07l-0.19,0.02
		l-0.14,0.09l0,0L162.66,54.69z M160.44,58.83v0.06l-0.08-0.07L160.44,58.83z M163.07,54.88l0.12-0.05l-0.06-0.07l0.08,0.05V54.8
		l0.07,0.09l-0.19,0.06l0-0.05L163.07,54.88z M163.59,57.04l0.09-0.04l0.02,0.04l0.15-0.13l-0.15-0.08
		c0.08-0.22,0.55-0.34,0.39-0.63l-0.34-0.18l0.07-0.16l0.05-0.08l-0.27-0.02v-0.09l0.09-0.04l-0.12-0.12
		c-0.03,0.17-0.27,0.06-0.34,0.23l-0.02-0.01l-0.09,0.03l-0.12-0.23c0.15,0.02,0.24-0.12,0.36-0.16c0.26-0.14-0.11-0.43,0.14-0.47
		l-0.13-0.14c0.17-0.25,0.24-0.52,0.63-0.51l0.07,0.1c0.12,0.15,0.05,0.11,0.08,0.35h-0.03c-0.14,0.12-0.04,0.52,0.02,0.73
		c0.29,0.21,0.03,0.54,0.32,0.77c-0.01,0.34-0.43,0.36-0.49,0.69l-0.26,0.49l-0.01-0.08l-0.1,0.17l-0.2-0.02l0.05-0.05l0.09-0.1
		l0.04-0.01C163.4,57.23,163.62,57.17,163.59,57.04z M164.54,56.79c0.2,0.03,0.01,0.39,0.22,0.41l0.23-0.31
		c0.19,0.09,0.44,0.12,0.34,0.45c0.11,0-0.02,0.2,0.14,0.16v0.06h-0.21l-0.02-0.14c-0.2,0.01-0.23,0.13-0.45,0.2
		c0-0.11,0.36-0.11,0.14-0.28c-0.18,0.04-0.33,0.13-0.53,0.13l-0.01,0.07l-0.12,0.02l0.05,0.05c-0.16,0.15-0.46,0.27-0.76,0.33
		l-0.03,0.02v-0.09l-0.09-0.02v-0.13l0.24-0.05l0.04-0.07l-0.01-0.02c0.21,0.1,0.18-0.55,0.58-0.53l-0.14-0.14l0.12-0.05l-0.04,0.12
		l0.2-0.08L164.54,56.79z M167.94,37.05l0.03,0.01c0.15-0.07-0.22-0.52,0.19-0.33l0.3,0.27l-0.35-0.06
		c0.12,0.17-0.19,0.28-0.25,0.36l-0.08-0.09L167.94,37.05z M167.38,46.61l-0.05-0.03c0.1-0.11,0.17-0.37,0.39-0.24v0.06
		c-0.15,0.02-0.07,0.2-0.08,0.27l0.02,0.14l-0.35,0.06l-0.07-0.09C167.43,46.84,167.25,46.61,167.38,46.61z M166.88,49.37v0.06
		c0.14,0.05,0.41,0,0.43,0.18c-0.08-0.18-0.51-0.03-0.58-0.23H166.88z M166.39,50.8l0-0.02c0.02-0.13,0,0.32,0.1,0.04l-0.01,0.15
		l0.11-0.06v0.03c0.17-0.03,0.19-0.07,0.36,0.03l-0.29-0.03l-0.19,0.04l-0.28-0.25L166.39,50.8z M166.11,41.98l0.03-0.1l0.06,0.02
		L166.11,41.98z M165.37,41.18v0.09l0.14-0.13l0.39,0.34l0.03-0.01v0.08l0.11-0.07v0.17H166l0.14,0.15l-0.03-0.09l0.06,0l-0.04,0.15
		l-0.04-0.03l-0.05,0.03c-0.11-0.12-0.32-0.5-0.59-0.5l-0.03-0.04l-0.2-0.02L165.37,41.18z M165.11,52.99l-0.09,0.19l0.1,0.12h-0.06
		c0.18,0.36-0.38,0.05-0.35,0.36l0.13,0.02c-0.22,0.03-0.55,0.01-0.69,0.16l-0.21-0.1c0.02-0.15,0.31-0.06,0.33-0.27
		c0.05-0.37,0.55-0.12,0.76-0.28l-0.04-0.03L165.11,52.99z M164.6,52.47h0.26l0.05,0.21v0.05c-0.13-0.07-0.1,0.22-0.21,0.04
		l-0.11,0.15c-0.22-0.05-0.73,0.06-0.97,0.22c-0.23,0.05-0.37-0.03-0.45-0.18c0-0.17-0.12-0.18-0.08-0.35
		c0.11-0.03,0.2-0.12,0.2-0.29c0.12-0.23,0.32-0.34,0.55-0.48h0.26l0.02,0.16h0.08l-0.1,0.26l0.23,0.02l-0.09,0.07
		C164.32,52.51,164.55,52.28,164.6,52.47z M163.54,39.09l0.44,0.16c-0.24,0.1-0.12,0.7-0.45,0.35
		C163.58,39.39,163.33,39.24,163.54,39.09z M163.33,24.4c0.2-0.33,0.65-0.68,1.08-0.37c-0.15,0.06-0.34,0.12-0.42,0.28v0.38
		c-0.36-0.01-0.72,0.01-1.07-0.07C162.97,24.58,163.43,24.67,163.33,24.4z M159,16.58v0.01c0.11-0.07-0.09-0.33,0.17-0.3l0.08-0.28
		l0.05,0.04c0.15-0.09,0.27-0.32,0.5-0.31l-0.01,0.36h-0.02c-0.1,0.18,0.04,0.34,0.02,0.5c-0.16,0.23-0.25,0.43-0.45,0.59
		l-0.33-0.23L159,16.59l-0.07,0.03L159,16.58z M159.01,25.19l0.03,0.05l0.12-0.05l0.16,0.04l0.05,0.08l0.07,0.01l0.01,0.06
		l0.09-0.12v-0.07l0.12,0.05l0.14-0.33l-0.02-0.08c0.2,0.07,0.23-0.07,0.33-0.18l-0.1-0.12c0.06-0.25,0.24,0.02,0.4-0.02l0.02,0.19
		h0.06c-0.18,0.13,0.11,0.18,0.05,0.3c0.35-0.04,0.43,0.24,0.77,0.21c0.18,0,0.26,0.21,0.47,0.12c0-0.21,0.09-0.3,0.16-0.37
		l0.28,0.12l-0.05-0.17h0.14l-0.08,0.02v0.08c0.58,0.07,1.44,0.04,1.74-0.01l-0.46,0.81l-0.12-0.04l0.08-0.22V25.5l-0.21,0.03v0.06
		c-0.26,0.05-0.18,0.09-0.4-0.05c-0.22,0.06-0.23,0.43-0.5,0.3l-0.02-0.04l-0.31,0.24l0.1-0.25l-0.2-0.07
		c0.06-0.17-0.15-0.09-0.15-0.28c-0.29-0.12-0.45,0.38-0.59-0.01l-0.12,0.04c-0.12,0.09-0.32,0.15-0.32,0.36
		c-0.22-0.02-0.25-0.48-0.51-0.34l0.14,0.21l-0.26-0.06l-0.02,0.14c-0.12,0.08-0.13-0.17-0.18-0.01l-0.3-0.08
		c-0.05,0.08,0.18,0.15-0.05,0.2l0.15,0.19c-0.24-0.13-0.24,0.28-0.58,0.22v0.06l-0.04-0.17l0.13-0.12l-0.27-0.13l0.23-0.04
		l-0.06-0.19l-0.17,0.04l0.06-0.18c-0.3-0.1-0.4,0-0.61-0.22c-0.22-0.17-0.39,0.01-0.67-0.01c-0.13,0,0.14-0.14-0.02-0.21l0.05-0.05
		l-0.02-0.1l-0.25,0.19l0.13-0.16l-0.01-0.02v-0.09c-0.07,0.09-0.32,0.01-0.32,0.18l-0.17-0.08l0.08-0.23v-0.06
		c0.12-0.14,0.36-0.14,0.3-0.36h0.09l-0.03-0.15l-0.06,0.03l-0.03-0.03l-0.07,0.06c0-0.17,0.12-0.59,0.45-0.58l-0.1,0.2l0.09,0.02
		v0.2c0.24,0,0.3,0.18,0.46,0.27c0.02,0.17,0.07,0.29,0.2,0.36c0.16-0.02,0.21,0.09,0.3,0.16l-0.01,0.17l-0.07,0.01L159.01,25.19z
		 M156.91,18.36h-0.02v-0.05h0.02l0.05,0.07l0.06-0.04l-0.04,0.07l0.16,0.05l-0.04-0.12l0.07,0.16h0.05l-0.03,0.02l0.07,0.12
		c-0.22,0.06,0.04-0.12-0.22-0.14l-0.08-0.01l0.04-0.04L156.91,18.36z M157.24,18.5l0.06,0.01v0.04L157.24,18.5z M157.15,17.81
		v-0.11h0.17l0.02,0.06l0.1-0.06v-0.07l0.2,0l0.03-0.26l0.3,0.01l-0.15-0.23c0.09-0.07,0.34,0,0.36-0.18l-0.05-0.04l0.06-0.1
		c0.12,0.02,0.2,0.18,0.36,0.08l-0.05-0.1c0.16-0.06,0.07,0.16,0.16,0.19c0.03,0.16,0.16,0.41,0.12,0.51h0.02l-0.1,0.09
		c0.21,0.12-0.07,0.12,0,0.28c-0.18,0.08-0.16,0.3-0.25,0.47l0.06,0.24l-0.08,0.04l0.11,0.18l-0.04,0.03l0.02,0.07l-0.15,0.28
		c-0.08,0.03-0.29-0.07-0.25,0.09l-0.25,0.18v0.04l-0.07-0.1l-0.12,0.09l-0.03-0.11l0.07,0.07c0.01-0.18-0.11-0.5-0.05-0.65
		l-0.2-0.37c0.1-0.18-0.17-0.08-0.18-0.18c-0.1-0.23-0.37-0.13-0.31-0.42C157.03,17.99,157.05,17.78,157.15,17.81z M156.76,18.03
		l-0.05,0.06l-0.02-0.12L156.76,18.03z M155.43,15.22l0.2,0.04l-0.2,0.2l0.04,0.05c0.02,0.18-0.35,0.09-0.47,0.18
		C154.87,15.4,155.3,15.4,155.43,15.22z M155.14,14.02c-0.1,0.2,0.15,0.37,0.12,0.51c-0.19,0.04-0.08,0.35-0.38,0.26l0.05-0.48h0.03
		C154.89,14.25,154.91,13.96,155.14,14.02z M154.96,17.17l-0.05,0.03c0.14,0.15-0.3,0.42,0.05,0.53l0.26-0.26
		c0.02,0.15,0.06,0.34,0.25,0.27c0.13-0.09,0.24,0.21,0.46,0.21l0.07,0.15c0.16-0.04,0.12,0,0.22,0.07l0.2-0.21l0.07,0.17l0.08,0.01
		l0.03,0.18h0.04l0-0.01l0.01-0.1l0-0.02l0.03-0.03l-0.03-0.08l0.06,0.05l-0.02,0.02h0.02l0.05,0.03l0.09-0.04l0.02,0.07h0.05v-0.1
		l0.1,0.1l-0.19,0.16l0.01,0.03h-0.01l-0.07-0.21l-0.03,0.02l-0.04-0.05l-0.02,0.01l-0.03,0.05l0.07,0.07l-0.08,0.04v0.01h0
		l-0.02,0.02c0.1,0.21,0.34,0.39,0.43,0.61h0.07c-0.03,0.39,0.03,0.83-0.1,1.14c0.12,0.15-0.01,0.48,0.12,0.62l0,0.21h-0.03
		c-0.14,0.33-0.38,0.84-0.68,1.17c0.08,0.21-0.04,0.39-0.18,0.49c-0.09-0.19-0.23,0.16-0.28-0.07c0.08-0.05,0.32-0.24,0.12-0.34
		l-0.17-0.05l0.19-0.1l-0.15-0.08h0.06l-0.02-0.15h-0.07l0.23-0.21c-0.16-0.03-0.3,0.07-0.46,0.11l0.23-0.25l-0.34,0.05l0.01-0.02
		c-0.11-0.31-0.35,0.15-0.46-0.18l-0.14-0.03l0.05-0.04l-0.15-0.04l-0.02,0.09c-0.08-0.02-0.07-0.28-0.25-0.17l0,0.07l-0.07-0.08
		l-0.21,0.22c0.05-0.17-0.16-0.14-0.18-0.28c-0.12,0.19-0.21,0.17-0.41,0.14l-0.04-0.09l-0.25,0.03c0.03-0.15-0.11-0.19-0.1-0.32
		l-0.07,0.06l-0.06-0.25l-0.13,0.11l-0.09-0.17l-0.11,0.03v0.06l-0.25-0.14l-0.13,0.22c-0.15,0.11-0.27-0.01-0.32,0.14l0.04,0.14
		c-0.07-0.09-0.61,0.22-0.45-0.18l0.02-0.02l-0.14-0.16l0.04-0.23l0.01-0.62c0-0.21,0.04-0.41-0.01-0.61
		c0.05-0.23,0.02-0.15,0.08-0.44l0.03-0.32l-0.03-0.09l0.05-0.02c0.05-0.18-0.11-0.82,0.15-0.94l-0.1-0.04
		c0.19-0.15,0.2-0.47,0.54-0.45c0.35-0.21,0.65-0.4,1.02-0.55c-0.03,0.17-0.37,0.12-0.19,0.35c-0.13,0.07,0.06,0.18,0.03,0.34
		l0.23-0.04V16.9c0.16,0.06,0.17-0.17,0.32-0.09l-0.06,0.16l0.15,0.04l-0.01-0.11H154c-0.05,0.06,0,0.26-0.15,0.27
		c0.08,0.19,0.12,0.4,0.39,0.4c0.15,0.07,0.21-0.09,0.27-0.19c-0.11-0.3,0.2-0.36,0.28-0.49C154.94,16.9,154.98,17,154.96,17.17z
		 M154.55,15.8l0.1,0.13c0,0.17-0.4,0.29-0.11,0.44l0.17,0.02v0.14h0.08v0.02c-0.29-0.04-0.46-0.14-0.66,0.09l0.14-0.03v0.08
		l-0.31-0.01l0.06-0.15l0.05,0.05c-0.02-0.12,0.25-0.19,0.06-0.36c-0.14-0.03-0.16,0.15-0.2-0.03
		C154.13,16.05,154.3,15.85,154.55,15.8z M153.04,14.85c0.07-0.28,0.3-0.43,0.36-0.76c0.18,0.14,0.25,0.63,0.62,0.36l0.14-0.03
		c0.08,0.28-0.11,0.35-0.04,0.61l-0.29,0.13l-0.34,0.13l-0.24-0.01L153,15.51l-0.02-0.09l-0.4,0.22c-0.08-0.16-0.19,0.07-0.24,0.02
		C152.59,15.4,152.75,15.05,153.04,14.85z M151.83,10.29c0.04,0.23,0.28,0.34,0.38,0.5c-0.03,0.08-0.03,0.23-0.2,0.16l-0.22,0.25
		l0.07,0.1c-0.05,0.1-0.35-0.07-0.3,0.14l-0.14,0.12l0.07,0.05l-0.27,0.01c0.23,0.16-0.23,0.15-0.01,0.3l-0.12,0.13
		c0.04,0.26,0.38,0.22,0.47,0.4c-0.1,0.06-0.39,0.11-0.23,0.25c-0.29,0.09,0,0.25-0.06,0.44l0.11,0.16l0.58,0.06v0.21l0.12-0.06
		l-0.18,0.22c-0.11,0.34-0.53,0.44-0.58,0.83l-0.27,0.23h-0.13c0.07-0.12,0.24-0.35,0.1-0.53c0.1-0.1-0.09-0.21-0.07-0.4
		c0-0.53-0.08-0.99-0.19-1.56l0.1-0.07l-0.05-0.13l0.05-0.05l-0.12-0.16l0.12-0.12c-0.16-0.09,0.09-0.16,0.01-0.3l0.14-0.27
		c0.35,0.01,0.16-0.53,0.5-0.54C151.57,10.46,151.75,10.5,151.83,10.29z M151.6,8.4l-0.15,0.23c-0.01,0.28-0.15,0.48-0.4,0.57
		c-0.09-0.07-0.31-0.17-0.14-0.3l0.19-0.35C151.18,8.4,151.48,8.3,151.6,8.4z M150.75,7.68c0.16,0.03,0.43,0.11,0.53-0.04
		c-0.12,0.21-0.31,0.28-0.51,0.47l-0.26,0.11C150.54,7.99,150.6,7.82,150.75,7.68z M148.55,5.94l0.05-0.04l-0.03-0.04
		c0.07,0-0.06-0.33,0.12-0.33c-0.05,0.15,0.25,0.23,0.01,0.33l-0.01,0.14c-0.15,0.07,0.07,0.07,0.02,0.15l0.05,0.26l-0.23,0.1V6.36
		h0.05C148.67,6.2,148.47,6.11,148.55,5.94z M148.54,6.92c0.14-0.17,0.25-0.39,0.53-0.41l0.07,0.18l0,0l0.12-0.04v0.04h-0.12
		l-0.36,0.16c-0.04,0.22,0.04,0.31,0.14,0.42c0.21,0.06,0.33,0.12,0.27,0.39c-0.12,0.23-0.12,0.49-0.24,0.7l-0.12,0.16
		c-0.07-0.27-0.1-0.67-0.45-0.73l-0.11-0.09l-0.07,0C148.25,7.42,148.26,7.09,148.54,6.92z M147.75,5.94
		c0.19,0.07,0.29,0.18,0.39,0.29c0.28,0.64-0.36,0.77-0.43,1.28c-0.09-0.04-0.05-0.23-0.21-0.23l-0.09-0.47
		c0.19-0.15-0.12-0.32,0.07-0.51C147.38,6.02,147.61,6.02,147.75,5.94z M146.08,6.39c0.2,0.04,0.26-0.13,0.49-0.06l0.21-0.13
		c0,0.31,0.25,0.66-0.01,0.89c-0.03,0.17-0.24,0.17-0.35,0.24c-0.22-0.03-0.04-0.4-0.31-0.36l0.06-0.17
		C145.97,6.6,145.94,6.72,146.08,6.39z M145.94,8.75l0.03-0.11h-0.06c0.19-0.08,0.46-0.04,0.53-0.23l0.16-0.15l-0.03-0.19l0.04-0.03
		l-0.18-0.03l-0.01-0.11h-0.01l-0.07,0.02l-0.02-0.05l0.09,0.03l0.01-0.01v0.01l0.05,0.02l0.06-0.05l-0.23-0.17
		c0.18-0.17,0.27,0.08,0.47,0.01c0.17-0.15,0.41-0.02,0.39,0.18c0.15,0.4,0.64,0.4,0.91,0.53c0.05,0.21,0.12,0.48,0.04,0.72h-0.06
		c0.04,0.22-0.3,0.39-0.47,0.55l0.04,0.01c-0.15,0.04-0.41,0.29-0.38,0.53c-0.1,0.18,0.06,0.49-0.15,0.55
		c-0.08-0.13-0.35,0.04-0.37-0.13c-0.02-0.33,0.11-0.42-0.08-0.65l0.05-0.02l-0.05-0.15l0.05-0.02l-0.17-0.27l-0.42-0.29l-0.18-0.02
		C145.87,9.06,146.09,8.94,145.94,8.75z M145.44,9.86l0.13-0.13c0.19,0,0.39,0,0.39,0.21l0.05,0.2c-0.09,0.4-0.32,0.38-0.71,0.4
		C145.19,10.18,145.37,10.21,145.44,9.86z M144.87,10.67L146,10.7l0.02-0.06c-0.11,0.28,0.14,0.32,0.2,0.51
		c0.3,0.12,0.51,0.4,0.88,0.4c0.05,0.26-0.05,0.39-0.15,0.56c-0.03,0.18,0.06,0.35-0.07,0.4c-0.19-0.07-0.26,0.14-0.36,0.01
		l-0.01,0.1l-0.25-0.07c-0.16,0.09-0.61,0.06-0.84,0.22l-0.22-0.1l0.14-0.05l-0.04-0.01l0.13-0.24c0.17,0,0.28-0.06,0.42-0.11
		c-0.11-0.16,0.24-0.34-0.13-0.44l-0.2-0.29l-0.11,0.13l-0.2-0.14l-0.27,0.04C144.89,11.3,144.72,10.94,144.87,10.67z M146.06,12.99
		v-0.02l-0.18,0.13c-0.02-0.13,0.23-0.09,0.18-0.27l-0.12,0.06l0.04-0.08l0.08,0.02l0.07-0.02l0.12,0.06v0.05l-0.12-0.08l-0.07,0.14
		V12.99z M145.49,13.76l-0.4,0.16c0.1-0.17-0.04-0.57,0.31-0.51l0.02,0.34H145.49z M144.36,13.19c0.3-0.08,0.24,0.21,0.36,0.32
		l-0.31,0.04l-0.27,0.17c-0.21-0.07,0.03-0.2,0.03-0.32L144.36,13.19z M143.84,11.15l0.06,0.01l0.03-0.35l0.25,0.1l-0.14,0.42
		C144.1,11.2,143.69,11.38,143.84,11.15z M143.01,16.8l0.05,0.07l0.19-0.2l0.05-0.31c0.08-0.08,0.32-0.01,0.23-0.25l-0.04-0.01
		l-0.04-0.25l0.12-0.03l0.16-0.19c-0.16-0.06,0.09-0.08-0.02-0.15h-0.02V15.4c0.19,0,0.19-0.28,0.44-0.2l0.08-0.2l-0.23-0.03
		l0.27-0.18l0-0.15l0.19-0.14c0.37-0.11,0.32,0.37,0.6,0.44c0.09-0.14,0.42,0.03,0.46-0.13c0.21,0.07,0.1-0.17,0.19-0.22l-0.09-0.29
		v-0.05c0.12-0.03,0.17-0.34,0.36-0.14l0.27,0.08l0.12-0.15l-0.09-0.07l0.15-0.14v-0.1l0.08-0.02c0-0.18-0.28-0.02-0.27-0.23
		l0.18-0.01l-0.05-0.13l0.44,0.01c-0.05,0.23,0.23,0.42-0.03,0.53c-0.08,0.29-0.29,0.35-0.4,0.55c-0.19,0.18-0.13,0.56-0.15,0.83
		c0.15,0.17,0.2,0.36,0.37,0.46c0.1,0.23,0.17,0.46,0.34,0.64c0.11,0.2-0.08,0.26,0.07,0.43l0.03,0.32
		c-0.03,0.24-0.1,0.32-0.01,0.54c-0.26,0.07-0.32-0.1-0.45-0.2l-0.08,0.07l-0.08-0.16l-0.05,0.02l-0.12-0.02l-0.06-0.14l-0.09-0.1
		c-0.16-0.06-0.22-0.3-0.42-0.35c0.02-0.26-0.23-0.28-0.3-0.53l-0.07,0.05l-0.09-0.2l-0.1-0.08c-0.14-0.04-0.22-0.15-0.41-0.15
		c0,0.28-0.31,0.11-0.47,0.14l-0.14-0.05l0.01,0.42c-0.08-0.18-0.3-0.2-0.42-0.34l-0.1,0.09l0.07,0.05l-0.08,0.32
		c0.23,0.06,0.25,0.24,0.34,0.38c-0.21-0.04-0.14,0.25-0.1,0.33h-0.16l0.04-0.05c-0.42,0.2-0.15-0.38-0.55-0.29l-0.19,0.04
		L143.01,16.8z M145.58,17.1l0.03,0.01l-0.01,0.02l0.06,0.05l0.08,0.01l0,0.07l-0.08,0.01v0.01l-0.1-0.05l0.04-0.09L145.58,17.1z
		 M141.77,9.4l0.23-0.21l0.27,0.21c-0.23,0.09,0.12,0.24-0.08,0.38l0.05,0.06c-0.21-0.04-0.18,0.1-0.32,0.05
		c0.01,0.16-0.05,0.17-0.15,0.23h-0.06l0.09-0.08C141.66,9.8,141.74,9.73,141.77,9.4z M141.77,15.82l0-0.22l0.11,0.01l0.02,0.13
		h0.07l-0.14,0.19l0.04,0.01l-0.04,0.12l-0.21-0.19L141.77,15.82z M142.01,18.11l0.09-0.29l0.13,0.19l-0.07,0.02
		c0.23,0.08-0.01,0.44,0.25,0.49l0.25-0.11c0.29,0.21,0.35-0.13,0.57-0.23l-0.09-0.06h0.12v0.05c0.12-0.24,0.64,0.02,0.81-0.22
		l-0.22-0.1l0.15-0.2v-0.36c0.36,0.01,0.3,0.43,0.55,0.57c0.04,0.14-0.33,0.17-0.08,0.3v0.08c-0.29,0.05-0.57,0.19-0.82,0.26
		c-0.08,0.18-0.45,0.25-0.33,0.47h0.06V19c0.39,0.13,0.5-0.29,0.79-0.38l0.04-0.04l-0.03-0.04h0.14l0.02-0.11
		c0.31-0.04,0.53,0.05,0.83,0.15l0.37,0.29c0.42,0.14,0.54,0.49,0.83,0.74c0.21,0.11,0.27,0.32,0.43,0.49
		c-0.04,0.07-0.04,0.32-0.21,0.28l-0.04-0.09l-0.09,0.01l-0.03,0.06v0.02h-0.02l0.02-0.02v-0.05l0.03-0.01l-0.1-0.14
		c-0.14,0.11-0.27,0.04-0.46,0.04l0.09-0.06c-0.07-0.11-0.28-0.24-0.37-0.08l-0.24,0.13l-0.05-0.22c-0.19,0.07-0.19-0.05-0.46-0.06
		l-0.14,0.14L144.55,20l0.02,0.18l-0.26-0.11l0.05,0.24l0.06,0.19l-0.12,0.09l-0.16,0.04l0,0.19l-0.24,0.04l0.09,0.06L143.9,21
		l-0.25-0.05l-0.02-0.09h-0.07l-0.07-0.33h-0.07v-0.11c0.26,0.01-0.02-0.12,0.04-0.26h-0.13v-0.07l0.1-0.06l-0.19-0.04l-0.21,0.12
		l-0.08-0.12c-0.16,0.08-0.41,0.06-0.6,0.03l0.09-0.31c0.19,0.09,0.15-0.1,0.28-0.13V19.5l-0.21-0.01l-0.04-0.19l-0.12,0.05
		l0.1-0.13l0.05-0.05c-0.06-0.23-0.42-0.17-0.46-0.42c-0.19,0.09-0.02-0.16-0.14-0.16l-0.32-0.2
		C141.66,18.24,142.1,18.43,142.01,18.11z M141.33,20.22c-0.05-0.16,0.35-0.15,0.23,0.05c0.14,0.1,0.44,0.05,0.4,0.28
		c0.22,0.43,0.39-0.31,0.55,0.14h0.09l-0.09,0.16c0.09,0.21,0.52,0.28,0.36,0.52c-0.19-0.01-0.02,0.26-0.12,0.29
		c0,0.17,0.24,0.1,0.32,0.25l-0.27,0.04c0,0.33-0.45,0.12-0.6,0.16c0-0.19-0.3-0.12-0.23-0.34c0.19-0.11,0.33-0.3,0.39-0.5
		l0.01-0.18l-0.27,0.01l-0.12,0.1c-0.09-0.04-0.28,0.23-0.33-0.03c-0.19-0.04,0.01-0.26-0.19-0.28l0.11-0.14
		c-0.18-0.05-0.14-0.25-0.3-0.33C141.22,20.41,141.49,20.32,141.33,20.22z M141.2,22.89c0.21,0.01,0.19,0.25,0.29,0.3v0.09
		l-0.13,0.04l0.15,0.15c-0.17,0.14-0.4,0.11-0.58,0.22c-0.11-0.02-0.61,0.09-0.71-0.12c0.3,0,0.23-0.34,0.46-0.44l-0.04-0.11
		l0.04,0.07c0.19-0.01,0.25-0.18,0.49-0.13L141.2,22.89z M140.09,23.31l-0.09,0.06l0.07-0.06l-0.11-0.12l-0.03,0.01l-0.1,0.12
		l0.14,0.12l-0.26,0.25l-0.03-0.09l-0.05,0.09l-0.49-0.23c-0.22,0.11-0.04-0.22-0.22-0.18l0.18-0.13l0.31-0.34l0.04-0.25l0.23-0.23
		l0.11-0.35c0.34,0.05,0.54-0.3,0.87-0.25c0.01,0.17,0.13,0.29,0.19,0.44l-0.02,0.2c-0.24,0.04-0.41,0.26-0.57,0.36
		c-0.21,0.09-0.35,0.26-0.42,0.45l0.1,0.02l0.01-0.02l0.02,0.02l0.01-0.04l0.02,0.07l0.13-0.09l-0.04-0.12l0.19,0.22l-0.16-0.09
		l-0.03,0.15l-0.02,0.01L140.09,23.31z M140.15,16.68c0.12-0.06,0.19-0.18,0.22-0.33c0.17,0.04,0.21,0.2,0.25,0.34
		c-0.05,0.24,0.05,0.32,0.22,0.43h0.28c-0.24,0-0.12,0.53-0.42,0.26c-0.16,0.13-0.25-0.02-0.4-0.07c0.05-0.21-0.21-0.05-0.18-0.21
		l0.09-0.05C140.14,16.87,139.97,16.91,140.15,16.68z M140.05,17.43l0.15,0.28c-0.23,0.05-0.31,0.28-0.55,0.18
		C139.93,17.88,139.66,17.05,140.05,17.43z M139.43,20.99l0.1-0.28c0.25-0.06,0.39,0.1,0.56,0.17c-0.02,0.11,0.19,0.21,0,0.28
		c0.17,0.15-0.04,0.24-0.12,0.3c-0.2,0.15-0.59,0.29-0.74,0.26l0.04-0.16C139.14,21.42,139.35,21.17,139.43,20.99z M138.48,22.23
		c-0.04-0.18,0.19-0.09,0.24-0.2l0.58,0.01c-0.01,0.3,0.04,0.66-0.26,0.78h-0.07l0.04,0.16h-0.07l0.05-0.04
		c-0.24,0.12-0.26-0.18-0.32-0.29l0.05-0.05l-0.23-0.22l0.09-0.13L138.48,22.23z M138.32,23.2v-0.12c0.15,0.06,0.28,0.05,0.36,0.22
		l-0.14,0.13l0.14,0.14h-0.28l-0.2-0.29L138.32,23.2z M138.22,24.04c0.37,0.01,0.64-0.2,1.07-0.12l0.07,0.09h-0.03
		c0.26,0.15-0.15,0.26-0.11,0.41c-0.08,0.17-0.19,0.15-0.36,0.19l-0.02,0.05l-0.14-0.04l-0.01,0.08l-0.13-0.03v0.03
		c-0.16,0-0.18-0.08-0.44-0.06l-0.02-0.05l-0.07,0.02l-0.18-0.08C138.1,24.45,137.92,24.1,138.22,24.04z M134.6,28.47l0.03,0.05
		c0.18-0.14,0.33-0.31,0.63-0.27v0.16l0.03,0.04l-0.01,0.15c-0.15,0.09-0.38,0.29-0.58,0.13h-0.17L134.6,28.47z M134.19,28.33
		c0,0.17,0.11,0.17,0.07,0.31l-0.18-0.01l-0.03-0.16l-0.12,0.02l0.05,0.08c-0.13-0.03-0.43-0.18-0.5-0.37
		C133.77,28.17,133.91,28.34,134.19,28.33z M132.68,28.34l0.29,0.22v-0.28l0.2,0.1l0,0.09l-0.08,0.02l0.08,0.12h-0.29
		c-0.07-0.01-0.09-0.18-0.25-0.15L132.68,28.34z M135.16,30.3l-0.06-0.05l0.17-0.11l-0.06-0.16c-0.08-0.1-0.06,0.16-0.11-0.01
		l-0.23,0.24l-0.43,0.03c0.1,0.19-0.16,0.1-0.18,0.19c-0.3-0.09-0.44,0.22-0.67-0.01c0.05-0.41,0.62-0.22,0.85-0.5l-0.05-0.31
		l-0.17,0.07l-0.06-0.05v-0.08h0.04l-0.02-0.15l-0.14,0.06l-0.05-0.06c-0.09,0.23-0.48,0-0.61,0.18l-0.24-0.18l0.05-0.01l-0.02-0.09
		l-0.08,0.01l-0.13-0.13l0.09-0.19c-0.11-0.17-0.35,0.09-0.32-0.17c0.21-0.11,0.58,0.01,0.79-0.1c0.51,0.22,1.06,0.43,1.79,0.34
		c0.11,0.16,0.11,0.4,0.22,0.51c-0.11,0.21,0.09,0.38,0.05,0.62l0.12,0.06C135.57,30.36,135.35,30.28,135.16,30.3z M136.03,30.65
		l-0.02,0.01L136,30.79c-0.14,0.07-0.27,0.11-0.3,0.27c-0.18,0.07-0.06-0.3-0.22-0.14c-0.11-0.36,0.3-0.19,0.53-0.26v-0.01H136
		v-0.03h0.03l-0.02,0.03H136.03z M137.88,29.52c0.09,0.16,0.24,0.09,0.36,0.09l-0.09,0.04v-0.03l-0.2,0.15l0.11,0.03l-0.04,0.06
		c0.16,0.05-0.09,0.08,0.02,0.15h0.05c0.02,0.19-0.25,0.11-0.21,0.32c-0.17,0.09-0.16-0.14-0.27-0.04l0.1,0.13l-0.23-0.06
		c0.08-0.16,0.45-0.17,0.27-0.42h-0.16v-0.03c-0.07-0.07-0.23,0.14-0.37-0.02l0.32-0.18l-0.14-0.1c-0.14-0.01-0.39,0.2-0.59,0.36
		l-0.21,0.18c-0.08-0.12-0.2-0.27-0.36-0.28l-0.09,0.01c0.05-0.17-0.01-0.27-0.1-0.43h-0.08l0.05-0.05
		c-0.23-0.08,0.03-0.25-0.07-0.31l-0.12-0.31l0.05-0.03l-0.08-0.17h0.01l-0.06-0.49l-0.04-0.29l0.4-0.04
		c0.08,0.05-0.01,0.29,0.18,0.25c0.11,0.36,0.36,0.64,0.29,1.08c0.08,0.12,0.32-0.07,0.27,0.14c0.41,0.14,0.67-0.04,0.88-0.29
		c0.22,0.1,0.29-0.16,0.45,0l0.15,0.22C138.3,29.47,137.93,29.33,137.88,29.52z M138.62,25.56c-0.21,0.06-0.14,0.38-0.47,0.23
		l-0.07-0.08l-0.22,0.14l0.23-0.38h-0.02l0.09-0.17l0.05-0.02h-0.14c0.16-0.11-0.09-0.17,0.01-0.35c0.34,0.09,0.81,0.11,1.18,0.02
		c0.16-0.19,0.54-0.14,0.59-0.46l0.07-0.26l0.01,0.02c0.12-0.41,0.68-0.06,1.03-0.17l0.13,0.17l0.27,0.09
		c0.08,0.17,0.38,0.22,0.27,0.52l-0.4,0.21l-0.02-0.04c-0.19,0.2-0.62,0.19-0.89,0.45c-0.23-0.01-0.35,0.21-0.54,0.27
		c0.02-0.11,0.32-0.04,0.17-0.28l-0.07,0.04l-0.08-0.09l-0.16,0.04l0.05-0.04l-0.15-0.04l0,0.11l-0.09,0.01l-0.41-0.13l-0.06,0.22
		L138.62,25.56z M139.33,69.08l-0.13-0.01c0.08-0.17-0.16-0.04-0.17-0.17l-0.09-0.33l0.14-0.14c0.19,0.03,0.17,0.22,0.39,0.14
		l0.02-0.07v0.07l-0.02,0C139.45,68.76,139.63,69.02,139.33,69.08z M140.24,69.64l-0.07-0.01l-0.16-0.14l-0.12,0.01v0.09l-0.13-0.1
		l0.05,0.29l-0.23-0.17c-0.02-0.15,0.25-0.27,0.1-0.44l0.05-0.23c0.1,0.23,0.53,0.12,0.55,0.44l0.17-0.12l0.01,0.23
		C140.41,69.58,140.18,69.46,140.24,69.64z M140.65,68.54l-0.17-0.41l0.09-0.01l-0.09-0.15h-0.04v0.09l-0.16-0.09l0.03-0.01
		c-0.2-0.28-0.18,0-0.11-0.38c0.19-0.1,0.19-0.57,0.49-0.42l0.31,0.16l0.03-0.01l0.05,0.02h0.08l0.03,0.09l-0.1-0.09l-0.08-0.01
		l0.01,0.25l-0.12,0.02c0.23,0.14-0.22,0.18,0.06,0.26l0.33-0.07c-0.01,0.21-0.23,0.35-0.07,0.58l0.07-0.06
		C141.14,68.56,140.92,68.54,140.65,68.54z M141.64,69.06l-0.08,0.09v0.09c-0.07,0.1-0.33-0.07-0.29,0.14h-0.03
		c-0.06-0.24,0.38-0.15,0.18-0.41l-0.16-0.17l-0.23,0.02c-0.02-0.18,0.25,0.03,0.23-0.15c0.1-0.06,0.01-0.28,0.19-0.24l-0.06,0.28
		l0.31-0.14C141.77,68.76,141.59,68.85,141.64,69.06z M141.69,64.37c0.04-0.19,0.51-0.06,0.3-0.41h-0.06l0.14-0.15l-0.41-0.1
		l0.17-0.14l-0.23-0.02c0.11-0.24-0.17-0.07-0.22-0.21l0.27-0.12c-0.07-0.16-0.27-0.05-0.42-0.08c0.14-0.07,0.42-0.01,0.42-0.25
		l0.12,0.01l-0.05,0.25l0.28-0.11c-0.1,0.14-0.23,0.18-0.24,0.39c0.18,0.15,0.21-0.11,0.35-0.14l0.3,0l-0.08,0.1
		c0.14,0.17,0.4,0.05,0.57,0.04l0.12-0.12c-0.08,0.37-0.58,0.37-0.69,0.7l0.37-0.01l0.04,0.27c0.16,0.14,0.36-0.05,0.53,0.04
		c0.12-0.1,0.23-0.29,0.42-0.33V64c0.33-0.03,0.3,0.43,0.7,0.31c0.08,0.33,0.45-0.04,0.51,0.27c0.2,0.06,0.17-0.13,0.29-0.19V64.3
		l0.54,0.03c-0.19,0.11,0.1,0.17-0.1,0.26c0.2,0.19-0.05,0.46,0.09,0.56l-0.13,0.4l-0.01-0.11c-0.19,0.01,0,0.15-0.1,0.25h-0.02
		l-0.03-0.25l-0.11-0.01l-0.12-0.13l-0.12,0.01l0.04,0.12c-0.16-0.03-0.3-0.06-0.32-0.19c-0.23-0.02-0.01-0.59-0.3-0.31L144.46,65
		l-0.11-0.15c0,0.2-0.26,0.12-0.3,0.26H144l-0.02-0.18l-0.26,0.18l-0.17-0.12l-0.1,0.01v0.09l-0.1-0.11l-0.21,0.08v0.05l-0.15-0.14
		l-0.17,0.17l0.02,0.23h-0.09l-0.27-0.26l-0.07,0.12l0.07,0.03v0.1c-0.19-0.02-0.4-0.19-0.46-0.38l0.19-0.28l-0.22-0.07l0.18-0.09
		c-0.04-0.17-0.25-0.17-0.41-0.17H141.69z M145.68,69.78c-0.03,0.27-0.15,0.52-0.41,0.58c-0.04-0.15-0.23-0.04-0.29,0l-0.04-0.25
		l-0.2-0.04c-0.21,0.12-0.03,0.43-0.29,0.49l-0.16,0.11l0.13-0.27l-0.25-0.13v-0.47l-0.23-0.12l-0.02,0.16l-0.22-0.02v0.14
		l-0.1-0.01l0.06-0.09l-0.2,0.04l-0.02,0.05l0.08,0.03l-0.03,0.06l-0.3-0.13l-0.03,0.19c-0.21,0.01-0.29-0.04-0.41-0.14
		c-0.23,0.18,0.01,0.33-0.28,0.42c-0.17-0.04-0.14-0.33-0.39-0.29v-0.12l0.14-0.11l-0.05-0.17l0.06-0.25l-0.32-0.03l0.21-0.18
		l0.22-0.07c0.05,0.26,0.4,0.1,0.36,0.4l0.25-0.04l-0.06-0.14l0-0.23h0.07c0.05,0.21,0.14-0.02,0.26,0l0.54,0.03
		c0.08,0.17,0.18,0.22,0.3,0.36l0.27-0.09l0.05,0.24l0.25-0.01l0.14-0.07v0.09l0.25-0.15l-0.02-0.09l0.2,0.03
		c0.04-0.21,0.34-0.16,0.51-0.14l0.14,0.09L145.68,69.78z M145.88,59.95l0.08,0c-0.14,0.39-0.24,0.99-0.28,1.23
		c-0.25-0.22-0.61,0-0.94-0.11l-0.01-0.12l-0.16,0.27l-0.11-0.01l0.09-0.1l-0.11-0.17h-0.04c0.04-0.14,0.37-0.16,0.21-0.39
		l-0.28-0.02c0.07-0.17-0.04-0.15-0.14-0.22l0.26-0.04l0.14,0.06l0.24-0.05l0.01,0.05c0.17,0.06,0.17-0.05,0.28-0.1
		c0.05-0.16-0.15-0.07-0.19-0.15c0.07-0.09,0.12-0.23,0.14-0.4l-0.14-0.13l-0.04,0.02l0.09-0.07l-0.09-0.03
		c-0.01-0.04,0-0.26-0.17-0.23l0.04-0.37l-0.2-0.07l0.17-0.11l0.08-0.11l0.17-0.3h-0.03V58.2c0.18,0,0.38,0.03,0.56-0.01
		c-0.16,0.02-0.18-0.13-0.38-0.08l-0.01-0.06l-0.06,0.02l-0.03-0.02l-0.08,0.06l-0.06-0.08h-0.07v-0.1l0.24-0.01l-0.23-0.03
		c-0.06-0.2,0.3-0.19,0.16-0.4c0-0.08,0.17-0.21,0-0.27l0.02-0.14c-0.18-0.09-0.39,0.07-0.55,0.06l0.12-0.17
		c-0.12-0.04-0.04-0.29-0.23-0.33c-0.12-0.01-0.08-0.45-0.27-0.17l-0.16-0.03l0.05-0.29l-0.19,0.06l0.02-0.14l-0.18,0.05v0.09
		c-0.12-0.07-0.33,0.07-0.53,0.01l-0.03,0.12l-0.36,0.13l-0.07-0.25l-0.12,0.06l-0.22,0.19l-0.03-0.06c-0.06,0.17-0.23,0-0.38,0.06
		v-0.09l0.28-0.04l-0.04-0.1c0.14-0.04,0.4,0.05,0.43-0.15c-0.08-0.06-0.08-0.19-0.25-0.14c0.08-0.23,0.41-0.02,0.43-0.25l-0.38-0.1
		c0.02-0.15,0.32,0.03,0.28-0.21c0.28,0.03,0.63-0.02,0.79,0.14l0.95,0.06c0.11,0.18,0.37,0.18,0.52,0.28h0.17v0.09
		c0.35-0.02,0.53,0.17,0.83,0.18c-0.02,0.34-0.17,0.62-0.19,0.95l-0.11,0.28h-0.01c-0.12,0.09,0.07,0.28,0.03,0.46h0.07
		c0.06,0.17,0.04,0.49,0.2,0.56c0.03,0.16,0.05,0.26,0.11,0.34C145.78,59.02,145.89,59.56,145.88,59.95z"/>
	<path fill="#FE5000" d="M108.79,111.7l0.01-9.46l-29.59-0.02l-0.03,28.52l29.58,0.03l0.01-10.75l14.21,2.84l-0.01,6.74
		c-0.01,9.62-3.35,12.71-13.8,12.71l-30.39-0.02c-5.42-0.01-8.61-0.8-10.69-2.64c-2.19-1.94-3.12-4.97-3.12-10.1l0.03-25.71
		c0.01-9.61,3.35-12.7,13.77-12.7l30.43,0.02c5.42,0,8.61,0.79,10.69,2.63c2.19,1.95,3.12,4.97,3.11,10.09l-0.01,5.66L108.79,111.7z
		 M180.84,103.9l-0.03,25.71c-0.01,9.62-3.35,12.71-13.75,12.71l-30.31-0.02c-10.46-0.02-13.82-3.11-13.81-12.74l0.03-25.71
		c0.01-9.62,3.35-12.7,13.76-12.7l30.3,0.02C177.49,91.18,180.85,94.28,180.84,103.9z M166.63,102.24l-29.44-0.02l-0.02,28.51
		l29.45,0.04L166.63,102.24z M226.18,110.15l-30.58-0.02l0.01-8.11l30.97,0.03l-0.01,5.88l12.84-2.89v-1.99
		c0.01-4.6-1.06-7.6-3.34-9.43c-2.14-1.71-5.26-2.45-10.45-2.45l-28.95-0.02c-10.43,0-13.79,3.08-13.79,12.7l-0.01,5.39
		c0,5.13,0.93,8.15,3.12,10.09c2.09,1.84,5.28,2.63,10.7,2.65l30.57,0.02l-0.01,8.77l-33.62-0.04v-6.02l-12.85,2.55v2.29
		c-0.01,9.62,3.37,12.72,13.92,12.74l31.53,0.01c10.48,0,13.84-3.09,13.86-12.7v-6.71C240.08,113.26,236.71,110.18,226.18,110.15z"
		/>
	<path fill="#001489" d="M109.18,141.13L109.18,141.13l-0.02-1.2l-30.38-0.02c-4.79-0.01-7.51-0.61-9.12-2.03
		c-1.61-1.43-2.32-3.99-2.32-8.32l0.02-25.7c0.01-8.3,2.25-10.33,11.45-10.33l30.38,0.03c4.79,0,7.51,0.61,9.11,2.03
		c1.61,1.43,2.32,4.01,2.32,8.32v3.61l-9.46,1.43l0-9.07l-34.33-0.02l-0.03,33.27l34.34,0.04l0.01-10.23l9.45,1.89l-0.01,4.79
		c0,8.3-2.24,10.33-11.43,10.33V141.13z M167.06,141.13L167.06,141.13l-0.08-1.2l-30.23-0.02c-9.2-0.01-11.45-2.04-11.43-10.36
		l0.03-25.71c0-8.29,2.23-10.32,11.43-10.32l30.25,0.03c9.19,0.02,11.44,2.04,11.43,10.35l-0.03,25.71c0,8.3-2.23,10.33-11.37,10.33
		V141.13z M168.98,133.15l0.03-33.28l-34.2-0.02l-0.03,33.26L168.98,133.15z M226.22,139.93c9.11,0,11.47-2.12,11.48-10.32v-6.71
		c0.01-8.22-2.36-10.34-11.53-10.35l-32.95-0.03l0.02-12.86l35.71,0.03v5.28l8.08-1.82v-0.08c0.01-3.87-0.76-6.2-2.46-7.57
		c-1.66-1.34-4.43-1.94-8.97-1.94l-28.9-0.03c-9.2,0-11.45,2.03-11.45,10.33l-0.01,5.39c-0.01,4.32,0.72,6.88,2.33,8.31
		c1.6,1.43,4.32,2.03,9.11,2.04l32.95,0.03l-0.02,13.53l-38.37-0.04v-5.51l-8.09,1.61v0.35c-0.01,8.21,2.36,10.33,11.55,10.35
		l31.46,0.02l0.07,1.19l0,0V139.93z"/>
	<path fill="#001489" d="M2.93,166.78v7.31h7.24v-2.48l2.68,0.56v1.37c0,2.17-0.69,2.72-2.86,2.72H3.11c-2.17,0-2.86-0.55-2.86-2.72
		v-6.08c0-2.17,0.69-2.73,2.86-2.73h6.88c2.17,0,2.86,0.56,2.86,2.73v1.1l-2.68,0.42v-2.19H2.93z M18.78,164.72h8.49
		c2.17,0,2.86,0.56,2.86,2.73v6.08c0,2.17-0.69,2.72-2.86,2.72h-8.49c-2.17,0-2.86-0.55-2.86-2.72v-6.08
		C15.91,165.28,16.61,164.72,18.78,164.72z M27.45,174.08v-7.31h-8.85v7.31H27.45z M33.55,164.72h2.68v9.36h8.65v2.16H33.55V164.72z
		 M46.57,164.72h2.68v9.36h8.65v2.16H46.57V164.72z M59.6,164.72h11.8v1.96h-9.12v2.57h5.32v1.97h-5.32v2.86h9.23v2.16H59.6V164.72z
		 M76.67,166.78v7.31h8.38v-2.57h-4.38v-1.97h6.99v3.98c0,2.17-0.69,2.72-2.86,2.72h-7.96c-2.17,0-2.86-0.55-2.86-2.72v-6.08
		c0-2.17,0.69-2.73,2.86-2.73h7.96c2.1,0,2.86,0.54,2.86,2.61c0,0.09,0,0.18,0,0.27l-2.61,0.47v-1.29H76.67z M91.11,164.72h11.8
		v1.96h-9.12v2.57h5.32v1.97h-5.32v2.86h9.23v2.16H91.11V164.72z M113.55,166.8h7.31c1.86,0,2.46,0.42,2.46,2.23v4.98
		c0,1.79-0.6,2.23-2.46,2.23h-7.31c-1.88,0-2.46-0.44-2.46-2.23v-4.98C111.09,167.22,111.69,166.8,113.55,166.8z M121.01,174.44
		v-5.9h-7.62v5.9H121.01z M125.05,166.8h10.03v1.69h-7.71v2.46h4.16v1.76h-4.16v3.53h-2.32V166.8z M147.15,176.25h-2.3v-7.75h-4.56
		v-1.69h11.44v1.69h-4.58V176.25z M152.47,166.8h2.32v3.6h7.2v-3.6h2.3v9.45h-2.3v-3.97h-7.2v3.97h-2.32V166.8z M166.28,166.8h10.14
		v1.67h-7.82v2.06h4.56v1.63h-4.56v2.32h7.93v1.76h-10.26V166.8z M187.33,166.73v2.48h7.2c2.17,0,2.88,0.56,2.88,2.73v1.59
		c0,2.17-0.72,2.72-2.88,2.72h-7.13c-2.17,0-2.88-0.55-2.88-2.72v-0.31l2.37-0.49v1.36h8.16v-2.64h-7.2c-2.17,0-2.86-0.56-2.86-2.72
		v-1.28c0-2.17,0.69-2.73,2.86-2.73h6.55c2.06,0,2.86,0.54,2.86,2.52v0.25l-2.37,0.56v-1.32H187.33z M200.74,164.72h11.8v1.96h-9.12
		v2.57h5.32v1.97h-5.32v2.86h9.23v2.16h-11.91V164.72z M217.99,164.72h8.49c2.17,0,2.86,0.56,2.86,2.73v6.08
		c0,2.17-0.69,2.72-2.86,2.72h-1.25l1.45,2.98h-2.66l-1.3-2.98h-4.74c-2.17,0-2.86-0.55-2.86-2.72v-6.08
		C215.13,165.28,215.82,164.72,217.99,164.72z M221.77,174.08l-1.07-2.5l1.94-0.79l1.56,3.29h2.46v-7.31h-8.85v7.31H221.77z
		 M235.44,174.08h7.64v-9.36h2.68v8.81c0,2.17-0.69,2.72-2.86,2.72h-7.29c-2.17,0-2.86-0.55-2.86-2.72v-8.81h2.68V174.08z
		 M252.05,164.72h8.49c2.17,0,2.86,0.56,2.86,2.73v6.08c0,2.17-0.69,2.72-2.86,2.72h-8.49c-2.17,0-2.86-0.55-2.86-2.72v-6.08
		C249.18,165.28,249.88,164.72,252.05,164.72z M260.72,174.08v-7.31h-8.85v7.31H260.72z M266.82,164.72h2.68v11.53h-2.68V164.72z
		 M277.47,164.72h2.59l6.61,11.53h-3.01l-1.39-2.52h-7.31l-1.34,2.52h-2.68L277.47,164.72z M281.16,171.64l-2.48-4.69l-2.57,4.69
		H281.16z M290.18,166.73v2.48h7.19c2.17,0,2.88,0.56,2.88,2.73v1.59c0,2.17-0.72,2.72-2.88,2.72h-7.12c-2.17,0-2.89-0.55-2.89-2.72
		v-0.31l2.37-0.49v1.36h8.15v-2.64h-7.19c-2.17,0-2.86-0.56-2.86-2.72v-1.28c0-2.17,0.69-2.73,2.86-2.73h6.54
		c2.06,0,2.86,0.54,2.86,2.52v0.25l-2.37,0.56v-1.32H290.18z"/>
</g>
</svg>
