<svg xmlns="http://www.w3.org/2000/svg" height="494.1" viewBox="0 0 238 494.09543" width="238"><g transform="matrix(1.25 0 0 -1.25 -11.2 734.8)"><g><path d="m9.6719 306.08 30.53 31.197v248.88l142.11-145.21c9.8753-10.094 15.332-23.51 15.363-37.784v-116.32c0-8.9818-3.4148-17.433-9.6183-23.798l-67.98-69.78-110.4 112.81z" fill="#faffff"/><path d="m170.26 428.63-113.01 115.48v-214.04l-23.469-23.981 86.267-88.147 55.933 57.404c2.9783 3.0558 4.651 7.1948 4.651 11.509v116.28c-0.0204 9.5693-3.7494 18.739-10.371 25.505m-36.115-161.14-40.807 41.698 5.7281 5.8526c2.9946 3.0599 4.6755 7.2091 4.6755 11.534v112.57l30.403-31.064v-140.59z" fill="#041e42"/></g></g></svg>
