<svg xmlns="http://www.w3.org/2000/svg" height="203.93" width="238.1" viewBox="0 0 238.09688 203.92999"><g><path fill="#b2b2b2" d="m233.3 43.144-3.4619-2.0556c-1.2631-0.74375-30.868-18.06-71.469-25.96-3.14-3.85-7.56-6.1524-12.68-6.5555-0.21-0.0144-0.45-0.0225-0.73-0.0225-1.485 0-6.4769 0.24001-10.232 3.2294l-2.1719-0.11625-2.3188-0.12-0.59499-0.035-0.62126-0.03437-0.0344 0.0025c-3.3131-0.16689-6.5731-0.25439-9.7131-0.25439-6.2288 0-10.838 0.11562-16.725 0.68812-3.745-4.4863-7.231-6.585-9.961-7.93-1.3956-0.68625-4.3031-1.8438-8.0194-1.8438-4.9862 0-9.5175 2.0806-13.102 6.0206-2.8506 3.1219-3.8656 6.6406-4.2262 9.8781l-0.45438 0.11625-0.36062 0.09563c-33.651 8.7531-56.746 22.278-57.714 22.842l-3.4638 2.0556-3.02 1.7806 0.36062 3.4944 0.41375 3.9975c0.10812 1.0963 2.9094 27.116 17.991 58.26 13.971 28.855 41.582 67.81 93.764 89.51l2.4188 1.0025 2.0981 0.87625 2.1069-0.87625 2.4125-1.0025c11.21-4.66 21.91-10.404 31.805-17.069l3.2494-2.1962-0.0569-0.22438c0.44 0.1 0.87813 0.22438 1.31 0.3625 0.18938 0.0575 0.39313 0.10813 0.58875 0.15936l0.0775 0.0281c1.6056 0.42999 3.3638 0.66062 5.2388 0.67687 0.0894 0 0.17938 0.007 0.26875 0.007 0.32 0 0.65188-0.0125 0.98813-0.0206 5.1244-0.19124 10.784-1.8294 16.84-4.8675l1.9375-0.97375 0.74562-2.0256 1.82-4.9388c0.32376-0.78438 0.98814-2.6506 1.155-3.1238 0.35438-1.0388 0.80876-2.2719 1.3344-3.6694 0.21438-0.55 0.42813-1.0944 0.63562-1.6362 6.9056-2.0925 11.985-9.6619 14.01-16.426 0.81938-2.7544 1.2081-5.7231 1.3981-7.8056 2.9906-2.7262 4.4925-6.0144 5.1769-7.9525l0.3075-0.90062-0.006-0.95313c-0.01-1.9238-0.29751-3.5312-0.87625-4.9025l0.78-1.3056-0.01-0.0819c3.8-6.8438 7.2231-13.965 10.188-21.185 10.628-25.866 12.771-45.901 12.855-46.748l0.41626-3.9931 0.35438-3.4988-3.0219-1.7806z"/><path fill="#039" d="m230.1 51.865c-0.0837 0.80874-2.1519 20.1-12.459 45.214-2.7912 6.7788-6.3612 14.365-10.884 22.322v0.005c-1.1019 1.8619-1.9338 3.1475-1.9338 3.1475s1.2962 0.0369 1.8256 1.1944c0.37125 0.81874 0.48749 1.9294 0.48749 2.9319-0.57875 1.6525-2.0644 4.9044-5.32 6.95 0 0-0.1125 4.9875-1.3244 9.0525-1.7175 5.7356-5.9456 11.677-10.75 12.859-0.265-1.0312-0.40938-2.2575-0.33188-3.6738 0 0-1.8012 4.2256-3.4356 8.4925-0.505 1.32-4.3275 11.787-4.3275 11.787-6.0288 3.0294-10.901 4.15-14.595 4.2906-0.26313 0.0125-0.52813 0.0125-0.78063 0.0125h-0.10625c0.24063 0 0.48751 0 0.74001-0.0125-1.885 0.0594-3.4619-0.14437-4.7088-0.4825-0.15062-0.0431-0.31374-0.0837-0.45437-0.1225-4.305-1.3569-8.435-1.2569-8.435-1.2569-1.1025-1.4181-2.5-2.9506-4.1219-4.5619 1.9356 3.8894 2.9131 6.925 3.3575 8.5575-9.5662 6.4425-19.935 12.021-30.852 16.56l-2.4206 1.0006-2.4125-1.0006c-50.592-21.042-77.38-58.842-90.94-86.845-14.654-30.259-17.365-55.365-17.471-56.416l-0.414-4.006 3.464-2.05c0.93688-0.55189 23.716-13.786 56.308-22.264 0.11625-0.02812 0.22625-0.06312 0.34438-0.08938 2.555 2.8894 2.28 7.0762 2.28 7.0762 4.4294-3.0256-0.56-12.508 5.0819-18.686 5.55-6.09 12.161-4.1744 14.652-2.9519 2.4531 1.21 5.9619 3.2231 9.9125 8.7875 7.3212-0.8375 12.131-0.98188 19.191-0.98188 3.0669 0 6.2612 0.08125 9.495 0.2525l0.53812 0.02875 0.0162-0.0062 0.61689 0.04062 2.3231 0.1225c-0.22813 1.1263-0.81313 2.6975-2.2212 4.3112-0.42125 0.48499-0.91064 0.9675-1.4812 1.4425 0 0 1.7506 0.44 3.9675-0.85375 1.3244-0.77625 1.9762-0.95375 3.5694-3.6188 0.0794-0.13 1.1125-1.5569 1.8094-2.1681 2.5369-2.2144 6.8131-2.2631 7.3512-2.2144 4.9025 0.385 8.0525 2.9969 9.9412 6.0675 40.67 7.4962 70.372 24.835 71.856 25.705l3.4638 2.05-0.41563 4.0056z"/><path d="m107.83 27.281c-0.58 0.012-1.13 0.036-1.63 0.076 0.35 0.516 0.72 1.04 1.12 1.594 5.6 7.736 16.15 19.156 16.15 19.156-11.2-5.81-22.59-1.498-27.158 0.735-1.312 0.645-2.076 1.121-2.076 1.121 14.614-2.636 24.684 3.592 24.684 3.592-0.29 0.061-3.75 0.601-7.02 2.359-0.74 0.402-1.48 0.857-2.17 1.389-6.35 4.958-5.59 16.324-5.56 16.693 0.33 4.445 1.68 9.289 3.98 14.211 4.25 9.101 10.72 13.713 16.75 16.073 1.89 0.72 3.72 1.24 5.44 1.6 1.38 0.28 2.67 0.47 3.85 0.6 2.04 0.21 3.72 0.23 4.82 0.23 0.56-0.03 1.13-0.06 1.73-0.08h0.05l-0.01 0.01c-0.01 0.01-0.02 0.02-0.02 0.03-0.03 0.02-0.07 0.05-0.13 0.09h0.03l0.26-0.07-0.01 0.01c-0.01 0.01-0.03 0.02-0.07 0.05-0.01 0.01-0.01 0.02-0.03 0.03-0.28 0.23-1.05 0.91-1.91 2.01-0.13 0.16-0.26 0.33-0.38 0.51-0.35 0.48-0.71 1.03-1.04 1.65-1.17 2.13-2.1 5.02-1.77 8.62 0.13 1.42 0.45 2.95 1.03 4.59 0.17 0.46 0.36 0.95 0.57 1.44 0.1 0.25 0.22 0.5 0.34 0.75 0.58 1.25 1.32 2.55 2.23 3.9 0 0-0.11-0.01-0.31-0.04-0.17-0.04-0.4-0.09-0.69-0.17-0.07-0.02-0.15-0.04-0.24-0.07-0.03-0.01-0.08-0.02-0.12-0.03-0.12-0.05-0.25-0.09-0.38-0.13-0.12-0.05-0.27-0.1-0.4-0.15-0.33-0.13-0.67-0.28-1.04-0.46-0.1-0.05-0.2-0.1-0.31-0.16-0.3-0.16-0.62-0.33-0.94-0.54-0.1-0.06-0.2-0.13-0.3-0.19-1.94-1.28-4.14-3.37-5.9-6.81 0 0.01 0.49 10.15 11.29 16.25 0.25 0.15 0.52 0.28 0.79 0.41 0.5 0.27 1.03 0.53 1.58 0.78 0.23 0.11 0.47 0.22 0.73 0.33 0 0-1.35 0.14-3.35 0.1-0.91-0.03-1.95-0.09-3.06-0.22 0.44 0.51 0.91 1.02 1.44 1.53 0.54 0.51 1.12 1.03 1.78 1.56s1.38 1.09 2.19 1.67c0.81 0.57 1.7 1.18 2.68 1.82 5.46 3.14 15 6.25 19.59 6.29 9.99 0.1 14.08-1.89 18.52-3.43 1.06-0.37 1.84-0.63 2.42-0.86 0.27-0.11 0.5-0.21 0.69-0.3 0.24-0.13 0.43-0.25 0.58-0.39 0.16-0.15 0.31-0.3 0.48-0.46 0.3-0.34 0.61-0.71 0.91-1.11 0.45-0.59 0.89-1.26 1.3-2.01 0.15-0.24 0.28-0.49 0.42-0.75 1.19-2.35 2.17-5.24 2.67-8.38-0.4-0.18-0.82-0.38-1.27-0.61-0.29-0.15-0.59-0.31-0.9-0.49-0.2-0.11-0.41-0.23-0.63-0.37-0.86-0.51-1.77-1.11-2.75-1.84-1.21-0.9-2.5-1.97-3.87-3.25 0-0.01-1.09-20.52-15.1-28.813 0 0 2.54-0.235 5.58 0.537-2.38-3.649-4.75-6.314-6.25-7.504-0.01 0-0.01-0.004-0.01-0.004h-0.01s-5.42 0.894-9.06 4.424c-1 0.964-1.86 2.121-2.44 3.514 0 0-5.48-4.106-7.33-11.438-0.51-2.003-1.13-6.212-1.46-8.166-0.39-2.416-1.43-4.149-2.14-5.314-1.37-2.256-4.12-3.377-4.12-3.377 0.08-0.141 0.32-0.705 0.35-1.406 0.07-2.131-0.89-4.224-1.72-6.186-0.37-0.862-1.68-3.182-1.68-3.182 0.09 0.076 0.21 0.172 0.33 0.27 0.9 0.717 2.54 1.975 4.18 3.234 0.06 0.049 9.19 6.651 11.79 8.391 2.6 1.742 8.48 5.18 15.22 7.996 1.79 0.756 6.66 2.49 11.9 2.822 0 0-3.04 2.825-0.09 12.256 0.6 2.015 1.43 3.944 1.99 5.536 0.02 0 0.02 0.01 0.02 0.02 0.36 1.03 0.69 2.05 1.04 3 4.1 11.44 4.98 18.1 4.99 18.14-0.06 0.01-0.17 0.03-0.31 0.07-0.18 0.05-0.41 0.11-0.69 0.18-0.07 0.02-0.16 0.05-0.24 0.07-0.14 0.04-0.27 0.08-0.43 0.12 0 0 0.06 0.13 0.24 0.28 1.09 0.91 2.24 1.45 5.22 1.7h-0.01c4.27 0.36 6.88-0.75 7.19-0.87-0.01-0.25-0.02-0.51-0.03-0.77-0.09-1.67-0.33-3.76-0.86-6.24-0.5-2.39-1.01-4.64-1.54-6.78-2.59-10.601-5.29-18.191-7.19-22.885-0.55-1.361-1.05-2.484-1.44-3.356-0.42-1.056-0.73-1.742-0.87-2.072-0.06-0.141-0.1-0.227-0.1-0.227s1.29-1.99 1.6-4.109c0.08-0.522 0.09-1.047 0.02-1.555-0.15-1.025-0.62-2.088-1.06-2.83-0.84-1.363-2.17-2.842-3.87-4.439-0.68-0.64-6.52-5.539-7.48-6.299-2.4-1.905-5-3.949-7.69-6.137-4.79-3.914-8.21-6.831-11.43-9.537-2.41-2.018-12.55-9.237-16.96-11.686-2.26-1.245-11.09-5.852-23.19-7.302-0.78-0.097-6.43-0.646-10.51-0.565zm-36.391 9.766c-5.348-0.052-11.521 1.82-12.835 2.238-0.129 0.037-0.214 0.07-0.247 0.08-0.146 0.051-1.132 0.382-2.412 0.821-1.742 0.593-4.025 1.372-5.545 1.908-0.22 0.081-0.435 0.158-0.625 0.226-0.443 0.16-6.28 2.374-8.373 3.201-0.157 0.057-0.29 0.118-0.4 0.165-0.165 0.065-0.343 0.135-0.516 0.205-3.135 1.295-7.87 3.403-9.912 4.326-0.564 0.254-0.933 0.415-0.998 0.447-3.355 1.573-6.065 2.948-8.031 3.975 0.037 0.208 0.921 3.955 2.469 9.795 2.139 7.645 5.185 16.995 9.164 25.601 6.055 13.105 16.238 24.375 28.371 31.975 2.147 1.35 4.349 2.57 6.592 3.68 1.51 0.74 3.026 1.42 4.57 2.04 7.704 3.11 15.865 4.77 24.037 4.61-0.538-0.55-1.026-1.1-1.436-1.66-2.913-3.96-4.744-10.03-3.88-16.62 0.012-0.08 0.024-0.15 0.035-0.23 0.297-2.14 0.881-4.32 1.803-6.51 0.22-0.52 0.449-1.03 0.712-1.55 0.012-0.02 0.019-0.05 0.041-0.08 0.151-0.31 0.306-0.61 0.473-0.93-14.268 5.48-10.769 21.46-10.769 21.46-0.479-0.49-12.427-6.7-14.581-20.7-0.046-0.34-0.103-0.68-0.144-1.02v-0.01c-1.404-12.131-1.59-13.421-10.658-20.24 0 0 2.121-1.222 4.25-3.652 1.998-2.287 3.999-5.634 4.256-10.041v-0.004c0.297-5.215 0.735-9.636 1.314-13.395 0-0.022 0-0.058 0.006-0.084 0.214-0.849 0.466-1.713 0.758-2.588 1.485-4.352 4.102-8.812 8.717-11.56 0.914-0.545 1.918-1.031 3-1.426 1.09-0.398 2.264-0.713 3.531-0.93 0 0-5.372-3.095-11.68-3.486-0.347-0.022-0.7-0.034-1.057-0.037zm82.041 41.742c0.02 0.463 0.06 0.916 0.1 1.344 0.29 3.034 1.01 5.271 1.68 6.791 0.16 0.358 0.31 0.668 0.46 0.951 0.57 1.074 1.03 1.588 1.03 1.588 0.02 0 0.14 0.034 0.32 0.062 0.24 0.035 0.61 0.072 1.07 0.049 0.65-0.029 1.16-0.165 1.63-0.338 0.15-0.053 0.29-0.108 0.43-0.177 0.15-0.07 0.3-0.145 0.43-0.229 0.56-0.33 1.02-0.736 1.39-1.176 0.24-0.291 0.45-0.586 0.63-0.881 0.04-0.075 0.15-0.234 0.15-0.234 0.14-0.245 0.45-0.921 0.48-0.984-0.22 0.32-0.48 0.594-0.79 0.818-0.11 0.08-0.21 0.146-0.33 0.209-0.21 0.123-0.46 0.218-0.71 0.287-0.25 0.063-0.52 0.104-0.8 0.104-0.37 0-0.7-0.079-1.03-0.194-0.13-0.047-0.25-0.097-0.37-0.158-0.4-0.199-0.73-0.472-1-0.805-0.45-0.537-0.73-1.23-0.73-1.982v-0.053c0.01-0.069 0.02-0.13 0.02-0.201 0.16 0.026 0.3 0.039 0.43 0.033 0.93-0.034 1.44-0.671 1.7-1.203 0 0-2.17-1.28-3.93-2.312-1.15-0.673-2.13-1.245-2.21-1.293-0.01-0.007-0.02-0.006-0.02-0.006l-0.01-0.004c-0.01 0-0.02-0.006-0.02-0.006zm-21.24 67.651c0 0.01 14.37 9.88 20.7 16.57 0.59 0.62 1.12 1.17 1.62 1.69 0.06 0.07 2.43 2.79 4.99 3.71 0.12 0.05 0.24 0.11 0.37 0.15 0.18 0.07 2.25 0.86 5.44 1.04 1.97 0.11 3.79-0.03 5.24-0.34 1.08-0.98 1.95-2.36 2.6-3.88 0.95-2.18 1.45-4.67 1.52-6.71 1.26-0.71 5.05-2.74 5.05-2.74h-0.02c-0.24 0-1.44 0.17-2.9 0.39-0.28 0.05-6.88 1.04-7.83 1.2-1.63 0.28-3.18 0.58-4.63 0.8-0.48 0.08-0.95 0.15-1.41 0.2-0.07 0.01-2.74 0.41-4.35-0.04-0.51-0.15-1.01-0.28-1.53-0.48-0.86-0.34-1.81-0.81-3.07-1.45-8.43-4.72-21.79-10.11-21.79-10.11z" transform="translate(-.0015640)" fill="#fff"/><path fill="#36c" d="m197.35 45.615c-0.595-0.24062-1.2062-0.48312-1.8294-0.72312-9.86-3.902-22.14-8.01-35.9-11.033 1.3812 2.8706 2.8462 5.5544 4.1888 7.18 3.3581 4.0731 8.0481 8.6088 18.91 16.516 14.92 10.868 16.005 16.365 14.578 22.225-1.1894 4.8819 4.8944 20.882 4.9962 20.812 0 0 10.002-19.648 14.708-45.952-3.8794-2.0338-10.689-5.3994-19.652-9.0262m-55.99 117.41c-5.505-4.5556-11.966-9.3312-18.315-13.755-2.8175-1.9662-5.6131-3.8606-8.2906-5.6356-1.5788 0.27124-3.2456 0.605-4.9694 0.99-0.64374 0.14876-1.3056 0.3-1.9681 0.46688-4.6475 1.145-9.6719 2.7488-14.63 4.99 0.02875 0.87999 0.09625 2.0006 0.265 3.3312 0.05688 0.44187 0.1225 0.91062 0.20814 1.3956 0.07688 0.49126 0.17312 1.0006 0.28062 1.5281 0.32625 1.5931 0.78499 3.3719 1.4369 5.3094 0.2625 0.79062 0.55375 1.62 0.9025 2.4862 0.25875 0.66188 0.53375 1.3344 0.84125 2.0269 0.91688 2.0925 2.0662 4.3725 3.505 6.8031 2.4569 1.4613 4.9731 2.8506 7.5138 4.1913 2.0844 1.0944 4.1794 2.1581 6.3162 3.1688 1.5938 0.75187 3.1931 1.4788 4.815 2.1837 1.2019-0.52561 2.4044-1.0612 3.5881-1.6156 2.3856-1.0981 4.7331-2.2512 7.0394-3.4575 5.7744-3.0094 11.332-6.3325 16.61-9.9494-1.1838-1.0819-2.4588-2.1919-3.7894-3.3269-0.44811-0.36687-0.89874-0.74812-1.3594-1.1312"/><path d="m82.666 12.465c-0.329-0.013-0.662-0.009-0.994 0.014 0 0 6.289 0.846 10.111 10.681-2.009-0.776-4.244-0.564-4.244-0.564 4.383 3.099 6.377 8.947 7.078 10.55 0.966 2.197 2.296 3.659 3.508 4.625 4.405 3.788 9.825 3.173 9.825 3.172 0 0-7.31-2.354-13.628-18.55-2.183-5.582-6.718-9.73-11.656-9.928zm-52.1 37.742c-0.56 0.249-0.919 0.413-0.986 0.441-3.36 1.569-6.071 2.95-8.031 3.977 0.036 0.2 0.918 3.956 2.467 9.789 2.141 7.655 5.184 17.001 9.164 25.607 6.051 13.109 16.234 24.369 28.373 31.979 2.137 1.34 4.344 2.57 6.595 3.68 1.502 0.73 3.025 1.41 4.563 2.04 7.706 3.11 15.861 4.77 24.039 4.61-0.538-0.55-1.022-1.11-1.43-1.67-2.919-3.96-4.743-10.03-3.884-16.62 0.016-0.07 0.028-0.15 0.033-0.23 0.303-2.13 0.881-4.32 1.802-6.51 0.22-0.51 0.455-1.03 0.708-1.55 0.018-0.03 0.027-0.05 0.037-0.08 0.158-0.31 0.317-0.61 0.49-0.92-14.275 5.47-10.779 21.46-10.779 21.46-0.471-0.49-12.427-6.71-14.581-20.71-0.055-0.32-0.101-0.65-0.142-1.02-1.412-12.137-1.592-13.425-10.656-20.244 0 0 2.114-1.227 4.246-3.654-3.378-1.634-5.953-4.142-7.903-6.807-0.051-0.067-0.097-0.138-0.146-0.199-0.11-0.157-0.216-0.308-0.322-0.459-0.11-0.165-0.228-0.33-0.334-0.498-0.037-0.06-0.083-0.124-0.121-0.189-3.548-5.508-4.608-11.225-4.608-11.225-6.195 19.755 9.246 40.935 9.246 40.935s-9.406-3.649-17.523-18.134c-4.361-7.777-8.348-18.679-10.317-33.799zm81.334 5.695c-0.74 0.396-1.48 0.857-2.17 1.393-6.35 4.955-5.59 16.317-5.56 16.687 0.32 4.449 1.68 9.285 3.98 14.213 4.25 9.098 10.72 13.715 16.75 16.065 1.89 0.74 3.72 1.24 5.44 1.61 1.38 0.28 2.67 0.46 3.84 0.59 2.05 0.22 3.74 0.23 4.82 0.24 0.57-0.04 1.15-0.06 1.74-0.07-4.79-1.34-8.88-3.09-12.37-5.14-1.34-0.79-2.59-1.624-3.77-2.502-16.79-12.622-16.34-33.878-12.7-43.086zm30.69 8.448c0.06 0.045 9.2 6.646 11.8 8.386 2.6 1.751 8.48 5.184 15.23 8.004 1.78 0.746 6.64 2.485 11.88 2.815 0 0-3.04 2.826-0.08 12.256 0.6 2.016 1.43 3.95 2 5.529 0 0.02 0.01 0.03 0.01 0.03 0.36 1.03 0.69 2.05 1.03 3 4.11 11.44 4.99 18.1 5 18.13-0.01-0.08-0.01-0.16-0.02-0.23-0.92-10.86-4.86-23.623-5.44-27.18-0.31-1.887-0.85-3.826-0.22-5.338 0.3-0.726 1.16-1.359 1.78-1.557 3.03-0.923 6.12 2.388 12.44 22.075-2.58-10.61-5.29-18.194-7.19-22.889-0.55-1.355-1.05-2.489-1.44-3.358-0.42-1.051-0.72-1.742-0.86-2.07-0.07-0.141-0.11-0.226-0.11-0.226s1.25-1.972 1.57-4.09c0.09-0.522 0.11-1.059 0.05-1.576-0.18 0.295-0.37 0.603-0.58 0.941-1.84 2.914-6.43 4.233-14.87 3.189-0.51-0.067-2.78-0.578-4.12-1.087-12.36-4.699-22.91-11.439-27.86-14.754zm10.89 14.427c0.02 0.465 0.05 0.918 0.1 1.348 0.29 3.034 1 5.271 1.68 6.789 0.15 0.358 0.31 0.666 0.46 0.949 0.57 1.074 1.03 1.59 1.03 1.59 0.05 0.011 0.22 0.029 0.25 0.035v-0.008c-2.08-4.246-1.77-7.561-1.26-9.392-1.15-0.675-2.14-1.25-2.22-1.299-0.01 0-0.02-0.004-0.03-0.004l-0.01-0.008zm14.22 13.198s-5.43 0.898-9.08 4.421c6.75 3.492 22.17 13.314 24.86 31.364 0-0.01-1.09-20.52-15.1-28.809 0 0 2.53-0.242 5.58 0.529-2.38-3.653-4.75-6.311-6.26-7.501v-0.004zm-26.89 14.795c-0.27 0.23-1.05 0.9-1.92 2.01-0.11 0.16-0.25 0.33-0.37 0.51-0.35 0.48-0.71 1.03-1.05 1.65-1.15 2.12-2.09 5.02-1.76 8.63 0.13 1.42 0.45 2.94 1.03 4.58 0.16 0.47 0.35 0.95 0.57 1.44 0.1 0.25 0.22 0.5 0.33 0.74 0.6 1.25 1.33 2.56 2.25 3.91 0 0-0.12-0.01-0.32-0.05-0.17-0.03-0.39-0.08-0.69-0.16-0.08-0.02-0.16-0.04-0.24-0.07-0.04-0.01-0.07-0.02-0.12-0.03-0.12-0.04-0.25-0.09-0.38-0.13-0.13-0.05-0.26-0.1-0.4-0.16-0.32-0.12-0.66-0.27-1.03-0.45-0.1-0.05-0.21-0.11-0.32-0.16-0.3-0.16-0.62-0.34-0.94-0.54-0.1-0.06-0.2-0.13-0.31-0.19-1.93-1.28-4.12-3.38-5.89-6.81 0 0.01 0.49 10.14 11.29 16.25 0.25 0.14 0.52 0.27 0.79 0.41 0.5 0.27 1.03 0.52 1.57 0.78 0.25 0.11 0.49 0.22 0.75 0.33 0 0-1.36 0.14-3.36 0.09-0.91-0.02-1.95-0.08-3.06-0.21 0.44 0.51 0.91 1.01 1.44 1.53 0.53 0.51 1.12 1.03 1.79 1.56 0.65 0.53 1.38 1.08 2.19 1.67 0.8 0.57 1.68 1.17 2.67 1.82 5.46 3.14 15 6.24 19.59 6.29 10 0.1 14.08-1.89 18.52-3.43 1.06-0.37 1.84-0.64 2.43-0.86-23.02 6.07-34.1-3.09-37.06-6.18-0.56-0.59-0.83-0.97-0.83-0.97 0.12 0.07 0.23 0.13 0.35 0.19 10.02 5.24 18.55 2.03 18.55 2.03-3.05-0.76-5.5-1.54-7.5-2.3-7.55-2.9-8.4-5.55-8.4-5.55 0.2 0.06 0.38 0.12 0.56 0.18 8.94 3.07 13.78 0.42 13.78 0.42-32.56-6.65-25.43-26.49-24.5-28.77zm-8.57 39.66s14.38 9.87 20.7 16.56c0.59 0.63 1.12 1.18 1.61 1.69 0.07 0.08 2.44 2.79 4.99 3.72 0.13 0.05 0.25 0.11 0.38 0.15-1.71-4.16-4.24-8.98-5.89-12.02-8.44-4.72-21.79-10.1-21.79-10.1z" transform="translate(-.0015640)" fill="#b2b2b2"/></g></svg>
