<?xml version="1.0" encoding="UTF-8" standalone="no"?>
<svg xmlns:rdf="http://www.w3.org/1999/02/22-rdf-syntax-ns#" xmlns="http://www.w3.org/2000/svg" xml:space="preserve" height="36.259" viewBox="0 0 156.23413 36.258999" width="156.23" version="1.1" xmlns:cc="http://creativecommons.org/ns#" xmlns:dc="http://purl.org/dc/elements/1.1/"><g transform="matrix(1.25 0 0 -1.25 -89.828 411.58)"><g><path d="m32.65 1.084c-2.675 7.0075-6.815 17.266-7.644 18.922-0.988 2.006-2.517 2.547-3.504 2.547v1.211h6.879v-1.211c-1.56 0-1.814-0.955-1.305-2.42l1.02-3.028h7.199l1.211 3.186c0.509 1.403 0.061 2.262-1.34 2.262v1.211h11.246v-1.211c-1.37 0-3.027-1.561-3.6-3.09-1.306-3.409-6.084-14.906-7.582-18.379h-2.58zm23.157 0c-6.308 0-9.045 2.1981-9.045 5.7656 0 1.7838 1.751 4.3644 5.16 6.4664 4.014 2.453 4.617 3.568 4.617 5.67 0 2.325-1.846 3.791-3.693 3.791-3.09 0-4.112-3.441-4.844-5.32h-0.986v5.223c0 0.255 0.095 0.383 0.222 0.447 1.657 0.637 3.41 1.019 7.295 1.019 5.416 0 9.301-2.102 9.301-6.244 0-2.071-0.922-4.044-4.045-6.433-3.886-3.0265-5.83-3.7605-5.83-6.0217 0-2.3575 1.656-2.9942 2.389-2.9942 2.485 0 3.631 2.5808 4.619 4.2696h0.988v-4.7149c0-0.1587-0.095-0.3503-0.318-0.4453-1.497-0.415-3.473-0.4785-5.83-0.4785zm-54.707 0.3808v1.211c1.5613 0.065 2.5815 0.3506 2.709 0.7969 0.1275 0.35 0.1269 0.8923 0.1269 1.4023v15.479c0 0.51 0.0006 1.054-0.1269 1.404-0.1275 0.446-1.1477 0.731-2.709 0.795v1.211h19.017l0.955-5.797h-0.986c-1.083 1.942-2.995 4.203-6.182 4.203-2.166 0-3.248-0.095-3.248-2.229v-6.976h2.549c2.134 0 2.772 1.879 2.772 3.408h0.986v-8.3769h-0.986c0.095 1.5925-0.766 3.3749-2.772 3.3749h-2.549v-8.3124h3.569c2.133 0 3.153 1.4639 3.822 3.5352h0.986v-5.129h-17.933zm85.097 0v1.211c1.562 0.065 2.58 0.3506 2.707 0.7969 0.128 0.35 0.127 0.8923 0.127 1.4023v15.479c0 0.51 0.001 1.054-0.127 1.404-0.127 0.446-1.145 0.731-2.707 0.795v1.211h19.013l0.96-5.797h-0.99c-1.08 1.942-2.99 4.203-6.178 4.203-2.165 0-3.25-0.095-3.25-2.229v-6.976h2.549c2.129 0 2.769 1.879 2.769 3.408h0.99v-8.3769h-0.99c0.1 1.5925-0.76 3.3749-2.769 3.3749h-2.549v-8.3124h3.568c2.13 0 3.15 1.4639 3.82 3.5352h0.99v-5.129h-17.933zm-22.152 0.002l-0.893 4.873h0.987c1.37-1.8162 2.103-3.2812 4.81-3.2812h2.358v17.296c0 0.51 0 1.051-0.127 1.401-0.128 0.447-1.148 0.735-2.741 0.799v1.209h12.424v-1.209c-1.561-0.064-2.581-0.352-2.709-0.799-0.127-0.35-0.127-0.891-0.127-1.401v-17.296l2.358-0.0004c2.676 0 3.438 1.465 4.808 3.2812h0.989l-0.893-4.873h-21.244zm41.915 0v1.209c1.59 0.0637 2.61 0.3519 2.74 0.7969 0.12 0.35 0.12 0.8923 0.12 1.4023v15.48c0 0.51 0 1.053-0.12 1.403-0.13 0.446-1.15 0.731-2.74 0.795v1.211h12.42v-1.211c-1.56-0.064-2.58-0.349-2.71-0.795-0.12-0.35-0.13-0.893-0.13-1.403v-6.306h1.34c2.39 3.407 4.62 9.681 6.69 9.681h6.76v-0.826c-2.58-3.026-5.32-6.338-7.78-9.683 3.35-0.86 5.13-3.4729 5.13-5.7991 0-4.1413-3.15-5.9551-7.42-5.9551h-14.3zm23.73 0v1.209c2.01 0 3.67 1.2105 4.59 3.1855v12.614c0 0.988-0.03 1.912-0.13 2.709-0.13 0.923-0.6 1.306-2.64 1.369v1.211h8.44v-1.211c-3.03-0.063-3.57-0.446-3.7-1.369-0.12-0.797-0.09-1.721-0.09-2.709v-10.637l0.06-0.0001c4.11 5.0951 9.72 12.739 11.63 15.926h4.71v-17.012c0-0.9863-0.03-1.9089 0.1-2.7051 0.13-0.9238 0.67-1.3074 2.67-1.3711v-1.209h-8.47v1.209c3.09 0.0637 3.57 0.4473 3.7 1.3711 0.09 0.7962 0.12 1.7188 0.12 2.7051v9.525h-0.06c-3.44-4.3-8.41-10.798-11.02-14.81l-9.91-0.0002zm-14.15 1.5605h1.85c2.04 0 3.03 1.146 3.03 4.5547 0 2.0063-0.45 4.904-3.35 4.904h-1.53v-9.4587zm-83.782 4.6172l2.804 7.6775h-5.798l2.994-7.6775z" transform="matrix(.8 0 0 -.8 71.862 329.26)" fill="#a10022"/><path d="m14.965 27.963c-0.819 2.146-2.086 5.289-2.34 5.797-0.304 0.614-0.772 0.781-1.074 0.781v0.369h2.107v-0.369c-0.477 0-0.556-0.293-0.4-0.742l0.312-0.928h2.207l0.369 0.977c0.157 0.428 0.02 0.693-0.41 0.693v0.369h3.446v-0.369c-0.419 0-0.926-0.479-1.102-0.947-0.4-1.044-1.863-4.567-2.322-5.631h-0.793zm7.359 0c-1.932 0-2.771 0.673-2.771 1.766 0 0.546 0.535 1.336 1.58 1.98 1.229 0.752 1.416 1.095 1.416 1.738 0 0.713-0.567 1.16-1.133 1.16-0.946 0-1.259-1.052-1.484-1.628h-0.303v1.601c0 0.078 0.031 0.118 0.07 0.137 0.508 0.195 1.043 0.312 2.235 0.312 1.658 0 2.849-0.646 2.849-1.914 0-0.635-0.284-1.24-1.24-1.972-1.19-0.927-1.785-1.152-1.785-1.844 0-0.723 0.507-0.916 0.732-0.916 0.761 0 1.112 0.789 1.414 1.306h0.303v-1.445c0-0.049-0.029-0.108-0.098-0.137-0.458-0.126-1.062-0.144-1.785-0.144zm29.127 0c-3.181 0-3.982 1.99-3.982 3.494 0 2.284 1.396 3.572 3.816 3.572 1.054 0 2.157-0.295 2.664-0.451v-1.951c0-0.155 0.001-0.312 0.039-0.43 0.039-0.136 0.363-0.223 0.84-0.232v-0.373h-3.885v0.373c0.79 0.009 1.114 0.096 1.153 0.232 0.04 0.118 0.039 0.275 0.039 0.43v0.674c0 1.327-0.624 1.336-1.112 1.336-0.518 0-1.416-1.093-1.435-3.26 0.009-1.776 0.79-3.023 1.902-3.023 0.976 0 1.483 0.867 1.834 1.58h0.303v-1.258c0-0.158-0.106-0.296-0.379-0.383-0.479-0.156-0.928-0.33-1.797-0.33zm14.1 0c-2.225 0-3.789 1.677-3.789 3.453 0 2.899 2.276 3.613 3.427 3.613 1.61 0 3.805-1.105 3.805-3.652 0-2.059-1.628-3.414-3.443-3.414zm-55.608 0.117v0.369c0.7916 0.118 1.0036 0.207 0.8576 0.862-0.321 1.423-0.692 2.848-0.9944 3.863h-0.0195l-1.6113-5.006h-1.3653l-1.4628 4.898h-0.0215l-0.9942-3.816c-0.195-0.664 0.0276-0.742 0.6426-0.791v-0.369h-3.7773v0.369c0.5175 0.079 0.8407 0.274 1.1132 1.23l1.3965 5.221h1.7168l1.3477-4.527h0.0195l1.25 4.527h1.8535l1.6015-5.816c0.166-0.538 0.555-0.654 0.848-0.645v-0.369h-2.4006zm15.641 0v0.369c0.487 0.02 0.799 0.109 0.838 0.246 0.039 0.108 0.039 0.272 0.039 0.428v4.744c0 0.156 0 0.322-0.039 0.43-0.039 0.136-0.351 0.224-0.838 0.244v0.369h3.816v-0.369c-0.488-0.02-0.803-0.108-0.841-0.244-0.039-0.108-0.038-0.274-0.038-0.43v-2.361h2.176v2.361c0 0.156 0 0.322-0.039 0.43-0.039 0.136-0.361 0.224-0.84 0.244v0.369h3.817v-0.369c-0.478-0.02-0.801-0.108-0.84-0.244-0.039-0.108-0.037-0.274-0.037-0.43v-4.744c0-0.156-0.002-0.32 0.037-0.428 0.039-0.137 0.362-0.226 0.84-0.246v-0.369h-3.817v0.369c0.479 0.02 0.801 0.109 0.84 0.246 0.039 0.108 0.039 0.272 0.039 0.428v1.775h-2.176v-1.775c0-0.156-0.001-0.32 0.038-0.428 0.038-0.137 0.353-0.226 0.841-0.246v-0.369h-3.816zm9.031 0v0.369c0.488 0.02 0.799 0.109 0.838 0.246 0.039 0.108 0.039 0.272 0.039 0.428v4.744c0 0.156 0 0.322-0.039 0.43-0.039 0.136-0.35 0.224-0.838 0.244v0.369h3.805v-0.369c-0.479-0.02-0.791-0.108-0.83-0.244-0.039-0.108-0.037-0.274-0.037-0.43v-4.744c0-0.156-0.002-0.32 0.037-0.428 0.039-0.137 0.351-0.226 0.83-0.246v-0.369h-3.805zm4.649 0v0.369c0.615 0 1.125 0.372 1.41 0.977v3.865c0 0.303-0.011 0.586-0.041 0.828-0.039 0.284-0.185 0.402-0.813 0.422v0.369h2.594v-0.369c-0.927-0.02-1.094-0.138-1.133-0.422-0.04-0.242-0.029-0.525-0.029-0.828v-3.26h0.019c1.259 1.561 2.977 3.903 3.563 4.879h1.445v-5.211c0-0.301-0.011-0.586 0.028-0.83 0.038-0.284 0.205-0.4 0.82-0.42v-0.369h-2.596v0.369c0.947 0.02 1.093 0.136 1.133 0.42 0.029 0.244 0.039 0.529 0.039 0.83v2.918h-0.021c-1.054-1.317-2.575-3.307-3.375-4.537h-3.043zm15.441 0l-0.273 1.492h0.304c0.419-0.556 0.643-1.006 1.473-1.006h0.721v5.301c0 0.156 0.001 0.322-0.037 0.43-0.039 0.136-0.353 0.224-0.84 0.244v0.369h3.806v-0.369c-0.478-0.02-0.791-0.108-0.83-0.244-0.038-0.108-0.039-0.274-0.039-0.43v-5.301h0.723c0.82 0 1.055 0.45 1.475 1.006h0.3l-0.273-1.492h-6.51zm14.42 0v0.369c0.615 0 1.123 0.372 1.406 0.977v3.865c0 0.303-0.01 0.586-0.039 0.828-0.04 0.284-0.185 0.402-0.81 0.422v0.369h2.588v-0.369c-0.928-0.02-1.095-0.138-1.133-0.422-0.04-0.242-0.032-0.525-0.032-0.828v-3.26h0.022c1.259 1.561 2.976 3.903 3.562 4.879h1.444v-5.211c0-0.301-0.01-0.586 0.029-0.83 0.039-0.284 0.205-0.4 0.82-0.42v-0.369h-2.595v0.369c0.946 0.02 1.093 0.136 1.133 0.42 0.028 0.244 0.037 0.529 0.037 0.83v2.918h-0.02c-1.054-1.317-2.575-3.307-3.375-4.537h-3.037zm60.175 0.195c-1.93 0-2.77 0.675-2.77 1.768 0 0.546 0.54 1.337 1.58 1.98 1.23 0.753 1.42 1.095 1.42 1.739 0 0.712-0.57 1.16-1.14 1.16-0.94 0-1.25-1.053-1.48-1.629h-0.3v1.6c0 0.077 0.03 0.118 0.07 0.136 0.5 0.195 1.04 0.313 2.23 0.313 1.66 0 2.85-0.645 2.85-1.912 0-0.635-0.28-1.24-1.24-1.973-1.19-0.926-1.78-1.151-1.78-1.844 0-0.722 0.5-0.918 0.73-0.918 0.76 0 1.11 0.791 1.41 1.309h0.31v-1.445c0-0.049-0.03-0.108-0.1-0.137-0.46-0.126-1.07-0.147-1.79-0.147zm-64.101 0.106c0.81 0 1.678 1.005 1.678 3.201 0 2.626-0.839 3.027-1.445 3.027-0.859 0-1.551-1.249-1.551-3.464 0-2.138 0.664-2.764 1.318-2.764zm15.723 0.012v0.371c0.487 0.018 0.799 0.106 0.838 0.244 0.039 0.107 0.039 0.274 0.039 0.43v3.191c0 1.659 0.683 2.713 3.055 2.713 1.317 0 2.509-0.781 2.509-2.508v-2.82c0-0.947-0.107-1.222 0.83-1.25v-0.371h-2.255v0.371c0.623 0.018 0.781 0.136 0.82 0.42 0.029 0.243 0.029 0.527 0.029 0.83v2.634c0 1.532-0.616 1.854-1.582 1.854-0.995 0-1.346-0.673-1.346-1.619v-3.445c0-0.156 0.001-0.323 0.039-0.43 0.039-0.138 0.352-0.226 0.831-0.244v-0.371h-3.807zm8.172 0v0.371c0.615 0 1.12 0.371 1.404 0.976v3.865c0 0.303-0.01 0.587-0.039 0.831-0.039 0.282-0.186 0.399-0.811 0.419v0.37h2.588v-0.37c-0.927-0.02-1.094-0.137-1.132-0.419-0.039-0.244-0.03-0.528-0.03-0.831v-3.259h0.02c1.258 1.561 2.977 3.902 3.562 4.879h1.446v-5.211c0-0.303-0.012-0.587 0.027-0.83 0.04-0.284 0.205-0.4 0.82-0.42v-0.371h-2.595v0.371c0.947 0.02 1.092 0.136 1.132 0.42 0.03 0.243 0.039 0.527 0.039 0.83v2.918h-0.021c-1.054-1.318-2.575-3.309-3.375-4.539h-3.035zm8.744 0v0.371c0.487 0.018 0.801 0.106 0.84 0.244 0.04 0.107 0.039 0.273 0.039 0.43v4.742c0 0.156 0.001 0.324-0.039 0.431-0.039 0.137-0.353 0.223-0.84 0.243v0.371h3.802v-0.371c-0.47-0.02-0.79-0.106-0.83-0.243-0.03-0.107-0.03-0.275-0.03-0.431v-4.742c0-0.157 0-0.323 0.03-0.43 0.04-0.138 0.36-0.226 0.83-0.244v-0.371h-3.802zm4.562 0v0.371c0.58 0 1.09 0.838 1.25 1.238 0.19 0.43 1.53 4.246 1.86 5.223h1.43c0.69-1.933 1.39-3.845 2.09-5.778 0.15-0.38 0.53-0.683 0.98-0.683v-0.371h-2.28v0.371c0.55 0 0.9 0.126 0.6 0.966-0.45 1.23-0.89 2.471-1.34 3.7-0.53-1.425-0.99-2.792-1.48-4.285-0.04-0.175 0.17-0.381 0.6-0.381v-0.371h-3.71zm8.34 0v0.371c0.48 0.018 0.79 0.106 0.83 0.244 0.04 0.107 0.04 0.274 0.04 0.43v4.742c0 0.156 0 0.324-0.04 0.431-0.04 0.137-0.35 0.223-0.83 0.243v0.371h5.83l0.29-1.778h-0.3c-0.33 0.597-0.92 1.289-1.89 1.289-0.67 0-1-0.028-1-0.681v-2.139h0.78c0.65 0 0.85 0.576 0.85 1.045h0.3v-2.566h-0.3c0.03 0.487-0.23 1.033-0.85 1.033h-0.78v-2.547h1.09c0.66 0 0.97 0.45 1.18 1.084h0.3v-1.572h-5.5zm7.27 0v0.371c0.49 0.02 0.8 0.108 0.84 0.244 0.04 0.107 0.04 0.273 0.04 0.43v4.744c0 0.155 0 0.321-0.04 0.427-0.04 0.138-0.35 0.226-0.84 0.246v0.37h3.81v-0.37c-0.48-0.02-0.79-0.108-0.83-0.246-0.04-0.106-0.04-0.272-0.04-0.427v-1.934h0.41c0.73 1.044 1.41 2.969 2.05 2.969h2.07v-0.254c-0.79-0.928-1.63-1.945-2.39-2.969 1.03-0.264 1.57-1.063 1.57-1.775 0-1.269-0.96-1.826-2.27-1.826h-4.38zm15.03 0v0.371c0.49 0.018 0.8 0.106 0.84 0.244 0.04 0.107 0.04 0.273 0.04 0.43v4.742c0 0.156 0 0.324-0.04 0.431-0.04 0.137-0.35 0.223-0.84 0.243v0.371h3.81v-0.371c-0.48-0.02-0.79-0.106-0.83-0.243-0.04-0.107-0.04-0.275-0.04-0.431v-4.742c0-0.157 0-0.323 0.04-0.43 0.04-0.138 0.35-0.226 0.83-0.244v-0.371h-3.81zm4.91 0l-0.28 1.494h0.31c0.42-0.557 0.64-1.006 1.47-1.006h0.72v5.299c0 0.156 0 0.324-0.04 0.431-0.04 0.137-0.35 0.223-0.84 0.243v0.371h3.81v-0.371c-0.48-0.02-0.79-0.106-0.83-0.243-0.04-0.107-0.04-0.275-0.04-0.431v-5.299h0.72c0.82 0 1.06 0.449 1.48 1.006h0.3l-0.27-1.494h-6.51zm7.59 0v0.371c0.45 0 0.87 0.146 1.15 0.761l1.55 3.202v1.455c0 0.155 0 0.321-0.04 0.427-0.04 0.138-0.35 0.226-0.83 0.246v0.37h3.81v-0.37c-0.49-0.02-0.8-0.108-0.84-0.246-0.04-0.106-0.04-0.272-0.04-0.427v-1.143c0-0.351 0.14-0.664 0.29-0.957l1.56-2.84c0.23-0.449 0.47-0.478 0.75-0.478v-0.371h-2.23v0.371c0.58 0 0.97 0.215 0.63 0.83l-1.35 2.488-1.25-2.557c-0.24-0.517-0.31-0.761 0.43-0.761v-0.371h-3.59zm-24.59 0.478h0.56c0.63 0 0.93 0.352 0.93 1.397 0 0.613-0.14 1.502-1.03 1.502h-0.46v-2.899zm-106.26 1.102l0.86 2.351h-1.778l0.918-2.351z" transform="matrix(.8 0 0 -.8 71.862 329.26)"/></g></g></svg>
