<?xml version="1.0" encoding="utf-8"?>
<!-- Generator: Adobe Illustrator 22.0.1, SVG Export Plug-In . SVG Version: 6.00 Build 0)  -->
<svg version="1.1" id="Layer_1" xmlns="http://www.w3.org/2000/svg" xmlns:xlink="http://www.w3.org/1999/xlink" x="0px" y="0px"
	 width="275.1px" height="27.04px" viewBox="0 0 275.1 27.04" enable-background="new 0 0 275.1 27.04" xml:space="preserve">
<g>
	<path fill="#782F40" d="M20.05,11.17l0.68-0.41l-0.01,6.95l-0.69-0.43c0,0-0.44-0.29-0.95-0.26H8.03v6.81
		C8,24.95,9.18,25.86,9.19,25.87l1.09,0.8H0.05l1.07-0.8c0.9-0.66,1.26-1.32,1.24-2.25c-0.01-1.04,0-19.45,0-19.45
		C2.35,3.17,2,2.53,1.14,1.88L0.38,1.32l0.93-0.22C1.35,1.09,5.98,0,11.87,0c4.68,0,8.45,0.86,8.49,0.87l0.36,0.07
		c0,0,0,7.3-0.01,7.3c0,0-1.93-1.38-3.41-1.94c-1.49-0.56-4.68-0.88-5.86-0.88s-3.42,0.3-3.42,0.3v5.68h11.12
		C19.68,11.38,20.05,11.17,20.05,11.17z M252.47,5.65V0.5L231.1,0.5v5.15h8.08v17.97c0.01,0.55-0.23,1.24-0.4,1.47
		c-0.14,0.2-0.6,0.61-0.86,0.83l-0.92,0.78h10.14l-1.08-0.81c-0.84-0.64-1.19-1.28-1.24-2.28V5.65H252.47z M211.74,5.65V0.51
		l-21.37,0v5.15h8.08v17.97c0.01,0.56-0.22,1.25-0.39,1.47c-0.15,0.19-0.6,0.61-0.86,0.83l-0.91,0.79h10.13l-1.08-0.81
		c-0.85-0.64-1.2-1.27-1.23-2.28V5.65H211.74z M82.19,25.9c0.03-0.03,0.57-0.61,0.15-1.76c-1.1-3-2.82-6.4-3.27-7.54h-3.02v10.06
		h-5.56V4.31c0-1.24-0.62-1.95-1.54-2.62l-0.88-0.65l1.08-0.15c0.06-0.01,5.44-0.77,9.58-0.81c4.16-0.05,8.06,0.67,8.1,0.67
		l0.29,0.05l0.06,0.28c0.52,2.07,0.83,5.11,0.83,8.1c0,2.2-0.29,4.77-0.81,7.05l-0.07,0.37h-2.01l4.14,9.46l0.24,0.61l-8.04-0.01
		L82.19,25.9z M82.48,8.9c0-0.75-0.09-1.59-0.16-2.34c-0.03-0.26-0.05-0.5-0.07-0.73c-0.62-0.07-1.99-0.2-3.4-0.17
		c-1.29,0.03-2.28,0.11-2.8,0.17l0,5.98h6.24C82.39,11.09,82.47,9.94,82.48,8.9z M126.16,14.37c-0.11,3.99-0.47,7.75-2.4,12.02
		l-0.12,0.26h-16.65l-0.03-22.9c0-1.08-1.04-2.45-1.04-2.45l-0.66-0.85l18.07,0.01l0.12,0.26C125.35,5.02,126.27,10.78,126.16,14.37
		z M120.51,14.33c0.11-4.22-0.81-7.18-1.12-8.16h-6.96v14.99h7.2C119.84,20.34,120.4,18.41,120.51,14.33z M232.84,26.7h-6.5
		l-0.71-3.67h-7.07l-0.93,3.67h-8.02l1.18-0.83l0.17-0.11c0.52-0.36,1.12-0.76,1.39-1.6c0.25-0.84,4.52-18.44,4.89-20.17
		c0.33-1.57-0.91-2.76-0.93-2.77l-0.84-0.77h11.16L232.84,26.7z M225.13,18.21l-2.88-11.94l-2.68,11.95L225.13,18.21z M150.69,26.7
		h-6.5l-0.7-3.67h-7.07l-0.94,3.67h-8.02l1.18-0.83l0.17-0.11c0.52-0.36,1.11-0.76,1.39-1.6c0.25-0.84,4.52-18.44,4.89-20.17
		c0.33-1.57-0.92-2.76-0.93-2.77l-0.83-0.77h11.16L150.69,26.7z M142.97,18.21l-2.86-11.94l-2.69,11.95L142.97,18.21z M42.52,19.52
		c0,0-0.75,0.61-2.73,1.27c-1.24,0.4-2.58,0.62-4.51,0.7c-2.94,0.13-3.87,0-4.56-0.11l0-17.82c0-0.49,0.23-1.1,0.37-1.3
		c0.13-0.18,0.56-0.56,0.8-0.76l1.13-0.98l-10.34,0l1.34,1c0.78,0.59,1.09,1.16,1.1,2.05c0.01,0.84,0,19.41,0,19.41
		c0,0.88-0.31,1.45-1.11,2.04l-0.94,0.71L24.21,26c0.2,0.04,4.44,1.03,10.02,1.03c4.43,0,8.57-0.79,8.74-0.83l0.45-0.1l0.01-7.36
		L42.52,19.52z M94.44,24.9c-0.13,0.16-0.56,0.55-0.8,0.76l-1.14,0.97l10.33,0.01l-1.34-1c-0.75-0.57-1.08-1.15-1.11-2.07V3.47
		c-0.03-0.45,0.22-1.07,0.36-1.26c0.42-0.57,1.93-1.74,1.93-1.74H92.35l1.34,1c0.8,0.6,1.13,1.19,1.11,2.04v20.11
		C94.82,24.06,94.6,24.68,94.44,24.9z M66.91,25.79l-0.97,0.2C65.9,26,61,27.03,55.91,27.03c-5.59,0-8.58-0.78-8.7-0.82l-0.41-0.11
		l0.05-21.67c0-1.89-1.76-3.08-1.76-3.08l0.95-0.2c0.05-0.02,4.95-1.06,10.04-1.06c5.59,0,8.58,0.79,8.7,0.82l0.4,0.11l0.01,21.72
		C65.19,25.39,66.91,25.79,66.91,25.79z M59.58,5.76c-0.65-0.07-1.64-0.15-4.57-0.11c-1.13,0.01-2.08,0.09-2.59,0.13l-0.03,15.59
		c0.66,0.08,1.64,0.17,4.58,0.12c1.12-0.01,2.07-0.09,2.58-0.14L59.58,5.76z M273.39,16.17c0.4-0.02,0.65,0.18,0.66,0.18l1,0.73
		c0.01,0,0-7.41,0-7.41l-1.11,0.77c-0.02,0.01-0.2,0.14-0.6,0.15H262.5V5.83c0.68-0.1,1.62-0.22,4.56-0.1
		c1.93,0.09,3.28,0.28,4.51,0.7c1.97,0.65,2.72,1.26,2.73,1.26l0.74,0.74c0,0.02,0-7.42,0-7.42c-0.17-0.04-4.6-0.83-9.03-0.83
		c-5.59,0-9.85,0.98-10.03,1.03l-1.16,0.27l0.95,0.71c0.78,0.58,1.1,1.16,1.11,2.05c0,0-0.03,17.64-0.01,18.61
		c0.01,0.85-0.31,1.44-1.11,2.03l-0.96,0.71l1.16,0.27c0.17,0.05,4.44,1.04,10.02,1.04c4.43,0,8.87-0.8,9.04-0.83v-0.09v-7.38
		l-0.76,0.78c0,0-0.75,0.61-2.72,1.26c-1.24,0.41-2.59,0.62-4.51,0.7c-2.95,0.13-3.88,0-4.55-0.1v-5.1H273.39z M188.34,25
		c-0.76-0.57-1.07-1.15-1.11-2.06c0,0.01-0.01-5.65-0.01-5.65c0-1.28-0.86-1.68-0.86-1.68l-11.84-7.18V5.88
		c0.68-0.1,1.61-0.23,4.56-0.1c1.93,0.09,3.27,0.3,4.51,0.7c1.98,0.65,2.72,1.26,2.73,1.27l0.91,0.75c0,0.01-0.01-7.35-0.01-7.35
		l-0.45-0.09c-0.17-0.04-4.31-0.82-8.74-0.82c-5.58,0-9.84,0.98-10.02,1.03l-1.15,0.27l0.95,0.71c0.77,0.57,1.08,1.15,1.11,2.06
		c0-0.01-0.01,5.21-0.01,5.21c0,1.64,1.22,2.31,1.22,2.31l11.51,7.05v2.49h0c-0.67,0.1-1.61,0.23-4.55,0.1
		c-1.92-0.08-3.27-0.29-4.51-0.7c-1.98-0.65-2.72-1.25-2.73-1.26l-0.91-0.75c0,0,0.01,7.35,0.01,7.35l0.45,0.09
		c0.17,0.03,4.31,0.83,8.75,0.83c5.58,0,9.83-1,10.01-1.04l1.15-0.27L188.34,25z"/>
	<path fill="#CEB888" d="M11.52,3.7C8.36,3.64,5.89,4.09,5.89,4.09v9.74h12.47v1.33H5.89l-0.01,9.4l-1.33,0.02L4.56,2.99
		c0,0,2.69-0.61,6.91-0.61c2.31,0,4.61,0.17,7.23,0.6V4.9c0,0-0.99-0.5-2.58-0.78C14.48,3.83,13.8,3.77,11.52,3.7 M241.38,24.89
		h1.33V4l7.72-0.02v-1.2H233V4l8.39,0L241.38,24.89z M209.7,2.78h-17.43V4l8.39,0l0,20.88h1.32V4l7.73-0.03V2.78z M82.07,15.02
		l4.28,9.74h-1.38l-4.31-9.74l-6.75,0.01v9.72h-1.3l0.02-21.86c0,0,3.6-0.43,6.38-0.43s6.4,0.46,6.4,0.46
		c0.47,2.72,0.58,4.46,0.58,6.47c0,1.86-0.24,4.64-0.53,5.64L82.07,15.02z M84.24,13.95c0.37-2.03,0.36-3.03,0.39-4.48
		c0.03-1.43-0.07-3.13-0.42-5.24c0,0-1.09-0.39-5.16-0.44c-3.42-0.05-5.15,0.34-5.15,0.34l0.01,9.81H84.24z M121.8,3.06
		c0,0,2.33,4.36,2.21,11.6c-0.05,3.36-0.46,6.71-1.84,10.13l-12.98,0.02l-0.05-21.76L121.8,3.06z M122.75,14.66
		c0.06-5.85-1.77-10.31-1.77-10.31h-10.55v19.08h10.81C121.24,23.42,122.69,20.51,122.75,14.66 M224.9,2.8l5.28,22.21l-1.4,0.02
		l-0.83-3.55h-11.2l-0.9,3.61l-1.33,0.02l5.31-22.31H224.9z M227.78,20.26l-3.83-16.14h-3.27L217,20.26H227.78z M142.74,2.8
		l5.29,22.21l-1.4,0.02l-0.84-3.55H134.6l-0.9,3.61l-1.33,0.02l5.3-22.31H142.74z M145.63,20.26l-3.82-16.14h-3.27l-3.68,16.14
		H145.63z M33.9,23.98c-2.98,0.07-5.32-0.36-5.32-0.36l0.01-20.67h-1.26v21.71c0,0,2.53,0.59,6.51,0.59c2.19,0,4.9-0.16,7.39-0.57
		l0.05-1.81c0,0-0.97,0.47-2.46,0.74C37.25,23.87,36.06,23.93,33.9,23.98 M96.99,24.76h1.25l0.01-21.84H97L96.99,24.76z M49.13,3.04
		c0,0,2.31-0.51,7.39-0.5c4.26,0,6.52,0.54,6.52,0.54l-0.13,21.64c0,0-2.31,0.49-7.4,0.49c-3.97,0-6.52-0.54-6.52-0.54L49.13,3.04
		 M61.79,4.13c0,0-2.34-0.37-5.32-0.37c-4.32,0-6.19,0.4-6.19,0.4l-0.03,19.47c0,0,2.34,0.36,5.32,0.36c4.32,0,6.19-0.4,6.19-0.4
		L61.79,4.13z M272.7,14.3v-1.25h-12.34V4.2c0,0,2.34-0.43,5.32-0.36c2.15,0.05,3.35,0.11,4.92,0.38c1.5,0.26,2.47,0.73,2.47,0.73
		l-0.06-1.81c-2.49-0.41-5.2-0.57-7.39-0.57c-3.98,0-6.52,0.58-6.52,0.58l-0.01,21.39c0,0,2.54,0.58,6.52,0.58
		c2.18,0,4.91-0.16,7.38-0.56l0.05-1.82c0,0-0.97,0.47-2.46,0.73c-1.56,0.28-2.76,0.33-4.91,0.39c-2.99,0.07-5.32-0.36-5.32-0.36
		l0.01-9.21H272.7z M184.13,16.81l-10.76-6.53c0,0-1-0.56-1-1.58l0-4.45c0,0,2.34-0.43,5.32-0.36c2.15,0.04,3.35,0.11,4.92,0.38
		C184.1,4.53,185.07,5,185.07,5l-0.05-1.81c-2.48-0.41-5.19-0.56-7.39-0.56c-3.97,0-6.52,0.58-6.52,0.58l-0.01,5.91
		c0,1.19,1.07,1.84,1.07,1.84l10.57,6.46c0,0,1.07,0.63,1.07,1.71l0.01,4.48c0,0-2.34,0.42-5.32,0.36
		c-2.15-0.06-3.35-0.12-4.92-0.39c-1.49-0.25-2.46-0.73-2.46-0.73l0.05,1.82c2.48,0.4,5.19,0.56,7.38,0.56
		c3.98,0,6.52-0.58,6.52-0.58l-0.01-6.2C185.07,17.31,184.13,16.81,184.13,16.81"/>
</g>
</svg>
