<?xml version="1.0" encoding="UTF-8"?>
<svg version="1.1" xmlns="http://www.w3.org/2000/svg" width="285" height="350">
<path d="M0 0 C93.72 0 187.44 0 284 0 C284.020625 25.53375 284.04125 51.0675 284.0625 77.375 C284.071604 85.44888184 284.08070801 93.52276367 284.09008789 101.84130859 C284.09460449 111.67114258 284.09460449 111.67114258 284.09544373 116.26724243 C284.09637852 119.48966149 284.10013846 122.71206421 284.10557556 125.93447876 C284.11240951 130.03882056 284.11449583 134.14313844 284.11307228 138.2474854 C284.11337016 139.75755613 284.11536789 141.26762765 284.11921513 142.77769351 C284.12415469 144.81015355 284.12240118 146.84262664 284.12025452 148.87509155 C284.12163721 150.58686112 284.12163721 150.58686112 284.12304783 152.3332119 C284 155 284 155 283 157 C258.25 157 233.5 157 208 157 C208 177.46 208 197.92 208 219 C190.675 219.495 190.675 219.495 173 220 C173.66 220.66 174.32 221.32 175 222 C168.4 222 161.8 222 155 222 C155 224.31 155 226.62 155 229 C162.59 229 170.18 229 178 229 C179.21955116 231.43910232 179.12314886 232.99377126 179.12025452 235.72024536 C179.12232076 237.21056369 179.12232076 237.21056369 179.12442875 238.73098946 C179.12083064 239.82926001 179.11723253 240.92753056 179.11352539 242.05908203 C179.11364593 243.22896101 179.11376646 244.39883999 179.11389065 245.60416985 C179.11314199 249.40540315 179.10551584 253.20658792 179.09765625 257.0078125 C179.09618669 259.34887671 179.09516607 261.68994125 179.09460449 264.03100586 C179.08935327 272.7290089 179.07539217 281.42700492 179.0625 290.125 C179.041875 309.55375 179.02125 328.9825 179 349 C119.93 349 60.86 349 0 349 C0 309.4 0 269.8 0 229 C8.25 229 16.5 229 25 229 C25 192.7 25 156.4 25 119 C16.75 119 8.5 119 0 119 C0 79.73 0 40.46 0 0 Z M26 117 C26 154.62 26 192.24 26 231 C26.33 231 26.66 231 27 231 C27 193.38 27 155.76 27 117 C26.67 117 26.34 117 26 117 Z M153 220 C153 222.97 153 225.94 153 229 C153.33 229 153.66 229 154 229 C154 226.03 154 223.06 154 220 C153.67 220 153.34 220 153 220 Z " fill="#BABEC0" transform="translate(0,1)"/>
<path d="M0 0 C68.31 0 136.62 0 207 0 C207 25.74 207 51.48 207 78 C190.17 78 173.34 78 156 78 C156 65.79 156 53.58 156 41 C129.27 41 102.54 41 75 41 C75 61.46 75 81.92 75 103 C92.49 103 109.98 103 128 103 C128 116.2 128 129.4 128 143 C110.51 143 93.02 143 75 143 C75 172.37 75 201.74 75 232 C83.58 232 92.16 232 101 232 C101 245.2 101 258.4 101 272 C67.67 272 34.34 272 0 272 C0 258.8 0 245.6 0 232 C8.58 232 17.16 232 26 232 C26 168.97 26 105.94 26 41 C17.42 41 8.84 41 0 41 C0 27.47 0 13.94 0 0 Z " fill="#7B122D" transform="translate(39,39)"/>
<path d="M0 0 C93.72 0 187.44 0 284 0 C284.020625 25.53375 284.04125 51.0675 284.0625 77.375 C284.071604 85.44888184 284.08070801 93.52276367 284.09008789 101.84130859 C284.09460449 111.67114258 284.09460449 111.67114258 284.09544373 116.26724243 C284.09637852 119.48966149 284.10013846 122.71206421 284.10557556 125.93447876 C284.11240951 130.03882056 284.11449583 134.14313844 284.11307228 138.2474854 C284.11337016 139.75755613 284.11536789 141.26762765 284.11921513 142.77769351 C284.12415469 144.81015355 284.12240118 146.84262664 284.12025452 148.87509155 C284.12163721 150.58686112 284.12163721 150.58686112 284.12304783 152.3332119 C284 155 284 155 283 157 C258.25 157 233.5 157 208 157 C208 177.46 208 197.92 208 219 C190.675 219.495 190.675 219.495 173 220 C173.66 220.66 174.32 221.32 175 222 C168.4 222 161.8 222 155 222 C155 224.31 155 226.62 155 229 C162.59 229 170.18 229 178 229 C179.21955116 231.43910232 179.12314886 232.99377126 179.12025452 235.72024536 C179.12232076 237.21056369 179.12232076 237.21056369 179.12442875 238.73098946 C179.12083064 239.82926001 179.11723253 240.92753056 179.11352539 242.05908203 C179.11364593 243.22896101 179.11376646 244.39883999 179.11389065 245.60416985 C179.11314199 249.40540315 179.10551584 253.20658792 179.09765625 257.0078125 C179.09618669 259.34887671 179.09516607 261.68994125 179.09460449 264.03100586 C179.08935327 272.7290089 179.07539217 281.42700492 179.0625 290.125 C179.041875 309.55375 179.02125 328.9825 179 349 C119.93 349 60.86 349 0 349 C0 309.4 0 269.8 0 229 C8.25 229 16.5 229 25 229 C25 192.7 25 156.4 25 119 C16.75 119 8.5 119 0 119 C0 79.73 0 40.46 0 0 Z M16 15 C16 43.38 16 71.76 16 101 C24.91 101 33.82 101 43 101 C43 149.18 43 197.36 43 247 C34.09 247 25.18 247 16 247 C16 275.38 16 303.76 16 333 C64.51 333 113.02 333 163 333 C163 304.29 163 275.58 163 246 C154.42 246 145.84 246 137 246 C137 232.14 137 218.28 137 204 C154.49 204 171.98 204 190 204 C190 182.55 190 161.1 190 139 C216.07 139 242.14 139 269 139 C269 98.08 269 57.16 269 15 C185.51 15 102.02 15 16 15 Z M26 117 C26 154.62 26 192.24 26 231 C26.33 231 26.66 231 27 231 C27 193.38 27 155.76 27 117 C26.67 117 26.34 117 26 117 Z M153 220 C153 222.97 153 225.94 153 229 C153.33 229 153.66 229 154 229 C154 226.03 154 223.06 154 220 C153.67 220 153.34 220 153 220 Z " fill="#1F231D" transform="translate(0,1)"/>
<path d="M0 0 C74.91 0 149.82 0 227 0 C227 32.34 227 64.68 227 98 C203.57 98 180.14 98 156 98 C156 85.79 156 73.58 156 61 C135.87 61 115.74 61 95 61 C95 74.86 95 88.72 95 103 C112.49 103 129.98 103 148 103 C148 122.8 148 142.6 148 163 C130.51 163 113.02 163 95 163 C95 185.44 95 207.88 95 231 C103.91 231 112.82 231 122 231 C122 251.13 122 271.26 122 292 C81.41 292 40.82 292 -1 292 C-1 271.87 -1 251.74 -1 231 C7.91 231 16.82 231 26 231 C26 174.9 26 118.8 26 61 C17.42 61 8.84 61 0 61 C0 40.87 0 20.74 0 0 Z M10 10 C10 23.53 10 37.06 10 51 C18.58 51 27.16 51 36 51 C36 114.03 36 177.06 36 242 C27.42 242 18.84 242 10 242 C10 255.2 10 268.4 10 282 C43.33 282 76.66 282 111 282 C111 268.8 111 255.6 111 242 C102.42 242 93.84 242 85 242 C85 212.63 85 183.26 85 153 C102.49 153 119.98 153 138 153 C138 139.8 138 126.6 138 113 C120.51 113 103.02 113 85 113 C85 92.54 85 72.08 85 51 C111.73 51 138.46 51 166 51 C166 63.21 166 75.42 166 88 C182.83 88 199.66 88 217 88 C217 62.26 217 36.52 217 10 C148.69 10 80.38 10 10 10 Z " fill="#FBFAFB" transform="translate(29,29)"/>
<path d="M0 0 C0.33 0 0.66 0 1 0 C1 37.95 1 75.9 1 115 C-7.58 115 -16.16 115 -25 115 C-25 152.95 -25 190.9 -25 230 C33.08 230 91.16 230 151 230 C151 230.66 151 231.32 151 232 C92.26 232 33.52 232 -27 232 C-27 193.06 -27 154.12 -27 114 C-18.09 114 -9.18 114 0 114 C0 76.38 0 38.76 0 0 Z " fill="#313330" transform="translate(27,118)"/>
<path d="M0 0 C2.31 0 4.62 0 7 0 C7 35.97 7 71.94 7 109 C6.67 109 6.34 109 6 109 C6 99.76 6 90.52 6 81 C4.35 81 2.7 81 1 81 C-0.09963021 64.45223897 -0.12265798 47.92443498 -0.06866455 31.34942627 C-0.05824814 27.8019675 -0.0538286 24.25450106 -0.04882812 20.70703125 C-0.0382531 13.80466942 -0.02129397 6.90233691 0 0 Z " fill="#030303" transform="translate(35,120)"/>
<path d="M0 0 C0.33 0 0.66 0 1 0 C1 38.61 1 77.22 1 117 C0.67 117 0.34 117 0 117 C0 78.39 0 39.78 0 0 Z " fill="#000000" transform="translate(180,232)"/>
<path d="M0 0 C3.45879534 -0.08064549 6.91572741 -0.1403281 10.375 -0.1875 C11.35984375 -0.21263672 12.3446875 -0.23777344 13.359375 -0.26367188 C14.77089844 -0.27817383 14.77089844 -0.27817383 16.2109375 -0.29296875 C17.08024902 -0.3086792 17.94956055 -0.32438965 18.84521484 -0.34057617 C19.55629395 -0.22818604 20.26737305 -0.1157959 21 0 C21.66 0.99 22.32 1.98 23 3 C16.4 3 9.8 3 3 3 C3 5.31 3 7.62 3 10 C10.59 10 18.18 10 26 10 C26 10.33 26 10.66 26 11 C22.04204914 11.19625099 18.08363065 11.38051982 14.125 11.5625 C12.43310547 11.64661133 12.43310547 11.64661133 10.70703125 11.73242188 C9.63066406 11.78076172 8.55429688 11.82910156 7.4453125 11.87890625 C5.95281982 11.94960327 5.95281982 11.94960327 4.43017578 12.02172852 C2 12 2 12 0 11 C0 7.37 0 3.74 0 0 Z M1 1 C1 3.97 1 6.94 1 10 C1.33 10 1.66 10 2 10 C2 7.03 2 4.06 2 1 C1.67 1 1.34 1 1 1 Z " fill="#050505" transform="translate(152,220)"/>
<path d="M0 0 C7.59 0 15.18 0 23 0 C23 0.33 23 0.66 23 1 C15.41 1 7.82 1 0 1 C0 0.67 0 0.34 0 0 Z " fill="#000000" transform="translate(182,221)"/>
</svg>
