<?xml version="1.0" standalone="no"?>
<!DOCTYPE svg PUBLIC "-//W3C//DTD SVG 20010904//EN"
 "http://www.w3.org/TR/2001/REC-SVG-20010904/DTD/svg10.dtd">
<svg version="1.0" xmlns="http://www.w3.org/2000/svg"
 width="200.000000pt" height="198.000000pt" viewBox="0 0 200.000000 198.000000"
 preserveAspectRatio="xMidYMid meet">

<g transform="translate(0.000000,198.000000) scale(0.100000,-0.100000)"
fill="#000000" stroke="none">
<path d="M770 1570 c-14 -4 -72 -31 -130 -60 l-105 -53 -160 2 c-225 2 -263
-12 -181 -68 43 -30 45 -33 56 -103 23 -144 42 -223 61 -258 43 -78 56 -93
113 -128 l59 -37 156 0 c182 0 213 10 294 89 26 26 61 51 76 56 26 7 34 3 82
-47 82 -82 118 -95 281 -101 112 -3 146 -1 189 13 30 10 59 24 66 31 7 7 16
14 20 16 5 1 27 25 50 52 49 55 71 121 98 281 15 92 19 103 50 132 38 35 44
57 19 67 -9 3 -98 6 -198 6 l-183 0 -117 55 c-64 30 -127 55 -140 55 -47 0
-73 -61 -40 -94 14 -15 -2 -16 -175 -16 l-190 0 17 30 c13 22 14 34 6 46 -17
29 -47 42 -74 34z m175 -231 c4 -6 -3 -47 -15 -92 -13 -45 -30 -106 -37 -135
-17 -61 -63 -119 -110 -138 -21 -9 -73 -14 -143 -14 -200 0 -252 43 -289 234
-12 59 -21 118 -21 132 l0 24 304 0 c206 0 307 -3 311 -11z m775 -14 c0 -52
-40 -227 -60 -263 -24 -42 -71 -78 -121 -92 -19 -6 -82 -10 -140 -10 -181 0
-211 26 -271 234 -21 72 -38 134 -38 138 0 3 77 7 172 8 95 0 174 3 177 5 2 3
67 5 143 5 l138 0 0 -25z"/>
<path d="M573 1307 c-24 -12 -39 -37 -23 -37 14 0 12 -74 -2 -105 -11 -25 -48
-35 -48 -13 0 9 -3 9 -11 1 -15 -15 -3 -48 33 -89 41 -46 77 -64 132 -64 37 0
52 6 82 32 58 51 86 138 44 138 -24 0 -46 33 -55 83 -5 31 -3 37 7 32 7 -4 5
0 -4 10 -21 22 -121 30 -155 12z"/>
<path d="M1331 1309 c-20 -8 -22 -14 -17 -47 8 -45 -22 -102 -54 -102 -53 0
10 -114 87 -157 44 -25 87 -16 137 28 25 22 46 45 46 51 0 6 -16 26 -35 45
-19 19 -35 38 -35 43 0 6 -6 10 -12 10 -7 0 -31 31 -53 69 -37 62 -43 67 -64
60z"/>
<path d="M797 712 c-30 -33 -14 -72 36 -91 29 -11 31 -9 27 42 -1 15 3 27 9
27 6 0 8 6 5 14 -4 11 4 16 28 19 20 2 9 4 -28 5 -48 2 -64 -2 -77 -16z"/>
<path d="M998 723 c7 -3 16 -2 19 1 4 3 -2 6 -13 5 -11 0 -14 -3 -6 -6z"/>
<path d="M1110 715 c6 -8 20 -17 31 -20 14 -5 19 -16 19 -41 0 -26 4 -34 18
-34 31 0 62 29 62 59 0 40 -17 51 -83 51 -51 0 -58 -2 -47 -15z"/>
<path d="M950 550 c17 -11 81 -11 125 0 21 5 5 8 -55 9 -58 0 -80 -2 -70 -9z"/>
<path d="M750 371 c0 -7 -5 -9 -12 -5 -7 5 -8 3 -3 -5 5 -9 10 -10 18 -2 6 6
8 14 4 18 -4 3 -7 1 -7 -6z"/>
<path d="M1270 369 c0 -5 5 -7 10 -4 6 3 10 8 10 11 0 2 -4 4 -10 4 -5 0 -10
-5 -10 -11z"/>
<path d="M820 329 c0 -14 55 -17 69 -4 11 11 7 13 -28 12 -22 -1 -41 -5 -41
-8z"/>
<path d="M1133 327 c-3 -5 -2 -11 1 -14 3 -4 6 -2 6 4 0 6 11 8 24 6 13 -3 27
0 30 6 4 6 -5 9 -25 8 -17 -1 -33 -6 -36 -10z"/>
<path d="M1070 320 c0 -5 11 -10 25 -10 14 0 25 5 25 10 0 6 -11 10 -25 10
-14 0 -25 -4 -25 -10z"/>
</g>
</svg>
