<svg id="svg" version="1.1" xmlns="http://www.w3.org/2000/svg" xmlns:xlink="http://www.w3.org/1999/xlink" width="400" height="101.21580547112461" viewBox="0, 0, 400,101.21580547112461"><g id="svgg"><path id="path0" d="M88.377 0.786 C 88.631 0.825,89.006 0.824,89.211 0.784 C 89.416 0.744,89.208 0.713,88.750 0.714 C 88.292 0.716,88.124 0.748,88.377 0.786 M91.708 0.786 C 91.960 0.824,92.373 0.824,92.625 0.786 C 92.877 0.748,92.671 0.717,92.167 0.717 C 91.662 0.717,91.456 0.748,91.708 0.786 M199.628 0.787 C 199.928 0.825,200.378 0.824,200.628 0.786 C 200.878 0.748,200.633 0.717,200.083 0.718 C 199.533 0.719,199.328 0.750,199.628 0.787 M203.628 0.787 C 203.928 0.825,204.378 0.824,204.628 0.786 C 204.878 0.748,204.633 0.717,204.083 0.718 C 203.533 0.719,203.328 0.750,203.628 0.787 M197.208 0.948 C 197.369 0.990,197.631 0.990,197.792 0.948 C 197.952 0.906,197.821 0.872,197.500 0.872 C 197.179 0.872,197.048 0.906,197.208 0.948 M206.375 0.948 C 206.535 0.990,206.798 0.990,206.958 0.948 C 207.119 0.906,206.987 0.872,206.667 0.872 C 206.346 0.872,206.215 0.906,206.375 0.948 M36.539 12.792 C 36.560 18.819,36.597 21.988,36.621 19.833 C 36.737 9.671,36.738 1.833,36.625 1.833 C 36.556 1.833,36.517 6.765,36.539 12.792 M128.249 31.333 L 128.250 60.750 136.292 60.752 L 144.333 60.755 136.334 60.709 L 128.334 60.663 128.291 31.290 L 128.249 1.917 128.249 31.333 M311.042 1.948 C 311.202 1.990,311.465 1.990,311.625 1.948 C 311.785 1.906,311.654 1.872,311.333 1.872 C 311.012 1.872,310.881 1.906,311.042 1.948 M313.500 2.000 C 313.828 2.212,314.333 2.212,314.333 2.000 C 314.333 1.908,314.090 1.834,313.792 1.836 C 313.381 1.838,313.310 1.877,313.500 2.000 M315.000 2.167 C 315.323 2.375,315.500 2.375,315.500 2.167 C 315.500 2.075,315.331 2.001,315.125 2.003 C 314.822 2.005,314.798 2.036,315.000 2.167 M76.417 3.452 C 76.233 3.496,76.013 3.599,75.928 3.680 C 75.842 3.761,76.021 3.756,76.326 3.669 C 77.184 3.423,77.257 3.250,76.417 3.452 M103.834 3.377 C 103.880 3.430,104.255 3.588,104.667 3.728 C 105.295 3.941,105.364 3.944,105.093 3.741 C 104.915 3.609,104.678 3.500,104.565 3.500 C 104.453 3.500,104.223 3.451,104.055 3.390 C 103.887 3.330,103.788 3.324,103.834 3.377 M220.333 12.167 C 220.333 16.944,220.391 19.500,220.500 19.500 C 220.609 19.500,220.667 16.944,220.667 12.167 C 220.667 7.389,220.609 4.833,220.500 4.833 C 220.391 4.833,220.333 7.389,220.333 12.167 M70.690 6.839 C 70.173 7.269,70.406 7.264,70.955 6.833 C 71.188 6.650,71.312 6.502,71.231 6.506 C 71.150 6.509,70.906 6.659,70.690 6.839 M68.583 8.604 C 68.284 8.859,68.222 8.961,68.430 8.857 C 68.736 8.705,69.309 8.157,69.145 8.173 C 69.111 8.176,68.858 8.370,68.583 8.604 M111.833 8.386 C 111.833 8.427,112.109 8.670,112.445 8.927 C 112.782 9.184,113.004 9.309,112.940 9.205 C 112.808 8.991,111.833 8.270,111.833 8.386 M113.462 9.919 C 113.671 10.322,114.335 10.947,114.329 10.734 C 114.326 10.651,114.091 10.358,113.806 10.083 C 113.453 9.743,113.344 9.690,113.462 9.919 M380.645 10.224 C 380.747 10.347,380.781 10.497,380.721 10.557 C 380.660 10.617,380.699 10.667,380.806 10.667 C 381.029 10.667,381.038 10.626,380.899 10.264 C 380.843 10.119,380.722 10.000,380.628 10.000 C 380.522 10.000,380.528 10.083,380.645 10.224 M66.643 10.486 C 66.427 10.661,66.293 10.848,66.347 10.902 C 66.400 10.955,66.619 10.811,66.834 10.583 C 67.298 10.089,67.196 10.037,66.643 10.486 M180.083 10.667 C 179.941 10.942,179.862 11.167,179.908 11.167 C 179.954 11.167,180.108 10.942,180.250 10.667 C 180.392 10.392,180.471 10.167,180.425 10.167 C 180.379 10.167,180.226 10.392,180.083 10.667 M64.919 12.620 L 64.626 13.083 65.012 12.713 C 65.225 12.509,65.356 12.301,65.305 12.249 C 65.254 12.198,65.080 12.365,64.919 12.620 M201.963 14.122 C 202.355 14.157,202.955 14.157,203.296 14.121 C 203.637 14.085,203.317 14.057,202.583 14.057 C 201.850 14.058,201.571 14.087,201.963 14.122 M300.242 21.583 C 300.242 25.067,300.264 26.515,300.291 24.803 C 300.318 23.090,300.319 20.240,300.291 18.469 C 300.264 16.699,300.242 18.100,300.242 21.583 M261.041 38.373 L 261.000 60.663 252.958 60.708 L 244.917 60.753 252.964 60.793 C 259.277 60.825,261.028 60.788,261.090 60.625 C 261.133 60.510,261.149 50.442,261.126 38.250 L 261.082 16.083 261.041 38.373 M313.787 16.679 C 313.991 16.891,314.199 17.023,314.251 16.972 C 314.302 16.920,314.135 16.747,313.880 16.586 L 313.417 16.293 313.787 16.679 M118.831 17.826 C 118.918 18.130,119.036 18.425,119.092 18.481 C 119.248 18.637,118.977 17.605,118.815 17.428 C 118.736 17.342,118.744 17.521,118.831 17.826 M100.132 18.917 C 100.228 19.100,100.625 19.550,101.014 19.917 C 101.620 20.488,101.672 20.512,101.376 20.083 C 100.920 19.424,99.891 18.458,100.132 18.917 M332.209 19.417 C 332.211 19.783,332.245 19.914,332.285 19.706 C 332.324 19.499,332.323 19.199,332.281 19.040 C 332.239 18.880,332.207 19.050,332.209 19.417 M178.053 20.000 C 178.053 20.596,178.084 20.840,178.121 20.542 C 178.158 20.244,178.158 19.756,178.121 19.458 C 178.084 19.160,178.053 19.404,178.053 20.000 M315.868 21.583 C 315.868 22.682,315.878 22.713,316.037 22.111 C 316.152 21.677,316.152 21.301,316.037 20.944 C 315.888 20.480,315.867 20.558,315.868 21.583 M332.212 23.000 C 332.212 23.412,332.245 23.581,332.284 23.375 C 332.324 23.169,332.324 22.831,332.284 22.625 C 332.245 22.419,332.212 22.587,332.212 23.000 M353.783 22.732 C 353.715 22.906,353.698 23.087,353.746 23.135 C 353.898 23.287,354.032 23.038,353.968 22.721 C 353.910 22.431,353.901 22.432,353.783 22.732 M77.298 23.477 C 77.149 23.857,77.056 24.167,77.092 24.167 C 77.226 24.167,77.685 23.138,77.628 22.966 C 77.595 22.868,77.446 23.098,77.298 23.477 M313.821 26.446 L 313.417 26.893 313.958 26.518 C 314.505 26.141,314.615 26.000,314.362 26.000 C 314.287 26.000,314.043 26.201,313.821 26.446 M310.000 27.667 C 310.000 27.758,310.146 27.833,310.323 27.833 C 310.501 27.833,310.693 27.758,310.750 27.667 C 310.808 27.572,310.668 27.500,310.427 27.500 C 310.192 27.500,310.000 27.575,310.000 27.667 M121.539 28.333 C 121.539 28.654,121.573 28.785,121.615 28.625 C 121.657 28.465,121.657 28.202,121.615 28.042 C 121.573 27.881,121.539 28.012,121.539 28.333 M105.064 31.250 C 105.064 32.350,105.091 32.778,105.124 32.202 C 105.156 31.625,105.156 30.725,105.123 30.202 C 105.090 29.678,105.063 30.150,105.064 31.250 M59.000 31.240 C 59.000 32.080,59.069 32.667,59.167 32.667 C 59.264 32.667,59.333 32.114,59.333 31.343 C 59.333 30.615,59.258 29.973,59.167 29.917 C 59.061 29.851,59.000 30.332,59.000 31.240 M121.721 31.250 C 121.722 31.892,121.752 32.134,121.788 31.788 C 121.824 31.442,121.824 30.917,121.787 30.621 C 121.750 30.325,121.721 30.608,121.721 31.250 M221.684 33.328 C 221.880 33.706,222.075 33.981,222.116 33.939 C 222.215 33.841,221.718 32.885,221.498 32.748 C 221.403 32.690,221.487 32.951,221.684 33.328 M328.252 33.953 L 327.960 34.417 328.346 34.046 C 328.558 33.843,328.690 33.634,328.638 33.583 C 328.587 33.532,328.413 33.698,328.252 33.953 M121.539 34.167 C 121.539 34.487,121.573 34.619,121.615 34.458 C 121.657 34.298,121.657 34.035,121.615 33.875 C 121.573 33.715,121.539 33.846,121.539 34.167 M390.978 37.890 C 391.080 38.013,391.114 38.163,391.054 38.224 C 390.994 38.284,391.032 38.333,391.139 38.333 C 391.362 38.333,391.371 38.293,391.232 37.930 C 391.177 37.785,391.055 37.667,390.962 37.667 C 390.855 37.667,390.861 37.750,390.978 37.890 M36.582 49.500 L 36.583 60.750 44.542 60.752 L 52.500 60.755 44.585 60.709 L 36.669 60.663 36.624 49.457 L 36.580 38.250 36.582 49.500 M103.616 38.399 C 103.548 38.572,103.531 38.754,103.579 38.802 C 103.731 38.954,103.865 38.705,103.801 38.388 C 103.743 38.098,103.734 38.099,103.616 38.399 M156.167 39.000 L 144.250 39.087 156.208 39.127 C 164.096 39.153,168.167 39.110,168.167 39.000 C 168.167 38.908,168.148 38.851,168.125 38.873 C 168.102 38.895,162.721 38.952,156.167 39.000 M322.744 39.958 C 323.001 40.348,323.243 40.667,323.282 40.667 C 323.402 40.667,322.764 39.652,322.513 39.446 C 322.383 39.338,322.487 39.569,322.744 39.958 M206.174 40.759 C 206.292 40.902,206.545 41.099,206.736 41.198 C 207.046 41.359,207.040 41.331,206.679 40.939 C 206.252 40.475,205.807 40.316,206.174 40.759 M300.207 50.623 L 300.167 60.663 292.292 60.708 L 284.417 60.753 292.297 60.793 C 298.477 60.825,300.194 60.788,300.257 60.625 C 300.301 60.510,300.316 55.954,300.292 50.500 L 300.247 40.583 300.207 50.623 M223.709 42.250 C 223.711 42.617,223.745 42.747,223.785 42.540 C 223.824 42.332,223.823 42.032,223.781 41.873 C 223.739 41.714,223.707 41.883,223.709 42.250 M79.750 42.818 C 80.210 43.318,80.833 43.774,80.833 43.609 C 80.833 43.571,80.477 43.255,80.042 42.907 C 79.279 42.297,79.268 42.293,79.750 42.818 M100.667 43.015 C 100.346 43.294,100.234 43.449,100.419 43.359 C 100.723 43.213,101.478 42.494,101.317 42.504 C 101.280 42.507,100.987 42.737,100.667 43.015 M82.413 44.937 C 82.561 45.085,82.733 45.156,82.795 45.094 C 82.857 45.032,82.797 44.912,82.662 44.827 C 82.268 44.578,82.119 44.643,82.413 44.937 M118.304 45.835 C 117.944 46.693,118.062 46.692,118.500 45.833 C 118.687 45.467,118.782 45.167,118.712 45.168 C 118.641 45.169,118.458 45.469,118.304 45.835 M206.310 46.494 C 206.094 46.675,205.999 46.825,206.099 46.828 C 206.200 46.831,206.417 46.683,206.583 46.500 C 206.969 46.073,206.819 46.070,206.310 46.494 M327.265 46.875 C 327.502 47.310,327.719 47.667,327.749 47.667 C 327.903 47.667,327.592 46.997,327.239 46.571 L 326.835 46.083 327.265 46.875 M89.548 46.957 C 90.078 46.990,90.903 46.990,91.381 46.956 C 91.859 46.922,91.425 46.895,90.417 46.896 C 89.408 46.896,89.017 46.924,89.548 46.957 M394.503 47.292 C 394.501 47.498,394.575 47.667,394.667 47.667 C 394.875 47.667,394.875 47.490,394.667 47.167 C 394.536 46.965,394.505 46.988,394.503 47.292 M63.364 47.583 C 63.468 47.813,63.618 48.000,63.697 48.000 C 63.776 48.000,63.718 47.813,63.568 47.583 C 63.418 47.354,63.268 47.167,63.234 47.167 C 63.201 47.167,63.259 47.354,63.364 47.583 M196.333 48.333 C 196.663 48.546,197.667 48.546,197.667 48.333 C 197.667 48.242,197.310 48.168,196.875 48.169 C 196.302 48.171,196.153 48.216,196.333 48.333 M200.500 48.333 C 200.500 48.546,201.338 48.546,201.667 48.333 C 201.850 48.215,201.727 48.171,201.208 48.169 C 200.819 48.168,200.500 48.242,200.500 48.333 M65.667 50.959 C 65.667 51.051,65.779 51.219,65.917 51.333 C 66.056 51.449,66.167 51.467,66.167 51.374 C 66.167 51.282,66.054 51.114,65.917 51.000 C 65.777 50.884,65.667 50.866,65.667 50.959 M330.443 51.833 C 330.606 52.108,330.802 52.333,330.881 52.333 C 330.959 52.333,330.862 52.108,330.667 51.833 C 330.471 51.558,330.274 51.333,330.229 51.333 C 330.184 51.333,330.281 51.558,330.443 51.833 M67.044 52.483 C 67.267 52.749,67.743 53.213,68.100 53.514 C 68.488 53.842,68.350 53.647,67.755 53.031 C 66.699 51.936,66.371 51.683,67.044 52.483 M112.993 53.111 L 112.250 53.890 113.042 53.258 C 113.477 52.911,113.833 52.561,113.833 52.480 C 113.833 52.248,113.779 52.289,112.993 53.111 M312.167 52.553 C 312.167 52.685,312.273 52.881,312.404 52.989 C 312.598 53.151,312.624 53.124,312.550 52.840 C 312.441 52.423,312.167 52.218,312.167 52.553 M396.861 53.675 C 396.959 53.955,397.069 54.153,397.107 54.115 C 397.190 54.032,396.875 53.167,396.763 53.167 C 396.719 53.167,396.764 53.395,396.861 53.675 M218.837 55.747 C 218.434 56.157,218.146 56.535,218.198 56.587 C 218.249 56.638,218.608 56.302,218.994 55.840 C 219.865 54.800,219.802 54.763,218.837 55.747 M109.567 56.026 L 109.250 56.385 109.708 56.090 C 110.181 55.786,110.270 55.667,110.026 55.667 C 109.948 55.667,109.742 55.828,109.567 56.026 M74.167 57.982 C 74.167 58.167,74.679 58.376,74.811 58.245 C 74.864 58.192,74.797 58.079,74.662 57.993 C 74.350 57.796,74.167 57.792,74.167 57.982 M339.833 60.417 L 339.833 60.833 348.125 60.793 L 356.417 60.753 348.189 60.708 C 340.068 60.664,339.963 60.659,340.049 60.332 C 340.096 60.149,340.067 60.000,339.984 60.000 C 339.901 60.000,339.833 60.188,339.833 60.417 M399.425 60.375 C 399.529 60.650,399.042 60.669,390.809 60.707 L 382.083 60.747 390.740 60.792 C 399.351 60.836,400.033 60.797,399.523 60.292 C 399.355 60.125,399.336 60.141,399.425 60.375 M4.958 60.792 C 7.181 60.818,10.819 60.818,13.042 60.792 C 15.265 60.765,13.446 60.744,9.000 60.744 C 4.554 60.744,2.735 60.765,4.958 60.792 M321.946 60.792 C 324.530 60.817,328.805 60.817,331.446 60.792 C 334.088 60.766,331.975 60.745,326.750 60.745 C 321.525 60.745,319.363 60.766,321.946 60.792 M84.167 61.333 C 84.167 61.425,84.335 61.499,84.542 61.497 C 84.845 61.495,84.869 61.464,84.667 61.333 C 84.344 61.125,84.167 61.125,84.167 61.333 M191.740 61.349 C 191.689 61.432,191.839 61.500,192.073 61.500 C 192.584 61.500,192.625 61.405,192.167 61.285 C 191.984 61.237,191.792 61.266,191.740 61.349 M85.167 61.500 C 85.167 61.592,85.321 61.667,85.510 61.667 C 85.699 61.667,85.807 61.592,85.750 61.500 C 85.693 61.408,85.539 61.333,85.407 61.333 C 85.275 61.333,85.167 61.408,85.167 61.500 M95.083 61.500 C 95.027 61.592,95.135 61.667,95.323 61.667 C 95.512 61.667,95.667 61.592,95.667 61.500 C 95.667 61.408,95.559 61.333,95.427 61.333 C 95.294 61.333,95.140 61.408,95.083 61.500 M193.000 61.500 C 193.000 61.592,193.192 61.667,193.427 61.667 C 193.668 61.667,193.808 61.595,193.750 61.500 C 193.693 61.408,193.501 61.333,193.323 61.333 C 193.146 61.333,193.000 61.408,193.000 61.500 M204.917 61.500 C 204.860 61.592,204.968 61.667,205.157 61.667 C 205.346 61.667,205.500 61.592,205.500 61.500 C 205.500 61.408,205.392 61.333,205.260 61.333 C 205.128 61.333,204.973 61.408,204.917 61.500 M89.788 61.787 C 90.084 61.824,90.609 61.824,90.955 61.788 C 91.300 61.752,91.058 61.722,90.417 61.721 C 89.775 61.721,89.492 61.750,89.788 61.787 M198.713 61.789 C 199.152 61.824,199.827 61.823,200.213 61.788 C 200.600 61.754,200.242 61.725,199.417 61.726 C 198.592 61.726,198.275 61.755,198.713 61.789 M154.205 83.961 L 154.167 87.839 158.208 87.795 L 162.250 87.750 162.255 83.917 L 162.260 80.083 162.210 83.792 L 162.160 87.500 158.250 87.500 L 154.340 87.500 154.292 83.792 L 154.243 80.083 154.205 83.961 M179.577 87.917 C 179.577 92.225,179.598 94.011,179.625 91.886 C 179.651 89.762,179.651 86.237,179.625 84.053 C 179.599 81.870,179.577 83.608,179.577 87.917 M209.833 82.164 L 209.833 84.162 204.625 84.210 L 199.417 84.257 204.750 84.254 L 210.083 84.250 210.130 82.208 C 210.160 80.887,210.116 80.167,210.005 80.167 C 209.897 80.167,209.833 80.904,209.833 82.164 M274.338 80.827 C 274.203 80.912,274.151 81.040,274.222 81.111 C 274.293 81.182,274.404 81.160,274.467 81.062 C 274.531 80.964,274.696 80.840,274.833 80.788 C 275.056 80.704,275.056 80.692,274.833 80.682 C 274.696 80.677,274.473 80.742,274.338 80.827 M265.499 83.201 C 265.454 84.548,265.475 85.592,265.547 85.521 C 265.618 85.449,265.655 84.346,265.629 83.070 L 265.582 80.750 265.499 83.201 M279.000 83.833 C 278.823 83.947,279.044 83.995,279.750 83.995 C 280.456 83.995,280.677 83.947,280.500 83.833 C 280.362 83.744,280.025 83.672,279.750 83.672 C 279.475 83.672,279.137 83.744,279.000 83.833 M260.208 84.119 C 260.460 84.158,260.873 84.158,261.125 84.119 C 261.377 84.081,261.171 84.050,260.667 84.050 C 260.162 84.050,259.956 84.081,260.208 84.119 M271.892 86.000 C 271.892 86.779,271.920 87.098,271.955 86.708 C 271.990 86.319,271.990 85.681,271.955 85.292 C 271.920 84.902,271.892 85.221,271.892 86.000 M276.699 86.332 C 276.742 86.468,277.033 86.724,277.347 86.901 C 277.936 87.232,277.915 87.197,277.102 86.498 C 276.809 86.245,276.651 86.180,276.699 86.332 M283.347 88.562 C 283.519 88.716,284.500 89.167,284.500 89.092 C 284.500 88.996,283.576 88.500,283.397 88.500 C 283.332 88.500,283.309 88.528,283.347 88.562 M201.802 91.958 C 203.114 91.986,205.214 91.986,206.468 91.958 C 207.723 91.930,206.650 91.907,204.083 91.907 C 201.517 91.907,200.490 91.930,201.802 91.958 M154.239 95.917 C 154.239 98.117,154.262 98.994,154.291 97.865 C 154.320 96.737,154.320 94.937,154.291 93.865 C 154.262 92.794,154.238 93.717,154.239 95.917 M162.239 95.917 C 162.239 98.117,162.262 98.994,162.291 97.865 C 162.320 96.737,162.320 94.937,162.291 93.865 C 162.262 92.794,162.238 93.717,162.239 95.917 M286.881 93.750 C 286.882 94.208,286.915 94.376,286.953 94.123 C 286.991 93.869,286.990 93.494,286.951 93.289 C 286.911 93.084,286.880 93.292,286.881 93.750 M265.566 96.667 C 265.566 97.996,265.592 98.540,265.624 97.875 C 265.655 97.210,265.655 96.123,265.624 95.458 C 265.592 94.794,265.566 95.337,265.566 96.667 M272.904 94.587 C 273.081 94.721,273.266 94.789,273.316 94.739 C 273.421 94.635,272.998 94.337,272.750 94.341 C 272.658 94.343,272.728 94.453,272.904 94.587 M264.292 94.929 C 263.669 95.267,263.707 95.407,264.333 95.083 C 264.608 94.941,264.833 94.789,264.833 94.746 C 264.833 94.638,264.815 94.645,264.292 94.929 M204.787 95.792 L 210.156 95.838 210.209 97.877 L 210.261 99.917 210.297 97.792 L 210.333 95.667 204.875 95.706 L 199.417 95.745 204.787 95.792 M260.211 95.953 C 260.464 95.991,260.839 95.990,261.044 95.951 C 261.249 95.911,261.042 95.880,260.583 95.881 C 260.125 95.882,259.957 95.915,260.211 95.953 M113.551 96.125 C 114.633 96.154,116.358 96.154,117.384 96.124 C 118.410 96.095,117.525 96.071,115.417 96.071 C 113.308 96.072,112.469 96.095,113.551 96.125 M253.370 98.089 C 253.619 98.351,253.853 98.532,253.890 98.491 C 253.926 98.450,253.722 98.236,253.436 98.014 L 252.917 97.612 253.370 98.089 M272.500 98.937 C 272.500 99.004,273.448 99.500,273.575 99.500 C 273.891 99.500,273.572 99.219,273.083 99.066 C 272.762 98.965,272.500 98.907,272.500 98.937 M255.255 99.342 C 255.309 99.429,255.511 99.500,255.704 99.500 C 256.130 99.500,256.016 99.349,255.518 99.253 C 255.318 99.215,255.201 99.254,255.255 99.342 M283.583 99.333 L 283.250 99.477 283.583 99.486 C 283.767 99.491,284.029 99.422,284.167 99.333 C 284.498 99.119,284.082 99.119,283.583 99.333 M259.621 100.287 C 259.917 100.324,260.442 100.324,260.788 100.288 C 261.134 100.252,260.892 100.222,260.250 100.221 C 259.608 100.221,259.325 100.250,259.621 100.287 M278.296 100.289 C 278.688 100.324,279.288 100.324,279.629 100.288 C 279.971 100.252,279.650 100.223,278.917 100.224 C 278.183 100.224,277.904 100.254,278.296 100.289 " stroke="none" fill="#a6c2de" fill-rule="evenodd"></path><path id="path1" d="M87.530 1.018 C 87.376 1.073,86.655 1.171,85.928 1.236 C 76.170 2.099,66.739 8.432,62.632 16.878 C 61.393 19.425,59.988 23.596,59.965 24.795 C 59.962 25.003,59.896 25.211,59.820 25.258 C 59.744 25.305,59.723 25.454,59.775 25.589 C 59.827 25.723,59.817 25.965,59.752 26.125 C 59.368 27.085,59.340 35.434,59.717 36.500 C 59.766 36.637,59.809 36.862,59.814 37.000 C 59.845 37.832,60.566 40.531,61.315 42.620 C 63.370 48.345,67.228 53.150,72.678 56.775 C 74.378 57.906,79.918 60.333,80.798 60.333 C 80.970 60.333,81.163 60.385,81.226 60.448 C 81.289 60.511,81.470 60.576,81.628 60.592 C 81.787 60.608,82.704 60.777,83.667 60.967 C 92.892 62.788,102.875 60.754,109.776 55.647 C 112.065 53.953,113.291 52.720,116.093 49.290 C 116.225 49.128,116.333 48.954,116.333 48.903 C 116.333 48.852,116.550 48.495,116.815 48.110 C 121.238 41.682,122.756 30.131,120.229 22.133 C 119.999 21.404,119.800 20.663,119.787 20.487 C 119.773 20.311,119.715 20.167,119.658 20.167 C 119.600 20.167,119.457 19.849,119.341 19.460 C 119.026 18.409,117.410 15.265,116.462 13.861 C 111.777 6.918,104.734 2.713,95.333 1.247 C 94.284 1.083,87.870 0.895,87.530 1.018 M198.739 1.017 C 198.706 1.072,198.019 1.167,197.214 1.228 C 189.283 1.832,183.064 5.415,180.251 11.000 C 179.997 11.504,179.743 11.954,179.686 12.000 C 179.630 12.046,179.567 12.196,179.548 12.333 C 179.517 12.547,178.744 15.594,178.659 15.833 C 178.643 15.879,178.643 16.078,178.658 16.276 C 178.674 16.473,178.612 16.681,178.521 16.737 C 178.430 16.793,178.398 17.100,178.449 17.418 C 178.501 17.737,178.475 18.092,178.391 18.207 C 178.214 18.451,178.236 21.275,178.418 21.716 C 178.486 21.880,178.499 22.274,178.448 22.591 C 178.393 22.929,178.424 23.167,178.522 23.167 C 178.615 23.167,178.674 23.335,178.654 23.542 C 178.634 23.748,178.659 24.029,178.710 24.167 C 178.761 24.304,178.925 24.930,179.074 25.557 C 179.223 26.185,179.606 27.216,179.924 27.848 C 180.243 28.481,180.519 29.055,180.539 29.124 C 180.622 29.419,182.310 31.348,183.083 32.034 C 185.362 34.052,189.365 35.841,193.625 36.745 C 194.840 37.003,195.833 37.271,195.833 37.341 C 195.833 37.411,195.983 37.430,196.167 37.382 C 196.360 37.331,196.500 37.377,196.500 37.490 C 196.500 37.598,196.566 37.646,196.646 37.596 C 196.835 37.479,201.233 38.352,201.302 38.520 C 201.331 38.590,201.447 38.613,201.559 38.570 C 201.870 38.450,204.166 39.247,205.358 39.888 C 208.140 41.382,208.589 44.578,206.335 46.832 C 204.622 48.544,199.227 49.125,193.833 48.177 C 191.344 47.739,191.105 47.693,189.913 47.419 C 188.848 47.175,184.815 45.722,184.669 45.530 C 184.622 45.468,184.446 45.393,184.279 45.365 C 183.905 45.301,180.772 43.607,180.083 43.097 C 179.808 42.893,179.490 42.671,179.375 42.603 C 179.210 42.506,179.167 43.976,179.167 49.731 L 179.167 56.983 180.571 57.748 C 181.343 58.169,182.431 58.667,182.988 58.855 C 183.544 59.043,184.000 59.263,184.000 59.343 C 184.000 59.424,184.112 59.446,184.250 59.394 C 184.387 59.341,184.500 59.385,184.500 59.492 C 184.500 59.599,184.558 59.651,184.628 59.607 C 184.699 59.563,185.393 59.715,186.170 59.943 C 188.382 60.592,187.943 60.506,191.583 61.006 C 193.050 61.208,194.362 61.424,194.500 61.486 C 195.041 61.730,203.531 61.561,205.500 61.267 C 208.133 60.873,210.692 60.282,212.083 59.746 C 212.725 59.498,213.344 59.292,213.458 59.287 C 213.573 59.282,213.667 59.221,213.667 59.152 C 213.667 59.083,213.937 58.937,214.267 58.828 C 217.725 57.687,221.690 52.843,222.699 48.530 C 222.885 47.734,223.078 46.971,223.128 46.833 C 223.178 46.696,223.202 46.482,223.182 46.358 C 223.161 46.234,223.193 46.009,223.252 45.858 C 223.596 44.984,223.597 39.610,223.254 38.792 C 223.186 38.631,223.174 38.388,223.227 38.250 C 223.280 38.112,223.246 38.000,223.151 38.000 C 223.056 38.000,222.997 37.869,223.018 37.708 C 223.061 37.385,222.791 36.315,222.375 35.167 C 221.064 31.542,217.902 28.517,213.667 26.833 C 212.887 26.523,212.225 26.209,212.194 26.134 C 212.163 26.059,212.085 26.031,212.019 26.071 C 211.954 26.112,211.267 25.969,210.492 25.755 C 209.717 25.540,208.765 25.313,208.376 25.251 C 207.987 25.189,207.625 25.068,207.573 24.983 C 207.520 24.898,207.414 24.867,207.336 24.915 C 207.259 24.963,206.064 24.740,204.681 24.420 C 203.298 24.100,201.922 23.796,201.625 23.744 C 198.014 23.120,195.489 21.990,194.568 20.583 C 194.238 20.080,194.052 17.667,194.343 17.667 C 194.424 17.667,194.446 17.554,194.394 17.417 C 194.341 17.279,194.385 17.167,194.492 17.167 C 194.599 17.167,194.649 17.106,194.603 17.031 C 194.235 16.436,197.798 13.909,198.298 14.409 C 198.347 14.458,198.497 14.405,198.633 14.292 C 198.916 14.057,204.997 13.994,206.417 14.211 C 206.875 14.281,207.415 14.338,207.617 14.338 C 207.818 14.338,208.030 14.414,208.087 14.505 C 208.143 14.597,208.256 14.631,208.338 14.581 C 208.783 14.306,215.500 16.453,215.500 16.870 C 215.500 16.952,215.564 16.980,215.642 16.932 C 215.821 16.821,217.863 17.796,219.078 18.573 C 219.589 18.899,220.080 19.167,220.170 19.167 C 220.547 19.167,220.374 5.047,219.993 4.781 C 219.545 4.467,216.321 3.045,215.750 2.910 C 215.658 2.888,214.571 2.604,213.333 2.278 C 209.928 1.382,199.091 0.445,198.739 1.017 M298.292 1.958 L 284.500 2.002 284.500 31.251 L 284.500 60.500 292.332 60.500 L 300.164 60.500 300.207 50.458 L 300.250 40.417 302.679 40.371 C 305.424 40.319,305.264 40.253,306.108 41.770 C 306.370 42.239,306.822 43.027,307.113 43.520 C 307.405 44.013,307.654 44.492,307.667 44.583 C 307.680 44.675,307.798 44.810,307.929 44.883 C 308.059 44.957,308.167 45.093,308.167 45.187 C 308.167 45.281,308.503 45.878,308.913 46.512 C 309.324 47.147,309.605 47.668,309.538 47.669 C 309.471 47.671,309.493 47.727,309.586 47.794 C 309.734 47.901,312.373 52.204,313.289 53.833 C 313.470 54.154,313.979 55.017,314.421 55.750 C 314.863 56.483,315.495 57.533,315.825 58.083 C 316.155 58.633,316.517 59.233,316.630 59.417 C 316.743 59.600,316.922 59.919,317.028 60.125 L 317.220 60.500 326.537 60.500 C 333.945 60.500,335.828 60.457,335.729 60.292 C 335.272 59.526,328.915 49.701,328.746 49.500 C 328.631 49.362,328.395 48.987,328.221 48.667 C 328.048 48.346,327.195 46.996,326.327 45.667 C 325.458 44.337,324.673 43.131,324.582 42.986 C 324.491 42.842,324.125 42.279,323.768 41.736 C 323.412 41.194,322.784 40.240,322.374 39.616 C 321.965 38.992,321.656 38.456,321.690 38.425 C 321.723 38.394,322.050 38.245,322.417 38.093 C 325.389 36.867,328.486 34.008,329.913 31.173 C 330.561 29.887,331.688 26.744,331.551 26.607 C 331.500 26.556,331.515 26.380,331.584 26.216 C 332.081 25.032,332.079 19.198,331.581 16.000 C 331.112 12.988,329.253 9.549,326.895 7.329 C 324.691 5.254,323.004 4.355,318.833 3.033 C 318.696 2.989,318.471 2.935,318.333 2.912 C 318.196 2.890,317.146 2.713,316.000 2.519 C 314.854 2.325,313.598 2.167,313.208 2.167 C 312.819 2.167,312.500 2.092,312.500 2.000 C 312.500 1.908,312.406 1.852,312.292 1.874 C 312.177 1.896,305.877 1.934,298.292 1.958 M1.000 31.250 L 1.000 60.500 8.833 60.500 L 16.667 60.500 16.667 49.250 L 16.667 38.000 26.750 38.000 L 36.833 38.000 36.833 49.250 L 36.833 60.500 44.583 60.500 L 52.333 60.500 52.333 31.250 L 52.333 2.000 44.583 2.000 L 36.833 2.000 36.833 12.917 L 36.833 23.833 26.750 23.833 L 16.667 23.833 16.667 12.917 L 16.667 2.000 8.833 2.000 L 1.000 2.000 1.000 31.250 M128.500 31.250 L 128.500 60.500 136.249 60.500 L 143.998 60.500 144.040 49.708 L 144.083 38.917 156.000 38.833 L 167.917 38.750 167.917 31.917 L 167.917 25.083 156.000 25.000 L 144.083 24.917 144.083 20.417 L 144.083 15.917 158.125 15.874 L 172.167 15.831 172.167 8.916 L 172.167 2.000 150.333 2.000 L 128.500 2.000 128.500 31.250 M228.500 8.998 L 228.500 15.997 236.875 16.040 L 245.250 16.083 245.292 38.292 L 245.335 60.500 253.084 60.500 L 260.833 60.500 260.833 38.250 L 260.833 16.000 269.250 16.000 L 277.667 16.000 277.667 9.000 L 277.667 2.000 253.083 2.000 L 228.500 2.000 228.500 8.998 M361.277 3.712 C 360.926 4.649,360.407 6.054,360.124 6.833 C 359.841 7.612,359.566 8.287,359.513 8.333 C 359.460 8.379,359.391 8.563,359.360 8.742 C 359.313 9.013,358.859 10.244,358.251 11.750 C 358.177 11.933,358.097 12.178,358.073 12.294 C 358.049 12.409,357.762 13.197,357.435 14.044 C 356.324 16.923,355.131 20.079,354.585 21.583 C 352.942 26.109,352.636 26.917,352.531 26.997 C 352.468 27.044,352.391 27.230,352.360 27.408 C 352.313 27.680,351.865 28.895,351.251 30.417 C 351.177 30.600,351.091 30.883,351.059 31.046 C 351.027 31.208,350.804 31.808,350.564 32.379 C 350.324 32.950,349.878 34.129,349.573 35.000 C 349.269 35.871,348.784 37.146,348.496 37.833 C 348.209 38.521,347.942 39.244,347.903 39.441 C 347.865 39.638,347.539 40.538,347.181 41.441 C 346.822 42.344,346.325 43.665,346.076 44.375 C 345.827 45.085,345.574 45.667,345.514 45.667 C 345.454 45.667,345.398 45.798,345.391 45.958 C 345.371 46.354,343.567 51.185,343.391 51.314 C 343.313 51.370,343.247 51.492,343.243 51.583 C 343.228 51.980,342.397 54.294,341.149 57.417 C 341.039 57.692,340.926 58.029,340.897 58.167 C 340.868 58.304,340.660 58.886,340.434 59.460 L 340.024 60.503 348.117 60.460 L 356.211 60.417 356.677 59.167 C 356.932 58.479,357.337 57.260,357.576 56.458 C 357.815 55.656,358.088 55.000,358.182 55.000 C 358.276 55.000,358.315 54.938,358.268 54.862 C 358.221 54.786,358.498 53.755,358.883 52.570 L 359.583 50.417 369.243 50.417 L 378.902 50.417 379.366 51.727 C 379.621 52.448,379.789 53.104,379.738 53.185 C 379.688 53.267,379.734 53.333,379.841 53.333 C 379.948 53.333,379.994 53.441,379.944 53.573 C 379.893 53.704,379.911 53.835,379.982 53.864 C 380.096 53.910,381.987 59.388,382.064 59.894 C 382.156 60.500,382.163 60.500,390.742 60.500 C 398.045 60.500,399.143 60.468,399.227 60.250 C 399.280 60.112,399.260 60.000,399.183 60.000 C 399.106 60.000,398.944 59.644,398.822 59.208 C 398.700 58.773,398.351 57.824,398.045 57.100 C 397.740 56.377,397.472 55.664,397.449 55.517 C 397.426 55.370,397.356 55.168,397.294 55.068 C 397.048 54.675,396.022 51.667,396.132 51.664 C 396.197 51.663,396.166 51.606,396.063 51.539 C 395.960 51.472,395.595 50.634,395.252 49.678 C 394.909 48.721,394.487 47.608,394.314 47.204 C 394.141 46.800,394.041 46.402,394.093 46.318 C 394.144 46.235,394.115 46.167,394.028 46.167 C 393.892 46.167,393.795 45.937,393.571 45.083 C 393.547 44.992,393.331 44.444,393.092 43.867 C 392.853 43.289,392.701 42.745,392.755 42.658 C 392.809 42.571,392.783 42.500,392.697 42.500 C 392.611 42.500,392.376 42.031,392.174 41.458 C 391.972 40.885,391.475 39.575,391.070 38.547 C 390.665 37.518,390.307 36.543,390.275 36.380 C 390.244 36.217,390.140 35.896,390.045 35.667 C 389.871 35.249,388.613 31.960,387.634 29.365 C 387.346 28.603,387.111 27.872,387.111 27.740 C 387.111 27.608,387.055 27.500,386.985 27.500 C 386.916 27.500,386.808 27.266,386.746 26.980 C 386.683 26.695,386.415 25.936,386.151 25.295 C 385.886 24.654,385.707 24.069,385.753 23.996 C 385.798 23.922,385.762 23.837,385.672 23.806 C 385.479 23.740,384.321 20.488,384.428 20.314 C 384.469 20.249,384.425 20.169,384.331 20.138 C 384.236 20.107,383.521 18.356,382.741 16.249 C 381.961 14.141,380.986 11.554,380.575 10.500 C 380.164 9.446,379.829 8.506,379.831 8.412 C 379.832 8.317,379.571 7.617,379.249 6.855 C 378.928 6.094,378.708 5.402,378.759 5.319 C 378.811 5.235,378.780 5.167,378.690 5.167 C 378.601 5.167,378.290 4.454,378.000 3.583 L 377.473 2.000 369.695 2.003 L 361.917 2.006 361.277 3.712 M312.213 15.660 C 314.952 16.464,316.083 18.171,316.083 21.500 C 316.083 26.858,314.136 27.996,304.958 27.999 L 300.167 28.000 300.167 21.569 L 300.167 15.139 305.542 15.209 C 310.531 15.275,311.010 15.307,312.213 15.660 M94.250 15.818 C 99.696 16.911,103.970 21.530,104.904 27.333 C 105.350 30.099,105.348 33.262,104.900 35.167 C 104.846 35.396,104.804 35.713,104.807 35.872 C 104.810 36.030,104.741 36.204,104.653 36.258 C 104.566 36.312,104.532 36.417,104.578 36.492 C 105.156 37.427,101.858 42.574,99.582 44.288 C 97.622 45.765,93.959 47.221,92.983 46.911 C 92.824 46.861,92.646 46.898,92.588 46.993 C 92.468 47.187,88.463 47.241,88.273 47.051 C 88.210 46.988,87.804 46.915,87.372 46.890 C 86.940 46.865,86.563 46.771,86.533 46.682 C 86.503 46.592,86.378 46.557,86.255 46.604 C 86.025 46.693,84.262 46.075,83.079 45.491 C 80.282 44.111,77.367 40.538,76.431 37.344 C 76.006 35.892,75.635 33.472,75.746 32.879 C 75.809 32.545,75.781 32.333,75.674 32.333 C 75.443 32.333,75.445 30.387,75.676 30.244 C 75.775 30.183,75.808 29.931,75.752 29.674 C 75.553 28.768,76.465 24.333,76.850 24.333 C 76.943 24.333,76.979 24.267,76.929 24.186 C 76.850 24.059,77.217 23.262,78.090 21.667 C 79.845 18.460,83.835 16.113,88.667 15.445 C 89.758 15.294,92.579 15.482,94.250 15.818 M369.526 20.042 C 369.541 20.248,369.549 20.510,369.545 20.625 C 369.541 20.740,369.612 20.833,369.703 20.833 C 369.794 20.833,369.826 20.946,369.773 21.083 C 369.720 21.221,369.739 21.333,369.814 21.333 C 369.889 21.333,370.083 21.840,370.244 22.458 C 370.406 23.077,370.862 24.633,371.258 25.917 C 372.612 30.307,373.225 32.417,373.231 32.708 C 373.235 32.869,373.289 33.000,373.351 33.000 C 373.413 33.000,373.596 33.544,373.758 34.208 C 373.920 34.873,374.224 35.923,374.433 36.542 L 374.813 37.667 369.312 37.667 C 364.152 37.667,363.816 37.649,363.896 37.375 C 363.942 37.215,364.066 36.746,364.170 36.333 C 364.274 35.921,364.698 34.496,365.111 33.167 C 365.524 31.837,366.002 30.225,366.174 29.583 C 366.345 28.942,366.643 27.967,366.834 27.417 C 367.026 26.867,367.333 25.854,367.517 25.167 C 368.603 21.106,369.450 18.947,369.526 20.042 M258.498 80.052 C 258.453 80.093,258.042 80.171,257.583 80.225 C 255.140 80.510,252.222 82.733,250.989 85.248 C 248.061 91.224,250.883 97.890,257.116 99.722 C 258.365 100.089,262.758 100.006,263.908 99.593 C 265.536 99.010,265.500 99.074,265.500 96.733 L 265.500 94.672 264.542 95.152 C 262.847 96.001,260.242 96.260,258.379 95.764 C 253.068 94.350,252.876 85.954,258.117 84.335 C 259.883 83.790,263.270 83.992,264.115 84.693 C 264.235 84.793,264.333 84.821,264.333 84.757 C 264.333 84.692,264.598 84.803,264.922 85.003 L 265.510 85.367 265.463 83.225 L 265.417 81.083 264.587 80.688 C 264.131 80.470,263.586 80.292,263.376 80.292 C 263.166 80.292,262.963 80.241,262.924 80.179 C 262.847 80.054,258.626 79.932,258.498 80.052 M277.116 80.106 C 277.075 80.147,276.832 80.219,276.577 80.266 C 273.368 80.847,271.366 84.463,272.336 87.925 C 272.739 89.365,275.208 91.333,276.610 91.333 C 276.814 91.333,277.027 91.410,277.085 91.503 C 277.143 91.596,277.245 91.638,277.312 91.596 C 277.550 91.449,280.734 92.341,281.433 92.751 C 282.252 93.230,282.651 94.073,282.338 94.659 C 282.237 94.846,282.207 95.000,282.270 95.000 C 282.485 95.000,281.754 95.699,281.250 95.975 C 280.164 96.572,274.957 96.152,274.461 95.429 C 274.394 95.330,274.337 95.308,274.336 95.379 C 274.333 95.546,273.404 95.076,272.708 94.555 L 272.167 94.150 272.167 96.306 L 272.167 98.463 272.958 98.837 C 276.006 100.275,281.157 100.440,283.636 99.178 C 285.789 98.082,286.723 96.422,286.692 93.750 C 286.652 90.380,285.373 89.136,280.860 88.077 C 276.617 87.081,275.758 86.428,276.586 84.828 C 277.033 83.963,281.167 83.034,281.167 83.798 C 281.167 83.892,281.314 83.930,281.494 83.883 C 281.929 83.769,284.068 84.428,284.958 84.950 L 285.667 85.365 285.667 83.293 L 285.667 81.220 285.208 81.007 C 284.368 80.617,283.029 80.193,282.935 80.288 C 282.883 80.339,282.746 80.305,282.629 80.212 C 282.423 80.049,277.273 79.950,277.116 80.106 M113.241 80.792 C 113.097 81.135,112.695 82.129,112.349 83.000 C 111.789 84.411,111.312 85.641,109.732 89.750 C 109.485 90.392,109.238 90.954,109.183 91.000 C 109.128 91.046,109.062 91.196,109.036 91.333 C 108.978 91.636,108.671 92.465,107.366 95.833 C 106.816 97.254,106.316 98.585,106.255 98.792 C 106.194 98.998,106.090 99.167,106.024 99.167 C 105.959 99.167,105.905 99.319,105.905 99.505 C 105.905 99.829,105.991 99.841,108.071 99.796 L 110.236 99.750 110.680 98.500 C 110.924 97.813,111.242 96.969,111.387 96.625 L 111.650 96.000 115.465 96.000 L 119.280 96.000 119.514 96.708 C 119.643 97.098,119.730 97.473,119.708 97.542 C 119.685 97.610,119.728 97.667,119.803 97.667 C 119.877 97.667,120.110 98.154,120.321 98.750 L 120.703 99.833 122.935 99.833 C 124.162 99.833,125.166 99.777,125.164 99.708 C 125.162 99.587,124.241 97.153,123.524 95.375 C 123.330 94.894,123.227 94.499,123.294 94.497 C 123.362 94.496,123.342 94.440,123.250 94.372 C 123.158 94.305,122.959 93.912,122.807 93.500 C 122.655 93.087,122.031 91.475,121.420 89.917 C 119.124 84.063,118.521 82.434,118.603 82.302 C 118.649 82.228,118.616 82.167,118.530 82.167 C 118.444 82.167,118.206 81.717,118.000 81.167 L 117.626 80.167 115.565 80.167 L 113.504 80.167 113.241 80.792 M127.333 82.163 L 127.333 84.159 130.292 84.204 L 133.250 84.250 133.293 92.042 L 133.337 99.833 135.418 99.833 L 137.500 99.833 137.500 92.000 L 137.500 84.167 140.500 84.167 L 143.500 84.167 143.500 82.167 L 143.500 80.167 135.417 80.167 L 127.333 80.167 127.333 82.163 M149.833 90.000 L 149.833 99.833 151.914 99.833 L 153.994 99.833 154.039 95.792 L 154.083 91.750 158.208 91.705 L 162.333 91.661 162.333 95.747 L 162.333 99.833 164.583 99.833 L 166.833 99.833 166.833 90.000 L 166.833 80.167 164.583 80.167 L 162.333 80.167 162.333 84.000 L 162.333 87.833 158.167 87.833 L 154.000 87.833 154.000 84.000 L 154.000 80.167 151.917 80.167 L 149.833 80.167 149.833 90.000 M175.000 90.002 L 175.000 99.837 181.958 99.793 L 188.917 99.750 188.944 97.792 L 188.972 95.833 184.236 95.833 L 179.500 95.833 179.500 88.000 L 179.500 80.167 177.250 80.167 L 175.000 80.167 175.000 90.002 M195.167 90.000 L 195.167 99.833 202.667 99.833 L 210.167 99.833 210.167 97.833 L 210.167 95.833 204.750 95.833 L 199.333 95.833 199.333 93.750 L 199.333 91.667 204.000 91.667 L 208.667 91.667 208.667 89.836 L 208.667 88.005 204.042 87.961 L 199.417 87.917 199.417 86.000 L 199.417 84.083 204.625 84.039 L 209.833 83.995 209.833 82.081 L 209.833 80.167 202.500 80.167 L 195.167 80.167 195.167 90.000 M215.833 82.161 L 215.833 84.159 218.792 84.204 L 221.750 84.250 221.793 92.042 L 221.837 99.833 223.918 99.833 L 226.000 99.833 226.000 92.000 L 226.000 84.167 228.986 84.167 L 231.972 84.167 231.944 82.208 L 231.917 80.250 223.875 80.207 L 215.833 80.163 215.833 82.161 M238.333 90.000 L 238.333 99.833 240.417 99.833 L 242.500 99.833 242.500 90.000 L 242.500 80.167 240.417 80.167 L 238.333 80.167 238.333 90.000 M115.752 86.114 C 115.893 86.452,116.023 86.902,116.041 87.114 C 116.058 87.326,116.139 87.500,116.221 87.500 C 116.302 87.500,116.328 87.608,116.277 87.739 C 116.227 87.871,116.245 88.002,116.317 88.031 C 116.422 88.073,117.195 90.193,117.780 92.042 C 117.870 92.327,113.411 92.522,113.134 92.245 C 113.044 92.155,114.487 87.819,114.657 87.667 C 114.708 87.621,114.751 87.508,114.752 87.417 C 114.756 87.177,115.347 85.500,115.428 85.500 C 115.465 85.500,115.611 85.776,115.752 86.114 " stroke="none" fill="#044b9b" fill-rule="evenodd"></path><path id="path2" d="M88.708 0.948 C 88.869 0.990,89.131 0.990,89.292 0.948 C 89.452 0.906,89.321 0.872,89.000 0.872 C 88.679 0.872,88.548 0.906,88.708 0.948 M91.542 0.948 C 91.702 0.990,91.965 0.990,92.125 0.948 C 92.285 0.906,92.154 0.872,91.833 0.872 C 91.513 0.872,91.381 0.906,91.542 0.948 M200.127 0.951 C 200.334 0.991,200.634 0.990,200.794 0.948 C 200.953 0.906,200.783 0.874,200.417 0.875 C 200.050 0.877,199.920 0.911,200.127 0.951 M203.460 0.951 C 203.668 0.991,203.968 0.990,204.127 0.948 C 204.286 0.906,204.117 0.874,203.750 0.875 C 203.383 0.877,203.253 0.911,203.460 0.951 M16.912 12.917 C 16.912 18.967,16.933 21.417,16.958 18.363 C 16.984 15.308,16.984 10.358,16.958 7.363 C 16.933 4.367,16.912 6.867,16.912 12.917 M172.243 9.000 C 172.243 12.804,172.265 14.360,172.291 12.458 C 172.318 10.556,172.318 7.444,172.291 5.542 C 172.265 3.640,172.243 5.196,172.243 9.000 M183.158 6.792 L 182.583 7.417 183.208 6.842 C 183.790 6.308,183.910 6.167,183.783 6.167 C 183.755 6.167,183.474 6.448,183.158 6.792 M90.044 15.453 C 90.297 15.491,90.672 15.490,90.877 15.451 C 91.082 15.411,90.875 15.380,90.417 15.381 C 89.958 15.382,89.791 15.415,90.044 15.453 M144.240 20.333 C 144.240 22.854,144.263 23.885,144.291 22.625 C 144.320 21.365,144.320 19.302,144.291 18.042 C 144.263 16.781,144.240 17.813,144.240 20.333 M260.910 16.208 C 260.867 16.323,260.850 26.354,260.874 38.500 L 260.917 60.583 261.000 38.292 C 261.046 26.031,261.062 16.000,261.036 16.000 C 261.011 16.000,260.954 16.094,260.910 16.208 M245.081 38.417 C 245.081 50.608,245.101 55.571,245.125 49.445 C 245.149 43.319,245.149 33.344,245.125 27.279 C 245.101 21.213,245.081 26.225,245.081 38.417 M168.000 31.883 L 168.083 38.917 168.127 32.010 C 168.151 28.212,168.113 25.047,168.044 24.977 C 167.974 24.907,167.954 28.015,168.000 31.883 M304.917 27.833 L 300.250 27.925 304.833 27.960 C 307.573 27.981,309.517 27.930,309.667 27.833 C 309.804 27.744,309.842 27.688,309.750 27.707 C 309.658 27.726,307.483 27.783,304.917 27.833 M59.262 28.595 C 59.201 28.839,59.183 29.071,59.222 29.111 C 59.261 29.150,59.343 28.982,59.405 28.738 C 59.466 28.494,59.484 28.262,59.445 28.223 C 59.406 28.183,59.323 28.351,59.262 28.595 M59.190 33.500 C 59.190 33.637,59.255 33.900,59.333 34.083 C 59.424 34.293,59.477 34.324,59.477 34.167 C 59.477 34.029,59.412 33.767,59.333 33.583 C 59.243 33.373,59.190 33.342,59.190 33.500 M16.912 49.250 C 16.912 55.483,16.933 58.009,16.958 54.863 C 16.984 51.717,16.984 46.617,16.958 43.529 C 16.933 40.442,16.912 43.017,16.912 49.250 M144.167 49.867 C 144.121 55.798,144.140 60.593,144.210 60.524 C 144.279 60.454,144.316 55.602,144.293 49.740 L 144.250 39.083 144.167 49.867 M198.380 48.456 C 198.818 48.490,199.493 48.490,199.880 48.455 C 200.267 48.420,199.908 48.392,199.083 48.392 C 198.258 48.393,197.942 48.422,198.380 48.456 M218.824 55.625 L 218.250 56.250 218.875 55.676 C 219.219 55.360,219.500 55.078,219.500 55.051 C 219.500 54.923,219.359 55.043,218.824 55.625 M143.564 82.167 C 143.564 83.313,143.591 83.781,143.623 83.208 C 143.656 82.635,143.656 81.698,143.623 81.125 C 143.591 80.552,143.564 81.021,143.564 82.167 M195.078 90.000 C 195.078 95.454,195.099 97.685,195.125 94.958 C 195.151 92.231,195.151 87.769,195.125 85.042 C 195.099 82.315,195.078 84.546,195.078 90.000 M238.000 90.000 C 238.000 96.444,238.057 99.833,238.167 99.833 C 238.276 99.833,238.333 96.444,238.333 90.000 C 238.333 83.556,238.276 80.167,238.167 80.167 C 238.057 80.167,238.000 83.556,238.000 90.000 M242.745 90.000 C 242.745 95.454,242.766 97.685,242.792 94.958 C 242.817 92.231,242.817 87.769,242.792 85.042 C 242.766 82.315,242.745 84.546,242.745 90.000 M285.635 83.417 C 285.606 84.563,285.640 85.500,285.708 85.500 C 285.777 85.500,285.833 84.563,285.833 83.417 C 285.833 80.722,285.701 80.723,285.635 83.417 M252.416 82.668 C 251.988 83.140,252.169 83.179,252.651 82.717 C 252.872 82.506,252.978 82.333,252.886 82.333 C 252.794 82.333,252.582 82.484,252.416 82.668 M137.577 92.083 C 137.577 96.392,137.598 98.178,137.625 96.053 C 137.651 93.928,137.651 90.403,137.625 88.220 C 137.599 86.036,137.577 87.775,137.577 92.083 M199.396 86.083 C 199.396 87.092,199.424 87.483,199.457 86.952 C 199.490 86.422,199.490 85.597,199.456 85.119 C 199.422 84.641,199.395 85.075,199.396 86.083 M226.077 92.083 C 226.077 96.392,226.098 98.178,226.125 96.053 C 226.151 93.928,226.151 90.403,226.125 88.220 C 226.099 86.036,226.077 87.775,226.077 92.083 M200.750 87.779 C 203.383 87.894,208.667 87.909,208.667 87.802 C 208.667 87.738,206.623 87.696,204.125 87.707 C 201.627 87.719,200.108 87.751,200.750 87.779 M199.405 91.886 C 199.359 92.006,199.343 92.925,199.370 93.927 L 199.419 95.750 199.501 93.708 C 199.582 91.691,199.570 91.457,199.405 91.886 M156.301 91.958 C 157.429 91.987,159.229 91.987,160.301 91.958 C 161.373 91.929,160.450 91.905,158.250 91.905 C 156.050 91.905,155.173 91.929,156.301 91.958 M286.712 93.833 C 286.712 94.246,286.745 94.415,286.784 94.208 C 286.824 94.002,286.824 93.665,286.784 93.458 C 286.745 93.252,286.712 93.421,286.712 93.833 M181.792 95.791 C 183.098 95.819,185.235 95.819,186.542 95.791 C 187.848 95.763,186.779 95.740,184.167 95.740 C 181.554 95.740,180.485 95.763,181.792 95.791 " stroke="none" fill="#5188bd" fill-rule="evenodd"></path><path id="path3" d="M89.961 0.787 C 90.261 0.825,90.711 0.824,90.961 0.786 C 91.212 0.748,90.967 0.717,90.417 0.718 C 89.867 0.719,89.662 0.750,89.961 0.787 M201.455 0.787 C 201.750 0.824,202.275 0.824,202.621 0.788 C 202.967 0.752,202.725 0.722,202.083 0.721 C 201.442 0.721,201.159 0.750,201.455 0.787 M4.875 1.958 C 7.052 1.985,10.615 1.985,12.792 1.958 C 14.969 1.932,13.188 1.910,8.833 1.910 C 4.479 1.910,2.698 1.932,4.875 1.958 M36.779 1.943 C 36.717 2.005,36.667 6.917,36.667 12.860 L 36.667 23.664 26.792 23.709 L 16.917 23.754 26.833 23.752 L 36.750 23.750 36.793 12.875 L 36.836 2.000 44.667 2.000 L 52.499 2.000 52.542 31.333 L 52.585 60.667 52.584 31.292 L 52.583 1.917 44.738 1.873 C 40.423 1.850,36.841 1.881,36.779 1.943 M128.375 31.292 L 128.416 60.750 128.458 31.376 L 128.501 2.001 150.375 1.958 L 172.250 1.915 150.292 1.874 L 128.333 1.833 128.375 31.292 M240.805 1.958 C 247.618 1.982,258.718 1.982,265.471 1.958 C 272.225 1.934,266.650 1.914,253.083 1.914 C 239.517 1.914,233.991 1.934,240.805 1.958 M284.410 2.042 C 284.367 2.156,284.351 15.412,284.374 31.500 L 284.418 60.750 284.459 31.376 L 284.500 2.002 297.708 1.958 L 310.917 1.915 297.703 1.874 C 287.256 1.842,284.473 1.877,284.410 2.042 M369.575 1.957 C 375.567 1.993,377.433 2.052,377.546 2.210 C 377.653 2.362,377.674 2.350,377.624 2.167 C 377.564 1.949,376.535 1.916,369.653 1.914 L 361.750 1.912 369.575 1.957 M228.204 8.948 C 228.183 12.816,228.223 16.015,228.292 16.058 C 228.405 16.128,228.403 10.785,228.286 4.417 C 228.261 3.042,228.224 5.081,228.204 8.948 M186.750 4.000 C 186.098 4.432,186.330 4.432,187.038 4.001 C 187.338 3.818,187.508 3.668,187.417 3.668 C 187.325 3.669,187.025 3.818,186.750 4.000 M67.938 9.180 C 67.696 9.370,67.418 9.689,67.321 9.888 C 67.163 10.212,67.178 10.208,67.465 9.852 C 67.642 9.633,67.966 9.315,68.185 9.147 C 68.404 8.979,68.537 8.839,68.481 8.837 C 68.424 8.835,68.180 8.989,67.938 9.180 M112.333 8.875 C 112.333 8.903,112.596 9.174,112.917 9.477 C 113.237 9.779,113.459 9.920,113.409 9.789 C 113.329 9.582,112.333 8.736,112.333 8.875 M300.333 15.333 C 300.333 15.440,301.972 15.500,304.917 15.500 C 307.861 15.500,309.500 15.440,309.500 15.333 C 309.500 15.226,307.861 15.167,304.917 15.167 C 301.972 15.167,300.333 15.226,300.333 15.333 M151.304 15.958 C 155.184 15.983,161.484 15.983,165.304 15.958 C 169.124 15.933,165.950 15.913,158.250 15.913 C 150.550 15.913,147.424 15.933,151.304 15.958 M178.220 20.000 C 178.220 20.596,178.250 20.840,178.287 20.542 C 178.324 20.244,178.324 19.756,178.287 19.458 C 178.250 19.160,178.220 19.404,178.220 20.000 M332.223 21.167 C 332.223 21.854,332.252 22.135,332.288 21.792 C 332.324 21.448,332.324 20.885,332.288 20.542 C 332.252 20.198,332.223 20.479,332.223 21.167 M316.019 22.195 C 316.009 22.348,315.957 22.610,315.904 22.778 C 315.813 23.067,315.818 23.068,315.999 22.786 C 316.103 22.623,316.155 22.361,316.114 22.203 C 316.046 21.945,316.037 21.944,316.019 22.195 M302.635 27.791 C 303.947 27.820,306.047 27.819,307.302 27.791 C 308.557 27.763,307.483 27.740,304.917 27.740 C 302.350 27.740,301.323 27.763,302.635 27.791 M219.000 29.885 C 219.000 29.914,219.244 30.158,219.542 30.427 L 220.083 30.917 219.594 30.375 C 219.138 29.870,219.000 29.757,219.000 29.885 M121.553 31.167 C 121.553 31.762,121.584 32.006,121.621 31.708 C 121.658 31.410,121.658 30.923,121.621 30.625 C 121.584 30.327,121.553 30.571,121.553 31.167 M26.791 38.124 L 36.664 38.169 36.709 49.418 L 36.754 60.667 36.752 49.375 L 36.750 38.083 26.833 38.081 L 16.917 38.079 26.791 38.124 M144.276 38.958 C 144.206 39.072,152.786 39.070,163.833 38.955 C 166.171 38.931,162.744 38.893,156.218 38.872 C 149.692 38.851,144.318 38.890,144.276 38.958 M223.539 42.333 C 223.539 42.654,223.573 42.785,223.615 42.625 C 223.657 42.465,223.657 42.202,223.615 42.042 C 223.573 41.881,223.539 42.012,223.539 42.333 M62.328 45.657 C 62.597 46.159,62.863 46.247,62.641 45.761 C 62.534 45.526,62.381 45.333,62.301 45.333 C 62.221 45.333,62.233 45.479,62.328 45.657 M89.713 47.123 C 90.152 47.157,90.827 47.157,91.213 47.122 C 91.600 47.087,91.242 47.059,90.417 47.059 C 89.592 47.060,89.275 47.088,89.713 47.123 M363.000 50.621 C 371.807 50.737,378.961 50.738,378.891 50.625 C 378.848 50.556,374.487 50.517,369.198 50.538 C 363.910 50.559,361.121 50.596,363.000 50.621 M67.417 52.667 C 67.775 53.033,68.105 53.333,68.151 53.333 C 68.197 53.333,67.941 53.033,67.583 52.667 C 67.225 52.300,66.895 52.000,66.849 52.000 C 66.803 52.000,67.059 52.300,67.417 52.667 M331.668 53.704 C 331.667 53.771,331.816 54.071,331.999 54.371 C 332.182 54.671,332.332 54.842,332.332 54.750 C 332.331 54.658,332.182 54.358,332.000 54.083 C 331.818 53.808,331.668 53.638,331.668 53.704 M381.572 58.917 C 381.637 59.192,381.762 59.490,381.850 59.580 C 381.937 59.669,381.921 59.482,381.813 59.163 C 381.561 58.417,381.419 58.272,381.572 58.917 M279.375 79.782 C 279.535 79.823,279.798 79.823,279.958 79.782 C 280.119 79.740,279.987 79.705,279.667 79.705 C 279.346 79.705,279.215 79.740,279.375 79.782 M215.742 82.208 L 215.750 84.250 218.623 84.296 L 221.497 84.341 221.543 92.129 L 221.588 99.917 221.586 92.083 L 221.583 84.250 218.713 84.204 L 215.844 84.159 215.789 82.162 L 215.734 80.166 215.742 82.208 M285.463 81.093 C 285.809 81.335,285.836 81.491,285.869 83.468 L 285.905 85.583 285.958 83.519 C 286.011 81.425,285.860 80.833,285.270 80.833 C 285.173 80.833,285.259 80.950,285.463 81.093 M128.700 84.291 C 129.497 84.321,130.847 84.321,131.700 84.291 C 132.552 84.261,131.900 84.236,130.250 84.236 C 128.600 84.235,127.902 84.260,128.700 84.291 M137.707 92.042 L 137.747 99.917 137.792 92.129 L 137.837 84.341 140.710 84.291 L 143.583 84.242 140.625 84.204 L 137.667 84.167 137.707 92.042 M227.542 84.291 C 228.344 84.321,229.656 84.321,230.458 84.291 C 231.260 84.260,230.604 84.235,229.000 84.235 C 227.396 84.235,226.740 84.260,227.542 84.291 M199.562 86.083 C 199.563 87.092,199.590 87.483,199.623 86.952 C 199.657 86.422,199.656 85.597,199.623 85.119 C 199.589 84.641,199.562 85.075,199.562 86.083 M249.717 90.000 C 249.717 90.504,249.748 90.710,249.786 90.458 C 249.824 90.206,249.824 89.794,249.786 89.542 C 249.748 89.290,249.717 89.496,249.717 90.000 M201.875 91.791 C 203.135 91.820,205.198 91.820,206.458 91.791 C 207.719 91.763,206.688 91.740,204.167 91.740 C 201.646 91.740,200.615 91.763,201.875 91.791 M199.563 93.833 C 199.563 94.888,199.590 95.319,199.623 94.792 C 199.656 94.265,199.656 93.402,199.623 92.875 C 199.590 92.348,199.563 92.779,199.563 93.833 M272.065 96.333 C 272.065 97.571,272.092 98.077,272.124 97.458 C 272.156 96.840,272.156 95.827,272.124 95.208 C 272.092 94.590,272.065 95.096,272.065 96.333 " stroke="none" fill="#6c9cc8" fill-rule="evenodd"></path><path id="path4" d="M86.917 1.000 C 86.463 1.115,86.455 1.128,86.833 1.135 C 87.063 1.140,87.400 1.079,87.583 1.000 C 87.994 0.823,87.611 0.823,86.917 1.000 M89.961 0.954 C 90.261 0.991,90.711 0.990,90.961 0.952 C 91.212 0.914,90.967 0.884,90.417 0.885 C 89.867 0.886,89.662 0.917,89.961 0.954 M93.167 1.000 C 93.396 1.073,93.771 1.132,94.000 1.130 C 94.374 1.128,94.366 1.114,93.917 1.000 C 93.212 0.821,92.606 0.821,93.167 1.000 M198.167 1.000 L 197.583 1.123 198.115 1.145 C 198.408 1.157,198.693 1.092,198.750 1.000 C 198.807 0.908,198.830 0.843,198.802 0.855 C 198.773 0.867,198.487 0.932,198.167 1.000 M201.455 0.954 C 201.750 0.990,202.275 0.991,202.621 0.955 C 202.967 0.919,202.725 0.889,202.083 0.888 C 201.442 0.887,201.159 0.917,201.455 0.954 M205.875 1.115 C 206.035 1.157,206.298 1.157,206.458 1.115 C 206.619 1.073,206.487 1.039,206.167 1.039 C 205.846 1.039,205.715 1.073,205.875 1.115 M312.500 2.000 C 312.500 2.092,312.612 2.167,312.750 2.167 C 312.887 2.167,313.000 2.092,313.000 2.000 C 313.000 1.908,312.887 1.833,312.750 1.833 C 312.612 1.833,312.500 1.908,312.500 2.000 M16.745 12.917 C 16.745 18.967,16.766 21.417,16.792 18.363 C 16.817 15.308,16.817 10.358,16.792 7.363 C 16.766 4.367,16.745 6.867,16.745 12.917 M52.375 31.207 L 52.333 60.497 44.542 60.542 L 36.750 60.587 44.547 60.627 C 50.661 60.658,52.361 60.622,52.423 60.458 C 52.467 60.344,52.483 47.125,52.459 31.083 L 52.416 1.917 52.375 31.207 M228.410 8.917 C 228.410 12.767,228.432 14.318,228.458 12.364 C 228.485 10.410,228.485 7.260,228.458 5.364 C 228.431 3.468,228.410 5.067,228.410 8.917 M277.743 8.917 C 277.743 12.767,277.765 14.318,277.792 12.364 C 277.818 10.410,277.818 7.260,277.791 5.364 C 277.765 3.468,277.743 5.067,277.743 8.917 M327.497 7.917 C 328.087 8.558,328.601 9.121,328.640 9.167 C 328.680 9.212,328.632 9.100,328.535 8.917 C 328.438 8.733,327.923 8.171,327.392 7.667 L 326.426 6.750 327.497 7.917 M68.494 8.958 L 67.583 9.917 68.542 9.006 C 69.069 8.505,69.500 8.073,69.500 8.047 C 69.500 7.924,69.341 8.068,68.494 8.958 M197.500 14.598 C 196.954 14.821,196.949 14.830,197.417 14.740 C 197.692 14.687,197.988 14.573,198.075 14.488 C 198.275 14.293,198.217 14.304,197.500 14.598 M144.079 20.417 L 144.083 24.917 156.026 25.000 C 162.594 25.046,167.933 25.027,167.891 24.958 C 167.848 24.890,162.494 24.833,155.993 24.833 L 144.172 24.833 144.123 20.375 L 144.075 15.917 144.079 20.417 M236.750 16.164 L 245.083 16.250 245.167 38.417 L 245.250 60.583 253.083 60.586 L 260.917 60.588 253.126 60.543 L 245.335 60.497 245.292 38.290 L 245.250 16.083 236.833 16.080 L 228.417 16.077 236.750 16.164 M265.303 16.125 C 267.624 16.151,271.374 16.151,273.637 16.125 C 275.899 16.099,274.000 16.077,269.417 16.077 C 264.833 16.077,262.982 16.099,265.303 16.125 M217.167 17.563 C 217.167 17.689,218.373 18.349,218.454 18.268 C 218.497 18.225,218.225 18.033,217.849 17.842 C 217.474 17.650,217.167 17.525,217.167 17.563 M331.845 18.375 C 331.839 18.627,331.908 18.833,332.000 18.833 C 332.196 18.833,332.196 18.705,332.000 18.250 C 331.873 17.955,331.855 17.969,331.845 18.375 M100.833 19.417 C 101.144 19.737,101.436 20.000,101.482 20.000 C 101.528 20.000,101.311 19.737,101.000 19.417 C 100.689 19.096,100.397 18.833,100.351 18.833 C 100.305 18.833,100.522 19.096,100.833 19.417 M332.055 21.250 C 332.055 21.892,332.086 22.134,332.122 21.788 C 332.158 21.442,332.157 20.917,332.120 20.621 C 332.083 20.325,332.054 20.608,332.055 21.250 M331.836 24.042 C 331.838 24.345,331.869 24.369,332.000 24.167 C 332.209 23.844,332.209 23.667,332.000 23.667 C 331.908 23.667,331.834 23.835,331.836 24.042 M207.598 24.993 C 207.681 25.074,208.050 25.184,208.417 25.237 C 209.172 25.347,209.056 25.266,208.098 25.016 C 207.739 24.922,207.514 24.912,207.598 24.993 M121.375 28.917 C 121.377 29.283,121.411 29.414,121.451 29.206 C 121.491 28.999,121.490 28.699,121.448 28.540 C 121.406 28.380,121.374 28.550,121.375 28.917 M59.272 29.137 C 59.197 29.441,59.180 29.735,59.234 29.790 C 59.423 29.978,59.523 29.697,59.467 29.141 L 59.410 28.583 59.272 29.137 M75.611 30.278 C 75.433 30.456,75.483 32.333,75.667 32.333 C 75.761 32.333,75.833 31.861,75.833 31.250 C 75.833 30.159,75.814 30.075,75.611 30.278 M105.218 31.250 C 105.219 31.800,105.250 32.005,105.287 31.705 C 105.325 31.406,105.324 30.956,105.286 30.705 C 105.248 30.455,105.217 30.700,105.218 31.250 M181.809 30.917 C 181.983 31.279,182.602 31.879,183.000 32.071 C 183.137 32.138,183.063 32.030,182.833 31.832 C 182.604 31.633,182.244 31.271,182.033 31.027 C 181.772 30.725,181.700 30.690,181.809 30.917 M121.440 32.868 C 121.384 33.078,121.346 33.475,121.355 33.750 C 121.367 34.095,121.415 33.993,121.511 33.422 C 121.657 32.551,121.614 32.219,121.440 32.868 M59.178 32.958 C 59.206 33.642,59.476 33.933,59.488 33.292 C 59.495 32.948,59.425 32.667,59.333 32.667 C 59.242 32.667,59.172 32.798,59.178 32.958 M327.067 35.024 C 326.752 35.380,326.752 35.381,327.125 35.185 C 327.331 35.077,327.500 34.916,327.500 34.827 C 327.500 34.591,327.420 34.627,327.067 35.024 M76.424 37.375 C 76.486 37.581,76.606 37.823,76.690 37.913 C 76.774 38.002,76.758 37.834,76.655 37.538 C 76.444 36.932,76.249 36.795,76.424 37.375 M16.707 49.207 L 16.667 60.497 8.792 60.542 L 0.917 60.587 8.797 60.627 C 14.977 60.658,16.694 60.622,16.757 60.458 C 16.801 60.344,16.816 55.225,16.792 49.083 L 16.748 37.917 16.707 49.207 M144.040 49.707 L 144.000 60.497 136.292 60.542 L 128.583 60.587 136.297 60.627 C 142.344 60.658,144.028 60.622,144.090 60.458 C 144.134 60.344,144.150 55.450,144.125 49.583 L 144.081 38.917 144.040 49.707 M347.582 39.946 C 347.441 40.284,347.347 40.625,347.374 40.705 C 347.400 40.784,347.549 40.508,347.703 40.091 C 348.039 39.185,347.946 39.074,347.582 39.946 M223.357 40.000 C 223.357 40.137,223.421 40.400,223.500 40.583 C 223.590 40.793,223.643 40.824,223.643 40.667 C 223.643 40.529,223.579 40.267,223.500 40.083 C 223.410 39.873,223.357 39.842,223.357 40.000 M300.333 40.500 C 300.333 40.603,301.250 40.667,302.750 40.667 C 304.250 40.667,305.167 40.603,305.167 40.500 C 305.167 40.397,304.250 40.333,302.750 40.333 C 301.250 40.333,300.333 40.397,300.333 40.500 M119.887 41.625 C 119.830 41.785,119.683 42.170,119.559 42.479 C 119.295 43.136,119.272 43.373,119.511 42.963 C 119.748 42.556,120.168 41.333,120.071 41.333 C 120.026 41.333,119.943 41.465,119.887 41.625 M179.076 42.542 C 179.032 42.656,179.017 45.938,179.042 49.833 L 179.087 56.917 179.127 49.698 C 179.157 44.293,179.215 42.510,179.359 42.599 C 179.478 42.673,179.506 42.645,179.433 42.526 C 179.279 42.278,179.176 42.282,179.076 42.542 M207.500 43.500 C 207.500 43.683,207.575 43.833,207.667 43.833 C 207.758 43.833,207.833 43.683,207.833 43.500 C 207.833 43.317,207.758 43.167,207.667 43.167 C 207.575 43.167,207.500 43.317,207.500 43.500 M223.438 44.188 C 223.299 44.882,223.433 45.017,223.583 44.333 C 223.647 44.045,223.664 43.775,223.621 43.732 C 223.579 43.690,223.496 43.895,223.438 44.188 M197.958 48.623 C 198.531 48.656,199.469 48.656,200.042 48.623 C 200.615 48.591,200.146 48.564,199.000 48.564 C 197.854 48.564,197.385 48.591,197.958 48.623 M359.609 50.458 C 359.567 50.527,363.905 50.583,369.250 50.583 C 374.595 50.583,378.933 50.527,378.891 50.458 C 378.848 50.390,374.510 50.333,369.250 50.333 C 363.990 50.333,359.652 50.390,359.609 50.458 M359.158 51.606 C 359.066 51.848,359.022 52.077,359.059 52.115 C 359.097 52.153,359.208 51.955,359.305 51.675 C 359.522 51.053,359.391 50.993,359.158 51.606 M382.097 60.393 C 382.209 60.685,399.333 60.833,399.333 60.542 C 399.333 60.473,395.536 60.437,390.896 60.461 C 384.683 60.494,382.397 60.455,382.225 60.313 C 382.039 60.158,382.013 60.174,382.097 60.393 M348.083 60.500 L 339.917 60.588 348.000 60.625 C 353.001 60.648,356.179 60.600,356.333 60.500 C 356.471 60.411,356.508 60.355,356.417 60.375 C 356.325 60.395,352.575 60.452,348.083 60.500 M81.519 60.575 C 81.575 60.631,81.870 60.748,82.174 60.836 C 82.479 60.923,82.658 60.930,82.572 60.852 C 82.395 60.690,81.363 60.418,81.519 60.575 M288.375 60.625 C 290.552 60.651,294.115 60.651,296.292 60.625 C 298.469 60.599,296.688 60.577,292.333 60.577 C 287.979 60.577,286.198 60.599,288.375 60.625 M321.792 60.625 C 324.381 60.651,328.619 60.651,331.208 60.625 C 333.798 60.599,331.679 60.578,326.500 60.578 C 321.321 60.578,319.202 60.599,321.792 60.625 M260.042 79.948 C 260.202 79.990,260.465 79.990,260.625 79.948 C 260.785 79.906,260.654 79.872,260.333 79.872 C 260.012 79.872,259.881 79.906,260.042 79.948 M277.583 80.000 C 277.373 80.090,277.342 80.143,277.500 80.143 C 277.637 80.143,277.900 80.079,278.083 80.000 C 278.293 79.910,278.324 79.857,278.167 79.857 C 278.029 79.857,277.767 79.921,277.583 80.000 M279.460 79.951 C 279.668 79.991,279.968 79.990,280.127 79.948 C 280.286 79.906,280.117 79.874,279.750 79.875 C 279.383 79.877,279.253 79.911,279.460 79.951 M281.333 80.000 C 281.563 80.073,281.900 80.133,282.083 80.133 C 282.347 80.133,282.330 80.106,282.000 80.000 C 281.771 79.927,281.433 79.867,281.250 79.867 C 280.986 79.867,281.003 79.894,281.333 80.000 M127.231 82.167 C 127.231 83.313,127.258 83.781,127.290 83.208 C 127.323 82.635,127.323 81.698,127.290 81.125 C 127.258 80.552,127.231 81.021,127.231 82.167 M149.745 90.000 C 149.745 95.454,149.766 97.685,149.792 94.958 C 149.817 92.231,149.817 87.769,149.792 85.042 C 149.766 82.315,149.745 84.546,149.745 90.000 M154.072 84.000 C 154.072 86.154,154.095 87.035,154.124 85.958 C 154.153 84.881,154.153 83.119,154.124 82.042 C 154.095 80.965,154.072 81.846,154.072 84.000 M231.947 82.100 C 231.964 83.163,232.020 84.076,232.072 84.128 C 232.124 84.180,232.167 83.310,232.167 82.194 C 232.167 81.079,232.110 80.167,232.042 80.167 C 231.973 80.167,231.930 81.037,231.947 82.100 M242.578 90.000 C 242.578 95.454,242.599 97.685,242.625 94.958 C 242.651 92.231,242.651 87.769,242.625 85.042 C 242.599 82.315,242.578 84.546,242.578 90.000 M199.442 84.125 C 199.400 84.194,200.914 84.231,202.807 84.207 C 209.290 84.127,209.914 84.071,204.718 84.036 C 201.859 84.016,199.485 84.056,199.442 84.125 M133.000 92.083 C 133.000 97.139,133.058 99.833,133.167 99.833 C 133.275 99.833,133.333 97.139,133.333 92.083 C 133.333 87.028,133.275 84.333,133.167 84.333 C 133.058 84.333,133.000 87.028,133.000 92.083 M221.744 92.083 C 221.744 96.392,221.765 98.178,221.791 96.053 C 221.818 93.928,221.818 90.403,221.792 88.220 C 221.765 86.036,221.744 87.775,221.744 92.083 M250.932 84.917 C 250.782 85.146,250.724 85.333,250.803 85.333 C 250.882 85.333,251.032 85.146,251.136 84.917 C 251.241 84.688,251.299 84.500,251.266 84.500 C 251.232 84.500,251.082 84.688,250.932 84.917 M272.055 86.083 C 272.055 86.725,272.086 86.967,272.122 86.621 C 272.158 86.275,272.157 85.750,272.120 85.455 C 272.083 85.159,272.054 85.442,272.055 86.083 M201.718 87.958 C 202.984 87.986,205.009 87.986,206.218 87.958 C 207.427 87.929,206.392 87.906,203.917 87.906 C 201.442 87.906,200.452 87.930,201.718 87.958 M254.379 90.000 C 254.379 90.412,254.411 90.581,254.451 90.375 C 254.491 90.169,254.491 89.831,254.451 89.625 C 254.411 89.419,254.379 89.587,254.379 90.000 M154.075 91.878 C 154.030 91.995,154.015 93.851,154.042 96.003 L 154.090 99.917 154.128 95.878 L 154.167 91.839 158.292 91.792 L 162.417 91.744 158.286 91.705 C 155.072 91.675,154.138 91.714,154.075 91.878 M113.146 92.213 C 113.218 92.285,114.320 92.322,115.597 92.296 L 117.917 92.249 115.466 92.166 C 114.118 92.121,113.074 92.142,113.146 92.213 M285.071 98.209 L 284.583 98.749 285.083 98.333 C 285.358 98.104,285.615 97.898,285.653 97.875 C 285.691 97.852,285.686 97.797,285.641 97.752 C 285.596 97.707,285.340 97.913,285.071 98.209 M276.208 99.948 C 276.369 99.990,276.631 99.990,276.792 99.948 C 276.952 99.906,276.821 99.872,276.500 99.872 C 276.179 99.872,276.048 99.906,276.208 99.948 M259.877 100.120 C 260.131 100.158,260.506 100.157,260.711 100.117 C 260.916 100.078,260.708 100.046,260.250 100.048 C 259.792 100.049,259.624 100.081,259.877 100.120 M278.461 100.121 C 278.761 100.158,279.211 100.157,279.461 100.119 C 279.712 100.081,279.467 100.051,278.917 100.052 C 278.367 100.053,278.162 100.084,278.461 100.121 " stroke="none" fill="#3173b4" fill-rule="evenodd"></path></g></svg>