<?xml version="1.0" encoding="UTF-8"?>
<svg version="1.1" xmlns="http://www.w3.org/2000/svg" width="314" height="200">
<path d="M0 0 C26.4 0 52.8 0 80 0 C80 37.62 80 75.24 80 114 C82.64 114 85.28 114 88 114 C88 115.65 88 117.3 88 119 C80.90093232 119.87076945 75.06208948 118.64121074 68.4375 116.26953125 C67.67445557 115.99656219 66.91141113 115.72359314 66.12524414 115.44235229 C62.94289629 114.28613723 59.77049338 113.10603251 56.60644531 111.90063477 C43.42657161 106.91642047 43.42657161 106.91642047 30 110 C27.71281166 110.76738532 25.4207933 111.52047395 23.125 112.26171875 C19.52228011 113.48314804 15.92287922 114.71393087 12.32421875 115.94726562 C11.16535156 116.33978516 10.00648437 116.73230469 8.8125 117.13671875 C7.76707031 117.49467529 6.72164063 117.85263184 5.64453125 118.22143555 C3 119 3 119 0 119 C0 79.73 0 40.46 0 0 Z " fill="#FEFCFA" transform="translate(117,0)"/>
<path d="M0 0 C26.4 0 52.8 0 80 0 C80 37.62 80 75.24 80 114 C82.64 114 85.28 114 88 114 C88 115.65 88 117.3 88 119 C80.90093232 119.87076945 75.06208948 118.64121074 68.4375 116.26953125 C67.67445557 115.99656219 66.91141113 115.72359314 66.12524414 115.44235229 C62.94289629 114.28613723 59.77049338 113.10603251 56.60644531 111.90063477 C43.42657161 106.91642047 43.42657161 106.91642047 30 110 C27.71281166 110.76738532 25.4207933 111.52047395 23.125 112.26171875 C19.52228011 113.48314804 15.92287922 114.71393087 12.32421875 115.94726562 C11.16535156 116.33978516 10.00648437 116.73230469 8.8125 117.13671875 C7.76707031 117.49467529 6.72164063 117.85263184 5.64453125 118.22143555 C3 119 3 119 0 119 C0 79.73 0 40.46 0 0 Z M6 5 C6 39.98 6 74.96 6 111 C13.59507027 109.33271014 13.59507027 109.33271014 20.77734375 106.94921875 C21.78603516 106.58119141 22.79472656 106.21316406 23.83398438 105.83398438 C25.90598854 105.06855552 27.97123537 104.28458483 30.02929688 103.48242188 C37.50170844 100.80723177 41.7434435 100.99372249 49 104 C50.80640775 104.61835802 52.61642994 105.22624498 54.4296875 105.82421875 C57.17935938 106.76250477 59.92713041 107.70559275 62.671875 108.65820312 C63.56132812 108.96048828 64.45078125 109.26277344 65.3671875 109.57421875 C66.16237793 109.84838623 66.95756836 110.12255371 67.77685547 110.4050293 C70.26043884 111.17235167 70.26043884 111.17235167 74 111 C74 76.02 74 41.04 74 5 C51.56 5 29.12 5 6 5 Z " fill="#FFA504" transform="translate(117,0)"/>
<path d="M0 0 C5.61 0 11.22 0 17 0 C17 28.05 17 56.1 17 85 C8 83 8 83 0 80 C0 67.13 0 54.26 0 41 C-2.97 41 -5.94 41 -9 41 C-9 36.05 -9 31.1 -9 26 C-6.03 26 -3.06 26 0 26 C0 17.42 0 8.84 0 0 Z " fill="#FFA401" transform="translate(165,14)"/>
<path d="M0 0 C5.61 0 11.22 0 17 0 C17 26.4 17 52.8 17 80 C2 85 2 85 0 85 C0 56.95 0 28.9 0 0 Z " fill="#782F40" transform="translate(132,14)"/>
<path d="M0 0 C5.03245811 1.30817213 6.9221502 5.13768002 9.58203125 9.359375 C10.25685547 10.55046875 10.25685547 10.55046875 10.9453125 11.765625 C11.2753125 8.135625 11.6053125 4.505625 11.9453125 0.765625 C15.9053125 0.765625 19.8653125 0.765625 23.9453125 0.765625 C23.9453125 12.315625 23.9453125 23.865625 23.9453125 35.765625 C12.9453125 35.765625 12.9453125 35.765625 10.15625 33.6484375 C9.55039062 32.73835938 8.94453125 31.82828125 8.3203125 30.890625 C7.68867187 29.98570312 7.05703125 29.08078125 6.40625 28.1484375 C4.9453125 25.765625 4.9453125 25.765625 3.9453125 23.765625 C3.6153125 27.725625 3.2853125 31.685625 2.9453125 35.765625 C-1.0146875 35.765625 -4.9746875 35.765625 -9.0546875 35.765625 C-9.0793394 30.94181698 -9.09752443 26.11804533 -9.10961914 21.29418945 C-9.11465924 19.65193036 -9.12149128 18.00967577 -9.13012695 16.36743164 C-9.14220676 14.01187021 -9.14791889 11.65636791 -9.15234375 9.30078125 C-9.15750504 8.56223404 -9.16266632 7.82368683 -9.16798401 7.0627594 C-9.16818 5.29664412 -9.11663469 3.53065354 -9.0546875 1.765625 C-6.81975256 -0.46930994 -2.96285431 0.01547182 0 0 Z " fill="#782F40" transform="translate(25.0546875,139.234375)"/>
<path d="M0 0 C11 0 11 0 13.7890625 2.1171875 C14.69785156 3.48230469 14.69785156 3.48230469 15.625 4.875 C16.57246094 6.23238281 16.57246094 6.23238281 17.5390625 7.6171875 C19 10 19 10 20 12 C20.33 8.04 20.66 4.08 21 0 C24.63 0 28.26 0 32 0 C32 11.55 32 23.1 32 35 C21 35 21 35 18.17578125 32.59375 C17.56089844 31.5728125 16.94601563 30.551875 16.3125 29.5 C15.66925781 28.4790625 15.02601563 27.458125 14.36328125 26.40625 C13.91339844 25.6121875 13.46351563 24.818125 13 24 C12.67 27.63 12.34 31.26 12 35 C8.04 35 4.08 35 0 35 C0 23.45 0 11.9 0 0 Z " fill="#782F40" transform="translate(144,140)"/>
<path d="M0 0 C14.94579983 0.16387938 14.94579983 0.16387938 20.5625 4.5625 C24.64461237 8.84871799 25.35447699 11.70753069 25.375 17.625 C25.39175781 18.73746094 25.40851563 19.84992188 25.42578125 20.99609375 C24.82722385 26.25438836 22.08053307 29.8582726 18.0625 33.1875 C12.91016048 35.40915099 8.25198999 35.45883144 2.75 35.375 C1.92693359 35.37435547 1.10386719 35.37371094 0.25585938 35.37304688 C-5.79686202 35.32813798 -5.79686202 35.32813798 -6.9375 34.1875 C-7.03832764 31.75089554 -7.07722603 29.34325299 -7.0703125 26.90625 C-7.07126923 26.17756714 -7.07222595 25.44888428 -7.07321167 24.69812012 C-7.07389335 23.1547029 -7.07203988 21.61128283 -7.06787109 20.06787109 C-7.06252262 17.697526 -7.06781642 15.32737041 -7.07421875 12.95703125 C-7.07355797 11.46093708 -7.0722768 9.96484303 -7.0703125 8.46875 C-7.07233673 7.75521362 -7.07436096 7.04167725 -7.07644653 6.30651855 C-7.04561496 -0.1233905 -6.27920543 0.0366348 0 0 Z M6.0625 11.1875 C6.0625 15.8075 6.0625 20.4275 6.0625 25.1875 C7.7125 24.8575 9.3625 24.5275 11.0625 24.1875 C13.52574069 20.49263897 13.45241688 18.55456908 13.0625 14.1875 C11.95600331 12.16271537 11.95600331 12.16271537 10.0625 11.1875 C8.7425 11.1875 7.4225 11.1875 6.0625 11.1875 Z " fill="#782F40" transform="translate(59.9375,139.8125)"/>
<path d="M0 0 C1.65322266 0.01740234 1.65322266 0.01740234 3.33984375 0.03515625 C4.44457031 0.04417969 5.54929687 0.05320313 6.6875 0.0625 C7.54214844 0.07410156 8.39679688 0.08570313 9.27734375 0.09765625 C12.54532982 7.50709931 15.3952353 15.02646314 18.08984375 22.66015625 C18.40381104 23.5409082 18.71777832 24.42166016 19.04125977 25.32910156 C19.47716431 26.57771973 19.47716431 26.57771973 19.921875 27.8515625 C20.18331299 28.59736572 20.44475098 29.34316895 20.71411133 30.11157227 C21.27734375 32.09765625 21.27734375 32.09765625 21.27734375 35.09765625 C17.31734375 35.09765625 13.35734375 35.09765625 9.27734375 35.09765625 C8.61734375 33.77765625 7.95734375 32.45765625 7.27734375 31.09765625 C5.09192823 30.39830485 5.09192823 30.39830485 2.65234375 30.34765625 C1.83507812 30.2909375 1.0178125 30.23421875 0.17578125 30.17578125 C-0.76394531 30.13710937 -0.76394531 30.13710937 -1.72265625 30.09765625 C-2.21765625 32.57265625 -2.21765625 32.57265625 -2.72265625 35.09765625 C-7.01265625 35.09765625 -11.30265625 35.09765625 -15.72265625 35.09765625 C-13.52040588 27.43240417 -10.91881367 19.99302239 -8.09765625 12.53515625 C-7.48664063 10.89836914 -7.48664063 10.89836914 -6.86328125 9.22851562 C-3.43675879 0.12326968 -3.43675879 0.12326968 0 0 Z M2.27734375 16.09765625 C1.94734375 18.07765625 1.61734375 20.05765625 1.27734375 22.09765625 C2.59734375 21.76765625 3.91734375 21.43765625 5.27734375 21.09765625 C4.61734375 19.44765625 3.95734375 17.79765625 3.27734375 16.09765625 C2.94734375 16.09765625 2.61734375 16.09765625 2.27734375 16.09765625 Z " fill="#782F40" transform="translate(119.72265625,139.90234375)"/>
<path d="M0 0 C2.475 0.495 2.475 0.495 5 1 C5 5.62 5 10.24 5 15 C10.28 15 15.56 15 21 15 C21 10.05 21 5.1 21 0 C23.475 0.495 23.475 0.495 26 1 C26 12.22 26 23.44 26 35 C24.35 35 22.7 35 21 35 C21 30.05 21 25.1 21 20 C15.72 20 10.44 20 5 20 C5 24.95 5 29.9 5 35 C3.35 35 1.7 35 0 35 C0 23.45 0 11.9 0 0 Z " fill="#782F40" transform="translate(184,140)"/>
<path d="M0 0 C3.63 0 7.26 0 11 0 C12 1 12 1 12.11352539 4.23461914 C12.11336631 5.66814126 12.10767407 7.10166912 12.09765625 8.53515625 C12.0962413 9.28840683 12.09482635 10.04165741 12.09336853 10.81773376 C12.08775376 13.2326956 12.07519883 15.64756601 12.0625 18.0625 C12.0574869 19.69596221 12.05292366 21.32942586 12.04882812 22.96289062 C12.03777954 26.97529585 12.02050506 30.98763241 12 35 C8.04 35 4.08 35 0 35 C0 23.45 0 11.9 0 0 Z " fill="#782F40" transform="translate(90,140)"/>
<path d="M0 0 C3.63 0 7.26 0 11 0 C12 1 12 1 12.11352539 4.23461914 C12.11336631 5.66814126 12.10767407 7.10166912 12.09765625 8.53515625 C12.0962413 9.28840683 12.09482635 10.04165741 12.09336853 10.81773376 C12.08775376 13.2326956 12.07519883 15.64756601 12.0625 18.0625 C12.0574869 19.69596221 12.05292366 21.32942586 12.04882812 22.96289062 C12.03777954 26.97529585 12.02050506 30.98763241 12 35 C8.04 35 4.08 35 0 35 C0 23.45 0 11.9 0 0 Z " fill="#782F40" transform="translate(0,140)"/>
<path d="M0 0 C3.5 1.5 3.5 1.5 6 3 C6 3.99 6 4.98 6 6 C5.34 6.66 4.68 7.32 4 8 C2.989375 7.484375 1.97875 6.96875 0.9375 6.4375 C-2.9586629 4.73591049 -5.84292572 5.06677924 -10 6 C-10.04799216 8.88354786 -10.04799216 8.88354786 -9 12 C-6.617138 13.57853311 -4.6498719 14.65761107 -2.0625 15.75 C4.85239602 18.85239602 4.85239602 18.85239602 7 21 C7.57085213 24.05856563 7.50821232 26.93484444 7 30 C4.56216286 33.54594493 2.90303911 34.71669361 -1.1875 36 C-6.06493828 36 -10.61650826 35.21979381 -15 33 C-16.29296875 30.88671875 -16.29296875 30.88671875 -17 29 C-15.3125 27.8125 -15.3125 27.8125 -13 27 C-11.32936253 27.99335201 -9.66324401 28.99431758 -8 30 C-3.26136933 30.52273153 -3.26136933 30.52273153 1 28.75 C2.16546967 27.05825633 2.16546967 27.05825633 1.9609375 25.08203125 C0.44286856 21.79288188 -2.10768651 21.28986485 -5.375 19.9375 C-12.85759319 16.81007469 -12.85759319 16.81007469 -15 14 C-16.06632003 10.49637705 -16.29987996 8.71637991 -14.875 5.3125 C-10.7811308 0.26339465 -6.38399521 -0.97066594 0 0 Z " fill="#782F40" transform="translate(307,140)"/>
<path d="M0 0 C1.65 0 3.3 0 5 0 C5 10.23 5 20.46 5 31 C10.28 31 15.56 31 21 31 C21 32.32 21 33.64 21 35 C14.07 35 7.14 35 0 35 C0 23.45 0 11.9 0 0 Z " fill="#782F40" transform="translate(235,140)"/>
<path d="M0 0 C2.475 0.495 2.475 0.495 5 1 C5 10.9 5 20.8 5 31 C10.28 31 15.56 31 21 31 C21 32.32 21 33.64 21 35 C14.07 35 7.14 35 0 35 C0 23.45 0 11.9 0 0 Z " fill="#782F40" transform="translate(264,140)"/>
<path d="M0 0 C2.475 0.495 2.475 0.495 5 1 C5 12.22 5 23.44 5 35 C3.35 35 1.7 35 0 35 C0 23.45 0 11.9 0 0 Z " fill="#782F40" transform="translate(220,140)"/>
<path d="M0 0 C4.59037956 1.14759489 5.33669182 2.29039218 8 6 C8.598125 5.01 9.19625 4.02 9.8125 3 C10.8953125 1.515 10.8953125 1.515 12 0 C12.99 0 13.98 0 15 0 C15 5.28 15 10.56 15 16 C14.01 16 13.02 16 12 16 C11.67 13.69 11.34 11.38 11 9 C10.01 10.485 10.01 10.485 9 12 C5.125 10.25 5.125 10.25 4 8 C3.67 10.64 3.34 13.28 3 16 C2.01 16 1.02 16 0 16 C0 10.72 0 5.44 0 0 Z " fill="#776E64" transform="translate(42,184)"/>
<path d="M0 0 C0.99 0 1.98 0 3 0 C5.1875 3 5.1875 3 7 6 C9.0245738 4.06745228 10.42105792 2.36841312 12 0 C12.99 0 13.98 0 15 0 C15 5.28 15 10.56 15 16 C14.01 16 13.02 16 12 16 C11.67 13.36 11.34 10.72 11 8 C10.54625 8.66 10.0925 9.32 9.625 10 C9.08875 10.66 8.5525 11.32 8 12 C7.34 12 6.68 12 6 12 C5.34 10.68 4.68 9.36 4 8 C3.67 10.64 3.34 13.28 3 16 C2.01 16 1.02 16 0 16 C0 10.72 0 5.44 0 0 Z " fill="#776E64" transform="translate(65,184)"/>
<path d="M0 0 C4.39718646 1.09929662 4.79997334 1.55450729 7.25 5.0625 C8.03117187 6.16271484 8.03117187 6.16271484 8.828125 7.28515625 C9.21484375 7.85105469 9.6015625 8.41695312 10 9 C10.33 6.03 10.66 3.06 11 0 C11.99 0 12.98 0 14 0 C14 5.28 14 10.56 14 16 C9.81900884 14.95475221 9.27154064 14.5894258 6.75 11.4375 C6.22921875 10.79683594 5.7084375 10.15617188 5.171875 9.49609375 C4.78515625 9.00238281 4.3984375 8.50867188 4 8 C3.67 10.64 3.34 13.28 3 16 C2.01 16 1.02 16 0 16 C0 10.72 0 5.44 0 0 Z " fill="#776E64" transform="translate(108,184)"/>
<path d="M0 0 C3.07235411 0.53432245 4.03615216 1.04820288 5.875 3.5 C2.40174819 4.6577506 -0.48567448 4.56866652 -4.125 4.5 C-4.29177282 7.91656024 -4.29177282 7.91656024 -4.125 11.5 C-3.465 12.16 -2.805 12.82 -2.125 13.5 C-0.805 13.5 0.515 13.5 1.875 13.5 C2.205 12.51 2.535 11.52 2.875 10.5 C1.555 10.5 0.235 10.5 -1.125 10.5 C-1.125 9.51 -1.125 8.52 -1.125 7.5 C1.185 7.5 3.495 7.5 5.875 7.5 C5.97265625 13.65234375 5.97265625 13.65234375 5.875 15.5 C4.30558802 17.06941198 2.73365006 16.7449847 0.5625 16.8125 C-2.64134459 16.76148337 -3.89340103 16.64121889 -6.6875 14.9375 C-8.71425458 11.50082919 -8.7448676 9.42582814 -8.125 5.5 C-5.62044069 2.03781507 -4.25144029 0.68023045 0 0 Z " fill="#776E64" transform="translate(289.125,183.5)"/>
<path d="M0 0 C2.875 1.5 2.875 1.5 5 4 C5.94237143 7.99893269 5.61136591 10.98105682 3.5 14.5 C-0.25648836 16.75389302 -2.64579381 16.48380069 -7 16 C-9.71240136 14.42505728 -9.94143553 13.18824293 -10.875 10.1875 C-11.02817911 6.28143268 -10.05994354 4.28065082 -8 1 C-5.14675563 -0.42662219 -3.16545451 -0.31033868 0 0 Z M-6.9375 4.625 C-8.33317881 7.08896906 -8.33317881 7.08896906 -7.1875 10.25 C-6.795625 11.1575 -6.40375 12.065 -6 13 C-3.65466049 13.76956136 -3.65466049 13.76956136 -1 14 C0.95625978 13.04451019 0.95625978 13.04451019 2 11 C2.4167552 7.95788569 2.4167552 7.95788569 2 5 C0.17528109 2.78103864 0.17528109 2.78103864 -2.4375 2.625 C-5.08630213 2.78365441 -5.08630213 2.78365441 -6.9375 4.625 Z " fill="#776E64" transform="translate(30,184)"/>
<path d="M0 0 C1.75309212 3.19681504 1.54917132 6.43205589 1.0625 9.9375 C0.125 12.4375 0.125 12.4375 -1.9375 13.9375 C-5.0049614 14.43446302 -7.88549039 14.55121932 -10.9375 13.9375 C-13.38250333 12.03337777 -13.88827344 11.11168629 -14.75 8.0625 C-14.95582636 4.6320606 -14.66275262 2.89507592 -12.9375 -0.0625 C-9.08672206 -3.20017091 -4.15663985 -2.27944766 0 0 Z M-10.875 3.125 C-12.19176738 5.88028597 -12.19176738 5.88028597 -11.4375 8.6875 C-10.11089393 11.13179715 -10.11089393 11.13179715 -7.5 11.9375 C-4.95578275 12.15348437 -4.95578275 12.15348437 -3.125 10.875 C-1.43806589 8.12263382 -1.60088048 6.1017235 -1.9375 2.9375 C-3.76536272 0.72892762 -3.76536272 0.72892762 -6.375 0.5 C-9.13031236 0.69512935 -9.13031236 0.69512935 -10.875 3.125 Z " fill="#776E64" transform="translate(220.9375,186.0625)"/>
<path d="M0 0 C3.96 0 7.92 0 12 0 C12 0.99 12 1.98 12 3 C9.03 3 6.06 3 3 3 C3 4.32 3 5.64 3 7 C5.64 7 8.28 7 11 7 C11 7.66 11 8.32 11 9 C8.36 9 5.72 9 3 9 C3 10.65 3 12.3 3 14 C5.97 14 8.94 14 12 14 C12 14.66 12 15.32 12 16 C8.04 16 4.08 16 0 16 C0 10.72 0 5.44 0 0 Z " fill="#776E64" transform="translate(302,184)"/>
<path d="M0 0 C3.96 0 7.92 0 12 0 C12 0.99 12 1.98 12 3 C9.03 3 6.06 3 3 3 C3 4.32 3 5.64 3 7 C5.64 7 8.28 7 11 7 C11 7.66 11 8.32 11 9 C8.36 9 5.72 9 3 9 C3 10.65 3 12.3 3 14 C5.97 14 8.94 14 12 14 C12 14.66 12 15.32 12 16 C8.04 16 4.08 16 0 16 C0 10.72 0 5.44 0 0 Z " fill="#776E64" transform="translate(263,184)"/>
<path d="M0 0 C0.99 0 1.98 0 3 0 C3.06058594 0.77085937 3.12117188 1.54171875 3.18359375 2.3359375 C3.26738281 3.33882812 3.35117188 4.34171875 3.4375 5.375 C3.55931641 6.87160156 3.55931641 6.87160156 3.68359375 8.3984375 C3.84965626 10.97927613 3.84965626 10.97927613 5 13 C6.65 12.67 8.3 12.34 10 12 C10.33 8.04 10.66 4.08 11 0 C11.99 0 12.98 0 14 0 C14.08133791 1.91595968 14.13934367 3.83291932 14.1875 5.75 C14.22230469 6.81734375 14.25710937 7.8846875 14.29296875 8.984375 C13.96536003 12.35656071 13.44723521 13.68475051 11 16 C8.24988274 16.80396573 5.78188515 16.63751535 3 16 C0.351862 13.60012493 0.0439539 11.72779474 -0.16796875 8.21875 C-0.1856727 5.47109698 -0.12976542 2.74429825 0 0 Z " fill="#776E64" transform="translate(87,184)"/>
<path d="M0 0 C3.07235411 0.53432245 4.03615216 1.04820288 5.875 3.5 C2.6785914 4.56546953 0.21752724 4.57427838 -3.125 4.5 C-3.80173447 7.90320934 -3.80173447 7.90320934 -4.125 11.5 C-3.465 12.16 -2.805 12.82 -2.125 13.5 C1.47179066 13.17673447 1.47179066 13.17673447 4.875 12.5 C5.205 13.49 5.535 14.48 5.875 15.5 C2.66919594 17.10290203 -0.64682314 16.98117071 -4.125 16.5 C-6.625 14.9375 -6.625 14.9375 -8.125 12.5 C-8.6875 9.0625 -8.6875 9.0625 -8.125 5.5 C-5.62044069 2.03781507 -4.25144029 0.68023045 0 0 Z " fill="#776E64" transform="translate(195.125,183.5)"/>
<path d="M0 0 C3.07235411 0.53432245 4.03615216 1.04820288 5.875 3.5 C2.6785914 4.56546953 0.21752724 4.57427838 -3.125 4.5 C-3.80173447 7.90320934 -3.80173447 7.90320934 -4.125 11.5 C-3.465 12.16 -2.805 12.82 -2.125 13.5 C1.47179066 13.17673447 1.47179066 13.17673447 4.875 12.5 C5.205 13.49 5.535 14.48 5.875 15.5 C2.66919594 17.10290203 -0.64682314 16.98117071 -4.125 16.5 C-6.625 14.9375 -6.625 14.9375 -8.125 12.5 C-8.6875 9.0625 -8.6875 9.0625 -8.125 5.5 C-5.62044069 2.03781507 -4.25144029 0.68023045 0 0 Z " fill="#776E64" transform="translate(8.125,183.5)"/>
<path d="M0 0 C3.79588866 0.54226981 5.47211993 2.20127563 8 5 C8.598125 4.175 9.19625 3.35 9.8125 2.5 C10.534375 1.675 11.25625 0.85 12 0 C12.99 0 13.98 0 15 0 C14.05341663 2.62130781 13.23221815 4.72133822 11.4375 6.875 C9.46016536 9.79801642 9.33315406 12.53519775 9 16 C8.01 16 7.02 16 6 16 C5.938125 14.989375 5.87625 13.97875 5.8125 12.9375 C5.27944207 8.96379542 3.54026615 6.55268076 1.05859375 3.48046875 C0 2 0 2 0 0 Z " fill="#776E64" transform="translate(156,184)"/>
<path d="M0 0 C0.99 0 1.98 0 3 0 C3 4.62 3 9.24 3 14 C5.64 14 8.28 14 11 14 C11 14.66 11 15.32 11 16 C7.37 16 3.74 16 0 16 C0 10.72 0 5.44 0 0 Z " fill="#776E64" transform="translate(246,184)"/>
<path d="M0 0 C0.99 0 1.98 0 3 0 C3 4.62 3 9.24 3 14 C5.64 14 8.28 14 11 14 C11 14.66 11 15.32 11 16 C7.37 16 3.74 16 0 16 C0 10.72 0 5.44 0 0 Z " fill="#776E64" transform="translate(229,184)"/>
<path d="M0 0 C3.96 0 7.92 0 12 0 C12 0.99 12 1.98 12 3 C10.35 3 8.7 3 7 3 C7 7.29 7 11.58 7 16 C6.34 16 5.68 16 5 16 C5 11.71 5 7.42 5 3 C3.35 3 1.7 3 0 3 C0 2.01 0 1.02 0 0 Z " fill="#776E64" transform="translate(139,184)"/>
<path d="M0 0 C0.99 0 1.98 0 3 0 C3 5.28 3 10.56 3 16 C2.01 16 1.02 16 0 16 C0 10.72 0 5.44 0 0 Z " fill="#776E64" transform="translate(129,184)"/>
</svg>
