<svg xmlns="http://www.w3.org/2000/svg" width="400" height="59.9" viewBox="0 0 320 47.9">
  <g transform="matrix(0.02522065,0,0,-0.02522065,-0.30224537,47.919232)" fill="#330A57">
    <path d="M488 1798 492 1695 300 950C105 191 103 185 12 8 10 3 194 0 422 0l413 0-3 104c-4 99-1 114 47 297l51 192 57 52c32 29 72 64 90 79l31 26 124-372 125-373 393-3 393-2-17 22c-67 92-84 136-261 672-148 447-183 562-173 572 149 136 563 492 622 535 45 32 92 67 106 78l25 20-302 1c-298 0-303 0-303-20 0-33-45-113-92-163-60-65-672-597-676-587-6 15 130 525 158 595 15 39 40 90 54 115 14 25 26 48 26 53 0 4-186 7-413 7l-414 0 5-102zM5445 1743c-37-87-70-164-73-172-4-11 1-12 23-7 26 7 535 9 542 3 4-4-334-1325-348-1362-7-16-32-69-55-118l-44-87 416 0 415 0-7 23c-25 73-9 151 160 817 92 360 172 672 177 693l10 37 249 0c137 0 260-4 274-10 31-11 30-14 46 150 6 63 13 132 17 153l6 37-871 0-870 0-67-157zM7645 1871c28-16 62-42 77-58l28-29-67-99C6969 611 6663 163 6588 85l-80-85 241 0 241 0 0 38c1 55 26 102 155 292l116 170 447-2 446-3 8-30c18-63 48-250 48-301 0-30-9-79-19-109l-19-55 435 0 435 0-16 22c-32 45-64 114-84 183-12 39-94 419-182 845-89 426-165 792-171 813l-10 37-492 0-492 0 50-29zm370-693c36-189 68-349 71-355 3-10-62-13-301-13-213 0-305 3-305 11 0 13 452 699 461 699 4 0 37-154 74-342zM9151 1755c-34-80-65-155-70-168l-9-22 284 3c156 2 284 1 284-1 0-2-77-305-171-673C9301 235 9277 157 9218 53l-29-53 416 0 417 0-8 32c-20 86-6 154 171 845 96 377 175 687 175 689 0 6 522 0 540-6 11-4 16 18 26 115 7 66 15 144 18 173l6 52-869 0-869 0-61-145zM11055 1788l0-113-177-685c-203-783-207-798-259-902-22-43-39-80-39-83 0-3 370-4 821-3l822 3 64 164c35 90 62 165 60 167-2 3-16 0-31-6-17-6-187-10-457-10-402 0-429 1-428 18 0 9 26 116 57 237l57 220 390 3c326 2 397 0 434-13 24-8 46-13 49-11 4 4 91 344 92 358 0 4-15 2-32-3-18-5-217-9-441-9-323 0-408 3-404 13 3 6 29 108 58 224l53 213 405 2c353 3 412 1 458-13 53-17 53-17 58 5 7 32 35 282 35 311l0 25-823 0-822 0 0-112zM3840 1880c-111-15-229-76-293-151-63-72-85-130-156-404-38-149-77-297-85-330-22-83-21-209 3-261 22-49 78-97 140-121 40-15 94-18 411-21 359-3 365-3 388-25 21-19 23-29 20-82-2-38-13-79-28-110l-25-50-479-3-479-2-55 25c-30 14-56 24-57 23-1-2-12-77-24-168-12-91-25-173-27-182-5-17 33-18 700-18 440 0 734 4 783 11 152 20 268 100 324 224 16 35 49 144 74 242 26 98 65 248 87 333 50 187 55 281 21 345-26 49-88 110-128 126-21 8-148 14-413 18l-384 6-19 24c-24 30-24 34 6 130 40 127-8 117 546 111l474-5 48-28c31-18 47-23 47-15 0 7 9 90 20 183 11 94 20 173 20 178 0 9-1388 7-1460-3zM2172 1033c-12-31-82-305-82-322 0-17 987-15 987 2 0 6 19 83 42 170 22 87 41 162 41 168 0 5-187 9-489 9l-489 0-10-27z"/>
  </g>
</svg>
