<?xml version="1.0" encoding="UTF-8" standalone="no"?>
<svg xmlns:rdf="http://www.w3.org/1999/02/22-rdf-syntax-ns#" xmlns="http://www.w3.org/2000/svg" xml:space="preserve" viewBox="0 0 324.86947 215.41883" height="215.42" width="324.87" version="1.1" y="0px" x="0px" xmlns:cc="http://creativecommons.org/ns#" xmlns:xlink="http://www.w3.org/1999/xlink" xmlns:dc="http://purl.org/dc/elements/1.1/"><defs><clipPath id="a"><use xlink:href="#h" height="100%" width="100%" y="0" x="0"/></clipPath><rect id="h" y="1.8" width="264.6" x="-6.7" height="164.9"/><rect id="am" y="1.8" width="248.2" x="1.5" height="164.9"/><rect id="r" y="1.8" width="264.6" x="-6.7" height="164.9"/><rect id="i" y="1.8" width="248.2" x="1.5" height="164.9"/><rect id="g" y="1.8" width="248.2" x="1.5" height="164.9"/><rect id="au" y="1.8" width="264.6" x="-6.7" height="164.9"/><rect id="as" y="1.8" width="248.2" x="1.5" height="164.9"/><rect id="aq" y="1.8" width="264.6" x="-6.7" height="164.9"/><rect id="ao" y="1.8" width="248.2" x="1.5" height="164.9"/><rect id="an" y="1.8" width="264.6" x="-6.7" height="164.9"/><rect id="ak" y="1.8" width="248.2" x="1.5" height="164.9"/><rect id="ai" y="1.8" width="264.6" x="-6.7" height="164.9"/><rect id="ag" y="1.8" width="248.2" x="1.5" height="164.9"/><rect id="ae" y="1.8" width="264.6" x="-6.7" height="164.9"/><rect id="ac" y="1.8" width="248.2" x="1.5" height="164.9"/><rect id="aa" y="1.8" width="264.6" x="-6.7" height="164.9"/><rect id="y" y="1.8" width="248.2" x="1.5" height="164.9"/><rect id="w" y="1.8" width="264.6" x="-6.7" height="164.9"/><rect id="u" y="1.8" width="248.2" x="1.5" height="164.9"/><rect id="s" y="1.8" width="264.6" x="-6.7" height="164.9"/><rect id="p" y="1.8" width="248.2" x="1.5" height="164.9"/><rect id="n" y="1.8" width="264.6" x="-6.7" height="164.9"/><rect id="l" y="1.8" width="248.2" x="1.5" height="164.9"/><rect id="j" y="1.8" width="264.6" x="-6.7" height="164.9"/></defs><style type="text/css">
	.st0{clip-path:url(#e);fill:#FFFFFF;}
	.st1{clip-path:url(#c);fill:#FFFFFF;}
	.st2{clip-path:url(#b);fill:#EEB210;}
	.st3{clip-path:url(#a);fill:#003876;}
	.st4{clip-path:url(#a);fill:#EEB210;}
	.st5{clip-path:url(#a);fill:#4D4D4C;}
	.st6{clip-path:url(#a);fill:#FFFFFF;}
	.st7{clip-path:url(#a);fill-rule:evenodd;clip-rule:evenodd;fill:#003876;}
	.st8{clip-path:url(#av);fill:none;stroke:#EEB210;stroke-width:0.643;stroke-miterlimit:3.864;}
	.st9{clip-path:url(#at);fill-rule:evenodd;clip-rule:evenodd;fill:#003876;}
	.st10{clip-path:url(#ar);fill:none;stroke:#EEB210;stroke-width:0.643;stroke-miterlimit:3.864;}
	.st11{clip-path:url(#ap);fill-rule:evenodd;clip-rule:evenodd;fill:#003876;}
	.st12{clip-path:url(#f);fill:none;stroke:#EEB210;stroke-width:0.643;stroke-miterlimit:3.864;}
	.st13{clip-path:url(#al);fill-rule:evenodd;clip-rule:evenodd;fill:#003876;}
	.st14{clip-path:url(#aj);fill:none;stroke:#EEB210;stroke-width:0.643;stroke-miterlimit:3.864;}
	.st15{clip-path:url(#ah);fill-rule:evenodd;clip-rule:evenodd;fill:#003876;}
	.st16{clip-path:url(#af);fill:none;stroke:#EEB210;stroke-width:0.643;stroke-miterlimit:3.864;}
	.st17{clip-path:url(#ad);fill-rule:evenodd;clip-rule:evenodd;fill:#003876;}
	.st18{clip-path:url(#ab);fill:none;stroke:#EEB210;stroke-width:0.643;stroke-miterlimit:3.864;}
	.st19{clip-path:url(#z);fill-rule:evenodd;clip-rule:evenodd;fill:#003876;}
	.st20{clip-path:url(#x);fill:none;stroke:#EEB210;stroke-width:0.643;stroke-miterlimit:3.864;}
	.st21{clip-path:url(#v);fill-rule:evenodd;clip-rule:evenodd;fill:#003876;}
	.st22{clip-path:url(#t);fill:none;stroke:#EEB210;stroke-width:0.643;stroke-miterlimit:3.864;}
	.st23{clip-path:url(#q);fill-rule:evenodd;clip-rule:evenodd;fill:#003876;}
	.st24{clip-path:url(#o);fill:none;stroke:#EEB210;stroke-width:0.643;stroke-miterlimit:3.864;}
	.st25{clip-path:url(#m);fill-rule:evenodd;clip-rule:evenodd;fill:#003876;}
	.st26{clip-path:url(#k);fill:none;stroke:#EEB210;stroke-width:0.643;stroke-miterlimit:3.864;}
	.st27{clip-path:url(#d);fill:#003876;}
</style><g style="" transform="matrix(1.3054 0 0 1.3027 -1.2004 -1.5162)"><g style=""><clipPath id="e"><use xlink:href="#am" height="100%" width="100%" y="0" x="0"/></clipPath><path d="m101.7 6.7c-27.8-0.2-54.2 6.9-72.4 23.8-0.1-1.1-0.9-8.8-0.9-8.8l-7.6 9.5-1.4 1.7c-6.4 8.1-13.3 18-16 30.6-0.7 3.3-1.1 6.5-1.1 9.7 0 6 1.3 12.1 3.9 18.9-2.2-0.4-4.8-1-4.8-1l3.6 6.8c10.8 20.8 29.9 35.7 55.4 44.3 10.2 3.4 16 3.9 19.3 4.2-19.7-7.2-33-21.3-41.4-34.6 1.7 0.3 3.4 0.7 3.4 0.7l-2.5-6.3c-2.1-5.3-3.1-12.2-3.1-17.7 0-2.8 0.2-5.4 0.8-7.1 2.6-8.6 24-18.1 36.7-16.5-1.2 0.1-3.9 0.7-3.9 0.7s11 0.5 20.3 2.8 20.6 5.6 30.5 10c4.4 1.9 17.5 8.5 27.2 15.1l-1.7-2.8s0.8 0.2 2.9 1.6c3.2 2.2 6.6 6.3 6.8 7.1 0 0.5-0.4 0.7-2.8 1.2-3.1 0.7-6.4 1.2-6.4 1.2s3.1 3.2 8 4.8c4.8 1.6 8 1.7 11.1 1.4 2.6 4 7.5 8.3 16.5 10.7 13.4 3.5 24.8 0.4 32.9-2.9 1.7 3.6 2.6 7.1 2.6 9.9 0 0.9-0.1 1.8-0.3 2.6-0.7 2.9-6.2 7.6-9.8 9s-4.6 1.7-5.7 2.1c1.3 1.1 4.7 2.8 6.2 3.3 2 0.7 4.5 1.2 5.9 1.4 6.2 1.1 12.4 0.5 17.9-1.2 7-2.3 12.2-6.7 14.9-12.8 2.1-4.7 2.9-9.2 2.9-13.5 0-11-5.5-20.1-8.4-24.2 1.6-1.6 2.5-3.6 2.5-5.9v-0.3c0-6.3-5.9-13.3-11.8-17.7-1.6-7-5.9-14-13.3-21.8-3.5-3.7-7.7-7.3-12.2-11.1-4.1-3.5-17.5-12.8-21.1-17.8 0 0 2.5 5.5 3.2 7.2-9-6.1-23.9-13.5-33.1-17.1l-12.5-4.9s3.1 4 5.5 7.1c-10.3-3.3-21.9-5.7-26.3-6.3h0.1c-9.2-1.4-23.5-2.1-28-1.8 1.4 0.6 4.3 2.6 7.5 4.7" clip-path="url(#e)" class="st0" fill="#fff"/></g><g style=""><clipPath id="c"><use xlink:href="#r" height="100%" width="100%" y="0" x="0"/></clipPath><path d="m58.2 142.7c-25.8-9.9-43.3-26-53.1-44.8h0.1s0-0.1-0.1-0.1l-3.2-0.6c9.8 18.7 27.2 34.8 52.9 44.6 5.4 2.1 9.6 3.4 13.1 4.2-2.6-0.8-5.8-1.8-9.7-3.3" clip-path="url(#c)" class="st1" fill="#fff"/></g><g style="" fill="#efab00"><clipPath id="b"><use xlink:href="#i" height="100%" width="100%" y="0" x="0"/></clipPath><path d="m38.5 70.2c1.3-1 2.9-1.9 4.6-2.8l1.1-1.6c-2.2 0.9-4.1 2.4-5.7 4.4" clip-path="url(#b)" class="st2"/><path d="m12.2 99.9c-5.7-12.1-7.8-21.7-5.4-32.8 2.7-12.6 9.9-22.3 15.3-29.1l-0.4-4.6c-5.1 6.6-15 17.7-18.2 33-2.3 11.1-0.2 20.7 5.6 32.8l-4.2-0.8c9.8 18.7 27.3 34.9 53 44.7 5.5 2.1 9.6 3.4 13.1 4.2-2.8-0.8-6-1.9-9.9-3.4-25.8-9.9-43.3-26-53.1-44.8l4.2 0.8z" clip-path="url(#b)" class="st2"/></g><g><path d="m35.7 107.7c-3.3-8.6-4.1-21.1-2.4-27.1 1.1-3.7 2.8-7.5 5.2-10.4 1.6-1.9 3.9-3.8 6-4.9l-1.3 2.1-4.2 6c6.7-6.3 24.8-13.6 44.2-12.3 1.7 0.1 3.3 0.3 5 0.5l-7.7 1.7-1.9 0.4c1.9-0.1 5 0.2 8.8 0.8 8.6 1.5 25 6.3 34.9 10.6 5.6 2.5 13.5 6.1 22.9 12.5-1-1.9-1.9-3.8-2.9-5.5 4.9 3.7 10.9 8.6 12.3 10 3.3 3.5 6.3 7 6.1 9-0.1 2.1-4.5 1.9-4.7 2.1 5.6 1.7 10 1.7 11.7 0.6-2.5-2.8-3.4-5.8-3.8-9.7-1.7-2.5-12.1-16.1-38.2-24.2 0 0 2.1 1.5 5.1 3.7-4.7-2.2-10.3-4.5-15.6-6.4-4.2-1.5-14.9-4.4-21.2-5.8l7-1.7c-12.4-6-38.7-3.9-50.7 2l5.2-6.9c-15.4 3.1-23 13.6-25.6 20.6-2.9 7.6-3.3 18.8-0.1 29.2l-4.6-0.9c0.5 1.3 1 2.6 1.6 3.9 3.4 7.3 8.7 13.9 15.8 20.7-8.6-5.2-16.7-12.9-22.7-20.7-2.2-2.8-4.1-5.5-5.6-8.1l4.1 0.8c-6.3-11.6-9.5-20.7-6.3-33.2 0 0 0.1-0.5 0.2-0.6 1.6-6.4 6.8-15.5 11.1-21l1.3 7.6c27.1-33.4 61.2-40.8 101.8-33.7-0.9-1-2.8-4.3-5.2-6.5 16.8 0 42.3 12.2 47 14.8l-3.7-6c12.6 5.6 25.6 12.7 33.9 20.1-0.4-1.2-1.2-3.9-1.5-4.7 1.4 1.1 12 10.2 17.8 15.6 9.1 8.5 13.1 17.8 15 23.7 0.1-0.1-0.3-3.1-0.3-3.7 4.8 5 10.1 11.9 6.9 17.6-0.1 0.2-0.3 0.5-0.4 0.7l-2.9-1.6 0.8 1.1c0.8 1.2 5.5 8.1 7.6 17.1 1.4 6.1 1.6 13.2-1.4 20-2.9 6.3-9.2 10.1-15.9 11.4-3.4 0.7-7.6 1-10.2 0.6 0.8 0.1 7.6-2.9 10.3-8.2 2-3.9 1.6-10.3-0.1-14.8-1-2.6-2.3-5.4-3.8-7.8-0.5-0.8-0.7-1.1-0.7-1.1-8.1-11.9-21.2-17.8-27.6-19.3-8.4-2.1-14.8 0.5-16.5 6 0 0-0.2 1.4-0.2 2l0.1-0.1c0.6-0.2 1.5-0.2 2.4-0.3 1.8 0 3.9 0.2 5.6 0.3 2.6 0.3 7.7 1.2 10.1 1.7-2.1-1.1-8.2-2.8-10.6-3.1-0.4 0-0.7-0.1-1-0.1-1.4-0.1-2.7-0.2-3.8-0.1 0.1-0.1 0.2-0.1 0.2-0.1l0.7-0.9c2.7-2.9 7.8-3.1 12.3-2 5.1 1.3 14.2 5.2 21.1 12.7-4 1.7-13.8 4.6-24.8 1-9.3-3-9.8-8.7-9.8-9 0 0.3-2.3 7.4 8.2 11.2 0 0 0.2 0.1 0.8 0.3 9.9 3.3 17.7 1.4 22.3-0.3 1.4-0.5 2.5-1.1 3.3-1.5l1.1-0.5c0.5 0.6 1 1.3 1.5 2 0 0 0.3 0.4 1 1.4-7.1 3.2-18.2 6.5-31.6 2.9-4.1-1.1-7.3-2.6-9.8-4.3-6.1-4.1-7.9-9-7.9-9.3l0.1 1.3c0 0.2 0.3 4 3.6 8 2.4 2.9 6.5 6 13.3 7.7 14.3 3.8 26.2-0.7 33.7-4.1 3 5.3 5.7 12.3 4.2 18.2-0.9 3.7-5.3 7.9-10.3 10.4 0.7 0.3 2.5 0.8 3.8 1 10 1.7 23.9-0.4 29.1-11.8 3.4-7.6 3-15 1.2-21.3-1.7-6-4.8-10.9-6.9-13.7 0-0.9-0.4-2.8-0.2-2.9 6.7-3.9 0-14.3-8.8-20.2-1.2-6.6-5.1-13.5-12.7-21.6-6.9-6.9-15.9-13.3-25.9-23 0.3 1 2 6.4 1.9 6.2-5.1-5.2-26.3-16.5-38.3-21.2 1 1.3 3.3 4.4 4.9 6.8-9.9-5-30.5-9.7-37.5-10.7-4.7-0.8-9.4-0.9-14.5-1.2 2.1 1.4 4.9 3.7 6.6 5-35.6-4-68.7 8.5-87.8 30.2l-0.3-4.1-0.5-5.9c-0.9 1.2-2 2.5-3.2 4-5.5 6.8-12.7 16.5-15.4 29.1-2.4 11.2-0.3 20.8 5.4 32.8l-4.2-0.8c2 3.8 4.3 7.6 7 11.2 10.3 14 25.6 25.8 46.2 33.7 3.9 1.5 7.1 2.6 9.9 3.4 3.2 0.9 6 1.5 8.5 2-25.6-9.3-40.8-23.3-48.2-39.1-0.1-0.3-0.2-0.5-0.3-0.8l3.7 0.8m0.1 0 0.8 0.2c0-0.1 0-0.1-0.1-0.2" clip-path="url(#a)" class="st3" fill="#003976"/><path d="m231.5 91.6c-1.9 0.9-3.7 0.9-5 0.7-3.5 0.4-6.5-0.8-6.6-0.8 0 0 1.5 0 3.5-0.3-2.5-0.1-4.9-1-7.2-2.3-1.1 0-2.1 0.1-3.1-0.1 3.4 2.8 5.8 5.3 7.4 7.5 4.3 5 7.5 10.1 7.5 10.1s-4.5-5-6.9-7.4c-4.2-4.2-10.1-8.3-15.8-11.7-10.8-5.5-14.3-7.1-22.1-7.2-7.9-0.2-15 4.3-17 9.4-0.8 3-0.4 6.8 1.1 10.3l-0.1-1.3c0 0.4 2.6 9.9 16.7 13.6 13.4 3.5 24.5 0.3 31.6-2.9-0.8-1.2-1.6-2.3-2.5-3.3l-1.1 0.5c-3.2 1.6-12.6 6-25.6 1.7-4.8-1.6-7.2-3.8-8.3-5.9-1.6-1.7-2.6-3.7-2.7-5.9-0.2 0-0.3 0.1-0.4 0.1l-0.1 0.1c0-0.6 0.2-2 0.2-2 1.7-5.5 8.1-8.1 16.5-6 6.6 1.6 20.3 7.8 28.3 20.4 1.5 2.4 2.8 5.1 3.8 7.8 1.7 4.5 2.1 10.9 0.1 14.8-2.7 5.3-9.5 8.4-10.3 8.2 2.5 0.4 6.7 0.1 10.2-0.6 6.7-1.3 13-5.1 15.9-11.4 0.5-1.2 1-2.4 1.3-3.5 2.4-13.9-8-33.1-9.3-32.6" clip-path="url(#a)" class="st4" fill="#efab00"/><path d="m233.9 82.2c-2-4-4.8-4.6-4.8-4.6l-0.1 4.7s-1.1-4-1.7-6c-2-6.8-8.1-15.9-15-22.4 0.5 1 0.8 2 0.8 2.8-3.8-4.6-14.6-13.4-14.6-13.4l1.3 4.1s-0.7-0.9-1.5-1.9c-7.2-8.5-26.9-18.8-32.9-21.9l2.6 4.3c-0.5-0.3-1.1-0.6-2-1l2.7 4.5-14-6.6 7.5 0.2c-2.1-1-4.7-2.1-7.5-3.3-6.9-2.4-14.4-4.4-23.4-6.1-1.6-0.3-3.2-0.6-4.9-0.8 1.5 1 4 4.5 5.2 5.6-29.5-4.1-53.7-2.1-72.7 5.1-12.5 5.8-24.1 14.8-34.6 27.7l-0.3-1.8v0.1l-1-5.8c-4.2 5.5-9.4 14.6-11 20.9 0 0.1-0.1 0.5-0.2 0.6-1.4 5.6-1.6 10.6-0.7 15.4 1.2 5.2 3.5 10.3 6.6 16l-0.6-0.1c0.3 0.6 0.7 1.2 1 1.9l-3.2-0.6c5.4 8.5 14 17.9 23.4 24.5-6.1-6.5-10.6-13-13.2-20.4l0.3 0.1c-0.2-0.6-0.5-1.2-0.7-1.8l4.5 0.9c-0.3-1.2-0.6-2.5-0.9-3.7-2.1-9.3-1.5-18.8 1.1-25.4 2.1-5.4 10.8-17.6 25.2-21.4l-2.1 3.3c0.9-0.3 1.9-0.5 2.9-0.7l-3.4 4.3c11.9-4.9 28.7-6.6 49.2-0.6l-2 0.3c0.6 0.2 1.2 0.5 1.8 0.8l-3.5 0.9c6.2 1.5 13.9 3.7 17.4 4.9 3.7 1.3 8.2 3.4 12.6 5.7-1.1-0.8-1.8-1.3-1.8-1.3 6.5 2 12.1 4.4 16.7 6.8l-0.8-1.5c6.7 3.7 11.6 7.6 14 10.2l0.1 0.1c4.9 4.1 7.4 7.4 8.2 8.5 0.2 2.2 0.6 4 1.3 5.7-2-9.3 0.1-12.1 0.8-13.7 0.2-0.5 0.5-0.9 0.8-1.3 3.1-4.7 10.1-7.4 16.1-7.2 6.2 0.2 12.2 1.9 18.2 5.5-1.1-1.3-1.2-3-0.8-4.3 0.1-0.2 0.1-0.4 0.2-0.5 0.1-0.4 0.2-0.7 0.3-1 0.3-0.8 1-1.3 1.7-1.6-0.4-1.4-1.9-4.4-5.5-4.8-2.3-0.3-3.4 0.6-3.4 0.6s0.7-1.3 1.9-1.8c-1.2-0.7-4.3 0-4.4 0 0.1-0.1 3-2.8 7.4-1.4 0.9 0.3 1.7 0.7 2.4 1.1-0.6-0.9-1-1.4-1-1.4 0.5 0 3.8 1 5.6 4.8 0.4 0.9 1.4 3.1 2 4.3 1 2.1 3 5.2 5 7.2 3.3 3.4 6.9 4.6 11 4.5 4.2 0 5.7-2.8 5.8-2.9 0 0.1 0.1 2-1.2 3.5 0.9-0.5 2.1-1.7 2.4-2.5 0.4-1.2 0.1-3.4-0.3-3.9 0.2 0.2 2.9 2.6 2.3 5-0.1 0.4-0.2 0.9-0.6 1.5 0.4 0.3 0.9 0.6 1.4 1l-0.7-1 2.4 1.4c1-1.2 0.8-5.1-1.1-8.9" clip-path="url(#a)" class="st4" fill="#efab00"/><path d="m202.7 76.2c-0.3-1.3-1.8-4.7-5.6-5.1-2.3-0.3-3.4 0.6-3.4 0.6s0.7-1.3 1.9-1.8c-1.2-0.7-4.3 0-4.4 0 0.1-0.1 3-2.8 7.4-1.4 0.9 0.3 1.7 0.7 2.4 1.1-0.6-0.9-1-1.4-1-1.4 0.5 0 3.8 1 5.6 4.8 0.4 0.9 1.4 3.1 2 4.3 1 2.1 3 5.2 5 7.2 2.8 2.9 5.8 4.1 9.2 4.4-1.8-0.5-3-1.5-2.8-2.6 2.6 1.1 5 1.5 6.3-1.5s0.6-13.3-11.3-26.4c0.1 0.7 0.4 2 0.5 3.3-3.1-4.4-9.5-11.1-13.4-14.1 0.2 0.8 0.8 3.4 1.1 4.5-2.1-2.2-7.9-7.2-7.9-7.2l1.2 3.7s-0.6-0.9-1.4-1.7c-6.5-7.8-24.6-17.1-30.1-20l2.4 3.9c-0.4-0.2-1-0.6-1.8-0.9l2.4 4.1-12.7-6 6.9 0.2c-1.9-0.9-4.3-1.9-6.8-3-6.3-2.2-13.2-4-21.4-5.5-1.5-0.3-3-0.5-4.5-0.7 1.2 0.7 3.1 3.2 4.3 4.6-12.7-1.8-24.5-2.4-35.3-2 20.3-0.1 57.1 10.5 72 20.7 12.4 8.5 10.4 10.5-2.9 4.5-29.6-13.2-53.6-14-53.6-14l-16.4 9.9s27.5 3.6 46.5 13.8c16.4 8.8 10.8 9.2-5.5 3.4-24.4-8.7-50.7-10.3-62.8-8.7 10.8 0.4 29.7 2.9 37.1 5.3-1.9 0.6-6.6 2.7-8.9 3.2 4.1-0.3 49.7 13.7 62.2 30.1 0-0.5 0.1-1.1 0.3-1.7 1.5-6.8 10.2-10.7 17.5-10.4 6.2 0.2 12.2 1.9 18.2 5.5-1.1-1.3-1.2-3-0.8-4.3 0.3-1.1 1.1-2 1.5-2 0.2-0.2 0.5-0.5 0.8-0.7" clip-path="url(#a)" class="st5" stroke="#4d4d4c" fill="#4d4d4c"/></g><path d="m196.8 62.1c-3.9-0.2-7.2 1.5-9.2 3.9-1.6 1.9-1.8 4.9-0.8 6.9-0.3-2.2 0.7-4.1 1.9-5.6 1.6-1.9 4.9-3.2 8.2-3.3 3.7-0.1 8.2 1.1 10.6 4.2-1.8-3.5-5.1-5.8-10.7-6.1" clip-path="url(#a)" class="st6" fill="#fff"/><g fill="#efab00"><path d="m197.2 62.7c-4-0.2-7.5 1.6-9.6 4.1-1.6 2-1.9 5.1-0.8 7.2-0.4-2.2 0.7-4.3 2-5.8 1.7-2 5.1-3.3 8.5-3.4 3.9-0.1 8.5 1.1 11 4.4-1.9-3.8-5.3-6.2-11.1-6.5" clip-path="url(#a)" class="st4"/><path d="m109.6 9.4c-36.2-2.6-65.1 7.2-83.5 25.8l0.3 4.1c17.8-20.1 46.7-31.2 83.5-29.5-0.1-0.1-0.2-0.3-0.3-0.4" clip-path="url(#a)" class="st4"/><path d="m10.9 119.1c0.3 2.1 4.9 7.5 13 13 10.4 7.1 15.7 8.1 17.7 8.2-7.5-3.5-12.4-6.3-17.5-9.8-7.2-4.9-11.8-9.5-13.2-11.4" clip-path="url(#a)" class="st4"/></g><g><path d="m221.9 98.5c-0.5-0.6-1-1.1-1.6-1.7-1.9-2.1-4.1-4.4-8.6-7.8 0 0-1.4-1-1.5-1.1h0.2 0.1c1.2 0 1.9-0.6 2.6-1.2-0.6-0.5-1.3-1.1-1.8-1.8-0.4 0.2-0.8 0.2-1.2 0.2s-0.8-0.1-1.3-0.2c-1.6-0.5-2.3-1.9-2.2-3l2 0.3s-0.5-0.9-1.2-1.7c0.3-0.2 0.6-0.4 1-0.4h0.1c-0.6-1.1-1.3-2.2-1.9-3.1-0.4-0.3-1.6-1-2.7-1-0.5 0-0.9 0.1-1.2 0.3-0.3-1.3-1.7-4.9-5.6-5.3h-0.8c-1.8 0-2.6 0.7-2.6 0.7v-0.1c0.5-0.8 1.2-1.4 1.9-1.7-0.4-0.2-0.9-0.3-1.7-0.3-1.3 0-2.7 0.3-2.7 0.3s0-0.1 0.1-0.1c1.5-1.1 3.1-1.7 4.8-1.7 0.8 0 1.7 0.1 2.5 0.4s1.5 0.7 2.2 1l0.2 0.1c-0.6-0.9-1-1.4-1-1.4 0.6 0 3.9 1 5.7 4.8 0.2 0.4 0.5 1.1 0.8 1.8 0.4 0.9 0.8 1.8 1.1 2.4 1 2 2.9 5.1 5 7.2 3 3.1 6.5 4.5 10.9 4.5h0.1c4.2 0 5.8-2.9 5.8-2.9v0.1c0 1.4-0.4 2.5-1.2 3.4 0.9-0.5 2.1-1.7 2.4-2.6 0.4-1.2 0.1-3.4-0.3-3.8 0 0 0.1 0 0.1 0.1 2.3 2.2 2.5 3.9 2.2 4.9-0.2 1-0.7 2.2-2.6 3.2-1.5 0.7-3.2 1.1-5 1.1-1.6 0-3.3-0.3-5-0.8-0.1 0-0.2 0-0.2-0.1h0.2c0.4 0 1.7 0 3.3-0.3-2.4-0.1-4.8-0.9-7.2-2.3h-0.3-1.1c-0.7 0-1.2 0-1.7-0.1 4.6 3.7 7.4 6.8 8.9 9.7z" clip-path="url(#a)" class="st3" fill="#003976"/><path d="m224.2 78.6c-2.8-0.7-4.4-2.6-6.3-5.6l-1.4-2.1c-4.8-7.1-8.4-9.5-11.3-10.5 1.9 0.1 7.7 2.2 12.7 9.7l1.4 2.1c1.8 2.9 2.7 5.9 4.9 6.4" clip-path="url(#a)" class="st4" fill="#efab00"/><path d="m222.7 79.2c-2.8-0.7-4.4-2.6-6.3-5.6l-1.4-2.1c-4.8-7-8.4-9.5-11.3-10.5 1.9 0.1 7.7 2.2 12.7 9.7l1.4 2.1c1.8 2.9 2.7 5.9 4.9 6.4" clip-path="url(#a)" class="st3" fill="#003976"/><path d="m169.8 80 2.5-0.6c-9.6-7.4-21.9-14.1-34.6-18.9-4-1.5-10.7-3.9-14.8-5.1 3.6 1.2 7.6 2.6 10.4 3.7 14.1 5.4 26.3 12.3 36.5 20.9" clip-path="url(#a)" class="st4" fill="#efab00"/><path d="m202.5 84.2c-1.7-1.8-2.3-4.1-0.6-7.2-0.4 0.1-1.2 0.9-1.5 2.1-0.4 1.3-0.3 3 0.8 4.3-6-3.6-12-5.3-18.2-5.5-7.3-0.2-16 3.7-17.4 10.4-0.6 3.1-0.1 5.3-0.1 5.3s0.2-1.8 0.5-2.6c1.1-5.7 8.7-11.1 17.4-11 7.9 0.2 11.4 1.7 22.5 7.4l1.7 0.4c-1.7-1.4-3.4-2.6-5.1-3.6" clip-path="url(#a)" class="st3" fill="#003976"/><path d="m160.7 41.4 1.3-1c-10.8-5.5-23-9.6-36.4-12.1-4.2-0.8-11.3-1.9-15.5-2.3 3.7 0.5 8 1.2 10.9 1.7 14.9 2.8 28 7.2 39.7 13.7" clip-path="url(#a)" class="st5" fill="#4d4d4c"/><path d="m19 30.1c-5.2 6.7-14.1 16.9-17 31l0.2 4.6c2.8-13.4 11.4-28.6 16.8-35.6" clip-path="url(#a)" class="st3" fill="#003976"/><path d="m166.5 140.6h-0.8-113.3-1.3l0.3-1.2 6.5-24.1 0.2-0.7h0.8 4l11.6-51.1h-4.6-1.2l0.2-1.2 4.3-23.8 0.1-0.8h0.8l111.3-0.3h1.2l-0.2 1.2-4.3 23.8-0.1 0.8h-0.8-15.8l-20.2 18.1c1.7 4.2 11.4 27.9 13.6 33.3h13.5 1.3l-0.3 1.2-6.5 24.1-0.3 0.7z" clip-path="url(#a)" class="st3" fill="#003976"/></g><path d="m164.3 61.4-21.5 19.3 0.3 0.6s0.2 0.5 0.5 1.3c2.4 5.9 12.1 29.6 13.6 33.2l0.2 0.6h13.6l-6 22.1h-111.4l6-22.1h4.9l12.5-55h-5.9l4-21.8 109.3-0.3-4 21.8h-15.8l-0.3 0.3" clip-path="url(#a)" class="st6" fill="#fff"/><g><polygon clip-path="url(#a)" points="57 136.4 57.3 135.5 61.6 119.6 61.7 119.1 62.3 119.1 66.7 119 81.2 59.2 75.4 59.2 74.6 59.2 74.7 58.3 77.5 42.7 77.6 42.1 78.2 42.1 120.3 42.1 121.3 42.1 121.1 43 117.2 58.6 117.1 59.2 116.5 59.2 111.9 59.2 108.9 71.9 123.7 59.2 121.9 59.2 121 59.2 121.2 58.3 125.1 42.7 125.2 42.1 125.8 42.1 179.8 42.1 180.7 42.1 180.5 43 177.7 58.6 177.6 59.2 177 59.2 164.4 59.2 139 79.9 155 118.8 165.8 118.8 166.8 118.8 166.6 119.7 162.2 135.8 162.1 136.4 161.5 136.4 106.9 136.4 106 136.4 106.2 135.5 110.2 119.5 110.3 118.9 110.9 118.9 120.1 118.9 113.3 102.6 98.3 115.4 97.5 119 104.2 118.9 105.1 118.9 104.9 119.8 100.9 135.8 100.8 136.4 100.2 136.4 58 136.4" class="st4" fill="#efab00"/><polygon clip-path="url(#a)" points="78.8 43.6 119.4 43.6 115.9 57.7 110.8 57.7 106.4 76 127.7 57.7 122.9 57.7 126.3 43.6 178.9 43.6 176.4 57.7 163.9 57.7 137.2 79.5 154 120.3 164.9 120.2 160.9 134.9 107.9 134.9 111.4 120.4 122.3 120.3 113.9 100.1 97 114.6 95.6 120.4 103.2 120.4 99.6 134.9 58.9 134.9 62.8 120.5 67.9 120.5 83.1 57.7 76.3 57.7" class="st3" fill="#003976"/><g stroke="#8bab00" fill="#003976"><clipPath id="av"><use xlink:href="#g" height="100%" width="100%" y="0" x="0"/></clipPath></g></g><g style=""><clipPath id="at"><use xlink:href="#au" height="100%" width="100%" y="0" x="0"/></clipPath></g><g stroke="#8bab00" fill="#003976"><clipPath id="ar"><use xlink:href="#as" height="100%" width="100%" y="0" x="0"/></clipPath></g><g stroke="#8bab00" fill="#003976"><clipPath id="ap"><use xlink:href="#aq" height="100%" width="100%" y="0" x="0"/></clipPath></g><g style=""><clipPath id="f"><use xlink:href="#ao" height="100%" width="100%" y="0" x="0"/></clipPath><path d="m82.9 151c0.1-3.6-1.9-6.5-7.6-6.5-5.1 0-9.3 2.2-10.1 6.6-1.4 7.8 10.8 5.7 10.2 8.8-0.2 1-1.4 1.5-3.1 1.5-0.7 0-1.3-0.2-1.8-0.5s-0.8-0.9-0.8-1.6h-6.4c-0.5 3.7 2.5 6.9 7.9 6.9 5.6 0 10-2.3 10.9-7.1 1.3-7.5-10.8-5.6-10.3-8.6 0.1-0.7 0.9-1.2 2.3-1.2 0.7 0 1.2 0.1 1.7 0.4 0.4 0.3 0.7 0.7 0.7 1.4h6.4z" clip-path="url(#f)" stroke="#eeb210" stroke-miterlimit="3.864" stroke-width="0.643" class="st12" fill="none"/></g><g style=""><clipPath id="al"><use xlink:href="#an" height="100%" width="100%" y="0" x="0"/></clipPath></g><g stroke="#8bab00" fill="#003976"><clipPath id="aj"><use xlink:href="#ak" height="100%" width="100%" y="0" x="0"/></clipPath></g><g style=""><clipPath id="ah"><use xlink:href="#ai" height="100%" width="100%" y="0" x="0"/></clipPath></g><g stroke="#8bab00" fill="#003976"><clipPath id="af"><use xlink:href="#ag" height="100%" width="100%" y="0" x="0"/></clipPath></g><g style=""><clipPath id="ad"><use xlink:href="#ae" height="100%" width="100%" y="0" x="0"/></clipPath></g><g stroke="#8bab00" fill="#003976"><clipPath id="ab"><use xlink:href="#ac" height="100%" width="100%" y="0" x="0"/></clipPath></g><g style=""><clipPath id="z"><use xlink:href="#aa" height="100%" width="100%" y="0" x="0"/></clipPath></g><g stroke="#8bab00" fill="#003976"><clipPath id="x"><use xlink:href="#y" height="100%" width="100%" y="0" x="0"/></clipPath></g><g style=""><clipPath id="v"><use xlink:href="#w" height="100%" width="100%" y="0" x="0"/></clipPath></g><g stroke="#8bab00" fill="#003976"><clipPath id="t"><use xlink:href="#u" height="100%" width="100%" y="0" x="0"/></clipPath></g><g style=""><clipPath id="q"><use xlink:href="#s" height="100%" width="100%" y="0" x="0"/></clipPath></g><g stroke="#8bab00" fill="#003976"><clipPath id="o"><use xlink:href="#p" height="100%" width="100%" y="0" x="0"/></clipPath></g><g style=""><clipPath id="m"><use xlink:href="#n" height="100%" width="100%" y="0" x="0"/></clipPath></g><g stroke="#8bab00" fill="#003976"><clipPath id="k"><use xlink:href="#l" height="100%" width="100%" y="0" x="0"/></clipPath><path d="m212.3 165.6 0.8-4.8h-9.2l2.8-15.7h-6.8l-3.6 20.5zl0.8-4.8h-9.2l2.8-15.7h-6.8l-3.6 20.5zm-16.8 0 0.9-4.8h-9.3l2.8-15.7h-6.7l-3.6 20.5zl0.9-4.8h-9.3l2.8-15.7h-6.7l-3.6 20.5zm-23.6-7h-4.2l3.4-7.4 0.8 7.4zm-7.5 7 1.2-2.7h6.7l0.3 2.7h6.7l-3.7-20.5h-6.8l-11 20.5h6.6zm7.5-7h-4.2l3.4-7.4 0.8 7.4zm-7.5 7 1.2-2.7h6.7l0.3 2.7h6.7l-3.7-20.5h-6.8l-11 20.5h6.6zm-14.3-8.6c2.1 0 3.7 0.1 3.4 1.9-0.3 1.5-1.6 1.9-3.2 1.9h-2.9l0.7-3.8h2zm1.4-7.1c1.4 0 2.7 0 2.4 1.6-0.2 1.2-1.3 1.8-2.6 1.8h-2.8l0.6-3.4h2.4zm-1.8 15.7c5.3 0 9.1-1.6 9.9-6.2 0.4-2.2-0.5-4.1-2.6-4.7 1.5-0.8 3.1-2.4 3.5-4.5 0.7-4.1-2.8-5.2-7.4-5.2h-9.8l-3.6 20.5h10zm0.4-8.6c2.1 0 3.7 0.1 3.4 1.9-0.3 1.5-1.6 1.9-3.2 1.9h-2.9l0.7-3.8h2zm1.4-7.1c1.4 0 2.7 0 2.4 1.6-0.2 1.2-1.3 1.8-2.6 1.8h-2.8l0.6-3.4h2.4zm-1.8 15.7c5.3 0 9.1-1.6 9.9-6.2 0.4-2.2-0.5-4.1-2.6-4.7 1.5-0.8 3.1-2.4 3.5-4.5 0.7-4.1-2.8-5.2-7.4-5.2h-9.8l-3.6 20.5h10zm-26.8-15.1h6l-2.6 15.1h6.7l2.7-15.1h6l0.9-5.4h-18.8zh6l-2.6 15.1h6.7l2.7-15.1h6l0.9-5.4h-18.8zm-2.6 15.1 0.9-4.8h-10.4l0.5-3.2h8.5l0.9-4.8h-8.5l0.5-2.9h10l0.9-4.8h-16.8l-3.6 20.5zl0.9-4.8h-10.4l0.5-3.2h8.5l0.9-4.8h-8.5l0.5-2.9h10l0.9-4.8h-16.8l-3.6 20.5zm-38.6 0h6.7l1.2-6.5 1.9-1.7 3.5 8.2h8l-6-12.8 8.9-7.7h-7.9l-7.1 6.6 1.2-6.6h-6.8zh6.7l1.2-6.5 1.9-1.7 3.5 8.2h8l-6-12.8 8.9-7.7h-7.9l-7.1 6.6 1.2-6.6h-6.8zm1.2-14.6c0.1-3.6-1.9-6.5-7.6-6.5-5.1 0-9.3 2.2-10.1 6.6-1.4 7.8 10.8 5.7 10.2 8.8-0.2 1-1.4 1.5-3.1 1.5-0.7 0-1.3-0.2-1.8-0.5s-0.8-0.9-0.8-1.6h-6.4c-0.5 3.7 2.5 6.9 7.9 6.9 5.6 0 10-2.3 10.9-7.1 1.3-7.5-10.8-5.6-10.3-8.6 0.1-0.7 0.9-1.2 2.3-1.2 0.7 0 1.2 0.1 1.7 0.4 0.4 0.3 0.7 0.7 0.7 1.4h6.4zm-27.1 7.6h-4.2l3.4-7.4 0.8 7.4zm-7.5 7 1.2-2.7h6.7l0.3 2.7h6.7l-3.7-20.5h-6.8l-11 20.5h6.6zm7.5-7h-4.2l3.4-7.4 0.8 7.4zm-7.5 7 1.2-2.7h6.7l0.3 2.7h6.7l-3.7-20.5h-6.8l-11 20.5h6.6zm-14.4-8.6c2.1 0 3.7 0.1 3.4 1.9-0.3 1.5-1.6 1.9-3.2 1.9h-2.9l0.7-3.8h2zm1.5-7.1c1.4 0 2.7 0 2.4 1.6-0.2 1.2-1.3 1.8-2.6 1.8h-2.8l0.6-3.4h2.4zm-1.8 15.7c5.3 0 9.1-1.6 9.9-6.2 0.4-2.2-0.5-4.1-2.6-4.7 1.5-0.8 3.1-2.4 3.5-4.5 0.7-4.1-2.8-5.2-7.4-5.2h-9.8l-3.6 20.5h10zm0.3-8.6c2.1 0 3.7 0.1 3.4 1.9-0.3 1.5-1.6 1.9-3.2 1.9h-2.9l0.7-3.8h2zm1.5-7.1c1.4 0 2.7 0 2.4 1.6-0.2 1.2-1.3 1.8-2.6 1.8h-2.8l0.6-3.4h2.4zm-1.8 15.7c5.3 0 9.1-1.6 9.9-6.2 0.4-2.2-0.5-4.1-2.6-4.7 1.5-0.8 3.1-2.4 3.5-4.5 0.7-4.1-2.8-5.2-7.4-5.2h-9.8l-3.6 20.5h10z" stroke="#efab00" stroke-miterlimit="3.864" stroke-width="0.643" fill="#003976"/></g><g style=""><clipPath id="d"><use xlink:href="#j" height="100%" width="100%" y="0" x="0"/></clipPath><path d="m138.4 38.9c0.4-0.3 1.4-1.1 2-1.4-17.4-7.5-48.1-8-67.5-2.1 4.4-1.1 8.2-1.8 11.3-2.3 14.4-2.2 43 1 54.2 5.8" clip-path="url(#d)" class="st27" fill="#003976"/></g></g></svg>
