<?xml version="1.0" encoding="UTF-8" standalone="no"?>
<svg xmlns:rdf="http://www.w3.org/1999/02/22-rdf-syntax-ns#" xmlns="http://www.w3.org/2000/svg" xml:space="preserve" height="65.184" width="215.31" version="1.1" xmlns:cc="http://creativecommons.org/ns#" xmlns:dc="http://purl.org/dc/elements/1.1/" viewBox="0 0 215.30859 65.183594"><g><path fill="#fff" d="m1.0172 0.99666v21.23h2.3691v18.359l-2.373 0.542v21.506c18.544-4.346 37.237-7.7884 56.15-10.086l2.5332-12.152 1.0879-0.41797 2.7734 11.9c12.357-1.0519 24.678-1.7343 37.078-2.0078v-8.6621l0.95312 1.6543h6.1856l0.99219-1.7168v8.7656c12.428 0.2735 24.826 0.93692 37.217 1.9668l2.2637-11.492 1.0098-0.38672 2.7812 12.521c12.922 1.559 25.756 3.6334 38.539 6.0605v-9.0684l4.3672 10.031c6.483 1.456 12.933 3.0235 19.377 4.6367v-23.988l-5.0195-1.2246-2.9102-6.5801 4.2578-4.2598v-15.949l-10.29-11.182h-33.229v21.225h2.3535v11.125l-8.53-32.35h-52.45l-3.78 6.6094-3.778-6.6094h-23.518v18.947l-4.996-18.947h-30.303v21.205h0.78906c-0.5935 2.2321-1.1867 4.4645-1.7734 6.6934h-15.426v-6.668h2.375v-21.23h-27.076z"/><path style="" d="m188.56 20.229h1.3945l0.88282 0.43945 0.36914 0.73047-0.46094 0.91406-0.24219 0.1543-1.9434 0.60547v-2.8438zm-40.323-3.3535-2.6875 10.148 0.80078 0.53125 4.1875-1.7773 0.69922-0.92969-2.125-7.9727h-0.875zm-88.51 0-2.6875 10.148 0.80469 0.53125 4.1836-1.7773 0.69922-0.92969-2.1211-7.9727h-0.87891zm-56.697-13.854v17.184h2.375v21.988l-2.377 0.55078v17.34c17.346-4.063 34.772-7.226 52.454-9.369l2.4629-11.82 4.2812-1.6133 2.9023 12.43c5.512-0.466 11.022-0.87272 16.543-1.2148v-0.02148c5.6449-0.2835 11.287-0.45519 16.943-0.58594v-14.225l4.1387 7.1797h3.8535l4.1797-7.2383v14.316c11.223 0.25362 22.375 0.86989 33.562 1.791l2.1289-10.822 4.2441-1.6035 2.9766 13.396c11.698 1.4161 23.278 3.26 34.855 5.459v-16.328l7.8379 17.988c5.3149 1.1892 10.614 2.4656 15.908 3.791v-17.453l-3.2715-0.78516-5.0469-11.422 4.6426-4.6445v-14.324l-9.1562-9.9434h-30.318v17.176h2.3516v15.844l-2.373-0.37109v0.03516c-0.38763-0.05325-0.77171-0.10881-1.1582-0.16406l-8.5762-32.52h-26.703v17.219h1.375l-3.06 11.614-1.0566-0.06445v-0.0059c-0.701-0.032-1.3987-0.07198-2.0996-0.11523v0.01367l-0.27539-0.01563v-11.461h2.373v-17.186h-20.277l-4.9531 8.6523-4.9492-8.6523h-20.328v17.186h2.3633v11.455l-0.13672 0.0078v-0.01367c-0.743 0.04325-1.4847 0.08317-2.2266 0.12305v0.0078l-0.96875 0.05469-7.6035-28.82h-26.725v17.16h1.3887c-1.351 5.1179-2.7072 10.236-4.0625 15.346-0.061 0.01-0.12106 0.02013-0.17969 0.03125v-4.6465h-16.664v7.3418l-0.9375 0.17383v-18.223h2.3809v-17.184h-23.043z"/><path d="m8.8473 6.3209v10.58h2.3457v27.523c-0.87363 0.155-1.6582 0.2803-2.3613 0.4043v10.514c9.6033-2.191 19.327-4.064 29.161-5.603v-15.52h-7.5664v6.3379l-2.4844 0.45508-6.4844 1.1816-1.0664-0.82812v-24.465h2.3789v-10.58h-13.924zm41.086 0.00195v10.553h2.375s-4.686 17.425-5.7246 21.369c-0.48938 0.05213-1.3829 0.13825-2.375 0.25v10.332c2.8236-0.392 5.7356-0.76642 8.5215-1.1074l2.2031-10.568 0.6543-0.89453 8.4121-3.1895h2.5488l0.75781 0.5 2.8984 12.4c2.7182-0.21588 5.4755-0.41283 8.1562-0.58008v-10.225c-0.79838 0.04425-1.5953 0.09727-2.3926 0.15039l-7.6445-28.99h-18.391zm35.299 0v10.578h2.3594v17.832c-0.578 0.02763-1.7149 0.05316-2.3594 0.08203v10.188c3.3472-0.14625 6.7045-0.26655 10.068-0.3418v-23.334h2.8379l7.9609 13.775 7.9844-13.836h2.4824v23.502c3.3661 0.09075 6.7229 0.20941 10.07 0.37891v-10.215c-0.78963-0.03762-1.5808-0.075-2.3691-0.10938v-17.922h2.3652v-10.578h-12.197l-6.877 12.012-2.8398 0.002-6.8672-12.014h-12.619zm53.23 0v10.609h2.4394l-4.873 18.551c-0.971-0.052-1.7926-0.12164-2.3906-0.16602v10.242c2.6121 0.186 5.4466 0.40427 8.0254 0.61914l1.7773-9.0273 0.6543-0.89453 8.4121-3.1895h2.4648l0.75782 0.5 3.19 14.43c3.1158 0.392 5.9369 0.77758 8.7383 1.1895v-10.346c-0.78175-0.11188-1.5657-0.22088-2.3496-0.32812l-8.4883-32.189h-18.371zm36.449 0v10.574h2.3535v23.377l-2.3672-0.35938v10.41c3.4581 0.57038 6.9029 1.1701 10.332 1.8223v-15.793l0.70117-0.69531 2.8379-1.123h2.7051l1.3711 0.68555 8.9394 20.412c2.4504 0.56925 4.8881 1.151 7.1836 1.7246v-10.611c-0.774-0.18712-1.55-0.37709-2.3262-0.55859l-6.6211-14.99 5.2793-5.2793v-11.662l-7.3027-7.9336h-23.086zm-115.19 10.553h0.87891 2.5469l2.123 7.9727-0.69727 0.92969-4.1855 1.7773h-2.5488l-0.80469-0.53125 2.6875-10.148zm88.51 0h0.87304 2.5527l2.1172 7.9727-0.69726 0.92969-4.1836 1.7773h-2.5488l-0.80078-0.53125 2.6875-10.148zm37.721 0.04883h4.75 2.4805l2.5644 1.2734 1.2832 2.541v1.2695 0.04492l-1.2793 2.5332-1.3672 0.90234-5.9258 1.8398h-2.4824l-0.75-0.74414v-8.9434l0.72656-0.7168z" fill="#e31937"/><path d="m6.3496 6.3203v10.58h2.3711v27.94c-0.7916 0.178-1.5866 0.355-2.375 0.537v10.537c0.826-0.194 1.6592-0.382 2.4863-0.572v-10.514c0.7032-0.124 1.488-0.249 2.361-0.404v-27.524h-2.3453v-10.58l-2.4981 0.0003zm105.24 0.002l-6.87 12.016 2.84-0.004 6.88-12.012-2.85 0.0003zm-64.133 0.0019v10.551h2.379s-4.682 17.686-5.725 21.627c-0.793 0.11-1.583 0.221-2.373 0.332v10.348c0.81-0.118 1.641-0.238 2.471-0.352v-10.334c0.992-0.113 1.886-0.198 2.375-0.25 1.039-3.944 5.725-21.369 5.725-21.369h-2.375v-10.553l-2.477 0.0002zm35.295 0v10.576h2.359v0.436 17.164 0.318c-0.788 0.036-1.574 0.073-2.359 0.11v10.185c0.827-0.043 1.654-0.071 2.48-0.109v-10.19c0.645-0.027 1.783-0.051 2.36-0.078v-17.834h-2.36v-10.578l-2.48 0.0002zm53.238 0v10.608h2.35l-4.83 18.388c-0.79-0.049-1.57-0.099-2.36-0.146v10.221c0.8 0.051 1.63 0.107 2.49 0.167v-10.244c0.6 0.045 1.42 0.114 2.39 0.166l4.87-18.552h-2.44v-10.608l-2.47 0.0002zm36.45 0v10.572h2.35v23.01c-0.79-0.126-1.58-0.255-2.37-0.377v10.383c0.83 0.132 1.65 0.279 2.48 0.414v-10.41l2.37 0.359v-23.379h-2.36v-10.572l-2.47 0.0002zm-111.83 10.551l2.121 7.975-0.699 0.929-4.183 1.778h2.548l4.186-1.778 0.697-0.929-2.123-7.975h-2.547zm88.511 0l2.12 7.975-0.7 0.929-4.19 1.778h2.55l4.19-1.778 0.69-0.929-2.11-7.975h-2.55zm41.59 0.049v0.002-0.002zm0 0.002l2.56 1.271 1.29 2.541v1.315l-1.28 2.533-1.37 0.9-5.93 1.842h2.48l5.93-1.842 1.37-0.9 1.28-2.533v-0.045-1.27l-1.29-2.541-2.56-1.271h-2.48zm-2.15 3.304v2.844l1.95-0.603 0.24-0.157 0.46-0.914-0.37-0.73-0.88-0.44h-1.4zm-74.47 1.04v23.429c0.83 0.018 1.65 0.046 2.48 0.071v-23.5h-2.48zm-18.785 0.058l9.355 16.207h0.04l1.4-2.431-7.957-13.776h-2.838zm-17.272 0.901l1.762 6.669v-6.669h-1.762zm51.577 0v7.048l1.84-7.019h-0.77v-0.029h-1.07zm22.9 10.837v0.002l0.76 0.5 3.14 14.116c0.87 0.106 1.71 0.211 2.53 0.314l-3.21-14.432-0.75-0.5h-2.47zm-88.506 0.002l0.758 0.5 2.937 12.61c0.833-0.073 1.666-0.141 2.51-0.211l-2.898-12.399-0.758-0.5h-2.549zm-36.053 1.153v6.795l2.485-0.455v-6.34h-2.485zm160.83 0.318l1.37 0.684 8.59 19.72c1.02 0.231 2.04 0.458 3.06 0.692l-8.94-20.412-1.37-0.684h-2.71z" transform="matrix(.99999 0 0 .99999 -.000038147 0)" fill="#fff"/></g></svg>
