<svg xmlns="http://www.w3.org/2000/svg" width="247" height="238.21" viewBox="0 0 247 238.21">
 <g transform="matrix(1.3333 0 0 -1.3333 -657.5 403.22)">
  <g>
   <path d="m499.92 124.45v55.231l16.02 7e-3c1.2698 1e-3 2.3 1.0314 2.3 2.3011l0.0114 62.719c0 1.2709-1.0302 2.3011-2.3011 2.3023l-16.03 7e-3v54.588h114.16v-54.185l-16.212-2e-3c-1.2686 0-2.2966-1.0177-2.3011-2.2852-0.0456-13.641-0.11523-46.157 0.17683-61.016 0.0251-1.2538 1.0428-2.2487 2.2954-2.2521 2.786-0.0103 6.3592 0.15174 8.2668 0.79062 1.8048 2.5282 4.1904 13.365 7.6256 27.079l51.046-3.1876-3.0587-82.097z" fill="#ffce00"/>
   <path d="m506.1 295.42v-42.227l12.41-0.00732c3.2709-0.00115 5.9209-2.6515 5.9209-5.9224l-0.01172-67.837c0-3.2697-2.6508-5.9204-5.9194-5.9224l-12.4-0.00586v-42.87h149.87l2.6104 70.124-39.896 2.4902c-3.369-13.446-5.2586-22.986-8.6265-25.573-2.7153-2.0855-11.581-2.2324-16.912-1.7886-1.9098 0.16086-3.3866 1.7308-3.4585 3.6475-0.44494 12.111-0.34301 52.863-0.28711 68.178 0.01255 3.2583 2.6509 5.8896 5.9092 5.8916 2.7324 1e-3 6.7341 0.00293 12.595 0.00293v41.82h-101.8zm17.512-17.512h66.776v-6.7954c-19.194 0-18.517-8.3272-18.508-24.234v-56.581c-9e-3 -19.69-0.37141-31.546 23.37-32.068 21.97-0.62748 31.447 4.9385 36.879 26.626l8.313-0.51855-1.3506-36.198h-115.48v7.8472c18.795 1e-3 18.388 9.0081 18.393 24.992v65.717c-5e-3 15.906 0.17282 24.01-18.393 24.01v7.2026z" fill="#003356"/>
   <path d="m677.36 208.28-1.5402 0.47688c-0.39132 9.5092-0.19737 4.9366-0.87847 20.604-71.578 21.983-118.52 13.196-120.19 13.025-2.316 0.18482-10.923 0.2875-16.487-7.0312l-2.1391 4.9343c-1.2413-0.25556-7.6655-1.0599-42.191-11.632v-17.841l3.9737 1.4044v-9.4179l-3.9737-1.15v-17.83c28.119 9.6506 89.002 31.452 183.75-0.0662-0.83284 17.249-0.76781 11.896-0.32629 24.523" fill="#ffce00"/>
   <path d="m673.24 197.95c8e-3 0.22247 0.26468 7.5868 0.26468 7.5868l-2.7267 0.84424s-3.0518 0.98001-4.2087 1.3531c-0.0103 0.25784-0.097 3.0872-0.10382 3.2458 5e-3 0.0879 0.0205 0.737 0.0422 1.4649 0.0821-0.0262 5.4705-1.7182 5.4705-1.7182l-0.22247 5.4146-0.45293 10.404-2.5635 0.78834c-4.8031 1.4808-9.9655 2.891-15.777 4.3079-0.0502 0.0137-0.83056 0.22476-0.83056 0.22476-2.1254 0.57271-4.3239 1.1648-6.5372 1.6965l-4.6913 1.1283v-8.6239c-1.2584 0.26697-2.7233 0.56017-4.3992 0.86935v8.5668l-3.2036 0.51111c-2.6308 0.42098-5.3062 0.76438-7.8948 1.1009 0 0-0.0776 9e-3 -0.13918 0.0171-0.11067 0.0183-1.2059 0.19737-1.2059 0.19737-1.8551 0.3069-3.7717 0.62292-5.7044 0.89102l-4.3228 0.59782v-8.8965c-1.4649 0.13006-2.9765 0.25327-4.5338 0.3685v8.9273l-3.5823 0.20649c-2.6354 0.15174-5.313 0.22932-7.8994 0.30233 0 0-0.12436 6e-3 -0.19851 6e-3 -0.11409 9e-3 -1.1876 0.0776-1.1876 0.0776-1.8756 0.11979-3.8139 0.24414-5.7682 0.31602l-3.9428 0.14945v-9.1099c-0.67426 3e-3 -1.3531 6e-3 -2.0376 6e-3 -0.41186 0-0.81915-5e-3 -1.2287-7e-3l-3.8253 9.3757-2.6297-0.0993-4.5829-0.15516-0.9184-2.2624-3.037-7.3814c-1.3976-0.089-2.7826-0.18596-4.1448-0.29434l-0.31146 9.2308-4.0375-0.41528-4.3673-0.4495s-0.0593-0.19053-0.0742-0.23046c-1.4318 0.25214-2.9971 0.27838-4.6696 0.0536-6.6319-0.87961-11.451-5.4659-12.293-11.437-0.3183-0.0548-0.62976-0.11066-0.9435-0.16542l-3.9235 9.054-3.0165-0.62406-3.5938-0.73929-0.72559-1.944-3.3051-8.7231c-1.2664-0.29777-2.4118-0.57728-3.4317-0.83398v9.2331l-4.8293-1.3565c-2.6092-0.7313-5.2434-1.5584-7.7887-2.3536 0 0-0.0513-0.0148-0.097-0.0308-0.10382-0.0285-1.0062-0.27723-1.0062-0.27723-1.8608-0.51682-3.7866-1.0496-5.7169-1.6394l-2.6902-0.82371v-9.7465s2.6297 0.92981 3.9737 1.4044v-15.282c0-0.8317-0.0103-1.8186-0.11751-2.1916-0.1255-0.0776-0.43924-0.24643-1.1112-0.43923l-2.7449-0.79405v-9.7419l5.7055 1.9577c2.1905 0.75069 4.26 1.4626 6.3923 2.1289 1.1169 0.31716 9.2536 2.5955 17.782 4.4072l2.9081 0.62063s0.19053 5.5058 0.27838 7.9975c0.54077 0.12208 2.4027 0.54078 2.4027 0.54078s3.6474 0.79861 3.7752 0.82713c0.0422 7e-3 0.57272 0.0867 1.2595 0.19167v-7.8743l8.7916 1.4558s0.0799 0.31602 0.11409 0.45407c1.7079-0.39931 3.5629-0.49286 5.4705-0.24301 1.49 0.19737 2.8841 0.55104 4.1767 1.0291v-0.30005l5.9074 0.71989s2.9822 0.34682 3.1614 0.36736c0.18025 7e-3 3.8082 0.12892 3.8082 0.12892l3.3553 0.0821 1.8779 0.0981c1.0576 0.0548 3.1431 0.16314 3.1431 0.16314 1.8836 0.0981 3.8299 0.19965 5.7009 0.24985 2.1814-0.024 4.3159-0.0981 6.8692-0.19851l1.0747-0.0182c2.1859-2e-3 4.2509-6e-3 6.3684-0.0662 1.0701-0.0627 8.2143-0.49513 16.016-1.3839l6.2748-0.69479c1.4786-0.15516 2.9286-0.31488 4.3981-0.50655 1.0747-0.17113 8.3637-1.3474 16.197-3.0575l6.2737-1.3405c1.312-0.27495 2.6058-0.55447 3.9166-0.86022 5.4762-1.4192 11.141-3.1066 17.313-5.1579l5.264-1.7501s-0.42098 8.7026-0.43011 8.8977" fill="#003356"/>
   <path d="m569.83 218.26c1.3725 3.3987 2.7449 6.7836 4.1163 10.161 1.2846-3.264 2.5692-6.5338 3.855-9.8172-2.6582-0.0742-5.3165-0.19052-7.9713-0.3434m45.265-3.8812c-1.2219-4.7643-3.3599-5.8937-8.2998-5.4967-5.3359 0.39588-5.2503 3.0313-5.2503 7.4145v12.595c0 3.5401-0.0411 5.6062 4.1573 5.175v1.5584c-2.6685 0.15402-5.3815 0.23046-8.0511 0.30576-2.3217 0.14717-4.6011 0.30689-6.924 0.39246v-1.5562c4.2053 0.0354 4.1174-2.0228 4.1174-5.564v-14.627c0-3.3154 0.0753-5.2834-3.3097-5.361-1.0439 0.1563-2.1722 0.39017-2.9537 1.085-0.87505 0.87619-1.7535 3.045-2.2361 4.2155-3.0073 7.4236-6.0192 14.796-9.0277 22.122-0.69935-0.0205-1.401-0.0445-2.1015-0.0719-2.8921-6.9764-5.7808-14-8.6672-21.07-1.1386-2.7678-2.4072-7.0004-5.9896-7.3678v-1.5561c1.66 0.19394 3.3222 0.4187 4.9833 0.58412 1.838 0.0924 3.6736 0.12208 5.5138 0.17798v1.5584c-1.6212 0.0456-3.6325 0.0411-3.6325 2.1608 0 1.1694 0.656 2.5989 1.0496 3.7067 0.1757 0.42783 0.35025 0.8568 0.52366 1.2858 3.2241 0.19851 6.4516 0.33541 9.6792 0.41756 0.30576-0.81345 0.61379-1.6303 0.92183-2.4449 0.26126-0.64231 0.83169-2.1471 0.83169-2.8396 0-1.8596-2.324-1.8243-3.636-2.041v-1.5584c2.2783 0.11865 4.6 0.24985 6.8795 0.30803 2.3502-0.0228 4.7027-0.10952 7.054-0.20079v-0.016h0.40387c0.14261-5e-3 0.28636-0.0114 0.42783-0.0171v0.0171c2.2133-5e-3 4.3992-5e-3 6.6148-0.0685 2.6297-0.15287 10.6-0.69022 18.49-1.6657 0.10154 2.7449 0.20536 5.4876 0.30575 8.2314-0.62519 0.0719-1.2515 0.14261-1.8744 0.21106m-88.872 2.8294c0.99027 2.6616 1.9851 5.3187 2.9765 7.9701 0.93095-2.2441 1.8608-4.4905 2.7929-6.7426-1.9269-0.39017-3.8504-0.79861-5.7694-1.2276m15.009-3.8938c-0.5248 0.0274-1.0291 0.12664-1.4158 0.40273-0.63775 0.52822-1.2755 2.0068-1.6235 2.8054-2.1871 5.0643-4.3718 10.101-6.5498 15.113-0.50883-0.10381-1.0154-0.20763-1.5219-0.31374-2.0958-5.4876-4.1836-10.998-6.2691-16.534-0.818-2.1699-1.7375-5.4317-4.3193-6.1071v-1.1454c1.1968 0.33314 2.3958 0.68795 3.5938 1.004 0.68452 0.14147 1.3668 0.27837 2.0513 0.40957-1.2139-4.9685-3.3359-6.7699-8.0819-7.9952-5.2115-1.377-5.1191 1.288-5.1214 5.6701v12.595c2e-3 3.5413-0.0456 5.5903 4.0512 6.5612v1.5562c-2.6058-0.7313-5.2446-1.5607-7.8355-2.3707-2.2498-0.6252-4.4517-1.2219-6.6878-1.9064v-1.5573c4.0547 1.4341 3.9771-0.65486 3.9748-4.1961v-14.628c2e-3 -3.5572 0.0799-5.5401-3.9748-6.7118v-1.5584c2.4061 0.82485 4.7768 1.6474 7.1978 2.4027 2.5442 0.71989 10.295 2.8294 18.091 4.4859 0.0958 2.6742 0.3183 9.1715 0.3183 9.1715-1.1717-0.16314-2.624-0.40272-2.624 1.1568 0 0.86022 0.47232 1.9874 0.75868 2.8465 0.12664 0.3377 0.25327 0.67312 0.37877 1.0108 2.3297 0.5248 4.6639 1.0222 7.0027 1.4888 0.22475-0.5613 0.44494-1.1215 0.66855-1.6851 0.18939-0.43696 0.60124-1.4717 0.60124-1.9806 0-1.3679-1.6828-1.6326-2.6354-1.9566v-1.1454c1.652 0.36964 3.3348 0.75982 4.9913 1.0987 1.6588 0.27723 3.3211 0.51796 4.9822 0.75982zm2.6833-8.6353c-0.63661-0.10382-1.2732-0.20764-1.9098-0.31488v9.0026c0.57956 0.0981 1.1568 0.19395 1.7364 0.2875 1.215-3.7478 3.2093-7.038 8.042-6.3877 2.5248 0.33769 4.9651 2.2566 4.9651 4.9388 0 4.0307-4.1836 4.6274-7.2297 5.4853-3.9143 1.1397-7.0791 2.7586-7.0791 7.5206 0 5.3222 4.0741 8.884 9.1236 9.556 2.3513 0.31374 4.7928 0.081 6.5395-1.3337 0.18824 0.58413 0.37648 1.1671 0.56701 1.7512 0.6252 0.065 1.2492 0.13006 1.8779 0.19166 0.0844-2.5875 0.17227-5.1761 0.26011-7.7648-0.62405-0.0616-1.2504-0.12664-1.8767-0.19167-0.78606 3.2481-3.2743 5.8926-7.062 5.3952-2.1334-0.28066-4.3068-1.814-4.3068-4.1528 0-3.2435 3.304-3.6679 5.7876-4.4859 4.6605-1.3941 9.0756-3.0313 9.0734-8.8315 2e-3 -5.8436-4.981-9.3175-10.335-10.031-2.7883-0.36051-5.6131 0.16657-7.5663 1.8425-0.20308-0.82599-0.40501-1.6508-0.60695-2.478m100.79-1.9098c4.13-1.0656 4.0387 0.96404 4.0387 4.5201v14.629c0 3.5424 0.0913 5.5811-4.0387 6.3877v1.5573c2.4517-0.58983 4.8567-1.247 7.297-1.903 5.2252-1.2755 10.461-2.6731 15.619-4.2646 0.1118-2.5738 0.22589-5.1476 0.33884-7.7226-0.60581 0.19281-1.2128 0.38219-1.8197 0.57158-0.71874 4.503-3.1294 6.6056-7.2183 7.7556-0.50883 0.14945-3.2401 0.89102-3.4979 0.47802-0.12777-0.1814-0.12777-2.0855-0.12777-2.4335v-8.0066c3.4591-0.9184 5.6678-0.92296 5.839 3.0564 0.56701-0.16429 1.1329-0.32971 1.6988-0.49742-0.0422-1.9783-0.1255-3.944-0.16999-5.9223 0.0445-1.7877 0.12777-3.6314 0.16999-5.4191-0.56588 0.16771-1.1318 0.33427-1.6988 0.49856-0.81002 4.2087-1.9121 5.2412-5.839 6.2919v-5.0632c-3e-3 -4.0798-0.12436-6.6034 4.9023-8.0158 4.8054-1.3827 6.6593-0.52708 7.7191 4.0364 0.56131-0.17798 1.1238-0.35824 1.6885-0.54192-0.0422-1.6314-0.12549-3.2058-0.1677-4.8373 0.0422-1.1808 0.12549-2.3365 0.1677-3.5173-5.823 1.9361-11.694 3.7124-17.604 5.2446-2.4403 0.57157-4.8453 1.0542-7.297 1.5573zm-26.868 4.5874c4.1824-0.6446 4.0934 1.3759 4.0934 4.932v14.631c0 3.5401 0.089 5.5891-4.0934 5.9736v1.5573c2.3103-0.31831 4.5738-0.70506 6.8772-1.0816 2.6525-0.3434 5.345-0.69137 7.9861-1.1112v-1.5584c-4.1596 0.84767-4.1197-1.2196-4.1197-4.7631v-12.594c0-4.3844-0.0821-7.0107 5.2024-7.9405 4.8921-0.88874 7.0015 0.0251 8.2086 4.6662 0.61835-0.1312 1.2356-0.26354 1.8516-0.40045-0.0993-2.7347-0.19851-5.4671-0.29891-8.2006-7.7922 1.7684-15.698 3.1043-18.309 3.5173-2.4757 0.32173-4.916 0.56017-7.3986 0.81344z" fill="#fff"/>
  </g>
 </g>
</svg>