<?xml version="1.0" encoding="UTF-8"?>
<svg version="1.1" xmlns="http://www.w3.org/2000/svg" width="809" height="201">
<path d="M0 0 C1.1329953 0.00703949 2.2659906 0.01407898 3.43331909 0.02133179 C4.67193695 0.0342778 5.91055481 0.04722382 7.18670654 0.06056213 C8.4942691 0.07016968 9.80183167 0.07977722 11.14901733 0.0896759 C14.73135985 0.11611434 18.31361946 0.14890246 21.89589787 0.1828258 C25.64081503 0.21721102 29.38577654 0.24576332 33.1307373 0.27493286 C40.2209194 0.33104547 47.31104597 0.3924081 54.40116763 0.4556542 C62.47362561 0.52740763 70.54612801 0.59331249 78.61863947 0.65872467 C95.22309238 0.79340292 111.827474 0.93543049 128.43182373 1.08229065 C128.12265955 2.669733 127.8111711 4.25672279 127.49871826 5.84352112 C127.32551056 6.72732452 127.15230286 7.61112793 126.97384644 8.52171326 C125.85155616 13.82354118 124.07790424 18.92457171 122.43182373 24.08229065 C115.50182373 24.08229065 108.57182373 24.08229065 101.43182373 24.08229065 C100.72606201 27.07162659 100.72606201 27.07162659 100.00604248 30.12135315 C96.76743006 43.31920511 92.73648807 56.31685649 88.87133789 69.34162903 C88.0273981 72.18923781 87.18740037 75.03800315 86.34743214 77.88678551 C85.53652252 80.63578287 84.72369626 83.38421038 83.91022301 86.1324501 C83.52260609 87.44246525 83.13546741 88.752622 82.74881935 90.06292343 C82.21249856 91.87901752 81.67342614 93.69429833 81.13421631 95.50953674 C80.82873367 96.54049469 80.52325104 97.57145264 80.20851135 98.63365173 C79.43182373 101.08229065 79.43182373 101.08229065 78.43182373 103.08229065 C69.19182373 103.08229065 59.95182373 103.08229065 50.43182373 103.08229065 C51.63720507 97.05538396 52.79313547 91.4504491 54.49481201 85.61305237 C54.69017548 84.93859573 54.88553894 84.2641391 55.08682251 83.56924438 C55.72132913 81.38232343 56.3616566 79.19715645 57.00213623 77.01197815 C57.44804699 75.47937942 57.89358723 73.94667285 58.33877563 72.41386414 C59.50229948 68.41145145 60.67079746 64.41050826 61.84039307 60.40986633 C63.24761083 55.59250124 64.6485454 50.77330559 66.05055237 45.954422 C68.17287355 38.66230997 70.30308476 31.37254553 72.43182373 24.08229065 C59.23182373 24.08229065 46.03182373 24.08229065 32.43182373 24.08229065 C32.10182373 26.39229065 31.77182373 28.70229065 31.43182373 31.08229065 C30.83027222 33.45396006 30.18281262 35.81429731 29.49822998 38.16334534 C29.20781326 39.16714485 29.20781326 39.16714485 28.91152954 40.19122314 C28.27698763 42.3802153 27.63574268 44.56717973 26.99432373 46.75416565 C26.54934511 48.28385527 26.10477139 49.81366273 25.6605835 51.34358215 C24.49470123 55.35491923 23.32302644 59.36454204 22.15020752 63.37385559 C21.19244604 66.65148302 20.23869578 69.93027096 19.28517151 73.20913315 C17.31605548 79.98023127 15.34431637 86.75056816 13.36541748 93.51881409 C12.84032593 95.31581757 12.84032593 95.31581757 12.30462646 97.14912415 C11.71313849 99.136896 11.08765107 101.11480863 10.43182373 103.08229065 C0.86182373 103.08229065 -8.70817627 103.08229065 -18.56817627 103.08229065 C-14.00817731 86.73143724 -9.39131092 70.39907886 -4.68634033 54.08937073 C-3.67087276 50.56743564 -2.65856893 47.04459975 -1.64630127 43.52174377 C-0.99805349 41.27234013 -0.34962339 39.02298902 0.29901123 36.7736969 C0.59999725 35.72500931 0.90098328 34.67632172 1.21109009 33.59585571 C1.48873199 32.63561996 1.7663739 31.67538422 2.0524292 30.68605042 C2.29556854 29.84212234 2.53870789 28.99819427 2.78921509 28.12869263 C3.43182373 26.08229065 3.43182373 26.08229065 4.43182373 24.08229065 C-2.16817627 24.08229065 -8.76817627 24.08229065 -15.56817627 24.08229065 C-14.53475564 18.31235879 -13.27602868 12.66571301 -11.69317627 7.01979065 C-11.38637939 5.91506409 -11.07958252 4.81033752 -10.76348877 3.6721344 C-9.56817627 1.08229065 -9.56817627 1.08229065 -7.84148026 0.42556858 C-5.19087593 0.0253168 -2.68195589 -0.02260075 0 0 Z " fill="#712A3D" transform="translate(147.56817626953125,0.9177093505859375)"/>
<path d="M0 0 C259.05 0 518.1 0 785 0 C785 2.64 785 5.28 785 8 C525.95 8 266.9 8 0 8 C0 5.36 0 2.72 0 0 Z " fill="#A7A9AC" transform="translate(0,119)"/>
<path d="M0 0 C3.79937243 3.98934105 4.76747406 7.86726213 5.09765625 13.22265625 C4.69850697 24.5744618 0.05330949 34.78576618 -8.15234375 42.55859375 C-10.93282486 44.72772172 -13.67744172 45.8472757 -17 47 C-16.030625 47.78375 -15.06125 48.5675 -14.0625 49.375 C-11.40971747 51.51980289 -10.16683257 52.77515326 -9.69140625 56.265625 C-9.305198 65.20693123 -11.31791962 72.87250402 -13.86547852 81.39550781 C-14.13674561 82.30655273 -14.4080127 83.21759766 -14.6875 84.15625 C-14.93886719 84.96900391 -15.19023438 85.78175781 -15.44921875 86.61914062 C-16.4162669 90.79939488 -16.0419426 93.83222959 -15 98 C-24.9 98 -34.8 98 -45 98 C-45 86.76648953 -45 86.76648953 -43.65234375 81.94921875 C-43.23952148 80.40717773 -43.23952148 80.40717773 -42.81835938 78.83398438 C-42.52767578 77.79564453 -42.23699219 76.75730469 -41.9375 75.6875 C-41.35336332 73.58997638 -40.77875353 71.48977052 -40.21484375 69.38671875 C-39.95823975 68.47108154 -39.70163574 67.55544434 -39.43725586 66.61206055 C-38.77312482 63.59465533 -38.77312482 63.59465533 -40 59 C-43.63 58.67 -47.26 58.34 -51 58 C-51.32798584 59.14065918 -51.65597168 60.28131836 -51.99389648 61.45654297 C-53.2088934 65.68009159 -54.42644378 69.9029005 -55.64477539 74.12548828 C-56.17216795 75.95471373 -56.69886364 77.78414025 -57.22485352 79.61376953 C-57.98010981 82.24043845 -58.73785226 84.866379 -59.49609375 87.4921875 C-59.73154404 88.31306854 -59.96699432 89.13394958 -60.20957947 89.97970581 C-61.88612829 95.77225659 -61.88612829 95.77225659 -63 98 C-72.57 98 -82.14 98 -92 98 C-88.34595345 85.17915458 -84.68332362 72.36078656 -81.0144043 59.54418945 C-80.12580059 56.43952999 -79.23763682 53.33474498 -78.34957027 50.22993183 C-76.41785377 43.47689516 -74.48329845 36.72468029 -72.54478359 29.9735918 C-71.58077115 26.61611886 -70.61790303 23.25832731 -69.65774536 19.89974976 C-68.57364625 16.10789978 -67.48431753 12.31756337 -66.39453125 8.52734375 C-66.06588074 7.37510315 -65.73723022 6.22286255 -65.39862061 5.03570557 C-65.09667786 3.98872498 -64.79473511 2.94174438 -64.48364258 1.86303711 C-64.22005447 0.94380966 -63.95646637 0.02458221 -63.68489075 -0.92250061 C-63 -3 -63 -3 -62 -4 C-59.11222591 -4.17325497 -56.24634365 -4.2843713 -53.35546875 -4.3515625 C-52.47530594 -4.37471527 -51.59514313 -4.39786804 -50.68830872 -4.42172241 C-48.8144838 -4.46948518 -46.94059263 -4.5147037 -45.06665039 -4.55761719 C-42.2375094 -4.62382959 -39.40887896 -4.7019633 -36.58007812 -4.78125 C-8.35839277 -5.50733083 -8.35839277 -5.50733083 0 0 Z M-40 16 C-41.00427892 19.45710552 -42.0026944 22.91587697 -43 26.375 C-43.28617187 27.35984375 -43.57234375 28.3446875 -43.8671875 29.359375 C-44.13789063 30.30039062 -44.40859375 31.24140625 -44.6875 32.2109375 C-45.06455078 33.51490479 -45.06455078 33.51490479 -45.44921875 34.84521484 C-46.08254878 36.95227289 -46.08254878 36.95227289 -46 39 C-40.51038453 39.33609891 -36.82702374 38.68167985 -32 36 C-28.59557489 32.7886093 -26.23995527 29.58874821 -25.796875 24.80859375 C-25.78140625 24.02613281 -25.7659375 23.24367188 -25.75 22.4375 C-25.72421875 21.65246094 -25.6984375 20.86742187 -25.671875 20.05859375 C-25.78015625 19.37925781 -25.8884375 18.69992188 -26 18 C-29.98667516 15.34221656 -32.86255189 15.83206004 -37.53051758 15.94189453 C-38.75291138 15.97065674 -38.75291138 15.97065674 -40 16 Z " fill="#722C3E" transform="translate(536,6)"/>
<path d="M0 0 C1.07878418 0.01047363 2.15756836 0.02094727 3.26904297 0.03173828 C5.01894531 0.04140625 5.01894531 0.04140625 6.80419922 0.05126953 C8.02751953 0.06802734 9.25083984 0.08478516 10.51123047 0.10205078 C11.74228516 0.11107422 12.97333984 0.12009766 14.24169922 0.12939453 C17.29006862 0.1530253 20.33805429 0.18597024 23.38623047 0.22705078 C24.99771677 4.24460665 23.69071141 7.66477254 22.51513672 11.61767578 C22.31395737 12.32228943 22.11277802 13.02690308 21.90550232 13.75286865 C21.26245979 15.99703683 20.60581463 18.23695838 19.94873047 20.47705078 C19.50967604 22.00022817 19.07151444 23.52366322 18.63427734 25.04736328 C17.56192234 28.77699186 16.47735298 32.50287156 15.38623047 36.22705078 C21.55865116 29.01852819 27.62960968 21.7727282 33.41674805 14.25 C34.26781824 13.15035234 35.13426616 12.06245199 36.01489258 10.98632812 C37.45083959 9.20844477 37.45083959 9.20844477 38.72827148 7.06542969 C41.35402344 3.27871695 43.15999849 1.49189628 47.75585938 0.49926758 C51.80164362 0.21516067 55.77236112 0.16747877 59.82373047 0.22705078 C61.23716729 0.218949 62.65058835 0.20726265 64.06396484 0.19189453 C67.50551711 0.16221554 70.94475882 0.18127047 74.38623047 0.22705078 C72.96230936 4.01496874 71.66938056 6.26733311 68.69873047 9.03955078 C64.6751023 12.91922088 61.01175034 16.97644128 57.38623047 21.22705078 C55.94962363 22.90960133 54.51242256 24.59162236 53.07324219 26.27197266 C52.03096738 27.49311863 50.99352503 28.7184056 49.9609375 29.94775391 C47.582906 32.76136916 45.21795238 35.38700742 42.54248047 37.93017578 C38.01655963 42.00722572 38.01655963 42.00722572 36.28955078 47.55249023 C36.47098633 48.41060303 36.65242187 49.26871582 36.83935547 50.15283203 C37.05479004 51.20567383 37.27022461 52.25851563 37.4921875 53.34326172 C37.78722168 54.62491211 38.08225586 55.9065625 38.38623047 57.22705078 C38.56281189 58.0107605 38.73939331 58.79447021 38.92132568 59.60192871 C40.40371368 66.17583489 41.95209858 72.73349342 43.51123047 79.28955078 C44.21327427 82.24472693 44.91411704 85.20015832 45.61080933 88.15660095 C46.04164875 89.9847971 46.47555102 91.81227481 46.91287231 93.63893127 C47.20350052 94.87183144 47.20350052 94.87183144 47.5 96.12963867 C47.67161652 96.85067276 47.84323303 97.57170685 48.02005005 98.31459045 C48.38623047 100.22705078 48.38623047 100.22705078 48.38623047 103.22705078 C37.82623047 103.22705078 27.26623047 103.22705078 16.38623047 103.22705078 C15.19473254 98.46105905 14.09838824 93.9949518 13.31591797 89.19580078 C13.14189453 88.13876953 12.96787109 87.08173828 12.78857422 85.99267578 C12.61455078 84.91501953 12.44052734 83.83736328 12.26123047 82.72705078 C12.07947266 81.61845703 11.89771484 80.50986328 11.71044922 79.36767578 C11.26606698 76.65460528 10.82473828 73.94107584 10.38623047 71.22705078 C8.09851636 71.01188249 8.09851636 71.01188249 5.90112305 73.32739258 C3.17879353 76.4662245 2.25838534 78.65036134 1.14794922 82.62158203 C0.67941528 84.24737183 0.67941528 84.24737183 0.20141602 85.90600586 C-0.17072021 87.27007568 -0.54285645 88.63414551 -0.92626953 90.03955078 C-2.14314453 94.39142578 -3.36001953 98.74330078 -4.61376953 103.22705078 C-14.18376953 103.22705078 -23.75376953 103.22705078 -33.61376953 103.22705078 C-29.98588191 90.50428927 -26.35283498 77.78303104 -22.71206665 65.06394958 C-20.62117085 57.75692115 -18.53784185 50.44778159 -16.45948792 43.13717651 C-15.0958997 38.34561183 -13.72680419 33.55563214 -12.35647583 28.76599121 C-11.69453615 26.44788979 -11.0349295 24.12912089 -10.37765503 21.80969238 C-9.45720343 18.56293327 -8.52864761 15.31859732 -7.59814453 12.07470703 C-7.18807915 10.61717766 -7.18807915 10.61717766 -6.76972961 9.13020325 C-6.51426865 8.24572006 -6.25880768 7.36123688 -5.99560547 6.44995117 C-5.77580017 5.67841202 -5.55599487 4.90687286 -5.32952881 4.11195374 C-4.17969567 1.08394705 -3.23030642 0.2806076 0 0 Z " fill="#722C3E" transform="translate(734.61376953125,0.77294921875)"/>
<path d="M0 0 C0.93714844 -0.01160156 1.87429688 -0.02320312 2.83984375 -0.03515625 C11.70330522 0.0020331 18.50505232 2.00505232 24.875 8.375 C30.00426623 15.44984997 29.38487753 25.16065947 28.12084961 33.44165039 C24.66329019 53.21506625 19.15347632 75.80510521 5.875 91.375 C5.27171875 92.09945312 4.6684375 92.82390625 4.046875 93.5703125 C-4.08484252 102.52842408 -14.90248368 105.87176403 -26.69921875 106.59375 C-35.66664816 106.81136204 -45.17392624 106.71001312 -52.625 101.0625 C-58.30224951 94.95945677 -59.27299265 88.74243779 -59.22583008 80.63232422 C-58.17898253 57.19611987 -48.98247173 27.20289722 -32.125 10.375 C-22.28374856 2.55815013 -12.41160589 -0.15492989 0 0 Z M-9.11474609 19.44580078 C-18.9151169 25.72662236 -21.64148123 42.89531673 -24.5 53.5 C-24.9400992 55.08890428 -25.38149991 56.67744865 -25.82421875 58.265625 C-26.94360959 62.29714084 -28.04496555 66.33274904 -29.125 70.375 C-29.32931641 71.12934326 -29.53363281 71.88368652 -29.74414062 72.66088867 C-30.32947462 75.29526687 -30.25655792 77.8704737 -30.25 80.5625 C-30.25257813 81.62855469 -30.25515625 82.69460937 -30.2578125 83.79296875 C-30.41758972 86.30569348 -30.41758972 86.30569348 -29.125 87.375 C-24.08319163 88.10069535 -24.08319163 88.10069535 -19.47265625 86.375 C-7.96821239 74.65694577 -0.56193767 44.32583241 -0.02734375 28.48046875 C-0.03894531 27.51753906 -0.05054688 26.55460937 -0.0625 25.5625 C-0.07152344 24.58667969 -0.08054687 23.61085938 -0.08984375 22.60546875 C-0.10144531 21.86941406 -0.11304688 21.13335938 -0.125 20.375 C-3.68293284 18.76545896 -5.36709859 18.10355173 -9.11474609 19.44580078 Z " fill="#722D3F" transform="translate(598.125,-0.375)"/>
<path d="M0 0 C0.94294922 -0.02900391 1.88589844 -0.05800781 2.85742188 -0.08789062 C10.07290224 -0.15235883 17.24166086 0.92503819 22.9675293 5.68969727 C26.56182327 9.6924189 28.25218794 14.04936159 28.39453125 19.390625 C28.26111328 20.96070313 28.26111328 20.96070313 28.125 22.5625 C28.04894531 23.59890625 27.97289062 24.6353125 27.89453125 25.703125 C27.14773567 30.33426001 25.66043772 34.81937425 24.3125 39.3125 C15.0725 39.3125 5.8325 39.3125 -3.6875 39.3125 C-2.6975 35.0225 -1.7075 30.7325 -0.6875 26.3125 C-0.43042544 22.26910281 -0.43042544 22.26910281 -0.6875 19.3125 C-1.925 19.395 -3.1625 19.4775 -4.4375 19.5625 C-5.13359375 19.60890625 -5.8296875 19.6553125 -6.546875 19.703125 C-9.50290935 20.54462383 -10.66702328 22.01244513 -12.6875 24.3125 C-16.79677207 32.162513 -19.27158382 40.85617027 -21.8125 49.3125 C-22.14636719 50.39789063 -22.48023438 51.48328125 -22.82421875 52.6015625 C-27.42327182 66.5710915 -27.42327182 66.5710915 -28.875 81.0625 C-28.84792969 82.06796875 -28.82085938 83.0734375 -28.79296875 84.109375 C-28.74076172 85.19992188 -28.74076172 85.19992188 -28.6875 86.3125 C-27.45 86.415625 -26.2125 86.51875 -24.9375 86.625 C-24.24140625 86.68300781 -23.5453125 86.74101563 -22.828125 86.80078125 C-19.46584903 86.03383874 -18.53142367 84.14667897 -16.6875 81.3125 C-15.22051897 77.92845316 -15.22051897 77.92845316 -14.0625 74.3125 C-12.68949811 70.25471098 -11.28013698 66.29409244 -9.6875 62.3125 C-0.7775 62.3125 8.1325 62.3125 17.3125 62.3125 C15.52974016 76.57457873 10.17513088 88.83410261 -1 98.25 C-12.57944402 106.60402796 -27.33086836 107.80885065 -41.12109375 105.81640625 C-48.74143271 104.13251112 -53.21078191 102.11013441 -57.5625 95.4375 C-61.7905581 83.66476337 -57.75742699 69.90109879 -54.6875 58.3125 C-54.50026367 57.58740234 -54.31302734 56.86230469 -54.12011719 56.11523438 C-49.39992478 38.06600124 -42.61474033 17.42628637 -26.6875 6.3125 C-17.73026337 1.37863752 -10.08694226 0.10134235 0 0 Z " fill="#722D3F" transform="translate(683.6875,-0.3125)"/>
<path d="M0 0 C2.5942688 -0.36076355 2.5942688 -0.36076355 5.91845703 -0.34057617 C7.15959259 -0.34034958 8.40072815 -0.34012299 9.67947388 -0.33988953 C11.03892372 -0.32456848 12.39836991 -0.30892047 13.7578125 -0.29296875 C15.1450047 -0.28737427 16.53220283 -0.28310347 17.91940308 -0.28010559 C21.57249281 -0.26864497 25.22522534 -0.23916786 28.87817383 -0.20599365 C32.60493131 -0.17531867 36.33174645 -0.16160579 40.05859375 -0.14648438 C47.37255877 -0.11429886 54.68622936 -0.06308839 62 0 C61.37284335 5.34505355 60.51918099 10.2488267 59 15.4375 C58.649375 16.65308594 58.29875 17.86867188 57.9375 19.12109375 C57 22 57 22 56 23 C53.40640678 23.08851529 50.83960309 23.11525945 48.24609375 23.09765625 C47.47064713 23.0962413 46.6952005 23.09482635 45.89625549 23.09336853 C43.40996506 23.08775345 40.9237634 23.07519846 38.4375 23.0625 C36.75586067 23.05748694 35.07421994 23.0529237 33.39257812 23.04882812 C29.26165671 23.03862832 25.13092818 23.01905605 21 23 C19.68 28.28 18.36 33.56 17 39 C32.84 39.495 32.84 39.495 49 40 C48.38125 42.536875 47.7625 45.07375 47.125 47.6875 C46.93437988 48.47729248 46.74375977 49.26708496 46.54736328 50.08081055 C46.31122314 51.03661011 46.31122314 51.03661011 46.0703125 52.01171875 C45.91320801 52.65584717 45.75610352 53.29997559 45.59423828 53.96362305 C44.89397594 56.36333059 43.92839971 58.67900073 43 61 C32.11 61 21.22 61 10 61 C8.68 66.28 7.36 71.56 6 77 C5.505 78.485 5.505 78.485 5 80 C16.55 80.33 28.1 80.66 40 81 C39.27237213 86.09339506 38.41658085 90.48987928 37 95.375 C36.649375 96.59960938 36.29875 97.82421875 35.9375 99.0859375 C35 102 35 102 34 103 C32.0056827 103.09405142 30.00800457 103.11743249 28.01147461 103.11352539 C26.73022202 103.11344986 25.44896942 103.11337433 24.12889099 103.11329651 C22.72004152 103.10818909 21.31119244 103.10297309 19.90234375 103.09765625 C18.46887766 103.09579202 17.03541093 103.09436814 15.60194397 103.09336853 C11.82240043 103.08954372 8.0428951 103.07971377 4.2633667 103.06866455 C0.40930702 103.05844963 -3.44475882 103.05387074 -7.29882812 103.04882812 C-14.86590287 103.03809146 -22.43294609 103.02101549 -30 103 C-29.32374923 96.91426692 -27.76385319 91.25001982 -26.04296875 85.3828125 C-25.74366455 84.3484053 -25.44436035 83.31399811 -25.13598633 82.24824524 C-24.15787893 78.87243895 -23.17293551 75.49867374 -22.1875 72.125 C-21.50985976 69.79444313 -20.83253497 67.46379452 -20.15551758 65.13305664 C-18.77819799 60.39440753 -17.39789797 55.65664002 -16.015625 50.91943359 C-14.42300829 45.4581774 -12.84087453 39.99398363 -11.26493835 34.52789307 C-10.16687217 30.72084736 -9.0645115 26.9150547 -7.96109009 23.10955811 C-7.4470994 21.33418248 -6.934698 19.55834595 -6.42391968 17.78204346 C-5.71850527 15.3311065 -5.00661071 12.88214558 -4.29296875 10.43359375 C-4.08841064 9.71730301 -3.88385254 9.00101227 -3.6730957 8.26301575 C-2.74469231 5.10103078 -1.84631374 2.7694706 0 0 Z " fill="#702A3C" transform="translate(355,1)"/>
<path d="M0 0 C1.06669922 0.0515625 2.13339844 0.103125 3.23242188 0.15625 C4.88661133 0.25292969 4.88661133 0.25292969 6.57421875 0.3515625 C7.69634766 0.40828125 8.81847656 0.465 9.97460938 0.5234375 C12.73767305 0.66453011 15.49963033 0.81781349 18.26171875 0.9765625 C15.72166705 11.39787761 12.97591449 21.73321589 9.96875 32.03125 C9.57309345 33.39358681 9.17764608 34.75598439 8.78239441 36.11843872 C7.96495394 38.93383655 7.14551729 41.74864232 6.32446289 44.56298828 C5.27198086 48.17096801 4.22397964 51.78023134 3.17732716 55.38990593 C2.36642051 58.18521995 1.55358701 60.97997062 0.74011803 63.77453995 C0.35246454 65.10687554 -0.03467435 66.43936097 -0.42128563 67.77199936 C-0.95757544 69.61922608 -1.49666213 71.46564013 -2.03588867 73.31201172 C-2.34137131 74.36073456 -2.64685394 75.4094574 -2.96159363 76.48995972 C-3.73828125 78.9765625 -3.73828125 78.9765625 -4.73828125 80.9765625 C6.48171875 80.9765625 17.70171875 80.9765625 29.26171875 80.9765625 C27.28171875 88.2365625 25.30171875 95.4965625 23.26171875 102.9765625 C2.47171875 102.9765625 -18.31828125 102.9765625 -39.73828125 102.9765625 C-36.29165452 89.19005558 -36.29165452 89.19005558 -34.33398438 82.52099609 C-34.11403305 81.76477463 -33.89408173 81.00855316 -33.66746521 80.22941589 C-32.95366509 77.7773031 -32.23665312 75.32614318 -31.51953125 72.875 C-31.01515154 71.14496261 -30.51096407 69.41486917 -30.00695801 67.6847229 C-28.688429 63.160574 -27.36710422 58.63724628 -26.04522705 54.11407471 C-24.97068826 50.43548003 -23.89815242 46.75630285 -22.82572174 43.07709312 C-21.53682213 38.65536838 -20.24706355 34.2338944 -18.95703125 29.8125 C-18.71489395 28.98256908 -18.47275665 28.15263817 -18.22328186 27.29755783 C-17.98721725 26.48871769 -17.75115265 25.67987755 -17.50793457 24.8465271 C-17.27923424 24.0622616 -17.05053391 23.2779961 -16.81490326 22.46996498 C-16.37456733 20.96580203 -15.93155669 19.4624189 -15.48557281 17.95992088 C-14.5750538 14.88863942 -13.70131067 11.82869405 -12.92407227 8.72003174 C-11.29845572 2.36778614 -11.29845572 2.36778614 -8.40942383 0.35009766 C-5.52499245 -0.05326401 -2.91056905 -0.1556454 0 0 Z " fill="#712B3E" transform="translate(291.73828125,1.0234375)"/>
<path d="M0 0 C-4.81962557 18.30957496 -10.0167448 36.48513371 -15.4375 54.625 C-16.17674152 57.10798087 -16.91567507 59.59105346 -17.65429688 62.07421875 C-19.43211406 68.05071058 -21.21615352 74.0252921 -23 80 C-12.11 80 -1.22 80 10 80 C9.27237213 85.09339506 8.41658085 89.48987928 7 94.375 C6.649375 95.59960938 6.29875 96.82421875 5.9375 98.0859375 C5 101 5 101 4 102 C2.06693502 102.09396057 0.13041162 102.11743517 -1.80493164 102.11352539 C-3.66674828 102.11341209 -3.66674828 102.11341209 -5.56617737 102.11329651 C-6.9308374 102.10818911 -8.29549702 102.1029731 -9.66015625 102.09765625 C-11.04878183 102.095792 -12.43740807 102.09436813 -13.82603455 102.09336853 C-17.48721115 102.08954387 -21.1483483 102.07971403 -24.80950928 102.06866455 C-28.54292263 102.05844932 -32.27634234 102.05387067 -36.00976562 102.04882812 C-43.33986177 102.03809171 -50.66992536 102.02101591 -58 102 C-56.47139506 94.69831895 -54.51653007 87.57277268 -52.4375 80.41015625 C-51.91560341 78.60034271 -51.91560341 78.60034271 -51.38316345 76.75396729 C-50.45012117 73.52094176 -49.51460053 70.28865556 -48.57773972 67.05673599 C-47.8054823 64.39106579 -47.03528416 61.72480242 -46.26506329 59.05854321 C-40.5723884 39.35408175 -34.83370529 19.66321228 -29 0 C-26.04203845 -0.1973999 -23.08406493 -0.38309561 -20.125 -0.5625 C-19.30257812 -0.61857422 -18.48015625 -0.67464844 -17.6328125 -0.73242188 C-16.8078125 -0.78076172 -15.9828125 -0.82910156 -15.1328125 -0.87890625 C-14.38918457 -0.9260376 -13.64555664 -0.97316895 -12.87939453 -1.02172852 C-8.55792194 -0.98911778 -4.29223373 -0.47691848 0 0 Z " fill="#712B3E" transform="translate(59,2)"/>
<path d="M0 0 C9.57 0 19.14 0 29 0 C26.1677262 11.62760074 23.0166968 23.11537315 19.6484375 34.59765625 C19.14300598 36.32913857 18.63785415 38.06070256 18.13296509 39.79234314 C16.81800308 44.29969038 15.49942896 48.80597252 14.17999268 53.31201172 C12.83661487 57.90204716 11.49652329 62.49304166 10.15625 67.08398438 C8.64880717 72.24714514 7.14106745 77.41021693 5.63070679 82.57252502 C5.40149033 83.35613907 5.17227386 84.13975311 4.93611145 84.94711304 C4.51226586 86.39591319 4.08824978 87.84466348 3.66401672 89.29335022 C2.42631879 93.52450982 1.21114586 97.76098947 0 102 C-9.57 102 -19.14 102 -29 102 C-25.45037419 87.09157162 -21.097011 72.44263294 -16.75 57.75 C-15.28482072 52.7869403 -13.82158299 47.82331086 -12.359375 42.859375 C-12.00129761 41.64455444 -11.64322021 40.42973389 -11.27429199 39.17810059 C-7.43906456 26.14039876 -3.71794276 13.07168111 0 0 Z " fill="#722C3F" transform="translate(101,2)"/>
<path d="M0 0 C0.08564209 0.83249268 0.17128418 1.66498535 0.25952148 2.52270508 C0.57924353 5.61479073 0.90199816 8.70654054 1.22680664 11.7980957 C1.4354487 13.79288782 1.64059338 15.78804472 1.84570312 17.78320312 C2.04389648 19.66362305 2.04389648 19.66362305 2.24609375 21.58203125 C2.36654053 22.73936768 2.4869873 23.8967041 2.61108398 25.08911133 C2.91501646 28.05806251 2.91501646 28.05806251 4 31 C6.64 20.77 9.28 10.54 12 0 C15.63 -0.33 19.26 -0.66 23 -1 C24.3987682 1.79753639 23.61834646 3.17797365 22.82836914 6.18408203 C22.54800308 7.26505157 22.26763702 8.34602112 21.97877502 9.45974731 C21.66738083 10.63060883 21.35598663 11.80147034 21.03515625 13.0078125 C20.72299667 14.20356903 20.4108371 15.39932556 20.08921814 16.63131714 C19.25748663 19.81213503 18.41962225 22.99125436 17.57879639 26.16967773 C16.7225246 29.41255786 15.87441474 32.65755853 15.02539062 35.90234375 C13.35768732 42.27020288 11.6811477 48.63567766 10 55 C5.38 55 0.76 55 -4 55 C-5.7518788 44.36359299 -6.93554749 33.72379284 -8 23 C-11.39632383 33.568449 -14.23110849 44.25352352 -17 55 C-20.63 55 -24.26 55 -28 55 C-27.34772388 48.45696082 -25.93494866 42.29402543 -24.27734375 35.9375 C-24.01240616 34.90560547 -23.74746857 33.87371094 -23.47450256 32.81054688 C-22.63345258 29.53915461 -21.78558647 26.26957435 -20.9375 23 C-20.36348001 20.77225191 -19.78990758 18.54438844 -19.21679688 16.31640625 C-17.81637428 10.87625838 -16.41036244 5.43757892 -15 0 C-13.06325815 -0.19517554 -11.12555991 -0.38087873 -9.1875 -0.5625 C-8.10855469 -0.66691406 -7.02960938 -0.77132812 -5.91796875 -0.87890625 C-3 -1 -3 -1 0 0 Z " fill="#783547" transform="translate(511,145)"/>
<path d="M0 0 C1.18916016 0.01869141 2.37832031 0.03738281 3.60351562 0.05664062 C4.75142578 0.09337891 5.89933594 0.13011719 7.08203125 0.16796875 C8.13237549 0.19528076 9.18271973 0.22259277 10.26489258 0.25073242 C13.85624438 0.94104238 15.56784477 2.3083876 18.1875 4.8125 C20.26530462 8.96810925 19.47055497 13.57417706 18.125 17.875 C16.30110685 22.41702516 13.0786078 24.9981097 9.1875 27.8125 C9.6825 28.328125 10.1775 28.84375 10.6875 29.375 C13.93992931 34.66019762 11.87111405 40.66402401 10.6328125 46.3671875 C10.04611632 49.58887003 10.045554 52.54774204 10.1875 55.8125 C5.8975 55.8125 1.6075 55.8125 -2.8125 55.8125 C-3.01520309 49.63005566 -2.45410893 44.14703561 -1.15234375 38.09765625 C-0.58548028 35.78827361 -0.58548028 35.78827361 -1.8125 33.8125 C-3.93826782 33.34598793 -3.93826782 33.34598793 -6.375 33.1875 C-7.20128906 33.11273438 -8.02757812 33.03796875 -8.87890625 32.9609375 C-9.51699219 32.91195312 -10.15507812 32.86296875 -10.8125 32.8125 C-10.97685547 33.68648437 -10.97685547 33.68648437 -11.14453125 34.578125 C-14.87682749 53.87682749 -14.87682749 53.87682749 -16.8125 55.8125 C-18.83214199 55.88494053 -20.85417124 55.89627188 -22.875 55.875 C-23.97972656 55.86597656 -25.08445313 55.85695312 -26.22265625 55.84765625 C-27.50462891 55.83025391 -27.50462891 55.83025391 -28.8125 55.8125 C-26.3491287 43.71958636 -23.29244636 31.79882377 -20.125 19.875 C-19.9210965 19.10649719 -19.71719299 18.33799438 -19.5071106 17.54620361 C-18.9192398 15.33371944 -18.32937488 13.12178141 -17.73828125 10.91015625 C-17.55924255 10.23895248 -17.38020386 9.56774872 -17.19573975 8.87620544 C-16.46605853 6.15953297 -15.70234588 3.48203764 -14.8125 0.8125 C-10.51414925 -1.33667538 -4.70458003 -0.14899099 0 0 Z M-4.8125 8.8125 C-5.31886607 10.56066858 -5.81734619 12.31112263 -6.3125 14.0625 C-6.5909375 15.03703125 -6.869375 16.0115625 -7.15625 17.015625 C-7.96478866 19.98273413 -7.96478866 19.98273413 -7.8125 23.8125 C-1.94673679 24.38095274 -1.94673679 24.38095274 3.125 21.75 C5.54670045 18.30091149 6.10840309 16.00463635 6.1875 11.8125 C3.78986815 9.41486815 2.85476502 9.46969414 -0.4375 9.1875 C-1.66339844 9.07535156 -1.66339844 9.07535156 -2.9140625 8.9609375 C-3.54054688 8.91195312 -4.16703125 8.86296875 -4.8125 8.8125 Z " fill="#763344" transform="translate(280.8125,144.1875)"/>
<path d="M0 0 C3.96623751 4.1696343 3.8324805 7.13373808 3.78515625 12.73828125 C2.66657643 25.04265927 -0.95404251 38.97256244 -9.0625 48.5 C-15.57345712 53.87153962 -21.16709717 55.15305115 -29.5625 54.5625 C-33.81452664 53.85382889 -35.90421815 53.20390283 -39 50.1875 C-44.08362788 38.39348333 -38.6105851 23.77346541 -34.36328125 12.33203125 C-31.18174225 5.34532932 -26.55003887 0.74120005 -19.5625 -2.4375 C-13.11926814 -4.12501311 -5.36857746 -4.38541629 0 0 Z M-19.5625 8.5625 C-23.13363143 13.97906819 -24.81473045 19.2216138 -26.3125 25.5 C-26.53292969 26.35529297 -26.75335938 27.21058594 -26.98046875 28.09179688 C-28.27823316 33.37555197 -28.97596964 38.12050995 -28.5625 43.5625 C-26.69286002 45.82548437 -26.69286002 45.82548437 -23.75 46 C-19.43408231 45.40761914 -18.33251674 43.88038398 -15.5625 40.5625 C-14.47681265 37.92542995 -13.62313173 35.53475274 -12.875 32.8125 C-12.66786377 32.1016626 -12.46072754 31.3908252 -12.24731445 30.65844727 C-11.66497867 28.63149302 -11.10805392 26.59962155 -10.5625 24.5625 C-10.31242187 23.63824219 -10.06234375 22.71398437 -9.8046875 21.76171875 C-7.91566842 14.05976827 -7.91566842 14.05976827 -9.5625 6.5625 C-13.90153494 4.99562627 -16.04032225 5.672508 -19.5625 8.5625 Z " fill="#793648" transform="translate(355.5625,146.4375)"/>
<path d="M0 0 C3.22986779 3.89240478 3.3567058 5.92825956 3.4375 10.9375 C3.1075 11.9275 2.7775 12.9175 2.4375 13.9375 C-1.1925 13.9375 -4.8225 13.9375 -8.5625 13.9375 C-9.0575 10.9675 -9.0575 10.9675 -9.5625 7.9375 C-12.10704045 6.99507761 -13.50279864 6.92470685 -16.1875 7.5 C-18.86660773 8.80341584 -18.86660773 8.80341584 -19.875 12.0625 C-20.101875 13.01125 -20.32875 13.96 -20.5625 14.9375 C-17.66513157 18.11503849 -14.90331272 19.97042116 -11.0625 21.875 C-3.66994823 25.82295822 -3.66994823 25.82295822 -1.5625 29.9375 C-0.67669515 36.64430813 -2.79582064 42.05846696 -6.25 47.6875 C-12.44748597 53.71748635 -19.89289614 55.20559472 -28.28125 55.09375 C-32.27030402 54.82052712 -36.02434816 54.15125489 -39.2109375 51.63671875 C-40.87399793 49.54587688 -41.07788208 48.20646348 -41.3125 45.5625 C-41.38984375 44.81226563 -41.4671875 44.06203125 -41.546875 43.2890625 C-41.5625 40.9375 -41.5625 40.9375 -40.5625 35.9375 C-36.2725 35.9375 -31.9825 35.9375 -27.5625 35.9375 C-27.61132812 39.01367188 -27.61132812 39.01367188 -27.66015625 42.08984375 C-27.76811184 43.95482141 -27.76811184 43.95482141 -26.5625 44.9375 C-23.06170639 45.32647707 -21.20801756 45.37366051 -18.25 43.375 C-16.09452866 40.26154139 -15.8496949 37.67103364 -15.5625 33.9375 C-16.201875 33.69 -16.84125 33.4425 -17.5 33.1875 C-19.0159375 32.56875 -19.0159375 32.56875 -20.5625 31.9375 C-21.28695312 31.64617187 -22.01140625 31.35484375 -22.7578125 31.0546875 C-31.07163061 27.57001786 -31.07163061 27.57001786 -33.5625 23.9375 C-35.30449666 18.01471135 -34.20141354 13.34918502 -31.5625 7.9375 C-27.76973874 2.15911667 -23.54127642 -0.97737916 -16.8125 -2.8125 C-10.98577832 -3.26070936 -4.94302098 -3.5375355 0 0 Z " fill="#793647" transform="translate(585.5625,146.0625)"/>
<path d="M0 0 C4.95 0 9.9 0 15 0 C15.33 18.15 15.66 36.3 16 55 C11.71 55 7.42 55 3 55 C3 51.04 3 47.08 3 43 C-1.62 43 -6.24 43 -11 43 C-11.66 44.98 -12.32 46.96 -13 49 C-13.97004121 51.01470098 -14.96244882 53.01922047 -16 55 C-20.29 55 -24.58 55 -29 55 C-23.84511686 44.64311732 -18.64142368 34.31284293 -13.35302734 24.0234375 C-12.60890699 22.57406628 -11.86643053 21.12385005 -11.12548828 19.67285156 C-10.02990059 17.52746479 -8.92955897 15.38457752 -7.828125 13.2421875 C-7.50201233 12.60151337 -7.17589966 11.96083923 -6.83990479 11.30075073 C-4.77261781 7.2968978 -2.52558384 3.78837576 0 0 Z M3 15 C1.49667622 17.81073569 -0.00209735 20.62387206 -1.5 23.4375 C-1.92925781 24.23994141 -2.35851562 25.04238281 -2.80078125 25.86914062 C-3.20683594 26.63291016 -3.61289062 27.39667969 -4.03125 28.18359375 C-4.40830078 28.89056396 -4.78535156 29.59753418 -5.17382812 30.32592773 C-6.07375864 31.83831776 -6.07375864 31.83831776 -6 33 C-2.7 33 0.6 33 4 33 C4 27.06 4 21.12 4 15 C3.67 15 3.34 15 3 15 Z " fill="#732E40" transform="translate(448,145)"/>
<path d="M0 0 C-2.30040934 10.25896834 -4.83346895 20.45514091 -7.5 30.625 C-7.92647827 32.2953833 -7.92647827 32.2953833 -8.36157227 33.99951172 C-10.49576437 42.0341888 -12.58850876 49.34627294 -20 54 C-26.33302139 56.38981939 -32.4755295 57.17967448 -38.875 54.75 C-42 53 -42 53 -43.4375 51.25 C-44.79803954 45.80784183 -44.07607481 42.19018703 -42 37 C-38.37 37 -34.74 37 -31 37 C-31 39.97 -31 42.94 -31 46 C-29.02 46 -27.04 46 -25 46 C-23.20961512 39.52025887 -21.47528141 33.02688062 -19.7734375 26.5234375 C-19.37763996 25.01431353 -18.98180619 23.50519906 -18.5859375 21.99609375 C-17.97420734 19.66368662 -17.36354724 17.33102247 -16.75585938 14.99755859 C-16.16068239 12.71368501 -15.56121587 10.43097475 -14.9609375 8.1484375 C-14.77864594 7.44439789 -14.59635437 6.74035828 -14.40853882 6.01498413 C-13.11373497 1.11373497 -13.11373497 1.11373497 -12 0 C-4.23003802 -1.27376426 -4.23003802 -1.27376426 0 0 Z " fill="#7A3849" transform="translate(415,145)"/>
<path d="M0 0 C1.51815699 0.00015911 3.0363194 0.00585313 4.55444336 0.01586914 C5.35208603 0.01728409 6.1497287 0.01869904 6.97154236 0.02015686 C9.52916146 0.02577223 12.08669429 0.03832727 14.64428711 0.05102539 C16.37410356 0.05603841 18.10392137 0.06060166 19.83374023 0.06469727 C24.08312264 0.07574664 28.33244023 0.09302153 32.58178711 0.11352539 C31.70678711 7.98852539 31.70678711 7.98852539 30.58178711 9.11352539 C28.56214512 9.18596592 26.54011587 9.19729727 24.51928711 9.17602539 C23.41456055 9.16700195 22.30983398 9.15797852 21.17163086 9.14868164 C20.31698242 9.13708008 19.46233398 9.12547852 18.58178711 9.11352539 C18.37424805 10.0274707 18.16670898 10.94141602 17.95288086 11.88305664 C15.7469795 21.47719143 13.3566123 31.01954593 10.89428711 40.55102539 C10.58483154 41.75412354 10.27537598 42.95722168 9.95654297 44.19677734 C9.51773804 45.88613403 9.51773804 45.88613403 9.07006836 47.60961914 C8.80750244 48.62209717 8.54493652 49.6345752 8.27441406 50.67773438 C7.58178711 53.11352539 7.58178711 53.11352539 6.58178711 55.11352539 C2.62178711 55.11352539 -1.33821289 55.11352539 -5.41821289 55.11352539 C-3.67256963 45.61799335 -1.22291576 36.32628099 1.20678711 26.98852539 C1.63151709 25.3479653 2.05599829 23.70734079 2.48022461 22.06665039 C3.51121185 18.08152674 4.54556242 14.09729025 5.58178711 10.11352539 C1.95178711 9.78352539 -1.67821289 9.45352539 -5.41821289 9.11352539 C-4.42191677 0.14686032 -4.42191677 0.14686032 0 0 Z " fill="#753143" transform="translate(213.418212890625,144.886474609375)"/>
<path d="M0 0 C0.66 0.33 1.32 0.66 2 1 C-1.63 4.63 -5.26 8.26 -9 12 C-9 7.8407692 -6.75316432 5.85455565 -4 3 C-1.6875 1.125 -1.6875 1.125 0 0 Z " fill="#976370" transform="translate(570,7)"/>
<path d="" fill="#F3EFF0" transform="translate(0,0)"/>
</svg>
