<svg xmlns="http://www.w3.org/2000/svg" height="45.106" viewBox="0 0 253.38185 45.10577" width="253.38"><g transform="matrix(1.25 0 0 -1.25 -408.1 868.19)"><g transform="matrix(.5 0 0 .5 214.47 338.57)"><path d="m87.965 0c-4.042 0.019172-8.057 0.46925-11.584 1.3613-14.675 3.7119-22.533 14.455-24.371 33.319-0.31154 3.1965-0.4712 3.7198-2.3379 7.6875-4.3295 9.2024-7.5883 14.144-10.67 16.186-1.9024 1.2601-3.0699 1.2895-3.8809 0.09375-0.57806-0.85226-0.61133-1.898-0.61133-19.873 0-21.758-0.0031-21.719 2.8066-27.258 2.183-4.306 2.134-6.7592-0.174-8.89l-0.885-0.8165-16.248-0.0859c-14.98-0.0794-16.335-0.0415-17.369 0.4902-1.5745 0.8096-2.378 2.0565-2.5625 3.9766-0.1428 1.4862 0.022066 2.0337 1.6582 5.5039 0.99921 2.1193 2.0105 4.7369 2.248 5.8164 0.33558 1.5246 0.43164 7.184 0.43164 25.352 0 26.604 0.1201 25.247-2.7754 31.127-1.7547 3.563-2.0024 5.0069-1.1914 6.9102 0.64159 1.5058 1.7842 2.4325 3.4766 2.8223 0.93619 0.21565 9.4982 0.34266 23.521 0.34766l22.049 0.0078 1.0723 0.81836c0.59025 0.45021 1.6342 0.94991 2.3203 1.1094h0.002c0.6861 0.15944 1.4665 0.244 1.7363 0.1875 0.26988-0.05651 0.94839-0.19452 1.5078-0.30664 1.1611-0.23272 2.5419-1.5404 3.0527-2.8926 0.19136-0.50646 0.34766-2.8212 0.34766-5.1426v-4.2188l2.5352 2.5449c4.0477 4.0653 8.1422 6.3231 14.348 7.9102 7.3779 1.887 17.861 1.744 25.291-0.34375 9.8004-2.754 17.016-9.7711 20.301-19.748 0.81132-2.464 1.0809-2.4094 1.459 0.29297 0.32367 2.3135 2.0003 7.194 3.1777 9.252 1.2147 2.123 4.1344 5.3304 6.0586 6.6543 5.1381 3.5351 11.888 5.1862 21.201 5.1875 11.598 0.0015 19.903-2.8849 25.529-8.8711 3.2748-3.4845 4.8462-6.4059 6.3066-11.732l0.85156-3.1074 0.11133-21.264c0.1017-19.56 0.32778-24.678 0.88672-20.072 0.11712 0.96501 0.16065 11.838 0.0976 24.162-0.129 25.235 0.004 23.811-2.7285 29.338-0.81704 1.6526-1.569 3.513-1.6699 4.1348-0.2212 1.363 0.37741 3.3817 1.3027 4.3965 1.4661 1.6078 2.8113 1.7283 18.816 1.6992 13.793-0.02514 14.891 0.01425 15.701 0.56445 1.3346 0.9061 5.2356 0.83144 6.5293-0.125l0.96876-0.71484 5.0273 0.69726c3.953 0.54965 6.7066 0.70359 12.879 0.71484 7.0519 0.0127 8.1408-0.05936 10.699-0.70898 4.1811-1.0616 7.7707-2.5383 10.469-4.3047 2.4416-1.5985 7.4035-6.5334 8.2871-8.2422 0.27104-0.52415 0.55983-0.95312 0.64258-0.95312 0.24449 0-1.0145 2.9885-1.9297 4.5801-1.6579 2.8832-0.91976 6.0916 1.7637 7.668 1.1294 0.66316 1.491 0.67187 28.785 0.67187s27.656-0.0084 28.785-0.67187c1.7261-1.014 2.6172-2.5491 2.6172-4.5078 0-1.3513-0.24138-2.0504-1.3379-3.8652-1.043-1.7263-1.378-2.6499-1.5176-4.1895l-0.17969-1.9746h5.1621 5.1602l-0.19336 1.6348c-0.1961 1.656-0.94155 3.4875-2.2578 5.5469-0.88986 1.3923-0.95973 3.9518-0.14843 5.4902 0.31223 0.59206 1.1706 1.3859 1.9434 1.7988l1.3828 0.73828h26.824c26.469 0 26.838-0.0088 27.967-0.67187 2.5885-1.5206 3.4325-4.8441 1.877-7.3945-0.40183-0.65888-1.3692-2.2328-2.1484-3.498-0.77928-1.2653-1.6256-2.9957-1.8809-3.8438-0.50881-1.6906-0.66105-8.6513-0.17773-8.127 0.15756 0.17091 1.808 3.7701 3.668 7.998 3.1837 7.237 3.3787 7.8026 3.3086 9.6504-0.0901 2.3732 0.7949 4.1834 2.5508 5.2148 1.129 0.6637 1.5015 0.67187 26.998 0.67187 24.863 0 25.906-0.02397 27.256-0.63281 2.563-1.1557 3.6204-4.9779 2.0606-7.4492-1.5625-2.4754-2.0803-3.7082-2.252-5.3711l-0.18164-1.7559h5.1582 5.1562l-0.1543 1.7168c-0.15707 1.7622-0.64461 3.0242-2.0547 5.3145-1.6354 2.6563-0.84532 5.9514 1.8008 7.5059 1.1075 0.65066 1.6059 0.67187 15.711 0.67187 13.702 0 14.65-0.03729 15.971-0.63281 1.6884-0.76105 2.6641-2.422 2.6641-4.5352 0-1.1015-0.48175-2.4102-2.0859-5.6562-1.1478-2.3225-2.4661-5.3327-2.9297-6.6895-0.6637-1.9426-10.618-45.116-12.307-53.375-0.34282-1.6768-0.31262-2.0255 0.29296-3.3945 0.3712-0.83914 0.67383-2.1008 0.67383-2.8047 0-1.688-1.0789-3.7409-2.3848-4.5371-1.008-0.61468-1.7539-0.64062-18.713-0.64062s-17.707 0.026-18.715 0.64062c-1.2928 0.78829-2.3848 2.8443-2.3848 4.4902 0 0.67836 0.31443 1.9935 0.69922 2.9219l0.70117 1.6875-5.8008 25.633c-3.1897 14.098-5.8656 25.698-5.9473 25.781-0.0816 0.08292-0.10192-10.294-0.0449-23.061 0.11752-26.308-0.0891-24.274 2.9258-28.893 1.2826-1.9647 1.5781-2.6887 1.5781-3.8613 0.00001-1.8399-1.0309-3.8749-2.3828-4.6992-0.9974-0.60814-1.726-0.63945-14.557-0.64062-12.892-0.00117-13.566 0.027575-14.799 0.65625-1.4989 0.76465-2.6074 2.6362-2.6074 4.4004 0 0.75731 0.61853 2.3816 1.7832 4.6758 1.6872 3.3235 2.7969 6.6082 2.7969 8.2871 0 1.281-0.50145 0.37121-2.9766-5.418-1.8792-4.3953-2.3582-5.8426-2.3008-6.9512 0.11001-2.125-0.92291-4.155-2.5332-4.9766-1.2808-0.65345-1.8112-0.67502-16.629-0.67383-14.696 0.00116-15.348 0.026291-16.371 0.65039-2.7136 1.6545-3.0816 4.4841-1.0976 8.4316 0.69877 1.3903 1.6172 3.559 2.041 4.8184l0.76953 2.2891 0.0996 22.066c0.054 12.136 0.033 21.998-0.0469 21.916-0.24906-0.25644-11.332-49.584-11.324-50.402 0.004-0.42634 0.2984-1.4169 0.6543-2.2012 0.80631-1.7775 0.80886-3.0914 0.01-4.8516-0.45-0.9676-1.02-1.5648-1.95-2.0417-1.29-0.6549-1.8-0.6738-18.79-0.6738h-17.465l-1.0938 0.73633c-2.1799 1.469-2.9848 4.4636-1.8106 6.7344 0.28485 0.55086 0.51758 1.5991 0.51758 2.3281 0 0.72902-2.2879 11.444-5.084 23.812-6.5662 29.046-6.3673 28.213-6.7344 28.213-0.19968 0-0.27636-8.1759-0.20899-22.326 0.12085-25.395 0.0164-24.335 3.0078-30.291 0.93847-1.8686 1.4961-3.412 1.4961-4.1426 0-1.7683-1.1092-3.6409-2.6094-4.4062-1.2409-0.63312-1.9014-0.6582-17.021-0.6582-13.53 0-15.867 0.070306-16.705 0.50391-0.9465 0.48946-0.9981 0.47589-1.793-0.46875-0.45028-0.53514-1.3474-1.1466-1.9922-1.3594-1.582-0.52211-4.2006-0.22976-5.3145 0.59375-1 0.738-0.21 0.7698-10.01-0.39782-14.11-1.6812-24.8 0.75582-31.54 7.1875l-1.8203 1.7363v-2.582c0-2.55-0.0158-2.599-1.2324-3.8164l-1.2324-1.2324h-30.559-30.557l-0.95312 0.91211c-0.89 0.8444-0.99 0.8702-1.42 0.3574-1.14-1.3798-1.84-1.4341-18.36-1.4336-17.854 0.000575-17.502-0.045116-18.717 2.4434-1.0548 2.1613-0.81769 3.8407 1.0918 7.7188 1.6471 3.3451 2.6789 7.1007 2.6289 9.5742l-0.0215 1.0352-0.51758-1.1445c-3.3083-7.3102-4.0243-8.4911-7.1094-11.732-3.5343-3.7134-6.9467-5.7946-12.297-7.5039-4.288-1.3733-9.528-2.0616-14.725-2.037zm68.531 10.246c0.19427 0.06225 0.97538 1.134 1.7344 2.3809 2.4045 3.9503 2.3809 3.7034 2.3809 25.734 0 21.456 0.0136 21.307-1.9199 22.307-0.54497 0.28181-1.7235 0.51172-2.6191 0.51172-1.7383 0-2.474-0.45667-3.0117-1.8711-0.16913-0.44481-0.29883-9.1038-0.29883-19.873 0-15.522 0.0893-19.56 0.48437-21.625 0.52505-2.7442 2.675-7.7487 3.25-7.5645zm117.32 2.0312 0.66211 1.4727c1.551 3.4469 1.6775 4.7045 1.8379 18.236 0.0886 7.4762 0.0284 12.838-0.14258 12.838-0.16146 0-0.60489-0.6426-0.98632-1.4277-0.38147-0.78512-1.3538-2.2366-2.1602-3.2266l-1.4648-1.8008 1.0312-1.0312 1.0312-1.0293 0.0957-12.016 0.0957-12.016zm-25.107 11.303c0.92744 0.000464 2.0444 0.30837 3.3262 0.92188 1.9369 0.92704 6.3674 4.3991 6.627 5.1934 0.19348 0.59218-0.0533 0.52718-3.8457-1.0234-4.1867-1.7118-7.2608-3.2537-7.8105-3.916-0.33874-0.40816-0.29548-0.55495 0.24414-0.84375 0.41504-0.22213 0.90252-0.33231 1.459-0.33203zm-160.48 0.637c1.6711 0 2.472 0.62767 3.3203 2.5996 1.2032 2.797 1.6709 7.2695 1.6621 15.883-0.01086 10.442-0.5721 14.531-2.3613 17.193-0.6575 0.97848-0.9569 1.1379-2.2988 1.2246-1.3168 0.08511-1.6584-0.02812-2.3438-0.76758-0.44136-0.47625-1.0251-1.5507-1.2969-2.3887-1.105-3.4069-1.3379-6.0593-1.3379-15.262 0-6.073 0.14229-9.931 0.42188-11.449 0.95698-5.1967 2.0635-7.0332 4.2344-7.0332zm129.54 12.758c0.13493 0.000425 0.66287 0.79732 1.1719 1.7715 0.509 0.97416 1.7189 2.6502 2.6895 3.7227l1.7656 1.9492-1.8008 0.14844c-1.1468 0.0951-2.1497 0.40831-2.7598 0.85938-0.52687 0.38954-1.0375 0.70703-1.1348 0.70703s-0.17578-2.0613-0.17578-4.5801 0.1092-4.5786 0.24414-4.5781zm9.5059 10.703 1.748 1.0449c0.96208 0.57509 4.9873 2.6496 8.9453 4.6094s7.7426 4.0185 8.4102 4.5742c1.0747 0.89472 1.1734 1.0987 0.86328 1.7793-0.19261 0.42272-0.70808 0.93111-1.1465 1.1309-1.0418 0.47468-3.2009 0.42763-4.9121-0.10742-4.8643-1.521-10.651-6.6914-13.34-11.922l-0.56836-1.1094z" fill="#ce181e" transform="matrix(.8 0 0 -.8 225.93 710.19)"/><path d="m89.516 5.1016c-6.6029-0.17019-12.727 0.9721-17.551 3.3008-2.6633 1.2857-3.5325 1.9281-6.0762 4.4902-2.4392 2.4569-3.2397 3.5331-4.4961 6.043-3.6417 7.2747-5.1496 16.999-4.4512 28.717 0.76188 12.781 4.1209 21.202 10.607 26.596 3.5719 2.9704 9.6817 5.2816 15.609 5.9043 3.8384 0.40325 10.683 0.09608 14.256-0.63867 12.466-2.5636 19.019-10.063 21.727-24.869 0.58191-3.182 0.68946-5.04 0.68946-11.945 0-6.9969-0.10476-8.7445-0.7168-12.1-1.43-7.872-4.04-13.589-8.06-17.662-4.68-4.7483-10.12-6.9864-18.677-7.6841-0.96-0.0783-1.914-0.128-2.857-0.1523zm157.93 0.072266c-3.0781-0.027941-5.8251 0.14931-7.8398 0.53516-12.111 2.3194-18.894 10.469-18.396 22.105 0.1687 3.9476 0.88468 6.3362 2.7363 9.125 2.8223 4.2506 6.198 6.6496 16.969 12.066 10.234 5.1467 11.611 6.3302 11.611 9.9629 0 5.0034-4.4719 8.0772-10.416 7.1602-7.2798-1.1231-14.803-7.0803-19.059-15.09l-0.78321-1.4707-0.084 15.18c-0.0468 8.3491-0.0266 15.239 0.0449 15.311 0.0715 0.0715 0.62352-0.17217 1.2285-0.54102 1.3768-0.8394 4.0071-0.88314 9.1855-0.15234 7.7292 1.0908 15.15 1.2571 19.758 0.44141l0.002-0.002c8.2993-1.4694 14.72-5.9255 17.889-12.414 1.8266-3.7403 2.5183-6.9058 2.5117-11.512-0.007-5.3387-1.1083-8.8235-3.9648-12.564-2.6228-3.4348-7.3226-6.3438-15.822-9.793-5.3545-2.1729-7.02-2.9892-8.9043-4.3633-2.5936-1.8914-3.4205-5.0552-1.9883-7.6035 1.4964-2.6625 6.1097-3.7488 10.461-2.4629 4.0664 1.2018 10.198 6.5605 14.02 12.252 0.98349 1.4649 1.8983 2.6697 2.0332 2.6758 0.13494 0.0063 0.24415-6.4667 0.24415-14.383 0-7.9161-0.0734-14.393-0.16407-14.393-0.0906 0-0.7134 0.29447-1.3848 0.6543-1.5714 0.84225-3.4148 0.83613-10.062-0.029297-3.3369-0.43442-6.7461-0.66737-9.8242-0.69531zm-227.85 1.3788c-7.9015 0-14.367 0.0774-14.367 0.17188 0 0.0945 0.5141 1.1934 1.1426 2.4414 3.2021 6.361 3.55 10.232 3.3408 37.143-0.1275 16.399-0.2446 20.349-0.6622 22.232-0.6538 2.949-1.5121 5.383-2.7949 7.924-0.5646 1.118-1.0273 2.112-1.0273 2.207 0 0.09512 9.9731 0.17283 22.162 0.17383 13.837 0.000988 22.607 0.12484 23.346 0.33008 0.65085 0.18079 1.6805 0.68275 2.2891 1.1152 0.60852 0.43249 1.1425 0.79905 1.1875 0.81445 0.045 0.01538 0.07739-8.1048 0.07227-18.045l-0.0078-18.072-2.3652 4.5801c-2.9218 5.6592-5.2648 9.0771-7.9238 11.564-2.8353 2.6523-4.6281 3.4794-7.5449 3.4805-3.0604 0.000975-4.5759-0.93688-5.9141-3.6621l-0.93164-1.8965v-20.609c0-20.508 0.0041-20.622 0.75586-23.389 0.4155-1.5292 1.3973-4.0684 2.1816-5.6426l1.4258-2.8613h-14.365zm118.11 0c-7.9161 0-14.393 0.075331-14.393 0.16797 0 0.092625 0.44373 0.95217 0.98438 1.9102 0.54066 0.958 1.3556 2.8329 1.8125 4.166 1.6324 4.7633 1.7798 7.0453 1.7832 27.775 0.004 20.261 0.13691 22.503 1.5859 26.605 2.6937 7.6259 9.1348 11.967 19.186 12.932 4.2462 0.40734 6.2175 0.41252 9.9336 0.03125 7.5109-0.77076 12.411-2.8426 16.572-7.0078 1.9491-1.9511 2.9388-3.264 3.8301-5.084 2.4068-4.9146 2.3127-3.8641 2.5566-28.949 0.14749-15.167 0.34178-23.025 0.5918-23.955 0.61604-2.2924 1.4022-4.067 2.7598-6.2363 0.70901-1.1329 1.2203-2.1273 1.1367-2.2109-0.0836-0.083625-5.8487-0.11353-12.811-0.066406l-12.658 0.085937 0.85743 1.1445c1.2447 1.6612 3.0188 5.2707 3.6562 7.4414 0.485 1.6515 0.56623 4.2936 0.67187 21.672 0.0856 14.092 0.0116 20.354-0.25781 21.752-0.53196 2.7585-1.7732 4.8875-3.5293 6.0508-1.781 1.1797-3.0784 1.4806-6.2773 1.4512-4.5674-0.042-6.9499-2.1237-7.8203-6.832-0.57683-3.1203-0.47642-37.153 0.12109-41.068 0.54697-3.5847 1.7089-7.2019 3.1172-9.6973 0.54066-0.95799 0.98437-1.8175 0.98437-1.9102 0-0.09275-6.4784-0.16797-14.395-0.16797zm65.082 0c-7.9083 0-14.379 0.075984-14.379 0.16992 0 0.094 0.5882 1.3406 1.3066 2.7695 1.6109 3.204 2.5102 6.4147 2.9355 10.473 0.42362 4.0419 0.42362 41.425 0 45.467-0.4239 4.0447-1.3604 7.4007-2.9551 10.588-0.70806 1.4151-1.2871 2.6301-1.2871 2.6992 0 0.06912 6.4706 0.125 14.379 0.125h14.379l-1.457-3.0254c-0.80088-1.6642-1.7878-4.2033-2.1934-5.6426-0.73569-2.6112-0.73722-2.6702-0.73438-27.477 0.002-24.766 0.007-24.872 0.73828-27.479 0.40395-1.4393 1.3886-3.9784 2.1895-5.6426l1.457-3.0254h-14.379zm73.879 0 0.81445 1.3906c1.1546 1.9724 2.3089 4.9277 3.0371 7.7734 0.58999 2.3056 0.62695 3.8836 0.62695 27.145 0 24.69-0.001 24.699-0.74804 27.479-0.41088 1.5292-1.3921 4.0684-2.1816 5.6426l-1.4356 2.8613h14.367c7.9021 0 14.367-0.05327 14.367-0.11914 0-0.06588-0.64721-1.5012-1.4375-3.1895-3.014-6.4389-3.2435-9.1653-3.0469-35.967 0.124-16.908 0.23738-20.815 0.66016-22.711 0.65902-2.9552 1.5188-5.3902 2.7988-7.9258 0.56463-1.1185 1.0254-2.1119 1.0254-2.207 0-0.095125-6.4906-0.17188-14.424-0.17188h-14.424zm61.559 0c-8.8156 0-16.027 0.051031-16.027 0.11328 0 0.06225 0.23564 0.58522 0.52344 1.1621 1.3116 2.6292 1.255 2.9704-5.0703 30.945-3.2543 14.393-6.3701 27.494-6.9238 29.113-0.55374 1.6192-1.8436 4.635-2.8652 6.7031-1.0216 2.0682-1.9049 3.8721-1.9648 4.0078-0.06 0.13574 5.2718 0.24609 11.85 0.24609h11.959l-0.96289-1.5195c-1.659-2.616-2.1356-4.4833-2.0742-8.1289 0.0304-1.7991 0.18714-3.7142 0.34961-4.2539l0.29688-0.98047 9.3555-0.08789 9.3574-0.08594 0.38672 1.8672c0.63492 3.0585 0.28674 7.4343-0.77735 9.7461-0.49462 1.0746-1.1374 2.2163-1.4277 2.5371-0.29038 0.32082-0.45519 0.65808-0.36524 0.74805 0.09 0.09 11.659 0.12422 25.709 0.07813l25.545-0.08398-1.3164-1.9609c-1.9092-2.8464-3.1338-5.5399-3.7109-8.1641-0.42579-1.9359-0.49214-4.7667-0.41601-17.723l0.0918-15.42 8.9219 20.162c4.9077 11.089 9.0095 20.494 9.1152 20.898 0.11212 0.42894-0.031 1.0754-0.34375 1.5527l-0.53516 0.81836h11.455c6.301 0 11.453-0.10919 11.447-0.24414-0.005-0.13494-0.22803-0.53163-0.49218-0.88086-0.72237-0.95506-0.70937-59.845 0.0137-62.912 0.52082-2.209 1.6432-4.6449 3.1641-6.8633l0.95312-1.3906h-12.119c-6.6654 0-12.117 0.0629-12.117 0.14062 0 0.07775 0.64946 1.4409 1.4434 3.0273 3.1049 6.2046 3.5285 9.3175 3.3945 24.879l-0.0957 11.201-6.6641-15.059c-9.07-20.514-9.71-22.11-9.27-23.267l0.34765-0.91992h-14.064c-7.7356 0-14.009 0.11113-13.939 0.24609 1.7776 3.4719 3.0042 6.4236 3.584 8.6211 0.70768 2.6824 0.72741 3.2653 0.84766 25.316 0.12527 22.973-0.005 26.513-1.1191 30.375-0.60966 2.113-2.742 6.752-3.1035 6.752-0.44303 0-3.7787-7.1287-4.8223-10.305-0.53205-1.6192-3.565-14.426-6.7383-28.459-6.0734-26.858-6.3467-28.474-5.2676-31.057 0.28572-0.68388 0.51953-1.2992 0.51953-1.3672s-7.2137-0.12305-16.029-0.12305zm110.92 0 0.63086 1.3906c0.39335 0.86658 0.63321 2.1282 0.63867 3.3516 0.0113 2.4151-11.289 52.722-12.811 57.033-0.54862 1.5544-1.826 4.4461-2.8379 6.4258-1.0118 1.9797-1.8893 3.7088-1.9512 3.8438-0.0619 0.13494 5.256 0.24609 11.818 0.24609h11.932l-1.2988-2.5449c-1.484-2.9045-1.8442-4.9258-1.5312-8.6133 0.36778-4.3339-0.77112-3.8887 9.9434-3.8887h9.2871l0.38672 1.3906c0.2117 0.76462 0.39192 2.7148 0.40234 4.334 0.021 3.2406-0.63315 5.5853-2.2012 7.8926l-0.85937 1.2656 13.467 0.08594c7.4066 0.047 13.508 0.04286 13.561-0.0098 0.0523-0.05225-0.76493-1.784-1.8164-3.8477s-2.3589-5.0212-2.9043-6.5742c-1.5032-4.2801-12.814-54.687-12.805-57.066 0.005-1.1983 0.24576-2.463 0.63672-3.3242l0.63086-1.3906h-16.158-16.16zm-360.81 12.642c5.4548-0.01125 7.9132 2.7889 9.3809 10.688 0.8123 4.3718 0.81466 21.309 0.0039 25.631-1.0595 5.6495-2.6497 8.6286-5.2891 9.9062-1.7218 0.83352-4.6428 1.1201-6.5625 0.64258-3.339-0.83062-5.3676-3.6438-6.5566-9.0938-0.87841-4.0263-1.2957-13.79-0.86523-20.236 0.43596-6.5282 1.0314-9.8773 2.2246-12.516 1.6192-3.5802 3.8072-5.0133 7.6641-5.0215zm375.46 0.30078c0.063 0.34718 1.4983 7.3777 3.1895 15.623 1.6912 8.2454 3.0742 15.053 3.0742 15.129 0 0.0755-2.8706 0.13672-6.3789 0.13672s-6.3781-0.10918-6.3789-0.24414c-0.005-0.90618 6.403-31.147 6.4941-30.645zm-127.22 0.39453c0.11287-0.13058 1.5858 6.4922 3.2734 14.719 1.6876 8.2266 3.1357 15.142 3.2168 15.367 0.11487 0.3184-1.3012 0.4082-6.4004 0.4082h-6.5488l0.42774-1.8809c0.2352-1.0345 1.6422-7.8425 3.127-15.129 1.4847-7.2864 2.7914-13.354 2.9043-13.484z" transform="matrix(.8 0 0 -.8 225.93 710.19)" fill="#fff"/><path d="m268.54 0.017578c-0.45944-0.00395-1.6042 0.37595-2.543 0.84375l-1.707 0.84961-5.4707-0.70312c-7.12-0.9159-13.22-1.1728-16.94-0.71288-7.31 0.90468-13.48 3.4582-17.76 7.3457-2.67 2.4272-2.639 2.4185-2.2715 0.69531 0.41877-1.9635 0.11064-3.4813-0.96679-4.7617-1.6922-2.0111-0.31338-1.9277-31.945-1.9277-19.704 0-29.234 0.11009-29.861 0.34766-0.50647 0.19189-1.257 0.66593-1.6699 1.0527-0.62312 0.58375-0.84563 0.63495-1.3086 0.29883-0.30675-0.22271-1.1475-0.6929-1.8672-1.0449-1.2417-0.60742-2.085-0.64062-16.52-0.64062-14.367 0-15.288 0.036019-16.611 0.63672-1.0698 0.48552-1.5516 0.96737-2.0371 2.0371-0.98703 2.1747-0.83011 3.2744 0.99219 6.9336 1.7292 3.4722 2.6176 6.9195 2.6035 10.115-0.007 1.6861-0.01 1.687-0.45118 0.70703-3.318-7.3695-4.4869-9.335-7.375-12.387-5.53-5.856-13.58-9.0588-24.047-9.5698-11.88-0.58002-22.178 2.7644-28.566 9.2754-5.621 5.7288-9.176 14.768-10.174 25.867-0.28476 3.169-0.42452 3.628-2.3398 7.6855-3.5507 7.522-6.1514 11.706-9.0312 14.527-1.8443 1.8069-4.0316 2.7423-5 2.1387-1.2836-0.80004-1.3577-2.1025-1.2383-21.998 0.13078-21.796 0.09619-21.477 3.0156-27.012 0.8181-1.5509 1.4863-3.2149 1.4863-3.6992 0-1.2337-1.2951-3.6336-2.3945-4.4355-0.897-0.6527-1.368-0.6739-16.451-0.7622-14.821-0.087-15.593-0.0613-16.976 0.5507-1.5621 0.6908-2.6383 2.0909-2.9751 3.8731-0.16228 0.85866 0.14796 1.8019 1.623 4.9082 2.848 5.9974 2.8281 5.76 2.8281 31.648s0.019813 25.651-2.8281 31.648c-2.0142 4.2417-2.0883 5.0407-0.67383 7.1582 1.564 2.3414 0.45668 2.2435 25.346 2.2441 24.066 0.00055 22.483-0.10271 25.586 1.6719h0.002c1.4255 0.81528 3.8927 0.68678 5.1758-0.26953 1.7994-1.3412 2.1699-2.4898 2.3477-7.2891l0.16406-4.416 1.6348 1.7578c5.8134 6.2479 14.081 9.6188 24.697 10.07 14.248 0.60594 25.522-4.0192 31.621-12.973 1.3887-2.0385 3.3395-5.9836 4.1621-8.416 0.37879-1.12 0.83469-2.0034 1.0137-1.9629 0.17898 0.04054 0.5676 1.2521 0.86329 2.6914 2.8779 14.009 12.777 20.778 30.369 20.77 12.587-0.0064 22.355-4.2976 27.775-12.203 1.5412-2.2479 2.9285-5.4635 3.9082-9.0547l0.84961-3.1113 0.17578-21.752c0.1198-14.832 0.27892-21.546 0.50195-21.1 0.20924 0.41846 0.32813 9.3781 0.32813 24.861 0 27.411 0.12815 25.89-2.6875 31.533-0.84354 1.6906-1.5332 3.5309-1.5332 4.0898 0 1.767 1.1185 3.5514 2.7363 4.3672 1.4515 0.73225 1.5423 0.73438 16.744 0.73438 15.192 0 15.294 0.0048 16.514 0.72461 1.6674 0.98376 4.0864 0.97434 5.8574-0.02344l1.3242-0.74609 7.6719 0.875c15.071 1.7174 23.605 0.43188 31.482-4.7402 2.7533-1.8077 7.3307-6.4919 8.7344-8.9395 0.53812-0.93829 0.98117-1.5848 0.98242-1.4355 0.006 0.51669-1.7274 4.642-2.543 6.0527-0.60245 1.0422-0.81836 1.8924-0.81836 3.2129 0 1.9368 0.52652 2.9459 2.1816 4.1816 0.89595 0.66944 1.1324 0.67578 28.986 0.67578s28.09-0.0069 28.986-0.67578c1.621-1.2102 2.178-2.2496 2.2051-4.125 0.0212-1.4656-0.17016-2.0571-1.1934-3.7148-1.3356-2.1638-1.8672-3.6731-1.8672-5.3027v-1.0664h5.2344 5.2344v1.4824c0 1.6748-0.60047 3.319-1.8965 5.1953-0.7257 1.0507-0.88477 1.64-0.88477 3.2852 0 2.454 0.64895 3.5832 2.5606 4.4512 1.3026 0.59136 2.556 0.62 27.533 0.625 16.78 0.0034 26.6-0.11445 27.369-0.32813 2.4035-0.66756 3.9775-3.6383 3.2461-6.1289-0.17269-0.58804-0.98794-2.0829-1.8106-3.3203-0.82263-1.2374-1.8938-3.1109-2.3809-4.1641-0.80076-1.731-0.88648-2.2834-0.89648-5.7539-0.007-2.3336 0.1156-3.8489 0.31445-3.8633 0.17991-0.01306 1.9054 3.5461 3.834 7.9082 3.307 7.48 3.5031 8.0454 3.4473 9.9297-0.0666 2.2486 0.57571 3.7046 2.1484 4.877 0.92097 0.68591 0.99598 0.68945 27.312 0.68945 29.993 0 27.966 0.18569 29.238-2.6914 0.84666-1.914 0.61151-3.989-0.65821-5.8145-1.3313-1.9141-1.6992-2.9429-1.6992-4.7656v-1.6289l5.1523 0.08984 5.1523 0.08984-0.0488 1.5156c-0.0494 1.5069-0.76553 3.3403-2.1484 5.5039-0.51144 0.80014-0.72266 1.6357-0.72266 2.8535 0 1.8598 0.57579 2.9374 2.2285 4.1719 0.8759 0.65421 1.3429 0.67778 15.605 0.76953 13.983 0.08989 14.772 0.06409 16.145-0.54297 1.7687-0.7824 2.5913-2.1904 2.5644-4.3887-0.015-1.2442-0.45604-2.4569-2.1445-5.8887-1.1694-2.3767-2.5062-5.4348-2.9707-6.7969-1.0784-3.1624-12.316-52.813-12.316-54.416 0-0.66119 0.23813-1.6636 0.5293-2.2266 1.1854-2.2922 0.46777-5.3711-1.6152-6.9238-0.91231-0.67966-1.1398-0.68945-18.703-0.68945s-17.791 0.00942-18.703 0.68945c-2.0605 1.5359-2.8617 4.92-1.6152 6.8223 0.29067 0.4436 0.52734 1.4339 0.52734 2.1992 0 1.3618-10.423 48.225-11.299 50.805-0.38311 1.1275-0.44561-1.9054-0.45898-21.938-0.0177-26.381-0.14281-25.019 2.6641-29.33 1.3817-2.1224 1.6519-2.7858 1.6719-4.1172 0.0273-1.8083-0.73761-3.3751-2.168-4.4414-0.9041-0.67404-1.2085-0.68945-14.557-0.68945-13.123 0-13.675 0.025141-14.766 0.66602-1.4864 0.87321-2.3574 2.4144-2.3574 4.1758 0 1.0733 0.43158 2.2524 1.7754 4.8613 1.8198 3.5331 2.8612 6.8173 2.8574 9.0098l-0.004 1.2422-0.5293-0.98242c-0.2908-0.53974-1.6133-3.4825-2.9394-6.541-1.929-4.4488-2.4103-5.8888-2.4141-7.1973-0.003-2.074-0.82737-3.7178-2.291-4.5684-1.1072-0.64348-1.6514-0.66602-16.576-0.66602-15.076 0-15.453 0.016906-16.336 0.67578-2.7167 2.0283-2.9601 4.3835-0.87695 8.4844 0.73112 1.4393 1.6737 3.6469 2.0937 4.9062l0.76368 2.291 0.10937 21.666c0.0706 13.757-0.005 21.875-0.20898 22.238-0.28564 0.51039-0.34169 0.48423-0.51758-0.24023-2.8238-11.631-10.974-48.919-10.965-50.17 0.006-0.91998 0.22335-2.0405 0.48046-2.4902 0.64495-1.1282 0.60475-3.5351-0.082-4.8965-0.31455-0.62356-1.0871-1.4329-1.7168-1.7988-1.1046-0.64194-1.7342-0.66794-17.914-0.75781-10.963-0.060863-17.21 0.025762-18.043 0.25-2.7219 0.73294-4.1683 3.781-3.1152 6.5703 0.30095 0.79715 0.61539 1.966 0.69727 2.5957 0.16613 1.2773-11.086 51.577-11.854 52.986-0.382 0.70192-0.44883-2.497-0.45508-21.912-0.008-25.871-0.065-25.211 2.5938-30.693 1.8607-3.8371 2.1046-5.6656 0.99805-7.4805-1.3699-2.2467-1.1113-2.2136-17.979-2.3184-13.518-0.083925-15.38-0.033291-16.945 0.45898-1.7491 0.55016-1.7601 0.55009-2.2754-0.18555-0.60735-0.86712-2.8517-1.9607-4.0469-1.9707zm-20.91 2.6015c3.0739 0.013239 6.3512 0.231 9.6465 0.66211 6.4448 0.84315 8.3402 0.84315 9.4121 0 1.0934-0.86005 2.9759-0.86005 3.8359 0 0.63598 0.63602 0.6543 1.0906 0.6543 16.332v15.678l-0.86328 0.67773c-0.47404 0.37288-1.2998 0.67773-1.8359 0.67773-1.1203 0-1.4076-0.29475-4.9707-5.1094-5.6339-7.6127-11.487-11.308-16.283-10.279-2.2329 0.47886-3.1973 1.3862-3.1973 3.0059 0 2.3446 1.9765 3.6212 11.986 7.7461 7.9629 3.2814 12.438 6.296 15.299 10.305 2.9821 4.179 4.1013 7.8621 4.1113 13.521 0.026 15.226-9.7953 25.436-25.879 26.902-4.1071 0.3744-10.979 0.06436-17.273-0.77734-5.1845-0.69333-7.078-0.65703-8.1094 0.1543-1.481 1.1649-3.7592 0.73071-4.1406-0.78906-0.19235-0.7664-0.24775-0.78329-1.1016-0.33789-0.74145 0.38676-3.5154 0.46945-15.885 0.4707-10.77 0.0015-15.188-0.10544-15.701-0.37891-1.8533-0.9871-1.964-2.4058-0.4082-5.25 1.5627-2.8568 2.6828-6.4368 3.0996-9.9062 0.45799-3.8122 0.47926-42.537 0.0254-46.156-0.40959-3.2665-1.0326-5.6998-2.0508-8.0039l-0.79-1.7777-0.71 1.1467c-0.3916 0.6297-1.0331 2.1001-1.4258 3.2695-0.69793 2.0787-0.71749 2.6356-0.91406 24.861-0.19775 22.361-0.21331 22.774-0.93946 25.188-2.9563 9.8242-9.6522 15.647-20.309 17.662-1.7146 0.32419-4.7378 0.65653-6.7168 0.73828-17.38 0.71764-27.123-5.1272-30.119-18.072-0.4958-2.1422-0.5938-5.2553-0.78515-24.535-0.24789-24.976-0.11513-23.647-2.9844-29.727-0.88126-1.8672-1.6035-3.6616-1.6035-3.9883 0-0.32666 0.35682-1.0069 0.79102-1.5117l0.78906-0.91797h15.43 15.432l0.78906 0.91797c0.4342 0.50479 0.78907 1.1851 0.78907 1.5117 0 0.32666-0.72159 2.1211-1.6035 3.9883-2.9155 6.1726-2.8125 5.1258-2.8125 28.582v20.609l0.74024 1.3848c0.96553 1.8072 1.929 2.3981 4.2383 2.6055 4.0694 0.36548 6.8824-1.4345 7.5938-4.8613 0.27496-1.3259 0.35309-7.4425 0.27734-21.75-0.10372-19.579-0.1168-19.939-0.83398-22.07-0.40103-1.1916-1.4633-3.2895-2.3594-4.6621-0.89607-1.3726-1.7095-2.8262-1.8066-3.2305-0.27671-1.1512 0.91492-2.7908 2.1953-3.0215 0.59329-0.107 13.831-0.15173 29.42-0.099609 26.895 0.090025 28.377 0.12536 29.002 0.69141 1.2489 1.1304 1.1831 2.0387-0.37696 5.248-1.6943 3.4855-2.353 5.449-2.8164 8.3848-0.45153 2.8605-0.4515 45.878 0 48.74 0.4421 2.8021 1.4626 5.9234 2.7246 8.3281l1.0234 1.9492 0.0859-14.357c0.0778-13.107 0.13486-14.413 0.6543-14.99 0.84857-0.94248 1.8788-1.2326 2.9941-0.84375 0.73589 0.25652 1.2995 0.92397 2.2695 2.6914 2.8194 5.1372 7.0133 9.4488 11.455 11.777 6.9482 3.6425 13.121 2.3724 13.125-2.7012 0.002-2.2503-1.4357-3.3262-10.283-7.6973-12.201-6.028-16.06-9.09-19.137-15.191-2.5027-4.9624-2.6362-12.357-0.33399-18.486 2.2478-5.9842 7.6715-10.917 14.65-13.322 3.1369-1.0811 7.6952-1.6275 12.818-1.6055zm-159.39 0.0157c3.0711-0.00507 6.1609 0.15819 8.2324 0.49414 10.277 1.6666 17.286 6.7388 21.619 15.645 3.1511 6.4769 4.377 13.18 4.377 23.926 0 10.926-1.228 17.489-4.5293 24.205-2.9522 6.006-6.5241 9.6763-12.117 12.453-9.1121 4.5238-24.579 4.7732-33.904 0.54492-6.237-2.829-11.458-8.305-13.928-14.606l-0.9082-2.3125-0.17578 9.8105c-0.09669 5.3957-0.20589 9.8444-0.24414 9.8848-0.03825 0.04035-0.50436 0.29778-1.0352 0.57226-1.4529 0.7513-1.7982 0.67017-4.1289-0.97266-0.901-0.635-1.594-0.659-24.004-0.818-12.692-0.09-23.338-0.291-23.658-0.447-1.5884-0.776-1.5712-2.429 0.0586-5.678 1.731-3.451 2.5605-6.318 2.9648-10.258 0.44636-4.3497 0.44636-40.41 0-44.76-0.40235-3.9207-1.2359-6.7905-2.9707-10.242-1.7041-3.3907-1.6882-4.7568 0.0625-5.6621 1.3761-0.71159 29.653-0.71159 31.029 0 1.7958 0.9287 1.7691 2.2398-0.12109 6.1602-1.9553 4.0553-2.4277 6.0474-2.834 11.961-0.49629 7.2243-0.21844 34.805 0.36719 36.457 1.551 4.3748 6.3415 4.1347 10.67-0.5332 2.589-2.792 4.564-5.97 7.815-12.584 3.1-6.307 3.213-6.671 3.896-12.662 1.995-17.477 10.446-27.499 25.346-30.057 1.997-0.3424 5.05-0.5162 8.121-0.5212zm377.08 1.2441c8.2302 0 16.459 0.1786 17.148 0.53516 1.4337 0.74138 1.7808 2.512 0.84375 4.3086-0.26878 0.51531-0.49023 1.7242-0.49023 2.6855-0.002 1.9476 10.895 50.814 12.303 55.17 0.46525 1.4393 1.7883 4.5559 2.9395 6.9258 2.3881 4.9166 2.6044 6.1986 1.2305 7.2793-0.84182 0.66221-1.1923 0.67774-15.029 0.67774h-14.166l-0.90234-0.77539c-1.2588-1.0828-1.1731-2.4882 0.29687-4.8809 1.4702-2.3931 2.0218-4.6437 1.7578-7.1699-0.11208-1.0725-0.28692-2.0834-0.38867-2.248-0.26782-0.43329-14.118-0.3882-14.387 0.04687-0.11767 0.1903-0.22586 1.5515-0.24024 3.0254-0.0287 2.9238 0.55817 4.8904 2.1582 7.2227 1.1281 1.6443 1.1063 2.634-0.0879 3.8281l-0.96289 0.96289-25.727-0.08789-25.727-0.08789-0.625-0.77148c-0.65605-0.81029-0.85441-2.9488-0.32422-3.4961 0.18538-0.19135-2.1708-5.9018-6.1328-14.859l-6.4356-14.547-0.0977 9.1504c-0.0628 5.8971 0.0351 9.8431 0.2754 11.1 0.41764 2.1843 1.7131 4.9374 3.6953 7.8594 1.5508 2.2861 1.7266 3.7088 0.59961 4.8359l-0.72852 0.72852-26.506 0.08789-26.508 0.08789-0.96094-0.96289c-1.2266-1.2267-1.2118-2.1245 0.0664-4.1367 1.5884-2.5005 1.9549-3.9307 1.8476-7.209l-0.0957-2.9141-7.2344-0.08789-7.2344-0.08789-0.20312 1.2324c-0.53232 3.2208 0.12458 6.3975 1.8438 8.9199 1.2226 1.7939 1.3235 3.3091 0.29101 4.3418l-0.72851 0.72852-27.061 0.06445c-16.058 0.03796-27.364-0.06-27.809-0.24023-0.8998-0.36466-1.7019-2.1074-1.4102-3.0625 0.11536-0.37764 0.75782-1.748 1.4277-3.0449 0.66992-1.2969 1.5507-3.5045 1.957-4.9062 0.73806-2.5464 0.73828-2.5723 0.73828-27.41s-0.00023-24.862-0.73828-27.408c-0.4063-1.4018-1.2879-3.6094-1.959-4.9062-1.5386-2.9732-1.6774-3.4567-1.3008-4.5762 0.62267-1.8508 0.80442-1.8711 16.877-1.8711h14.711l1.0078 0.84766c1.3747 1.1568 1.2981 2.089-0.44336 5.502-0.79645 1.5609-1.7891 4.1933-2.207 5.8496l-0.75976 3.0117v23.551c0 23.363 0.005 23.577 0.73632 26.447 1.0922 4.2865 1.179 4.3559 2.3066 1.8496 0.52613-1.1694 1.3407-3.3049 1.8086-4.7441 1.2231-3.7625 12.323-53.231 12.314-54.881-0.004-0.76028-0.30344-2.0367-0.66601-2.8359-0.75203-1.6578-0.62298-2.9038 0.39843-3.8281 0.63423-0.57399 1.575-0.60547 17.619-0.60547h16.949l0.8711 0.81641c0.98748 0.92728 0.98952 1.9833 0.0117 4.5762-0.39148 1.0381-0.48787 1.9024-0.33204 2.9453 0.4813 3.2214 11.335 50.739 12.254 53.648 0.5399 1.7092 1.33 3.8446 1.7559 4.7441l0.77344 1.6348 0.51953-1.7148c1.1585-3.8294 1.2536-6.3403 1.1348-29.852-0.11523-22.787-0.12577-23.09-0.85156-25.514-0.40401-1.3493-1.3978-3.7638-2.209-5.3652-1.5972-3.1534-1.6753-4.169-0.41016-5.3145 0.62783-0.56839 1.5861-0.61164 15.318-0.69727l14.65-0.091797 1.0527 0.88672c0.9686 0.815 1.0409 1.0069 0.88671 2.375-0.18321 1.6256 0.76563 4.0293 7.7637 19.656l3.1504 7.0312-0.125-7.3594c-0.14785-8.7687-0.51122-10.618-3.0762-15.68-2.0254-3.9969-2.1282-4.8603-0.72265-6.043l1.0059-0.84766h12.422c10.262 0 12.583 0.083153 13.348 0.47852 1.7993 0.9304 1.8086 2.7354 0.0293 5.2754-1.7873 2.5514-2.595 4.9037-2.9551 8.6035-0.38383 3.9434-0.42378 57.279-0.043 57.279 0.39306 0 3.0538-5.856 4.0859-8.9941 1.4182-4.312 12.312-53.085 12.312-55.119-0.00019-0.98951-0.2195-2.221-0.48828-2.7363-0.93702-1.7966-0.58992-3.5672 0.84375-4.3086 0.68951-0.35656 8.9202-0.53516 17.15-0.53516zm-308.88 6.3461c0.63624 0.2013 2.7487 3.4981 3.4121 5.3242 0.54536 1.5012 0.60251 3.2867 0.69727 21.752 0.0706 13.771-0.007 20.498-0.25 21.326-0.19488 0.66502-0.73928 1.5114-1.209 1.8809-0.99192 0.78024-4.2062 0.94652-5.1055 0.26367-1.2989-0.98634-1.3641-1.8181-1.4805-18.719-0.11455-16.635 0.1158-22.098 1.0859-25.85 0.69804-2.6992 2.338-6.1404 2.8496-5.9785zm117.4 1.7246 0.6543 1.4727c1.5356 3.4602 1.6718 4.7725 1.8242 17.5 0.0797 6.6567 0.0965 12.72 0.0371 13.473l-0.10743 1.3691-0.81836-1.6855c-0.44978-0.92684-1.504-2.5991-2.3418-3.7168-1.5206-2.0286-1.5212-2.0344-0.85352-2.6289 1.4775-1.3154 1.5577-2.0455 1.582-14.242l0.0234-11.541zm-185.45 9.657c-3.8473-0.01974-5.6896 2.4265-6.8359 9.0781-0.78419 4.5521-0.78792 19.52-0.0059 24.016 0.9315 5.3549 2.1966 7.8205 4.4805 8.7285 1.3602 0.54081 3.9959 0.42205 5.2402-0.23633 3.4028-1.8004 4.7986-8.9913 4.4785-23.061-0.20196-8.8757-0.78174-12.633-2.4102-15.625-1.0655-1.9577-2.6528-2.8891-4.9473-2.9004zm160.61 1.916c1.0231 0.03177 2.2496 0.2904 3.3672 0.81836 1.9746 0.93278 6.0478 4.3303 6.418 5.3535 0.1464 0.4048 0.23443 0.72009 0.19531 0.69922-0.0392-0.02086-0.36674-0.11142-0.72656-0.20117-2.6322-0.65661-10.537-4.2576-11.26-5.1289-0.84418-1.0172 0.30064-1.594 2.0059-1.541zm-160.69 0.694c1.8159 0 2.6533 0.71749 3.4473 2.9531 1.9138 5.3889 2.2552 21.558 0.60938 28.871-0.594 2.6395-0.88951 3.3375-1.8594 4.4023-0.51235 0.56252-1.0295 0.73633-2.1973 0.73633-1.8022 0-2.3653-0.48913-3.2441-2.8242-1.2149-3.2281-1.4941-6.142-1.4941-15.656 0-9.5143 0.27926-12.428 1.4941-15.656 0.8788-2.3351 1.4419-2.8262 3.2441-2.8262zm375.34 7.9355c-0.13015 0.13105-3.0781 14.633-3.0781 15.143 0 0.38119 0.61048 0.47461 3.1074 0.47461 2.257 0 3.1074-0.11122 3.1074-0.40625 0-0.56341-3.0405-15.308-3.1367-15.211zm-127.15 0.56836c-0.1016 0.26986-0.7944 3.5091-1.5391 7.1973-0.74467 3.6882-1.4269 6.9625-1.5156 7.2773-0.14596 0.51808 0.15266 0.57422 3.1465 0.57422h3.3086l-0.20117-1.0645c-1.0831-5.7594-3.053-14.373-3.1992-13.984zm-118.63 4.002c0.24584-0.05948 0.67181 0.69057 1.4102 2.0508 0.4883 0.89956 1.6411 2.5182 2.5625 3.5977l1.6758 1.9629-1.5293 0.21875c-0.84059 0.12072-2.1856 0.60656-2.9902 1.0781l-1.4629 0.85742v-5.1074c0-3.1677 0.0179-4.5817 0.33398-4.6582zm9.2012 10.756 0.875 0.37891c0.48144 0.20859 1.4531 0.73412 2.1602 1.168 0.70702 0.43386 4.387 2.3089 8.1777 4.168 9.0234 4.4253 10.42 5.6034 8.6914 7.332-0.53054 0.53059-1.0708 0.65056-2.8613 0.63281-1.2144-0.01204-2.8168-0.21261-3.5605-0.44531-4.6105-1.4424-11.053-7.4169-12.986-12.045l-0.4961-1.1895z" fill="#040404" transform="matrix(.8 0 0 -.8 225.93 710.19)"/></g></g></svg>
