<svg xmlns="http://www.w3.org/2000/svg" height="23.892" viewBox="0 0 250 23.892071" width="250"><g transform="matrix(1.25 0 0 -1.25 -605.44 295.29)"><g><path d="m547.54 230.62h1.7051c1.8458 0 2.1214-1.5124 2.1214-2.4133 0-1.0253-0.43257-2.2474-2.4922-2.2474h-1.3343v4.6608zm51.644-3.5817 0.77896-1.9637h-1.5579l0.77896 1.9637zm-75.745 0 0.77896-1.9637h-1.5571l0.77814 1.9637zm-31.144 8.2962h-0.26995-5.9072-0.82531l0.54966-0.61634 1.7978-2.0149 5.4364-14.641 0.0894-0.24149h0.25694 1.7262 0.24149l0.0968 0.22116 3.6167 8.2238 3.6159-8.2238 0.0968-0.22116h0.24149 1.7482 0.25694l0.0894 0.24149 6.2057 16.774 0.18376 0.49844h-0.53096-7.3359-0.8253l0.54966-0.61552 1.7026-1.9092-1.4782-4.6038-3.3126 6.9188-0.10083 0.20978h-0.23336-4.5648-0.8253l0.54966-0.61634 1.675-1.8775-2.2466-4.6372-2.1881 6.8732-0.0821 0.25776zm26.491-0.00008 0.54966-0.61634 1.684-1.8872-6.552-14.487-0.23661-0.52283h0.57324 4.6778 0.25125l0.0927 0.23255 0.97817 2.4564h5.2494l0.99931-2.458 0.0943-0.23092h0.248 4.6998 0.57487l-0.23743 0.52283-7.6074 16.773-0.0984 0.2171h-0.23824l-4.877 0.00081h-0.82531zm21.234-0.00008 0.54966-0.61552 1.7514-1.9637v-14.564-0.36996h0.36997 4.4786 0.36996v0.36996 3.2224h1.449l2.2865-3.4273 0.10977-0.16506h0.19758 5.3308 0.73017l-0.43176 0.58869-3.0622 4.1737c1.7612 1.1741 2.6532 3.1833 2.6532 5.9796 0 2.0368-0.66431 6.7716-6.8122 6.7716h-9.145-0.82531zm34.989 0.00016 0.54966-0.61634 1.7514-1.962v-5.2023h-4.6347v7.4107 0.36915h-0.36996l-6.1926 0.00081h-0.82531l0.54966-0.61634 1.7506-1.9612v-14.566-0.36996h0.36996 4.3477 0.36996v0.36996 4.6502h4.6347v-4.6502-0.36996h0.36997 4.3257 0.36996v0.36996 16.774 0.36915h-0.36996l-6.1707 0.00081h-0.82612zm19.522-0.00008 0.54966-0.61634 1.684-1.8872-6.5528-14.487-0.2358-0.52283h0.57324 4.6778 0.25125l0.0927 0.23255 0.97817 2.4564h5.2494l0.99931-2.458 0.0935-0.23092h0.24963 4.699 0.57406l-0.23743 0.52283-7.6066 16.773-0.0992 0.2171h-0.23743l-4.877 0.00081h-0.82531zm22.368 0.00008h-0.26995-5.9064-0.82612l0.54966-0.61634 1.7986-2.0149 5.4356-14.641 0.0894-0.24149h0.25776 1.7254 0.24149l0.0976 0.22116 3.6159 8.2238 3.6159-8.2238 0.0968-0.22116h0.24149 1.7482 0.25776l0.0894 0.24149 6.2048 16.774 0.18457 0.49844h-0.53177-7.3359-0.8253l0.54966-0.61552 1.7026-1.9092-1.4782-4.6038-3.3126 6.9188-0.10083 0.20978h-0.23336-4.5648-0.8253l0.54966-0.61634 1.675-1.8775-2.2466-4.6372-2.1881 6.8732-0.0821 0.25776zm45.005 0h-0.7627l-8.7905-0.003h-0.8253l0.54966-0.61553 1.6368-1.8344-2.5353-3.2809v5.3641 0.36996h-0.36996l-6.191-0.003h-0.82531l0.54967-0.61553 1.7498-1.9612v-14.564-0.36996h0.36915 4.3485 0.36915v0.36996 3.5411l0.49356 0.66106 3.5679-4.4339 0.11139-0.13823h0.17726 5.8552 0.78059l-0.49518 0.60414-6.6716 8.1449 6.4358 8.1652 0.47242 0.59926zm14.684 0c-3.7842 0-6.3268-2.2588-6.3268-5.6218 0-3.746 2.8589-4.7478 6.0438-5.5186 2.1604-0.51795 2.1604-0.89523 2.1604-1.0985 0-0.18295 0-0.67081-1.201-0.67081-1.614 0-2.9093 0.22279-4.1794 0.72204l-0.56917 0.90905-0.3659 0.58463-0.28459-0.62853-1.8401-4.0712-0.21791-0.48218 0.40493-0.0301c2.5987-1.375 4.2314-1.6075 6.8992-1.6075 4.0029 0 6.5894 2.2344 6.5894 5.6918 0 3.6086-2.8865 4.7632-6.0048 5.473-2.0376 0.48299-2.2003 0.7814-2.2003 1.1205 0 0.54397 0.6017 0.62529 0.9611 0.62529 1.0904 0 2.3596-0.33419 3.2768-0.6326l0.56593-1.0473 0.34801-0.64398 0.31223 0.66187 0.56836 1.2058 1.588 3.1825 0.17888 0.35858-0.3724 0.14962c-1.6498 0.66187-3.6362 1.3685-6.3349 1.3685" fill="#fab20b"/><path d="m2.2051 1.582l2.3047 2.584h0.0019l6.8243 18.383h2.158l4.944-11.24 4.943 11.24h2.185l7.756-20.967h-9.17l2.305 2.5821-2.285 7.1129-4.643-9.695h-5.705l2.299 2.5782-3.447 7.1168-3.0881-9.695h-7.3828zm41.867 0l2.305 2.5821-8.313 18.385h5.846l1.34-3.36h7.186l1.367 3.36h5.875l-9.51-20.967h-6.096zm26.543 0l2.307 2.584v18.383h5.598v-4.49h2.521l2.996 4.49h6.662l-4.123-5.621c2.403-1.368 3.524-3.925 3.524-7.344 0-4.1631-2.073-8.002-8.053-8.002h-11.432zm31.585 0l2.31 2.584v18.383h5.43v-6.276h6.72v6.276h5.41v-20.967h-7.72l2.31 2.584v7.143h-6.72v-9.727h-7.74zm36.55 0l2.31 2.5821-8.32 18.385h5.85l1.34-3.36h7.19l1.36 3.36h5.88l-9.51-20.967h-6.1zm19.21 0l2.31 2.584 6.82 18.383h2.16l4.94-11.24 4.95 11.24h2.18l7.76-20.967h-9.17l2.3 2.5821-2.28 7.1129-4.64-9.695h-5.71l2.3 2.5782-3.45 7.1168-3.08-9.695h-7.39zm50.11 0l-7.74 0.002 2.3 2.5801v0.0175 18.367h5.44v-4.58l1.06-1.428 4.84 6.008h7.32l-8.58-10.469 8.28-10.498-10.99 0.002 2.3 2.5801-4.23 5.4765v-8.0586zm32.22 0c-4.63 0-7.44 2.7479-7.44 6.5645 0 4.3095 3.13 5.4655 7.2 6.4495 2.54 0.606 3.05 1.128 3.05 1.822 0 0.868-0.68 1.301-1.96 1.301-1.82 0-3.61-0.209-5.54-0.99l-0.79-1.266-2.3 5.09 0.02 0.002-0.01 0.029c3.05 1.619 4.99 1.967 8.43 1.967 4.66 0 7.77-2.488 7.77-6.653 0-3.875-2.7-5.38-7.14-6.3921-2.57-0.6078-3.11-1.0396-3.11-1.8497 0-0.6942 0.52-1.2441 1.66-1.2441 1.33 0 2.94 0.3792 4.41 0.8711l0.8 1.4707 0.71-1.5078 1.99-3.9863c-2.02-0.8101-4.42-1.6778-7.75-1.6778zm-161.77 4.9688h2.593c2.349 0 3.114 1.7242 3.114 3.4782 0 1.606-0.819 3.272-3.577 3.272h-2.13v-6.7502zm-29.663 3.6852l1.653 4.17h-3.309l1.656-4.17zm94.683 0l1.65 4.17h-3.31l1.66-4.17z" transform="matrix(.8 0 0 -.8 484.35 236.23)" fill="#840029"/></g></g></svg>
