<?xml version="1.0" encoding="UTF-8" standalone="no"?>
<svg xmlns:rdf="http://www.w3.org/1999/02/22-rdf-syntax-ns#" xmlns="http://www.w3.org/2000/svg" xml:space="preserve" height="181.43" viewBox="0 0 138.02296 181.42805" width="138.02" version="1.1" xmlns:cc="http://creativecommons.org/ns#" xmlns:dc="http://purl.org/dc/elements/1.1/"><g transform="matrix(1.25 0 0 -1.25 -779.16 839.41)"><g transform="translate(.79169 .79169)"><path d="m692.83 669.93h-9.6725-50.166-9.6668v-9.5722-25.9-9.5778h8.0032v-53.441h-8.0032v-9.576-25.901-9.5741h9.6668 89.485 9.6668v9.5741 47.927 9.576h-9.6668-32.026-5.6275v31.416h8.007v9.5778 25.9 9.5722z" fill="#582931"/><path d="m723.64 534.53h-91.812v28.205h8.006v70.289h-8.006v28.206h52.492v-28.206h-8.0032v-70.289h12.971v22.027h34.353v-50.232z" fill="#fff"/><path d="m634.16 536.84h87.159v45.623h-29.699v-22.027h-17.624v74.897h8.0032v23.599h-47.839v-23.599h8.006v-74.897h-8.006v-23.596z" fill="#fdb913"/></g></g></svg>
