<?xml version="1.0" encoding="utf-8"?>
<!-- Generator: Adobe Illustrator 22.0.1, SVG Export Plug-In . SVG Version: 6.00 Build 0)  -->
<svg version="1.1" id="Layer_1" xmlns="http://www.w3.org/2000/svg" xmlns:xlink="http://www.w3.org/1999/xlink" x="0px" y="0px"
	 width="250px" height="120.93px" viewBox="0 0 250 120.93" enable-background="new 0 0 250 120.93" xml:space="preserve">
<g>
	<path fill="#FFFFFF" d="M243.35,83.46l6.65-18h-40.37l-0.61,1.65l-1.4-1.65h-41.7l-1.29,3.5l-2.97-3.5h-53
		c0.77-0.42,1.38-0.81,1.85-1.14c0.01-0.01,0.14-0.11,0.14-0.11c0.01-0.01,3.09-2.29,3.09-2.29l1.76-1.3l-1.66-0.45
		c0.79-0.62,1.47-1.22,2.01-1.79c0.1-0.11,0.2-0.21,0.29-0.32l1.59-1.82l0.93-1.06l-1.28-0.6l-0.48-0.22
		c1.61-1.77,2.82-3.72,3.57-5.07l1.12-2.04l0.65-1.19c0,0-0.5-0.13-0.88-0.24c1.14-1.42,1.85-2.73,2.26-3.65l0.84-1.88l0.49-1.1
		c0,0-0.19-0.06-0.42-0.13c0.62-0.96,1.21-2.15,1.74-3.57l2.02-5.35l1.16-3.09l-2.75,1.84l-4.78,3.19
		c-1.04,0.69-1.47,0.82-1.54,0.84c-0.27,0.01-2.7,0.12-2.7,0.12l-0.21,0.01l-0.19,0.09l-0.13,0.06l0.09-1.09l-1.33,0.21l-2.32,0.36
		c-1.21,0.19-2.64,0.59-4.25,1.19c-0.88-0.3-2.6-0.77-4.52-0.75l0.53-0.97l-1.91,0.11l-3.3,0.19c-1.67,0.09-3.97,0.32-6.13,0.84
		l-0.02-0.39l-0.05-1.21l-1.19,0.21l-2.07,0.36c-0.91,0.16-2.18,0.48-3.6,1.12l0.04-0.73l-1.52,0.55l-2.65,0.97
		c-0.38,0.14-3.54,1.31-6.75,3.02c-0.24-0.33-0.52-0.72-0.52-0.72l-0.47-0.66l-0.76,0.28l-1.33,0.49c-0.24,0.09-1.37,0.51-2.68,1.13
		c-2.49-2.14-5.74-4.14-9.69-5.94c0.68-0.65,1.06-1.22,1.09-1.25l0.74-1.08l-1.21-0.5c-1.7-0.7-2.3-1.62-2.51-2.15
		c1.37-1.43,1.72-3.53,1.76-3.79l0.16-1.1l-1.1-0.11c-4.65-0.48-6.01-1.7-6.4-2.38c-0.33-0.57-0.17-1.06-0.12-1.19
		c3.92-6.53,0.38-13.53-0.75-15.44c0.36-0.97,0.34-1.7-0.08-2.17L51.83,0l-0.71,0.34c-3.56,1.68-8.63,7.96-10.06,9.78
		c-0.64-0.01-1.49,0.12-2.69,0.3c-1.76,0.27-4.18,0.63-6.8,0.63c-2.63,0-5.05-0.36-6.81-0.63c-1.2-0.18-2.05-0.31-2.69-0.3
		c-1.43-1.82-6.49-8.1-10.05-9.78L11.31,0l-0.53,0.58c-0.42,0.46-0.44,1.2-0.08,2.17C9.58,4.67,6.03,11.67,9.96,18.2
		c0.04,0.1,0.21,0.6-0.12,1.18c-0.4,0.68-1.75,1.9-6.4,2.38l-1.1,0.11l0.16,1.1c0.04,0.26,0.38,2.36,1.76,3.79
		c-0.21,0.53-0.82,1.45-2.51,2.15l-1.21,0.5l0.73,1.08c0.06,0.09,1.41,2.04,3.63,2.97c-0.05,0.74-0.42,1.94-2.23,2.42l-1.8,0.49
		l1.34,1.3c0.06,0.06,0.33,0.3,0.85,0.62c-1.52,3.02-2.46,6.15-2.79,9.32l-0.16,1.51L0,50.01l0.85,0.25l1.21,0.35
		C2,53.14,1.95,56.05,2.02,57.12c0.07,1.06,0.63,2.45,2.79,7.47c1.5,3.49,4.28,9.95,4.39,11.59c0.05,0.73,0.01,1.12-0.03,1.55
		c-0.05,0.55-0.08,0.99-0.04,1.5c0.1,1.55,0.77,3.44,2.84,8.08c1.09,2.44,1.35,4.67,1.47,6.34c0.05,0.79,0.07,1.57,0.09,2.25
		c0.02,0.64,0.04,1.3,0.08,1.95c0.22,3.42,1.2,7.12,6.61,8.73c1.67,1.11,4.2,1.8,6.59,0.65c0.57,0.15,1.27,0.28,2.01,0.28
		c0.02,0.18,0.04,0.42,0.04,0.72c0,0.65-0.09,1.74-0.52,3.18c0,0-0.02,0.08-0.02,0.08l-0.01,0.04l-0.01,0.04l-0.02,0.08
		c-0.05,0.23-0.2,1.04-0.2,2.08c0,2.2,0.66,3.97,1.91,5.15c0.87,0.82,2.42,1.7,4.9,1.39c0.95,0.45,2.81,1.04,4.96,0.3
		c1.09,0.38,2.87,0.67,4.86-0.39c0.91-0.01,2.12-0.2,3.2-0.96c0.7-0.5,1.6-1.43,1.91-3.03c0.07-0.28,0.25-0.98,0.36-1.92
		c0.06-0.53,0.09-1.06,0.09-1.57c0-0.34-0.01-0.68-0.04-1.01c-0.24-2.98-1.63-5.3-3.92-6.62h7.18l4.02-10.87l3.01,8.28l5.79-5.27
		l-2.77,7.86l111.22-0.04l0.61-1.65l1.4,1.65h19.03l9.98-6.28l-2.32,6.28h23.49l5.79-15.65h-2.26l2.19-5.93H243.35z M102.17,78.32
		l-4.47,5.77l6.12-16.54c1.02-0.35,1.93-0.7,2.73-1.05L102.17,78.32z M129.43,84.64l-0.13-3.53h1.44L129.43,84.64z M211.49,89.38
		h-2.22l1.21-3.28l-2.23-2.62h5.42L211.49,89.38z"/>
	<path d="M210.37,66.52l-0.98,2.66l-2.25-2.66h-16.94h-1.29h-1.05h-1.66h-19.51L165,71.04l-3.83-4.51H135l-5,13.53h2.26
		c-0.89,2.41-2.95,7.97-3.69,9.97c-0.1-2.54-0.29-7.59-0.38-9.97h0.03l5-13.53h-25.55c0,0-4.29,11.62-4.55,12.32
		c-0.34,0.44-7.26,9.36-8.8,11.36c1.18-3.18,6.91-18.7,8.69-23.5c3.46-1.13,5.63-2.35,6.91-3.25l0.13-0.09l3.08-2.29
		c0,0-0.85-0.23-1.7-0.46c0.25-0.17,0.5-0.33,0.73-0.5c1.23-0.87,2.22-1.69,2.94-2.46c0.09-0.1,0.18-0.19,0.26-0.29l1.59-1.82
		c0,0-1.33-0.63-1.83-0.86c0.27-0.25,0.53-0.51,0.78-0.78c1.63-1.72,2.86-3.67,3.66-5.13l1.12-2.03c0,0-0.62-0.17-1.23-0.33
		c0.06-0.06,0.13-0.13,0.19-0.19c1.6-1.7,2.53-3.34,3.04-4.48l0.84-1.88c0,0-0.39-0.12-0.73-0.22c0.91-0.97,1.76-2.48,2.52-4.5
		l2.01-5.35l-4.78,3.19c-1.32,0.88-1.87,1-2.04,1.02c-0.04,0-2.74,0.12-2.74,0.12l-0.33,0.15c-0.53,0.24-1,0.43-1.44,0.59
		c0.06-0.68,0.12-1.48,0.12-1.48l-2.32,0.36c-1.24,0.19-2.72,0.62-4.4,1.27c-0.81-0.3-3.68-1.25-6.44-0.6
		c0.28-0.51,0.59-1.08,0.59-1.08l-3.3,0.19c-2.03,0.11-4.84,0.41-7.19,1.16c-0.02-0.49-0.07-1.73-0.07-1.73l-2.07,0.36
		c-1.24,0.22-3.04,0.72-4.96,1.88c0.03-0.45,0.06-0.98,0.06-0.98l-2.65,0.96c-0.19,0.07-3.96,1.45-7.46,3.43
		c-0.06-0.13-0.13-0.25-0.21-0.36l-0.82-1.14l-1.33,0.49c-0.26,0.09-1.7,0.64-3.21,1.4c-3.3-3.02-7.75-5.33-11.56-6.94
		c1.41-0.88,2.25-2.11,2.25-2.11c-3.22-1.33-3.28-3.5-3.28-3.5c1.53-1.16,1.88-3.57,1.88-3.57c-9.44-0.97-7.36-5.11-7.36-5.11
		c4.27-7.01-0.99-14.86-0.99-14.86c0.59-1.25,0.32-1.55,0.32-1.55c-3.9,1.84-10.04,9.96-10.04,9.96c-0.91-0.39-4.99,0.86-9.96,0.86
		c-4.97,0-9.05-1.25-9.96-0.86c0,0-6.14-8.11-10.04-9.96c0,0-0.27,0.3,0.32,1.55c0,0-5.25,7.85-0.99,14.86c0,0,2.08,4.14-7.36,5.11
		c0,0,0.35,2.41,1.88,3.57c0,0-0.07,2.17-3.28,3.5c0,0,1.47,2.15,3.77,2.8c0,0,0.6,3.25-2.97,4.22c0,0,0.45,0.44,1.55,0.93
		c-1.49,2.7-2.77,6.04-3.17,9.88l-0.16,1.51l1.47,0.43c0.12,0.03,0.3,0.08,0.52,0.13C3.08,52.18,3,55.85,3.08,57.05
		c0.06,0.91,0.75,2.58,2.7,7.12c1.73,4.03,4.35,10.11,4.47,11.94c0.05,0.81,0.01,1.27-0.03,1.72c-0.04,0.47-0.07,0.87-0.04,1.33
		c0.09,1.33,0.66,3.05,2.75,7.72c1.08,2.42,1.42,4.65,1.56,6.71c0.05,0.79,0.07,1.56,0.09,2.29c0.02,0.64,0.04,1.28,0.08,1.91
		c0.22,3.31,1.09,6.43,6.01,7.83c1.3,0.91,3.73,1.81,6.03,0.48c0.77,0.25,1.82,0.48,2.87,0.31c0.07,0.15,0.13,0.3,0.21,0.46
		c0.03,0.13,0.15,0.59,0.15,1.38c0,0.82-0.12,1.99-0.57,3.49l-0.02,0.07l-0.01,0.08c-0.04,0.17-0.18,0.91-0.18,1.86
		c0,1.36,0.29,3.16,1.57,4.37c0.77,0.72,2.12,1.43,4.35,1.07c1.14,0.61,2.89,1.05,4.79,0.26c1.16,0.51,2.83,0.72,4.58-0.32
		c0.77,0.03,1.89-0.08,2.85-0.77c0.56-0.4,1.26-1.14,1.49-2.42c0.06-0.22,0.23-0.88,0.33-1.79c0.05-0.44,0.09-0.93,0.09-1.45
		c0-0.3-0.01-0.6-0.04-0.92c-0.24-2.95-1.69-5.1-4.1-6.15c-0.36-0.58-0.92-1.51-0.95-1.56c-0.01-0.02-0.02-0.04-0.03-0.06h8.67
		c0,0,4.49-12.14,4.77-12.9c1.19,3.26,3.46,9.51,3.46,9.51s5.27-4.79,7.74-7.04C67.85,96.01,65.03,104,65.03,104h1.12h26.41
		l0.01-0.04h28.59h6.2h12.75h12.72h6.21h14.97l0.98-2.66l2.26,2.66h18.24l9.46-5.95l4.32-11.71c0,0-2.02-2.38-3.31-3.9h4.75h4.48
		c-0.93,2.52-2.5,6.78-2.97,8.03h-2.26l-5,13.52h21.22l5-13.52h-2.26c0.89-2.41,1.85-5,2.97-8.05c1.98,0,10.7,0,10.7,0l5.86-15.87
		H210.37z"/>
	<path fill="#FFFFFF" d="M25.02,37.11c-0.15,2.39,0.96,7.19,0.96,7.19c1.45,3.51,1.77,7.52,1.77,7.52c-1.78,0-1.97-1.86-2.68-3.74
		c-0.4-1.84-1.02-8.51-9.73-9.73c0,0,6.45,2.79,6.87,5.85c-0.72-0.58-1.48-1-2.54-1.53c-3.57-1.79-10.89-1.56-10.89-1.56
		c0.66-2.54,2.1-3.58,2.1-3.58c-2.17,0-4.42-1-4.42-1c2.07-1.52,0.98-5.58,0.98-5.58c-1.4,0.38-2.4-0.64-2.4-0.64
		c2.1-1.17,2.31-4.77,2.31-4.77c-0.96-0.35-1.33-1.28-1.33-1.28c6.56-0.91,7.06-5.35,7.06-5.35s0.2-1.21-0.36-1.78
		c-3.48-3.56-0.57-11.04-0.57-11.04c0,0,0,0,0,0v0c-0.43,6.07,1.22,8.42,1.76,9.42c0.04,0.07,0.07,0.13,0.11,0.2
		c0.01,0.01,0.02,0.03,0.03,0.04c0.03,0.05,0.06,0.09,0.09,0.14c0.01,0.01,0.02,0.03,0.03,0.04c0.03,0.04,0.06,0.09,0.09,0.13
		c0.01,0.01,0.02,0.02,0.03,0.04c0.03,0.04,0.06,0.08,0.09,0.12c0.01,0.01,0.01,0.02,0.02,0.03c0.03,0.04,0.06,0.08,0.09,0.12
		c0.01,0.01,0.01,0.01,0.02,0.02c0.03,0.04,0.06,0.08,0.09,0.12c0,0,0,0,0,0.01c0.25,0.31,0.48,0.54,0.65,0.76
		c0,0.01,0.01,0.01,0.01,0.01c0.02,0.03,0.04,0.05,0.06,0.08c0,0.01,0.01,0.01,0.01,0.02c0.01,0.02,0.03,0.04,0.04,0.07v0v0
		c0.3,0.53,0.2,1.14-0.8,2.81c-2.23,3.72-2.09,5.26-2.09,5.26c0.47,3.4,6.02,5.79,6.02,5.79c-1.81,0-3.67,1.32-3.67,1.32
		C18.88,38.41,25.02,37.11,25.02,37.11 M35.55,50.45c-0.12,0.84-0.17,1.37-0.17,1.37c1.78,0,1.97-1.86,2.68-3.74
		c0.4-1.84,1.02-8.52,9.74-9.73c0,0-6.45,2.79-6.87,5.85c0.72-0.58,1.48-1,2.54-1.53c3.57-1.79,10.89-1.56,10.89-1.56
		c-0.66-2.54-2.1-3.58-2.1-3.58c2.17,0,4.42-1,4.42-1c-2.07-1.52-0.98-5.58-0.98-5.58c1.4,0.38,2.4-0.64,2.4-0.64
		c-2.1-1.17-2.31-4.77-2.31-4.77c0.96-0.35,1.33-1.28,1.33-1.28c-6.56-0.91-7.06-5.35-7.06-5.35s-0.2-1.21,0.36-1.78
		c3.48-3.56,0.57-11.04,0.57-11.04v0v0c0.39,5.5-0.92,7.95-1.58,9.1c-0.07,0.12-0.13,0.23-0.18,0.32c-0.04,0.07-0.07,0.13-0.11,0.19
		c-0.02,0.03-0.03,0.05-0.05,0.07c-0.02,0.04-0.04,0.07-0.06,0.11c-0.02,0.03-0.03,0.05-0.05,0.08c-0.02,0.03-0.04,0.06-0.06,0.09
		c-0.02,0.03-0.03,0.05-0.05,0.07c-0.02,0.03-0.04,0.06-0.06,0.09c-0.01,0.02-0.03,0.04-0.05,0.06c-0.02,0.03-0.04,0.06-0.06,0.08
		c-0.01,0.02-0.03,0.03-0.04,0.05c-0.02,0.03-0.05,0.05-0.07,0.08c-0.01,0.01-0.02,0.03-0.03,0.04c-0.03,0.03-0.05,0.06-0.08,0.09
		c-0.01,0.01-0.01,0.01-0.02,0.02c-0.18,0.2-0.34,0.38-0.46,0.54c0,0,0,0,0,0c-0.02,0.03-0.05,0.06-0.07,0.09c0,0,0,0,0,0
		c-0.02,0.03-0.04,0.06-0.06,0.09v0c-0.02,0.03-0.04,0.06-0.05,0.09l0,0c-0.3,0.53-0.2,1.14,0.8,2.81c2.24,3.72,2.09,5.26,2.09,5.26
		c-0.47,3.4-6.02,5.79-6.02,5.79c1.81,0,3.67,1.32,3.67,1.32c-4.09,5.79-10.23,4.49-10.23,4.49c0.15,2.39-0.96,7.19-0.96,7.19
		c-0.91,2.18-1.37,4.56-1.59,6.04L35.55,50.45z M51.22,46.68c-0.29-1.21-0.87-2.49-1.59-3.75c-0.23,0.02-0.46,0.05-0.69,0.08
		c-2.36,0.3-4.77,0.94-6.44,2.23c-0.84,0.64-1.48,1.35-1.98,2.03c-0.01,0.06-0.01,0.09-0.01,0.09s-0.05,0.04-0.14,0.12
		c-1.29,1.89-1.49,3.6-1.49,3.6s-0.01,0.08-0.05,0.21c-0.24,1.01-1.61,5.35-7.27,5.35c-6.4,0-7.31-5.56-7.31-5.56s-0.2-1.72-1.5-3.6
		c-0.09-0.07-0.14-0.12-0.14-0.12s0-0.03-0.01-0.09c-0.5-0.69-1.14-1.39-1.98-2.03c-2.25-1.73-5.83-2.3-8.83-2.44
		c-0.53,1.61-0.89,3.34-0.89,5.07l2-1.25c0,0-2.34,8.76-0.28,13.8l1.52-1.81c0,0,2.83,7.31,8.15,11.13c0,0,4.9-0.48,6.89-0.88
		c0,0-0.96,1.76-2.98,2.95c0,0,5.13,0.95,13.31-7.16c0,0,0.12,2.22-0.65,2.99c0,0,8.11-3.94,10.23-12.9c0,0,0.86,1.91,0.86,3.05
		C49.96,57.81,52.48,51.99,51.22,46.68 M112,54.93L112,54.93L112,54.93L112,54.93c0.03-0.03,1.12-1.25,1.84-2.77
		c0.36-0.76,0.63-1.59,0.63-2.4c0,0-2.04,0.76-2.97,0.6c0,0,0.01-0.01,0.02-0.02c0.22-0.24,2.01-2.24,2.01-4.23
		c0,0-3.52,1.64-5.23,1.94c0,0,0.01-0.02,0.03-0.05c0.35-0.49,3.2-4.47,4.52-5.39h-0.01c-0.15,0.01-2.13,0.2-3.82-0.17
		c-0.4-0.09-0.79-0.21-1.13-0.38c0,0,1.23-1.17,2.5-1.75c0.08-0.04,0.17-0.08,0.25-0.11c0,0-0.05-0.02-0.15-0.05
		c-0.05-0.01-0.11-0.03-0.18-0.05c-0.6-0.16-2.05-0.4-4.65-0.07h0h0c0,0,2.28-1.6,2.44-2.54c0,0-0.01,0-0.01-0.01
		c-2.74-2.2-7.84-1.23-8.35-0.77c-0.51,0.46-0.37,0.37-0.37,0.37l-4.98,4.44c4.19,0.16,9.06-0.4,9.06-0.4
		c-0.63,0.44-2.3,2.19-2.3,2.19c1.72,0.29,4.16,1.46,4.16,1.46c-4.25,1.32-7.29,3.27-7.29,3.27c1.3,0.76,8.56,0.31,8.56,0.31
		c-1.93,0.34-5.61,3.62-5.61,3.62c0.11,0.02,0.26,0.04,0.42,0.06h10.37l-0.67,1.73l-1.77,4.55l-0.76,1.95l0.81-0.51
		c0.64-0.4,1.2-0.77,1.69-1.12c1.5-1.06,2.37-1.88,2.88-2.46c-0.26-0.12-0.45-0.24-0.54-0.3L112,54.93z"/>
	<path fill="#1C1C1C" d="M34.07,51.17c0,0,0.63,2.5-0.95,4.07c0,0-1.83,0.52-2.99,0.04c0.01,0,0.75,0,1.59-0.38
		c0.64-0.29,1.33-0.8,1.8-1.69c-0.46,0.09-1.17,0.12-1.25-0.33c-0.11-0.6,1.41-0.5,1.58-0.49C33.96,52.02,34.03,51.62,34.07,51.17
		 M24.46,34.21c-0.17,0.92-0.97,1.61-1.95,1.61c-1.09,0-1.98-0.88-1.98-1.96c0-0.72,0.39-1.34,0.97-1.68
		c-2-0.32-4.36,0.25-5.41,0.67c3.45,4.41,8.71,3.46,8.71,3.46c0.03-0.65-0.03-1.21-0.17-1.69C24.59,34.47,24.53,34.33,24.46,34.21
		 M41.9,32.13c-0.06,0.01-0.12,0.01-0.17,0.02c-0.03,0-0.06,0.01-0.09,0.01c0.58,0.34,0.96,0.97,0.96,1.68
		c0,1.08-0.89,1.96-1.98,1.96c-0.99,0-1.81-0.72-1.96-1.66c-0.25,0.56-0.38,1.27-0.33,2.13c0,0,5.25,0.96,8.7-3.46
		C46.04,32.44,43.84,31.9,41.9,32.13"/>
	<path fill="#ABABAB" d="M29.9,52.38c0.31-0.02,1.64-0.07,1.53,0.5c-0.11,0.59-1.26,0.37-1.56,0.24c0,0-0.01-0.01-0.01-0.01
		c-0.01,0.34,0,0.74,0.02,1.22c0,0-0.09-0.17-0.21-0.45c-0.01-0.02-0.02-0.04-0.03-0.06c-0.03-0.08-0.07-0.17-0.11-0.26
		c-0.14-0.35-0.29-0.79-0.41-1.3c0,0,0,0,0,0c-0.01-0.07-0.03-0.14-0.04-0.21c-0.01-0.07-0.03-0.14-0.04-0.22v0
		c-0.07-0.39-0.1-0.81-0.09-1.23c0-0.08,0.01-0.16,0.01-0.24c0-0.02,0-0.04,0.01-0.05c0.01-0.13,0.03-0.26,0.05-0.39
		c0,0,0.04,0.05,0.13,0.12c0.3,0.23,1.14,0.71,2.93,0.71c0.04,0,0.08,0,0.12,0c0.01,0,0.01,0,0.02,0c0.53,0,1.13-0.05,1.82-0.15
		c0,0-2.12,1.22-3.98,0.9C30.06,51.51,29.96,51.73,29.9,52.38 M13.51,38.53c0,0,0.54-1,1.37-1.66c-1.12,0.3-3.42,1.15-3.73,3
		c0,0,3.33-0.11,6.42,1.2C17.57,41.08,14.98,38.91,13.51,38.53 M53.27,25.28c0,0.67,0.32,3.02,0.32,3.02
		c-0.52,0-1.16-0.44-1.16-0.44c-0.68,2.23-0.36,7-0.36,7c-0.84,0.84-4.91,1.48-4.91,1.48c1.43,0.24,2.46,2.18,2.46,2.18
		c-1.47,0.38-4.05,2.54-4.05,2.54c3.09-1.31,6.42-1.2,6.42-1.2c-0.26-1.52-2.17-2.98-2.17-2.98c2.85-0.28,4.23-1.29,4.23-1.29
		c-0.93-1.51-0.18-6.3-0.18-6.3c0.36,0.36,1.67,0.01,1.67,0.01c-1.13-0.67-1.49-4.06-1.49-4.06c0.2-0.2,0.26-0.34,0.26-0.34
		c-0.8,0-2.57-1.15-2.57-1.15C51.75,24.13,53.27,25.28,53.27,25.28 M13.58,16.37c0.79,0.42,1.35,0.78,1.76,1.07l0,0
		c-0.01-0.02-0.03-0.05-0.04-0.07c-0.01-0.01-0.01-0.01-0.01-0.02c-0.02-0.03-0.04-0.05-0.06-0.08c0,0,0-0.01-0.01-0.01
		c-0.17-0.22-0.39-0.45-0.64-0.76c0,0,0,0-0.01,0c-0.03-0.04-0.06-0.08-0.09-0.12c-0.01-0.01-0.01-0.01-0.02-0.02
		c-0.03-0.04-0.06-0.07-0.09-0.11c-0.01-0.01-0.01-0.02-0.02-0.03c-0.03-0.04-0.06-0.08-0.09-0.12c-0.01-0.01-0.02-0.02-0.03-0.03
		c-0.03-0.04-0.06-0.09-0.09-0.13c-0.01-0.01-0.02-0.03-0.03-0.04c-0.03-0.05-0.06-0.09-0.09-0.14c-0.01-0.01-0.02-0.03-0.03-0.04
		c-0.04-0.06-0.07-0.13-0.11-0.2c-0.54-1-2.19-3.35-1.76-9.42h0C12.14,6.11,10.05,14.47,13.58,16.37 M49.55,16.37
		c3.53-1.9,1.45-10.23,1.44-10.28v0c0.39,5.5-0.92,7.95-1.58,9.1c-0.07,0.12-0.13,0.23-0.18,0.32c-0.04,0.07-0.07,0.13-0.11,0.19
		c-0.02,0.03-0.03,0.05-0.05,0.07c-0.02,0.04-0.05,0.07-0.07,0.11c-0.02,0.03-0.03,0.05-0.05,0.08c-0.02,0.03-0.04,0.06-0.06,0.09
		c-0.02,0.03-0.03,0.05-0.05,0.07c-0.02,0.03-0.04,0.06-0.06,0.09c-0.01,0.02-0.03,0.04-0.05,0.06c-0.02,0.03-0.04,0.06-0.06,0.08
		c-0.01,0.02-0.03,0.03-0.04,0.05c-0.02,0.03-0.04,0.06-0.07,0.09c-0.01,0.01-0.02,0.03-0.03,0.04c-0.03,0.03-0.05,0.06-0.07,0.09
		c-0.01,0.01-0.01,0.01-0.02,0.02c-0.18,0.2-0.34,0.38-0.46,0.54c0,0,0,0,0,0c-0.02,0.03-0.05,0.06-0.07,0.09c0,0,0,0,0,0
		c-0.02,0.03-0.04,0.06-0.06,0.09v0c-0.02,0.03-0.04,0.06-0.05,0.09C48.2,17.15,48.76,16.8,49.55,16.37 M13.03,58.53
		c0,0,1.06-1.34,1.42-1.69c0,0,2.13,5.82,4.7,8.55c0,0-4.13-7.95-4.13-11.81l-1.46,2.48c0,0-0.56-2.67,0.08-8.48
		C13.64,47.57,12.1,54.08,13.03,58.53 M41.28,58.63c0,0-0.23,0.84-3.07,3.65c0,0-4.11,3.83-5.44,4.29c0,0,1.03-1.68,1.03-2.39
		c0,0-5.5,2.87-11.17,4.47c0,0,7.27-0.95,8.37-1.23c0,0-1.32,2.46-1.8,2.95c0,0,5.17-1.39,11.2-7.96c0,0,0.2,2.53,0.1,3.05
		c0,0,6.76-4.08,8.4-13.72c0,0,1.04,1.9,1.12,2.49c0,0,1.72-4.8-1.06-11.21c-2.36,0.3-4.77,0.94-6.44,2.23
		c-0.84,0.64-1.48,1.35-1.98,2.03c-0.01,0.06-0.01,0.09-0.01,0.09s-0.05,0.04-0.14,0.12c-1.29,1.89-1.49,3.6-1.49,3.6
		s-0.01,0.08-0.05,0.21c0,0.01,0.01,0.01,0.01,0.02C43.37,54.29,41.28,58.63,41.28,58.63 M110.66,55.7c1.7-2.17,1.85-4.01,1.85-4.01
		c-0.23,0.57-0.79,1.33-1.41,2.05l-1.77,4.55c1.75-0.96,3-2.06,3-2.06C111.84,56.25,110.66,55.7,110.66,55.7 M23.64,33.19
		c0.04,0.13,0.07,0.28,0.07,0.42c0,0.77-0.63,1.39-1.41,1.39c-0.64,0-1.18-0.43-1.35-1.01c0.09,0.78,0.75,1.38,1.55,1.38
		c0.86,0,1.56-0.69,1.56-1.55c0-0.09-0.01-0.17-0.02-0.25C23.91,33.44,23.78,33.31,23.64,33.19 M17.66,33.22
		c0,0,0.18-0.22,2.55-0.73c0,0-1.84-0.03-3.44,0.55c0,0,1.44,1.84,3.33,2.3C20.1,35.34,17.81,33.95,17.66,33.22 M45.47,33.22
		c-0.14,0.73-2.44,2.12-2.44,2.12c1.89-0.46,3.33-2.3,3.33-2.3c-1.6-0.58-3.44-0.55-3.44-0.55C45.29,33,45.47,33.22,45.47,33.22
		 M41.81,33.61c0,0.77-0.63,1.39-1.41,1.39c-0.64,0-1.18-0.43-1.35-1.01c0.09,0.78,0.75,1.38,1.55,1.38c0.86,0,1.56-0.69,1.56-1.55
		c0-0.74-0.52-1.35-1.22-1.51c-0.01,0-0.01,0-0.01,0C41.45,32.54,41.81,33.03,41.81,33.61"/>
	<path fill="#FFFFFF" d="M21.58,32.84c0-0.25,0.17-0.46,0.39-0.54c0.21,0.07,0.45,0.16,0.7,0.28c0.04,0.08,0.07,0.17,0.07,0.26
		c0,0.32-0.26,0.57-0.58,0.57C21.84,33.41,21.58,33.15,21.58,32.84 M40.19,32.62c-0.07,0.1-0.11,0.21-0.11,0.34
		c0,0.32,0.26,0.57,0.58,0.57c0.32,0,0.57-0.26,0.57-0.57c0-0.29-0.22-0.53-0.5-0.57C40.53,32.46,40.35,32.54,40.19,32.62"/>
	<path fill="#737373" d="M112.73,37.66l-3.32,0.11l4-1.53l0.05,2.23l4.63-2.07c0,0,2.42,0.59,4.33-0.66c0,0-1.39,1.45-4.42,1.59
		l-5.71,3.23L112.73,37.66z M20,95.67c0,0-1.11,2.9-0.46,5.41c0.24,0.91,0.77,1.78,1.53,2.41c0.8,0.66,1.85,1.06,3.06,0.94
		C24.13,104.44,20.21,102.27,20,95.67 M24.01,95.2c-1.17,2.78,0.75,7.99,2.92,9.03c0.01,0,0.01,0,0.01,0.01
		c0.14,0.06,0.28,0.11,0.42,0.14c2.34,0.49,2.6-1.8,2.6-1.8C26.11,104.07,24.01,95.2,24.01,95.2 M31.04,97.1
		c-0.94,1.89-3.25-3.81-3.25-3.81c-0.46,1.67-0.08,3.21,0.46,4.38c0.63,1.35,1.47,2.21,1.47,2.21h0
		C31.17,100.21,31.04,97.1,31.04,97.1 M17.42,94.57c0.05-0.89,0.11-2.8-0.11-4.31c-0.27-5.99,3.88-5.37,3.88-5.37
		c-2.06-0.71-3.27,0.07-3.97,1.25c-0.06-0.11-0.12-0.24-0.17-0.4c-0.11-0.34-0.19-0.82-0.15-1.47c0,0-0.56,0.8-0.39,2.41
		c0.03,0.24,0.07,0.51,0.13,0.79v0c-0.45,1.5-0.42,3.03-0.42,3.03c0.3,1.53,0.21,2.81,0.15,3.66c-0.03,0.32-0.05,0.57-0.05,0.76
		c0,0-0.03,1.45,0.17,2.62c0,0,0,0,0,0c0.09,0.48,0.21,0.92,0.39,1.17c0,0,0.38-3.03,3.79-7.88C20.67,90.82,18.75,92.05,17.42,94.57
		 M35.16,116.23c0,0-3.96-0.77-1.17-7.27c-1.29,0.3-5.09,6.76-1,8.37c0.05,0.01,0.1,0.02,0.15,0.03
		C33.52,117.43,34.62,117.5,35.16,116.23 M39.4,112.2c-0.13-1.26-1.3-3-2.1-3.64c0,0,0,0,0,0c0.01,0.01,0.25,0.28,0.42,1.16
		c0.3,1.5,0.11,3.57-0.22,5.44c0,0,0,0.01,0,0.01c-0.24,1.37-0.52,2.47-0.59,2.77C36.89,117.94,40.07,118.51,39.4,112.2z
		 M41.19,117.96c0.42,0.08,2.52,0.2,2.25-5.12c-0.1-1.86-1.17-3.24-2.22-4.08c0,0,0.08,0.08,0.2,0.31l0,0c0,0,0,0.01,0,0.01
		c0.03,0.05,0.05,0.1,0.08,0.15c0,0.01,0,0.01,0.01,0.01c0.05,0.11,0.1,0.23,0.14,0.35c0.3,0.86,0.37,1.95,0.33,3.07
		c0,0.75-0.11,1.6-0.27,2.53c-0.22,1.38-0.51,2.48-0.58,2.75c0.01,0,0.02,0.01,0.03,0.01C41.16,117.95,41.18,117.95,41.19,117.96
		 M46.66,112.54c-0.33-2.31-1.06-2.84-1.59-3.47c0.73,0.98,0.83,2.57,0.79,3.82c-0.01,0.08-0.01,0.16-0.01,0.24
		c-0.02,0.4-0.05,0.8-0.09,1.2c-0.05,0.45-0.11,0.89-0.18,1.34c-0.09,0.52-0.18,1.07-0.3,1.55c0,0,0,0.01,0,0.01
		C45.28,117.23,47.22,116.45,46.66,112.54z M31.76,108.65c0,0.08-0.01,0.15-0.01,0.24c0.38-0.63,1.24-2.27,1.77-4.88h-0.87
		c-0.12,1.44-0.37,3.09-0.89,4.62C31.76,108.63,31.76,108.64,31.76,108.65"/>
	<path fill="#FFFFFF" d="M33.31,94.32c-0.2-0.61-0.48-1.26-0.84-1.94h2.48c0.7-1.9,7.39-20.11,9.87-26.84
		c1.15-1.09,2.26-2.38,3.27-3.93h0.24c-1.02,2.77-11,29.94-12.03,32.71H33.31z M196.78,80.5h-5.71l0.63-1.7l1.1-0.69h4.86
		L196.78,80.5z M192.63,91.71l-1.08,0.67h-4.87l0.83-2.24h5.7L192.63,91.71z M174.79,90.16l2.35-6.37l5.41,6.37H174.79z
		 M162.15,90.44c-0.33,0.9-0.59,1.59-0.72,1.94h-0.18h-2.07h-0.19c0.81-2.18,2.15-5.83,2.15-5.83s-1.03-1.21-1.2-1.41
		c0.84-0.53,2.25-1.41,2.25-1.41l2.08-5.62h0.19h0.67h1.22h0.38C165.81,80.56,163.42,87.03,162.15,90.44 M151.33,79.21
		c-0.23,0.15-0.79,0.5-1.1,0.69h-3.32c0.17-0.46,0.36-0.98,0.66-1.8h4.18C151.62,78.45,151.5,78.75,151.33,79.21 M211.72,68.46
		l-1.66,4.51l-3.83-4.51h-16.78l-5.73,3.61l1.33-3.61h-17.04l-1.58,4.27l-0.77,2.09l-0.13-0.15l-5.27-6.2h-23.92l-3.56,9.65h2.26
		c-1.18,3.18-4.68,12.67-5.28,14.28h-0.19h-2.86c-0.02-0.47-0.46-11.96-0.54-14.28h0.69l3.57-9.65h-21.42l-3.56,9.65h0.68
		c-0.05,0.07-6.45,8.32-9.53,12.3c-0.76,0.99-1.32,1.71-1.53,1.98h-0.32h-2.07h-1.29c1.57-4.24,9.88-26.72,10.67-28.87h3.36
		l3.52-9.52h-18.5c0,0-16.81,15.28-20.31,18.46c-1.47-4.06-6.66-18.46-6.66-18.46H53.03c-0.13,0.67-0.29,1.32-0.47,1.94h9.55
		c0,0,6.09,16.87,7.18,19.9c3.34-3.03,21.89-19.9,21.89-19.9h14.96l-2.09,5.64h-3.36c-1.02,2.77-11.08,29.98-12.11,32.75h3.36
		l-2.13,5.76H70.57l2.03-5.77h3.36c0.8-2.17,5.11-13.56,7.17-19.15c-5.8,5.27-20.48,18.62-20.48,18.62s-4.86-13.38-6.78-18.64
		c-2.06,5.58-6.29,17.01-7.09,19.17h3.36l-2.13,5.76H33.3c-0.19,0.46-0.41,0.85-0.61,1.15c0.01,0.13,0.03,0.27,0.04,0.4
		c0.01,0.13,0.01,0.26,0.02,0.39h18.62l3.57-9.64h-3.36c1.28-3.45,4.28-11.57,4.29-11.6c1.95,5.35,5.96,16.38,5.96,16.38
		S72.52,87.44,78.51,82c-1.09,2.9-3.31,8.83-3.89,10.37h-3.39l-3.4,9.65h37.88c0,0,2.85-7.7,3.09-8.37h3.67
		c-0.01,0.02-3.09,8.37-3.09,8.37h31.61l3.56-9.64h-2.26c0.5-1.35,0.73-1.97,1.05-2.83h4.17c-0.75,2.03-4.61,12.48-4.61,12.48h29.76
		l1.66-4.51l3.83,4.51h16.78l8.43-5.3l3.7-10.02l-5.12-6.03l-0.17-0.2h16.21c0,0-3.71,10.06-4.39,11.91h-2.26l-3.57,9.64h17.09
		l3.57-9.64h-2.26c0.99-2.68,3.14-8.5,4.41-11.93h0.07h10.63l4.43-11.99H211.72z"/>
	<path fill="#C8102E" d="M14.79,26.73c-1.31-1.49-0.52-1.85,1.48-6.15c3.64-7.84,6.17-7.69,6.17-7.69c3.07,0.5,7.22,0.68,9.12,0.83
		c1.9-0.15,6.05-0.33,9.12-0.83c0,0,2.53-0.15,6.17,7.69c1.99,4.3,2.78,4.65,1.47,6.15c-1.33,1.52-3.82,3.09-7.68,4.28
		c-4.47,1.37-4.27,5.25-4.27,7.2c0,0-0.48,4.87-1.42,7.6c-0.93,2.74-1.32,3.46-3.41,3.41c-2.09,0.05-2.47-0.68-3.41-3.41
		c-0.93-2.73-1.42-7.6-1.42-7.6c0-1.95,0.19-5.83-4.27-7.2C18.62,29.82,16.12,28.25,14.79,26.73 M15.04,12.48
		c-0.13,1.62,0.78,2.66,2.11,2.93c0,0,1.38-2.45,2.9-3.27c0,0-5.32-6.72-7.25-7.88C12.8,4.27,15.4,7.77,15.04,12.48 M45.99,15.41
		c1.33-0.27,2.23-1.31,2.11-2.93c-0.36-4.72,2.24-8.21,2.24-8.21c-1.93,1.16-7.25,7.88-7.25,7.88
		C44.61,12.96,45.99,15.41,45.99,15.41 M95.59,48.08l1.74-1.12c0.09-0.06,1.77-1.13,4.36-2.23c-0.26-0.07-0.52-0.14-0.75-0.18
		l-2.38-0.4c0,0,1.06-1.1,1.42-1.47c-1.67,0.1-3.71,0.17-5.63,0.1l-4.06-0.15l3.42-2.19c0.66-0.42,3.81-2.81,5.42-5.04
		c-1.92,0.16-4.25,0.5-6.12,1.19l-1.31,0.49l-0.38-1.33c-0.05-0.18-0.09-0.41-0.1-0.66c-1.31,0.23-3.2,0.8-5.17,2.19l-2.19,1.54
		c0,0,0.07-1.19,0.12-1.95c0,0-5.71,2.08-9.46,4.72c0,0,0.07-1.71-0.36-2.31c0,0-1.17,0.43-2.48,1.06c0.13,0.14,0.26,0.28,0.38,0.43
		l0.46,0.53c0.23-0.1,0.47-0.19,0.73-0.28c0,0,0.01,0.51,0.01,1.15l0.98,1.16l0.39,0.46h-1.04c-0.29,0.21-0.44,0.33-0.44,0.33
		c0.01-0.1,0.03-0.21,0.04-0.33h-0.95c0.22,0.56,0.45,1.19,0.66,1.91c0.01,0.04,0.02,0.08,0.03,0.11c0.76,2.64,1.14,5.66,1.14,9.02
		c0,1.98-0.13,4.08-0.4,6.28L73.34,64c0.36,0.33,0.92,0.83,1.62,1.39c0.37-0.34,0.76-0.69,1.15-1.04c-0.84-1.01-1.38-2.08-1.71-2.97
		c0.97,0.91,1.91,1.58,2.7,2.07c0.43-0.4,0.87-0.8,1.32-1.2c-0.57-1.69-0.8-3.13-0.8-3.13s0.63,1.18,1.58,2.41
		c5.09-4.63,10.48-9.52,10.48-9.52H99l1.12-1c0.23-0.2,0.79-0.69,1.52-1.26c-1.85-0.03-3.53-0.2-4.27-0.63L95.59,48.08z
		 M27.68,84.56c-1.77-2.44-1.59-4.95-2.01-6.04c-0.42-1.1-2.47-3.74-3.05-4.24c-1.15-1.67-4.78-2.46-4.78-2.46
		c1.7-0.44,3.04-0.33,4.05-0.02c-0.01-0.04-0.03-0.09-0.04-0.13c-1.42-0.96-5.17-3.49-8.16-9.65c-0.48,0.57-1.63,1.94-1.63,1.94
		l-1.16-2.84c-0.73-1.78-0.97-3.92-0.97-6.01c0-1.65,0.15-3.28,0.35-4.68c-0.61,0.38-1.24,0.77-1.24,0.77v-3.31
		c0-1.76,0.32-3.49,0.81-5.11c-0.97,0.01-1.8,0.05-2.4,0.09c-0.64,0.05-1.02,0.09-1.02,0.09c0-1.67,1.27-4.12,1.27-4.12
		c-0.19-0.04-0.37-0.07-0.54-0.11c-0.34-0.08-0.65-0.16-0.94-0.24c-1.44,2.56-2.71,5.76-3.1,9.43c0,0,1.42,0.42,1.9-0.13
		c0,0-0.23,7.46-0.12,9.14c0.1,1.49,5.5,12.54,6.86,17.51c1.26-1.31,2.67-1.46,2.67-1.46c-2.7,1.94-2.42,6.17-2.42,6.17
		c0.1,1.04,0.63,2.62,2.58,6.99c0.46,1.02,0.79,2.01,1.04,2.97c0-0.01-0.01-0.03-0.01-0.05c-0.05-0.17-0.04-0.98,0.23-1.92
		c-0.11-1.08-0.09-3.32,1.83-4.49c0,0-0.44,0.87-0.06,1.84c0.55-0.38,1.26-0.65,2.15-0.7c0.67-0.05,2.19,0.15,4.25,1.73
		c-0.14-0.46-0.46-1.33-0.96-1.92c0,0,2.34,0.65,3.33,4.17c0.17,0.19,0.34,0.39,0.52,0.6c1.05,0.16,1.77,0.5,2.25,0.82
		C29.07,87.87,28.72,85.99,27.68,84.56 M30.87,84.53c-0.83-1.32-1.13-2.6-1.13-3.74c0-1.53,0.55-2.8,1.1-3.58
		c0.75-1.51,1.4-3.32,1.98-5.22c-3.26,1.49-6.28,1.64-8.44,1.44c0.98,1.1,2.59,3.27,3.03,4.43c0.19,0.5,0.28,1.04,0.38,1.67
		c0.19,1.15,0.41,2.59,1.4,3.95c1.32,1.82,1.74,4.1,1.86,5.65c0.15-0.96,0.27-1.94,0.27-2.5C31.31,85.79,31.19,85.04,30.87,84.53
		 M36.33,71.16c0,0,0.94-1.51,0.94-2.03c-0.73,0.62-1.45,1.15-2.17,1.62c-0.43,1.59-0.92,3.18-1.46,4.64
		c2.77-1.08,6.55-5.68,6.55-5.68c-3.42,6.24-7.6,8.17-7.6,8.17c-0.04,0.09-0.09,0.18-0.13,0.26c0,0-1.9,2.38,0,5.41
		c0.94,1.49,0.67,4.57,0.28,6.85h0.86c0.69-1.88,5.97-16.25,8.25-22.46C39.93,69.26,38.03,70.23,36.33,71.16 M69.17,41.94h1.48
		c-3.31-3.88-8.97-6.76-13.46-8.58c0.03,1,0.46,2.86,3.01,3.55c0,0-0.99,0.96-3.63,1.66c-0.36,0.09-0.74,0.19-1.16,0.26
		c0,0,1.27,2.44,1.27,4.12c0,0-1.27-0.15-3.1-0.18c-0.58-0.01-1.22-0.01-1.9,0.02c0.6,1.16,1.08,2.33,1.34,3.47
		c0.45,1.98,0.5,3.93,0.31,5.75h1.49c0.45-2.17,0.58-4.2,0.5-6.06c1.74,2.25,1.41,5.74,1.38,6.04c0,0.01,0,0.02,0,0.02h8.16
		c0,0,2.54,7.03,4.45,12.33c0.9-2.46,1.57-4.43,1.57-4.43l0.97,0.96C73.51,46.97,69.17,41.94,69.17,41.94 M33.3,100.09
		c0.15-0.35,0.28-0.75,0.37-1.19h15.52c0.29-0.79,0.75-2.02,1.25-3.38h-1.28c-0.32,0.87-0.6,1.63-0.81,2.18H33.83
		c0.01-0.29,0.01-0.59-0.01-0.91c-0.05-0.75-0.2-1.57-0.5-2.46h3c1.02-2.77,11-29.94,12.02-32.71H48.1c0.42-0.63,0.81-1.3,1.19-2.02
		c0.5,1.18,0.34,2.97,0.34,2.97c0.07-0.15,1.82-2.81,2.92-6.63h9.55c0,0,6.09,16.87,7.18,19.9c3.33-3.03,21.89-19.9,21.89-19.9
		h14.96l-2.09,5.64h-3.36c-1.02,2.77-11.08,29.98-12.11,32.75h3.36l-1.38,3.74l-0.75,2.03H70.57l2.03-5.77h3.36
		c0.8-2.17,5.11-13.56,7.18-19.15c-5.8,5.27-20.48,18.62-20.48,18.62s-4.87-13.38-6.78-18.64c-2.06,5.58-6.28,17.01-7.09,19.17h3.36
		l-2.13,5.76H33.3z M110.14,86.49c1.58,0,4.59,0,6.17,0c-0.06-1.55-0.35-4.72-0.44-7C114.11,81.76,111.34,84.94,110.14,86.49
		 M124.16,76.17c0.1,2.51,0.65,16.97,0.69,18.16h1.94l-2.13,5.76h-12.5l2.13-5.76h1.55c-0.04-1.12-0.07-1.96-0.09-2.6H107
		c-0.5,0.64-1.14,1.48-2.01,2.6h1.5l-2.13,5.76H91.9l2.13-5.76h1.99c0.92-1.19,12.13-15.65,14.07-18.16h-1.86l2.13-5.76h17.28
		l-2.13,5.76H124.16 M171.3,100.09l2.13-5.76c0,0-1.68,0-2.25,0c0.69-1.86,6.02-16.3,6.71-18.16h2.26l2.13-5.76h-12.91l-2.13,5.76
		h2.26c-0.69,1.86-6.03,16.29-6.71,18.16h-2.26l-2.13,5.76H171.3z M152.92,80.5c0.25-0.68,0.86-2.32,1.11-2.99
		c-0.33-0.38-0.89-1.04-1.14-1.34h-6.67c-0.51,1.37-1.59,4.31-2.1,5.68h6.67C151.27,81.54,152.32,80.88,152.92,80.5 M160.6,82.44
		c0,0-2.28,1.43-3.58,2.25c0.7,0.82,1.92,2.25,1.92,2.25s-2.12,5.74-2.73,7.38c0.57,0,2.26,0,2.26,0l-2.13,5.76h-10.65
		c0,0,3.77-10.21,4.13-11.17c-0.33-0.38-0.89-1.02-1.14-1.31h-6.68c-0.54,1.46-1.94,5.26-2.48,6.71c0.58,0,2.26,0,2.26,0l-2.13,5.76
		h-12.9l2.13-5.76h2.26c0.69-1.86,6.02-16.3,6.71-18.16h-2.26l2.13-5.76h21.67l3.95,4.66L160.6,82.44z M210.28,77.99l-0.2,0.54h6.54
		c0,0,0.73-2.01,0.87-2.37h4.16c-0.69,1.86-6.02,16.29-6.71,18.16h-2.26l-2.13,5.76h12.95l2.13-5.76c0,0-1.68,0-2.26,0
		c0.69-1.86,6.02-16.3,6.71-18.16h4.2c-0.13,0.36-0.87,2.35-0.87,2.35h6.5l2.99-8.11h-29.83l-1.57,4.26l0,0L210.28,77.99z
		 M181.48,78.11l-2,5.41l3.95,4.66h10.92c0.26,0.3,0.82,0.96,1.14,1.34c-0.26,0.71-1.02,2.75-1.28,3.46
		c-0.61,0.38-1.64,1.02-2.12,1.31h-6.58c-0.26-0.3-0.81-0.93-1.15-1.31c0.22-0.58,0.34-0.91,0.34-0.91h-8.39l-0.12,0.31h0.01
		l-1.12,3.03l3.94,4.64h15.32l7.4-4.65l3.08-8.34l-3.95-4.65h-10.97c-0.26-0.3-0.81-0.93-1.15-1.31c0.27-0.73,1.07-2.9,1.34-3.62
		c0.61-0.38,1.65-1.04,2.13-1.34h6.57c0.26,0.3,0.81,0.96,1.14,1.34c-0.22,0.6-0.38,1.02-0.38,1.02h8.44l1.29-3.47l-3.96-4.66
		h-15.32l-7.38,4.64l-1.14,3.09H181.48z"/>
	<path fill="#D9586D" d="M23.21,29.46c-5.55-1.65-7.33-4.1-7.33-4.1c4.08-9.3,6.22-10.48,6.22-10.48s-2,3.46-2.63,5.79
		c-0.63,2.33,2.46,4.44,2.46,4.44c-1.18,0-3.9-0.98-3.9-0.98c0,1.57,4.76,2.93,4.76,2.93c6.96,2.83,6.64,6.44,6.64,7.21
		c0,0.76,1.23-0.18,1.23-0.18c-0.5,1.5-0.95,1.82-0.95,1.82c-0.68,3.36,0.85,11.31,0.85,11.31c-1.01-1.06-2.11-7.63-2.11-9.1
		C28.45,36.65,28.76,31.12,23.21,29.46 M46.22,13.73c0,0,0.66-0.1,1.01-5.08C45.58,10.84,44.88,12,44.88,12S45.97,12.82,46.22,13.73
		 M81.17,40.79c0,0-1.08,1.82-0.38,4.91c0,0,0.42-2.35,3.51-4.09c0,0,3.52-2.43,4.7-2.91c0,0-1.3,2.68-1.35,4.84
		c0,0,1.56-3.64,8.65-6.49c-0.57-0.1-5.47,1.71-5.47,1.71c0.05-0.27-0.21-2.05-0.21-2.05c-2.68,0.51-8.29,5.15-8.21,4.68
		c0.08-0.47,0.16-2.6,0.16-2.6c-3.61,1.42-6.75,3.43-8.34,4.53l0.39,0.46h-1.04c-0.29,0.21-0.44,0.33-0.44,0.33
		c0.01-0.1,0.03-0.21,0.04-0.33h-0.94c0.22,0.56,0.45,1.19,0.66,1.91c0.01,0.04,0.02,0.08,0.03,0.11c0.57-0.46,1.3-0.99,2.27-1.58
		C79.12,41.79,81.17,40.79,81.17,40.79 M73.24,41.01c-0.26,0.09-0.5,0.18-0.73,0.28l0.74,0.87C73.25,41.52,73.24,41.01,73.24,41.01
		 M6.04,45.26c0,0-0.42,10.83-0.2,11.6c0,0,3.63,8.6,4.94,12.06L7.23,56.66c0,0-0.41-7.47,0.25-13.8c-0.64,0.05-1.02,0.09-1.02,0.09
		c0-1.67,1.27-4.12,1.27-4.12c-0.19-0.03-0.37-0.07-0.54-0.11c-1.14,2.03-2.44,4.95-3.01,8.42C4.17,47.15,5.45,45.94,6.04,45.26
		 M21.67,74.96c-4.92-3.16-8.52,1.64-8.52,1.64c5.54-3.08,7.82-0.92,9.33,2.2c1.51,3.12,4.19,5.16,4.19,5.16s-2.31-3.06-2.74-4.93
		C23.21,75.94,21.67,74.96,21.67,74.96 M33.33,83.25c0,0,0.58,1.09,0.58,1.7c0,0,0.55-1.86-0.14-3.46
		c-0.68-1.59,1.08-3.48,2.57-4.95c0,0-2.26,1.56-3.01,2C33.33,78.53,31.5,80.58,33.33,83.25 M64.62,40.25l-2.35,0.09
		c7.33,6,8.35,17.01,8.35,17.01c0.95-9.56-4.58-15.86-4.58-15.86l1.84-0.06c-1.93-1.92-5.53-3.83-5.53-3.83L64.62,40.25z"/>
	<path d="M88.97,95.52h1.28c-0.5,1.36-0.96,2.59-1.25,3.38H72.25c0.15-0.41,0.29-0.81,0.42-1.2h15.49
		C88.36,97.15,88.64,96.39,88.97,95.52 M99.04,59.18L86.05,94.32h1.28l12.55-33.94c0,0,2.42,0,3.36,0c0.29-0.78,0.71-1.93,1.2-3.26
		h-1.28c-0.3,0.82-0.57,1.53-0.76,2.06H99.04z M84.57,70.01c0,0-18.75,17.33-21.94,20.23c0.24,0.65,0.42,1.16,0.54,1.47
		c2.3-2.09,20.02-18.29,20.02-18.29L84.57,70.01 M60.07,57.12c1.64,4.54,7.21,20.25,7.21,20.25s0.77-0.75,0.96-0.93
		c-1.64-4.55-6.54-18.11-6.97-19.31H60.07 M55.69,72.24c-0.4-1.08-0.64-1.75-0.64-1.75l-8.81,23.83h1.28L55.69,72.24z M116.1,75.4
		l0.08,1.74l-7.56,9.36h-1.51L116.1,75.4z M121.68,73.8l0.78,20.54h1.19l-0.74-19.36h1.76c0.29-0.79,0.75-2.02,1.25-3.38h-1.28
		c-0.32,0.88-0.61,1.65-0.81,2.2H121.68z M109.94,74.97c0.15-0.41,0.3-0.8,0.44-1.18h1.3l-0.91,1.18H109.94z M103.52,98.9h-9.91
		c0.15-0.41,0.3-0.8,0.44-1.18h8.64c0.2-0.55,0.49-1.32,0.82-2.2h1.28C104.27,96.87,103.81,98.1,103.52,98.9 M106.41,90.53
		l-2.95,3.81h-1.51l3.86-4.99h10.25l0.04,1.18H106.41z M123.83,98.9h-9.96c0.15-0.41,0.3-0.8,0.44-1.18h8.68
		c0.2-0.55,0.49-1.32,0.81-2.2h1.28C124.58,96.87,124.12,98.1,123.83,98.9 M168.95,74.97c0.16-0.42,0.3-0.83,0.45-1.21h0.99
		l-0.45,1.21H168.95z M168.65,94.31h1.27l7.15-19.33h2.25c0.29-0.79,0.75-2.02,1.25-3.38h-1.26c-0.32,0.87-0.6,1.62-0.8,2.17h-2.26
		L168.65,94.31z M160.56,97.68c-0.14,0.39-0.29,0.79-0.45,1.21h10.36c0.29-0.79,0.75-2.02,1.25-3.38h-1.27
		c-0.32,0.87-0.6,1.62-0.8,2.17H160.56z M157.57,87.19c-0.3,0.81-1.85,5.01-2.63,7.12h-1.3c0,0,2.48-6.72,3.03-8.19
		C157.04,86.56,157.39,86.97,157.57,87.19 M158.63,80.87c-0.56,0.35-4.08,2.55-4.08,2.55s0.26,0.31,0.78,0.92
		c0.64-0.4,3.79-2.38,4.29-2.7c0.23-0.62,1.97-5.32,2.35-6.34c-0.2-0.23-0.53-0.62-0.91-1.06C160.6,75.49,158.85,80.28,158.63,80.87
		 M141.56,81.83h1.3l2.53-6.85h8.05l-0.85-1.21h-8.05L141.56,81.83z M138.24,74.97l0.45-1.21h-0.96c-0.14,0.39-0.29,0.79-0.45,1.21
		H138.24z M138.76,95.52c-0.32,0.86-0.6,1.62-0.8,2.17h-9.07c-0.14,0.39-0.29,0.79-0.45,1.21h10.36c0.29-0.79,0.75-2.02,1.25-3.38
		H138.76z M149.21,86.42l-0.85-1.21h-8.05l-3.37,9.1h1.3l2.92-7.89H149.21z M155.5,98.9c0.29-0.79,0.75-2.02,1.25-3.38h-1.3
		c-0.32,0.86-0.6,1.62-0.8,2.17h-6.81c-0.17,0.47-0.33,0.89-0.45,1.21H155.5z M223.91,95.52c-0.5,1.36-0.96,2.59-1.25,3.38h-10.41
		c0.15-0.42,0.3-0.82,0.45-1.2h9.12c0.2-0.55,0.48-1.31,0.8-2.17H223.91z M235.57,76.12c-0.19,0.52-0.39,1.05-0.44,1.2h3.96
		c0.37-0.99,1.44-3.91,2.11-5.73h-1.28c-0.63,1.71-1.37,3.73-1.67,4.52H235.57z M228.41,73.77l-7.59,20.54h1.28l7.15-19.34h5.46
		c0.22-0.6,0.44-1.21,0.44-1.21H228.41z M215.82,73.77c0,0-0.61,1.66-0.87,2.37h-2.72c-0.16,0.43-0.31,0.84-0.44,1.2h4
		c0.26-0.7,0.87-2.37,0.87-2.37l5.42,0l0.45-1.21H215.82z M202.6,86.29c0.37,0.43,0.69,0.81,0.89,1.04
		c-0.39,1.06-2.46,6.67-2.7,7.31c-0.6,0.38-6.25,3.94-6.76,4.25H179.6l-1.01-1.19h14.61c0.51-0.32,6.16-3.88,6.76-4.26
		C200.18,92.83,202.1,87.63,202.6,86.29 M201.31,77.27c0,0-0.02,0.06-0.03,0.07h5.89c0.26-0.71,0.53-1.42,0.76-2.04
		c-0.2-0.23-0.52-0.61-0.89-1.04c-0.22,0.59-0.46,1.24-0.7,1.89h-4.82L201.31,77.27 M194.08,85.82c0,0-10.07,0.03-11.06,0.03
		l0.97,1.16h10.92L194.08,85.82 M186.58,80.18l0.9,1.03l0.18-0.5l1.48-3.99l2.77-1.74h0.34h7.3l-1.01-1.19h-7.12h-0.34l-2.77,1.74
		l-1.48,3.99L186.58,80.18z"/>
</g>
</svg>
