<svg id="svg" version="1.1" xmlns="http://www.w3.org/2000/svg" xmlns:xlink="http://www.w3.org/1999/xlink" width="400" height="304.4417767106843" viewBox="0, 0, 400,304.4417767106843"><g id="svgg"><path id="path0" d="M39.604 54.036 L 39.604 69.078 41.237 70.563 C 42.136 71.380,46.694 75.758,51.367 80.291 C 56.040 84.824,60.788 89.404,61.919 90.469 L 63.976 92.404 63.976 166.501 L 63.976 240.598 62.986 241.359 C 62.441 241.778,61.646 242.445,61.220 242.842 C 60.793 243.239,58.264 245.484,55.601 247.829 C 52.937 250.175,50.407 252.418,49.979 252.814 C 49.551 253.209,48.535 254.100,47.723 254.794 C 46.910 255.487,45.942 256.329,45.572 256.664 C 44.214 257.893,40.649 261.059,39.909 261.694 C 39.490 262.053,38.666 262.782,38.078 263.314 C 37.490 263.845,35.984 265.171,34.730 266.260 C 33.477 267.350,32.184 268.481,31.857 268.774 C 31.291 269.282,32.372 269.307,55.007 269.299 L 78.751 269.291 81.493 266.820 C 83.001 265.461,84.648 263.991,85.153 263.553 C 87.742 261.310,90.663 258.745,91.091 258.340 C 91.357 258.088,92.425 257.147,93.464 256.247 L 95.354 254.611 95.354 166.949 L 95.354 79.288 90.784 74.841 C 88.271 72.395,86.215 70.320,86.215 70.231 C 86.215 70.142,90.858 70.069,96.533 70.069 L 106.852 70.069 107.748 71.820 C 109.509 75.265,116.816 89.525,119.962 95.659 C 121.724 99.094,125.250 106.017,127.798 111.043 C 130.346 116.070,134.147 123.542,136.246 127.647 C 143.416 141.672,147.528 149.733,151.866 158.264 C 154.252 162.955,157.676 169.673,159.474 173.191 C 161.272 176.710,164.752 183.564,167.206 188.423 C 169.660 193.283,171.736 197.327,171.820 197.411 C 171.904 197.494,173.911 201.401,176.279 206.093 C 178.648 210.784,182.144 217.673,184.048 221.400 L 187.510 228.177 200.011 228.178 L 212.512 228.180 214.675 223.991 C 215.864 221.687,219.030 215.484,221.710 210.206 C 225.753 202.242,230.993 192.003,232.126 189.849 C 232.275 189.568,232.671 188.771,233.006 188.078 C 233.342 187.385,235.429 183.272,237.643 178.938 C 239.857 174.605,243.497 167.462,245.732 163.065 C 247.968 158.669,251.497 151.746,253.576 147.681 C 255.655 143.616,259.136 136.794,261.311 132.521 C 272.084 111.365,274.153 107.307,276.615 102.513 C 278.079 99.665,281.785 92.399,284.852 86.367 C 287.919 80.335,291.042 74.200,291.791 72.734 L 293.153 70.069 303.469 70.069 C 309.143 70.069,313.785 70.154,313.785 70.258 C 313.785 70.363,311.727 72.453,309.212 74.904 L 304.639 79.360 304.642 166.976 L 304.646 254.593 306.544 256.238 C 307.588 257.142,308.654 258.088,308.913 258.340 C 309.172 258.591,309.860 259.191,310.442 259.673 C 311.569 260.607,314.388 263.106,318.639 266.938 L 321.249 269.291 344.993 269.299 C 367.957 269.307,368.717 269.289,368.142 268.753 C 367.815 268.449,366.522 267.318,365.269 266.240 C 364.015 265.162,362.777 264.075,362.518 263.823 C 361.917 263.242,355.302 257.408,353.723 256.068 C 353.320 255.725,352.628 255.103,352.186 254.684 C 351.744 254.265,349.897 252.620,348.082 251.028 C 346.267 249.436,344.285 247.691,343.678 247.149 C 343.071 246.607,341.106 244.893,339.312 243.341 L 336.049 240.518 336.037 166.550 L 336.024 92.581 339.868 88.865 C 341.982 86.821,345.251 83.641,347.132 81.797 C 349.012 79.954,352.766 76.333,355.474 73.751 L 360.396 69.056 360.396 54.025 L 360.396 38.995 317.654 38.995 C 284.967 38.995,274.729 39.081,274.135 39.361 C 273.584 39.622,272.876 40.706,271.700 43.093 C 270.788 44.944,268.279 49.886,266.124 54.075 C 263.969 58.264,260.276 65.529,257.917 70.221 C 255.558 74.912,253.558 78.819,253.471 78.903 C 253.384 78.987,251.270 83.100,248.774 88.043 C 246.277 92.986,243.070 99.292,241.647 102.056 C 240.225 104.821,237.250 110.647,235.037 115.004 C 227.799 129.252,221.765 141.091,218.500 147.449 C 216.737 150.883,213.275 157.669,210.808 162.529 C 202.377 179.132,200.414 182.940,200.151 183.210 C 200.000 183.364,199.242 182.187,198.384 180.468 C 197.558 178.812,195.821 175.400,194.524 172.887 C 192.183 168.348,186.104 156.437,178.976 142.422 C 176.931 138.401,173.748 132.163,171.903 128.561 C 170.058 124.958,166.526 118.035,164.053 113.176 C 161.580 108.317,157.878 101.051,155.826 97.030 C 153.774 93.008,150.674 86.908,148.937 83.473 C 147.200 80.038,145.709 77.159,145.623 77.075 C 145.538 76.992,143.539 73.085,141.181 68.393 C 134.275 54.655,126.677 39.787,126.351 39.375 C 126.112 39.074,117.040 38.995,82.826 38.995 L 39.604 38.995 39.604 54.036 " stroke="none" fill="#b38b44" fill-rule="evenodd"></path><path id="path1" d="M1.040 42.574 L 1.257 85.149 4.221 88.043 C 5.852 89.634,9.579 93.251,12.504 96.079 C 15.429 98.907,19.535 102.900,21.630 104.953 L 25.438 108.684 25.365 166.071 L 25.291 223.458 22.166 226.159 C 20.447 227.644,18.270 229.563,17.328 230.424 C 16.386 231.284,14.743 232.742,13.678 233.663 C 11.774 235.309,6.087 240.357,5.788 240.666 C 5.600 240.860,1.624 244.319,0.685 245.106 L 0.000 245.680 0.000 275.163 L 0.000 304.646 48.363 304.635 L 96.725 304.625 98.401 303.094 C 99.322 302.251,100.748 300.988,101.568 300.286 C 102.389 299.584,103.813 298.324,104.732 297.487 C 105.652 296.649,106.694 295.712,107.048 295.405 C 110.195 292.678,111.560 291.485,113.028 290.175 C 114.899 288.507,115.513 287.962,119.573 284.377 C 121.081 283.045,122.472 281.817,122.663 281.648 C 122.854 281.479,123.794 280.655,124.753 279.817 C 125.712 278.979,127.200 277.647,128.061 276.857 C 128.922 276.066,130.683 274.558,131.973 273.506 L 134.320 271.592 134.334 240.442 C 134.342 223.309,134.465 209.292,134.607 209.292 C 134.750 209.292,136.223 211.999,137.882 215.308 C 139.541 218.618,140.983 221.394,141.086 221.478 C 141.189 221.561,141.379 221.973,141.507 222.391 C 141.635 222.810,141.978 223.496,142.270 223.915 C 142.561 224.334,142.904 225.019,143.032 225.438 C 143.161 225.857,143.350 226.268,143.453 226.352 C 143.643 226.506,147.222 233.491,153.367 245.697 C 155.222 249.383,156.843 252.445,156.969 252.501 C 157.094 252.556,157.198 252.762,157.199 252.958 C 157.200 253.153,157.423 253.724,157.694 254.227 C 157.965 254.730,159.450 257.609,160.994 260.626 C 162.538 263.643,163.993 266.419,164.228 266.795 L 164.655 267.479 200.149 267.469 L 235.644 267.460 237.263 264.194 C 240.048 258.579,241.284 256.357,241.580 256.432 C 241.738 256.472,241.796 256.319,241.709 256.093 C 241.622 255.866,242.741 253.366,244.196 250.537 C 245.651 247.707,248.015 243.062,249.449 240.213 C 250.883 237.365,252.168 234.989,252.304 234.933 C 252.440 234.877,252.551 234.679,252.551 234.494 C 252.551 234.161,254.384 230.303,254.682 230.008 C 254.800 229.891,263.243 213.257,264.886 209.905 C 265.191 209.283,266.565 209.030,266.565 209.596 C 266.565 209.764,266.428 209.901,266.260 209.901 C 266.059 209.901,265.956 220.394,265.956 240.770 L 265.956 271.640 267.691 273.139 C 270.887 275.901,274.628 279.201,275.435 279.970 C 275.875 280.388,276.629 281.062,277.112 281.467 C 278.833 282.910,282.268 285.923,283.046 286.672 C 283.481 287.091,285.739 289.078,288.064 291.089 C 290.389 293.100,292.569 295.023,292.909 295.364 C 293.248 295.704,294.554 296.869,295.811 297.953 C 297.068 299.037,298.165 299.993,298.248 300.076 C 298.332 300.160,299.429 301.120,300.685 302.209 C 301.942 303.298,303.016 304.292,303.072 304.417 C 303.128 304.543,324.959 304.646,351.587 304.646 L 400.000 304.646 400.000 275.181 L 400.000 245.716 399.286 245.097 C 398.193 244.149,394.264 240.630,393.154 239.604 C 392.609 239.101,391.768 238.357,391.284 237.950 C 389.666 236.590,386.172 233.518,385.543 232.902 C 385.200 232.567,383.892 231.403,382.635 230.315 C 381.379 229.227,380.200 228.199,380.016 228.030 C 379.681 227.722,376.687 225.095,375.398 223.979 L 374.711 223.383 374.704 165.995 L 374.698 108.606 379.533 103.884 C 392.303 91.414,398.876 85.140,399.267 85.050 C 399.633 84.966,399.695 78.723,399.695 42.476 L 399.695 0.000 325.133 0.004 L 250.571 0.009 249.200 2.822 C 248.446 4.370,247.761 5.704,247.677 5.788 C 247.593 5.872,246.006 8.957,244.149 12.643 C 242.293 16.329,238.814 23.184,236.418 27.875 C 234.023 32.567,230.956 38.599,229.603 41.280 C 228.250 43.960,227.033 46.200,226.900 46.255 C 226.766 46.311,226.657 46.502,226.657 46.679 C 226.657 47.005,225.415 49.681,225.134 49.962 C 225.050 50.046,223.323 53.404,221.297 57.426 C 212.871 74.148,201.977 95.495,200.854 97.487 C 200.062 98.890,199.867 98.816,198.757 96.692 C 198.241 95.705,197.384 94.075,196.854 93.069 C 196.323 92.064,195.888 91.081,195.888 90.886 C 195.888 90.691,195.779 90.485,195.646 90.429 C 195.513 90.373,193.881 87.312,192.021 83.625 C 190.160 79.939,188.007 75.689,187.237 74.181 C 186.468 72.673,185.837 71.280,185.836 71.084 C 185.835 70.889,185.731 70.683,185.605 70.627 C 185.344 70.511,184.514 68.915,177.953 55.903 C 175.334 50.708,173.122 46.390,173.038 46.306 C 172.954 46.222,171.464 43.343,169.726 39.909 C 167.989 36.474,165.073 30.722,163.245 27.126 C 161.418 23.530,159.993 20.404,160.080 20.179 C 160.166 19.954,160.112 19.848,159.959 19.942 C 159.806 20.037,159.362 19.461,158.972 18.663 C 158.583 17.865,158.195 17.144,158.111 17.060 C 158.028 16.976,156.049 13.104,153.716 8.454 L 149.472 0.000 75.148 0.000 L 0.824 0.000 1.040 42.574 M126.331 38.928 C 126.528 39.054,128.326 42.376,130.324 46.311 C 136.133 57.746,143.077 71.361,143.606 72.353 C 143.874 72.856,144.095 73.439,144.096 73.648 C 144.097 73.858,144.220 74.029,144.369 74.029 C 144.518 74.029,144.733 74.398,144.846 74.848 C 144.959 75.299,145.302 76.018,145.607 76.448 C 145.912 76.877,146.568 78.050,147.065 79.056 C 147.561 80.061,150.268 85.407,153.078 90.937 C 155.889 96.466,160.414 105.377,163.134 110.739 C 165.855 116.101,168.723 121.699,169.510 123.181 C 170.296 124.662,173.451 130.831,176.521 136.890 C 181.769 147.247,188.977 161.404,191.436 166.184 C 192.039 167.357,192.534 168.477,192.535 168.672 C 192.536 168.868,192.639 169.073,192.765 169.129 C 192.971 169.221,195.392 173.820,198.773 180.542 L 200.019 183.018 201.159 180.694 C 202.231 178.509,205.650 171.926,207.110 169.235 C 207.472 168.568,207.768 167.859,207.768 167.661 C 207.768 167.463,207.871 167.256,207.997 167.200 C 208.123 167.144,210.299 162.986,212.833 157.959 C 215.367 152.932,218.979 145.804,220.861 142.117 C 222.742 138.431,225.458 133.085,226.896 130.236 C 228.334 127.388,229.623 125.011,229.759 124.956 C 229.896 124.900,230.008 124.694,230.009 124.499 C 230.011 124.303,230.230 123.732,230.497 123.229 C 231.090 122.114,237.788 108.969,245.088 94.593 C 248.066 88.728,251.184 82.628,252.018 81.036 C 252.852 79.444,253.928 77.388,254.410 76.466 C 254.891 75.545,255.287 74.631,255.289 74.435 C 255.291 74.240,255.396 74.034,255.522 73.978 C 255.647 73.922,257.935 69.558,260.606 64.280 C 272.092 41.579,273.409 39.046,273.650 39.195 C 273.789 39.281,274.083 39.202,274.303 39.020 C 274.589 38.783,287.002 38.710,317.626 38.765 L 360.548 38.842 360.627 53.916 L 360.707 68.990 355.757 73.947 C 353.034 76.673,350.737 78.903,350.651 78.903 C 350.565 78.904,347.307 82.022,343.410 85.834 L 336.325 92.765 336.327 166.523 L 336.329 240.280 338.233 241.948 C 339.280 242.865,341.302 244.620,342.727 245.848 C 344.151 247.076,345.453 248.230,345.621 248.412 C 345.788 248.594,347.569 250.183,349.579 251.942 C 354.921 256.620,355.487 257.120,357.340 258.809 C 358.267 259.654,360.670 261.775,362.681 263.523 C 364.692 265.271,366.885 267.217,367.555 267.848 C 368.225 268.479,368.877 268.997,369.002 268.999 C 369.128 269.001,369.231 269.139,369.231 269.307 C 369.231 269.507,361.027 269.612,345.228 269.612 L 321.226 269.612 319.105 267.740 C 317.938 266.711,316.028 265.032,314.860 264.009 C 313.692 262.985,311.902 261.394,310.882 260.472 C 309.863 259.551,307.974 257.862,306.685 256.719 L 304.341 254.641 304.341 166.905 L 304.341 79.168 305.949 77.589 C 306.833 76.720,308.902 74.739,310.547 73.187 L 313.538 70.365 303.414 70.445 L 293.290 70.526 290.467 76.009 C 288.914 79.025,285.775 85.194,283.491 89.718 C 281.207 94.242,277.960 100.617,276.275 103.884 C 274.590 107.152,272.597 111.059,271.847 112.567 C 271.096 114.075,270.355 115.547,270.198 115.839 C 269.498 117.147,263.338 129.208,259.188 137.395 C 252.083 151.411,249.670 156.118,249.505 156.283 C 249.421 156.367,247.247 160.617,244.673 165.727 C 239.870 175.265,231.893 191.000,228.843 196.954 C 227.899 198.797,227.021 200.350,226.892 200.406 C 226.762 200.462,226.655 200.668,226.653 200.863 C 226.651 201.059,226.259 201.973,225.782 202.894 C 225.306 203.816,222.788 208.751,220.187 213.861 C 217.586 218.972,214.857 224.318,214.123 225.743 L 212.788 228.332 200.028 228.332 L 187.269 228.332 183.819 221.630 C 181.922 217.944,178.960 212.117,177.237 208.682 C 175.515 205.248,174.002 202.391,173.877 202.336 C 173.751 202.280,173.646 202.074,173.644 201.879 C 173.642 201.683,173.248 200.769,172.769 199.848 C 167.459 189.631,160.817 176.608,153.270 161.615 C 150.487 156.085,148.142 151.493,148.058 151.409 C 147.974 151.325,146.999 149.474,145.892 147.296 C 144.784 145.118,141.295 138.264,138.138 132.064 C 134.981 125.864,130.883 117.776,129.032 114.090 C 127.181 110.404,125.564 107.342,125.438 107.286 C 125.312 107.230,125.209 107.025,125.208 106.829 C 125.207 106.634,124.981 106.062,124.705 105.560 C 123.703 103.730,120.310 97.129,115.700 88.043 C 113.107 82.932,110.032 76.900,108.866 74.638 L 106.746 70.526 96.780 70.445 C 87.316 70.369,86.832 70.392,87.173 70.902 C 87.370 71.198,89.360 73.138,91.595 75.214 L 95.659 78.989 95.654 166.760 C 95.652 215.034,95.549 254.671,95.426 254.840 C 95.303 255.010,94.037 256.176,92.612 257.430 C 91.188 258.684,89.954 259.779,89.871 259.863 C 89.787 259.947,88.691 260.907,87.436 261.996 C 86.181 263.085,84.673 264.404,84.085 264.927 C 83.497 265.451,82.062 266.719,80.895 267.745 L 78.774 269.612 54.772 269.612 C 41.570 269.612,30.769 269.559,30.769 269.494 C 30.769 269.430,32.449 267.888,34.501 266.069 C 36.554 264.249,38.713 262.334,39.299 261.813 C 39.886 261.291,41.188 260.140,42.193 259.254 C 43.199 258.369,44.500 257.218,45.085 256.697 C 45.670 256.176,47.452 254.604,49.045 253.202 C 50.639 251.801,52.353 250.287,52.856 249.839 C 53.359 249.390,55.998 247.066,58.720 244.673 L 63.671 240.322 63.671 166.502 L 63.671 92.683 55.993 85.260 C 51.770 81.177,46.281 75.849,43.795 73.420 L 39.275 69.002 39.292 54.113 C 39.302 45.924,39.384 39.104,39.475 38.957 C 39.676 38.631,125.819 38.603,126.331 38.928 " stroke="none" fill="#043464" fill-rule="evenodd"></path><path id="path2" d="M149.886 0.305 C 149.886 0.472,150.023 0.609,150.190 0.609 C 150.358 0.609,150.495 0.815,150.495 1.066 C 150.495 1.318,150.632 1.523,150.800 1.523 C 151.243 1.523,151.173 0.939,150.669 0.435 C 150.159 -0.075,149.886 -0.121,149.886 0.305 M248.896 1.066 C 248.896 1.318,249.033 1.523,249.200 1.523 C 249.368 1.523,249.505 1.318,249.505 1.066 C 249.505 0.815,249.368 0.609,249.200 0.609 C 249.033 0.609,248.896 0.815,248.896 1.066 M151.409 2.924 C 151.409 3.025,151.630 3.573,151.901 4.143 C 152.368 5.128,152.932 5.528,152.932 4.874 C 152.932 4.707,152.806 4.570,152.652 4.570 C 152.498 4.570,152.281 4.158,152.171 3.656 C 152.003 2.894,151.409 2.323,151.409 2.924 M247.677 4.113 C 247.677 4.364,247.540 4.570,247.372 4.570 C 247.205 4.570,247.068 4.775,247.068 5.027 C 247.068 5.655,247.564 5.603,247.794 4.950 C 247.897 4.657,248.062 4.246,248.160 4.037 C 248.257 3.827,248.189 3.656,248.007 3.656 C 247.826 3.656,247.677 3.861,247.677 4.113 M152.932 5.941 C 152.932 6.192,153.077 6.398,153.255 6.398 C 153.432 6.398,153.499 6.525,153.402 6.681 C 153.306 6.837,153.366 7.051,153.537 7.156 C 153.889 7.374,153.916 7.147,153.654 6.169 C 153.448 5.400,152.932 5.237,152.932 5.941 M246.349 6.157 C 246.095 7.106,246.108 7.312,246.423 7.312 C 246.645 7.312,246.861 6.815,247.082 5.796 C 247.199 5.256,246.498 5.601,246.349 6.157 M243.717 11.703 C 243.717 11.941,243.545 12.196,243.336 12.271 C 243.126 12.346,243.051 12.511,243.169 12.637 C 243.416 12.903,244.326 12.085,244.326 11.598 C 244.326 11.419,244.189 11.272,244.021 11.272 C 243.854 11.272,243.717 11.466,243.717 11.703 M161.380 22.567 C 161.556 23.241,162.072 23.362,162.072 22.729 C 162.072 22.495,161.881 22.231,161.649 22.142 C 161.353 22.028,161.272 22.155,161.380 22.567 M237.395 24.237 C 236.947 24.724,236.909 24.981,237.287 24.981 C 237.546 24.981,238.033 24.064,237.859 23.902 C 237.814 23.859,237.605 24.010,237.395 24.237 M162.986 25.619 C 162.986 26.042,163.975 27.841,164.282 27.977 C 164.409 28.033,164.441 28.195,164.353 28.337 C 164.266 28.479,164.353 28.693,164.548 28.813 C 164.803 28.971,164.841 28.786,164.681 28.152 C 164.560 27.668,164.345 27.201,164.204 27.113 C 164.063 27.026,163.853 26.579,163.738 26.120 C 163.535 25.311,162.986 24.945,162.986 25.619 M236.262 26.120 C 236.147 26.579,235.937 27.026,235.796 27.113 C 235.368 27.378,235.079 28.941,235.458 28.941 C 235.644 28.941,235.796 28.768,235.796 28.556 C 235.796 28.344,236.070 27.659,236.405 27.034 C 237.067 25.799,237.166 25.286,236.743 25.286 C 236.593 25.286,236.377 25.661,236.262 26.120 M166.876 33.072 C 166.643 33.450,167.477 34.604,167.772 34.310 C 167.894 34.187,167.848 33.992,167.668 33.875 C 167.489 33.759,167.278 33.464,167.200 33.221 C 167.121 32.978,166.976 32.911,166.876 33.072 M232.749 33.333 C 232.749 33.571,232.622 33.811,232.467 33.866 C 232.312 33.922,232.087 34.365,231.966 34.851 C 231.808 35.487,231.846 35.673,232.101 35.516 C 232.295 35.395,232.376 35.169,232.279 35.013 C 232.183 34.857,232.233 34.730,232.391 34.730 C 232.549 34.730,232.763 34.490,232.866 34.196 C 232.970 33.903,233.134 33.492,233.232 33.283 C 233.330 33.073,233.261 32.902,233.079 32.902 C 232.898 32.902,232.749 33.096,232.749 33.333 M173.953 47.372 C 173.953 47.624,174.090 47.829,174.257 47.829 C 174.425 47.829,174.562 47.624,174.562 47.372 C 174.562 47.121,174.425 46.915,174.257 46.915 C 174.090 46.915,173.953 47.121,173.953 47.372 M225.258 47.982 C 225.153 48.401,224.945 48.743,224.796 48.743 C 224.646 48.743,224.524 48.949,224.524 49.200 C 224.524 49.452,224.387 49.657,224.219 49.657 C 224.052 49.657,223.915 49.863,223.915 50.114 C 223.915 50.366,224.052 50.571,224.219 50.571 C 224.387 50.571,224.524 50.377,224.524 50.140 C 224.524 49.902,224.627 49.662,224.752 49.606 C 224.995 49.498,226.047 47.707,226.047 47.402 C 226.047 46.870,225.422 47.330,225.258 47.982 M0.305 66.740 L 0.305 85.686 1.393 86.712 C 1.991 87.276,2.539 87.738,2.611 87.738 C 2.994 87.738,2.635 87.040,1.828 86.215 L 0.914 85.280 0.914 66.725 C 0.914 54.684,0.807 48.104,0.609 47.982 C 0.407 47.857,0.305 54.186,0.305 66.740 M174.496 47.997 C 174.285 48.208,174.940 49.652,175.248 49.655 C 175.373 49.656,175.476 49.863,175.476 50.114 C 175.476 50.366,175.613 50.571,175.781 50.571 C 175.948 50.571,176.085 50.366,176.085 50.114 C 176.085 49.863,175.959 49.657,175.805 49.657 C 175.651 49.657,175.434 49.246,175.324 48.743 C 175.132 47.873,174.863 47.630,174.496 47.997 M178.218 55.903 C 178.218 56.154,178.355 56.359,178.522 56.359 C 178.690 56.359,178.827 56.565,178.827 56.816 C 178.827 57.068,178.964 57.273,179.132 57.273 C 179.299 57.273,179.436 57.068,179.436 56.816 C 179.436 56.565,179.299 56.359,179.132 56.359 C 178.964 56.359,178.827 56.154,178.827 55.903 C 178.827 55.651,178.690 55.446,178.522 55.446 C 178.355 55.446,178.218 55.651,178.218 55.903 M221.173 55.903 C 221.173 56.154,221.036 56.359,220.868 56.359 C 220.701 56.359,220.564 56.565,220.564 56.816 C 220.564 57.068,220.701 57.273,220.868 57.273 C 221.036 57.273,221.173 57.068,221.173 56.816 C 221.173 56.565,221.310 56.359,221.478 56.359 C 221.645 56.359,221.782 56.154,221.782 55.903 C 221.782 55.651,221.645 55.446,221.478 55.446 C 221.310 55.446,221.173 55.651,221.173 55.903 M185.961 70.754 C 186.058 70.963,186.223 71.375,186.326 71.668 C 186.430 71.961,186.644 72.201,186.801 72.201 C 186.959 72.201,187.010 72.329,186.913 72.485 C 186.735 72.773,187.291 73.283,187.527 73.047 C 187.710 72.863,186.946 71.292,186.672 71.290 C 186.546 71.288,186.443 71.081,186.443 70.830 C 186.443 70.579,186.295 70.373,186.113 70.373 C 185.932 70.373,185.863 70.545,185.961 70.754 M213.352 71.219 C 213.156 71.343,212.896 71.842,212.775 72.326 C 212.616 72.960,212.653 73.145,212.908 72.987 C 213.103 72.867,213.183 72.641,213.087 72.485 C 212.990 72.329,213.041 72.201,213.199 72.201 C 213.356 72.201,213.557 71.927,213.645 71.592 C 213.733 71.257,213.783 70.985,213.757 70.987 C 213.731 70.990,213.549 71.094,213.352 71.219 M187.966 74.516 C 187.966 74.616,188.188 75.165,188.458 75.735 C 188.926 76.720,189.490 77.120,189.490 76.466 C 189.490 76.299,189.364 76.161,189.209 76.161 C 189.055 76.161,188.839 75.750,188.728 75.248 C 188.561 74.486,187.966 73.915,187.966 74.516 M211.120 75.704 C 211.120 75.956,210.993 76.161,210.839 76.161 C 210.685 76.161,210.468 76.573,210.358 77.075 C 210.248 77.578,210.031 77.989,209.877 77.989 C 209.723 77.989,209.596 78.195,209.596 78.446 C 209.596 79.144,210.107 78.990,210.355 78.218 C 210.477 77.841,210.561 77.430,210.543 77.304 C 210.525 77.178,210.647 77.075,210.815 77.075 C 210.982 77.075,211.120 76.870,211.120 76.618 C 211.120 76.367,211.257 76.161,211.424 76.161 C 211.592 76.161,211.729 75.956,211.729 75.704 C 211.729 75.453,211.592 75.248,211.424 75.248 C 211.257 75.248,211.120 75.453,211.120 75.704 M189.449 77.215 C 189.221 77.447,189.845 78.897,190.175 78.901 C 190.301 78.902,190.404 78.698,190.404 78.446 C 190.404 78.195,190.277 77.989,190.121 77.989 C 189.966 77.989,189.795 77.771,189.741 77.505 C 189.686 77.239,189.555 77.108,189.449 77.215 M397.789 86.665 C 396.027 88.359,395.810 88.652,396.316 88.652 C 396.767 88.652,399.757 85.637,399.643 85.297 C 399.586 85.125,398.752 85.741,397.789 86.665 M7.007 91.571 C 7.007 91.971,17.387 102.136,17.589 101.934 C 17.775 101.747,15.573 99.529,8.911 93.192 C 8.199 92.515,7.616 91.833,7.616 91.677 C 7.616 91.521,7.479 91.394,7.312 91.394 C 7.144 91.394,7.007 91.474,7.007 91.571 M390.251 94.030 C 389.497 94.803,387.167 97.051,385.073 99.026 C 382.979 101.001,381.369 102.720,381.495 102.845 C 381.700 103.051,382.185 102.697,383.324 101.512 C 383.532 101.296,384.081 100.747,384.546 100.293 C 385.010 99.839,385.764 99.087,386.221 98.623 C 386.678 98.158,387.432 97.404,387.895 96.947 C 391.089 93.794,392.176 92.611,391.870 92.619 C 391.734 92.622,391.005 93.257,390.251 94.030 M201.244 94.941 C 200.989 95.605,201.328 95.914,201.687 95.345 C 202.048 94.776,202.055 94.440,201.708 94.440 C 201.559 94.440,201.350 94.665,201.244 94.941 M198.934 96.217 C 198.934 96.357,199.037 96.574,199.162 96.700 C 199.288 96.825,199.403 97.020,199.417 97.131 C 199.541 98.091,199.929 98.420,200.301 97.881 C 200.885 97.037,201.154 95.963,200.782 95.963 C 200.603 95.963,200.457 96.169,200.457 96.420 C 200.457 96.672,200.251 96.877,200.000 96.877 C 199.749 96.877,199.543 96.672,199.543 96.420 C 199.543 96.169,199.406 95.963,199.238 95.963 C 199.071 95.963,198.934 96.078,198.934 96.217 M21.935 106.146 C 21.935 106.419,25.045 109.405,25.184 109.266 C 25.264 109.186,24.624 108.422,23.762 107.568 C 22.288 106.110,21.935 105.835,21.935 106.146 M375.811 108.027 C 375.170 108.615,374.713 109.163,374.795 109.246 C 374.878 109.328,375.463 108.908,376.095 108.312 C 376.728 107.715,377.185 107.167,377.111 107.093 C 377.037 107.020,376.452 107.440,375.811 108.027 M138.919 219.497 C 138.919 219.749,139.056 219.954,139.223 219.954 C 139.391 219.954,139.528 220.160,139.528 220.411 C 139.528 220.663,139.665 220.868,139.832 220.868 C 140.000 220.868,140.137 220.663,140.137 220.411 C 140.137 220.160,140.000 219.954,139.832 219.954 C 139.665 219.954,139.528 219.749,139.528 219.497 C 139.528 219.246,139.391 219.040,139.223 219.040 C 139.056 219.040,138.919 219.246,138.919 219.497 M260.472 219.497 C 260.472 219.749,260.335 219.954,260.168 219.954 C 260.000 219.954,259.863 220.160,259.863 220.411 C 259.863 220.663,260.000 220.868,260.168 220.868 C 260.335 220.868,260.472 220.663,260.472 220.411 C 260.472 220.160,260.609 219.954,260.777 219.954 C 260.944 219.954,261.081 219.749,261.081 219.497 C 261.081 219.246,260.944 219.040,260.777 219.040 C 260.609 219.040,260.472 219.246,260.472 219.497 M140.257 221.655 C 140.359 221.920,140.442 222.263,140.442 222.416 C 140.442 222.570,140.579 222.696,140.746 222.696 C 140.914 222.696,141.051 222.490,141.051 222.239 C 141.051 221.988,140.906 221.782,140.728 221.782 C 140.551 221.782,140.491 221.645,140.594 221.478 C 140.698 221.310,140.622 221.173,140.427 221.173 C 140.228 221.173,140.153 221.385,140.257 221.655 M23.395 223.839 C 23.118 224.132,22.710 224.536,22.489 224.738 C 21.760 225.402,21.297 226.047,21.550 226.047 C 21.687 226.047,22.023 225.807,22.296 225.514 C 22.569 225.221,23.148 224.735,23.582 224.434 C 24.016 224.133,24.372 223.756,24.372 223.596 C 24.372 223.146,23.949 223.251,23.395 223.839 M375.628 223.567 C 375.628 223.711,375.986 224.088,376.424 224.405 C 376.861 224.722,377.410 225.162,377.642 225.384 C 378.509 226.208,378.029 225.144,377.128 224.243 C 376.202 223.317,375.628 223.058,375.628 223.567 M142.109 225.666 C 142.361 226.671,142.445 226.772,142.830 226.534 C 143.017 226.419,142.997 226.073,142.774 225.592 C 142.301 224.572,141.847 224.622,142.109 225.666 M257.273 225.743 C 257.163 226.245,256.962 226.657,256.828 226.657 C 256.585 226.657,256.111 227.817,256.174 228.256 C 256.192 228.382,256.070 228.484,255.903 228.484 C 255.735 228.484,255.598 228.690,255.598 228.941 C 255.598 229.757,256.153 229.424,256.359 228.484 C 256.470 227.982,256.686 227.570,256.841 227.570 C 256.995 227.570,257.121 227.376,257.121 227.139 C 257.121 226.901,257.248 226.662,257.403 226.606 C 257.815 226.457,258.168 224.829,257.788 224.829 C 257.615 224.829,257.384 225.240,257.273 225.743 M18.900 227.899 C 17.660 229.151,17.347 229.631,18.050 229.201 C 18.979 228.634,20.716 227.101,20.716 226.850 C 20.716 226.362,20.028 226.759,18.900 227.899 M142.879 227.113 C 142.879 227.365,143.016 227.570,143.184 227.570 C 143.351 227.570,143.488 227.365,143.488 227.113 C 143.488 226.862,143.351 226.657,143.184 226.657 C 143.016 226.657,142.879 226.862,142.879 227.113 M379.284 226.961 C 379.284 227.129,379.387 227.269,379.513 227.273 C 379.638 227.277,380.270 227.757,380.917 228.339 C 382.019 229.331,382.331 229.543,382.331 229.297 C 382.331 229.241,381.803 228.624,381.159 227.926 C 380.032 226.705,379.284 226.320,379.284 226.961 M15.537 230.593 C 15.537 230.748,15.115 231.297,14.600 231.812 C 13.385 233.027,13.722 233.013,15.250 231.785 C 16.519 230.765,16.747 230.312,15.994 230.312 C 15.743 230.312,15.537 230.439,15.537 230.593 M383.854 230.712 C 383.854 230.932,384.231 231.386,384.692 231.722 C 386.081 232.733,386.301 232.826,386.107 232.320 C 386.010 232.066,385.675 231.778,385.364 231.679 C 385.053 231.580,384.714 231.233,384.610 230.906 C 384.398 230.238,383.854 230.098,383.854 230.712 M10.739 235.036 C 10.027 235.758,9.444 236.440,9.444 236.551 C 9.444 236.926,12.464 234.430,12.478 234.044 C 12.499 233.425,12.109 233.647,10.739 235.036 M387.510 233.936 C 387.510 234.167,388.412 235.010,390.175 236.428 C 391.098 237.170,390.432 236.199,389.190 234.991 C 387.793 233.634,387.510 233.456,387.510 233.936 M7.416 238.016 C 7.222 238.219,6.714 238.660,6.287 238.995 C 5.507 239.608,5.271 240.061,5.733 240.061 C 6.057 240.061,8.225 238.133,8.225 237.845 C 8.225 237.512,7.813 237.600,7.416 238.016 M391.775 237.806 C 391.775 238.053,394.001 240.045,394.288 240.054 C 394.703 240.067,394.529 239.789,393.440 238.700 C 392.453 237.714,391.775 237.349,391.775 237.806 M150.291 241.308 C 150.398 241.711,150.489 242.144,150.491 242.270 C 150.499 242.716,151.104 242.490,151.104 242.041 C 151.104 241.790,150.959 241.584,150.782 241.584 C 150.604 241.584,150.538 241.457,150.634 241.301 C 150.731 241.145,150.649 240.918,150.452 240.796 C 150.199 240.639,150.152 240.789,150.291 241.308 M2.477 242.376 C 1.745 243.130,1.214 243.814,1.296 243.896 C 1.470 244.070,4.265 241.529,4.265 241.198 C 4.265 240.723,3.757 241.058,2.477 242.376 M249.276 241.450 C 248.835 241.929,248.774 242.498,249.165 242.498 C 249.399 242.498,249.893 241.253,249.721 241.095 C 249.686 241.063,249.486 241.222,249.276 241.450 M395.735 241.198 C 395.735 241.531,398.530 244.069,398.705 243.894 C 398.863 243.737,396.220 240.975,395.911 240.975 C 395.814 240.975,395.735 241.075,395.735 241.198 M152.932 246.915 C 152.932 247.167,153.058 247.372,153.213 247.372 C 153.367 247.372,153.583 247.784,153.694 248.286 C 153.804 248.789,154.010 249.200,154.151 249.200 C 154.292 249.200,154.497 249.612,154.608 250.114 C 154.722 250.636,155.005 251.028,155.267 251.028 C 155.525 251.028,155.647 250.862,155.547 250.647 C 155.450 250.438,155.285 250.027,155.182 249.733 C 155.078 249.440,154.883 249.200,154.749 249.200 C 154.614 249.200,154.414 248.789,154.303 248.286 C 154.193 247.784,153.976 247.372,153.822 247.372 C 153.668 247.372,153.542 247.167,153.542 246.915 C 153.542 246.664,153.404 246.458,153.237 246.458 C 153.069 246.458,152.932 246.664,152.932 246.915 M246.350 247.144 C 246.252 247.521,246.179 247.883,246.188 247.948 C 246.198 248.013,246.091 248.150,245.951 248.252 C 245.592 248.515,244.631 250.294,244.631 250.694 C 244.631 251.413,245.203 250.978,245.392 250.114 C 245.503 249.612,245.708 249.200,245.849 249.200 C 245.990 249.200,246.196 248.789,246.306 248.286 C 246.417 247.784,246.633 247.372,246.787 247.372 C 246.942 247.372,247.068 247.167,247.068 246.915 C 247.068 246.211,246.551 246.375,246.350 247.144 M243.025 253.747 C 242.917 254.159,242.998 254.285,243.294 254.172 C 243.527 254.082,243.717 253.818,243.717 253.585 C 243.717 252.952,243.201 253.073,243.025 253.747 M161.158 262.909 C 161.158 263.077,161.295 263.214,161.462 263.214 C 161.630 263.214,161.767 263.442,161.767 263.722 C 161.767 264.001,161.848 264.148,161.947 264.049 C 162.201 263.795,161.785 262.605,161.442 262.605 C 161.286 262.605,161.158 262.742,161.158 262.909 M162.986 266.435 C 162.986 266.758,163.927 267.553,164.103 267.378 C 164.198 267.282,164.064 266.991,163.805 266.732 C 163.321 266.248,162.986 266.126,162.986 266.435 M236.146 266.749 C 235.591 267.377,235.948 267.675,236.543 267.080 C 236.802 266.821,237.014 266.530,237.014 266.435 C 237.014 266.115,236.562 266.279,236.146 266.749 M132.773 273.189 C 131.405 274.317,130.998 274.715,130.998 274.921 C 130.998 275.395,131.704 274.964,132.962 273.724 C 134.493 272.215,134.372 271.871,132.773 273.189 M265.956 272.458 C 265.956 272.733,268.412 275.095,268.697 275.095 C 269.223 275.095,269.036 274.748,268.012 273.829 C 267.011 272.930,265.956 272.226,265.956 272.458 M270.972 277.113 C 271.746 277.887,272.477 278.425,272.594 278.307 C 272.818 278.083,270.288 275.704,269.827 275.704 C 269.682 275.704,270.197 276.338,270.972 277.113 M128.378 277.045 C 127.728 277.623,127.289 278.190,127.403 278.304 C 127.517 278.418,128.120 278.016,128.743 277.411 C 129.367 276.805,129.805 276.239,129.718 276.151 C 129.631 276.064,129.028 276.466,128.378 277.045 M125.463 279.600 C 125.407 279.732,124.779 280.303,124.067 280.870 C 122.810 281.870,122.461 282.407,123.069 282.407 C 123.362 282.407,126.123 279.783,126.123 279.505 C 126.123 279.264,125.572 279.343,125.463 279.600 M273.877 279.518 C 273.877 279.789,276.047 281.797,276.340 281.797 C 276.493 281.797,276.618 281.660,276.618 281.493 C 276.618 281.325,276.516 281.187,276.390 281.187 C 276.264 281.186,275.723 280.775,275.188 280.273 C 274.253 279.397,273.877 279.180,273.877 279.518 M277.837 282.852 C 277.837 283.203,280.624 285.814,280.805 285.633 C 280.917 285.521,280.352 284.818,279.550 284.070 C 278.150 282.767,277.837 282.544,277.837 282.852 M120.143 284.365 C 119.498 284.939,119.066 285.504,119.182 285.621 C 119.299 285.737,119.954 285.268,120.638 284.577 C 122.142 283.058,121.784 282.905,120.143 284.365 M116.927 287.205 C 116.654 287.498,116.075 287.984,115.641 288.285 C 114.857 288.829,114.594 289.414,115.133 289.414 C 115.387 289.414,116.516 288.343,117.529 287.138 C 118.075 286.490,117.538 286.550,116.927 287.205 M282.399 287.053 C 283.633 288.515,284.248 289.109,284.525 289.109 C 285.142 289.109,284.832 288.592,283.643 287.637 C 282.414 286.649,281.826 286.373,282.399 287.053 M286.062 290.175 C 286.062 290.463,288.500 292.765,288.804 292.765 C 289.153 292.765,289.228 292.159,288.880 292.148 C 288.755 292.144,288.123 291.665,287.476 291.082 C 286.317 290.038,286.062 289.875,286.062 290.175 M111.957 291.559 C 111.287 292.220,110.900 292.761,111.098 292.762 C 111.473 292.765,113.633 290.854,113.633 290.520 C 113.633 290.095,113.117 290.415,111.957 291.559 M108.911 294.354 C 107.903 294.937,106.482 296.378,106.700 296.595 C 106.812 296.708,107.331 296.371,107.854 295.848 C 108.377 295.325,108.917 294.897,109.054 294.897 C 109.191 294.897,109.382 294.692,109.478 294.440 C 109.685 293.901,109.692 293.903,108.911 294.354 M291.381 295.098 C 291.977 295.712,292.560 296.117,292.678 295.999 C 292.895 295.783,290.989 293.985,290.541 293.984 C 290.408 293.984,290.785 294.485,291.381 295.098 M294.288 297.439 C 294.288 297.714,296.744 300.076,297.029 300.076 C 297.555 300.076,297.368 299.729,296.344 298.810 C 295.343 297.911,294.288 297.207,294.288 297.439 M103.808 298.682 C 102.644 299.731,102.434 300.076,102.960 300.076 C 103.252 300.076,105.407 298.055,105.407 297.781 C 105.407 297.426,104.861 297.734,103.808 298.682 M100.990 301.332 C 100.823 301.481,100.138 302.072,99.470 302.645 C 98.801 303.218,98.345 303.778,98.456 303.889 C 98.567 304.000,99.307 303.460,100.100 302.690 C 101.289 301.535,102.023 300.414,100.990 301.332 M298.553 301.176 C 298.553 301.572,300.722 303.492,300.932 303.281 C 301.048 303.166,300.731 302.736,300.228 302.328 C 299.726 301.919,299.143 301.445,298.934 301.275 C 298.724 301.105,298.553 301.060,298.553 301.176 " stroke="none" fill="#dbdee3" fill-rule="evenodd"></path><path id="path3" d="M243.412 13.531 C 243.412 13.769,243.241 14.032,243.031 14.117 C 242.744 14.232,242.742 14.276,243.021 14.294 C 243.224 14.308,243.537 14.044,243.717 13.709 C 243.938 13.296,243.941 13.100,243.727 13.100 C 243.554 13.100,243.412 13.294,243.412 13.531 M160.244 21.325 C 160.423 21.660,160.736 21.924,160.940 21.910 C 161.219 21.892,161.216 21.849,160.929 21.733 C 160.720 21.648,160.548 21.385,160.548 21.147 C 160.548 20.910,160.406 20.716,160.233 20.716 C 160.019 20.716,160.023 20.912,160.244 21.325 M39.475 38.957 C 39.384 39.104,39.302 45.924,39.292 54.113 L 39.275 69.002 43.795 73.420 C 52.221 81.654,54.836 84.144,54.836 83.935 C 54.836 83.718,44.122 73.182,41.239 70.563 L 39.604 69.078 39.604 54.035 L 39.604 38.993 82.940 39.070 L 126.276 39.147 127.494 41.483 C 128.700 43.794,129.415 44.868,128.974 43.707 C 128.544 42.572,126.629 39.147,126.300 38.923 C 125.827 38.601,39.674 38.635,39.475 38.957 M274.321 39.014 C 274.210 39.194,273.953 39.277,273.750 39.199 C 273.520 39.111,272.182 41.426,270.202 45.338 C 266.816 52.025,266.445 52.816,266.798 52.592 C 266.921 52.514,268.457 49.584,270.210 46.080 C 272.585 41.333,273.590 39.618,274.155 39.352 C 274.723 39.084,285.586 38.995,317.654 38.995 L 360.396 38.995 360.396 54.020 L 360.396 69.045 357.876 71.461 C 356.489 72.790,354.169 75.008,352.719 76.390 C 351.269 77.772,350.246 78.903,350.445 78.903 C 350.644 78.903,353.034 76.673,355.757 73.947 L 360.707 68.990 360.627 53.916 L 360.548 38.842 317.536 38.765 C 287.195 38.711,274.464 38.784,274.321 39.014 M171.265 42.854 C 171.319 43.133,171.569 43.418,171.820 43.486 C 172.196 43.589,172.202 43.558,171.857 43.317 C 171.626 43.155,171.532 42.871,171.647 42.684 C 171.762 42.498,171.701 42.346,171.511 42.346 C 171.322 42.346,171.211 42.574,171.265 42.854 M228.484 42.777 C 228.484 43.015,228.313 43.278,228.104 43.363 C 227.817 43.478,227.814 43.522,228.093 43.540 C 228.296 43.554,228.610 43.290,228.789 42.955 C 229.010 42.542,229.014 42.346,228.800 42.346 C 228.626 42.346,228.484 42.540,228.484 42.777 M129.170 44.636 C 129.170 44.912,132.275 50.876,132.419 50.876 C 132.495 50.876,132.506 50.773,132.445 50.647 C 129.609 44.867,129.170 44.061,129.170 44.636 M1.057 66.260 C 1.057 76.649,1.095 80.943,1.142 75.803 C 1.189 70.662,1.189 62.163,1.142 56.915 C 1.096 51.666,1.057 55.872,1.057 66.260 M132.521 51.409 C 132.521 51.554,132.720 51.939,132.963 52.265 C 133.389 52.835,133.398 52.832,133.231 52.166 C 133.057 51.478,132.521 50.906,132.521 51.409 M133.476 53.161 C 133.920 54.311,137.155 60.357,137.267 60.245 C 137.430 60.082,134.152 53.613,133.678 53.161 C 133.465 52.958,133.398 52.958,133.476 53.161 M264.273 57.025 C 263.146 59.256,262.084 61.256,261.914 61.470 C 261.743 61.683,261.682 61.936,261.778 62.032 C 261.874 62.128,262.223 61.679,262.553 61.035 C 262.883 60.390,263.923 58.369,264.865 56.543 C 265.806 54.717,266.519 53.165,266.449 53.095 C 266.379 53.025,265.399 54.793,264.273 57.025 M137.600 61.162 C 137.695 61.542,137.894 61.927,138.041 62.018 C 138.458 62.276,138.357 61.718,137.867 61.064 C 137.441 60.493,137.432 60.497,137.600 61.162 M218.431 62.579 C 218.431 62.817,218.260 63.080,218.050 63.165 C 217.763 63.280,217.761 63.324,218.040 63.342 C 218.243 63.356,218.556 63.092,218.736 62.757 C 218.957 62.344,218.960 62.148,218.746 62.148 C 218.573 62.148,218.431 62.342,218.431 62.579 M138.309 62.580 C 138.309 62.892,140.528 67.038,140.636 66.929 C 140.781 66.785,138.672 62.452,138.457 62.452 C 138.376 62.452,138.309 62.510,138.309 62.580 M261.081 63.062 C 260.887 63.426,260.796 63.792,260.880 63.875 C 260.964 63.959,261.191 63.730,261.386 63.366 C 261.581 63.003,261.672 62.636,261.588 62.553 C 261.504 62.469,261.276 62.698,261.081 63.062 M259.434 66.440 C 258.822 67.644,258.378 68.685,258.446 68.754 C 258.515 68.822,259.071 67.893,259.683 66.690 C 260.294 65.486,260.739 64.445,260.670 64.377 C 260.602 64.308,260.045 65.237,259.434 66.440 M182.788 65.499 C 182.967 65.834,183.280 66.097,183.484 66.084 C 183.763 66.066,183.760 66.022,183.473 65.906 C 183.264 65.822,183.092 65.559,183.092 65.321 C 183.092 65.084,182.950 64.890,182.777 64.890 C 182.563 64.890,182.566 65.086,182.788 65.499 M140.951 67.865 C 141.046 68.244,141.245 68.629,141.392 68.720 C 141.809 68.978,141.708 68.421,141.219 67.766 C 140.792 67.195,140.783 67.199,140.951 67.865 M141.853 69.608 C 142.220 70.564,144.122 73.844,143.954 73.230 C 143.754 72.503,141.984 69.155,141.799 69.155 C 141.733 69.155,141.758 69.359,141.853 69.608 M257.730 69.764 C 257.536 70.128,257.445 70.494,257.529 70.578 C 257.612 70.661,257.840 70.432,258.035 70.069 C 258.230 69.705,258.320 69.339,258.237 69.255 C 258.153 69.171,257.925 69.400,257.730 69.764 M86.215 70.293 C 86.214 70.421,90.768 70.486,96.334 70.437 L 106.453 70.349 107.000 71.047 L 107.547 71.744 107.280 70.982 L 107.013 70.221 96.614 70.141 C 90.894 70.097,86.215 70.165,86.215 70.293 M290.332 75.628 C 288.778 78.686,287.409 81.325,287.289 81.493 C 286.969 81.941,286.667 82.864,286.841 82.864 C 286.924 82.864,287.128 82.555,287.295 82.178 C 287.462 81.801,288.880 79.025,290.445 76.009 L 293.291 70.526 303.538 70.526 C 309.174 70.526,313.785 70.423,313.785 70.297 C 313.785 70.171,309.144 70.069,303.471 70.069 L 293.158 70.069 290.332 75.628 M86.824 70.791 C 86.824 70.900,88.743 72.856,91.089 75.138 L 95.354 79.287 95.354 166.949 L 95.354 254.611 93.464 256.247 C 92.425 257.147,91.357 258.088,91.091 258.340 C 90.663 258.745,87.742 261.310,85.153 263.553 C 84.648 263.991,83.001 265.461,81.493 266.820 L 78.751 269.291 55.007 269.299 C 32.372 269.307,31.291 269.282,31.857 268.774 C 32.184 268.481,33.477 267.350,34.730 266.260 C 35.984 265.171,37.490 263.845,38.078 263.314 C 38.666 262.782,39.490 262.053,39.909 261.694 C 40.327 261.335,41.617 260.193,42.774 259.157 C 43.931 258.121,45.097 257.093,45.364 256.873 C 45.631 256.654,45.687 256.516,45.489 256.569 C 45.211 256.642,39.122 261.817,38.385 262.606 C 38.302 262.696,36.554 264.256,34.501 266.073 C 32.449 267.890,30.769 269.430,30.769 269.494 C 30.769 269.559,41.570 269.612,54.772 269.612 L 78.774 269.612 80.895 267.745 C 82.062 266.719,83.497 265.451,84.085 264.927 C 84.673 264.404,86.181 263.085,87.436 261.996 C 88.691 260.907,89.787 259.947,89.871 259.863 C 89.954 259.779,91.188 258.684,92.612 257.430 C 94.037 256.176,95.303 255.010,95.426 254.840 C 95.549 254.671,95.652 215.036,95.654 166.764 L 95.659 78.996 93.755 77.219 C 92.708 76.242,90.720 74.351,89.337 73.018 C 87.955 71.684,86.824 70.682,86.824 70.791 M256.467 72.410 C 256.073 73.217,255.666 73.945,255.563 74.029 C 255.316 74.229,254.906 75.552,255.091 75.552 C 255.312 75.552,257.461 71.221,257.314 71.073 C 257.242 71.002,256.861 71.603,256.467 72.410 M311.923 71.835 C 311.485 72.288,309.600 74.112,307.734 75.889 L 304.341 79.119 304.341 166.838 L 304.341 254.557 305.636 255.766 C 308.302 258.257,309.290 259.091,309.178 258.761 C 309.115 258.574,308.069 257.560,306.855 256.508 L 304.646 254.595 304.641 166.978 L 304.636 79.360 308.946 75.171 C 311.316 72.867,313.135 70.989,312.987 70.997 C 312.840 71.005,312.361 71.382,311.923 71.835 M107.540 71.986 C 107.540 72.075,110.155 77.210,111.496 79.754 C 111.875 80.474,112.238 81.009,112.303 80.944 C 112.369 80.878,111.892 79.810,111.244 78.569 C 110.596 77.329,109.553 75.320,108.926 74.105 C 107.952 72.217,107.540 71.588,107.540 71.986 M144.458 74.792 C 144.649 75.211,144.847 75.514,144.897 75.464 C 145.082 75.279,144.626 74.029,144.373 74.029 C 144.229 74.029,144.267 74.372,144.458 74.792 M145.217 76.314 C 145.331 76.649,145.503 76.992,145.599 77.075 C 145.695 77.159,146.096 77.888,146.490 78.694 C 146.884 79.501,147.270 80.097,147.348 80.019 C 147.516 79.851,146.180 77.184,145.492 76.314 L 145.010 75.704 145.217 76.314 M254.390 76.446 C 254.004 77.167,253.986 77.471,254.343 77.250 C 254.611 77.084,255.031 75.857,254.818 75.857 C 254.756 75.857,254.563 76.122,254.390 76.446 M253.237 78.675 C 252.647 79.677,252.149 80.652,245.615 93.584 C 241.863 101.009,241.510 101.752,241.735 101.752 C 241.807 101.752,243.091 99.318,244.589 96.344 C 251.564 82.497,253.325 79.045,253.488 78.903 C 253.714 78.705,254.091 77.685,253.938 77.685 C 253.873 77.685,253.558 78.130,253.237 78.675 M349.023 79.868 C 348.715 80.203,348.521 80.534,348.590 80.603 C 348.659 80.672,349.037 80.387,349.430 79.968 C 349.823 79.550,350.018 79.219,349.863 79.233 C 349.708 79.247,349.330 79.533,349.023 79.868 M147.606 80.783 C 147.713 81.064,148.493 82.640,149.339 84.287 C 150.186 85.934,151.754 89.029,152.824 91.165 C 153.894 93.302,154.832 95.050,154.908 95.050 C 155.139 95.050,154.793 94.316,151.340 87.479 C 148.430 81.717,146.956 79.074,147.606 80.783 M346.112 82.754 C 345.041 83.820,344.287 84.689,344.436 84.687 C 344.780 84.681,348.372 81.090,348.192 80.933 C 348.118 80.869,347.182 81.688,346.112 82.754 M112.617 81.819 C 112.797 82.288,118.053 92.709,122.204 100.825 C 124.158 104.646,125.258 106.448,124.723 104.950 C 124.604 104.615,124.407 104.204,124.287 104.037 C 124.079 103.747,119.647 95.115,114.862 85.682 C 112.911 81.835,112.064 80.377,112.617 81.819 M285.329 85.329 C 284.717 86.532,284.273 87.573,284.341 87.642 C 284.410 87.710,284.966 86.781,285.578 85.578 C 286.189 84.374,286.634 83.333,286.565 83.265 C 286.496 83.196,285.940 84.125,285.329 85.329 M55.141 84.166 C 55.141 84.240,57.060 86.200,59.406 88.521 L 63.671 92.742 63.671 166.532 L 63.671 240.322 58.720 244.673 C 55.998 247.066,53.359 249.389,52.856 249.835 C 52.138 250.473,47.372 254.645,45.864 255.956 C 45.682 256.114,45.682 256.205,45.864 256.202 C 46.159 256.197,46.635 255.802,50.419 252.419 C 51.592 251.371,54.326 248.949,56.496 247.039 C 58.665 245.128,60.790 243.239,61.218 242.842 C 61.645 242.445,62.441 241.778,62.986 241.359 L 63.976 240.598 63.976 166.504 L 63.976 92.410 59.558 88.221 C 57.129 85.917,55.141 84.092,55.141 84.166 M339.909 88.818 L 336.024 92.589 336.037 166.553 L 336.049 240.518 339.312 243.341 C 341.106 244.893,343.071 246.607,343.678 247.149 C 344.285 247.691,346.267 249.436,348.082 251.028 C 349.897 252.620,351.747 254.265,352.192 254.684 C 353.531 255.943,356.821 258.810,357.959 259.709 C 359.104 260.615,356.451 257.969,354.445 256.207 C 353.778 255.621,351.588 253.701,349.579 251.942 C 347.569 250.183,345.788 248.594,345.621 248.412 C 345.453 248.230,344.151 247.076,342.727 245.848 C 341.302 244.620,339.280 242.865,338.233 241.948 L 336.329 240.280 336.329 166.494 L 336.329 92.708 340.175 88.992 C 342.291 86.948,343.970 85.224,343.907 85.162 C 343.844 85.099,342.045 86.744,339.909 88.818 M282.391 91.121 C 281.541 92.814,280.909 94.263,280.986 94.340 C 281.063 94.417,281.783 93.134,282.585 91.490 C 283.388 89.845,284.095 88.397,284.157 88.271 C 284.220 88.145,284.195 88.043,284.103 88.043 C 284.011 88.043,283.240 89.428,282.391 91.121 M202.479 93.679 C 202.576 93.930,202.503 94.136,202.317 94.136 C 202.132 94.136,201.980 94.281,201.980 94.458 C 201.980 94.906,202.521 94.528,202.903 93.814 C 203.152 93.349,203.121 93.222,202.762 93.222 C 202.480 93.222,202.371 93.397,202.479 93.679 M280.285 95.334 C 279.899 96.055,279.881 96.359,280.237 96.138 C 280.506 95.972,280.925 94.745,280.713 94.745 C 280.651 94.745,280.458 95.010,280.285 95.334 M155.065 95.482 C 155.065 95.800,157.284 99.938,157.395 99.828 C 157.530 99.692,155.390 95.354,155.188 95.354 C 155.120 95.354,155.065 95.412,155.065 95.482 M279.564 96.801 C 279.489 96.927,278.334 99.155,276.998 101.752 C 271.051 113.308,270.523 114.382,271.080 113.785 C 271.237 113.618,273.114 110.053,275.252 105.864 C 277.391 101.676,279.237 98.111,279.355 97.944 C 279.652 97.524,279.978 96.573,279.826 96.573 C 279.757 96.573,279.639 96.676,279.564 96.801 M160.243 105.653 C 161.789 108.720,163.110 111.173,163.179 111.104 C 163.331 110.952,158.195 100.810,157.749 100.381 C 157.575 100.213,158.697 102.586,160.243 105.653 M17.726 101.371 C 17.928 101.664,18.992 102.722,20.090 103.723 L 22.087 105.541 19.810 103.190 C 17.476 100.780,17.085 100.438,17.726 101.371 M240.009 104.538 C 238.467 107.536,238.076 108.429,238.493 107.997 C 238.928 107.546,241.578 102.253,241.438 102.113 C 241.372 102.047,240.729 103.138,240.009 104.538 M378.818 104.570 L 376.999 106.474 378.972 104.646 C 380.057 103.641,381.005 102.784,381.079 102.742 C 381.153 102.700,381.084 102.666,380.925 102.666 C 380.766 102.666,379.818 103.522,378.818 104.570 M125.005 106.144 C 125.118 106.437,125.209 106.802,125.209 106.956 C 125.209 107.109,125.334 107.235,125.486 107.235 C 125.840 107.235,125.542 106.070,125.121 105.810 C 124.920 105.685,124.877 105.810,125.005 106.144 M125.819 107.668 C 125.819 107.986,128.038 112.124,128.149 112.013 C 128.284 111.878,126.144 107.540,125.942 107.540 C 125.874 107.540,125.819 107.598,125.819 107.668 M237.343 109.696 C 236.979 110.394,236.739 111.022,236.810 111.093 C 236.881 111.164,237.237 110.651,237.600 109.954 C 237.964 109.256,238.203 108.627,238.133 108.556 C 238.062 108.486,237.706 108.998,237.343 109.696 M163.300 111.671 C 163.295 111.848,163.491 112.259,163.737 112.585 C 163.983 112.910,164.189 113.031,164.194 112.853 C 164.200 112.676,164.003 112.265,163.757 111.939 C 163.511 111.614,163.305 111.493,163.300 111.671 M236.101 112.110 C 235.906 112.473,235.815 112.840,235.899 112.923 C 235.983 113.007,236.210 112.778,236.405 112.414 C 236.600 112.051,236.691 111.684,236.607 111.601 C 236.523 111.517,236.295 111.746,236.101 112.110 M128.256 112.643 C 128.256 112.788,128.455 113.173,128.698 113.499 C 129.124 114.069,129.133 114.066,128.966 113.400 C 128.792 112.712,128.256 112.140,128.256 112.643 M164.287 113.557 C 164.353 113.682,164.647 114.310,164.941 114.952 C 165.234 115.594,165.541 116.053,165.622 115.972 C 165.791 115.804,164.583 113.328,164.332 113.328 C 164.242 113.328,164.222 113.431,164.287 113.557 M234.439 115.475 C 233.838 116.689,233.402 117.738,233.469 117.805 C 233.535 117.872,234.090 116.941,234.702 115.738 C 235.313 114.534,235.750 113.485,235.672 113.408 C 235.594 113.330,235.039 114.260,234.439 115.475 M129.170 114.370 C 129.170 114.688,131.389 118.826,131.500 118.716 C 131.635 118.580,129.495 114.242,129.293 114.242 C 129.225 114.242,129.170 114.300,129.170 114.370 M269.042 117.328 C 268.173 119.029,267.526 120.484,267.604 120.561 C 267.681 120.639,268.218 119.763,268.796 118.615 C 269.374 117.466,270.083 116.073,270.371 115.518 C 270.658 114.963,270.832 114.447,270.757 114.372 C 270.682 114.297,269.910 115.627,269.042 117.328 M165.932 116.913 C 166.027 117.292,166.226 117.677,166.373 117.768 C 166.790 118.026,166.689 117.469,166.199 116.814 C 165.773 116.243,165.764 116.247,165.932 116.913 M232.760 118.792 C 232.374 119.513,232.356 119.816,232.713 119.596 C 232.981 119.430,233.401 118.203,233.189 118.203 C 233.126 118.203,232.934 118.468,232.760 118.792 M131.607 119.292 C 131.607 119.456,131.794 119.861,132.022 120.191 C 132.250 120.522,133.500 122.889,134.800 125.453 C 136.099 128.016,137.216 130.060,137.282 129.994 C 137.415 129.861,132.311 119.737,131.881 119.284 C 131.708 119.102,131.607 119.105,131.607 119.292 M171.354 127.494 C 173.482 131.683,175.357 135.248,175.519 135.415 C 175.999 135.909,175.496 134.819,172.935 129.806 C 169.223 122.545,168.139 120.512,167.798 120.183 C 167.625 120.015,169.225 123.305,171.354 127.494 M231.257 121.745 C 230.746 122.688,230.249 123.751,230.151 124.106 C 229.983 124.720,231.885 121.440,232.252 120.484 C 232.632 119.493,232.137 120.121,231.257 121.745 M265.643 124.049 C 264.764 125.776,263.506 128.196,262.846 129.427 C 262.186 130.657,261.710 131.728,261.788 131.806 C 261.866 131.884,262.334 131.151,262.828 130.178 C 263.322 129.205,264.577 126.781,265.617 124.792 C 266.656 122.803,267.447 121.115,267.374 121.042 C 267.300 120.969,266.522 122.322,265.643 124.049 M228.309 127.422 C 226.945 130.177,218.624 146.549,215.889 151.858 C 214.941 153.697,214.166 155.267,214.166 155.346 C 214.166 155.836,215.127 154.092,218.516 147.449 C 227.982 128.894,229.973 124.905,229.769 124.908 C 229.649 124.910,228.992 126.041,228.309 127.422 M137.539 130.708 C 137.723 131.193,139.191 134.118,144.715 145.011 C 148.299 152.078,148.013 151.556,148.199 151.370 C 148.276 151.292,148.123 150.824,147.858 150.329 C 147.592 149.834,145.250 145.248,142.652 140.137 C 138.527 132.024,136.894 129.013,137.539 130.708 M260.334 134.363 C 259.715 135.559,259.271 136.600,259.347 136.676 C 259.423 136.752,259.985 135.829,260.597 134.626 C 261.208 133.422,261.653 132.381,261.584 132.313 C 261.515 132.244,260.953 133.167,260.334 134.363 M175.781 136.100 C 175.781 136.246,175.979 136.631,176.222 136.956 C 176.649 137.527,176.658 137.523,176.490 136.857 C 176.317 136.170,175.781 135.598,175.781 136.100 M258.655 137.680 C 258.269 138.401,258.251 138.705,258.608 138.484 C 258.876 138.318,259.296 137.091,259.083 137.091 C 259.021 137.091,258.828 137.356,258.655 137.680 M176.695 137.819 C 176.695 138.165,178.888 142.310,179.008 142.190 C 179.155 142.044,177.036 137.700,176.817 137.700 C 176.750 137.700,176.695 137.753,176.695 137.819 M257.623 139.756 C 257.388 140.217,255.392 144.124,253.188 148.439 C 250.984 152.753,249.288 156.278,249.419 156.272 C 249.550 156.266,250.145 155.272,250.742 154.063 C 251.338 152.855,253.189 149.193,254.854 145.925 C 256.520 142.658,257.981 139.745,258.101 139.452 C 258.448 138.607,258.095 138.832,257.623 139.756 M180.046 144.563 C 180.046 144.814,182.831 150.002,183.149 150.343 C 183.574 150.799,183.091 149.607,182.346 148.363 C 181.995 147.776,181.393 146.645,181.008 145.849 C 180.379 144.551,180.046 144.104,180.046 144.563 M183.397 150.968 C 183.397 151.310,185.607 155.393,185.727 155.273 C 185.796 155.205,185.355 154.170,184.747 152.974 C 183.747 151.006,183.397 150.485,183.397 150.968 M148.363 151.782 C 148.363 152.071,150.495 156.283,150.642 156.283 C 150.845 156.283,150.496 155.458,149.487 153.553 C 148.564 151.809,148.363 151.492,148.363 151.782 M185.834 155.802 C 185.834 156.114,188.052 160.259,188.161 160.151 C 188.306 160.006,186.197 155.674,185.982 155.674 C 185.901 155.674,185.834 155.732,185.834 155.802 M213.557 156.283 C 213.362 156.647,213.271 157.013,213.355 157.097 C 213.439 157.181,213.667 156.952,213.861 156.588 C 214.056 156.224,214.147 155.858,214.063 155.774 C 213.979 155.690,213.751 155.920,213.557 156.283 M150.800 156.816 C 150.800 156.962,150.999 157.347,151.242 157.672 C 151.668 158.243,151.677 158.239,151.509 157.573 C 151.336 156.886,150.800 156.314,150.800 156.816 M247.518 159.552 C 246.711 161.189,245.997 162.631,245.932 162.757 C 245.867 162.883,245.889 162.986,245.981 162.986 C 246.214 162.986,249.267 156.858,249.111 156.702 C 249.042 156.633,248.325 157.915,247.518 159.552 M211.909 159.662 C 211.297 160.866,210.853 161.907,210.922 161.975 C 210.990 162.044,211.547 161.115,212.158 159.911 C 212.770 158.708,213.214 157.667,213.145 157.598 C 213.077 157.530,212.520 158.458,211.909 159.662 M151.714 158.559 C 151.714 158.885,153.018 161.174,153.136 161.055 C 153.274 160.918,152.040 158.416,151.835 158.416 C 151.768 158.416,151.714 158.480,151.714 158.559 M188.486 161.005 C 189.103 162.518,192.368 168.739,192.483 168.624 C 192.626 168.480,188.980 161.182,188.525 160.701 C 188.342 160.508,188.328 160.619,188.486 161.005 M153.247 161.633 C 153.241 161.810,153.438 162.221,153.684 162.546 C 153.930 162.872,154.136 162.993,154.141 162.815 C 154.146 162.638,153.950 162.227,153.704 161.901 C 153.458 161.576,153.252 161.455,153.247 161.633 M210.216 162.966 C 209.830 163.687,209.812 163.990,210.169 163.770 C 210.438 163.604,210.857 162.376,210.645 162.376 C 210.583 162.376,210.390 162.641,210.216 162.966 M154.151 163.433 C 154.151 163.771,155.457 166.046,155.581 165.922 C 155.734 165.769,154.524 163.290,154.297 163.290 C 154.217 163.290,154.151 163.354,154.151 163.433 M245.336 163.823 C 245.231 164.117,245.088 164.494,245.018 164.661 C 244.948 164.829,245.106 164.700,245.370 164.374 C 245.849 163.784,245.993 163.290,245.687 163.290 C 245.598 163.290,245.440 163.530,245.336 163.823 M209.010 165.446 C 208.647 166.144,208.407 166.772,208.478 166.843 C 208.549 166.914,208.905 166.401,209.268 165.704 C 209.632 165.006,209.871 164.378,209.800 164.307 C 209.730 164.236,209.374 164.749,209.010 165.446 M242.492 169.445 C 241.276 171.841,239.469 175.357,238.477 177.260 C 237.485 179.163,236.735 180.782,236.811 180.858 C 236.886 180.933,237.560 179.787,238.307 178.312 C 239.054 176.836,240.857 173.315,242.313 170.488 C 243.770 167.660,244.903 165.289,244.832 165.218 C 244.762 165.147,243.708 167.050,242.492 169.445 M155.835 166.701 C 156.008 167.157,156.533 168.201,159.074 173.145 C 159.406 173.789,159.739 174.255,159.815 174.179 C 159.966 174.028,156.408 166.980,155.933 166.489 C 155.741 166.290,155.706 166.364,155.835 166.701 M207.768 167.530 C 207.768 167.684,207.677 168.049,207.564 168.342 C 207.436 168.676,207.479 168.800,207.680 168.676 C 208.101 168.416,208.399 167.251,208.045 167.251 C 207.893 167.251,207.768 167.376,207.768 167.530 M194.691 173.257 C 195.858 175.556,196.963 177.578,197.148 177.751 C 197.332 177.924,196.473 176.049,195.238 173.585 C 194.003 171.121,192.898 169.099,192.782 169.092 C 192.666 169.084,193.525 170.959,194.691 173.257 M205.625 171.992 C 204.759 173.595,204.119 174.974,204.203 175.058 C 204.286 175.142,204.675 174.551,205.065 173.744 C 205.455 172.937,206.062 171.797,206.413 171.211 C 207.100 170.064,207.520 169.078,207.323 169.078 C 207.256 169.078,206.492 170.390,205.625 171.992 M160.153 175.069 C 160.259 175.347,161.503 177.849,162.915 180.628 C 164.328 183.408,166.233 187.170,167.148 188.989 C 168.063 190.808,168.874 192.233,168.950 192.156 C 169.027 192.080,168.319 190.523,167.377 188.697 C 166.434 186.871,164.439 182.944,162.942 179.970 C 160.567 175.251,159.509 173.391,160.153 175.069 M203.167 176.741 C 202.791 177.470,201.918 179.184,201.227 180.552 L 199.972 183.038 199.274 181.517 C 198.890 180.681,198.511 180.063,198.430 180.143 C 198.349 180.224,198.646 181.006,199.089 181.880 C 199.533 182.755,200.009 183.351,200.148 183.205 C 200.599 182.732,204.130 175.697,203.988 175.555 C 203.913 175.479,203.543 176.013,203.167 176.741 M197.411 178.446 C 197.411 178.592,197.609 178.977,197.852 179.302 C 198.279 179.873,198.288 179.869,198.120 179.203 C 197.947 178.516,197.411 177.943,197.411 178.446 M235.323 183.428 C 234.724 184.618,234.298 185.656,234.376 185.734 C 234.454 185.812,234.968 184.942,235.517 183.799 C 236.067 182.656,236.568 181.618,236.631 181.493 C 236.694 181.367,236.671 181.264,236.579 181.264 C 236.488 181.264,235.922 182.238,235.323 183.428 M233.421 187.167 C 232.744 188.315,232.315 189.490,232.572 189.490 C 232.720 189.490,233.041 188.862,234.016 186.672 C 234.410 185.787,234.068 186.072,233.421 187.167 M231.878 190.327 C 229.516 194.772,226.717 200.457,226.890 200.457 C 227.013 200.457,227.393 199.874,227.735 199.162 C 228.077 198.450,229.172 196.291,230.167 194.364 C 232.154 190.517,232.490 189.794,232.293 189.794 C 232.221 189.794,232.034 190.034,231.878 190.327 M169.371 193.265 C 169.854 194.537,171.282 197.136,171.421 196.997 C 171.570 196.848,169.457 192.536,169.234 192.536 C 169.157 192.536,169.218 192.864,169.371 193.265 M172.430 199.162 C 172.430 199.308,172.628 199.693,172.871 200.018 C 173.298 200.588,173.307 200.585,173.139 199.919 C 172.966 199.231,172.430 198.659,172.430 199.162 M173.499 201.371 C 173.626 201.790,173.815 202.201,173.918 202.285 C 174.021 202.369,174.428 203.097,174.822 203.904 C 175.216 204.711,175.594 205.314,175.663 205.246 C 175.792 205.117,173.828 201.134,173.469 200.798 C 173.359 200.694,173.372 200.952,173.499 201.371 M225.582 202.522 C 224.410 204.822,224.176 205.394,224.481 205.206 C 224.817 204.998,226.750 201.058,226.593 200.901 C 226.526 200.834,226.071 201.563,225.582 202.522 M175.781 205.864 C 175.781 206.010,175.979 206.395,176.222 206.720 C 176.649 207.291,176.658 207.287,176.490 206.621 C 176.317 205.934,175.781 205.362,175.781 205.864 M223.706 206.169 C 223.601 206.462,223.459 206.839,223.388 207.007 C 223.318 207.174,223.476 207.045,223.740 206.720 C 224.219 206.130,224.363 205.636,224.057 205.636 C 223.968 205.636,223.810 205.876,223.706 206.169 M176.695 207.592 C 176.695 207.910,178.914 212.048,179.025 211.937 C 179.160 211.802,177.019 207.464,176.817 207.464 C 176.750 207.464,176.695 207.521,176.695 207.592 M221.962 209.624 C 221.351 210.828,220.914 211.876,220.992 211.954 C 221.070 212.032,221.625 211.102,222.225 209.887 C 222.826 208.672,223.262 207.624,223.195 207.557 C 223.129 207.490,222.574 208.420,221.962 209.624 M264.433 210.815 C 264.212 211.228,264.208 211.424,264.422 211.424 C 264.595 211.424,264.737 211.230,264.737 210.993 C 264.737 210.755,264.909 210.492,265.118 210.407 C 265.405 210.292,265.408 210.248,265.129 210.230 C 264.925 210.216,264.612 210.480,264.433 210.815 M179.336 212.876 C 179.432 213.256,179.630 213.641,179.778 213.732 C 180.195 213.989,180.093 213.432,179.604 212.777 C 179.178 212.207,179.168 212.210,179.336 212.876 M220.259 212.947 C 220.064 213.311,219.973 213.677,220.057 213.761 C 220.141 213.845,220.369 213.616,220.564 213.252 C 220.758 212.888,220.849 212.522,220.765 212.438 C 220.682 212.355,220.454 212.584,220.259 212.947 M262.909 213.557 C 262.688 213.970,262.685 214.166,262.899 214.166 C 263.072 214.166,263.214 213.972,263.214 213.734 C 263.214 213.497,263.385 213.234,263.595 213.149 C 263.882 213.033,263.884 212.990,263.606 212.971 C 263.402 212.958,263.089 213.222,262.909 213.557 M180.106 214.318 C 180.160 214.486,181.053 216.268,182.089 218.279 C 183.126 220.289,184.714 223.374,185.619 225.133 L 187.263 228.332 200.003 228.332 L 212.743 228.332 213.479 227.010 C 213.883 226.283,214.148 225.623,214.069 225.544 C 213.989 225.464,213.611 226.024,213.229 226.789 L 212.535 228.180 200.022 228.180 L 187.510 228.179 184.208 221.651 C 181.423 216.146,179.701 213.066,180.106 214.318 M217.512 218.486 C 216.303 220.885,215.040 223.301,214.705 223.855 C 214.371 224.408,214.166 224.931,214.252 225.016 C 214.337 225.101,214.606 224.786,214.849 224.314 C 218.714 216.825,219.938 214.353,219.834 214.249 C 219.765 214.180,218.720 216.087,217.512 218.486 M25.133 223.234 C 24.966 223.357,24.627 223.732,24.381 224.067 C 24.050 224.517,24.150 224.483,24.762 223.938 C 25.507 223.273,25.734 222.992,25.514 223.005 C 25.472 223.008,25.301 223.111,25.133 223.234 M241.889 254.989 C 241.668 255.402,241.664 255.598,241.878 255.598 C 242.052 255.598,242.193 255.404,242.193 255.166 C 242.193 254.929,242.365 254.666,242.574 254.581 C 242.861 254.465,242.864 254.421,242.585 254.403 C 242.381 254.390,242.068 254.653,241.889 254.989 M311.043 260.509 C 311.965 261.410,313.679 262.985,314.851 264.009 C 316.024 265.032,317.938 266.711,319.105 267.740 L 321.226 269.612 345.228 269.612 C 366.528 269.612,370.440 269.503,368.958 268.952 C 368.808 268.896,367.677 267.946,366.444 266.841 C 361.151 262.095,359.177 260.436,359.177 260.734 C 359.177 260.908,359.368 261.161,359.600 261.295 C 359.833 261.429,361.101 262.517,362.418 263.712 C 363.736 264.908,365.366 266.347,366.042 266.911 C 366.718 267.475,367.601 268.244,368.004 268.621 L 368.736 269.307 344.993 269.299 L 321.249 269.291 318.639 266.938 C 311.357 260.373,308.002 257.533,311.043 260.509 M301.057 302.812 C 301.264 303.144,301.639 303.494,301.890 303.591 C 302.141 303.687,302.018 303.415,301.615 302.987 C 300.738 302.054,300.546 301.993,301.057 302.812 " stroke="none" fill="#5b5861" fill-rule="evenodd"></path><path id="path4" d="M0.305 23.897 C 0.305 39.499,0.410 47.859,0.609 47.982 C 0.811 48.107,0.914 40.064,0.914 24.085 C 0.914 8.231,0.810 0.000,0.609 0.000 C 0.409 0.000,0.305 8.169,0.305 23.897 M249.505 0.914 C 249.505 1.249,249.360 1.523,249.182 1.523 C 249.005 1.523,248.952 1.672,249.064 1.854 C 249.314 2.258,249.670 1.909,249.948 0.990 C 250.073 0.578,250.026 0.305,249.830 0.305 C 249.651 0.305,249.505 0.579,249.505 0.914 M150.103 1.223 C 150.299 1.970,150.690 2.252,150.949 1.833 C 151.054 1.663,150.995 1.523,150.818 1.523 C 150.640 1.523,150.495 1.318,150.495 1.066 C 150.495 0.815,150.371 0.609,150.219 0.609 C 150.067 0.609,150.015 0.886,150.103 1.223 M151.017 3.051 C 151.106 3.389,151.322 3.754,151.498 3.863 C 151.699 3.987,151.741 3.863,151.613 3.528 C 151.501 3.236,151.409 2.871,151.409 2.717 C 151.409 2.563,151.285 2.437,151.133 2.437 C 150.981 2.437,150.929 2.713,151.017 3.051 M248.591 2.894 C 248.591 3.145,248.446 3.351,248.268 3.351 C 248.091 3.351,248.032 3.490,248.137 3.661 C 248.242 3.831,248.440 3.902,248.575 3.818 C 248.943 3.591,249.187 2.437,248.867 2.437 C 248.715 2.437,248.591 2.643,248.591 2.894 M152.295 5.407 C 152.652 6.120,153.113 6.691,153.319 6.678 C 153.609 6.660,153.608 6.619,153.313 6.500 C 153.104 6.416,152.932 6.147,152.932 5.902 C 152.932 5.658,152.643 5.155,152.289 4.785 L 151.646 4.113 152.295 5.407 M247.783 4.755 C 247.665 5.072,247.422 5.432,247.242 5.555 C 247.020 5.707,247.034 5.780,247.286 5.784 C 247.704 5.789,248.427 4.609,248.166 4.348 C 248.072 4.254,247.900 4.437,247.783 4.755 M153.237 7.235 C 153.237 7.723,154.098 8.684,154.329 8.453 C 154.454 8.328,154.397 8.225,154.202 8.225 C 154.006 8.225,153.846 8.028,153.846 7.786 C 153.846 7.545,153.709 7.263,153.542 7.159 C 153.374 7.056,153.237 7.090,153.237 7.235 M246.154 7.768 C 246.154 8.020,246.009 8.225,245.831 8.225 C 245.654 8.225,245.595 8.365,245.700 8.535 C 245.805 8.705,246.002 8.776,246.138 8.692 C 246.506 8.465,246.749 7.312,246.430 7.312 C 246.278 7.312,246.154 7.517,246.154 7.768 M154.690 10.198 C 155.268 11.359,155.710 11.626,155.458 10.663 C 155.370 10.327,155.177 10.053,155.029 10.053 C 154.881 10.053,154.760 9.848,154.760 9.596 C 154.760 9.345,154.626 9.139,154.462 9.139 C 154.298 9.139,154.401 9.616,154.690 10.198 M245.240 9.596 C 245.240 9.848,245.103 10.053,244.935 10.053 C 244.768 10.053,244.631 10.190,244.631 10.358 C 244.631 10.934,245.143 10.662,245.489 9.901 C 245.700 9.438,245.719 9.139,245.538 9.139 C 245.374 9.139,245.240 9.345,245.240 9.596 M155.885 12.469 C 156.045 13.083,156.893 13.605,156.893 13.090 C 156.893 12.928,156.756 12.795,156.588 12.795 C 156.420 12.795,156.283 12.589,156.283 12.338 C 156.283 12.087,156.159 11.881,156.007 11.881 C 155.855 11.881,155.800 12.146,155.885 12.469 M243.488 12.642 C 242.987 13.211,243.006 13.424,243.541 13.219 C 243.998 13.043,244.462 12.178,244.088 12.197 C 243.968 12.204,243.698 12.404,243.488 12.642 M156.806 14.242 C 156.915 14.535,157.340 15.392,157.751 16.146 C 158.162 16.900,158.651 17.825,158.838 18.200 C 159.260 19.049,159.633 19.099,159.418 18.279 C 159.330 17.944,159.138 17.669,158.990 17.669 C 158.842 17.669,158.720 17.464,158.720 17.212 C 158.720 16.961,158.594 16.756,158.440 16.756 C 158.286 16.756,158.069 16.344,157.959 15.842 C 157.848 15.339,157.632 14.928,157.478 14.928 C 157.323 14.928,157.197 14.653,157.197 14.318 C 157.197 13.983,157.064 13.709,156.902 13.709 C 156.740 13.709,156.696 13.949,156.806 14.242 M242.587 14.780 C 242.384 15.000,242.129 15.535,242.020 15.968 C 241.912 16.401,241.717 16.756,241.587 16.756 C 241.457 16.756,241.279 17.030,241.191 17.365 C 240.887 18.527,241.436 17.954,242.268 16.241 C 243.137 14.453,243.214 14.099,242.587 14.780 M160.853 22.163 C 160.853 22.651,161.715 23.612,161.945 23.381 C 162.071 23.256,162.013 23.153,161.818 23.153 C 161.622 23.153,161.462 22.956,161.462 22.714 C 161.462 22.473,161.325 22.190,161.158 22.087 C 160.990 21.983,160.853 22.018,160.853 22.163 M238.350 23.386 C 238.163 23.509,237.914 23.919,237.797 24.296 C 237.679 24.673,237.471 24.981,237.334 24.981 C 237.197 24.981,237.018 25.334,236.935 25.766 C 236.853 26.197,236.889 26.437,237.015 26.299 C 237.277 26.011,238.866 23.151,238.760 23.158 C 238.722 23.160,238.537 23.263,238.350 23.386 M161.767 23.915 C 161.767 24.101,163.029 26.504,163.126 26.504 C 163.170 26.504,163.140 26.161,163.060 25.743 C 162.980 25.324,162.779 24.981,162.613 24.981 C 162.447 24.981,162.386 24.787,162.477 24.549 C 162.568 24.312,162.445 24.042,162.205 23.949 C 161.964 23.857,161.767 23.842,161.767 23.915 M163.290 27.037 C 163.290 27.525,164.152 28.486,164.382 28.255 C 164.508 28.130,164.450 28.027,164.255 28.027 C 164.059 28.027,163.899 27.830,163.899 27.588 C 163.899 27.347,163.762 27.065,163.595 26.961 C 163.427 26.858,163.290 26.892,163.290 27.037 M236.196 27.342 C 236.092 27.635,235.949 28.012,235.879 28.180 C 235.808 28.347,235.967 28.218,236.230 27.893 C 236.709 27.302,236.854 26.809,236.548 26.809 C 236.459 26.809,236.301 27.049,236.196 27.342 M164.204 28.762 C 164.204 29.348,165.541 31.342,165.819 31.170 C 166.056 31.023,166.047 30.927,165.788 30.840 C 165.587 30.773,165.423 30.524,165.423 30.287 C 165.423 30.050,165.286 29.855,165.118 29.855 C 164.950 29.855,164.813 29.658,164.813 29.416 C 164.813 29.175,164.676 28.893,164.509 28.789 C 164.341 28.685,164.204 28.673,164.204 28.762 M235.187 29.398 C 235.187 29.650,235.060 29.855,234.906 29.855 C 234.752 29.855,234.535 30.267,234.425 30.769 C 234.315 31.272,234.098 31.683,233.944 31.683 C 233.790 31.683,233.663 31.877,233.663 32.115 C 233.663 32.352,233.499 32.601,233.298 32.668 C 233.038 32.755,233.029 32.850,233.268 32.998 C 233.474 33.126,234.024 32.381,234.688 31.074 C 235.284 29.901,235.640 28.941,235.479 28.941 C 235.318 28.941,235.187 29.147,235.187 29.398 M165.995 32.353 C 166.258 33.066,166.946 33.481,166.946 32.927 C 166.946 32.746,166.809 32.597,166.641 32.597 C 166.474 32.597,166.337 32.391,166.337 32.140 C 166.337 31.889,166.204 31.683,166.042 31.683 C 165.866 31.683,165.847 31.954,165.995 32.353 M167.148 34.494 C 167.456 35.118,167.806 35.632,167.926 35.636 C 168.263 35.648,167.806 34.649,167.163 33.968 C 166.599 33.370,166.599 33.381,167.148 34.494 M232.838 34.044 C 232.730 34.337,232.494 34.691,232.315 34.829 C 232.104 34.991,232.140 35.040,232.416 34.966 C 232.812 34.859,233.527 33.511,233.187 33.511 C 233.103 33.511,232.946 33.751,232.838 34.044 M231.940 35.885 C 231.844 36.255,231.643 36.558,231.495 36.558 C 231.347 36.558,231.226 36.752,231.226 36.989 C 231.226 37.226,231.055 37.490,230.845 37.574 C 230.583 37.680,230.575 37.735,230.821 37.752 C 231.257 37.781,232.593 35.690,232.315 35.412 C 232.206 35.303,232.037 35.516,231.940 35.885 M168.460 37.150 C 168.842 37.864,169.383 38.241,169.383 37.794 C 169.383 37.617,169.246 37.471,169.078 37.471 C 168.911 37.471,168.774 37.266,168.774 37.014 C 168.774 36.763,168.632 36.558,168.458 36.558 C 168.242 36.558,168.242 36.743,168.460 37.150 M169.618 39.444 C 170.195 40.605,170.637 40.872,170.385 39.909 C 170.298 39.573,170.105 39.299,169.957 39.299 C 169.809 39.299,169.688 39.094,169.688 38.842 C 169.688 38.591,169.554 38.385,169.390 38.385 C 169.226 38.385,169.328 38.862,169.618 39.444 M230.312 38.842 C 230.312 39.094,230.175 39.299,230.008 39.299 C 229.840 39.299,229.703 39.444,229.703 39.622 C 229.703 40.069,230.244 39.692,230.626 38.978 C 230.844 38.570,230.844 38.385,230.628 38.385 C 230.454 38.385,230.312 38.591,230.312 38.842 M171.820 43.832 C 171.820 44.020,171.957 44.174,172.125 44.174 C 172.292 44.174,172.430 44.371,172.430 44.613 C 172.430 44.854,172.554 45.128,172.706 45.222 C 173.138 45.490,172.719 44.236,172.244 43.842 C 171.937 43.586,171.820 43.584,171.820 43.832 M227.687 43.809 C 227.263 44.088,226.939 45.392,227.294 45.392 C 227.446 45.392,227.570 45.129,227.570 44.808 C 227.570 44.487,227.742 44.163,227.951 44.088 C 228.161 44.014,228.260 43.873,228.171 43.775 C 228.082 43.677,227.865 43.693,227.687 43.809 M173.191 46.150 C 173.526 46.418,173.741 46.665,173.669 46.700 C 173.356 46.850,173.934 48.132,174.305 48.110 C 174.613 48.092,174.620 48.048,174.334 47.932 C 174.124 47.848,173.953 47.452,173.953 47.053 C 173.953 46.602,173.693 46.202,173.267 45.995 C 172.598 45.671,172.596 45.675,173.191 46.150 M226.787 45.930 C 226.381 46.208,225.987 47.221,226.285 47.218 C 226.406 47.216,226.663 46.874,226.856 46.456 C 227.050 46.039,227.187 45.699,227.161 45.702 C 227.135 45.704,226.966 45.807,226.787 45.930 M225.238 48.985 C 225.141 49.355,224.941 49.657,224.793 49.657 C 224.645 49.657,224.524 49.851,224.524 50.089 C 224.524 50.326,224.359 50.575,224.158 50.642 C 223.899 50.729,223.890 50.825,224.128 50.972 C 224.488 51.194,225.901 48.801,225.592 48.492 C 225.494 48.393,225.335 48.615,225.238 48.985 M175.083 50.267 C 175.171 50.602,175.466 50.865,175.740 50.852 C 176.056 50.837,176.099 50.772,175.857 50.674 C 175.647 50.590,175.476 50.326,175.476 50.089 C 175.476 49.851,175.352 49.657,175.200 49.657 C 175.048 49.657,174.995 49.931,175.083 50.267 M176.912 53.762 C 177.627 55.207,178.124 55.903,178.271 55.666 C 178.399 55.461,178.370 55.248,178.208 55.192 C 178.046 55.136,177.913 54.896,177.913 54.659 C 177.913 54.421,177.787 54.227,177.633 54.227 C 177.478 54.227,177.262 53.816,177.152 53.313 C 177.041 52.810,176.825 52.399,176.670 52.399 C 176.516 52.399,176.390 52.193,176.390 51.942 C 176.390 51.691,176.254 51.485,176.088 51.485 C 175.922 51.485,176.293 52.510,176.912 53.762 M223.610 51.942 C 223.610 52.193,223.465 52.399,223.287 52.399 C 223.110 52.399,223.051 52.538,223.156 52.709 C 223.261 52.879,223.459 52.950,223.594 52.866 C 223.962 52.639,224.206 51.485,223.886 51.485 C 223.734 51.485,223.610 51.691,223.610 51.942 M222.696 53.770 C 222.696 54.021,222.574 54.227,222.424 54.227 C 222.152 54.227,221.657 55.727,221.862 55.932 C 221.923 55.992,222.270 55.428,222.635 54.677 C 222.999 53.927,223.162 53.313,222.997 53.313 C 222.831 53.313,222.696 53.519,222.696 53.770 M178.522 56.969 C 178.702 57.304,179.015 57.567,179.219 57.554 C 179.498 57.536,179.495 57.492,179.208 57.376 C 178.998 57.292,178.827 57.028,178.827 56.791 C 178.827 56.554,178.685 56.359,178.512 56.359 C 178.298 56.359,178.301 56.556,178.522 56.969 M221.173 56.791 C 221.173 57.028,221.008 57.278,220.807 57.345 C 220.562 57.426,220.547 57.532,220.763 57.665 C 220.939 57.774,221.238 57.525,221.426 57.112 C 221.636 56.652,221.653 56.359,221.471 56.359 C 221.307 56.359,221.173 56.554,221.173 56.791 M179.209 58.214 C 180.011 60.128,180.798 61.086,180.439 59.711 C 180.351 59.375,180.158 59.101,180.010 59.101 C 179.862 59.101,179.741 58.904,179.741 58.662 C 179.741 58.421,179.581 58.124,179.385 58.003 C 179.155 57.861,179.093 57.936,179.209 58.214 M220.259 58.644 C 220.259 58.896,220.122 59.101,219.954 59.101 C 219.787 59.101,219.650 59.246,219.650 59.424 C 219.650 59.871,220.191 59.494,220.573 58.780 C 220.791 58.372,220.791 58.187,220.574 58.187 C 220.401 58.187,220.259 58.393,220.259 58.644 M219.345 60.472 C 219.345 60.724,219.208 60.929,219.040 60.929 C 218.873 60.929,218.736 61.135,218.736 61.386 C 218.736 61.637,218.599 61.843,218.431 61.843 C 218.264 61.843,218.126 61.976,218.126 62.138 C 218.126 62.300,218.298 62.364,218.507 62.279 C 219.000 62.081,220.036 60.015,219.643 60.015 C 219.479 60.015,219.345 60.221,219.345 60.472 M180.772 61.406 C 181.123 62.161,181.874 62.660,181.874 62.138 C 181.874 61.976,181.736 61.843,181.569 61.843 C 181.401 61.843,181.264 61.652,181.264 61.419 C 181.264 61.185,181.077 60.922,180.848 60.835 C 180.512 60.705,180.497 60.815,180.772 61.406 M181.883 63.604 C 181.896 63.896,182.658 64.890,182.869 64.890 C 183.212 64.890,182.710 63.706,182.301 63.549 C 182.066 63.459,181.878 63.484,181.883 63.604 M216.646 65.790 C 216.293 66.468,216.059 67.022,216.126 67.022 C 216.360 67.022,217.586 64.857,217.437 64.708 C 217.355 64.626,216.999 65.113,216.646 65.790 M215.201 68.486 C 214.750 68.786,214.432 69.764,214.785 69.764 C 214.947 69.764,215.080 69.570,215.080 69.332 C 215.080 69.095,215.251 68.840,215.461 68.765 C 215.670 68.690,215.769 68.549,215.680 68.451 C 215.592 68.354,215.376 68.369,215.201 68.486 M185.834 71.211 C 185.834 71.699,186.695 72.660,186.926 72.429 C 187.051 72.304,186.994 72.201,186.799 72.201 C 186.603 72.201,186.443 72.004,186.443 71.762 C 186.443 71.521,186.306 71.238,186.139 71.135 C 185.971 71.031,185.834 71.066,185.834 71.211 M213.662 71.472 C 213.545 71.789,213.302 72.149,213.122 72.273 C 212.900 72.425,212.914 72.498,213.165 72.501 C 213.583 72.506,214.307 71.326,214.046 71.065 C 213.952 70.972,213.780 71.155,213.662 71.472 M186.748 72.963 C 186.748 73.238,188.046 75.574,188.144 75.476 C 188.355 75.266,187.884 74.029,187.594 74.029 C 187.428 74.029,187.367 73.835,187.458 73.597 C 187.549 73.360,187.426 73.090,187.186 72.997 C 186.945 72.905,186.748 72.890,186.748 72.963 M212.748 73.357 C 212.651 73.726,212.451 74.029,212.303 74.029 C 212.155 74.029,212.034 74.235,212.034 74.486 C 212.034 74.737,211.901 74.943,211.738 74.943 C 211.576 74.943,211.527 75.160,211.629 75.426 C 211.763 75.775,212.018 75.508,212.543 74.472 C 212.944 73.681,213.194 72.955,213.098 72.859 C 213.002 72.763,212.844 72.987,212.748 73.357 M188.271 76.046 C 188.271 76.540,189.117 77.549,189.343 77.324 C 189.457 77.209,189.263 76.807,188.911 76.429 C 188.559 76.051,188.271 75.879,188.271 76.046 M211.120 76.593 C 211.120 76.830,210.948 77.094,210.739 77.178 C 210.452 77.294,210.449 77.338,210.728 77.356 C 210.932 77.369,211.245 77.106,211.424 76.771 C 211.645 76.358,211.649 76.161,211.435 76.161 C 211.261 76.161,211.120 76.356,211.120 76.593 M210.311 78.174 C 210.194 78.491,209.951 78.852,209.771 78.975 C 209.549 79.127,209.563 79.200,209.814 79.203 C 210.232 79.209,210.956 78.028,210.694 77.767 C 210.601 77.674,210.429 77.857,210.311 78.174 M190.012 79.517 C 190.207 80.264,190.598 80.546,190.858 80.127 C 190.963 79.957,190.904 79.817,190.726 79.817 C 190.549 79.817,190.404 79.612,190.404 79.360 C 190.404 79.109,190.279 78.903,190.128 78.903 C 189.976 78.903,189.924 79.180,190.012 79.517 M209.396 80.059 C 209.300 80.429,209.100 80.731,208.952 80.731 C 208.804 80.731,208.682 80.925,208.682 81.163 C 208.682 81.400,208.518 81.649,208.317 81.716 C 208.058 81.803,208.049 81.899,208.286 82.046 C 208.646 82.268,210.060 79.874,209.751 79.565 C 209.653 79.467,209.493 79.689,209.396 80.059 M190.926 81.345 C 191.121 82.092,191.512 82.374,191.771 81.955 C 191.877 81.784,191.818 81.645,191.640 81.645 C 191.463 81.645,191.318 81.439,191.318 81.188 C 191.318 80.937,191.193 80.731,191.041 80.731 C 190.890 80.731,190.838 81.007,190.926 81.345 M192.162 83.618 C 192.739 84.778,193.181 85.046,192.929 84.082 C 192.841 83.747,192.649 83.473,192.501 83.473 C 192.353 83.473,192.232 83.267,192.232 83.016 C 192.232 82.765,192.097 82.559,191.933 82.559 C 191.769 82.559,191.872 83.035,192.162 83.618 M207.768 83.016 C 207.768 83.267,207.647 83.473,207.499 83.473 C 207.351 83.473,207.159 83.747,207.071 84.082 C 206.983 84.417,207.036 84.692,207.188 84.692 C 207.340 84.692,207.464 84.486,207.464 84.235 C 207.464 83.983,207.585 83.778,207.733 83.778 C 207.881 83.778,208.074 83.503,208.161 83.168 C 208.249 82.833,208.196 82.559,208.045 82.559 C 207.893 82.559,207.768 82.765,207.768 83.016 M397.461 86.570 C 397.154 86.905,396.959 87.236,397.029 87.305 C 397.098 87.374,397.476 87.089,397.869 86.671 C 398.262 86.252,398.456 85.922,398.301 85.936 C 398.147 85.949,397.768 86.235,397.461 86.570 M2.437 86.991 C 2.437 87.364,6.690 91.448,6.974 91.349 C 7.143 91.290,6.403 90.401,5.331 89.373 C 4.259 88.345,3.306 87.580,3.214 87.672 C 3.122 87.764,3.046 87.611,3.046 87.332 C 3.046 87.053,2.909 86.824,2.742 86.824 C 2.574 86.824,2.437 86.899,2.437 86.991 M194.599 88.492 C 195.176 89.653,195.618 89.920,195.366 88.957 C 195.279 88.621,195.086 88.347,194.938 88.347 C 194.790 88.347,194.669 88.142,194.669 87.890 C 194.669 87.639,194.535 87.433,194.370 87.433 C 194.206 87.433,194.309 87.910,194.599 88.492 M205.331 87.890 C 205.331 88.142,205.194 88.347,205.027 88.347 C 204.859 88.347,204.722 88.480,204.722 88.642 C 204.722 88.805,204.914 88.864,205.149 88.774 C 205.634 88.587,206.029 87.433,205.607 87.433 C 205.456 87.433,205.331 87.639,205.331 87.890 M393.962 90.099 C 393.150 90.895,391.566 92.420,390.442 93.488 C 389.317 94.556,388.465 95.497,388.547 95.579 C 388.629 95.661,389.368 95.027,390.190 94.170 C 391.011 93.313,391.790 92.612,391.921 92.612 C 392.051 92.612,393.049 91.721,394.138 90.632 C 395.227 89.543,395.966 88.652,395.778 88.652 C 395.591 88.652,394.774 89.303,393.962 90.099 M7.616 91.827 C 7.616 92.081,10.436 94.768,10.566 94.638 C 10.639 94.565,10.059 93.873,9.276 93.102 C 7.925 91.770,7.616 91.532,7.616 91.827 M197.411 93.755 C 197.411 93.945,197.550 94.186,197.720 94.291 C 197.890 94.396,197.957 94.600,197.867 94.745 C 197.778 94.889,197.835 95.088,197.994 95.186 C 198.600 95.560,198.631 94.722,198.035 94.082 C 197.692 93.713,197.411 93.566,197.411 93.755 M198.592 96.329 C 198.728 96.697,198.989 97.048,199.172 97.109 C 199.399 97.185,199.390 96.975,199.142 96.442 C 198.701 95.490,198.247 95.397,198.592 96.329 M201.066 95.939 C 201.066 96.092,200.974 96.458,200.862 96.750 C 200.734 97.085,200.777 97.209,200.978 97.084 C 201.399 96.824,201.697 95.659,201.342 95.659 C 201.191 95.659,201.066 95.785,201.066 95.939 M387.245 96.441 C 386.852 96.849,386.662 97.182,386.821 97.182 C 387.173 97.182,388.269 96.012,388.087 95.830 C 388.016 95.759,387.637 96.034,387.245 96.441 M12.795 96.691 C 12.795 96.807,13.069 97.197,13.404 97.557 C 13.740 97.917,14.014 98.069,14.014 97.896 C 14.014 97.723,13.740 97.333,13.404 97.030 C 13.069 96.726,12.795 96.574,12.795 96.691 M199.548 98.020 C 199.724 98.397,199.928 98.705,200.000 98.705 C 200.072 98.705,200.280 98.397,200.463 98.020 C 200.754 97.419,200.744 97.397,200.381 97.844 C 199.994 98.320,199.943 98.320,199.597 97.844 C 199.290 97.423,199.282 97.453,199.548 98.020 M16.107 100.076 C 18.299 102.508,19.304 103.579,19.866 104.085 C 20.082 104.279,20.533 104.786,20.868 105.213 C 21.203 105.640,21.639 105.995,21.836 106.003 C 22.033 106.010,22.887 106.702,23.733 107.540 C 24.580 108.378,25.378 109.061,25.508 109.058 C 25.637 109.055,24.783 108.140,23.610 107.025 C 22.437 105.910,19.837 103.411,17.831 101.471 C 15.289 99.012,14.767 98.590,16.107 100.076 M382.520 101.126 C 381.391 102.290,379.070 104.548,377.363 106.143 C 375.655 107.738,374.353 109.047,374.469 109.053 C 374.585 109.059,375.202 108.584,375.840 107.998 C 376.478 107.413,377.100 106.933,377.223 106.932 C 377.441 106.931,379.148 105.186,382.961 101.066 C 385.452 98.375,385.148 98.416,382.520 101.126 M134.653 209.986 C 134.653 210.274,134.791 210.510,134.958 210.510 C 135.126 210.510,135.263 210.708,135.263 210.949 C 135.263 211.191,135.398 211.472,135.564 211.574 C 135.930 211.801,135.633 210.910,135.060 210.062 C 134.705 209.537,134.653 209.527,134.653 209.986 M263.897 212.029 C 263.410 212.809,263.420 212.966,263.946 212.764 C 264.381 212.597,264.846 211.424,264.477 211.424 C 264.366 211.424,264.104 211.697,263.897 212.029 M135.989 212.815 C 136.176 213.217,136.482 213.606,136.669 213.679 C 136.920 213.776,136.920 213.619,136.669 213.080 C 136.482 212.678,136.176 212.289,135.989 212.216 C 135.738 212.119,135.738 212.276,135.989 212.815 M263.053 214.106 C 262.450 214.538,261.958 215.685,262.457 215.493 C 262.706 215.398,262.909 215.140,262.909 214.920 C 262.909 214.701,263.081 214.460,263.290 214.385 C 263.500 214.311,263.598 214.170,263.510 214.072 C 263.421 213.974,263.216 213.990,263.053 214.106 M137.002 214.775 C 137.090 215.110,137.283 215.385,137.431 215.385 C 137.579 215.385,137.700 215.590,137.700 215.842 C 137.700 216.093,137.834 216.299,137.998 216.299 C 138.162 216.299,138.059 215.822,137.770 215.240 C 137.192 214.079,136.750 213.812,137.002 214.775 M261.316 217.068 C 261.027 217.650,260.924 218.126,261.088 218.126 C 261.252 218.126,261.386 217.921,261.386 217.669 C 261.386 217.418,261.507 217.212,261.655 217.212 C 261.803 217.212,261.996 216.938,262.084 216.603 C 262.336 215.640,261.894 215.907,261.316 217.068 M138.169 216.888 C 138.059 217.066,138.114 217.212,138.291 217.212 C 138.469 217.212,138.614 217.418,138.614 217.669 C 138.614 217.921,138.756 218.126,138.929 218.126 C 139.134 218.126,139.120 217.887,138.888 217.441 C 138.410 216.522,138.400 216.515,138.169 216.888 M139.083 218.715 C 138.973 218.894,139.028 219.040,139.205 219.040 C 139.383 219.040,139.528 219.246,139.528 219.497 C 139.528 219.749,139.670 219.954,139.843 219.954 C 140.048 219.954,140.034 219.715,139.802 219.269 C 139.324 218.350,139.314 218.343,139.083 218.715 M260.219 219.202 C 260.009 219.662,259.992 219.954,260.174 219.954 C 260.338 219.954,260.472 219.760,260.472 219.523 C 260.472 219.285,260.637 219.036,260.838 218.969 C 261.083 218.887,261.098 218.782,260.883 218.649 C 260.706 218.540,260.407 218.789,260.219 219.202 M258.588 222.571 C 257.971 223.813,257.595 224.829,257.751 224.829 C 257.907 224.829,258.035 224.623,258.035 224.372 C 258.035 224.120,258.161 223.915,258.315 223.915 C 258.470 223.915,258.686 223.503,258.797 223.001 C 258.907 222.498,259.124 222.087,259.278 222.087 C 259.432 222.087,259.558 221.893,259.558 221.655 C 259.558 221.418,259.691 221.178,259.853 221.122 C 260.015 221.066,260.049 220.861,259.928 220.667 C 259.797 220.456,259.255 221.227,258.588 222.571 M140.739 221.678 C 140.911 221.763,141.051 222.096,141.051 222.417 C 141.051 222.738,141.184 223.001,141.346 223.001 C 141.760 223.001,141.234 221.678,140.786 221.592 C 140.588 221.554,140.567 221.593,140.739 221.678 M24.124 223.851 L 23.420 224.981 24.353 224.007 C 25.292 223.027,25.478 222.685,25.057 222.709 C 24.931 222.716,24.512 223.230,24.124 223.851 M374.714 222.846 C 374.714 223.118,376.037 224.524,376.293 224.524 C 376.430 224.524,376.268 224.250,375.933 223.915 C 375.598 223.580,375.324 223.168,375.324 223.001 C 375.324 222.833,375.187 222.696,375.019 222.696 C 374.851 222.696,374.714 222.764,374.714 222.846 M141.511 223.605 C 141.406 223.775,141.465 223.915,141.642 223.915 C 141.820 223.915,141.965 224.120,141.965 224.372 C 141.965 224.623,142.089 224.829,142.241 224.829 C 142.561 224.829,142.317 223.675,141.949 223.448 C 141.813 223.364,141.616 223.435,141.511 223.605 M22.346 225.409 C 22.045 225.760,21.633 226.047,21.430 226.047 C 21.228 226.047,20.975 226.321,20.868 226.657 C 20.762 226.992,20.547 227.266,20.391 227.266 C 20.234 227.266,20.107 227.434,20.107 227.640 C 20.107 227.846,20.415 227.705,20.792 227.327 C 21.169 226.949,21.870 226.293,22.349 225.870 C 22.829 225.446,23.147 225.026,23.056 224.935 C 22.966 224.845,22.646 225.058,22.346 225.409 M376.847 225.018 C 376.847 225.230,378.030 226.253,378.774 226.685 C 379.270 226.972,379.294 226.939,378.992 226.375 C 378.806 226.027,378.453 225.743,378.207 225.743 C 377.962 225.743,377.761 225.620,377.761 225.471 C 377.761 225.321,377.555 225.120,377.304 225.023 C 377.053 224.927,376.847 224.924,376.847 225.018 M256.929 225.623 C 256.815 225.940,256.667 226.302,256.599 226.428 C 256.531 226.554,256.605 226.657,256.763 226.657 C 257.067 226.657,257.495 225.406,257.269 225.179 C 257.195 225.106,257.043 225.306,256.929 225.623 M143.107 226.554 C 143.317 226.638,143.488 226.970,143.488 227.291 C 143.488 227.612,143.625 227.875,143.793 227.875 C 144.179 227.875,144.176 227.678,143.782 226.941 C 143.609 226.617,143.300 226.363,143.097 226.376 C 142.818 226.394,142.820 226.438,143.107 226.554 M380.830 228.508 C 382.299 229.928,383.521 231.037,387.183 234.273 C 390.653 237.339,390.997 237.623,391.241 237.623 C 391.691 237.624,391.459 236.991,390.937 236.792 C 390.644 236.680,390.267 236.481,390.099 236.349 C 388.295 234.932,387.743 234.399,387.294 233.638 C 387.005 233.149,386.634 232.749,386.470 232.749 C 385.972 232.749,383.854 231.168,383.854 230.796 C 383.854 230.401,382.773 229.398,382.349 229.398 C 382.195 229.398,381.882 229.227,381.653 229.018 C 380.284 227.765,379.665 227.382,380.830 228.508 M18.583 228.789 C 18.197 229.124,17.755 229.398,17.601 229.398 C 17.294 229.398,16.451 230.164,16.451 230.443 C 16.451 230.885,17.117 230.517,18.329 229.406 C 19.666 228.181,19.878 227.666,18.583 228.789 M255.065 229.385 C 254.496 230.535,254.495 230.576,255.033 230.288 C 255.344 230.122,255.598 229.660,255.598 229.261 C 255.598 228.862,255.769 228.466,255.979 228.382 C 256.228 228.281,256.239 228.220,256.011 228.204 C 255.819 228.191,255.393 228.722,255.065 229.385 M144.613 229.682 C 144.698 230.005,144.941 230.337,145.153 230.418 C 145.456 230.535,145.466 230.407,145.199 229.833 C 144.792 228.954,144.396 228.852,144.613 229.682 M15.221 231.823 C 14.641 232.319,13.918 232.730,13.615 232.737 C 13.312 232.744,13.140 232.872,13.232 233.022 C 13.325 233.172,13.196 233.373,12.946 233.470 C 12.695 233.566,12.490 233.855,12.490 234.113 C 12.490 234.602,12.499 234.597,15.385 232.023 C 16.852 230.714,16.715 230.546,15.221 231.823 M146.434 233.290 C 146.630 233.415,146.883 233.883,146.995 234.330 C 147.189 235.104,148.058 235.797,148.058 235.177 C 148.058 235.015,147.951 234.882,147.820 234.882 C 147.689 234.882,147.427 234.471,147.237 233.968 C 147.047 233.465,146.709 233.056,146.485 233.059 C 146.190 233.062,146.176 233.126,146.434 233.290 M10.815 235.650 C 10.145 236.228,9.439 236.703,9.246 236.705 C 9.053 236.708,8.593 237.224,8.225 237.852 L 7.554 238.995 8.423 238.172 C 8.901 237.719,9.977 236.729,10.815 235.972 C 12.596 234.361,12.596 234.115,10.815 235.650 M251.263 236.870 C 250.973 237.452,250.871 237.928,251.035 237.928 C 251.199 237.928,251.333 237.723,251.333 237.471 C 251.333 237.220,251.454 237.014,251.602 237.014 C 251.750 237.014,251.943 236.740,252.030 236.405 C 252.282 235.442,251.840 235.709,251.263 236.870 M148.058 236.719 C 148.058 236.882,148.195 237.014,148.363 237.014 C 148.530 237.014,148.667 237.205,148.667 237.439 C 148.667 237.672,148.855 237.935,149.084 238.023 C 149.420 238.152,149.435 238.042,149.160 237.452 C 148.808 236.697,148.058 236.198,148.058 236.719 M149.493 239.147 C 149.580 239.482,149.757 239.756,149.886 239.756 C 150.014 239.756,150.198 240.059,150.295 240.428 C 150.392 240.798,150.561 241.011,150.670 240.901 C 150.843 240.728,149.696 238.538,149.432 238.538 C 149.378 238.538,149.405 238.812,149.493 239.147 M250.114 239.147 C 249.893 239.560,249.890 239.756,250.104 239.756 C 250.277 239.756,250.419 239.562,250.419 239.325 C 250.419 239.087,250.590 238.824,250.800 238.739 C 251.087 238.624,251.089 238.580,250.810 238.562 C 250.607 238.549,250.294 238.812,250.114 239.147 M395.266 241.344 C 398.148 244.107,399.020 244.548,396.344 241.889 C 395.333 240.883,394.414 240.061,394.302 240.061 C 394.190 240.061,393.810 239.821,393.457 239.528 C 393.105 239.235,393.918 240.052,395.266 241.344 M5.835 239.968 C 5.338 240.166,1.728 243.719,1.876 243.864 C 1.933 243.921,3.003 243.019,4.253 241.862 C 5.503 240.704,6.462 239.767,6.385 239.780 C 6.308 239.794,6.060 239.878,5.835 239.968 M248.885 241.508 C 248.655 241.969,248.419 242.449,248.359 242.574 C 248.299 242.700,248.396 242.803,248.573 242.803 C 248.750 242.803,248.896 242.529,248.896 242.193 C 248.896 241.858,249.018 241.584,249.168 241.584 C 249.317 241.584,249.519 241.379,249.615 241.127 C 249.924 240.323,249.319 240.639,248.885 241.508 M150.792 241.480 C 150.964 241.565,151.104 241.898,151.104 242.219 C 151.104 242.540,151.237 242.803,151.399 242.803 C 151.813 242.803,151.287 241.480,150.839 241.394 C 150.642 241.356,150.620 241.395,150.792 241.480 M151.561 243.412 C 151.458 243.580,151.518 243.717,151.696 243.717 C 151.873 243.717,152.018 243.922,152.018 244.174 C 152.018 244.425,152.155 244.631,152.323 244.631 C 152.490 244.631,152.628 244.836,152.628 245.088 C 152.628 245.339,152.762 245.545,152.927 245.545 C 153.092 245.545,152.941 244.996,152.592 244.326 C 151.905 243.007,151.844 242.954,151.561 243.412 M247.780 243.621 C 247.672 243.925,247.528 244.276,247.460 244.402 C 247.392 244.528,247.482 244.631,247.659 244.631 C 247.837 244.631,247.982 244.436,247.982 244.199 C 247.982 243.962,248.146 243.713,248.348 243.646 C 248.631 243.551,248.631 243.473,248.345 243.296 C 248.123 243.159,247.899 243.287,247.780 243.621 M0.444 244.346 C 0.087 244.924,0.608 245.067,1.139 244.536 C 1.614 244.061,1.615 244.021,1.150 244.021 C 0.872 244.021,0.555 244.168,0.444 244.346 M398.934 244.631 C 399.237 244.966,399.635 245.229,399.819 245.216 C 400.011 245.202,399.991 245.127,399.772 245.038 C 399.562 244.954,399.391 244.690,399.391 244.453 C 399.391 244.216,399.164 244.021,398.887 244.021 C 398.433 244.021,398.438 244.083,398.934 244.631 M246.475 246.191 C 246.115 246.881,245.901 247.526,245.999 247.624 C 246.098 247.722,246.257 247.500,246.354 247.131 C 246.450 246.761,246.651 246.458,246.799 246.458 C 246.947 246.458,247.068 246.264,247.068 246.027 C 247.068 245.790,247.232 245.540,247.434 245.473 C 247.692 245.387,247.701 245.291,247.464 245.144 C 247.266 245.022,246.860 245.451,246.475 246.191 M153.097 246.134 C 152.987 246.312,153.041 246.458,153.219 246.458 C 153.396 246.458,153.542 246.664,153.542 246.915 C 153.542 247.167,153.683 247.372,153.857 247.372 C 154.062 247.372,154.048 247.133,153.816 246.687 C 153.338 245.768,153.328 245.761,153.097 246.134 M245.226 248.617 C 245.039 248.967,244.962 249.329,245.056 249.422 C 245.149 249.516,245.322 249.333,245.439 249.015 C 245.556 248.698,245.800 248.338,245.979 248.215 C 246.201 248.063,246.187 247.990,245.936 247.986 C 245.733 247.984,245.413 248.268,245.226 248.617 M244.052 251.038 C 243.293 252.494,243.279 252.583,243.850 252.364 C 244.091 252.272,244.213 252.002,244.122 251.765 C 244.031 251.527,244.092 251.333,244.258 251.333 C 244.424 251.333,244.625 250.990,244.705 250.571 C 244.904 249.532,244.797 249.608,244.052 251.038 M155.535 251.007 C 155.375 251.266,155.465 251.514,155.784 251.693 C 156.058 251.847,156.283 252.157,156.283 252.382 C 156.283 252.607,156.487 252.869,156.736 252.965 C 157.177 253.134,156.798 252.091,156.253 251.637 C 156.152 251.554,156.006 251.286,155.928 251.043 C 155.812 250.682,155.740 250.676,155.535 251.007 M242.789 253.491 C 242.602 253.841,242.525 254.203,242.619 254.297 C 242.712 254.390,242.884 254.207,243.002 253.890 C 243.119 253.573,243.362 253.212,243.542 253.089 C 243.764 252.937,243.750 252.864,243.499 252.861 C 243.295 252.858,242.976 253.142,242.789 253.491 M158.340 256.714 C 158.549 256.798,158.720 257.047,158.720 257.266 C 158.720 257.486,158.908 257.737,159.137 257.825 C 159.473 257.954,159.488 257.844,159.213 257.251 C 159.026 256.847,158.667 256.526,158.416 256.538 C 158.104 256.553,158.080 256.609,158.340 256.714 M159.546 258.949 C 159.634 259.284,159.812 259.558,159.942 259.558 C 160.071 259.558,160.268 259.918,160.378 260.357 C 160.488 260.796,160.799 261.376,161.069 261.646 C 161.618 262.195,161.611 262.173,160.550 259.939 C 159.790 258.338,159.246 257.803,159.546 258.949 M239.758 259.482 C 238.397 261.847,238.203 262.373,238.980 261.597 C 239.223 261.354,239.512 260.796,239.622 260.357 C 239.732 259.918,239.929 259.558,240.058 259.558 C 240.188 259.558,240.366 259.284,240.454 258.949 C 240.688 258.052,240.496 258.200,239.758 259.482 M161.997 263.671 C 162.077 264.090,162.264 264.433,162.412 264.433 C 162.560 264.433,162.681 264.638,162.681 264.890 C 162.681 265.141,162.821 265.347,162.992 265.347 C 163.163 265.347,163.023 264.798,162.681 264.128 C 161.962 262.718,161.793 262.606,161.997 263.671 M238.072 263.154 C 237.469 263.586,236.977 264.733,237.476 264.541 C 237.725 264.446,237.928 264.188,237.928 263.968 C 237.928 263.749,238.100 263.508,238.309 263.433 C 238.519 263.359,238.618 263.218,238.529 263.120 C 238.440 263.022,238.235 263.038,238.072 263.154 M236.710 265.462 C 236.710 265.692,236.501 266.055,236.245 266.267 C 235.990 266.479,235.846 266.717,235.926 266.797 C 236.122 266.993,236.848 266.236,237.098 265.575 C 237.209 265.282,237.167 265.042,237.005 265.042 C 236.843 265.042,236.710 265.231,236.710 265.462 M163.198 265.845 C 163.097 265.946,163.220 266.234,163.472 266.485 C 164.063 267.077,164.268 266.872,163.768 266.189 C 163.556 265.898,163.300 265.743,163.198 265.845 M132.654 273.038 C 131.950 273.816,131.922 273.890,132.521 273.384 C 132.940 273.030,133.557 272.590,133.892 272.404 C 134.347 272.152,134.381 272.065,134.025 272.058 C 133.763 272.053,133.146 272.494,132.654 273.038 M266.881 272.933 C 267.461 273.419,267.986 273.769,268.047 273.710 C 268.207 273.557,266.471 272.070,266.120 272.058 C 265.958 272.053,266.301 272.447,266.881 272.933 M130.578 274.803 C 130.110 275.299,129.602 275.704,129.449 275.704 C 129.295 275.704,129.170 275.837,129.170 275.999 C 129.170 276.475,130.477 275.861,130.831 275.218 C 131.006 274.899,131.283 274.543,131.446 274.426 C 131.609 274.310,131.671 274.144,131.585 274.058 C 131.499 273.972,131.046 274.307,130.578 274.803 M268.403 274.105 C 268.398 274.315,268.521 274.486,268.677 274.486 C 268.833 274.486,269.039 274.726,269.134 275.019 C 269.228 275.312,269.649 275.711,270.068 275.904 C 271.008 276.339,271.087 275.863,270.157 275.366 C 269.787 275.168,269.243 274.717,268.949 274.365 C 268.651 274.009,268.409 273.893,268.403 274.105 M271.135 276.485 C 271.135 276.594,271.469 276.946,271.878 277.268 C 272.287 277.590,272.706 278.117,272.808 278.439 C 272.910 278.761,273.287 279.118,273.646 279.231 C 274.004 279.345,274.717 279.831,275.230 280.312 C 275.742 280.792,276.287 281.186,276.441 281.187 C 276.594 281.187,276.663 281.142,276.593 281.086 C 276.523 281.030,275.267 279.927,273.800 278.635 C 272.334 277.343,271.135 276.375,271.135 276.485 M127.283 277.784 C 127.064 278.090,126.666 278.467,126.399 278.622 C 125.569 279.102,123.256 281.188,123.555 281.187 C 123.711 281.186,124.258 280.792,124.770 280.312 C 125.283 279.831,125.968 279.353,126.294 279.248 C 126.619 279.143,127.119 278.646,127.404 278.142 C 127.978 277.131,127.905 276.915,127.283 277.784 M120.640 283.549 C 116.994 286.818,115.882 287.921,116.427 287.723 C 116.708 287.622,117.012 287.344,117.103 287.105 C 117.195 286.867,117.548 286.672,117.888 286.672 C 118.229 286.672,118.507 286.535,118.507 286.369 C 118.507 285.948,121.136 283.321,121.558 283.321 C 121.991 283.321,122.593 282.720,122.856 282.026 C 123.131 281.299,123.205 281.248,120.640 283.549 M276.999 282.178 C 277.069 282.388,277.375 282.607,277.680 282.666 C 277.985 282.726,279.103 283.651,280.164 284.723 C 281.225 285.795,282.190 286.672,282.307 286.672 C 282.424 286.672,282.837 286.970,283.225 287.334 C 283.613 287.698,283.930 287.836,283.930 287.639 C 283.930 287.442,283.827 287.280,283.701 287.278 C 283.576 287.276,282.925 286.761,282.254 286.135 C 277.972 282.128,276.652 281.134,276.999 282.178 M112.265 290.946 C 110.423 292.616,108.812 293.983,108.685 293.983 C 108.558 293.983,108.454 294.108,108.454 294.261 C 108.454 294.722,110.271 293.888,110.442 293.350 C 110.647 292.702,113.035 290.466,113.801 290.204 C 114.241 290.053,116.035 287.847,115.675 287.899 C 115.641 287.904,114.106 289.275,112.265 290.946 M285.242 289.218 C 285.358 289.520,285.453 289.825,285.453 289.895 C 285.453 289.966,285.644 290.023,285.876 290.023 C 286.109 290.023,286.828 290.493,287.473 291.067 C 288.118 291.641,288.696 292.061,288.757 291.999 C 288.868 291.889,287.390 290.524,285.843 289.306 C 285.125 288.741,285.055 288.731,285.242 289.218 M289.109 292.312 C 289.109 292.416,289.245 292.755,289.412 293.066 C 289.750 293.697,291.546 294.706,291.546 294.265 C 291.546 294.110,291.443 293.983,291.318 293.982 C 291.192 293.981,290.644 293.563,290.099 293.052 C 289.554 292.542,289.109 292.209,289.109 292.312 M105.853 296.681 C 104.673 297.794,103.997 298.465,104.349 298.172 C 104.701 297.879,105.217 297.639,105.495 297.639 C 105.774 297.639,106.209 297.236,106.464 296.744 C 106.719 296.251,107.228 295.637,107.596 295.380 C 107.964 295.122,108.205 294.854,108.131 294.784 C 108.057 294.713,107.032 295.567,105.853 296.681 M291.852 294.669 C 291.851 294.794,292.091 295.149,292.384 295.456 C 292.677 295.764,293.119 296.312,293.365 296.675 C 293.611 297.038,293.978 297.334,294.179 297.334 C 294.381 297.334,294.968 297.689,295.483 298.123 C 295.999 298.557,296.412 298.797,296.402 298.656 C 296.392 298.516,295.773 297.921,295.027 297.334 C 294.282 296.748,293.262 295.857,292.763 295.354 C 292.263 294.851,291.853 294.543,291.852 294.669 M296.725 299.111 C 296.725 299.307,296.840 299.467,296.981 299.467 C 297.121 299.467,297.393 299.810,297.584 300.228 C 297.774 300.647,298.139 300.990,298.394 300.990 C 298.649 300.990,298.858 301.105,298.858 301.246 C 298.858 301.387,299.207 301.661,299.633 301.855 C 300.060 302.049,300.643 302.618,300.928 303.118 C 301.214 303.618,301.858 304.164,302.361 304.332 L 303.275 304.637 302.513 304.018 C 301.793 303.432,299.404 301.273,297.563 299.543 C 297.102 299.110,296.725 298.916,296.725 299.111 M101.061 300.887 C 99.909 301.707,99.723 302.079,100.642 301.726 C 100.917 301.621,101.142 301.412,101.142 301.262 C 101.142 301.113,101.331 300.990,101.562 300.990 C 101.793 300.990,102.152 300.784,102.361 300.533 C 102.952 299.821,102.316 299.994,101.061 300.887 M98.133 303.440 C 97.399 304.103,96.975 304.646,97.190 304.646 C 97.404 304.646,98.087 304.097,98.705 303.427 C 100.138 301.875,99.856 301.881,98.133 303.440 " stroke="none" fill="#6c7c94" fill-rule="evenodd"></path></g></svg>