<?xml version="1.0" encoding="UTF-8" standalone="no"?>
<svg xmlns:rdf="http://www.w3.org/1999/02/22-rdf-syntax-ns#" xmlns="http://www.w3.org/2000/svg" xml:space="preserve" height="114.7" width="200" version="1.1" xmlns:cc="http://creativecommons.org/ns#" xmlns:dc="http://purl.org/dc/elements/1.1/" viewBox="0 0 200 114.695"><g><path d="m191.5 84.381-2.2654-1.4226c-3.8842-2.4304-4.076-3.3045-4.4907-5.2265l-0.1873-0.82501-7.5098-32.372-0.70015-3.0414 4.5621 0.01338-6.5153-26.382-3.2733-1.2219c-17.72-6.6129-36.27-10.725-55.12-12.227l-4.8029-0.38352-1.8418 4.455c-2.67 6.4525-5.64 13.098-8.86 19.848-3.187-6.774-6.116-13.445-8.761-19.929l-1.802-4.4508-4.798 0.3434c-19.39 1.3958-38.454 5.5476-56.662 12.344l-3.2733 1.2219-6.4841 26.36h4.5309l-1.097 4.736-7.1218 30.686-0.17838 0.82501c-0.41919 1.922-0.61095 2.7961-4.4907 5.2265l-2.2708 1.421-7.2912 29.529 11.746-4.38c17.432-6.51 35.618-11.057 54.058-13.532l5.1953-0.69568 1.6322-16.719c2.2164 4.0358 4.5353 8.1252 6.9836 12.29l2.0335 3.4784 4.0225-0.21406c5.8509-0.31216 11.773-0.41919 17.628-0.31662l3.9199 0.06689 1.9399-3.4026c2.1495-3.7594 4.2008-7.4518 6.172-11.1l1.0123 14.935 5.6145 0.52176c21.981 2.0291 43.609 6.9702 64.293 14.685l11.751 4.3837-7.3002-29.531z"/><path fill="#ffcf00" d="m186.93 87.236c-5.784-3.7638-6.3592-6.056-7.0193-8.7139l-0.19175-0.76257-8.4597-32.157-1.3691-5.2176-0.16946-0.61541c-0.30771-1.1104-0.82055-2.9656-0.46825-3.4249 0.12041-0.15608 0.58419-0.33446 1.5073-0.33446l2.2654 0.04905-2.2833-8.152c-0.63771-2.6043-1.2799-5.1998-1.922-7.7997l-0.28541-0.10257-0.43257-1.5385-0.7046-0.28987c-16.7-6.743-34.26-10.939-52.2-12.474l-1.1506-0.098109-0.41919 1.0703c-3.71 9.4408-8.14 19.284-13.17 29.295-4.953-10.034-9.332-19.916-13.02-29.41l-0.415-1.0617-1.141 0.0848c-18.445 1.427-36.501 5.6679-53.661 12.594l-0.70906 0.28987-0.42811 1.5385-0.28541 0.10257c-0.63771 2.591-1.2799 5.1864-1.922 7.7774l-2.2833 8.1743 2.261-0.04905c0.92758 0 1.3914 0.17838 1.5073 0.33446 0.3523 0.45933-0.16054 2.3189-0.46825 3.4249l-1.9265 7.3359-8.0717 30.655-0.19176 0.76257c-0.66446 2.6579-1.2353 4.95-7.0237 8.7139l-0.48609 0.31662-5.1596 18.444 2.9165-1.1728c17.842-7.207 36.554-12.251 55.596-14.998l1.1862-0.16946 1.8819-16.852-1.4939-0.20068c-1.8774-0.25865-3.1261-0.73136-3.5988-1.3646-0.44595-0.59311-0.34784-1.5341-0.13378-3.0102l0.11149-0.80717 2.1629-16.398 0.04014-0.29879 0.13824 0.31216c5.1909 11.599 11.367 23.417 18.792 35.97l0.48163 0.80717 0.94095-0.05351c6.0292-0.34338 12.143-0.46379 18.195-0.3523l0.90974 0.01784 0.45486-0.78933c7.1575-12.371 13.205-24.041 18.391-35.489 0.22298-0.49054 0.45041-0.98555 0.66893-1.4806l0.13824 1.436 1.4538 14.797 0.0847 0.80271c0.28987 2.582 0.43257 3.8708-4.0582 4.6736l-1.378 0.24527 1.3022 16.794 1.2933 0.12487c22.717 2.252 44.979 7.7283 66.157 16.286l2.912 1.1728-5.1552-18.444-0.495-0.31662z"/><path d="m176.92 79.262-0.1873-0.72244-8.5266-32.416-1.4583-5.5387c-0.57527-2.0781-1.2308-4.4372 0.0491-6.1184 0.52176-0.67784 1.2442-1.1283 2.1985-1.3601l-3.45-12.353c-15.85-6.323-32.47-10.31-49.45-11.875-3.97 9.949-8.69 20.326-14.07 30.859l-0.42811 0.84285h-2.2654l-0.43257-0.85176c-5.3-10.56-9.978-20.977-13.902-30.98-17.49 1.467-34.601 5.499-50.905 12.005l-3.452 12.353c0.95433 0.23189 1.6768 0.6823 2.1896 1.3601 1.2799 1.6812 0.63325 4.0403 0.05351 6.1184l-0.165 0.60203-1.6679 6.3459-8.152 31.011-0.18284 0.71798c-0.73136 2.9388-1.4895 5.9757-7.8443 10.235l-3.166 11.304c16.835-6.545 34.383-11.201 52.234-13.868l1.2933-11.546c-1.9889-0.44595-3.3357-1.1907-4.1652-2.3011-1.2531-1.6634-0.97217-3.6077-0.72244-5.3113l0.10257-0.75812 2.1361-16.206 0.85176-6.4351 2.6935-0.45933 0.48163 1.1238c0.87852 2.0558 1.7927 4.1206 2.7337 6.1987 4.8965 10.774 10.645 21.762 17.486 33.379 4.1295-0.22298 8.2902-0.33446 12.438-0.34784 1.3824 0 2.7649 0.0045 4.1429 0.02676 6.6045-11.461 12.237-22.315 17.12-32.956 1.1728-2.5553 2.31-5.1017 3.3981-7.6391l0.45933-1.0658 2.7515 0.34338 0.77596 7.9022 1.4404 14.716 0.0758 0.75812c0.2854 2.5018 0.70014 6.2032-5.2087 7.7506l0.8919 11.483c21.535 2.2476 42.646 7.3626 62.821 15.211l-3.1573-11.305c-6.3637-4.2588-7.1174-7.2913-7.8487-10.235" fill="#005eb8"/></g></svg>
