<?xml version="1.0" encoding="UTF-8"?>
<svg version="1.1" xmlns="http://www.w3.org/2000/svg" width="592" height="125">
<path d="M0 0 C10.56 0 21.12 0 32 0 C37.3608429 11.40152849 42.55621072 22.86860859 47.6875 34.375 C48.44064312 36.06124798 49.19389786 37.74744612 49.94726562 39.43359375 C53.30571013 46.95238945 56.65721393 54.4742288 60 62 C60.04955872 57.10702988 60.0857946 52.21420695 60.10986328 47.32104492 C60.11990057 45.65760756 60.13353331 43.99418775 60.15087891 42.33081055 C60.17522749 39.93533995 60.18650588 37.54010332 60.1953125 35.14453125 C60.20563507 34.4047554 60.21595764 33.66497955 60.22659302 32.90278625 C60.2274673 28.84947097 60.07051983 25.53948627 58 22 C56.68 21.34 55.36 20.68 54 20 C54 13.4 54 6.8 54 0 C66.87 0 79.74 0 93 0 C93.103125 3.2175 93.20625 6.435 93.3125 9.75 C93.35802002 10.75772461 93.40354004 11.76544922 93.45043945 12.80371094 C93.46292725 13.60583008 93.47541504 14.40794922 93.48828125 15.234375 C93.51446533 16.05131836 93.54064941 16.86826172 93.56762695 17.70996094 C93 20 93 20 90.5057373 21.56396484 C87.3127072 24.66817436 87.3952689 26.28994642 87.31443787 30.58996582 C87.32306351 31.47325562 87.33168915 32.35654541 87.34057617 33.26660156 C87.33009247 34.20352844 87.31960876 35.14045532 87.30880737 36.10577393 C87.28001777 39.20105954 87.28635361 42.29522927 87.29296875 45.390625 C87.27985612 47.53726608 87.26455324 49.68389481 87.24714661 51.83050537 C87.20723314 57.47927332 87.19710203 63.12771898 87.19311523 68.77661133 C87.18379582 74.54127824 87.14638972 80.30575484 87.11132812 86.0703125 C87.04668726 97.38024411 87.01609597 108.68989499 87 120 C78.42 120 69.84 120 61 120 C56.17767191 110.53777742 51.72770795 101.01833138 47.5625 91.25 C46.71664561 89.27935917 45.86923457 87.30939308 45.0216217 85.33950806 C44.46450742 84.04474768 43.90780948 82.74980806 43.35154724 81.4546814 C39.97646057 73.60269858 36.4913139 65.8007399 33 58 C32.97528812 63.07201786 32.95713436 68.14400071 32.94506836 73.21606445 C32.94003842 74.9416566 32.93321374 76.66724448 32.92456055 78.39282227 C32.91243639 80.8725693 32.90675831 83.35226 32.90234375 85.83203125 C32.89718246 86.60400345 32.89202118 87.37597565 32.88670349 88.17134094 C32.88636682 91.3830228 32.97673422 93.93020266 34 97 C35.32 97.66 36.64 98.32 38 99 C38 105.93 38 112.86 38 120 C25.46 120 12.92 120 0 120 C0 113.07 0 106.14 0 99 C1.98 98.01 1.98 98.01 4 97 C5.1297418 93.6107746 5.15469643 90.97882441 5.19287109 87.40478516 C5.20104858 86.73938217 5.20922607 86.07397919 5.21765137 85.38841248 C5.24244353 83.18863821 5.25900377 80.98892812 5.2734375 78.7890625 C5.28142302 77.66068026 5.28142302 77.66068026 5.28956985 76.50950241 C5.31627229 72.52913177 5.33565797 68.54879221 5.35009766 64.56835938 C5.3634468 61.27608517 5.3913201 57.98442934 5.43212891 54.69238281 C5.48143965 50.71420858 5.50621609 46.73659592 5.51332474 42.75812912 C5.5200366 41.24384808 5.53525729 39.72957955 5.55921555 38.21547318 C5.59086941 36.09431974 5.59090568 33.97533191 5.58349609 31.85400391 C5.59158295 30.64837799 5.5996698 29.44275208 5.60800171 28.20059204 C4.83042514 24.10733815 3.05772984 22.71860235 0 20 C-0.56762695 17.59643555 -0.56762695 17.59643555 -0.48828125 15.13671875 C-0.47579346 14.33709717 -0.46330566 13.53747559 -0.45043945 12.71362305 C-0.40491943 11.71500244 -0.35939941 10.71638184 -0.3125 9.6875 C-0.209375 6.490625 -0.10625 3.29375 0 0 Z " fill="#092547" transform="translate(4,2)"/>
<path d="M0 0 C7.47068136 -0.07461498 14.94114181 -0.12882146 22.41210938 -0.16479492 C24.94925723 -0.17980477 27.48637948 -0.20021897 30.0234375 -0.22631836 C33.68756462 -0.26304605 37.35134623 -0.27980508 41.015625 -0.29296875 C42.13487366 -0.30845261 43.25412231 -0.32393646 44.4072876 -0.33988953 C55.289852 -0.34217233 67.39115555 1.27323951 75.90234375 8.6484375 C85.65670078 18.75337396 86.15192038 31.73687534 86.203125 45.00390625 C86.20882507 46.15938461 86.21452515 47.31486298 86.22039795 48.50535583 C86.22982114 50.94700208 86.23637124 53.38866089 86.24023438 55.83032227 C86.24990393 59.52578548 86.28093915 63.22068355 86.3125 66.91601562 C86.45760435 99.30511435 86.45760435 99.30511435 79 109 C68.38066833 119.13241908 55.2033627 120.32318208 41.2109375 120.1953125 C39.43428207 120.19106766 39.43428207 120.19106766 37.62173462 120.18673706 C33.87271631 120.17562395 30.12394499 120.1505358 26.375 120.125 C23.81901389 120.11495874 21.263024 120.1058349 18.70703125 120.09765625 C12.47126033 120.07571367 6.23567191 120.04124541 0 120 C0 113.07 0 106.14 0 99 C1.98 98.505 1.98 98.505 4 98 C4.80956823 93.73060422 5.13521307 89.68262868 5.16113281 85.33959961 C5.17074036 84.03482162 5.1803479 82.73004364 5.19024658 81.38572693 C5.19509338 79.974601 5.1993725 78.56347302 5.203125 77.15234375 C5.20595238 76.43593782 5.20877975 75.7195319 5.21169281 74.9814167 C5.22662815 71.19553387 5.23589523 67.40968864 5.24023438 63.6237793 C5.24573288 59.72096047 5.26980564 55.81848807 5.29820633 51.91577816 C5.31684683 48.90543103 5.32203889 45.8951675 5.32357025 42.88476753 C5.32659051 41.44588881 5.33459789 40.00701135 5.34775543 38.56818962 C5.36485517 36.5558656 5.36108519 34.54339718 5.35644531 32.53100586 C5.36009094 31.38772324 5.36373657 30.24444061 5.36749268 29.06651306 C4.95628515 25.63522496 4.05050692 23.75620568 2 21 C1.34 20.67 0.68 20.34 0 20 C0 13.4 0 6.8 0 0 Z M34 24 C34 47.43 34 70.86 34 95 C47.57633574 95.92847669 47.57633574 95.92847669 54 93 C57.823598 89.03984493 58.11995724 84.55417655 58.14526367 79.24487305 C58.15164352 78.33009689 58.15802338 77.41532074 58.16459656 76.4728241 C58.16570938 75.49565933 58.1668222 74.51849457 58.16796875 73.51171875 C58.17129715 72.49455276 58.17462555 71.47738678 58.17805481 70.42939758 C58.18311003 68.28016613 58.18546357 66.13092685 58.18530273 63.98168945 C58.18748522 60.70966509 58.20564503 57.43798021 58.22460938 54.16601562 C58.22754446 52.07291781 58.22952849 49.97981841 58.23046875 47.88671875 C58.23765427 46.91562668 58.24483978 45.94453461 58.25224304 44.9440155 C58.3390844 34.91580192 58.3390844 34.91580192 53.5625 26.5625 C46.72817464 22.39522844 43.77536635 24 34 24 Z " fill="#062345" transform="translate(384,2)"/>
<path d="M0 0 C28.05 0 56.1 0 85 0 C85 12.21 85 24.42 85 37 C76.09 37 67.18 37 58 37 C57.01 32.05 57.01 32.05 56 27 C52.57265885 25.28632943 51.42144826 24.74642947 47.890625 24.5859375 C46.8701709 24.53252197 46.8701709 24.53252197 45.82910156 24.47802734 C44.97799805 24.44402832 44.12689453 24.4100293 43.25 24.375 C39.16625 24.189375 39.16625 24.189375 35 24 C35 31.59 35 39.18 35 47 C38.44759766 46.98259766 38.44759766 46.98259766 41.96484375 46.96484375 C44.18220888 46.95705291 46.39957251 46.95097631 48.61694336 46.94506836 C50.16219766 46.9400286 51.70744716 46.9331968 53.25268555 46.92456055 C55.46925029 46.91247924 57.68575218 46.90676827 59.90234375 46.90234375 C60.5971434 46.89718246 61.29194305 46.89202118 62.00779724 46.88670349 C63.6722933 46.88650723 65.33665499 46.93810871 67 47 C68.58937556 48.58937556 68.12981143 50.23899846 68.1328125 52.4375 C68.13410156 53.33210938 68.13539063 54.22671875 68.13671875 55.1484375 C68.13285156 56.08945312 68.12898438 57.03046875 68.125 58 C68.12886719 58.94101562 68.13273437 59.88203125 68.13671875 60.8515625 C68.13542969 61.74617188 68.13414062 62.64078125 68.1328125 63.5625 C68.13168457 64.38878906 68.13055664 65.21507813 68.12939453 66.06640625 C68 68 68 68 67 69 C64.6243148 69.0883967 62.27791326 69.11530305 59.90234375 69.09765625 C58.83905602 69.09553383 58.83905602 69.09553383 57.75428772 69.09336853 C55.48198288 69.08775443 53.20977525 69.07519963 50.9375 69.0625 C49.40039204 69.05748681 47.86328255 69.05292359 46.32617188 69.04882812 C42.55071333 69.0386297 38.77546596 69.01905732 35 69 C35 77.91 35 86.82 35 96 C37.8875 95.9175 40.775 95.835 43.75 95.75 C44.65331055 95.73420898 45.55662109 95.71841797 46.48730469 95.70214844 C50.17087009 95.54571629 52.41806391 95.38825628 55.53515625 93.30859375 C57.31507117 90.50344783 57.55955531 88.61700247 57.6875 85.3125 C57.93055556 80.06944444 57.93055556 80.06944444 59 79 C60.92667507 78.91251793 62.85651861 78.89302666 64.78515625 78.90234375 C65.83840088 78.90484131 66.89164551 78.90733887 67.97680664 78.90991211 C69.32508545 78.91901611 70.67336426 78.92812012 72.0625 78.9375 C76.331875 78.958125 80.60125 78.97875 85 79 C85 92.53 85 106.06 85 120 C56.95 120 28.9 120 0 120 C0 113.07 0 106.14 0 99 C1.65 98.01 3.3 97.02 5 96 C5.72069097 93.44279414 5.9358328 91.62094556 6 89 C6.02531799 88.05745361 6.05063599 87.11490723 6.07672119 86.14379883 C6.13350608 82.6472181 6.13855611 79.15327918 6.1328125 75.65625 C6.13376923 74.3731897 6.13472595 73.09012939 6.13571167 71.76818848 C6.13717984 69.06175523 6.13506254 66.35535515 6.13037109 63.64892578 C6.12467434 60.19597991 6.12795807 56.74311179 6.13394356 53.29016876 C6.13844491 49.97468976 6.13528472 46.6592312 6.1328125 43.34375 C6.13483673 42.1112854 6.13686096 40.8788208 6.13894653 39.60900879 C6.13022219 36.40369034 6.08606616 33.20409883 6 30 C5.98161072 29.24887939 5.96322144 28.49775879 5.9442749 27.72387695 C5.8520934 25.66166255 5.8520934 25.66166255 5 23 C3.35 22.01 1.7 21.02 0 20 C0 13.4 0 6.8 0 0 Z " fill="#092547" transform="translate(105,2)"/>
<path d="M0 0 C13.86 0 27.72 0 42 0 C44.33781681 8.76681303 46.61440611 17.33446846 48.3671875 26.19921875 C48.56744537 27.19099121 48.76770325 28.18276367 48.97402954 29.20458984 C49.39586259 31.29561548 49.81571383 33.38704184 50.23364258 35.47885132 C51.32024222 40.91500345 52.42312915 46.34785926 53.5234375 51.78125 C53.84529022 53.37376839 53.84529022 53.37376839 54.17364502 54.99845886 C55.90747203 63.57048659 57.67705422 72.13399392 59.5 80.6875 C59.73058105 81.78215576 59.96116211 82.87681152 60.19873047 84.00463867 C61.58866048 91.16728022 61.58866048 91.16728022 64 98 C65.98 98.495 65.98 98.495 68 99 C68 105.93 68 112.86 68 120 C54.14 120 40.28 120 26 120 C26 113.07 26 106.14 26 99 C28.475 98.505 28.475 98.505 31 98 C31 94.04 31 90.08 31 86 C23.74 86.33 16.48 86.66 9 87 C7.22387374 94.25220667 7.22387374 94.25220667 9.25 96.9375 C11.12680722 98.16562371 11.12680722 98.16562371 14 99 C14 105.93 14 112.86 14 120 C1.46 120 -11.08 120 -24 120 C-24 113.07 -24 106.14 -24 99 C-22.02 98.505 -22.02 98.505 -20 98 C-17.00430072 86.50579305 -14.47984358 74.96580485 -12.1875 63.3125 C-11.84381957 61.58029231 -11.4999853 59.84811514 -11.15600586 58.1159668 C-7.87410245 41.54074037 -4.73178738 24.93894331 -1.62915039 8.3293457 C-1.10383715 5.5494867 -0.55482395 2.77411977 0 0 Z M19 27 C17.14854938 34.90759753 15.74609589 42.87162629 14.375 50.875 C14.14336719 52.2057532 13.9115973 53.53648254 13.6796875 54.8671875 C13.463125 56.1253125 13.2465625 57.3834375 13.0234375 58.6796875 C12.82669434 59.82163574 12.62995117 60.96358398 12.42724609 62.14013672 C11.92612292 65.01257853 11.92612292 65.01257853 12 68 C16.95 68 21.9 68 27 68 C26.16486679 62.96442497 25.32865446 57.92903076 24.49145508 52.89379883 C24.20698075 51.1819337 23.92279794 49.4700201 23.63891602 47.75805664 C23.2301022 45.29300242 22.82022979 42.82812618 22.41015625 40.36328125 C22.28407486 39.60163162 22.15799347 38.83998199 22.02809143 38.05525208 C21.4117095 34.35657267 20.76467765 30.67108731 20 27 C19.67 27 19.34 27 19 27 Z " fill="#092547" transform="translate(499,2)"/>
<path d="M0 0 C13.86 0 27.72 0 42 0 C45.37161198 13.48644793 45.37161198 13.48644793 46.61328125 19.625 C46.74813934 20.28685303 46.88299744 20.94870605 47.02194214 21.63061523 C47.30740957 23.0323317 47.59178207 24.43427157 47.87509155 25.83642578 C48.63187071 29.57971852 49.39821945 33.32105293 50.1640625 37.0625 C50.31822128 37.81635986 50.47238007 38.57021973 50.63121033 39.34692383 C52.79398964 49.90358231 55.05816983 60.43843673 57.34326172 70.96923828 C57.96348272 73.83147752 58.57780117 76.69493046 59.19140625 79.55859375 C59.54384408 81.18498837 59.89667611 82.81129764 60.25 84.4375 C60.47659302 85.50194336 60.47659302 85.50194336 60.70776367 86.58789062 C61.50492472 90.21715402 62.2938991 93.687126 64 97 C65.04220703 97.59941406 65.04220703 97.59941406 66.10546875 98.2109375 C68.46684778 100.44085832 68.31125858 101.24197643 68.42578125 104.4140625 C68.40851447 106.15136625 68.36995571 107.88856074 68.3125 109.625 C68.30283203 110.50929688 68.29316406 111.39359375 68.28320312 112.3046875 C68.16807548 118.83192452 68.16807548 118.83192452 67 120 C63.97022196 120.08871273 60.96332978 120.1151935 57.93359375 120.09765625 C57.02497086 120.0962413 56.11634796 120.09482635 55.18019104 120.09336853 C52.26592779 120.08775193 49.35174019 120.07519665 46.4375 120.0625 C44.46679798 120.05748714 42.49609476 120.05292386 40.52539062 120.04882812 C35.68354086 120.03862617 30.84185553 120.01905409 26 120 C26 113.07 26 106.14 26 99 C28.475 98.505 28.475 98.505 31 98 C31 94.04 31 90.08 31 86 C23.41 86 15.82 86 8 86 C8 89.96 8 93.92 8 98 C10.97 98.495 10.97 98.495 14 99 C14 105.93 14 112.86 14 120 C1.46 120 -11.08 120 -24 120 C-24.103125 116.638125 -24.20625 113.27625 -24.3125 109.8125 C-24.35802002 108.76167236 -24.40354004 107.71084473 -24.45043945 106.62817383 C-24.46292725 105.78794678 -24.47541504 104.94771973 -24.48828125 104.08203125 C-24.51446533 103.22843018 -24.54064941 102.3748291 -24.56762695 101.49536133 C-24 99 -24 99 -21.61889648 96.78515625 C-18.00833493 92.94537941 -17.54984136 89.4371686 -16.609375 84.35546875 C-16.409953 83.3637114 -16.21053101 82.37195404 -16.00506592 81.35014343 C-15.31765304 77.90357962 -14.65930039 74.45204599 -14 71 C-13.47164511 68.30089366 -12.9376439 65.60290881 -12.40429688 62.90478516 C-10.80856046 54.80616217 -9.2457648 46.70134027 -7.68865967 38.59521484 C-6.52177035 32.5229092 -5.35053925 26.45144061 -4.17855072 20.38011742 C-3.77362402 18.27977197 -3.3702549 16.17913199 -2.96710205 14.07844543 C-2.72304626 12.81159409 -2.47899048 11.54474274 -2.22753906 10.23950195 C-2.01389709 9.12750931 -1.80025513 8.01551666 -1.58013916 6.86982727 C-1.11455477 4.56667853 -0.56989488 2.27957952 0 0 Z M19 27 C18.20667324 30.93716736 17.41565042 34.87479439 16.625 38.8125 C16.40328125 39.91271484 16.1815625 41.01292969 15.953125 42.14648438 C15.29457308 45.4295594 14.64436943 48.71411303 14 52 C13.79858398 53.02399902 13.59716797 54.04799805 13.38964844 55.10302734 C13.20692383 56.06289551 13.02419922 57.02276367 12.8359375 58.01171875 C12.67399902 58.85565186 12.51206055 59.69958496 12.34521484 60.5690918 C11.88283335 63.41583908 11.88283335 63.41583908 12 68 C16.95 68 21.9 68 27 68 C24.69 54.47 22.38 40.94 20 27 C19.67 27 19.34 27 19 27 Z " fill="#092547" transform="translate(308,2)"/>
<path d="M0 0 C13.86 0 27.72 0 42 0 C42 6.6 42 13.2 42 20 C40.02 20.99 40.02 20.99 38 22 C36.70675157 26.35322411 37.10257913 29.88085714 37.98803711 34.28076172 C38.22836166 35.5015744 38.46868622 36.72238708 38.71629333 37.98019409 C38.98641734 39.29673831 39.25677285 40.61323505 39.52734375 41.9296875 C39.79873438 43.28856405 40.06919273 44.6476271 40.33876038 46.00686646 C41.04791441 49.56958206 41.76964403 53.12963484 42.49407959 56.68927002 C43.23222494 60.32777287 43.9583694 63.96866733 44.68554688 67.609375 C46.11200593 74.74196917 47.55176741 81.87179125 49 89 C50.28525586 85.31213735 51.34659726 81.72787359 52.05322266 77.88769531 C52.23325836 76.91938782 52.41329407 75.95108032 52.5987854 74.95343018 C52.78532684 73.92207947 52.97186829 72.89072876 53.1640625 71.828125 C53.36099701 70.75052917 53.55793152 69.67293335 53.76083374 68.56268311 C54.1749282 66.28700516 54.58662995 64.0108907 54.99609375 61.734375 C55.62062888 58.27421765 56.25915245 54.81683342 56.8984375 51.359375 C57.30034103 49.14078096 57.70140976 46.92203549 58.1015625 44.703125 C58.2921524 43.67987122 58.48274231 42.65661743 58.67910767 41.60235596 C60.36672592 32.34334282 60.36672592 32.34334282 60 23 C58.77216797 22.26330078 58.77216797 22.26330078 57.51953125 21.51171875 C56.68808594 21.01285156 55.85664063 20.51398437 55 20 C54.32668313 16.59994899 54.53310508 13.26138183 54.6875 9.8125 C54.790625 6.574375 54.89375 3.33625 55 0 C67.21 0 79.42 0 92 0 C92.0825 3.2175 92.165 6.435 92.25 9.75 C92.28641602 10.75772461 92.32283203 11.76544922 92.36035156 12.80371094 C92.3703418 13.60583008 92.38033203 14.40794922 92.390625 15.234375 C92.4220459 16.45979004 92.4220459 16.45979004 92.45410156 17.70996094 C92 20 92 20 90.11914062 21.73803711 C86.99664932 25.07097282 86.59325813 28.55879038 85.703125 32.95703125 C85.5001178 33.90262405 85.2971106 34.84821686 85.08795166 35.82246399 C84.37035918 39.21086111 83.68251611 42.60436414 83 46 C82.80061325 46.98763966 82.80061325 46.98763966 82.59719849 47.99523163 C80.42891347 58.7377288 78.32015545 69.49167527 76.22509766 80.24865723 C74.96402279 86.72219646 73.69893255 93.19494634 72.43073273 99.66709328 C71.99188357 101.91082913 71.55560989 104.15505494 71.11956787 106.39933777 C70.85292243 107.76323338 70.58618369 109.12711075 70.31933594 110.4909668 C70.08792908 111.67925583 69.85652222 112.86754486 69.61810303 114.09184265 C69 117 69 117 68 120 C54.14 120 40.28 120 26 120 C18.13195128 84.05115673 18.13195128 84.05115673 14.875 66.8125 C13.002217 56.93794204 10.9916715 47.11037528 8.75 37.3125 C8.50362793 36.22493408 8.25725586 35.13736816 8.00341797 34.0168457 C7.77025879 33.01741943 7.53709961 32.01799316 7.296875 30.98828125 C7.09416992 30.11727783 6.89146484 29.24627441 6.68261719 28.34887695 C5.9946054 25.98143724 5.33724634 24.07429586 4 22 C2.68 21.34 1.36 20.68 0 20 C0 13.4 0 6.8 0 0 Z " fill="#082446" transform="translate(198,2)"/>
<path d="M0 0 C0.99 0 1.98 0 3 0 C4.6875 2 4.6875 2 6 4 C6.66 2.68 7.32 1.36 8 0 C8.99 0.33 9.98 0.66 11 1 C11 4.3 11 7.6 11 11 C10.34 11 9.68 11 9 11 C8.67 9.68 8.34 8.36 8 7 C7.34 8.32 6.68 9.64 6 11 C5.34 11 4.68 11 4 11 C3.67 10.01 3.34 9.02 3 8 C2.67 8.99 2.34 9.98 2 11 C1.34 11 0.68 11 0 11 C0 7.37 0 3.74 0 0 Z " fill="#68798E" transform="translate(579,111)"/>
<path d="M0 0 C2.64 0 5.28 0 8 0 C8 0.66 8 1.32 8 2 C7.34 2 6.68 2 6 2 C6 4.97 6 7.94 6 11 C5.01 10.67 4.02 10.34 3 10 C3 7.36 3 4.72 3 2 C2.01 2 1.02 2 0 2 C0 1.34 0 0.68 0 0 Z " fill="#7E8D9F" transform="translate(570,111)"/>
<path d="M0 0 C0.99 0.33 1.98 0.66 3 1 C3 4.3 3 7.6 3 11 C2.34 11 1.68 11 1 11 C0.7834375 9.63875 0.7834375 9.63875 0.5625 8.25 C0.07533901 5.13728293 0.07533901 5.13728293 -0.625 2.6875 C-0.74875 2.130625 -0.8725 1.57375 -1 1 C-0.67 0.67 -0.34 0.34 0 0 Z " fill="#596C83" transform="translate(587,111)"/>
<path d="M0 0 C0.99 0 1.98 0 3 0 C2.67 3.63 2.34 7.26 2 11 C1.34 11 0.68 11 0 11 C0 7.37 0 3.74 0 0 Z " fill="#596C83" transform="translate(579,111)"/>
</svg>
