<svg xmlns="http://www.w3.org/2000/svg" height="93.149" viewBox="0 0 250.00001 93.149322" width="250"><g transform="matrix(1.25 0 0 -1.25 -488.62 534.34)"><g transform="matrix(1.8188 0 0 1.8188 -400.61 -318.17)"><path d="m544.63 404.95h-78.181l-0.064 4.512h-17.711l-7.106-19.716h-2.424l-3.594-20.375h102.81l3.254 18.452c0.105 0.598 0.114 1.249-0.044 2.082-0.131 0.68-0.438 1.373-0.647 1.735h1.362l2.348 13.31z" fill="#fff"/><path d="m18.25 2.6289-8.877 24.646h-2.6738l-3.5664 20.211h123.17l3.6816-20.854c0.1975-1.1238-0.0263-2.7802-1.4688-4.3027-0.445-0.47-1.0242-0.92008-1.4492-1.1738l-2.5273-1.5059h6.6758l2.0078-11.381h-97.188l-0.08008-5.6406h-17.701zm1.8496 2.6289h13.26l0.35156 24.645h2.2773l-1.0078 5.7188h-10.199l0.21875-5.7188h-5.0664l-1.9199 5.7188h-10.119l1.0078-5.7188h2.3164l8.8809-24.645zm96.971 5.6406h13.014l-1.0801 6.123-7.1328 0.002 0.25782-1.4668-3.6484-0.0039-0.56641 3.2012 7.752 4.6328c0.53125 0.31875 1.0168 0.75992 1.3418 1.2637l0.002-0.002c0.0537 0.0825 0.0949 0.16891 0.13867 0.25391 0.0175 0.03375 0.0397 0.06586 0.0547 0.09961 0.0425 0.09375 0.0735 0.19086 0.10352 0.28711 0.0125 0.03625 0.0291 0.06992 0.0391 0.10742 0.025 0.095 0.0356 0.19352 0.0469 0.29102 0.004 0.03875 0.0151 0.07648 0.0176 0.11523 0.006 0.13625-0.002 0.27461-0.0254 0.41211l-1.0254 5.8301c-0.315 1.7738-3.3266 3.5774-5.5391 3.5762l-13.014-0.0039 1.084-6.1445h7.1367l-0.26562 1.4941h3.6484l0.72851-4.1328-7.7461-4.6328c-0.13875-0.0825-0.27235-0.17469-0.40235-0.27344-0.03-0.0225-0.0591-0.04852-0.0879-0.07227-0.0975-0.07625-0.19445-0.15524-0.2832-0.24024-0.0362-0.03375-0.0712-0.07117-0.10742-0.10742-0.0763-0.0775-0.15-0.15773-0.21875-0.24023-0.0362-0.0425-0.0691-0.08711-0.10156-0.13086-0.0625-0.08125-0.11938-0.16375-0.17188-0.25-0.0125-0.01875-0.0278-0.03594-0.0391-0.05469l0.006-0.0039c-0.26625-0.4525-0.40516-0.95078-0.31641-1.457l0.86133-4.873c0.3125-1.7775 3.3241-3.5996 5.5391-3.5996zm-36.932 0.04687h11.006l-0.81836 4.6465h-1.9414l-2.7129 15.383h1.9434l-0.82031 4.6465h-11.006l0.81641-4.6465h1.9473l2.7109-15.383h-1.9434l0.81836-4.6465zm12.699 0h17.629l-1.0801 6.1113h-5.8555l0.25977-1.4648h-2.7051l-0.82227 4.6484h5.459l-0.8125 4.5957h-5.4551l-1.082 6.1387h2.707l0.26367-1.4922h5.8535l-1.082 6.1387h-17.629l0.82031-4.6465h1.9434l2.7148-15.383h-1.9473l0.82031-4.6465zm-47.02 0.0039h13.068l-0.62695 3.5684-0.45117 2.5566-7.3359 0.002 0.25977-1.4824h-3.3809l-2.7148 15.383h3.3848l0.61719-3.4961h-1.8184l0.83398-4.7227h9.1523l-1.3965 7.916-0.24023 1.375-0.63281 3.5723h-12.814c-0.2 0-0.40172-0.01867-0.60547-0.04492-0.04125-0.0063-0.08305-0.01133-0.12305-0.01758-0.19875-0.03125-0.3968-0.07391-0.5918-0.12891-0.02875-0.0075-0.05523-0.01789-0.08398-0.02539-0.185-0.05625-0.36422-0.11961-0.54297-0.19336-0.02375-0.01-0.04852-0.01805-0.07227-0.0293-0.19125-0.08125-0.37453-0.17414-0.55078-0.27539-0.03-0.01625-0.05914-0.03328-0.08789-0.05078-0.355-0.21-0.67531-0.45602-0.94531-0.72852-0.0225-0.02125-0.04391-0.04391-0.06641-0.06641-0.1275-0.135-0.24375-0.27492-0.34375-0.41992-0.01375-0.02125-0.02531-0.04125-0.03906-0.0625-0.08625-0.1325-0.15875-0.26945-0.21875-0.4082-0.0075-0.0175-0.02109-0.03524-0.02734-0.05273l0.002-0.002c-0.135-0.34375-0.1868-0.70391-0.12305-1.0664l3.0898-17.531c0.3125-1.7688 3.262-3.5684 5.4258-3.5684zm19.559 0h13.072l-0.62891 3.5684-0.45117 2.5566-7.3359 0.002 0.25977-1.4824h-3.3848l-2.7109 15.383h3.3828l0.61914-3.4961h-1.8184l0.83398-4.7227h9.1504l-2.2676 12.863h-12.816c-0.19875 0-0.40227-0.01867-0.60352-0.04492-0.04375-0.0063-0.08445-0.01203-0.12695-0.01953-0.1975-0.03-0.39344-0.07125-0.58594-0.125-0.0325-0.0087-0.0632-0.02125-0.0957-0.03125-0.1775-0.05375-0.35289-0.1143-0.52539-0.18555-0.03-0.01125-0.05789-0.02195-0.08789-0.0332-0.18625-0.08125-0.36531-0.17274-0.53906-0.27148-0.03375-0.02-0.06586-0.03859-0.09961-0.05859-0.355-0.21-0.67391-0.45461-0.94141-0.72461-0.0225-0.02125-0.0432-0.04195-0.06445-0.06445-0.12875-0.13625-0.24641-0.27828-0.34766-0.42578-0.01-0.01625-0.02-0.03133-0.03125-0.04883-0.0925-0.14-0.16922-0.28609-0.23047-0.43359-0.0063-0.0125-0.01523-0.02461-0.02148-0.03711l0.002-0.002c-0.13625-0.34375-0.18875-0.70391-0.125-1.0664l3.0938-17.531c0.315-1.7688 3.267-3.5684 5.4258-3.5684zm-40.076 2.7578-3.4766 10.553h3.2285l0.24805-10.553zm-17.873 24.555h2.9687l1.2559 2.4453 0.43164-2.4453h3.3105l-0.2207 1.2402h-0.70898l-0.72461 4.1133h0.71094l-0.21875 1.2422h-2.9551l-1.2637-2.4805-0.43945 2.4805h-3.3066l0.2168-1.2422h0.71094l0.72461-4.1133h-0.70898l0.2168-1.2402zm8.5859 0h6.4355l-0.28516 1.6328h-2.1387l0.06641-0.39258h-0.98633l-0.21875 1.2441h1.9961l-0.21875 1.2305h-1.9941l-0.29102 1.6387h0.99024l0.07031-0.39648h2.1387l-0.28906 1.6387h-6.4375l0.21875-1.2422h0.70703l0.72852-4.1133h-0.71289l0.2207-1.2402zm7.0547 0h3.1445l-0.10742 2.75 1.8672-2.75 0.86524 2.75 0.88281-2.75h3.1309l-0.21875 1.2422h-0.70898l-1.8457 5.3535h-2.4434l-0.45703-2.0898-1.2305 2.0898h-2.4434l0.05859-5.3535h-0.71094l0.2168-1.2422zm15.156 0h3.1621l1.4785 1.625 2.0527-1.625h3.1523l-0.2168 1.2402h-0.71094l-0.72266 4.1113h0.70508l-0.21484 1.2441h-3.3105l0.69141-3.9316-1.8594 1.418-1.3672-1.418-0.69336 3.9316h-3.3125l0.22266-1.2441h0.70898l0.72461-4.1113h-0.71094l0.2207-1.2402zm10.467 0h6.4375l-0.28906 1.6328h-2.1367l0.06836-0.39258h-0.98633l-0.2207 1.2441h1.9922l-0.2168 1.2305h-1.9922l-0.29102 1.6387h0.98828l0.07031-0.40039h2.1387l-0.28711 1.6426h-6.4395l0.21875-1.2422h0.71289l0.72266-4.1133h-0.71094l0.2207-1.2402zm7.0547 0h2.7852l0.77539 2.2734 1.5781-2.2734h2.7812l-0.21875 1.2402h-0.71094l-1.3652 1.9629 0.64258 2.1504h0.70898l-0.21875 1.2422h-2.8086l-0.73047-2.4043-1.5742 2.4043h-2.8086l0.2207-1.2422h0.71094l1.4004-2.1504-0.67773-1.9629h-0.71094l0.2207-1.2402zm8.5391 0h4.0195l-0.2168 1.2402h-0.71289l-0.72461 4.1133h0.70898l-0.21875 1.2422h-4.0195l0.21875-1.2422h0.71094l0.72656-4.1133h-0.71094l0.21875-1.2402zm6.3828 0h4.7832l-0.28711 1.6328h-2.6055l0.07227-0.39258h-1.3262l-0.72461 4.1133h1.3262l0.07031-0.40039h2.6016l-0.29102 1.6426h-4.6797c-0.81125 0-1.7659-0.46758-1.6797-0.95508l0.82617-4.6816c0.0825-0.47125 1.1241-0.95898 1.9141-0.95898zm7.1445 0h2.9707c0.81375 0 1.7283 0.48148 1.6445 0.95898l-0.82617 4.6816c-0.085 0.4725-1.1442 0.95508-1.9492 0.95508h-2.8965c-0.82125 0-1.7691-0.47258-1.6816-0.95508l0.82812-4.6816c0.08-0.4675 1.1127-0.95898 1.9102-0.95898zm11.174 0h4.7441l-0.28906 1.6328h-2.6016l0.07031-0.39258h-1.3301l-0.15039 0.85352 2.9043 1.2383c0.39 0.165 0.72883 0.45516 0.67383 0.75391l-0.27148 1.5547c-0.08375 0.4725-1.1508 0.95508-1.957 0.95508h-4.7441l0.28516-1.6387 2.6074-0.0039-0.07227 0.40039h1.3281l0.19531-1.1035-2.9043-1.2344c-0.38875-0.16625-0.72773-0.45961-0.67773-0.75586l0.23242-1.3008c0.08125-0.47375 1.1483-0.95898 1.957-0.95898zm5.3613 0h8.666l-0.28711 1.6328h-2.1152l0.0684-0.39258h-0.91602l-0.72656 4.1133h0.71289l-0.2207 1.2422h-4.0215l0.21875-1.2422h0.70898l0.72852-4.1133h-0.92187l-0.06836 0.39258h-2.1152l0.28906-1.6328zm9.9531 0h3.9316l0.45117 5.3535h0.67774l-0.21875 1.2422h-3.0274l-0.0137-1.2422h-1.5078l-0.48828 1.2422h-3.0039l0.21875-1.2422h0.68946l2.291-5.3535zm5.2363 0h8.666l-0.28906 1.6328h-2.1152l0.0703-0.39258h-0.91797l-0.72461 4.1133h0.71094l-0.22266 1.2422h-4.0215l0.22266-1.2422h0.70898l0.72461-4.1133h-0.91797l-0.0684 0.39258h-2.1172l0.29102-1.6328zm9.2832 0h6.4414l-0.28906 1.6328h-2.1367l0.0664-0.39258h-0.99218l-0.21485 1.2441h1.9961l-0.22071 1.2305h-1.9941l-0.28906 1.6387h0.98828l0.0742-0.39648h2.1367l-0.29102 1.6387h-6.4394l0.2207-1.2422h0.71094l0.72461-4.1133h-0.70898l0.21679-1.2402zm-40.369 1.2402-0.72656 4.1113 1.3262 0.002 0.72852-4.1133h-1.3281zm27.508 0.5957-0.88086 2.291h0.95899l-0.0781-2.291z" transform="matrix(.8 0 0 -.8 435.55 409.46)"/></g></g></svg>
