<?xml version="1.0" encoding="UTF-8" standalone="no"?>
<svg xmlns:rdf="http://www.w3.org/1999/02/22-rdf-syntax-ns#" xmlns="http://www.w3.org/2000/svg" xml:space="preserve" height="56.846" viewBox="0 0 253.25002 56.846249" width="253.25" version="1.1" xmlns:cc="http://creativecommons.org/ns#" xmlns:dc="http://purl.org/dc/elements/1.1/"><g transform="matrix(1.25 0 0 -1.25 -44.999 651.07)"><g><path d="m196.47 499.79h0.55403v-1.4172h0.33582v1.4172h0.55403v0.28501h-1.4439v-0.28501z" fill="#eb5e1c"/><path d="m199.13 498.86-0.43015 1.2182h-0.48611v-1.7022h0.31443v1.3737l0.47637-1.3737h0.26004l0.46788 1.3737v-1.3737h0.3138v1.7022h-0.48706l-0.4292-1.2182z" fill="#eb5e1c"/><path d="m129.19 7.5508c1.34 0.6787 1.13 2.0406 0.19 4.6722l-2.71 7.697-2.71-7.637c-0.95-2.611-1.16-4.0123 0.19-4.7185l-7.4 0.1093c0.75 0.525 2.52 3.1052 3.13 4.6422l0.16 0.409-2.7 7.754-2.85-8.092c-1.09-2.584-1.16-3.9057 0.19-4.6819-2.52 0.055-6.7 0.2191-7.31 0.2441 0.02-0.015 0.04-0.0408 0.06-0.0508-0.01 0-5.37 0.2228-7.776 0.3653 0.756 0.4762 1.826 1.404 1.826 2.7093l-0.01 4.384-7.568 0.436 0.008-2.813c0.006-2.855 1.021-3.9187 1.799-4.4937-1.263 0.0738-4.827 0.3151-7.389 0.5176 0.758 0.4763 1.808 1.3221 1.805 2.6271l-0.012 4.357c-0.03 0-0.928 0.054-1.453 0.082 0.716 0.495 1.416 2.055 1.447 3.573l-0.005 4.169c-0.003 1.303-1.055 2.348-1.811 2.917 1.61-0.13 6.127-0.457 7.389-0.534-0.775-0.483-1.791-1.384-1.787-4.24l0.003-2.969 7.564-0.437v5.652c0 1.609 0.49 2.771 1.47 3.455 0.99 0.698 2.82 0.835 4.47 0.448-0.37-0.112-0.69-0.293-0.96-0.553-0.83-0.813-0.88-2.144-0.88-2.883 0-0.044 0.03-12.522 0.03-12.522 0.03-1.893 1.22-3.7002 1.74-4.1577 0.77 0.5862 2.65 3.3957 3.08 4.5757l4.88 12.805 4.1-0.043 2.68-7.113 2.68 7.055 3.84-0.041 4.87-12.915c0.51-1.307 1.8-3.3372 2.64-4.271 0.63 0.5538 1.25 1.3429 1.24 2.338l-0.01 4.4s-0.92-0.024-1.45-0.039c0.72 0.569 1.44 2.248 1.44 3.793l-0.02 4.106c-0.01 1.278-1.06 2.161-1.83 2.656 5.76 0.092 12.29 0.338 12.29 0.338 1.83 0.045 2.16 0.198 2.69 0.439 0.06-0.473 0.62-4.089 0.77-5.162-0.62 0.561-1.75 1.359-3.24 1.32l-6.94-0.179-0.01-3.965 2.79 0.074c1.5 0.035 2.42 1.073 2.92 1.748v-6.553c-0.5 0.66-1.42 1.656-2.92 1.618l-2.79-0.071v-3.718l6.66 0.171c1.49 0.037 2.62 0.901 3.25 1.506-0.16-1.09-0.72-4.7708-0.79-5.2458-0.52 0.2188-0.85 0.3483-2.68 0.3008 0 0-6.82-0.2461-11.92-0.3086 0.01 0.0038 0.01 0.0112 0.02 0.0137l-6.38-0.0703zm30.92 0.6562c-5.52-0.16-7.35 3.052-7.4 4.863-0.1 3.742 3.52 4.994 6.56 5.938 2.45 0.662 4.75 1.172 4.91 2.603 0.36 3.342-9.01 1.703-11.7-1.933l0.84 6.263s1.57-1.031 2.84-0.48c1.43 0.627 2.83 1.08 4.99 1.143 4.54 0.128 7.33-2.331 7.39-4.864 0.1-3.67-3.4-4.933-6.55-5.939-2.45-0.675-4.95-1.232-4.91-2.602 0.08-3.201 8.29-1.24 10.45 1.311-0.15-1.271-0.69-5.7424-0.69-5.7424s-1.32 1.0347-2.4 0.5859c-1.49-0.6262-2.29-1.0865-4.33-1.1465zm-73.301 0.4356c-0.518 0.285-1.251 0.556-2.655 0.6347-1.401 0.08-10.939 1.1017-10.939 1.1017-1.814 0.179-2.139 0.066-2.656-0.115-0.069 0.483-0.549 4.189-0.702 5.297 0.612-0.649 1.674-1.596 3.145-1.739l3.832-0.377-0.004 11.545c0 1.306-1.051 2.352-1.814 2.94 2.352-0.252 6.055-0.619 7.328-0.723-0.768-0.461-1.83-1.334-1.83-2.641l0.006-11.48 3.853-0.377c1.471-0.146 2.528 0.741 3.141 1.281-0.153-1.08-0.638-4.8762-0.705-5.3474zm82.651 0.1582c-0.07 0.47-0.55 4.0342-0.71 5.1112 0.61-0.531 1.67-1.245 3.15-1.107l3.83 0.384v11.549c0 1.305-1.05 2.166-1.81 2.616 1.26 0.12 5.17 0.54 7.33 0.781-0.77-0.598-1.83-1.656-1.83-2.961v-11.608l3.85 0.411c1.47 0.138 2.53 1.082 3.14 1.732-0.15-1.11-0.64-4.76-0.7-5.244-0.52 0.181-1.24 0.307-2.66 0.117-4.05-0.535-10.94-1.1504-10.94-1.1504-1.81-0.1737-2.13-0.3496-2.65-0.6308zm17.33 2.1352c0.75 0.613 1.76 1.676 1.76 2.972v4.424s-0.9-0.117-1.41-0.186c0.71 0.648 1.41 2.406 1.41 3.959v4.127c0 1.285-1.02 2.088-1.76 2.504 6.34 0.885 11.92 1.856 11.92 1.856 1.78 0.274 2.09 0.469 2.6 0.779 0.07-0.466 0.61-4.032 0.76-5.094-0.6 0.489-1.71 1.201-3.14 0.973l-6.74-1.107v-4.102l2.7 0.357c1.45 0.195 2.35 1.334 2.83 2.067 0-1.179-0.01-5.406-0.01-6.592-0.47 0.618-1.37 1.523-2.82 1.328l-2.71-0.355v-3.748l6.46 1.004c1.44 0.188 2.55 1.2 3.15 1.873-0.15-1.114-0.7-4.864-0.76-5.35-0.51 0.166-0.82 0.264-2.6 0.031 0 0-5.75-1.018-11.64-1.72zm-125.33 1.066c-0.993 0.019-2.098 0.124-3.33 0.32 0 0-4.203 0.668-5.488 0.875 0.768 0.399 1.834 1.192 1.837 2.508v12.348c-0.002 1.305-0.985 2.392-1.753 3.051 2.693-0.507 6.033-1 7.283-1.202-0.757-0.403-1.797-1.201-1.805-2.511l-0.055-11.659c3.313-0.528 5.384-0.789 6.993 0.754-1.855 3.205-5.522 4.272-5.522 4.272 2.615 8.057 7.675 9.447 12.549 7.205-4.024-0.161-7.613-6.234-7.613-6.234s2.948-2.078 4.724-5.706c-1.323-2.586-3.519-4.105-7.82-4.021zm140.82 1.24c0.76 0.671 1.83 1.843 1.83 3.16l-0.02 12.336c0 1.302-1.01 2.034-1.78 2.428 1.26 0.238 5.92 1.11 7.25 1.416-0.76-0.67-1.8-1.831-1.8-3.152l0.01-11.742c2.52 0.303 5.39 1.081 6.99 3.191-1.87 2.567-5.57 2.834-5.57 2.834 2.7 8.619 5.41 11.425 10.96 11.262-2.72-0.559-5.76-8.577-5.76-8.577s2.72-1.494 4.51-4.515c-1.61-3.769-4.55-6.423-11.13-7.66 0 0-4.08-0.75-5.49-0.981zm-157.85 1.451c-0.944-0.038-1.921 0.058-2.905 0.303-5.245 1.309-8.725 6.371-7.767 11.279 0.961 4.922 6.007 7.857 11.25 6.545 5.241-1.306 8.729-6.367 7.769-11.285-0.779-3.991-4.257-6.676-8.347-6.842zm175.57 2.094c1.08 0.975 2 1.974 2 3.322l0.01 4.438c-0.06-0.021-0.98-0.327-1.52-0.508 0.74 0.795 1.46 2.638 1.53 4.199v4.426c0 1.33-1.06 1.997-1.87 2.283 2.71 0.748 6.25 1.745 7.57 2.184-0.86-0.734-1.85-1.834-1.85-3.186l-0.01-8.363s7.89 13.389 8.03 13.633c0.2 0.064 4.16 1.573 5.46 2.152-1.15-1.422-1.73-2.655-1.73-4.556l-0.01-10.385c-0.01-2.964 1.06-3.612 1.87-3.891-1.48-0.541-5.61-1.961-7.62-2.541 0.79 0.804 1.89 2.16 1.89 3.514l0.02 8.43c-3.14-5.29-7.9-13.525-8-13.694-0.2-0.067-3.82-0.962-5.77-1.457zm-186.44 0.27c-1.357 0.277-5.739 1.316-7.184 1.656 0.748 0.319 1.779 1.011 1.781 2.396l0.004 8.623c-2.952-3.423-7.92-9.178-8.015-9.287-1.033 0.274-4.205 1.287-4.875 1.512 0.768 0.345 1.804 1.122 1.806 2.508v4.551c-0.055 0.017-0.921 0.295-1.431 0.455 0.691 0.34 1.379 1.762 1.435 3.328l0.002 4.539c0.003 1.364-1.002 2.706-1.769 3.514 1.637-0.77 5.841-2.203 7.183-2.569-0.746-0.297-1.778-0.892-1.779-2.279l-0.002-8.399s7.527 8.762 7.658 8.92c0.188-0.06 4.058-1.029 5.236-1.371-0.83-0.185-1.823-0.489-1.822-2.449v-10.641c0-3.037 1.003-4.261 1.772-5.007zm10.386 1.463c2.382 0.097 4.41 1.671 4.866 4.005 0.562 2.877-1.466 5.834-4.52 6.598-3.041 0.758-5.969-0.966-6.533-3.84-0.559-2.872 1.456-5.831 4.496-6.586 0.572-0.143 1.142-0.2 1.691-0.177zm59.217 11.498c-0.07 0.47-0.59 4.088-0.75 5.166 0.65-0.583 1.77-1.407 3.34-1.407h4.07v11.358c0 1.286-1.11 2.226-1.92 2.74h7.78c-0.82-0.514-1.94-1.454-1.94-2.74v-11.358h4.09c1.56 0 2.69 0.824 3.34 1.407-0.17-1.078-0.68-4.696-0.75-5.166-0.55 0.225-0.9 0.367-2.82 0.367h-11.62c-1.92 0-2.27-0.142-2.82-0.367zm31.82 0c-0.07 0.471-0.59 4.088-0.75 5.166 0.65-0.583 1.78-1.407 3.34-1.407h4.07v11.358c0 1.286-1.11 2.227-1.92 2.742h7.78c-0.82-0.515-1.94-1.456-1.94-2.742v-11.358h4.09c1.56 0 2.69 0.824 3.34 1.407-0.16-1.078-0.68-4.695-0.75-5.166-0.55 0.225-0.9 0.367-2.82 0.367h-11.62c-1.92 0-2.27-0.142-2.82-0.367zm33.8 0c-0.55 0.225-0.9 0.365-2.82 0.365h-12.62c0.81 0.502 1.9 1.417 1.9 2.693v4.346h-1.53c0.77 0.541 1.53 2.181 1.53 3.711v4.053c0 1.261-1.1 2.183-1.91 2.689h12.93c1.93 0 2.27 0.14 2.82 0.369 0.07-0.469 0.65-4.053 0.82-5.121-0.65 0.571-1.85 1.389-3.41 1.389h-7.31v-3.918h2.94c1.57 0 2.55 0.998 3.06 1.652v-6.467c-0.51 0.662-1.49 1.672-3.06 1.672h-2.94v-3.674h7.01c1.56 0 2.76 0.822 3.41 1.405-0.16-1.077-0.75-4.694-0.82-5.164zm-75.247 0.007c-5.789 0-7.613 3.249-7.613 5.051 0 3.729 3.816 4.871 7.021 5.725 2.585 0.591 5.012 1.033 5.217 2.457 0.476 3.307-9.382 1.949-12.301-1.594l1.047 6.211s1.621-1.069 2.963-0.561c1.518 0.58 2.992 0.995 5.252 0.995 4.765 0 7.621-2.529 7.621-5.051 0-3.656-3.699-4.818-7.029-5.727-2.575-0.606-5.213-1.089-5.213-2.455 0-3.185 8.647-1.467 10.972 1.012-0.19-1.264-0.88-5.699-0.88-5.699s-1.353 1.065-2.488 0.65c-1.582-0.582-2.434-1.014-4.569-1.014zm29.857 0.36c0.82 0.545 2.26 1.707 1.81 2.808l-3.39 7.422h-1.63c0.77 0.543 0.92 1.954-0.15 3.709v-0.002c-0.83 1.38-2.14 3.167-2.73 3.547h7.63c-1.29-0.661-1.31-1.907-0.37-4.109h6.83l1.9 4.117c0.67 1.442 1.63 2.292 2.87 2.525 1.26 0.242 3.16 0.078 4.62-0.912-0.41 0.045-0.8 0.007-1.16-0.123-1.16-0.401-1.96-1.861-2.26-2.517-0.01-0.017-1.03-2.239-7.6-16.461-0.21 0-5.12-0.004-6.37-0.004zm4.59 5.99l1.95 4.24h-3.92l1.97-4.24z" transform="matrix(.8 0 0 -.8 35.999 520.85)" fill="#fff"/><path d="m177.88 494.59-1.035-5.768 1.406-10.036h-27.718s-1.357-1.49-4.335-1.49c-2.977 0-4.333 1.49-4.333 1.49h-43.439l1.404 10.036-1.042 5.788c-22.139-2.484-42.246-7.789-59.049-13.828 0 0 5.725 13.604 5.784 13.685 0-0.001-2.147 2.758-2.147 2.758l1.715 0.499-5.952 7.396c28.429 9.228 62.551 13.644 98.691 13.644 36.224 0 69.16-4.444 97.626-13.708l-4.826-6.454 0.012-7.024 5.115-10.68c-16.694 5.966-35.961 11.223-57.877 13.692m53.806-2.737-0.009 6.35 5.592 7.477-1.597 0.522c-28.063 9.132-61.035 13.766-97.999 13.766-37.182 0-71.437-4.738-99.066-13.702l-1.659-0.539 5.918-7.354-1.682-0.49 2.795-3.596c-0.55-1.272-6.57-15.564-6.57-15.564l2.58 0.926c18.878 6.787 38.27 11.371 57.656 13.64l0.807-4.494-1.568-11.21h44.365c0.705-0.56 2.258-1.494 4.79-1.494 2.534 0 4.088 0.934 4.794 1.494h28.642l-1.572 11.21 0.803 4.471c18.747-2.203 37.239-6.623 56.488-13.501l2.754-0.984-6.262 13.072z" fill="#f78426"/><path d="m127.29 2.6113c-45.174 0-87.826 5.5217-123.36 17.057l7.439 9.246-2.1463 0.623s2.6833 3.45 2.6833 3.447c-0.072 0.103-7.2283 17.108-7.2283 17.108 21.003-7.55 46.138-14.181 73.812-17.287l1.301 7.236-1.756 12.545h54.295s1.7 1.863 5.42 1.863 5.42-1.863 5.42-1.863h34.65l-1.76-12.545 1.29-7.211c27.4 3.086 51.48 9.657 72.35 17.115l-6.39-13.349-0.02-8.78 6.03-8.068c-35.58-11.58-76.75-17.137-122.03-17.137zm1.9 4.9395l6.38 0.0703c-0.01-0.0038-0.01-0.008-0.02-0.0117 5.1 0.0612 11.92 0.3066 11.92 0.3066 1.83 0.0463 2.16-0.082 2.68-0.3008 0.07 0.475 0.63 4.1558 0.79 5.2458-0.63-0.606-1.76-1.469-3.25-1.506l-6.66-0.169v3.718l2.79 0.069c1.5 0.038 2.42-0.958 2.92-1.618v6.553c-0.5-0.675-1.42-1.713-2.92-1.748l-2.79-0.076 0.01 3.967 6.94 0.179c1.49 0.038 2.62-0.759 3.24-1.32-0.15 1.073-0.71 4.689-0.77 5.162-0.53-0.241-0.86-0.393-2.69-0.439 0 0-6.53-0.244-12.29-0.336 0.77-0.495 1.82-1.38 1.83-2.658l0.02-4.106c0-1.545-0.71-3.223-1.44-3.793 0.53 0.016 1.45 0.039 1.45 0.039l0.01-4.4c0.01-0.9951-0.6-1.7842-1.24-2.338-0.84 0.9338-2.13 2.966-2.65 4.273l-4.86 12.913-3.84 0.039-2.68-7.053-2.68 7.113-4.1 0.043-4.87-12.805c-0.44-1.18-2.32-3.9895-3.09-4.5757-0.52 0.4575-1.71 2.2647-1.74 4.1577 0 0-0.03 12.478-0.03 12.522 0 0.739 0.04 2.07 0.88 2.883 0.27 0.26 0.59 0.44 0.96 0.553-1.65 0.387-3.48 0.252-4.47-0.446-0.98-0.684-1.47-1.847-1.47-3.457v-5.652l-7.564 0.437-0.003 2.969c-0.004 2.856 1.011 3.757 1.785 4.24-1.26 0.075-5.778 0.402-7.387 0.534 0.755-0.569 1.808-1.614 1.811-2.917l0.005-4.169c-0.031-1.518-0.731-3.078-1.449-3.573 0.526-0.028 1.425-0.082 1.455-0.082l0.012-4.357c0.003-1.306-1.047-2.1508-1.805-2.6271 2.56-0.2012 6.126-0.4451 7.389-0.5176-0.778 0.575-1.794 1.6387-1.799 4.4937l-0.008 2.813 7.568-0.434 0.01-4.386c0-1.3066-1.07-2.2331-1.826-2.7093 2.406-0.1425 7.766-0.3653 7.776-0.3653-0.02 0.01-0.04 0.0358-0.06 0.0508 0.61-0.0262 4.79-0.1911 7.31-0.2461-1.35 0.7775-1.28 2.0999-0.19 4.6839l2.85 8.092 2.7-7.754-0.16-0.409c-0.61-1.537-2.38-4.1179-3.13-4.6441l7.4-0.1074c-1.35 0.7075-1.14 2.1075-0.19 4.7185l2.71 7.639 2.71-7.699c0.95-2.6316 1.15-3.9935-0.19-4.6722zm30.92 0.6562c2.04 0.0588 2.84 0.5203 4.33 1.1465 1.08 0.4488 2.4-0.5859 2.4-0.5859s0.54 4.4714 0.69 5.7424c-2.16-2.551-10.37-4.512-10.45-1.311-0.04 1.369 2.46 1.927 4.91 2.602 3.15 1.006 6.65 2.269 6.55 5.939-0.06 2.533-2.85 4.992-7.39 4.864-2.16-0.063-3.56-0.516-4.99-1.143-1.27-0.551-2.84 0.48-2.84 0.48l-0.84-6.263c2.69 3.636 12.06 5.275 11.7 1.933-0.16-1.431-2.47-1.941-4.91-2.603-3.04-0.944-6.66-2.196-6.56-5.938 0.05-1.81 1.88-5.023 7.4-4.863zm-73.301 0.4356c0.067 0.47 0.552 4.2674 0.705 5.3474-0.613-0.54-1.67-1.429-3.143-1.283l-3.853 0.377-0.004 11.48c0 1.308 1.062 2.181 1.83 2.641-1.273 0.105-4.977 0.473-7.328 0.725 0.763-0.588 1.814-1.634 1.814-2.94l0.004-11.545-3.832 0.377c-1.473 0.143-2.533 1.09-3.145 1.739 0.153-1.109 0.633-4.814 0.702-5.299 0.516 0.182 0.841 0.294 2.654 0.117 0 0 9.54-1.0236 10.941-1.1036 1.404-0.0775 2.136-0.3491 2.655-0.6328zm82.651 0.1562c0.52 0.2813 0.84 0.4591 2.65 0.6328 0 0 6.89 0.6164 10.94 1.1524 1.42 0.19 2.14 0.062 2.66-0.119 0.07 0.484 0.55 4.135 0.7 5.244-0.61-0.65-1.67-1.592-3.14-1.732l-3.85-0.411v11.608c0 1.305 1.06 2.365 1.83 2.963-2.16-0.243-6.07-0.663-7.33-0.782 0.76-0.451 1.81-1.31 1.81-2.617v-11.549l-3.83-0.384c-1.48-0.139-2.54 0.575-3.15 1.105 0.16-1.077 0.64-4.6412 0.71-5.1112zm17.33 2.1372c5.89 0.702 11.64 1.72 11.64 1.72 1.78 0.232 2.09 0.134 2.6-0.031 0.06 0.486 0.61 4.236 0.76 5.35-0.6-0.672-1.71-1.685-3.15-1.873l-6.46-1.004v3.748l2.71 0.357c1.45 0.194 2.35-0.714 2.82-1.33 0 1.186 0.01 5.413 0 6.592-0.47-0.733-1.37-1.87-2.82-2.065l-2.7-0.357v4.1l6.74 1.109c1.43 0.227 2.54-0.486 3.14-0.975-0.15 1.062-0.69 4.628-0.76 5.094-0.51-0.31-0.83-0.507-2.6-0.779 0 0-5.58-0.971-11.92-1.856 0.74-0.417 1.76-1.217 1.76-2.504v-4.127c0-1.553-0.7-3.313-1.41-3.96 0.51 0.068 1.41 0.187 1.41 0.187l-0.01-4.424c0-1.297-1-2.359-1.75-2.972zm-125.33 1.064c4.302-0.083 6.499 1.437 7.822 4.023-1.776 3.627-4.726 5.707-4.726 5.707s3.592 6.073 7.615 6.233c-4.873 2.244-9.934 0.852-12.549-7.207 0 0 3.668-1.065 5.522-4.27-1.608-1.543-3.679-1.282-6.993-0.754l0.053 11.659c0.008 1.31 1.05 2.108 1.807 2.513-1.252 0.202-4.592 0.695-7.285 1.201 0.768-0.658 1.754-1.747 1.755-3.052v-12.348c-0.003-1.316-1.069-2.11-1.837-2.51 1.285-0.206 5.488-0.875 5.488-0.875 1.232-0.196 2.335-0.301 3.328-0.32zm140.82 1.244c1.41 0.23 5.49 0.979 5.49 0.979 6.58 1.237 9.52 3.891 11.13 7.66-1.79 3.021-4.52 4.517-4.52 4.517s3.05 8.016 5.77 8.575c-5.55 0.165-8.26-2.643-10.96-11.262 0 0 3.69-0.268 5.57-2.834-1.6-2.111-4.47-2.889-6.99-3.191l-0.01 11.742c0 1.32 1.04 2.482 1.8 3.152-1.33-0.306-5.99-1.177-7.25-1.416 0.77-0.394 1.78-1.126 1.78-2.426l0.02-12.338c0-1.318-1.07-2.487-1.83-3.158zm-157.85 1.449c4.089 0.166 7.567 2.851 8.347 6.842 0.959 4.919-2.527 9.979-7.769 11.285-5.243 1.312-10.289-1.623-11.25-6.543-0.956-4.91 2.522-9.972 7.767-11.281 0.983-0.245 1.961-0.341 2.905-0.303zm175.57 2.096c1.95 0.494 5.57 1.386 5.77 1.455 0.1 0.168 4.86 8.404 8 13.694l-0.02-8.43c0-1.354-1.1-2.709-1.89-3.514 2.01 0.581 6.14 2 7.62 2.541-0.81 0.279-1.88 0.926-1.87 3.889l0.01 10.387c0 1.901 0.58 3.134 1.73 4.556-1.3-0.577-5.26-2.087-5.46-2.152-0.14-0.244-8.03-13.633-8.03-13.633l0.01 8.363c0 1.353 0.99 2.452 1.85 3.186-1.32-0.439-4.86-1.436-7.57-2.184 0.81-0.285 1.87-0.953 1.87-2.283v-4.428c-0.07-1.561-0.79-3.402-1.53-4.197 0.54 0.181 1.46 0.487 1.52 0.508l-0.01-4.438c0-1.348-0.92-2.346-2-3.32zm-186.44 0.268c-0.769 0.746-1.772 1.97-1.772 5.007v10.641c-0.001 1.96 0.992 2.264 1.822 2.449-1.178 0.34-5.048 1.311-5.236 1.371-0.131-0.158-7.658-8.92-7.658-8.92l0.002 8.399c0.001 1.387 1.034 1.983 1.779 2.279-1.342 0.368-5.546 1.797-7.183 2.569 0.768-0.808 1.772-2.15 1.769-3.514l-0.002-4.539c-0.057-1.566-0.743-2.988-1.433-3.328 0.508-0.16 1.375-0.438 1.431-0.455v-4.551c-0.002-1.386-1.04-2.163-1.808-2.508 0.671-0.225 3.842-1.238 4.875-1.512 0.095 0.11 5.061 5.862 8.013 9.285l-0.004-8.621c-0.002-1.383-1.033-2.077-1.781-2.396 1.445-0.34 5.829-1.379 7.186-1.656zm10.386 1.463c-0.549-0.023-1.118 0.034-1.691 0.177-3.04 0.757-5.054 3.713-4.494 6.584 0.564 2.875 3.49 4.6 6.531 3.842 3.053-0.764 5.083-3.722 4.52-6.6-0.456-2.332-2.484-3.905-4.866-4.003zm59.217 11.498c0.55 0.225 0.9 0.367 2.82 0.367h11.62c1.92 0 2.26-0.142 2.82-0.367 0.07 0.47 0.58 4.087 0.75 5.164-0.65-0.583-1.78-1.405-3.34-1.405h-4.09v11.358c0 1.285 1.12 2.228 1.94 2.742h-7.78c0.81-0.514 1.92-1.457 1.92-2.742v-11.358h-4.07c-1.56 0-2.69 0.822-3.34 1.405 0.16-1.077 0.68-4.694 0.75-5.164zm31.82 0c0.55 0.225 0.9 0.367 2.82 0.367h11.62c1.92 0 2.27-0.142 2.82-0.367 0.07 0.47 0.59 4.087 0.75 5.164-0.65-0.583-1.78-1.405-3.34-1.405h-4.09v11.358c0 1.285 1.12 2.228 1.94 2.742h-7.78c0.81-0.514 1.92-1.457 1.92-2.742v-11.358h-4.07c-1.56 0-2.69 0.822-3.34 1.405 0.16-1.077 0.68-4.694 0.75-5.164zm33.8 0c0.07 0.47 0.66 4.087 0.82 5.164-0.65-0.583-1.85-1.405-3.41-1.405h-7.01v3.672h2.94c1.57 0 2.55-1.008 3.06-1.67v6.467c-0.51-0.654-1.49-1.65-3.06-1.65h-2.94v3.916h7.31c1.56 0 2.76-0.816 3.41-1.389-0.17 1.068-0.75 4.654-0.82 5.121-0.55-0.229-0.9-0.367-2.82-0.367h-12.93c0.81-0.505 1.91-1.43 1.91-2.691v-4.053c0-1.53-0.76-3.169-1.53-3.709h1.53v-4.348c0-1.276-1.09-2.19-1.9-2.691h12.62c1.92 0 2.27-0.142 2.82-0.367zm-75.245 0.005c2.134 0 2.985 0.434 4.567 1.016 1.135 0.415 2.488-0.65 2.488-0.65s0.69 4.434 0.88 5.699c-2.325-2.48-10.974-4.196-10.974-1.01 0 1.366 2.64 1.849 5.215 2.455 3.33 0.909 7.029 2.069 7.029 5.725 0 2.522-2.856 5.053-7.621 5.053-2.26 0-3.734-0.417-5.25-0.997-1.344-0.508-2.967 0.563-2.967 0.563l-1.045-6.213c2.918 3.543 12.775 4.9 12.299 1.594-0.205-1.425-2.63-1.865-5.215-2.457-3.205-0.854-7.021-1.994-7.021-5.723 0-1.804 1.825-5.055 7.615-5.055zm29.855 0.362c1.25 0 6.16 0.004 6.37 0.004 6.57 14.222 7.59 16.445 7.6 16.463 0.3 0.655 1.1 2.115 2.26 2.517 0.36 0.13 0.75 0.165 1.16 0.121-1.46 0.989-3.36 1.152-4.62 0.912-1.24-0.233-2.21-1.083-2.87-2.525l-1.9-4.117h-6.83c-0.94 2.204-0.92 3.449 0.37 4.109h-7.63c0.59-0.38 1.9-2.164 2.73-3.545v-0.004c1.07-1.752 0.92-3.164 0.15-3.705h1.63l3.39-7.422c0.45-1.1-0.99-2.264-1.81-2.808zm4.59 5.99l-1.97 4.24h3.92l-1.95-4.24z" transform="matrix(.8 0 0 -.8 35.999 520.85)" fill="#492f92"/></g></g></svg>
