<?xml version="1.0" encoding="utf-8"?>
<svg xmlns="http://www.w3.org/2000/svg" width="312px" height="130px">
<path fill="#8E9093" d="M109.15,80.34c2.53,5.75,5.08,11.57,6.39,14.54c1.23,0,3.57,0,3.57,0v13.3H97.04c0,0,0-9.38,0-9.74
	c-1.58,0-1.82,0-3.4,0c0,0.35,0,9.74,0,9.74h-22v-13.3c0,0,2.42,0,3.62,0c1.3-2.98,3.84-8.8,6.35-14.54h-0.58V67.05h24.43h4.58
	v13.29C110.05,80.34,109.43,80.34,109.15,80.34 M280,129.24v-17.73H32v17.73H280 M32.12,67.05h34.05h4.58V81.8c0,0-5.59,0-6.39,0
	c0,1.16,0,10.47,0,11.65c0.81,0,6.39,0,6.39,0v14.72H32.12v-13.3c0,0,1.49,0,2.83,0c0-4.53,0-10,0-14.54c-1.34,0-2.83,0-2.83,0
	V67.05 M136.91,94.84c0.73,0,1.29,0,2.55,0c0-1.05,0-11.85,0-11.85s2.25,0,3.51,0c0-0.69,0-2.16,0-2.65c-1.75,0-4.3,0-6.06,0
	C136.91,83.44,136.91,91.69,136.91,94.84 M150.62,67.05l9.26,7.05v26.83l-9.6,7.25h-21.01l-9.26-7.05V74.1l9.26-7.05H150.62z
	 M200.53,67.05v13.29c0,0,1.49,0,2.83,0c0,4.53,0,10,0,14.54c-1.34,0-2.83,0-2.83,0v13.3h38.63V93.46c0,0-5.59,0-6.39,0
	c0-1.18,0-10.49,0-11.65c0.81,0,6.39,0,6.39,0V67.05h-4.58H200.53 M202.49,69.01v9.37h2.83c0,3.63,0,14.84,0,18.46h-2.83v9.37h34.71
	V95.42h-10.67c0,0,0,0.72,0,1.42c-2.58,0-5.65,0-8.23,0c0-1.78,0-2.76,0-4.55c0.86,0,0.98,0,1.84,0c0,0.71,0,1.43,0,1.43h10.67V81.5
	h-10.67c0,0,0,0.74,0,1.46c-0.86,0-0.98,0-1.84,0c0-1.79,0-2.79,0-4.59c2.58,0,5.65,0,8.23,0c0,0.72,0,1.47,0,1.47h10.67V69.01
	H202.49 M279.89,74.1l-9.26-7.05h-1.55h-19.76l-9.25,7.05v13.2c0,0,2.98,2.27,3.96,3.02c-0.92,0-3.96,0-3.96,0v10.81l9.26,7.05h21.3
	l9.26-7.05V88.1c0,0-2.99-2.27-3.96-3.02c0.93,0,3.96,0,3.96,0V74.1 M263.67,92.38c-1.04,0-5.01,0-8.66,0c0,0.2,0,3.05,0,3.57
	c0.55,0.41,0.76,0.57,1.19,0.89c1.28,0,6.2,0,7.48,0c0.43-0.32,0.65-0.48,1.19-0.89c0-0.99,0-1.66,0-2.65
	C264.33,92.88,264.11,92.72,263.67,92.38 M256.22,78.38c-0.44,0.33-0.66,0.5-1.21,0.92c0,1.03,0,1.79,0,2.82
	c0.55,0.41,0.76,0.57,1.19,0.89c1.02,0,4.99,0,8.67,0c0-0.2,0-3.11,0-3.71c-0.55-0.42-0.77-0.59-1.21-0.92
	C262.38,78.38,257.51,78.38,256.22,78.38z M269.96,69.01l7.96,6.06v8.05c0,0-5.5,0-7.81,0l7.81,5.95v11.08l-7.96,6.06h-19.98
	l-7.96-6.06v-7.88c0,0,5.52,0,7.82,0l-7.82-5.96V75.07l7.96-6.06H269.96z M185.04,94.88c-2.01,0-2.51,0-4.53,0c0-4.53,0-10,0-14.54
	c1.34,0,2.83,0,2.83,0V67.05h-4.58h-17.98v13.29c0,0,1.49,0,2.83,0c0,4.53,0,10,0,14.54c-1.33,0-2.83,0-2.83,0v13.3h38.86V92.72
	h-14.59C185.04,92.72,185.04,93.8,185.04,94.88 M44.19,0.76c0,0,0,8.04,0,11.16C40.07,7.37,34.1,0.76,34.1,0.76H1V22.5
	c0,0,4.59,0,4.8,0c0,5.42,0,13.98,0,19.4c-0.21,0-4.8,0-4.8,0v21.81h41.39c0,0,0-7.78,0-10.64C46.23,57.32,52,63.71,52,63.71h33.57
	V41.9c0,0-4.59,0-4.8,0c0-5.42,0-13.98,0-19.4c0.21,0,4.8,0,4.8,0V0.76H44.19 M103.83,0.76L87.64,11.52v41.43l16.19,10.76h38.18
	l16.19-10.76V33.87h-31.79c0,0,0,6.47,0,8.04c-2.28,0-4.76,0-6.98,0c0-4.26,0-15.21,0-19.4c2.22,0,4.7,0,6.98,0
	c0,1.78,0,8.48,0,8.48h31.79V11.52L142.02,0.76H103.83 M274.41,41.9c-2.28,0-4.76,0-6.97,0c0-4.03,0-13.72,0-19.4
	c0.21,0,6.88,0,6.97,0C274.41,28.18,274.41,37.87,274.41,41.9 M230.84,0.76v10.76L214.65,0.76h-38.19l-16.19,10.76v41.43
	l16.19,10.76h38.19l16.19-10.76V33.87h-31.79c0,0,0,6.47,0,8.04c-2.28,0-4.76,0-6.98,0c0-4.26,0-15.21,0-19.4c2.22,0,4.7,0,6.98,0
	c0,1.78,0,8.48,0,8.48h31.79V22.5c0,0,4.59,0,4.8,0c0,7.09,0,30.45,0,30.45l16.19,10.76h38.19l16.19-10.76c0,0,0-23.36,0-30.45
	c0.2,0,4.8,0,4.8,0V0.76H230.84z"/>
<path d="M42.49,118.96v4.21h-1.91l-2.2-2.84l-0.22,0.04v1.49h0.69v1.31h-3.01v-1.37h0.57v-2.85h-0.57v-1.37h2.74l1.88,2.55
	l0.23-0.04v-1.23h-0.57v-1.27h2.91v1.37H42.49 M47.84,118.96v2.85h-1.29v-2.85H47.84 M50.03,122.18v-3.61l-1.36-0.99H45.7
	l-1.33,0.94v3.66l1.33,0.99h2.96L50.03,122.18z M55.4,118.96v0.72h-1.18v-0.72H55.4 M58.16,123.17v-1.37H57.5l-0.73-1.19l0.81-0.54
	v-1.56l-1.33-0.94h-4.78v1.37h0.56v2.85h-0.56v1.37h3.14v-1.26h-0.38v-0.91h0.61l0.65,0.91h-0.3v1.26H58.16z M64.23,119.53h1.76
	v-1.94h-6.71v1.94H61v-0.57h0.53v2.85h-0.57v1.37h3.29v-1.37H63.7v-2.85h0.54V119.53 M70.95,123.17h2.93v-1.37h-0.46v-2.85h0.46
	v-1.37h-2.93v1.26h0.29v0.78h-1.24v-0.78h0.29v-1.26h-3.05v1.37h0.57v2.85h-0.57v1.37h3.05v-1.28h-0.29v-0.87h1.24v0.87h-0.29
	V123.17 M84.35,123.17l1.45-0.99v-1.22h-2.19v0.84h-1.29v-2.85h1.29v0.7h2.19v-1.08l-1.31-0.99h-3l-1.34,0.93v3.67l1.34,0.99H84.35
	 M90.7,119.38l0.41,0.97h-0.85L90.7,119.38 M94.3,123.17v-1.37h-0.7l-1.83-4.22H89.7l-1.91,4.22H87.1v1.37h3.02v-1.28h-0.53
	l0.22-0.5h1.71l0.21,0.5h-0.57v1.28H94.3z M99.52,118.96v0.72h-1.17v-0.72H99.52 M102.27,123.17v-1.37h-0.66l-0.73-1.19l0.81-0.54
	v-1.56l-1.33-0.94h-4.78v1.37h0.56v2.85h-0.56v1.37h3.14v-1.26h-0.38v-0.91h0.6l0.65,0.91h-0.3v1.26H102.27z M107.05,118.96v2.85
	h-1.29v-2.85H107.05 M109.24,122.18v-3.61l-1.36-0.99h-2.97l-1.33,0.94v3.66l1.33,0.99h2.97L109.24,122.18z M110.69,123.17h6.19
	v-2.26h-2.16v0.9h-1.28v-2.85h0.76v-1.37h-3.5v1.37h0.56v2.85h-0.56V123.17 M118.22,123.17h3.42v-1.37h-0.57v-2.85h0.57v-1.37h-3.42
	v1.37h0.58v2.85h-0.58V123.17 M129.74,118.96h0.53v-1.37h-2.91v1.27h0.57v1.23l-0.23,0.04l-1.89-2.55h-2.73v1.37h0.57v2.85h-0.57
	v1.37h3.01v-1.31h-0.69v-1.49l0.22-0.04l2.2,2.84h1.91V118.96 M135.07,119.38l0.41,0.97h-0.85L135.07,119.38 M138.67,123.17v-1.37
	h-0.7l-1.83-4.22h-2.08l-1.91,4.22h-0.69v1.37h3.02v-1.28h-0.53l0.22-0.5h1.71l0.21,0.5h-0.57v1.28H138.67z M148.97,123.17
	l1.46-0.99v-1.22h-2.19v0.84h-1.29v-2.85h1.29v0.7h2.19v-1.08l-1.31-0.99h-3l-1.34,0.93v3.67l1.34,0.99H148.97 M151.88,123.17h6.19
	v-1.76h-2.17v0.39h-1.27v-0.82h1.91v-1.29h-1.91v-0.74h1.27v0.3h2.17v-1.67h-6.19v1.37h0.54v2.85h-0.54V123.17 M166.09,118.96h0.54
	v-1.37h-2.91v1.27h0.57v1.23l-0.23,0.04l-1.88-2.55h-2.74v1.37h0.57v2.85h-0.57v1.37h3.01v-1.31h-0.69v-1.49l0.22-0.04l2.2,2.84
	h1.91V118.96 M172.74,119.53h1.76v-1.94h-6.71v1.94h1.72v-0.57h0.53v2.85h-0.57v1.37h3.29v-1.37h-0.56v-2.85h0.54V119.53
	 M179.67,118.96v0.72h-1.18v-0.72H179.67 M182.42,123.17v-1.37h-0.66l-0.73-1.19l0.82-0.54v-1.56l-1.33-0.94h-4.78v1.37h0.56v2.85
	h-0.56v1.37h3.14v-1.26h-0.38v-0.91h0.61l0.65,0.91h-0.3v1.26H182.42z M187.18,119.38l0.41,0.97h-0.85L187.18,119.38 M190.79,123.17
	v-1.37h-0.7l-1.83-4.22h-2.08l-1.91,4.22h-0.69v1.37h3.03v-1.28h-0.54l0.22-0.5h1.71l0.21,0.5h-0.57v1.28H190.79z M192.08,123.17
	h6.19v-2.26h-2.16v0.9h-1.28v-2.85h0.76v-1.37h-3.5v1.37h0.56v2.85h-0.56V123.17 M210.39,118.96h0.63v-1.37h-3.16v1.27h0.31v2.95
	h-1.21v-2.95h0.33v-1.27h-3v1.37h0.57v3.23l1.32,0.99h2.87l1.35-0.99V118.96 M219.01,118.96h0.53v-1.37h-2.91v1.27h0.57v1.23
	l-0.23,0.04l-1.88-2.55h-2.74v1.37h0.57v2.85h-0.57v1.37h3.01v-1.31h-0.69v-1.49l0.22-0.04l2.2,2.84h1.91V118.96 M220.9,123.17h3.42
	v-1.37h-0.57v-2.85h0.57v-1.37h-3.42v1.37h0.58v2.85h-0.58V123.17 M232.06,118.96h0.9v-1.37h-3.36v1.37h0.47l-0.78,1.76l-0.83-1.76
	h0.44v-1.37h-3.28v1.37h0.79l1.95,4.21h1.82L232.06,118.96 M234.26,123.17h6.19v-1.76h-2.18v0.39h-1.27v-0.82h1.91v-1.29h-1.91
	v-0.74h1.27v0.3h2.18v-1.67h-6.19v1.37h0.55v2.85h-0.55V123.17 M245.76,118.96v0.72h-1.17v-0.72H245.76 M248.51,123.17v-1.37h-0.66
	l-0.73-1.19l0.82-0.54v-1.56l-1.33-0.94h-4.78v1.37h0.56v2.85h-0.56v1.37h3.14v-1.26h-0.38v-0.91h0.6l0.65,0.91h-0.3v1.26H248.51z
	 M254.2,123.17l1.33-0.95v-1.88l-0.9-0.7h-2.62v-0.68h1.29v0.32h2.19v-0.81l-1.21-0.88h-3.13l-1.31,0.94v1.57l0.98,0.74h2.49v0.97
	h-1.29v-0.49h-2.17v0.9l1.31,0.95H254.2 M257.03,123.17h3.42v-1.37h-0.57v-2.85h0.57v-1.37h-3.42v1.37h0.58v2.85h-0.58V123.17
	 M266.66,119.53h1.75v-1.94h-6.71v1.94h1.72v-0.57h0.53v2.85h-0.57v1.37h3.29v-1.37h-0.56v-2.85h0.54V119.53 M275.5,118.96h0.66
	v-1.37h-2.93v1.24h0.28l-0.64,0.92l-0.71-0.92h0.33v-1.24h-2.97v1.37h0.66l1.57,2.09l0.01,0.76h-0.56v1.37h3.27v-1.37h-0.56v-0.76
	L275.5,118.96"/>
<path fill="#880023" stroke="#000000" stroke-width="2.6164" stroke-miterlimit="10" d="M59.43,78.53v-1.46H48.58v7.21h4.46v-1.46
	h8.05v9.6h-8.05v-1.42h-4.46v7.16h10.85v-1.42h8.05v8.18H35.39v-6.75h2.83V77.07h-2.83v-6.75h32.09v8.22H59.43z M115.83,104.9v-6.75
	h-2.43l-9.26-21.08h2.64v-6.75H84.31v6.75h2.31l-9.21,21.08h-2.49v6.75h15.46v-6.75h-1.86l1.3-2.98h11.12l1.3,2.98h-1.92v6.75
	H115.83z M92.2,89.62l3.15-7.19l3.15,7.19H92.2z M156.6,82.76v-7.04l-7.09-5.4h-19.15l-7.09,5.4v23.79l7.09,5.4h18.81l7.43-5.61
	V86.26h-13.87v6.06h3.51v4.29l-1.96,1.49h-8.57l-2.07-1.54V78.65l2.08-1.58h8.45l2.07,1.58v4.11H156.6z M235.89,78.53v-8.22H203.8
	v6.75h2.83v21.08h-2.83v6.75h32.09v-8.18h-8.05v1.42H217v-7.16h4.45v1.42h8.05v-9.6h-8.05v1.46H217v-7.21h10.84v1.46H235.89z
	 M276.61,81.81v-6.1l-7.09-5.4h-19.09l-7.09,5.4v9.96l7.09,5.4h13.69l2.07,1.58v3.95l-2.07,1.54h-8.35l-2.07-1.54v-3.02h-10.36v5.92
	l7.09,5.4h19.09l7.09-5.4v-9.79l-7.09-5.4h-13.75l-2.07-1.54v-4.12l2.08-1.58h8.34l2.07,1.58v3.16H276.61z M188.31,95.99v2.16
	h-11.07V76.71h2.83v-6.39h-16.02v6.75h2.83v21.08h-2.83v6.75h32.31v-8.91H188.31z"/>
<path fill="#880023" stroke="#000000" stroke-width="2.944" stroke-miterlimit="10" d="M77.34,19.07v26.27h4.8v14.94H53.53
	L34.16,38.84v6.5h4.8v14.94H4.43V45.34h4.8V19.07h-4.8V4.19h28.14l19.85,21.95v-7.08h-4.8V4.19h34.52v14.88H77.34z M154.77,27.55
	V13.36l-13.79-9.17h-36.11l-13.79,9.17v37.75l13.79,9.17h36.11l13.79-9.17V37.3h-24.92v7.06l-1.47,0.97h-10.83L116,44.35V20.11
	l1.56-1.04h10.81l1.48,1.02v7.46H154.77z M273.05,4.19v14.88h4.8v25.3l-1.47,0.97h-10.83L264,44.35V19.07h4.8V4.19h-34.52v14.88h4.8
	v32.04l13.79,9.17h36.11l13.79-9.17V19.07h4.8V4.19H273.05z M227.41,27.55V13.36l-13.79-9.17H177.5l-13.79,9.17v37.75l13.79,9.17
	h36.11l13.79-9.17V37.3h-24.92v7.06l-1.47,0.97h-10.83l-1.55-0.99V20.11l1.56-1.04H201l1.48,1.02v7.46H227.41z"/>
</svg>
