<svg xmlns="http://www.w3.org/2000/svg" height="75.424" viewBox="0 0 250 75.423859" width="250"><g transform="matrix(1.25 0 0 -1.25 -247.8 520.77)"><g><path d="m374.76 394.15 1.2338 4.6892 3.9254-2.2402 2.2325 15.776-122.04 0.002h-0.008-0.0804c-0.0572 0-0.1144 0-0.17315-0.002l0.94154 3.5745h-31.21l2.1459-7.8555-2.718-10.185-2.9205-3.7584h-19.757l1.9789-7.2371-2.0903-7.9034-7.2772-9.3366h37.612l-0.97711-3.6332h7.6746l-2.3268-8.8295h113.99l3.2823 12.463h32.915l4.4093 11.013 1.8243 13.465h-22.586z" fill="#babbbc"/><path d="m42.111 3.0625l2.069 7.5765-3.668 13.761-4.604 5.918h-22.853l1.855 6.793-2.883 10.907-6.5543 8.412h51.517l2.235 4.361-2.957 11.217h137.84l4.11-15.578h41.35l4.84-12.096 1.88-14.016h-28.66l3.01-11.463 4.7 2.614 1.96-13.938-149.97 0.0002c-1.208 0-2.359 0.2571-3.422 0.7344l1.379-5.2031h-33.176zm8.321 55.702v0.418h0.623v1.611h0.554v-1.611h0.625v-0.418h-1.802zm2.213 0v2.029h0.501v-1.522l0.584 1.522h0.229l0.57-1.522v1.522h0.502v-2.029h-0.73l-0.455 1.23-0.471-1.23h-0.73z" transform="matrix(.8 0 0 -.8 198.24 416.61)" fill="#006A4E"/><path d="m46.387 6.3789l1.177 4.2541-4.044 15.267-3.43 4.416h9.279l2.963-11.195 6.881 11.195h5.439l6.334-23.937-8.998-0.0001 1.17 4.2541-1.92 7.25-7.088-11.504-7.763-0.0001zm30.963 4.4531c-1.295 0-2.468 0.454-3.452 1.445-0.974 0.963-1.663 2.431-2.138 4.211l-2.186 8.219c-0.205 0.732-0.315 1.423-0.353 2.055-0.172 2.311 0.902 3.554 2.879 3.554h8.8c1.272 0 2.468-0.442 3.452-1.416 0.929-0.96 1.61-2.326 2.084-4.004l2.232-8.4c0.222-0.835 0.317-1.491 0.353-2.123 0.174-2.311-0.97-3.541-2.972-3.541h-8.699zm50.28 0.004l0.96 3.467-3.29 12.431-2.79 3.582h8.36l2.11-8h3.43l-1.16 4.418-2.81 3.582h8.36l5.17-19.48h-8.39l0.96 3.467-1.03 3.847h-3.41l1.92-7.314h-8.39zm45.79 0l0.95 3.467-3.3 12.431-2.78 3.582h15.05l1.95-4.863-3.25 0.736h-4.3l1.02-3.857h3.9l2.56 0.67 1.45-5.481-2.91 0.67h-3.91l0.31-1.132-1.36-2.084h6.22l2.84 0.73 0.67-4.869h-15.11zm-82.465 0.002l0.961 3.465-3.293 12.429-2.805 3.584h8.364l2.101-7.984h1.082l0.582 7.982h8.613l-1.71-2.078-0.75-5.963c0.56-0.108 1.08-0.354 1.54-0.783 0.62-0.578 1.07-1.411 1.33-2.398l0.98-3.696c0.18-0.637 0.27-1.163 0.3-1.66 0.13-1.981-1.07-2.929-3.16-2.898h-14.135zm20.855 0l-2.1 5.404 2.95-1.267h2.25l-3.11 11.757-2.8 3.584h8.35l4.07-15.341h2.2l2.26 1.267 0.77-5.404h-14.84zm34.75 0l1.68 3.463-0.85 16.015h5.95l4.96-10.377-0.56 10.377h6.14l9.26-19.478h-6.15l0.95 3.465-3.21 6.689 0.55-10.154h-6.21l-4.64 9.721 0.49-9.721h-8.36zm62.08 0l-2.08 5.402 2.94-1.265h2.26l-3.14 11.757-2.77 3.584h8.35l4.07-15.341h2.18l2.28 1.265 0.76-5.402h-14.85zm-13.8 0.002c-1.09-0.016-2.13 0.475-3.01 1.465-0.78 0.833-1.36 1.982-1.71 3.302l-0.92 3.502c-0.17 0.698-0.28 1.293-0.31 1.799-0.11 1.765 0.88 2.629 2.58 2.596h4.85c0.53 0 0.54 0.142 0.5 0.326l-0.54 2.025c-0.05 0.165-0.12 0.329-0.67 0.329h-5.61l-2.48-0.961-0.69 5.093h10.82c1.17 0 2.25-0.38 3.14-1.224 0.87-0.864 1.51-2.118 1.92-3.664l1.07-3.992c0.1-0.391 0.16-0.748 0.18-1.106 0.14-1.998-1.07-2.933-3.15-2.91h-4.82l0.09-0.352-1.37-2.095h7.98l2.5 0.963 0.67-5.096h-11.02zm-98.52 4.133h4.83c0.29 0 0.39 0.181 0.31 0.484l-0.59 2.252c-0.09 0.305-0.29 0.482-0.57 0.482h-2.927l0.285-1.136-1.338-2.082zm-19.558 0.002h5.076c0.384 0 0.698 0.079 0.558 0.601l-2.646 10c-0.143 0.532-0.508 0.615-0.885 0.615h-2.465c-0.375 0-0.695-0.083-0.554-0.615l2.256-8.519-1.34-2.082zm69.578 18.658l0.94 3.469-3.28 12.419-2.8 3.592-1.7-2.074-0.76-5.971c0.57-0.1 1.09-0.346 1.54-0.777 0.62-0.576 1.08-1.419 1.34-2.398l0.98-3.694c0.17-0.638 0.27-1.163 0.3-1.66 0.13-1.981-1.08-2.929-3.15-2.898h-14.15l0.96 3.464-3.29 12.43-2.81 3.584h8.37l2.1-7.994h1.08l0.58 7.992h8.62v-0.004h8.35l5.15-19.48h-8.37zm-128.94 0.002l0.946 3.467-3.284 12.419-2.804 3.598h6.054l2.93-11.037 0.053 11.037h4.213l6.195-11.101-1.992 7.503-2.793 3.598h8.353l5.159-19.484h-8.1l-5.021 9.039-0.065-9.039h-9.844zm24.606 0l0.955 3.47-3.295 12.424-2.791 3.59h8.355l5.163-19.484h-8.387zm50.332 0c-1.295 0-2.468 0.454-3.451 1.445-0.969 0.962-1.664 2.431-2.139 4.211l-2.188 8.213c-0.204 0.736-0.314 1.429-0.353 2.06-0.172 2.312 0.904 3.555 2.881 3.555h8.801c1.271 0 2.467-0.452 3.451-1.416 0.938-0.96 1.608-2.328 2.088-4.015l2.23-8.389c0.22-0.835 0.31-1.501 0.35-2.123 0.17-2.312-0.97-3.541-2.97-3.541h-8.7zm135.05 0l0.95 3.469-3.3 12.429-2.78 3.582h15.05l1.95-4.861-3.25 0.736h-4.3l1.02-3.857h3.9l2.56 0.668 1.45-5.481-2.92 0.67h-3.9l0.31-1.131-1.36-2.086h6.22l2.84 0.731 0.67-4.869h-15.11zm-61.37 0.002c-1.09-0.014-2.13 0.475-3 1.467-0.78 0.832-1.36 1.982-1.71 3.302l-0.93 3.502c-0.17 0.698-0.28 1.293-0.31 1.797-0.1 1.765 0.89 2.629 2.58 2.598h4.85c0.53 0 0.54 0.144 0.5 0.328l-0.54 2.023c-0.05 0.165-0.12 0.328-0.67 0.328l-5.6 0.002-2.49-0.963-0.68 5.094h10.81c1.17 0 2.25-0.38 3.14-1.222 0.87-0.864 1.52-2.12 1.93-3.664l1.06-3.993c0.1-0.392 0.16-0.75 0.19-1.105 0.13-1.998-1.08-2.933-3.15-2.91h-4.83l0.09-0.354-1.37-2.094h7.98l2.51 0.963 0.66-5.099h-11.02zm13.81 0l-2.09 5.404 2.94-1.268h2.26l-3.13 11.758-2.78 3.584h8.36l4.07-15.342h2.18l2.28 1.268 0.76-5.404h-14.85zm-123.36 0.002c-1.086-0.014-2.125 0.477-3 1.468-0.785 0.831-1.361 1.981-1.713 3.301l-0.916 3.502c-0.174 0.692-0.28 1.295-0.309 1.801-0.114 1.755 0.874 2.627 2.58 2.594h4.85c0.518 0 0.535 0.144 0.492 0.328l-0.537 2.025c-0.056 0.163-0.123 0.328-0.678 0.328h-5.601l-2.489-0.972-0.677 5.103h10.804c1.183 0 2.252-0.388 3.147-1.222 0.877-0.864 1.514-2.12 1.926-3.665l1.068-3.992c0.104-0.39 0.166-0.748 0.189-1.107 0.13-1.996-1.084-2.941-3.16-2.918h-4.824l0.088-0.344-1.373-2.103h7.982l2.508 0.972 0.666-5.099h-11.023zm155.06 0l-2.08 5.4 2.94-1.266h2.26l-3.13 11.76-2.78 3.582h8.35l4.07-15.342h2.18l2.28 1.266 0.76-5.4h-14.85zm-137.43 0.002c-1.087-0.014-2.125 0.475-3.004 1.466-0.779 0.833-1.356 1.983-1.707 3.303l-0.924 3.502c-0.174 0.692-0.276 1.293-0.305 1.797-0.112 1.755 0.876 2.629 2.576 2.598h4.854c0.518 0 0.534 0.142 0.49 0.326l-0.535 2.023c-0.054 0.165-0.121 0.328-0.676 0.328l-5.602 0.002-2.488-0.97-0.681 5.103h10.81c1.181 0 2.25-0.39 3.145-1.223 0.871-0.863 1.514-2.119 1.925-3.664l1.065-3.994c0.1-0.392 0.16-0.75 0.183-1.107 0.134-1.998-1.074-2.941-3.15-2.918h-4.824l0.088-0.344-1.371-2.103h7.98l2.508 0.972 0.666-5.097h-11.023zm122.32 0l0.96 3.466-7.92 12.42-2.79 3.586h6.31l-0.42-2.218 1.76-2.721h5.62l0.17 2.722-1.72 2.217h9.48l-0.92-3.529-0.94-15.943h-9.59zm-90.42 0.002l0.96 3.464-2.66 10.024c-0.72 2.7-0.47 5.005 1.42 5.697 0.68 0.253 1.77 0.291 2.86 0.291h6.52c1.18 0 2.53-0.247 3.68-1.418 1.16-1.213 1.79-3.003 2.21-4.578l3.57-13.48h-5.15l0.95 3.464-2.98 11.274c-0.14 0.529-0.51 0.611-0.88 0.611h-5.44c-0.38 0-0.73-0.082-0.59-0.611l3.92-14.738h-8.39zm24.96 4.123h4.84c0.28 0 0.38 0.179 0.3 0.494l-0.59 2.242c-0.08 0.315-0.28 0.492-0.57 0.492h-2.92l0.29-1.139-1.35-2.089zm-39.208 0.002h5.076c0.385 0 0.7 0.079 0.559 0.611l-2.647 10c-0.143 0.531-0.508 0.613-0.885 0.613h-2.464c-0.375 0-0.696-0.082-0.555-0.613l2.256-8.52-1.34-2.091zm107.66 2.33l0.27 4.131h-2.84l2.57-4.131z" transform="matrix(.8 0 0 -.8 198.24 416.61)" fill="#fff"/><path d="m60.705 56.43l2.041 3.984-2.197 8.287h131.01l3.24-12.271h-134.1zm7.449 2.841h5.739c1.005 0 1.398 0.42 1.175 1.254l-0.209 0.793c-0.166 0.636-0.647 1.001-1.443 1.092 0.779 0.101 1.072 0.516 0.881 1.242l-0.219 0.828c-0.224 0.847-0.992 1.272-2.308 1.272h-5.325l1.709-6.481zm16.688 0h6.855l-0.291 1.106h-5.299l-0.38 1.443h3.091l-0.291 1.106h-3.093l-0.422 1.605h5.365l-0.322 1.221h-6.922l1.709-6.481zm18.688 0h1.51l2.13 6.481h-1.75l-0.43-1.422h-4.25l-1.154 1.422h-1.559l5.503-6.481zm13.88 0h5.74c1 0 1.4 0.42 1.18 1.254l-0.4 1.522c-0.23 0.837-0.84 1.256-1.84 1.256h-0.88l2.44 2.449h-2.24l-2.05-2.449h-1.48l-0.65 2.449h-1.53l1.71-6.481zm18.31 0h4c0.64 0 1.05 0.104 1.23 0.313s0.19 0.618 0.03 1.219l-0.16 0.615-1.62 0.238 0.32-1.228h-4.21l-1.08 4.103h4.21l0.36-1.392 1.48 0.314-0.2 0.766c-0.16 0.603-0.39 1.008-0.68 1.217-0.28 0.208-0.75 0.316-1.39 0.316h-4c-0.64 0-1.05-0.108-1.23-0.316-0.17-0.209-0.18-0.614-0.03-1.217l0.9-3.416c0.16-0.601 0.39-1.01 0.68-1.219 0.28-0.209 0.75-0.313 1.39-0.313zm17.76 0h1.51l2.14 6.481h-1.76l-0.43-1.422h-4.24l-1.16 1.422h-1.55l5.49-6.481zm12.37 0h7.72l-0.3 1.157h-3.09l-1.4 5.324h-1.56l1.4-5.324h-3.08l0.31-1.157zm17.72 0h3.81c0.61 0 1.02 0.1 1.21 0.301 0.2 0.201 0.22 0.572 0.08 1.117l-0.04 0.137-1.46 0.317 0.2-0.743h-4.41l-0.36 1.395h4.19c0.64 0 1.05 0.104 1.24 0.312 0.18 0.211 0.19 0.616 0.03 1.221l-0.23 0.891c-0.16 0.603-0.39 1.008-0.68 1.217-0.3 0.208-0.76 0.316-1.4 0.316h-4.14c-0.64 0-1.06-0.108-1.24-0.316-0.18-0.209-0.19-0.614-0.03-1.217l0.04-0.176 1.45-0.277-0.2 0.765h4.74l0.39-1.48h-4.18c-0.64 0-1.05-0.106-1.23-0.315-0.18-0.208-0.19-0.614-0.03-1.216l0.19-0.717c0.16-0.601 0.38-1.01 0.67-1.219s0.75-0.313 1.39-0.313zm-114.16 1.055l-0.404 1.543h3.557c0.475 0 0.756-0.154 0.837-0.463l0.163-0.615c0.081-0.311-0.117-0.465-0.594-0.465h-3.559zm49.244 0.049l-0.48 1.822h3.51c0.24 0 0.41-0.026 0.52-0.076 0.15-0.075 0.26-0.223 0.31-0.443l0.21-0.783c0.06-0.219 0.03-0.368-0.08-0.444-0.08-0.05-0.24-0.076-0.48-0.076h-3.51zm-14.75 0.152l-2.19 2.637h2.93l-0.74-2.637zm49.96 0l-2.19 2.637h2.93l-0.74-2.637zm-85.141 2.412l-0.434 1.643h3.559c0.259 0 0.448-0.03 0.568-0.088 0.161-0.085 0.272-0.247 0.336-0.49l0.131-0.488c0.064-0.242 0.036-0.408-0.078-0.491-0.089-0.059-0.263-0.086-0.524-0.086h-3.558z" transform="matrix(.8 0 0 -.8 198.24 416.61)" fill="#babbbc"/></g></g></svg>
