<?xml version="1.0" encoding="UTF-8" standalone="no"?>
<!-- Created with Inkscape (http://www.inkscape.org/) -->

<svg
   version="1.1"
   id="svg2"
   xml:space="preserve"
   width="228.48"
   height="31.629066"
   viewBox="0 0 228.48 31.629066"
   sodipodi:docname="Oakland Golden Grizzlies wordmark Oakland.svg"
   inkscape:version="1.1.1 (3bf5ae0d25, 2021-09-20)"
   xmlns:inkscape="http://www.inkscape.org/namespaces/inkscape"
   xmlns:sodipodi="http://sodipodi.sourceforge.net/DTD/sodipodi-0.dtd"
   xmlns="http://www.w3.org/2000/svg"
   xmlns:svg="http://www.w3.org/2000/svg"><defs
     id="defs6"><clipPath
       clipPathUnits="userSpaceOnUse"
       id="clipPath52"><path
         d="M 35.781,74.435 H 165.772 V 177.281 H 35.781 Z"
         id="path50" /></clipPath><clipPath
       clipPathUnits="userSpaceOnUse"
       id="clipPath72"><path
         d="M 35.781,74.435 H 165.773 V 182.939 H 35.781 Z"
         id="path70" /></clipPath><clipPath
       clipPathUnits="userSpaceOnUse"
       id="clipPath212"><path
         d="m 177.188,77.601 h 120.324 v 93.476 H 177.188 Z"
         id="path210" /></clipPath><clipPath
       clipPathUnits="userSpaceOnUse"
       id="clipPath228"><path
         d="M 175.753,73.853 H 298.88 v 109.44 H 175.753 Z"
         id="path226" /></clipPath><clipPath
       clipPathUnits="userSpaceOnUse"
       id="clipPath326"><path
         d="m 310.12,73.853 h 123.126 v 109.44 H 310.12 Z"
         id="path324" /></clipPath><clipPath
       clipPathUnits="userSpaceOnUse"
       id="clipPath422"><path
         d="M 36,225.918 H 207.36 V 249.64 H 36 Z"
         id="path420" /></clipPath><clipPath
       clipPathUnits="userSpaceOnUse"
       id="clipPath490"><path
         d="M 228.218,222.815 H 433.246 V 269 H 228.218 Z"
         id="path488" /></clipPath><clipPath
       clipPathUnits="userSpaceOnUse"
       id="clipPath502"><path
         d="m 261.361,222.815 h 171.886 v 38.719 H 261.361 Z"
         id="path500" /></clipPath><clipPath
       clipPathUnits="userSpaceOnUse"
       id="clipPath514"><path
         d="M 228.218,222.815 H 433.246 V 269 H 228.218 Z"
         id="path512" /></clipPath><clipPath
       clipPathUnits="userSpaceOnUse"
       id="clipPath526"><path
         d="m 261.361,222.815 h 171.886 v 38.719 H 261.361 Z"
         id="path524" /></clipPath><clipPath
       clipPathUnits="userSpaceOnUse"
       id="clipPath538"><path
         d="M 228.218,222.815 H 433.246 V 269 H 228.218 Z"
         id="path536" /></clipPath><clipPath
       clipPathUnits="userSpaceOnUse"
       id="clipPath550"><path
         d="m 261.361,222.815 h 171.886 v 38.719 H 261.361 Z"
         id="path548" /></clipPath><clipPath
       clipPathUnits="userSpaceOnUse"
       id="clipPath562"><path
         d="M 228.218,222.815 H 433.246 V 269 H 228.218 Z"
         id="path560" /></clipPath><clipPath
       clipPathUnits="userSpaceOnUse"
       id="clipPath574"><path
         d="m 261.361,222.815 h 171.886 v 38.719 H 261.361 Z"
         id="path572" /></clipPath><clipPath
       clipPathUnits="userSpaceOnUse"
       id="clipPath586"><path
         d="M 228.218,222.815 H 433.246 V 269 H 228.218 Z"
         id="path584" /></clipPath><clipPath
       clipPathUnits="userSpaceOnUse"
       id="clipPath598"><path
         d="m 261.361,222.815 h 171.886 v 38.719 H 261.361 Z"
         id="path596" /></clipPath><clipPath
       clipPathUnits="userSpaceOnUse"
       id="clipPath610"><path
         d="M 228.218,222.815 H 433.246 V 269 H 228.218 Z"
         id="path608" /></clipPath><clipPath
       clipPathUnits="userSpaceOnUse"
       id="clipPath622"><path
         d="m 261.361,222.815 h 171.886 v 38.719 H 261.361 Z"
         id="path620" /></clipPath><clipPath
       clipPathUnits="userSpaceOnUse"
       id="clipPath634"><path
         d="M 228.218,222.815 H 433.246 V 269 H 228.218 Z"
         id="path632" /></clipPath><clipPath
       clipPathUnits="userSpaceOnUse"
       id="clipPath646"><path
         d="m 261.361,222.815 h 171.886 v 38.719 H 261.361 Z"
         id="path644" /></clipPath><clipPath
       clipPathUnits="userSpaceOnUse"
       id="clipPath658"><path
         d="M 228.218,222.815 H 433.246 V 269 H 228.218 Z"
         id="path656" /></clipPath><clipPath
       clipPathUnits="userSpaceOnUse"
       id="clipPath670"><path
         d="m 261.361,222.815 h 171.886 v 38.719 H 261.361 Z"
         id="path668" /></clipPath><clipPath
       clipPathUnits="userSpaceOnUse"
       id="clipPath682"><path
         d="M 228.218,222.815 H 433.246 V 269 H 228.218 Z"
         id="path680" /></clipPath><clipPath
       clipPathUnits="userSpaceOnUse"
       id="clipPath694"><path
         d="m 261.361,222.815 h 171.886 v 38.719 H 261.361 Z"
         id="path692" /></clipPath><clipPath
       clipPathUnits="userSpaceOnUse"
       id="clipPath706"><path
         d="M 228.218,222.815 H 433.246 V 269 H 228.218 Z"
         id="path704" /></clipPath><clipPath
       clipPathUnits="userSpaceOnUse"
       id="clipPath718"><path
         d="m 261.361,222.815 h 171.886 v 38.719 H 261.361 Z"
         id="path716" /></clipPath><clipPath
       clipPathUnits="userSpaceOnUse"
       id="clipPath730"><path
         d="M 228.218,222.815 H 433.246 V 269 H 228.218 Z"
         id="path728" /></clipPath><clipPath
       clipPathUnits="userSpaceOnUse"
       id="clipPath742"><path
         d="m 261.361,222.815 h 171.886 v 38.719 H 261.361 Z"
         id="path740" /></clipPath><clipPath
       clipPathUnits="userSpaceOnUse"
       id="clipPath754"><path
         d="M 228.218,222.815 H 433.246 V 269 H 228.218 Z"
         id="path752" /></clipPath><clipPath
       clipPathUnits="userSpaceOnUse"
       id="clipPath766"><path
         d="m 261.361,222.815 h 171.886 v 38.719 H 261.361 Z"
         id="path764" /></clipPath><clipPath
       clipPathUnits="userSpaceOnUse"
       id="clipPath778"><path
         d="M 228.218,222.815 H 433.246 V 269 H 228.218 Z"
         id="path776" /></clipPath><clipPath
       clipPathUnits="userSpaceOnUse"
       id="clipPath814"><path
         d="m 261.361,222.815 h 171.886 v 38.719 H 261.361 Z"
         id="path812" /></clipPath><clipPath
       clipPathUnits="userSpaceOnUse"
       id="clipPath826"><path
         d="M 228.218,222.815 H 433.246 V 269 H 228.218 Z"
         id="path824" /></clipPath><clipPath
       clipPathUnits="userSpaceOnUse"
       id="clipPath838"><path
         d="m 261.361,222.815 h 171.886 v 38.719 H 261.361 Z"
         id="path836" /></clipPath><clipPath
       clipPathUnits="userSpaceOnUse"
       id="clipPath850"><path
         d="M 228.218,222.815 H 433.246 V 269 H 228.218 Z"
         id="path848" /></clipPath><clipPath
       clipPathUnits="userSpaceOnUse"
       id="clipPath862"><path
         d="m 261.361,222.815 h 171.886 v 38.719 H 261.361 Z"
         id="path860" /></clipPath><clipPath
       clipPathUnits="userSpaceOnUse"
       id="clipPath874"><path
         d="M 228.218,222.815 H 433.246 V 269 H 228.218 Z"
         id="path872" /></clipPath><clipPath
       clipPathUnits="userSpaceOnUse"
       id="clipPath886"><path
         d="m 261.361,222.815 h 171.886 v 38.719 H 261.361 Z"
         id="path884" /></clipPath><clipPath
       clipPathUnits="userSpaceOnUse"
       id="clipPath898"><path
         d="M 228.218,222.815 H 433.246 V 269 H 228.218 Z"
         id="path896" /></clipPath><clipPath
       clipPathUnits="userSpaceOnUse"
       id="clipPath910"><path
         d="m 261.361,222.815 h 171.886 v 38.719 H 261.361 Z"
         id="path908" /></clipPath><clipPath
       clipPathUnits="userSpaceOnUse"
       id="clipPath922"><path
         d="M 228.218,222.815 H 433.246 V 269 H 228.218 Z"
         id="path920" /></clipPath><clipPath
       clipPathUnits="userSpaceOnUse"
       id="clipPath934"><path
         d="m 261.361,222.815 h 171.886 v 38.719 H 261.361 Z"
         id="path932" /></clipPath><clipPath
       clipPathUnits="userSpaceOnUse"
       id="clipPath946"><path
         d="M 228.218,222.815 H 433.246 V 269 H 228.218 Z"
         id="path944" /></clipPath><clipPath
       clipPathUnits="userSpaceOnUse"
       id="clipPath958"><path
         d="m 261.361,222.815 h 171.886 v 38.719 H 261.361 Z"
         id="path956" /></clipPath><clipPath
       clipPathUnits="userSpaceOnUse"
       id="clipPath970"><path
         d="M 228.218,222.815 H 433.246 V 269 H 228.218 Z"
         id="path968" /></clipPath><clipPath
       clipPathUnits="userSpaceOnUse"
       id="clipPath982"><path
         d="m 261.361,222.815 h 171.886 v 38.719 H 261.361 Z"
         id="path980" /></clipPath><clipPath
       clipPathUnits="userSpaceOnUse"
       id="clipPath994"><path
         d="M 228.218,222.815 H 433.246 V 269 H 228.218 Z"
         id="path992" /></clipPath><clipPath
       clipPathUnits="userSpaceOnUse"
       id="clipPath1006"><path
         d="m 261.361,222.815 h 171.886 v 38.719 H 261.361 Z"
         id="path1004" /></clipPath><clipPath
       clipPathUnits="userSpaceOnUse"
       id="clipPath1018"><path
         d="M 228.218,222.815 H 433.246 V 269 H 228.218 Z"
         id="path1016" /></clipPath><clipPath
       clipPathUnits="userSpaceOnUse"
       id="clipPath1030"><path
         d="m 261.361,222.815 h 171.886 v 38.719 H 261.361 Z"
         id="path1028" /></clipPath><clipPath
       clipPathUnits="userSpaceOnUse"
       id="clipPath1042"><path
         d="M 228.218,222.815 H 433.246 V 269 H 228.218 Z"
         id="path1040" /></clipPath><clipPath
       clipPathUnits="userSpaceOnUse"
       id="clipPath1054"><path
         d="m 261.361,222.815 h 171.886 v 38.719 H 261.361 Z"
         id="path1052" /></clipPath><clipPath
       clipPathUnits="userSpaceOnUse"
       id="clipPath1066"><path
         d="M 228.218,222.815 H 433.246 V 269 H 228.218 Z"
         id="path1064" /></clipPath><clipPath
       clipPathUnits="userSpaceOnUse"
       id="clipPath1078"><path
         d="m 261.361,222.815 h 171.886 v 38.719 H 261.361 Z"
         id="path1076" /></clipPath><clipPath
       clipPathUnits="userSpaceOnUse"
       id="clipPath1090"><path
         d="M 228.218,222.815 H 433.246 V 269 H 228.218 Z"
         id="path1088" /></clipPath><clipPath
       clipPathUnits="userSpaceOnUse"
       id="clipPath1102"><path
         d="m 261.361,222.815 h 171.886 v 38.719 H 261.361 Z"
         id="path1100" /></clipPath><clipPath
       clipPathUnits="userSpaceOnUse"
       id="clipPath1114"><path
         d="M 228.218,222.815 H 433.246 V 269 H 228.218 Z"
         id="path1112" /></clipPath><clipPath
       clipPathUnits="userSpaceOnUse"
       id="clipPath1126"><path
         d="m 261.361,222.815 h 171.886 v 38.719 H 261.361 Z"
         id="path1124" /></clipPath><clipPath
       clipPathUnits="userSpaceOnUse"
       id="clipPath1138"><path
         d="M 228.218,222.815 H 433.246 V 269 H 228.218 Z"
         id="path1136" /></clipPath><clipPath
       clipPathUnits="userSpaceOnUse"
       id="clipPath1150"><path
         d="m 261.361,222.815 h 171.886 v 38.719 H 261.361 Z"
         id="path1148" /></clipPath><clipPath
       clipPathUnits="userSpaceOnUse"
       id="clipPath1162"><path
         d="M 228.218,222.815 H 433.246 V 269 H 228.218 Z"
         id="path1160" /></clipPath><clipPath
       clipPathUnits="userSpaceOnUse"
       id="clipPath1174"><path
         d="m 261.361,222.815 h 171.886 v 38.719 H 261.361 Z"
         id="path1172" /></clipPath><clipPath
       clipPathUnits="userSpaceOnUse"
       id="clipPath1186"><path
         d="M 228.218,222.815 H 433.246 V 269 H 228.218 Z"
         id="path1184" /></clipPath><clipPath
       clipPathUnits="userSpaceOnUse"
       id="clipPath1198"><path
         d="m 261.361,222.815 h 171.886 v 38.719 H 261.361 Z"
         id="path1196" /></clipPath><clipPath
       clipPathUnits="userSpaceOnUse"
       id="clipPath1210"><path
         d="M 228.218,222.815 H 433.246 V 269 H 228.218 Z"
         id="path1208" /></clipPath><clipPath
       clipPathUnits="userSpaceOnUse"
       id="clipPath1222"><path
         d="m 261.361,222.815 h 171.886 v 38.719 H 261.361 Z"
         id="path1220" /></clipPath><clipPath
       clipPathUnits="userSpaceOnUse"
       id="clipPath1234"><path
         d="M 228.218,222.815 H 433.246 V 269 H 228.218 Z"
         id="path1232" /></clipPath><clipPath
       clipPathUnits="userSpaceOnUse"
       id="clipPath1318"><path
         d="M 104.291,293.75 H 373.789 V 470.83 H 104.291 Z"
         id="path1316" /></clipPath><clipPath
       clipPathUnits="userSpaceOnUse"
       id="clipPath1552"><path
         d="M 104.291,293.75 H 373.789 V 470.83 H 104.291 Z"
         id="path1550" /></clipPath></defs><sodipodi:namedview
     id="namedview4"
     pagecolor="#ffffff"
     bordercolor="#666666"
     borderopacity="1.0"
     inkscape:pageshadow="2"
     inkscape:pageopacity="0.0"
     inkscape:pagecheckerboard="0"
     showgrid="false"
     inkscape:zoom="4.2007576"
     inkscape:cx="156.28133"
     inkscape:cy="0.11902615"
     inkscape:window-width="2560"
     inkscape:window-height="1387"
     inkscape:window-x="1912"
     inkscape:window-y="-8"
     inkscape:window-maximized="1"
     inkscape:current-layer="g8" /><g
     id="g8"
     inkscape:groupmode="layer"
     inkscape:label="Branding_guide"
     transform="matrix(1.3333333,0,0,-1.3333333,-47.999999,332.85333)"><g
       id="g416"><g
         id="g418"
         clip-path="url(#clipPath422)"><path
           d="m 49.442,242.013 h -1.655 v -8.467 h 1.655 z M 54.131,225.92 H 43.098 c -1.881,-0.014 -3.853,0.477 -5.243,1.985 -1.375,1.505 -1.853,3.536 -1.855,5.895 v 7.958 c 0.002,2.358 0.48,4.391 1.855,5.897 1.39,1.506 3.362,1.999 5.243,1.985 h 11.033 c 1.881,0.014 3.852,-0.477 5.242,-1.985 1.375,-1.506 1.853,-3.539 1.855,-5.897 V 233.8 c -0.002,-2.359 -0.48,-4.39 -1.855,-5.895 -1.371,-1.487 -3.306,-1.985 -5.163,-1.985 z"
           style="fill:#927f3b;fill-opacity:1;fill-rule:nonzero;stroke:none"
           id="path424" /><g
           id="g426"
           transform="translate(72.7855,225.9195)"><path
             d="M 0,0 1.604,3.206 C 1.688,3.373 1.751,3.501 1.791,3.584 1.777,3.771 1.714,4.051 1.698,4.057 L 1.218,5.184 H -4.404 L -5.101,3.757 C -5.128,3.702 -5.137,3.653 -5.139,3.603 c 0,-0.023 0,-0.045 0,-0.065 0.03,-0.052 0.069,-0.117 0.115,-0.195 L -3.047,0 h -13.862 l 2.77,3.574 c 1.142,1.489 1.275,1.679 1.952,3.093 l 6.432,13.472 -2.783,3.582 H 6.183 L 13.614,5.734 C 13.932,4.976 14.418,4.229 14.895,3.712 L 18.298,0 Z"
             style="fill:#927f3b;fill-opacity:1;fill-rule:nonzero;stroke:none"
             id="path428" /></g><g
           id="g430"
           transform="translate(97.689,246.4652)"><path
             d="m 0,0 c -0.206,-0.485 -0.317,-0.617 -0.365,-1.695 l 1.129,1.312 c 0.311,0.35 0.437,0.542 0.477,0.615 V 0.235 C 1.243,0.289 1.228,0.441 1.198,0.682 L 1.017,2.12 Z m 2.12,-20.547 -2.477,4.695 c 0.053,-0.919 0.163,-1.062 0.357,-1.518 l 1.523,-3.176 h -15.604 l 1.526,3.176 c 0.242,0.57 0.351,0.651 0.384,2.354 v 12.659 c -0.033,1.704 -0.142,1.787 -0.384,2.355 l -1.526,3.177 h 14.965 10.12 l 0.964,-3.581 C 11.055,-0.925 10.089,-1.55 9.202,-2.455 l -2.423,-2.588 4.821,-8.207 0.001,10e-4 c 0.626,-1.064 1.657,-2.671 2.505,-3.557 l 3.548,-3.741 z"
             style="fill:#927f3b;fill-opacity:1;fill-rule:nonzero;stroke:none"
             id="path432" /></g><g
           id="g434"
           transform="translate(107.9605,225.9195)"><path
             d="m 0,0 1.524,3.175 c 0.245,0.57 0.354,0.652 0.385,2.357 v 12.657 c -0.031,1.704 -0.14,1.785 -0.385,2.357 l -1.522,3.175 h 15.603 l -1.524,-3.177 c -0.245,-0.57 -0.354,-0.651 -0.384,-2.355 V 7.626 h 3.931 V 5.409 4.433 5.409 7.626 c 0.473,-0.007 1.363,0.075 1.788,0.219 0.14,0.041 0.197,0.072 0.195,0.074 l 4.17,2.625 L 22.039,0 Z"
             style="fill:#927f3b;fill-opacity:1;fill-rule:nonzero;stroke:none"
             id="path436" /></g><g
           id="g438"
           transform="translate(141.021,225.9195)"><path
             d="M 0,0 1.603,3.206 C 1.686,3.373 1.748,3.501 1.79,3.585 1.775,3.773 1.712,4.05 1.697,4.057 L 1.217,5.183 H -4.405 L -5.103,3.752 C -5.129,3.702 -5.14,3.655 -5.14,3.602 c 0,-0.023 10e-4,-0.046 10e-4,-0.065 0.03,-0.052 0.068,-0.118 0.113,-0.193 L -3.048,0 h -13.863 l 2.771,3.574 c 1.141,1.488 1.275,1.679 1.951,3.092 l 6.433,13.473 -2.785,3.581 H 6.182 L 13.613,5.732 C 13.93,4.978 14.416,4.23 14.892,3.712 L 18.296,0 Z"
             style="fill:#927f3b;fill-opacity:1;fill-rule:nonzero;stroke:none"
             id="path440" /></g><g
           id="g442"
           transform="translate(165.8085,225.9195)"><path
             d="M 0,0 -4.43,8.89 V 5.682 C -4.434,4.625 -4.393,4.081 -4.353,3.93 -4.31,3.794 -4.376,3.89 -4.107,3.489 L -1.661,0 h -13.16 l 2.442,3.487 c 0.269,0.403 0.204,0.309 0.245,0.445 0.04,0.149 0.082,0.693 0.078,1.75 v 12.357 c 0.004,1.055 -0.038,1.6 -0.078,1.748 -0.041,0.138 0.023,0.044 -0.245,0.446 l -2.441,3.488 H 1.144 l 4.34,-8.712 v 3.03 c 0.006,1.055 -0.039,1.6 -0.076,1.75 -0.044,0.136 0.021,0.042 -0.246,0.444 l -2.441,3.486 h 13.155 l -2.441,-3.486 c -0.269,-0.402 -0.204,-0.308 -0.247,-0.444 -0.039,-0.15 -0.081,-0.695 -0.077,-1.75 L 13.111,0 Z"
             style="fill:#927f3b;fill-opacity:1;fill-rule:nonzero;stroke:none"
             id="path444" /></g><path
           d="m 190.914,242.014 h -0.783 v -8.468 h 0.783 z m -14.475,-16.094 1.521,3.173 c 0.244,0.571 0.354,0.654 0.385,2.358 v 12.658 c -0.031,1.704 -0.141,1.786 -0.385,2.356 l -1.521,3.175 18.498,-10e-4 c 2.285,0 4.355,-0.412 5.884,-1.929 1.501,-1.541 1.875,-3.587 1.879,-5.771 v -8.319 c -0.004,-2.185 -0.378,-4.229 -1.879,-5.773 -1.529,-1.515 -3.599,-1.927 -5.884,-1.927 z"
           style="fill:#927f3b;fill-opacity:1;fill-rule:nonzero;stroke:none"
           id="path446" /><g
           id="g448"
           transform="translate(206.9305,226.3836)"><path
             d="M 0,0 V 2.175 H -0.012 L -0.865,0 H -1.136 L -1.989,2.175 H -2.002 V 0 h -0.429 v 2.604 h 0.663 l 0.775,-1.979 0.764,1.979 H 0.43 V 0 Z M -3.781,2.258 V 0 h -0.43 v 2.258 h -0.815 v 0.346 h 2.06 V 2.258 Z"
             style="fill:#927f3b;fill-opacity:1;fill-rule:nonzero;stroke:none"
             id="path450" /></g><g
           id="g452"
           transform="translate(192.244,232.896)"><path
             d="m 0,0 c 0,-0.303 -0.013,-0.523 -0.035,-0.641 0,-0.004 -10e-4,-0.007 -10e-4,-0.011 -0.089,-0.015 -0.249,-0.031 -0.466,-0.029 h -2.94 v 11.127 h 2.94 c 0.217,0.002 0.376,-0.011 0.466,-0.026 C -0.018,10.307 0.004,10.081 0,9.766 Z M -0.502,12.22 H -5.215 V -2.453 h 4.713 c 0.63,0.012 1.281,0.021 1.821,0.608 C 1.79,-1.236 1.753,-0.672 1.771,0 L 1.773,9.766 C 1.753,10.437 1.79,11.003 1.319,11.612 0.777,12.2 0.128,12.209 -0.502,12.22 M 7.353,0.725 c 0,-1.87 -0.356,-2.97 -0.979,-3.59 C 5.764,-3.49 4.65,-3.876 2.694,-3.876 l -13.718,0.002 c 0.147,0.616 0.234,1.383 0.227,2.429 v 12.657 c 0.007,1.045 -0.08,1.812 -0.227,2.429 H 2.694 c 1.956,0.002 3.07,-0.383 3.68,-1.011 0.623,-0.617 0.979,-1.719 0.979,-3.587 z m -23.634,12.727 c -0.128,-0.616 -0.143,-1.294 -0.145,-2.391 l -0.001,-14.936 h -8.088 L -32.472,12.1 h -1.495 V -1.294 c 10e-4,-1.097 0.016,-1.776 0.144,-2.393 0.012,-0.064 0.027,-0.126 0.043,-0.188 h -1.796 c 0.016,0.062 0.031,0.124 0.044,0.188 0.126,0.616 0.141,1.296 0.143,2.393 v 12.355 c -0.002,1.097 -0.017,1.775 -0.143,2.391 -0.013,0.064 -0.028,0.128 -0.045,0.19 h 8.367 l 7.835,-15.733 h 1.526 v 13.152 c -0.002,1.097 -0.017,1.775 -0.143,2.391 -0.013,0.064 -0.028,0.128 -0.044,0.19 h 1.797 c -0.015,-0.062 -0.031,-0.126 -0.042,-0.19 M -46.35,-3.876 c 0.018,0.124 0.025,0.25 0.021,0.38 -0.005,0.57 -0.096,1.208 -0.345,1.798 l -1.282,3.008 h -9.609 l -0.244,-0.499 -1.295,-2.651 c -0.24,-0.478 -0.36,-1.007 -0.36,-1.534 -0.013,-0.169 -0.007,-0.337 0.012,-0.502 h -2.398 c 0.468,0.684 0.806,1.301 1.241,2.234 l 7.256,15.197 -0.067,0.087 h 6.304 l 6.646,-16.088 c 0.211,-0.498 0.461,-0.978 0.738,-1.43 z m -18.527,0.002 h -14.622 c 0.148,0.616 0.235,1.383 0.226,2.428 l 0.003,12.658 c 0.007,1.045 -0.081,1.812 -0.229,2.428 h 6.036 c -0.147,-0.616 -0.234,-1.383 -0.227,-2.428 V -2.454 h 7.035 v 0.001 c 0.544,0.013 1.289,0.036 2.045,0.189 z m -25.687,0 -4.656,8.823 -2.821,-3.163 v -3.233 c -0.009,-1.044 0.078,-1.811 0.226,-2.429 h -6.036 c 0.148,0.618 0.234,1.385 0.227,2.429 v 12.66 c 0.007,1.045 -0.079,1.812 -0.227,2.429 h 6.036 c -0.149,-0.617 -0.235,-1.384 -0.228,-2.429 V 3.488 l 6.592,7.659 c 0.825,0.907 1.213,1.702 1.238,2.495 h 2.995 c -0.128,-0.124 -0.259,-0.258 -0.395,-0.403 l -4.012,-4.285 6.002,-10.217 0.764,0.45 -0.762,-0.454 c 0.431,-0.722 1.02,-1.682 1.695,-2.607 z m -24.021,0 c 0.018,0.123 0.025,0.249 0.021,0.379 -0.004,0.57 -0.097,1.208 -0.343,1.796 l -1.285,3.009 h -9.607 l -0.243,-0.497 -1.295,-2.653 c -0.24,-0.477 -0.363,-1.006 -0.361,-1.534 -0.012,-0.169 -0.008,-0.335 0.013,-0.5 h -2.397 c 0.466,0.683 0.804,1.3 1.238,2.232 l 7.256,15.198 -0.066,0.086 h 6.304 l 6.646,-16.088 c 0.211,-0.498 0.461,-0.978 0.738,-1.428 z M 7.632,13.879 c -1.134,1.134 -2.795,1.533 -4.938,1.535 h -16.387 v 0 h -7.467 l 0.976,-1.394 c 0.298,-0.433 0.379,-0.59 0.457,-0.934 0.078,-0.349 0.107,-0.95 0.107,-2.025 l -10e-4,-8.679 -6.493,13.032 H -38.7 l 0.974,-1.394 c 0.298,-0.433 0.381,-0.59 0.459,-0.934 0.078,-0.349 0.108,-0.95 0.106,-2.025 l -0.002,-12.355 c 0.004,-1.075 -0.026,-1.676 -0.104,-2.026 -0.055,-0.237 -0.116,-0.389 -0.244,-0.601 -0.511,0.608 -0.988,1.362 -1.323,2.159 l -7.097,17.176 h -11.113 l 1.62,-2.082 -6.786,-14.214 c -0.213,-0.45 -0.386,-0.795 -0.558,-1.106 l 0.473,2.859 -1.669,-1.054 c -0.462,-0.33 -1.943,-0.519 -2.691,-0.497 h -5.263 v 11.892 c 0.012,1.785 0.201,2.252 0.516,2.932 l 0.611,1.27 h -11.378 l 0.609,-1.27 c 0.314,-0.68 0.503,-1.147 0.515,-2.932 V -1.446 c -0.01,-1.55 -0.155,-2.106 -0.399,-2.671 -0.98,1.042 -2.011,2.673 -2.653,3.758 l -0.001,-0.001 -5.328,9.07 3.104,3.313 c 0.968,1.013 2.409,2.044 3.298,2.54 l 0.551,0.85 h -9.69 l 0.125,-0.996 c 0.031,-0.24 0.054,-0.447 0.054,-0.612 -0.025,-0.418 -0.005,-0.541 -0.806,-1.497 l -3.48,-4.04 10e-4,2.945 c 0.013,1.784 0.201,2.252 0.515,2.931 l 0.61,1.269 h -11.377 l 0.609,-1.269 c 0.314,-0.679 0.502,-1.147 0.515,-2.931 v -12.66 c -0.01,-1.392 -0.129,-1.982 -0.329,-2.498 -0.519,0.613 -1.002,1.377 -1.343,2.183 l -7.095,17.176 h -11.115 l 1.62,-2.083 -6.787,-14.213 c -0.686,-1.453 -0.956,-1.854 -2.1,-3.335 l -1.109,-1.431 h 8.817 l -0.79,1.338 c -0.394,0.756 -0.251,0.263 -0.298,0.936 0,0.254 0.059,0.509 0.177,0.748 l 1.057,2.161 h 7.33 l 0.825,-1.933 c 0.117,-0.255 0.206,-0.763 0.201,-1.097 -0.019,-0.287 0.055,-0.067 -0.329,-0.871 l -0.642,-1.28 h 10.784 v -0.001 h 11.379 l -0.61,1.269 c -0.314,0.681 -0.502,1.148 -0.516,2.931 v 2.556 l 0.674,0.755 3.964,-7.512 h 11.64 -10e-4 16.621 v 10e-4 h 6.769 l -0.79,1.337 c -0.396,0.756 -0.253,0.264 -0.298,0.936 0,0.255 0.056,0.509 0.176,0.747 l 1.058,2.163 h 7.33 l 0.825,-1.933 c 0.117,-0.255 0.206,-0.764 0.2,-1.099 -0.018,-0.285 0.054,-0.065 -0.329,-0.868 l -0.642,-1.283 h 18.42 l -0.98,1.396 c -0.297,0.433 -0.378,0.588 -0.457,0.931 -0.076,0.348 -0.107,0.951 -0.106,2.026 v 8.86 l 6.584,-13.214 h 10.958 v 16.709 c -10e-4,1.075 0.03,1.676 0.106,2.025 0.08,0.344 0.16,0.501 0.457,0.934 l 0.633,0.902 0.374,-0.778 c 0.314,-0.681 0.502,-1.147 0.514,-2.932 V -1.445 c -0.012,-1.787 -0.2,-2.252 -0.514,-2.933 l -0.609,-1.269 H 2.694 c 2.143,0 3.804,0.399 4.938,1.536 1.126,1.145 1.492,2.786 1.494,4.836 v 8.318 c -0.002,2.049 -0.368,3.69 -1.494,4.836 m -61.759,-9.375 1.548,3.411 1.437,-3.411 z m 1.607,7.834 -4.359,-9.607 h 8.407 L -48.99,3.96 Z m -69.843,-7.834 1.547,3.411 1.438,-3.411 z m 1.608,7.833 -4.36,-9.605 h 8.408 l -0.518,1.229 z M -134.118,0.905 c 0,-1.969 -0.42,-3.138 -1.031,-3.792 -0.603,-0.651 -1.523,-0.982 -2.965,-0.987 h -11.032 c -1.441,0.005 -2.361,0.336 -2.964,0.987 -0.611,0.654 -1.033,1.823 -1.031,3.792 v 7.956 c -0.002,1.968 0.42,3.139 1.031,3.792 0.603,0.652 1.523,0.983 2.964,0.988 h 11.032 c 1.442,-0.005 2.362,-0.336 2.965,-0.988 0.611,-0.653 1.031,-1.824 1.031,-3.792 z m 1.772,7.956 c 0,2.193 -0.454,3.855 -1.5,4.995 -1.054,1.141 -2.575,1.563 -4.268,1.558 h -11.032 c -1.692,0.005 -3.214,-0.417 -4.267,-1.558 -1.047,-1.14 -1.5,-2.802 -1.5,-4.995 h -0.002 V 0.905 c 0.002,-2.191 0.455,-3.854 1.502,-4.994 1.053,-1.141 2.575,-1.563 4.267,-1.558 h 11.064 c 1.68,0 3.189,0.424 4.236,1.558 1.046,1.14 1.5,2.803 1.5,4.994 z m -9.126,-9.192 c 0,-0.158 -0.023,-0.246 -0.034,-0.274 l -0.01,-0.009 c -0.045,-0.023 -0.223,-0.069 -0.516,-0.066 h -3.195 c -0.203,-0.001 -0.336,0.018 -0.418,0.038 -0.069,0.016 -0.104,0.033 -0.112,0.037 h 0.001 c -0.01,0.028 -0.032,0.116 -0.032,0.274 v 10.427 c 0,0.16 0.022,0.247 0.032,0.276 l 0.013,0.009 c 0.043,0.023 0.222,0.068 0.516,0.066 h 3.195 c 0.199,0.003 0.331,-0.016 0.414,-0.036 0.07,-0.018 0.105,-0.035 0.115,-0.039 h -0.003 c 0.011,-0.029 0.034,-0.116 0.034,-0.276 z m -0.56,12.55 h -3.195 c -0.564,-0.005 -1.128,-0.067 -1.637,-0.461 -0.518,-0.404 -0.709,-1.062 -0.696,-1.662 V -0.331 c -0.013,-0.598 0.178,-1.256 0.696,-1.661 0.509,-0.393 1.073,-0.455 1.637,-0.461 h 3.195 c 0.564,0.006 1.128,0.068 1.637,0.461 0.516,0.405 0.706,1.063 0.696,1.661 v 10.427 c 0.01,0.6 -0.18,1.258 -0.696,1.662 -0.509,0.394 -1.073,0.456 -1.637,0.461"
             style="fill:#ffffff;fill-opacity:1;fill-rule:nonzero;stroke:none"
             id="path454" /></g><g
           id="g456"
           transform="translate(45.5704,232.5652)"><path
             d="m 0,0 c 0,-0.935 0.482,-1.236 1.447,-1.236 h 3.195 c 0.964,0 1.446,0.301 1.446,1.236 v 10.427 c 0,0.935 -0.482,1.237 -1.446,1.237 H 1.447 C 0.482,11.664 0,11.362 0,10.427 Z m -7.354,9.192 c 0,4.16 1.748,5.666 4.883,5.666 H 8.56 c 3.134,0 4.882,-1.506 4.882,-5.666 V 1.234 c 0,-4.158 -1.748,-5.664 -4.882,-5.664 H -2.471 c -3.135,0 -4.883,1.506 -4.883,5.664 z"
             style="fill:#231f20;fill-opacity:1;fill-rule:nonzero;stroke:none"
             id="path458" /></g><g
           id="g460"
           transform="translate(74.2022,236.5126)"><path
             d="M 0,0 -2.742,6.51 -5.696,0 Z M -7.203,-3.194 -8.499,-5.847 C -8.68,-6.209 -8.771,-6.6 -8.771,-6.991 c 0,-0.663 0.031,-0.724 0.423,-1.387 h -5.455 c 1.145,1.477 1.506,2.019 2.2,3.496 l 7.022,14.708 -0.844,1.084 h 8.71 l 6.872,-16.635 c 0.422,-0.996 1.025,-1.929 1.688,-2.653 H 2.17 c 0.362,0.724 0.422,0.843 0.422,1.266 0,0.452 -0.09,1.025 -0.271,1.445 l -1.055,2.473 z"
             style="fill:#231f20;fill-opacity:1;fill-rule:nonzero;stroke:none"
             id="path462" /></g><g
           id="g464"
           transform="translate(107.3853,232.0822)"><path
             d="m 0,0 c 0.663,-1.115 1.718,-2.803 2.803,-3.947 h -9.042 l -4.31,8.166 -1.748,-1.958 v -2.893 c 0,-1.839 0.241,-2.562 0.603,-3.315 h -8.56 c 0.362,0.753 0.603,1.476 0.603,3.315 v 12.658 c 0,1.838 -0.241,2.562 -0.603,3.315 h 8.56 c -0.362,-0.753 -0.603,-1.477 -0.603,-3.315 V 6.691 l 5.033,5.848 c 0.844,0.964 1.025,1.446 1.025,2.079 0,0.241 -0.03,0.482 -0.06,0.723 H 0.422 C -0.452,14.859 -1.085,14.527 -2.11,13.442 L -5.666,9.645 Z"
             style="fill:#231f20;fill-opacity:1;fill-rule:nonzero;stroke:none"
             id="path466" /></g><g
           id="g468"
           transform="translate(125.589,231.3291)"><path
             d="M 0,0 C 0.844,0 2.351,0.121 3.165,0.634 L 2.532,-3.194 h -16.637 c 0.361,0.753 0.603,1.477 0.603,3.315 v 12.658 c 0,1.838 -0.242,2.562 -0.603,3.315 h 8.56 C -5.907,15.341 -6.148,14.617 -6.148,12.779 V 0 Z"
             style="fill:#231f20;fill-opacity:1;fill-rule:nonzero;stroke:none"
             id="path470" /></g><g
           id="g472"
           transform="translate(142.4366,236.5126)"><path
             d="M 0,0 -2.742,6.51 -5.696,0 Z M -7.204,-3.194 -8.499,-5.847 C -8.681,-6.209 -8.77,-6.6 -8.77,-6.991 c 0,-0.663 0.03,-0.724 0.422,-1.387 h -5.456 c 1.146,1.477 1.506,2.019 2.2,3.496 l 7.023,14.708 -0.844,1.084 h 8.709 l 6.873,-16.635 c 0.422,-0.996 1.025,-1.929 1.688,-2.653 H 2.17 c 0.362,0.724 0.422,0.843 0.422,1.266 0,0.452 -0.09,1.025 -0.272,1.445 l -1.054,2.473 z"
             style="fill:#231f20;fill-opacity:1;fill-rule:nonzero;stroke:none"
             id="path474" /></g><g
           id="g476"
           transform="translate(159.2241,244.1085)"><path
             d="m 0,0 h -0.061 v -12.508 c 0,-2.171 0.09,-2.562 0.724,-3.466 h -4.642 c 0.633,0.904 0.724,1.295 0.724,3.466 v 12.357 c 0,2.17 -0.091,2.562 -0.724,3.466 H 6.359 l 7.836,-15.733 h 0.09 v 12.267 c 0,2.17 -0.09,2.562 -0.722,3.466 h 4.641 C 17.571,2.411 17.481,2.019 17.481,-0.151 V -15.974 H 7.957 Z"
             style="fill:#231f20;fill-opacity:1;fill-rule:nonzero;stroke:none"
             id="path478" /></g><g
           id="g480"
           transform="translate(187.9155,231.3291)"><path
             d="m 0,0 h 3.828 c 1.205,0 1.387,0.272 1.387,1.567 v 9.766 c 0,1.296 -0.182,1.567 -1.387,1.567 H 0 Z m -7.354,12.779 c 0,1.838 -0.241,2.562 -0.603,3.315 H 7.022 c 4.1,0 5.546,-1.567 5.546,-5.485 V 2.291 c 0,-3.919 -1.446,-5.485 -5.546,-5.485 H -7.957 c 0.362,0.753 0.603,1.477 0.603,3.315 z"
             style="fill:#231f20;fill-opacity:1;fill-rule:nonzero;stroke:none"
             id="path482" /></g></g></g></g></svg>
