<?xml version="1.0" encoding="utf-8"?>
<!-- Generator: Adobe Illustrator 22.1.0, SVG Export Plug-In . SVG Version: 6.00 Build 0)  -->
<svg version="1.1" id="Layer_1" xmlns="http://www.w3.org/2000/svg" xmlns:xlink="http://www.w3.org/1999/xlink" x="0px" y="0px"
	 width="300.2px" height="66.54px" viewBox="0 0 300.2 66.54" enable-background="new 0 0 300.2 66.54" xml:space="preserve">
<path fill="#EE7624" d="M262.8,30.8c-0.25-1.36-1.34-1.49-1.34-1.49l0.81-2.45C262.84,27.22,263.63,28.2,262.8,30.8 M298.92,26.56
	l-2.63,7.95h-2.23c0,0,0.51-2.28-3.73-2.28h-2.98l-2.08,6.29h0.88l1.2-3.61h2.8c4.25,0,3.61,2.27,3.61,2.27h2.52l3.53-10.62H298.92
	 M220.38,30.8c0.83-2.6,0.04-3.58-0.53-3.94l-0.81,2.45C219.04,29.31,220.14,29.44,220.38,30.8 M274.32,29.48
	c0.33,0.19,0.71,0.58,0.85,1.33c0.9-2.81-0.08-3.74-0.65-4.03h-0.03c-0.9,0.58-2.73,2.07-3.77,5.22l-10.57,31.81
	c0,0-9.32-1.44-11.52-6.18l-7.09-15.27l-4.15,12.48c-0.62,1.86-0.57,3.14-0.33,4c0.07-0.45,0.2-0.95,0.39-1.5l3.98-11.98l6.91,14.87
	c2.33,5.02,11.79,6.28,11.79,6.28l10.63-32.02C271.74,31.58,273.38,30.12,274.32,29.48 M282.67,48.98h2.4
	c2.55,0,2.18,1.34,1.98,1.95h2.79l3.44-10.35h-0.88l-2.55,7.68h-2.49c0.27-0.8,0.29-1.95-2.11-1.95h-2.59l-2.4,7.25
	c0.22,0.09,0.49,0.19,0.78,0.29L282.67,48.98 M225.09,57.35l7.59-22.85c0.78-2.37,2-3.78,2.94-4.56c0.37,0.62,0.76,1.53,0.85,2.66
	c0.8-2.56,0.02-4.44-0.62-5.42c-0.97,0.76-2.36,2.23-3.22,4.83l-7.59,22.85c-0.62,1.87-0.56,3.14-0.32,4
	C224.79,58.4,224.9,57.91,225.09,57.35 M208.54,62.4c-0.32,0.13-0.54,0.15-0.54,0.15l-0.83,2.52h30.2l0.61-1.86l-0.6-0.82H208.54
	 M289.44,62.4h-26.1c-0.33,0.13-0.54,0.15-0.54,0.15l-0.84,2.52h27.44l6.63-10.9h-1.57L289.44,62.4 M180.03,34.49
	c-1.44,4.32-4.74,7.72-9.36,9.72l0.67,2.29c4.29-2.07,7.36-5.37,8.74-9.51c0,0,0.01-0.01,0.01-0.01c0.47-1.45,0.61-2.93,0.35-4.3
	C180.35,33.32,180.21,33.94,180.03,34.49L180.03,34.49 M96.81,30.81c0.83-2.6,0.04-3.59-0.52-3.96l-0.49,1.48
	c0.35,0.54,0.61,1.14,0.78,1.81C96.68,30.32,96.76,30.53,96.81,30.81 M214.94,47.18l1.03-3.08c-6.58,11.71-25.81,18.54-47.52,18.54
	c-5.17,0-7.88-1.36-8.53-4.3l-1.79-8.02l-1.51,4.54c-0.61,1.87-0.57,3.16-0.33,4.01c0.08-0.46,0.19-0.95,0.38-1.52l1.28-3.86
	l1.65,7.42c0.67,2.99,3.42,4.39,8.65,4.39C189.54,65.31,208.11,58.73,214.94,47.18 M49.1,48.98h2.41c2.54,0,2.18,1.34,1.98,1.95
	h2.79l3.44-10.35h-0.88l-2.56,7.68h-2.48c0.27-0.8,0.29-1.95-2.11-1.95h-2.59l-2.4,7.25c0.22,0.09,0.48,0.19,0.78,0.29L49.1,48.98
	 M150.62,29.31c0,0,1.08,0.13,1.33,1.49c0.83-2.6,0.05-3.58-0.52-3.94L150.62,29.31 M142.48,9.05c24.21,0,54.3,15.39,53.88,31.66
	c3.81-17-27.2-33.83-53.69-33.83c-3.98,0-10.45,0.55-12.18,0.7l0.5,1.84C133.46,9.21,139.02,9.05,142.48,9.05 M132.58,48.98h2.41
	c2.54,0,2.18,1.34,1.97,1.95h2.8l3.43-10.35h-0.87l-2.55,7.68h-2.49c0.27-0.8,0.29-1.95-2.11-1.95h-2.58l-2.41,7.25
	c0.22,0.09,0.49,0.19,0.78,0.29L132.58,48.98 M53.78,34.91h2.8c4.25,0,3.61,2.27,3.61,2.27h2.52l3.52-10.62h-0.87l-2.64,7.95H60.5
	c0,0,0.51-2.28-3.74-2.28h-2.97l-2.09,6.29h0.87L53.78,34.91 M146.18,37.18l3.53-10.62h-0.88l-2.65,7.95h-2.22
	c0,0,0.51-2.28-3.73-2.28h-2.98l-2.09,6.29h0.88l1.2-3.61h2.81c4.25,0,3.61,2.27,3.61,2.27H146.18 M25.43,35.15
	c0.89,0.26,1.59,0.84,1.73,2.1c0.89-3.34-0.27-4.46-1.7-4.82L21.58,44.1c0.37-0.19,0.74-0.41,1.08-0.64
	C24.03,39.35,25.05,36.3,25.43,35.15 M1.5,62.4c-0.32,0.13-0.53,0.15-0.53,0.15l-0.84,2.52h17.84l0.62-1.86l-0.61-0.82H1.5
	 M80.82,35.15c0.89,0.26,1.59,0.84,1.72,2.1c0.89-3.34-0.26-4.46-1.7-4.82L76.97,44.1c0.38-0.19,0.74-0.41,1.09-0.64
	C79.42,39.35,80.44,36.3,80.82,35.15 M41.6,30.84c0.85-2.63,0.06-3.62-0.51-3.98l-0.56,1.66c0.23,0.38,0.42,0.79,0.56,1.23
	C41.32,29.98,41.51,30.32,41.6,30.84 M108.9,35.15c0.88,0.26,1.59,0.84,1.72,2.1c0.89-3.34-0.26-4.46-1.7-4.82l-3.88,11.67
	c0.38-0.19,0.74-0.41,1.09-0.64C107.5,39.35,108.52,36.3,108.9,35.15 M13.35,30.8c0.83-2.59,0.05-3.59-0.52-3.95l-0.82,2.46
	C12.01,29.31,13.1,29.44,13.35,30.8 M164.12,32.28c-0.55,1.65-2.17,6.54-2.85,8.56c0.31-0.09,0.65-0.21,1.01-0.35
	c0.68-2.04,1.44-4.34,1.84-5.53h0.13c0.56,0,1.97,0.15,2.32,1.5c0.02-0.06,0.05-0.11,0.07-0.17c1.26-3.81-1.62-4.01-2.21-4.01
	H164.12 M125.08,30.84c0.85-2.63,0.05-3.62-0.51-3.98l-0.56,1.67c0.23,0.38,0.42,0.78,0.55,1.22
	C124.78,29.97,124.99,30.32,125.08,30.84 M84.97,62.4c-0.32,0.13-0.53,0.15-0.53,0.15l-0.84,2.52h17.84l0.61-1.86l-0.6-0.82H84.97
	 M113.25,62.4c-0.32,0.13-0.53,0.15-0.53,0.15l-0.84,2.52h44.71l0.61-1.86l-0.61-0.82H113.25 M29.77,62.4
	c-0.32,0.13-0.54,0.15-0.54,0.15l-0.83,2.52h44.96l0.62-1.86l-0.61-0.82H29.77 M122.21,39.45c-4.08,5.97-11.54,7.82-17.08,7.82
	c-0.38,0-0.75,0-1.13-0.02l-2.53,7.61c-0.62,1.87-0.58,3.16-0.33,4.02c0.08-0.46,0.19-0.96,0.38-1.52l2.46-7.43
	c0.32,0.01,0.65,0.01,0.96,0.01c5.47,0,11.74-1.78,15.84-6.23L122.21,39.45 M38.75,39.45c-4.08,5.97-11.54,7.81-17.09,7.81
	c-0.37,0-0.74,0-1.13-0.02l-2.52,7.61c-0.62,1.87-0.58,3.16-0.33,4.02c0.08-0.46,0.19-0.96,0.38-1.52l2.47-7.43
	c0.32,0.01,0.64,0.01,0.95,0.01c5.47,0,11.75-1.78,15.85-6.23L38.75,39.45 M93.78,39.96c-4.15,5.57-11.34,7.3-16.73,7.3
	c-0.37,0-0.75,0-1.13-0.02l-2.52,7.61c-0.62,1.87-0.58,3.16-0.33,4.02c0.08-0.46,0.19-0.96,0.38-1.52l2.47-7.43
	c0.32,0.01,0.64,0.01,0.96,0.01c5.34,0,11.45-1.7,15.56-5.92L93.78,39.96"/>
<path fill-rule="evenodd" clip-rule="evenodd" fill="#FFFFFF" d="M164.36,32.52c-0.57,1.72-1.75,5.28-2.56,7.73
	c0.24-0.1,0.47-0.2,0.69-0.3c1.82-0.86,3.32-2.18,3.97-4.14c0.57-1.72,0.51-3.29-1.63-3.29H164.36 M25.71,32.66
	c-0.66,1.99-2.09,6.3-3.54,10.64c2.11-1.32,3.77-3.25,4.58-5.7c0.35-1.06,0.93-3.17,0.24-4.2C26.72,32.99,26.22,32.77,25.71,32.66
	 M109.18,32.66c-0.66,1.99-2.1,6.31-3.54,10.64c2.11-1.32,3.77-3.26,4.59-5.7c0.35-1.06,0.92-3.16,0.23-4.19
	C110.19,32.99,109.69,32.77,109.18,32.66 M81.1,32.66c-0.66,1.99-2.09,6.3-3.53,10.64c2.11-1.32,3.77-3.25,4.58-5.7
	c0.35-1.06,0.93-3.17,0.24-4.2C82.1,32.99,81.62,32.77,81.1,32.66 M236.03,27.57c-0.31,0.25-0.6,0.54-0.83,0.78
	c-1.1,1.17-1.89,2.6-2.4,4.12c0,0.01-7.58,22.84-7.59,22.85c-0.37,1.11-0.66,2.49-0.39,3.65c0.04,0.2,0.15,0.51,0.28,0.74l0.31-0.11
	c0.37-0.15,0.85-0.52,1.13-0.79c0.95-0.9,1.59-2.11,2-3.34c0-0.01,7.71-23.23,7.71-23.24c0.43-1.29,0.5-2.63,0.08-3.92
	C236.26,28.1,236.15,27.83,236.03,27.57 M216.3,42.1c-2.58,6.63-8.83,11.42-15.05,14.43c-9.82,4.75-21.6,6.35-32.41,6.35
	c-3.63,0-8.17-0.6-9.1-4.82c0,0-0.82-3.66-1.56-6.96c-0.72,2.17-1.4,4.22-1.4,4.22c-0.36,1.1-0.66,2.49-0.39,3.65
	c0.06,0.27,0.22,0.72,0.42,0.94l0.72,0.61l-0.31,0.94c-0.02,0.05-0.04,0.11-0.05,0.16l-0.33,1.02h-1.08h-15.03h-1.92h-24.96h-2.03
	l0.62-1.93c0.02-0.05,0.03-0.11,0.05-0.16l0.23-0.71l0.69-0.23c0.37-0.14,0.85-0.52,1.13-0.79c0.95-0.89,1.59-2.11,2-3.34
	c0,0,2.47-7.43,4.72-14.19c-3.81,4.3-9.82,6.23-15.73,6.22c-0.43,0-0.86,0-1.29-0.03c-1.43,4.32-2.6,7.83-2.6,7.83
	c-0.36,1.1-0.66,2.49-0.39,3.65c0.06,0.27,0.22,0.72,0.42,0.94l0.72,0.61l-0.3,0.94c-0.02,0.05-0.04,0.11-0.05,0.16l-0.33,1.02
	h-1.08H85.6h-2.02l0.62-1.93c0.02-0.05,0.04-0.11,0.05-0.16l0.23-0.71l0.69-0.23c0.37-0.15,0.85-0.52,1.13-0.79
	c0.95-0.89,1.59-2.11,2-3.34c0,0,2.39-7.19,4.61-13.87c-3.82,4.07-9.67,5.91-15.43,5.9c-0.43,0-0.86,0-1.29-0.03
	c-1.43,4.32-2.6,7.83-2.6,7.83c-0.37,1.1-0.66,2.49-0.39,3.65c0.06,0.27,0.21,0.72,0.41,0.94l0.76,0.64l-0.36,0.97
	c-0.02,0.05-0.04,0.11-0.06,0.16l-0.35,0.96h-1.03H57.52h-2.16H30.4h-2.02l0.62-1.93c0.02-0.05,0.04-0.11,0.05-0.16l0.23-0.71
	l0.69-0.23c0.37-0.15,0.85-0.52,1.13-0.79c0.95-0.9,1.59-2.11,2-3.34c0,0,2.47-7.43,4.71-14.19c-3.81,4.29-9.82,6.23-15.73,6.22
	c-0.43,0-0.86,0-1.29-0.03c-1.43,4.32-2.6,7.83-2.6,7.83c-0.37,1.1-0.66,2.49-0.39,3.65c0.06,0.27,0.21,0.72,0.42,0.94l0.72,0.61
	l-0.3,0.94c-0.02,0.05-0.04,0.11-0.05,0.16l-0.33,1.02h-1.07H2.12H0.1l0.62-1.93c0.02-0.05,0.03-0.11,0.05-0.16L1,59.85l0.69-0.23
	c0.37-0.15,0.85-0.52,1.13-0.79c0.95-0.9,1.59-2.11,2-3.34c0-0.01,8.31-25.03,8.31-25.04c0.26-0.79,0.55-1.97,0.31-2.8
	c-0.04-0.14-0.14-0.37-0.26-0.47l-1.16-0.5l0.42-1.28c0.02-0.05,0.04-0.11,0.05-0.16l0.33-1.02h1.07h15.73
	c4.19,0,9.7,0.85,11.41,5.33c0.13,0.34,0.23,0.69,0.31,1.04c0.03-0.09,0.05-0.14,0.05-0.14c0.26-0.79,0.55-1.97,0.31-2.8
	c-0.04-0.14-0.14-0.37-0.26-0.47l-1.16-0.5l0.42-1.28c0.02-0.05,0.03-0.11,0.05-0.16l0.33-1.02h1.07h20.69
	c0.27,0,0.67-0.03,0.93-0.12l0.25-0.1h0.29h0.17h2.05l-0.65,1.94c0,0-2.6,7.82-2.6,7.82l-0.34,1.01H61.9h-0.17h-1.4l-0.07-1.31
	c-0.05-0.14-0.23-0.3-0.34-0.38c-0.7-0.49-1.93-0.59-2.75-0.59h-3.14c-0.47,1.41-1.33,4-1.92,5.79h3.42c0.45,0,1.21-0.03,1.65-0.17
	l0.24-0.1h0.28h0.28h2.04l-0.64,1.94c0,0.01-2.5,7.55-2.5,7.55l-0.34,1.01h-1.07H55.2h-1.68l0.2-1.57c-0.1-0.29-1.45-0.37-1.61-0.37
	h-2.75c-0.56,1.7-1.7,5.13-2.32,7c1.26,0.42,2.68,0.63,3.92,0.63c3.12,0,5.58-0.13,8.11-2.25l0.41-0.34h0.53h0.28h1.21
	c2.33-7.03,7.03-21.16,7.03-21.16c0.26-0.79,0.56-1.97,0.31-2.8c-0.04-0.14-0.14-0.37-0.26-0.47l-1.21-0.52l0.49-1.31
	c0.02-0.06,0.04-0.11,0.06-0.16l0.36-0.96h1.03h15.73c4.19,0,9.7,0.85,11.41,5.33c0.09,0.23,0.17,0.47,0.23,0.71
	c0.24-0.78,0.47-1.85,0.25-2.62c-0.04-0.14-0.13-0.37-0.26-0.47l-1.16-0.5l0.41-1.28c0.02-0.05,0.03-0.11,0.05-0.16l0.33-1.02h1.07
	h15.73c4.19,0,9.69,0.85,11.41,5.33c0.13,0.35,0.23,0.7,0.31,1.06c0.03-0.1,0.05-0.16,0.05-0.16c0.26-0.79,0.55-1.97,0.31-2.8
	c-0.04-0.14-0.14-0.37-0.26-0.47l-1.15-0.5l0.41-1.28c0.02-0.05,0.04-0.11,0.05-0.16l0.33-1.02h1.07h20.69
	c0.26,0,0.66-0.03,0.92-0.12l0.25-0.1h0.29h0.17h2.05l-0.65,1.94c0,0-2.6,7.82-2.6,7.82l-0.34,1.01h-1.06h-0.17h-1.4l-0.07-1.31
	c-0.05-0.14-0.23-0.3-0.34-0.38c-0.7-0.49-1.94-0.59-2.76-0.59h-3.14c-0.47,1.41-1.33,4-1.92,5.79H139c0.45,0,1.22-0.03,1.65-0.17
	l0.24-0.09h0.29h0.28h2.04l-0.64,1.94c0,0-2.51,7.55-2.51,7.55l-0.34,1.01h-1.06h-0.28h-1.68l0.2-1.57c-0.1-0.3-1.45-0.38-1.62-0.38
	h-2.74c-0.56,1.7-1.7,5.13-2.32,7c1.26,0.42,2.68,0.63,3.92,0.63c3.12,0,5.57-0.13,8.1-2.24l0.41-0.34h0.53h0.28h0.97
	c2.33-7.03,7.03-21.16,7.03-21.16c0.26-0.79,0.55-1.97,0.31-2.8c-0.04-0.14-0.14-0.37-0.26-0.47l-1.16-0.5l0.42-1.28
	c0.02-0.05,0.03-0.11,0.05-0.16l0.33-1.02h1.07h17.81c3.34,0,7.17,0.74,9.17,3.71c1.4,2.07,1.48,4.71,0.71,7.03
	c-1.54,4.64-5,7.8-9.34,9.62c0.82,2.82,2.76,9.44,3.59,12.3c1.53-0.4,3.09-0.93,4.52-1.46c3.85-1.43,7.78-3.37,10.98-5.96
	c2.59-2.09,4.82-4.69,5.88-7.89c0.53-1.59,0.75-3.23,0.64-4.9c-0.45-6.85-6.27-12.68-11.51-16.47c-7.41-5.35-16.76-9.08-25.63-11.13
	c-5.31-1.23-10.82-1.94-16.27-1.94c-1.54,0-3.09,0.07-4.63,0.15c-2.65,0.14-5.32,0.34-7.96,0.59l-0.3,0.03l-0.3,0.03l-1.05-2.48
	l0.94-0.4c0.7-0.3,1.45-0.56,2.17-0.8c1.94-0.66,3.93-1.23,5.93-1.72c6.77-1.66,13.83-2.49,20.8-2.49
	c13.84,0,28.64,3.58,40.57,10.71c8.56,5.12,18.12,13.83,18.29,24.6c0.03,1.69-0.19,3.38-0.64,5.01c1.75-5.27,3.28-9.89,3.28-9.9
	c0.26-0.79,0.56-1.97,0.31-2.8c-0.04-0.14-0.14-0.37-0.26-0.47l-1.16-0.5l0.41-1.28c0.02-0.05,0.04-0.11,0.06-0.16l0.33-1.02h1.07
	h14.72h1.07h11.61h2.03l-0.5,1.54c1.12,2.42,5.83,12.56,8.33,17.94c1.63-4.92,4.4-13.24,4.4-13.25c0.26-0.79,0.55-1.97,0.31-2.8
	c-0.04-0.14-0.14-0.37-0.26-0.47l-1.16-0.5l0.41-1.28c0.02-0.05,0.04-0.11,0.05-0.16l0.33-1.02h1.07h10.71h1.67h20.69
	c0.27,0,0.66-0.03,0.92-0.12l0.25-0.1h0.29h0.17h2.04l-0.64,1.94c0,0-2.59,7.82-2.59,7.82l-0.34,1.01h-1.07h-0.17h-1.4l-0.07-1.31
	c-0.05-0.14-0.23-0.3-0.34-0.38c-0.7-0.49-1.94-0.59-2.75-0.59h-3.14c-0.47,1.41-1.33,4-1.92,5.79h3.42c0.45,0,1.21-0.03,1.65-0.17
	l0.24-0.09h0.28h0.28h2.05l-0.64,1.94c0,0-2.51,7.55-2.51,7.55l-0.33,1.01h-1.07h-0.28h-1.67l0.2-1.57c-0.1-0.3-1.45-0.38-1.62-0.38
	h-2.75c-0.56,1.7-1.7,5.12-2.33,7c1.26,0.42,2.67,0.63,3.92,0.63c3.12,0,5.58-0.13,8.11-2.24l0.41-0.34h0.54h0.28h2.63l-1.37,2.24
	c0,0-4.92,8.09-4.93,8.09l-0.43,0.71h-0.83h-24.97h-2.02l0.62-1.93c0.02-0.05,0.03-0.11,0.05-0.16l0.23-0.71l0.69-0.23
	c0.37-0.14,0.85-0.52,1.13-0.79c0.95-0.89,1.59-2.11,2-3.34c0-0.01,8.32-25.03,8.32-25.04c0.26-0.79,0.55-1.97,0.31-2.8
	c-0.04-0.14-0.14-0.37-0.26-0.47l-0.2-0.09l-0.11,0.06c-0.49,0.28-1.05,0.81-1.43,1.21c-1.1,1.17-1.89,2.6-2.4,4.12
	c0,0.01-10.07,30.33-10.08,30.34l-0.41,1.23l-1.27-0.25c-2.14-0.41-4.69-1.32-6.57-2.37c-1.64-0.92-3.24-2.19-4.06-3.93
	c0,0-4.42-9.53-6.8-14.64c-1.54,4.63-4.14,12.46-4.14,12.47c-0.37,1.11-0.65,2.49-0.39,3.66c0.06,0.27,0.21,0.72,0.42,0.94
	l0.71,0.61l-0.3,0.94c-0.02,0.05-0.03,0.11-0.05,0.16l-0.33,1.02h-1.08h-10.7h-1.66h-15.03h-2.02l0.62-1.93
	c0.02-0.05,0.04-0.11,0.05-0.16l0.23-0.71l0.69-0.23c0.37-0.14,0.85-0.52,1.13-0.79c0.95-0.89,1.59-2.11,2-3.34
	C211.86,55.49,214.13,48.64,216.3,42.1"/>
<path fill="#00205C" d="M39.5,35.43c-2.54,7.66-10.39,10.62-17.43,10.61c-0.68,0-1.35,0-1.99-0.11c3.96-1.39,6.88-4.25,8.07-7.87
	c1.28-3.83,0.88-6.85-3.46-7.02l-7.91,23.81c-1.5,4.51,0.44,6.15,0.44,6.15l-0.05,0.16H2.12l0.05-0.16c0,0,2.66-0.89,4.05-5.06
	l8.31-25.04c1.39-4.16-0.69-5.06-0.69-5.06l0.05-0.16h15.73C39.45,25.69,41.17,30.41,39.5,35.43 M94.89,35.43
	c1.67-5.02-0.04-9.74-9.86-9.74H69.3l-0.06,0.16c0,0,2.07,0.9,0.68,5.06l-8.31,25.04c-1.38,4.16-4.04,5.06-4.04,5.06l-0.05,0.16
	h15.03l0.06-0.16c0,0-1.94-1.64-0.44-6.15l7.91-23.81c4.34,0.16,4.74,3.19,3.46,7.02c-1.2,3.61-4.11,6.47-8.07,7.87
	c0.64,0.11,1.32,0.11,2,0.11C84.5,46.05,92.35,43.1,94.89,35.43 M122.97,35.43c1.66-5.02-0.06-9.74-9.86-9.74H97.38l-0.05,0.16
	c0,0,2.06,0.9,0.69,5.06l-8.32,25.04c-1.38,4.16-4.03,5.06-4.03,5.06l-0.06,0.16h15.03l0.05-0.16c0,0-1.94-1.64-0.44-6.15
	l7.91-23.81c4.34,0.16,4.75,3.19,3.47,7.02c-1.2,3.61-4.12,6.47-8.07,7.87c0.63,0.11,1.31,0.11,1.99,0.11
	C112.57,46.05,120.43,43.1,122.97,35.43 M60.01,53.08c-2.97,2.48-5.91,2.59-9.05,2.59c-3,0-5.15-0.97-5.75-1.27l3.09-9.31h3.82
	c3.34,0,3.09,1.95,3.09,1.95h0.29l2.5-7.55h-0.28c0,0-0.68,0.27-2.17,0.27h-5.47l2.9-8.74h4.21c4.44,0,4.56,2.28,4.56,2.28h0.17
	l2.6-7.82h-0.17c0,0-0.55,0.22-1.47,0.22H42.18l-0.05,0.16c0,0,2.07,0.89,0.69,5.06L34.5,55.95c-1.39,4.16-4.04,5.06-4.04,5.06
	l-0.06,0.16h24.96l4.93-8.09H60.01 M296.43,25.69h-20.69l-0.05,0.16c0,0,2.06,0.89,0.68,5.06l-8.32,25.04
	c-1.38,4.16-4.04,5.06-4.04,5.06l-0.05,0.16h24.97l4.93-8.09h-0.28c-2.96,2.48-5.9,2.59-9.05,2.59c-2.99,0-5.14-0.97-5.75-1.27
	l3.1-9.31h3.81c3.34,0,3.09,1.95,3.09,1.95h0.28l2.51-7.55h-0.28c0,0-0.68,0.27-2.18,0.27h-5.47l2.91-8.74h4.21
	c4.44,0,4.56,2.28,4.56,2.28h0.17l2.59-7.82h-0.17C297.89,25.47,297.35,25.69,296.43,25.69 M143.48,53.08
	c-2.96,2.48-5.9,2.59-9.04,2.59c-3,0-5.15-0.97-5.76-1.27l3.09-9.31h3.81c3.34,0,3.1,1.95,3.1,1.95h0.28l2.51-7.55h-0.28
	c0,0-0.68,0.27-2.18,0.27h-5.47l2.9-8.74h4.21c4.44,0,4.56,2.28,4.56,2.28h0.17l2.6-7.82h-0.17c0,0-0.54,0.22-1.46,0.22h-20.69
	l-0.06,0.16c0,0,2.07,0.89,0.69,5.06l-8.32,25.04c-1.38,4.16-4.05,5.06-4.05,5.06l-0.05,0.16h24.96l4.93-8.09H143.48 M223.82,54.86
	l7.59-22.85c1.49-4.51,4.52-6.15,4.52-6.15l0.05-0.16h-15.04l-0.05,0.16c0,0,2.07,0.9,0.68,5.06l-8.32,25.04
	c-1.38,4.16-4.04,5.05-4.04,5.05l-0.06,0.16h15.03l0.05-0.16C224.24,61.01,222.31,59.37,223.82,54.86 M274.01,25.85l0.06-0.16
	h-10.71l-0.05,0.16c0,0,2.07,0.89,0.68,5.06l-5.57,16.78l-10.14-21.84l0.05-0.16h-11.61l-0.05,0.16c0,0,2.36,2.7,0.98,6.86
	l-7.71,23.24c-1.39,4.16-4.05,5.06-4.05,5.06l-0.05,0.16h10.7l0.05-0.16c0,0-1.93-1.64-0.44-6.15l5.24-15.78h0.17l8.26,17.8
	c1.85,3.98,9.57,5.47,9.57,5.47l10.08-30.34C270.99,27.49,274.01,25.85,274.01,25.85 M215.22,40.77
	c-3.65,10.98-19.84,20.64-46.37,20.64c-5.84,0-7.25-1.82-7.66-3.67l-2.72-12.15l-3.08,9.27c-1.5,4.51,0.44,6.15,0.44,6.15
	l-0.05,0.16h-15.03l0.05-0.16c0,0,2.66-0.89,4.03-5.06l8.32-25.04c1.38-4.16-0.69-5.06-0.69-5.06l0.05-0.16h17.81
	c8.69,0,9.66,5.22,8.47,8.8c-1.59,4.79-5.39,7.7-9.74,9.19l4.36,14.95c0,0,19.69-4.22,23.81-16.61
	c6.12-18.45-26.76-36.38-54.17-36.38c-4.71,0-12.73,0.75-12.73,0.75s11.54-4.9,28.32-4.9C191.74,1.5,221.47,21.91,215.22,40.77
	 M167.86,36.28c1.4-4.23-1.34-5.24-3.03-5.24h-1.53l-3.76,11.34C159.53,42.39,166.09,41.6,167.86,36.28"/>
</svg>
