<?xml version="1.0" encoding="UTF-8" standalone="no"?>
<!-- Created with Inkscape (http://www.inkscape.org/) -->

<svg
   xmlns:dc="http://purl.org/dc/elements/1.1/"
   xmlns:cc="http://creativecommons.org/ns#"
   xmlns:rdf="http://www.w3.org/1999/02/22-rdf-syntax-ns#"
   xmlns:svg="http://www.w3.org/2000/svg"
   xmlns="http://www.w3.org/2000/svg"
   xmlns:sodipodi="http://sodipodi.sourceforge.net/DTD/sodipodi-0.dtd"
   xmlns:inkscape="http://www.inkscape.org/namespaces/inkscape"
   width="189.50867"
   height="47.906658"
   viewBox="0 0 50.140834 12.675303"
   version="1.1"
   id="svg7734"
   inkscape:version="0.92.0 r15299"
   sodipodi:docname="portland state.svg">
  <defs
     id="defs7728" />
  <sodipodi:namedview
     id="base"
     pagecolor="#ffffff"
     bordercolor="#666666"
     borderopacity="1.0"
     inkscape:pageopacity="0.0"
     inkscape:pageshadow="2"
     inkscape:zoom="4.758402"
     inkscape:cx="94.254332"
     inkscape:cy="23.453334"
     inkscape:document-units="mm"
     inkscape:current-layer="layer1"
     showgrid="false"
     fit-margin-top="0"
     fit-margin-left="0"
     fit-margin-right="0"
     fit-margin-bottom="0"
     units="px"
     inkscape:window-width="1280"
     inkscape:window-height="744"
     inkscape:window-x="-4"
     inkscape:window-y="-4"
     inkscape:window-maximized="1" />
  <metadata
     id="metadata7731">
    <rdf:RDF>
      <cc:Work
         rdf:about="">
        <dc:format>image/svg+xml</dc:format>
        <dc:type
           rdf:resource="http://purl.org/dc/dcmitype/StillImage" />
        <dc:title></dc:title>
      </cc:Work>
    </rdf:RDF>
  </metadata>
  <g
     inkscape:label="Layer 1"
     inkscape:groupmode="layer"
     id="layer1"
     transform="translate(-56.70473,-157.48244)">
    <g
       id="g7800"
       transform="translate(0.1322924,-0.13228931)">
      <path
         d="m 80.836914,167.41207 c 0,-0.67627 0.166158,-1.31304 0.463903,-1.87007 h 1.477786 c 0.243064,0.45508 0.400755,0.96343 0.450497,1.50248 l -2.392186,0.73095 z m 3.840692,0 c 0,-0.67522 -0.16122,-1.31127 -0.45332,-1.87007 -0.166864,-0.31962 -0.375003,-0.61349 -0.617714,-0.87595 H 80.4732 c -0.242711,0.26246 -0.45085,0.55633 -0.617714,0.87595 -0.292805,0.5588 -0.451203,1.19485 -0.451203,1.87007 l 3.53e-4,1.87007 h -0.573264 v 0.8756 h 2.005542 v -1.31022 l 2.408767,-0.7366 -3.53e-4,2.04682 h 2.005541 v -0.8756 h -0.572911 z"
         style="fill:#1e4230;fill-opacity:1;fill-rule:nonzero;stroke:none;stroke-width:0.35277778"
         id="path6920"
         inkscape:connector-curvature="0" />
      <path
         d="m 95.055838,168.70828 v 0.57362 h -1.859492 v -1.43334 h 1.486602 v -0.87559 h -1.486602 v -1.43299 h 1.485551 v 0.57291 h 0.87594 v -1.44885 h -4.462989 v 0.87594 h 0.57327 v 3.74192 h -0.57327 v 0.87559 h 4.836938 v -1.44921 z"
         style="fill:#1e4230;fill-opacity:1;fill-rule:nonzero;stroke:none;stroke-width:0.35277778"
         id="path6924"
         inkscape:connector-curvature="0" />
      <path
         d="m 72.356774,166.97127 -3.320344,0.003 c -0.07444,-0.22472 -0.116064,-0.46496 -0.116064,-0.71473 0,-0.13511 0.0134,-0.26599 0.03563,-0.39475 l 0.0702,-0.32244 2.185458,-7.1e-4 c 0.06032,0.18204 0.09913,0.37359 0.111478,0.57256 h 1.567039 c -0.03316,-0.55633 -0.256469,-1.06116 -0.608189,-1.44815 h -4.313414 c -0.382411,0.42086 -0.614891,0.97966 -0.614891,1.59349 0,0.61384 0.23248,1.17299 0.614891,1.5928 l 3.32105,-0.003 c 0.07408,0.22508 0.116417,0.46496 0.116417,0.71508 0,0.25083 -0.04304,0.49178 -0.117475,0.71791 h -2.256014 c -0.06033,-0.18204 -0.09948,-0.37359 -0.112183,-0.57256 H 67.35368 c 0.03351,0.55598 0.256469,1.0608 0.608189,1.4478 h 4.394905 c 0.383117,-0.42087 0.615597,-0.97931 0.615597,-1.59315 0,-0.61418 -0.23248,-1.17263 -0.615597,-1.59314"
         style="fill:#1e4230;fill-opacity:1;fill-rule:nonzero;stroke:none;stroke-width:0.35277778"
         id="path6936"
         inkscape:connector-curvature="0" />
      <path
         d="m 73.516917,164.66615 v 1.44851 h 0.87559 v -0.57327 h 1.22485 v 3.74086 h -0.57256 v 0.87524 h 2.57845 v -0.87524 h -0.57291 v -3.74086 h 1.22485 v 0.57327 h 0.87594 v -1.44851 z"
         style="fill:#1e4230;fill-opacity:1;fill-rule:nonzero;stroke:none;stroke-width:0.35277778"
         id="path6940"
         inkscape:connector-curvature="0" />
      <path
         d="m 84.931118,164.66615 v 1.44815 h 0.87595 v -0.57291 h 1.224839 v 3.74086 h -0.572911 v 0.87524 h 2.578452 v -0.87524 h -0.57291 v -3.74086 h 1.225198 v 0.57291 h 0.875591 v -1.44815 z"
         style="fill:#1e4230;fill-opacity:1;fill-rule:nonzero;stroke:none;stroke-width:0.35277778"
         id="path6944"
         inkscape:connector-curvature="0" />
      <path
         d="m 98.535037,161.22639 -2.458159,-3.4731 h -1.98755 v 0.87419 h 0.572209 v 3.7338 h -0.572209 v 0.87418 h 2.00202 v -3.44099 l 2.435929,3.44099 h 2.010133 v -0.87418 h -0.572212 v -3.7338 h 0.572212 v -0.87419 h -2.002373 z"
         style="fill:#1e4230;fill-opacity:1;fill-rule:nonzero;stroke:none;stroke-width:0.35277778"
         id="path6948"
         inkscape:connector-curvature="0" />
      <path
         d="m 85.685037,161.79225 v 0.57326 h -1.80799 v -3.74262 h 0.572921 v -0.87524 h -2.579521 v 0.87524 h 0.57362 v 3.74262 h -0.56303 v 0.87525 l 4.679951,6.9e-4 v -1.44921 z"
         style="fill:#1e4230;fill-opacity:1;fill-rule:nonzero;stroke:none;stroke-width:0.35277778"
         id="path6952"
         inkscape:connector-curvature="0" />
      <path
         d="m 89.115093,160.49466 c 0,-0.67627 0.165806,-1.31339 0.463903,-1.87043 h 1.477786 c 0.243064,0.45544 0.400755,0.96344 0.450144,1.50284 l -2.391833,0.73095 z m 3.840692,-3.5e-4 c 0,-0.67522 -0.16122,-1.31092 -0.453673,-1.87008 -0.166864,-0.31926 -0.37465,-0.61348 -0.617361,-0.87594 h -3.133725 c -0.242358,0.26246 -0.450497,0.55668 -0.617361,0.87594 -0.292805,0.55916 -0.451203,1.19486 -0.451203,1.87008 v 1.87007 h -0.572911 v 0.8756 h 2.005542 v -1.30987 l 2.408414,-0.73695 v 2.04682 h 2.005541 v -0.8756 h -0.573263 z"
         style="fill:#1e4230;fill-opacity:1;fill-rule:nonzero;stroke:none;stroke-width:0.35277778"
         id="path6964"
         inkscape:connector-curvature="0" />
      <path
         d="m 104.6467,162.06784 -0.14534,0.29739 -1.44533,3.5e-4 v -3.74226 l 1.44921,-3.5e-4 c 0.29774,0.55774 0.46707,1.19485 0.46707,1.87113 0,0.5595 -0.11677,1.09079 -0.32561,1.57374 m 1.47637,-3.44487 c -0.16721,-0.31892 -0.37535,-0.61349 -0.61806,-0.87595 l -4.45523,3.5e-4 v 0.87595 h 0.57291 v 3.74226 h -0.57291 v 0.8756 h 4.45523 c 0.24271,-0.26212 0.45085,-0.55668 0.61806,-0.87595 0.29246,-0.5595 0.45791,-1.19591 0.45791,-1.87113 0,-0.67487 -0.16545,-1.31163 -0.45791,-1.87113"
         style="fill:#1e4230;fill-opacity:1;fill-rule:nonzero;stroke:none;stroke-width:0.35277778"
         id="path6968"
         inkscape:connector-curvature="0" />
      <path
         d="M 60.938416,160.58818 H 58.70498 v -1.95933 h 2.233789 c 0.12065,0.30304 0.188383,0.63289 0.188383,0.97896 0,0.34678 -0.06773,0.67698 -0.188736,0.98037 m 1.051983,-2.83281 H 56.70473 v 0.87348 h 0.571147 v 3.73133 H 56.70473 v 0.87348 h 2.00025 v -1.77236 h 3.285419 c 0.4445,-0.4893 0.716139,-1.13947 0.716139,-1.85349 0,-0.71296 -0.271639,-1.36349 -0.716139,-1.85244"
         style="fill:#1e4230;fill-opacity:1;fill-rule:nonzero;stroke:none;stroke-width:0.35277778"
         id="path6972"
         inkscape:connector-curvature="0" />
      <path
         d="m 75.707037,157.74839 v 1.44886 h 0.87559 v -0.57327 h 1.22485 v 3.74086 h -0.57291 v 0.87524 h 2.57845 v -0.87524 h -0.57291 v -3.74086 h 1.2252 v 0.57327 h 0.87594 v -1.44886 z"
         style="fill:#1e4230;fill-opacity:1;fill-rule:nonzero;stroke:none;stroke-width:0.35277778"
         id="path6976"
         inkscape:connector-curvature="0" />
      <path
         d="m 67.198106,162.06681 -0.145344,0.29704 -1.872898,3.5e-4 c -0.297744,-0.55739 -0.467077,-1.1938 -0.467077,-1.86972 0,-0.55915 0.117122,-1.09008 0.325613,-1.57304 l 0.145345,-0.29704 h 1.872897 c 0.297745,0.55739 0.467078,1.19345 0.467078,1.86973 0,0.5588 -0.117475,1.09008 -0.325614,1.57268 m 1.475317,-3.44241 c -0.16757,-0.31926 -0.375356,-0.61312 -0.617714,-0.87524 h -3.874558 c -0.242712,0.26212 -0.450498,0.55598 -0.617714,0.87524 -0.292453,0.55916 -0.457906,1.19557 -0.457906,1.87008 0,0.67451 0.165453,1.31092 0.457906,1.86972 0.167216,0.31891 0.375002,0.61348 0.617714,0.87524 h 3.874558 c 0.242358,-0.26211 0.450144,-0.55633 0.617714,-0.87559 0.2921,-0.55915 0.457552,-1.19486 0.457552,-1.86972 0,-0.67451 -0.165452,-1.31093 -0.457552,-1.86973"
         style="fill:#1e4230;fill-opacity:1;fill-rule:nonzero;stroke:none;stroke-width:0.35277778"
         id="path6988"
         inkscape:connector-curvature="0" />
      <path
         d="m 73.822315,161.47252 h 0.709436 c 0.445911,-0.49071 0.71755,-1.14194 0.71755,-1.85737 0,-0.71509 -0.271639,-1.36702 -0.71755,-1.85773 h -5.299075 v 0.87559 h 0.572911 v 3.7405 h -0.572911 v 0.8756 h 2.578453 v -0.87524 h -0.572911 v -3.74086 h 2.23908 c 0,0 0.189442,0.635 0.189442,0.98214 0,0.34713 -0.06844,0.67839 -0.189442,0.98213 h -1.666169 v 0.87524 h 0.372886 l 1.749778,1.77659 h 1.315155 v -0.8756 h -0.524933 z"
         style="fill:#1e4230;fill-opacity:1;fill-rule:nonzero;stroke:none;stroke-width:0.35277778"
         id="path6992"
         inkscape:connector-curvature="0" />
    </g>
  </g>
</svg>
