<?xml version="1.0" encoding="UTF-8"?>
<svg version="1.1" xmlns="http://www.w3.org/2000/svg" width="588" height="54">
<path d="M0 0 C5.61 0 11.22 0 17 0 C17.92547185 2.77641555 18.27208142 4.99289564 18.53515625 7.88671875 C18.66567383 9.2934082 18.66567383 9.2934082 18.79882812 10.72851562 C18.9293457 12.19321289 18.9293457 12.19321289 19.0625 13.6875 C19.15337891 14.67556641 19.24425781 15.66363281 19.33789062 16.68164062 C19.56177679 19.12082148 19.78235239 21.56025587 20 24 C21.62558319 21.72958215 23.25048802 19.45868411 24.875 17.1875 C25.33519531 16.54490234 25.79539063 15.90230469 26.26953125 15.24023438 C26.93662109 14.30727539 26.93662109 14.30727539 27.6171875 13.35546875 C28.22989502 12.49924927 28.22989502 12.49924927 28.85498047 11.62573242 C31.4107613 8.37956806 31.4107613 8.37956806 31.6875 4.4375 C31.08760162 2.01885389 31.08760162 2.01885389 30 0 C37.59 0 45.18 0 53 0 C51.87480926 7.87633516 51.87480926 7.87633516 50.80078125 11.54248047 C50.56383545 12.35957489 50.32688965 13.17666931 50.08276367 14.01852417 C49.82857666 14.87608307 49.57438965 15.73364197 49.3125 16.6171875 C48.91865112 17.9638298 48.91865112 17.9638298 48.5168457 19.337677 C47.96439827 21.22254475 47.40958891 23.10672168 46.85253906 24.99023438 C45.99706294 27.88493824 45.15034724 30.78210249 44.3046875 33.6796875 C43.76613932 35.51317198 43.22709453 37.34651069 42.6875 39.1796875 C42.43331299 40.04939178 42.17912598 40.91909607 41.91723633 41.81515503 C40.11551198 47.88448802 40.11551198 47.88448802 39 49 C36.46950598 49.07313567 33.96695163 49.09247527 31.4375 49.0625 C30.72658203 49.05798828 30.01566406 49.05347656 29.28320312 49.04882812 C27.52209987 49.03700864 25.76103964 49.01907263 24 49 C24.75667969 48.24460938 25.51335937 47.48921875 26.29296875 46.7109375 C29.97504021 42.29245174 30.97143101 37.10958294 32.3125 31.625 C32.57611328 30.60277344 32.83972656 29.58054687 33.11132812 28.52734375 C33.75534802 26.02152087 34.38436371 23.5129183 35 21 C34.06883523 22.55840771 33.13775351 24.11686509 32.20703125 25.67553711 C31.39642311 27.02671464 30.58124484 28.37516004 29.76171875 29.72094727 C27.72694013 33.06880382 25.75364331 36.41858632 23.9375 39.890625 C23.61007813 40.48915283 23.28265625 41.08768066 22.9453125 41.7043457 C22.04630644 43.35260087 21.17849435 45.0177574 20.3125 46.68359375 C19.1678125 47.83021484 19.1678125 47.83021484 18 49 C15.03 49 12.06 49 9 49 C8.67 42.07 8.34 35.14 8 28 C6.06691649 34.53595046 6.06691649 34.53595046 4.14086914 41.07397461 C3.89973389 41.88358643 3.65859863 42.69319824 3.41015625 43.52734375 C3.16402588 44.35999756 2.91789551 45.19265137 2.66430664 46.05053711 C2 48 2 48 1 49 C-1.53049402 49.07313567 -4.03304837 49.09247527 -6.5625 49.0625 C-7.62887695 49.05573242 -7.62887695 49.05573242 -8.71679688 49.04882812 C-10.47790013 49.03700864 -12.23896036 49.01907263 -14 49 C-13.23018799 48.17113281 -12.46037598 47.34226563 -11.66723633 46.48828125 C-8.81929997 43.05934958 -7.50714333 39.44213839 -6.32421875 35.1875 C-6.10933304 34.4555542 -5.89444733 33.7236084 -5.67304993 32.96948242 C-5.22503702 31.43190419 -4.7842267 29.8922105 -4.3503418 28.35058594 C-3.68797937 26.00169996 -3.0012245 23.66101038 -2.31054688 21.3203125 C-1.87615024 19.81812801 -1.44315921 18.31553619 -1.01171875 16.8125 C-0.80866623 16.11858154 -0.60561371 15.42466309 -0.39640808 14.7097168 C1.0565263 9.49306432 1.72881441 5.18644324 0 0 Z " fill="#1D324E" transform="translate(154,2)"/>
<path d="M0 0 C5.28 0 10.56 0 16 0 C17.00677293 3.24804123 18.00563586 6.49816051 19 9.75 C19.28617187 10.67039062 19.57234375 11.59078125 19.8671875 12.5390625 C20.13789063 13.42851562 20.40859375 14.31796875 20.6875 15.234375 C20.93886719 16.05131836 21.19023437 16.86826172 21.44921875 17.70996094 C22 20 22 20 22 24 C22.66 24 23.32 24 24 24 C24.12117188 23.38253906 24.24234375 22.76507812 24.3671875 22.12890625 C24.53476562 21.28199219 24.70234375 20.43507813 24.875 19.5625 C25.05160156 18.65242188 25.22820312 17.74234375 25.41015625 16.8046875 C25.78388335 15.0276275 26.20323569 13.25906072 26.68359375 11.5078125 C26.89113281 10.74210938 27.09867187 9.97640625 27.3125 9.1875 C27.51488281 8.50042969 27.71726562 7.81335938 27.92578125 7.10546875 C28.21489062 4.3298689 28.21489062 4.3298689 25 0 C30.94 0 36.88 0 43 0 C40.70853035 8.60624574 38.19778082 17.13341317 35.61108398 25.65429688 C34.93261652 27.89110008 34.25819314 30.12909746 33.58398438 32.3671875 C33.14868002 33.80476096 32.71314161 35.24226357 32.27734375 36.6796875 C32.07833969 37.34120819 31.87933563 38.00272888 31.67430115 38.68429565 C30.59754714 42.21818595 29.37670537 45.55823658 28 49 C24.37 49 20.74 49 17 49 C14.36 41.08 11.72 33.16 9 25 C6.69 32.92 4.38 40.84 2 49 C-3.28 49 -8.56 49 -14 49 C-11.525 46.525 -11.525 46.525 -9 44 C-7.91502807 42.00669422 -7.91502807 42.00669422 -7.39086914 39.93164062 C-7.16456314 39.16734741 -6.93825714 38.4030542 -6.70509338 37.61560059 C-6.3734745 36.39822205 -6.3734745 36.39822205 -6.03515625 35.15625 C-5.79333115 34.30953735 -5.55150604 33.46282471 -5.30235291 32.5904541 C-4.79783078 30.80754295 -4.30160023 29.02226689 -3.81323242 27.23486328 C-3.06304968 24.50200246 -2.27865925 21.78063615 -1.49023438 19.05859375 C-1.00313024 17.32089368 -0.51803459 15.58262909 -0.03515625 13.84375 C0.20009262 13.03216431 0.43534149 12.22057861 0.67771912 11.38439941 C0.88195999 10.6201062 1.08620087 9.85581299 1.29663086 9.06835938 C1.48140488 8.40171265 1.66617889 7.73506592 1.85655212 7.04821777 C2.1897972 4.42239575 2.1897972 4.42239575 0 0 Z " fill="#1A304C" transform="translate(246,2)"/>
<path d="M0 0 C4.80546679 -0.07405295 9.6106029 -0.12855497 14.41650391 -0.16479492 C16.05197941 -0.17989911 17.68741429 -0.20038389 19.32275391 -0.22631836 C21.67100024 -0.26263145 24.01871205 -0.27970932 26.3671875 -0.29296875 C27.10057343 -0.30845261 27.83395935 -0.32393646 28.58956909 -0.33988953 C30.65185547 -0.34057617 30.65185547 -0.34057617 34 0 C36.62780285 3.94170427 35.91254379 5.42638939 35 10 C34.33937324 12.58711605 33.64942317 15.13429502 32.890625 17.69140625 C32.68193787 18.39974106 32.47325073 19.10807587 32.25823975 19.83787537 C31.8172393 21.32529377 31.37336948 22.8118642 30.92675781 24.29760742 C30.25200294 26.55579681 29.59855482 28.81949287 28.9453125 31.08398438 C28.51171774 32.53684726 28.07686347 33.98933498 27.640625 35.44140625 C27.45083069 36.11031387 27.26103638 36.7792215 27.06549072 37.46839905 C25.55239162 42.37581768 23.47595045 45.34017881 20 49 C17.18175808 50.40912096 14.82748718 50.11183553 11.6796875 50.09765625 C10.42285156 50.09443359 9.16601562 50.09121094 7.87109375 50.08789062 C6.55238281 50.07951172 5.23367188 50.07113281 3.875 50.0625 C2.53515789 50.05748489 1.195314 50.05292201 -0.14453125 50.04882812 C-3.42973206 50.03701086 -6.71484397 50.02053617 -10 50 C-7.4333004 39.28785025 -4.51929418 28.72172098 -1.37475586 18.1640625 C-1.08221924 17.17792969 -0.78968262 16.19179688 -0.48828125 15.17578125 C-0.09443237 13.85960815 -0.09443237 13.85960815 0.30737305 12.5168457 C0.53593994 11.68628662 0.76450684 10.85572754 1 10 C1.2369458 9.17137451 1.4738916 8.34274902 1.71801758 7.48901367 C2.06197318 4.45297265 1.31912917 2.71585417 0 0 Z M14 10 C12.68541734 14.08266582 11.37369468 18.16624495 10.0625 22.25 C9.50272461 23.98830078 9.50272461 23.98830078 8.93164062 25.76171875 C8.57392578 26.87675781 8.21621094 27.99179687 7.84765625 29.140625 C7.3527771 30.68024902 7.3527771 30.68024902 6.84790039 32.25097656 C6.1568006 34.49162835 5.53694676 36.71857287 5 39 C7.64 39 10.28 39 13 39 C15.12730393 33.46900978 17.04638474 27.92535733 18.75 22.25 C19.09998047 21.13818359 19.09998047 21.13818359 19.45703125 20.00390625 C20.58425615 16.24423998 21.18226983 13.74627856 20 10 C18.02 10 16.04 10 14 10 Z " fill="#1B304C" transform="translate(439,2)"/>
<path d="M0 0 C4.52065428 -0.049377 9.04115217 -0.08570823 13.56201172 -0.10986328 C15.10045098 -0.11993118 16.63887107 -0.13358646 18.17724609 -0.15087891 C20.38644133 -0.17509317 22.59538395 -0.18647491 24.8046875 -0.1953125 C25.49432587 -0.20563507 26.18396423 -0.21595764 26.89450073 -0.22659302 C28.59800906 -0.22699478 30.30085943 -0.12191026 32 0 C34 2 34 2 34.375 5.375 C34.21623931 11.16447322 32.5006076 16.80532805 30 22 C29.11183594 22.71285156 28.22367188 23.42570312 27.30859375 24.16015625 C24.62502339 27.46126565 24.71824841 28.18066993 24.984375 32.265625 C25.21227452 34.26372082 25.46846135 36.25875389 25.75 38.25 C25.99868788 40.25472885 26.24369035 42.25991956 26.484375 44.265625 C26.60522461 45.15024414 26.72607422 46.03486328 26.85058594 46.94628906 C26.89989258 47.62401367 26.94919922 48.30173828 27 49 C26 50 26 50 23.27734375 50.09765625 C22.17519531 50.08605469 21.07304688 50.07445312 19.9375 50.0625 C18.83277344 50.05347656 17.72804688 50.04445312 16.58984375 50.03515625 C15.73519531 50.02355469 14.88054688 50.01195312 14 50 C13.09761253 47.29283758 12.88148698 45.76223232 12.90234375 42.98828125 C12.90556641 42.23095703 12.90878906 41.47363281 12.91210938 40.69335938 C12.92048828 39.90767578 12.92886719 39.12199219 12.9375 38.3125 C12.94201172 37.51521484 12.94652344 36.71792969 12.95117188 35.89648438 C12.9629415 33.93095743 12.98087652 31.96546915 13 30 C11.35 30.33 9.7 30.66 8 31 C7.85377197 31.54003662 7.70754395 32.08007324 7.55688477 32.63647461 C6.89556445 35.07110922 6.22910312 37.50430679 5.5625 39.9375 C5.33240234 40.78763672 5.10230469 41.63777344 4.86523438 42.51367188 C4.64287109 43.32255859 4.42050781 44.13144531 4.19140625 44.96484375 C3.88505249 46.08814087 3.88505249 46.08814087 3.57250977 47.23413086 C3 49 3 49 2 50 C-0.69654854 50.07319621 -3.36691458 50.09242537 -6.0625 50.0625 C-7.20041992 50.05573242 -7.20041992 50.05573242 -8.36132812 50.04882812 C-10.24091871 50.0370068 -12.12046899 50.01907078 -14 50 C-13.1875 48.0625 -13.1875 48.0625 -12 46 C-10.515 45.505 -10.515 45.505 -9 45 C-8.90348145 44.4318457 -8.80696289 43.86369141 -8.70751953 43.27832031 C-7.13418287 34.70611253 -4.43919161 26.55623581 -1.74609375 18.28125 C-1.21822266 16.61835937 -1.21822266 16.61835937 -0.6796875 14.921875 C-0.35726074 13.92768555 -0.03483398 12.93349609 0.29736328 11.90917969 C1.33523192 7.61201404 1.39918656 4.19755967 0 0 Z M13 9 C12.01 12.3 11.02 15.6 10 19 C14.0301492 19.33757629 14.0301492 19.33757629 18 19 C20.41823431 16.35505622 20.95036419 14.7445372 21.1875 11.1875 C21.125625 10.465625 21.06375 9.74375 21 9 C18.36 9 15.72 9 13 9 Z " fill="#1A304C" transform="translate(513,2)"/>
<path d="M0 0 C4.82380802 -0.0246519 9.64757967 -0.04283693 14.47143555 -0.05493164 C16.11369464 -0.05997174 17.75594923 -0.06680378 19.39819336 -0.07543945 C21.75375479 -0.08751926 24.10925709 -0.09323139 26.46484375 -0.09765625 C27.20339096 -0.10281754 27.94193817 -0.10797882 28.7028656 -0.11329651 C30.46898088 -0.1134925 32.23497146 -0.06194719 34 0 C35 1 35 1 35.17675781 4.57568359 C35.11952214 8.81194808 34.30524014 12.720107 33.171875 16.7890625 C32.88645844 17.84944229 32.88645844 17.84944229 32.59527588 18.9312439 C32.1933671 20.41321341 31.78638025 21.89381443 31.37451172 23.37304688 C30.75074454 25.62231523 30.1498508 27.87685688 29.55078125 30.1328125 C29.15500521 31.58110133 28.75791385 33.0290315 28.359375 34.4765625 C28.18315613 35.14233307 28.00693726 35.80810364 27.82537842 36.49404907 C26.33360884 41.75516343 24.52321152 46.530841 19.63598633 49.37646484 C16.56787469 50.10221803 13.97373015 50.13171085 10.82421875 49.9765625 C9.08881836 49.89921875 9.08881836 49.89921875 7.31835938 49.8203125 C6.12017578 49.75585938 4.92199219 49.69140625 3.6875 49.625 C2.46998047 49.56828125 1.25246094 49.5115625 -0.00195312 49.453125 C-3.00192202 49.31194999 -6.0010166 49.1605635 -9 49 C-7.4391891 39.63652074 -4.56587664 30.68241722 -1.73535156 21.64526367 C-1.11710969 19.66503211 -0.50740086 17.68231979 0.1015625 15.69921875 C0.46588379 14.53221436 0.83020508 13.36520996 1.20556641 12.1628418 C2.4096126 7.36922827 2.55065943 4.30423779 0 0 Z M14 10 C10.71955915 19.5993228 7.69801532 29.21781037 5 39 C7.64 39 10.28 39 13 39 C14.34569019 35.10832482 15.67436 31.21104602 17 27.3125 C17.3815625 26.20970703 17.763125 25.10691406 18.15625 23.97070312 C18.5171875 22.90400391 18.878125 21.83730469 19.25 20.73828125 C19.58515625 19.75899658 19.9203125 18.77971191 20.265625 17.77075195 C20.98813738 15.04475696 21.14322738 12.80412361 21 10 C18.69 10 16.38 10 14 10 Z " fill="#1A304C" transform="translate(291,2)"/>
<path d="M0 0 C11.22 0 22.44 0 34 0 C35.12613831 6.75682986 35.12613831 6.75682986 34.109375 9.9453125 C33.89410156 10.62980469 33.67882813 11.31429688 33.45703125 12.01953125 C33.22371094 12.71433594 32.99039063 13.40914062 32.75 14.125 C32.42322266 15.17880859 32.42322266 15.17880859 32.08984375 16.25390625 C30.89269051 19.95738031 29.72826158 23.1690619 27 26 C26.34 26 25.68 26 25 26 C25.144375 27.24136719 25.28875 28.48273437 25.4375 29.76171875 C25.62514689 31.40362905 25.81263874 33.04555708 26 34.6875 C26.09539063 35.50412109 26.19078125 36.32074219 26.2890625 37.16210938 C26.37929688 37.95810547 26.46953125 38.75410156 26.5625 39.57421875 C26.64628906 40.30213623 26.73007812 41.03005371 26.81640625 41.7800293 C27.01482608 44.17927338 27 46.59256514 27 49 C22.71 49 18.42 49 14 49 C13.34 42.73 12.68 36.46 12 30 C10.68 29.67 9.36 29.34 8 29 C7.90203125 29.60585938 7.8040625 30.21171875 7.703125 30.8359375 C6.54682295 37.31521623 4.59234162 42.95120288 2 49 C-3.28 49 -8.56 49 -14 49 C-11.525 46.525 -11.525 46.525 -9 44 C-7.92598437 42.08075787 -7.92598437 42.08075787 -7.40673828 40.09936523 C-7.18365997 39.37188583 -6.96058167 38.64440643 -6.73074341 37.8948822 C-6.40383011 36.73841942 -6.40383011 36.73841942 -6.0703125 35.55859375 C-5.83085907 34.75390152 -5.59140564 33.94920929 -5.34469604 33.12013245 C-4.84477786 31.42716283 -4.35272867 29.73185172 -3.86816406 28.03442383 C-3.12473788 25.43658406 -2.35350943 22.84822458 -1.578125 20.25976562 C-1.0946916 18.60986124 -0.61286458 16.95948513 -0.1328125 15.30859375 C0.09727509 14.53559433 0.32736267 13.76259491 0.56442261 12.96617126 C2.06372742 7.64701526 1.69496129 5.08488387 0 0 Z M14 9 C11.70954986 13.81209901 11.70954986 13.81209901 11 19 C14.41656024 19.16677282 14.41656024 19.16677282 18 19 C20.29575603 16.70424397 20.32339599 15.99157475 20.625 12.875 C20.74875 11.59625 20.8725 10.3175 21 9 C18.69 9 16.38 9 14 9 Z " fill="#192E4B" transform="translate(15,2)"/>
<path d="M0 0 C1.21880859 -0.01224609 2.43761719 -0.02449219 3.69335938 -0.03710938 C5.43649414 -0.04000977 5.43649414 -0.04000977 7.21484375 -0.04296875 C8.28726318 -0.04707764 9.35968262 -0.05118652 10.46459961 -0.05541992 C13.0625 0.1875 13.0625 0.1875 15.0625 2.1875 C14.89391505 10.315069 12.2940508 17.97633599 9.93432617 25.69091797 C9.24854905 27.94226336 8.58368484 30.19911089 7.91992188 32.45703125 C7.48302016 33.90402364 7.04491076 35.35065205 6.60546875 36.796875 C6.41051315 37.4646698 6.21555756 38.1324646 6.01469421 38.82049561 C4.71183674 43.00215475 3.16293622 46.07294621 0.0625 49.1875 C-4.11075844 50.87597655 -8.93170891 50.41055055 -13.375 50.4375 C-14.22126953 50.458125 -15.06753906 50.47875 -15.93945312 50.5 C-19.64290398 50.52320095 -22.51480973 50.3346154 -26.03515625 49.109375 C-27.9375 47.1875 -27.9375 47.1875 -28.421875 44.06640625 C-27.85192961 39.50224684 -26.66913129 35.46444127 -25.1875 31.125 C-24.63092076 29.44333326 -24.07624759 27.76103453 -23.5234375 26.078125 C-23.25112305 25.25248047 -22.97880859 24.42683594 -22.69824219 23.57617188 C-21.28995763 19.15426684 -20.14203209 14.66331354 -18.9921875 10.16796875 C-15.07508222 -0.90148063 -10.50789769 0.00553922 0 0 Z M-5.9375 10.1875 C-9.06411255 15.68958695 -10.53211154 21.46626021 -12.125 27.5625 C-12.53395508 29.09583984 -12.53395508 29.09583984 -12.95117188 30.66015625 C-13.61909356 33.16779205 -14.28101099 35.67685157 -14.9375 38.1875 C-13.75325674 39.60327477 -13.75325674 39.60327477 -10.375 39.25 C-8.6734375 39.2190625 -8.6734375 39.2190625 -6.9375 39.1875 C-4.8050039 33.65926964 -2.92082094 28.12131986 -1.25 22.4375 C-1.02505859 21.69628906 -0.80011719 20.95507812 -0.56835938 20.19140625 C0.467346 16.68448895 1.0625 13.87400077 1.0625 10.1875 C-1.2475 10.1875 -3.5575 10.1875 -5.9375 10.1875 Z " fill="#1C314D" transform="translate(226.9375,1.8125)"/>
<path d="M0 0 C5.28 0 10.56 0 16 0 C14.3675258 6.01047318 12.72857669 12.01646529 11 18 C14.63 17.67 18.26 17.34 22 17 C22.515625 15.4325 23.03125 13.865 23.5625 12.25 C23.99755859 10.92742188 23.99755859 10.92742188 24.44140625 9.578125 C25.02958644 6.86344722 24.90539055 5.58063414 24 3 C23.505 1.515 23.505 1.515 23 0 C28.28 0 33.56 0 39 0 C37.75512527 6.65827192 36.21145196 13.05013003 34.1796875 19.5078125 C33.91616486 20.35930878 33.65264221 21.21080505 33.38113403 22.08810425 C32.55042477 24.76854626 31.71284855 27.44678209 30.875 30.125 C30.30553103 31.95819095 29.73651658 33.79152316 29.16796875 35.625 C27.78388643 40.08498096 26.39364761 44.54299918 25 49 C20.05 49 15.1 49 10 49 C10 48.34 10 47.68 10 47 C10.60328125 46.63261719 11.2065625 46.26523437 11.828125 45.88671875 C15.04155752 43.09519374 15.63507052 39.82694733 16.75 35.8125 C16.97042969 35.06291016 17.19085938 34.31332031 17.41796875 33.54101562 C17.95805003 31.69769474 18.48074979 29.84929686 19 28 C15.04 28 11.08 28 7 28 C6.9175 28.886875 6.835 29.77375 6.75 30.6875 C4.70143885 45.29856115 4.70143885 45.29856115 1 49 C-1.53049402 49.07313567 -4.03304837 49.09247527 -6.5625 49.0625 C-7.62887695 49.05573242 -7.62887695 49.05573242 -8.71679688 49.04882812 C-10.47790013 49.03700864 -12.23896036 49.01907263 -14 49 C-13.23018799 48.17113281 -12.46037598 47.34226563 -11.66723633 46.48828125 C-8.81929997 43.05934958 -7.50714333 39.44213839 -6.32421875 35.1875 C-6.10933304 34.4555542 -5.89444733 33.7236084 -5.67304993 32.96948242 C-5.22503702 31.43190419 -4.7842267 29.8922105 -4.3503418 28.35058594 C-3.68797937 26.00169996 -3.0012245 23.66101038 -2.31054688 21.3203125 C-1.87615024 19.81812801 -1.44315921 18.31553619 -1.01171875 16.8125 C-0.80866623 16.11858154 -0.60561371 15.42466309 -0.39640808 14.7097168 C1.0565263 9.49306432 1.72881441 5.18644324 0 0 Z " fill="#1C324D" transform="translate(111,2)"/>
<path d="M0 0 C0.91072266 -0.01611328 1.82144531 -0.03222656 2.75976562 -0.04882812 C3.63439453 -0.04947266 4.50902344 -0.05011719 5.41015625 -0.05078125 C6.20687744 -0.05376221 7.00359863 -0.05674316 7.82446289 -0.05981445 C10.49198153 0.41019894 11.36775991 1.12478129 12.9375 3.3125 C13.35332744 8.55192569 13.32870141 10.53009717 10.9375 15.3125 C6.6475 15.3125 2.3575 15.3125 -2.0625 15.3125 C-1.7325 13.0025 -1.4025 10.6925 -1.0625 8.3125 C-3.0425 9.3025 -3.0425 9.3025 -5.0625 10.3125 C-5.51204135 13.1384655 -5.51204135 13.1384655 -5.0625 16.3125 C-2.74037824 18.6323193 -2.74037824 18.6323193 0.3125 20.4375 C6.72771572 24.56511941 6.72771572 24.56511941 7.9375 28.3125 C7.71764048 34.68842614 6.066165 40.72063208 2.9375 46.3125 C-1.86384378 50.71621697 -6.74429667 50.49429744 -13 50.5 C-14.05477539 50.51836914 -14.05477539 50.51836914 -15.13085938 50.53710938 C-19.20653561 50.54856863 -22.44979805 50.26623825 -26.0625 48.3125 C-27.28735812 45.86278376 -27.22972808 44.17015539 -27.25 41.4375 C-27.26417969 40.57382812 -27.27835937 39.71015625 -27.29296875 38.8203125 C-27.0625 36.3125 -27.0625 36.3125 -25.0625 32.3125 C-20.7725 32.3125 -16.4825 32.3125 -12.0625 32.3125 C-12.7225 35.6125 -13.3825 38.9125 -14.0625 42.3125 C-11.5875 41.8175 -11.5875 41.8175 -9.0625 41.3125 C-7.74603761 37.32561986 -7.74603761 37.32561986 -8.0625 33.3125 C-11.0349547 30.11965417 -14.50294813 27.80529176 -18.0625 25.3125 C-20.64023339 23.10940465 -21.00106968 22.74251221 -21.5 19.25 C-20.81790933 13.111184 -19.00529453 6.38162867 -14.0625 2.3125 C-9.48953037 -0.37686517 -5.17519714 -0.01839089 0 0 Z " fill="#1C314D" transform="translate(367.0625,1.6875)"/>
<path d="M0 0 C0.91523437 -0.020625 1.83046875 -0.04125 2.7734375 -0.0625 C3.65257812 -0.06765625 4.53171875 -0.0728125 5.4375 -0.078125 C6.24058594 -0.0874707 7.04367187 -0.09681641 7.87109375 -0.10644531 C10.51586432 0.33637178 11.38872456 1.14451518 13 3.25 C13.328125 5.40625 13.328125 5.40625 13.25 7.75 C13.23453125 8.5234375 13.2190625 9.296875 13.203125 10.09375 C13 12.25 13 12.25 12 15.25 C7.38 15.25 2.76 15.25 -2 15.25 C-1.34 12.94 -0.68 10.63 0 8.25 C-1.32 8.58 -2.64 8.91 -4 9.25 C-4.33 11.56 -4.66 13.87 -5 16.25 C-4.31292969 16.72050781 -3.62585938 17.19101562 -2.91796875 17.67578125 C-2.01691406 18.29839844 -1.11585938 18.92101562 -0.1875 19.5625 C0.70582031 20.17738281 1.59914063 20.79226562 2.51953125 21.42578125 C7.8098682 25.31647 7.8098682 25.31647 8.43359375 28.37890625 C8.44481846 35.37189822 7.63067453 42.54289022 2.515625 47.765625 C-3.87794079 51.7828212 -12.73869578 50.90803178 -20 50.25 C-22.92578125 49.3515625 -22.92578125 49.3515625 -25 48.25 C-26.29758261 45.65483479 -26.13269102 43.70816973 -26.125 40.8125 C-26.12757813 39.84441406 -26.13015625 38.87632813 -26.1328125 37.87890625 C-26 35.25 -26 35.25 -25 32.25 C-20.38 32.25 -15.76 32.25 -11 32.25 C-11.66 35.55 -12.32 38.85 -13 42.25 C-9 40.75 -9 40.75 -8 38.25 C-7.46821625 35.34273206 -7.46821625 35.34273206 -8 32.25 C-10.31907467 29.8949301 -10.31907467 29.8949301 -13.375 28.0625 C-18.84862385 24.47706422 -18.84862385 24.47706422 -21 21.25 C-21.40447396 14.41439003 -19.02914374 7.73760874 -14.5546875 2.5859375 C-10.55815174 -0.84827162 -4.95540069 0.02791775 0 0 Z " fill="#1C314D" transform="translate(569,1.75)"/>
<path d="M0 0 C10.89 0 21.78 0 33 0 C32.34 2.97 31.68 5.94 31 9 C26.05 9.33 21.1 9.66 16 10 C15.34 12.31 14.68 14.62 14 17 C20.93 17.495 20.93 17.495 28 18 C27.34 21.3 26.68 24.6 26 28 C20.72 28 15.44 28 10 28 C9.34 31.3 8.68 34.6 8 38 C12.95 38.33 17.9 38.66 23 39 C21.125 48.875 21.125 48.875 20 50 C17.55169574 50.08843793 15.13179401 50.11528752 12.68359375 50.09765625 C11.95253922 50.0962413 11.22148468 50.09482635 10.46827698 50.09336853 C8.12464368 50.08775408 5.78110461 50.07519922 3.4375 50.0625 C1.85221492 50.05748686 0.26692834 50.05292363 -1.31835938 50.04882812 C-5.2122761 50.03777997 -9.10612205 50.02050572 -13 50 C-11.94778532 47.81463104 -10.85377934 45.77451567 -9.53222656 43.73657227 C-7.64604176 40.36782697 -6.56231408 36.89876657 -5.484375 33.21484375 C-5.26428772 32.47673965 -5.04420044 31.73863556 -4.81744385 30.97816467 C-4.35683447 29.42521464 -3.89984468 27.87118691 -3.44628906 26.31616211 C-2.75014206 23.93798531 -2.03592876 21.56574017 -1.3203125 19.19335938 C-0.87389591 17.68001275 -0.42854636 16.16635087 0.015625 14.65234375 C0.23011292 13.94496567 0.44460083 13.23758759 0.66558838 12.5087738 C1.67045529 9.00668572 2.38394896 6.44559981 1 3 C0.67 2.01 0.34 1.02 0 0 Z " fill="#1B304C" transform="translate(477,2)"/>
<path d="M0 0 C1.15242188 0.01482422 2.30484375 0.02964844 3.4921875 0.04492188 C4.68585938 0.09068359 5.87953125 0.13644531 7.109375 0.18359375 C8.31851563 0.20228516 9.52765625 0.22097656 10.7734375 0.24023438 C19.66330501 0.42502376 19.66330501 0.42502376 20.859375 1.62109375 C21.29432182 7.81908589 20.30087415 11.92426239 17.859375 17.62109375 C14.229375 17.62109375 10.599375 17.62109375 6.859375 17.62109375 C6.859375 15.31109375 6.859375 13.00109375 6.859375 10.62109375 C3.04006398 10.79515146 3.04006398 10.79515146 -0.140625 12.62109375 C-2.28241743 16.97084652 -3.38769543 21.5604109 -4.578125 26.24609375 C-4.92890848 27.53850507 -5.28239568 28.83018579 -5.63867188 30.12109375 C-6.49954971 33.28157674 -7.33203365 36.44690555 -8.140625 39.62109375 C-5.500625 39.62109375 -2.860625 39.62109375 -0.140625 39.62109375 C0.00375 38.67234375 0.148125 37.72359375 0.296875 36.74609375 C0.859375 33.62109375 0.859375 33.62109375 1.859375 31.62109375 C4.58203125 31.20703125 4.58203125 31.20703125 7.921875 30.99609375 C9.02660156 30.92132813 10.13132813 30.8465625 11.26953125 30.76953125 C12.12417969 30.72054687 12.97882813 30.6715625 13.859375 30.62109375 C11.75063061 44.16145249 11.75063061 44.16145249 7.859375 48.62109375 C2.76645605 51.03435381 -2.25073259 50.92200045 -7.765625 50.87109375 C-9.0340625 50.88269531 -9.0340625 50.88269531 -10.328125 50.89453125 C-11.14539063 50.89195313 -11.96265625 50.889375 -12.8046875 50.88671875 C-13.54154785 50.88446289 -14.2784082 50.88220703 -15.03759766 50.87988281 C-17.60233841 50.56427738 -19.06621176 50.19400671 -21.140625 48.62109375 C-22.85636479 43.55259544 -21.54529812 39.3003075 -20.0078125 34.37109375 C-19.77409943 33.59475586 -19.54038635 32.81841797 -19.29959106 32.01855469 C-18.80315557 30.38280252 -18.30016033 28.74902849 -17.79101562 27.1171875 C-17.01983437 24.63464433 -16.27826537 22.14456967 -15.5390625 19.65234375 C-15.05124361 18.0580528 -14.56171552 16.46428363 -14.0703125 14.87109375 C-13.8523703 14.13342773 -13.6344281 13.39576172 -13.40988159 12.63574219 C-11.14380616 5.51557379 -8.33762073 -0.19769747 0 0 Z " fill="#203550" transform="translate(87.140625,1.37890625)"/>
<path d="M0 0 C4.50229474 -0.09889302 9.00395727 -0.17147709 13.50708008 -0.21972656 C15.03876762 -0.2398398 16.57037839 -0.2671345 18.10180664 -0.30175781 C20.30374073 -0.35029315 22.50465982 -0.37296996 24.70703125 -0.390625 C25.73374687 -0.42159271 25.73374687 -0.42159271 26.78120422 -0.45318604 C30.01151974 -0.45470992 31.58272867 -0.40263663 33.95605469 1.88745117 C36.57174692 7.18061882 32.91020577 14.60097865 31.1875 19.875 C29.56853971 24.15195481 28.10668024 26.68341115 24 29 C20.68455701 30.10514766 17.79589889 30.32107631 14.3125 30.5625 C12.54326172 30.68818359 12.54326172 30.68818359 10.73828125 30.81640625 C9.83464844 30.87699219 8.93101562 30.93757813 8 31 C7.85377197 31.54003662 7.70754395 32.08007324 7.55688477 32.63647461 C6.89556445 35.07110922 6.22910312 37.50430679 5.5625 39.9375 C5.33240234 40.78763672 5.10230469 41.63777344 4.86523438 42.51367188 C4.64287109 43.32255859 4.42050781 44.13144531 4.19140625 44.96484375 C3.88505249 46.08814087 3.88505249 46.08814087 3.57250977 47.23413086 C3 49 3 49 2 50 C-0.69654854 50.07319621 -3.36691458 50.09242537 -6.0625 50.0625 C-7.20041992 50.05573242 -7.20041992 50.05573242 -8.36132812 50.04882812 C-10.24091871 50.0370068 -12.12046899 50.01907078 -14 50 C-13 47 -13 47 -11.09863281 45.28857422 C-8.37088034 42.31394047 -7.49037726 39.18145484 -6.421875 35.3828125 C-6.20557434 34.6480368 -5.98927368 33.91326111 -5.76641846 33.15621948 C-5.31331136 31.60644192 -4.86655224 30.05479593 -4.42578125 28.50146484 C-3.75294099 26.13534236 -3.05787275 23.7766284 -2.359375 21.41796875 C-1.9205387 19.90663737 -1.4829955 18.3949298 -1.046875 16.8828125 C-0.84068542 16.18261993 -0.63449585 15.48242737 -0.42205811 14.76101685 C1.04808737 9.52286274 1.73709078 5.21127235 0 0 Z M14 9 C11.96564469 12.72965139 11 14.66905042 11 19 C15.84196321 19.53070579 15.84196321 19.53070579 19.9375 17.375 C21.25066255 14.43969547 21.21691118 12.18136394 21 9 C18.69 9 16.38 9 14 9 Z " fill="#1A2F4B" transform="translate(384,2)"/>
<path d="M0 0 C5.28 0 10.56 0 16 0 C14.7399831 6.71834738 13.18040959 13.19399194 11.1796875 19.7265625 C10.91616486 20.60025482 10.65264221 21.47394714 10.38113403 22.37411499 C9.55010917 25.12574982 8.71267916 27.87538455 7.875 30.625 C7.30556217 32.5063811 6.73654795 34.38789048 6.16796875 36.26953125 C4.78353146 40.84784947 3.39335195 45.42438735 2 50 C-3.28 50 -8.56 50 -14 50 C-13.01 48.68 -12.02 47.36 -11 46 C-10.34 46 -9.68 46 -9 46 C-8.83274414 45.289646 -8.66548828 44.57929199 -8.49316406 43.84741211 C-6.30003389 34.78124749 -3.52348138 25.95279014 -0.609375 17.09570312 C-0.0834375 15.44151367 -0.0834375 15.44151367 0.453125 13.75390625 C0.93507324 12.27386108 0.93507324 12.27386108 1.42675781 10.76391602 C2.2690603 6.70271224 1.28895938 3.86687815 0 0 Z " fill="#223752" transform="translate(421,2)"/>
<path d="M0 0 C5.28 0 10.56 0 16 0 C14.34991123 5.69370449 12.69572455 11.38619677 11.0378418 17.07763672 C10.47520876 19.01123347 9.9136682 20.94514847 9.35327148 22.87939453 C8.54442475 25.67045501 7.73156764 28.46032159 6.91796875 31.25 C6.67096725 32.10553467 6.42396576 32.96106934 6.16947937 33.8425293 C4.66196286 38.9942781 2.94450157 43.99625017 1 49 C-3.95 49 -8.9 49 -14 49 C-13.01 47.68 -12.02 46.36 -11 45 C-10.34 45 -9.68 45 -9 45 C-8.90420654 44.43619629 -8.80841309 43.87239258 -8.7097168 43.29150391 C-7.10846807 34.57058849 -4.38768799 26.23649389 -1.65820312 17.8125 C0.33310967 11.37958389 1.54350338 6.6150145 0 0 Z " fill="#203550" transform="translate(57,2)"/>
<path d="M0 0 C3.66666667 0 7.33333333 0 11 0 C11 1.98 11 3.96 11 6 C9.02 6 7.04 6 5 6 C5 4.68 5 3.36 5 2 C4.34 2 3.68 2 3 2 C2.67 3.32 2.34 4.64 2 6 C2 4.68 2 3.36 2 2 C1.34 2 0.68 2 0 2 C0 1.34 0 0.68 0 0 Z " fill="#7C8898" transform="translate(576,45)"/>
<path d="M0 0 C11.22 0 22.44 0 34 0 C34 0.33 34 0.66 34 1 C23.77 1 13.54 1 3 1 C2.67 2.32 2.34 3.64 2 5 C1.34 3.35 0.68 1.7 0 0 Z " fill="#657286" transform="translate(439,2)"/>
<path d="M0 0 C1.07878418 0.01047363 2.15756836 0.02094727 3.26904297 0.03173828 C5.01894531 0.04140625 5.01894531 0.04140625 6.80419922 0.05126953 C8.02751953 0.06802734 9.25083984 0.08478516 10.51123047 0.10205078 C11.74228516 0.11107422 12.97333984 0.12009766 14.24169922 0.12939453 C17.29006862 0.1530253 20.33805429 0.18597024 23.38623047 0.22705078 C23.38623047 0.55705078 23.38623047 0.88705078 23.38623047 1.22705078 C22.69062012 1.23115967 21.99500977 1.23526855 21.27832031 1.23950195 C18.10511244 1.27253968 14.93379856 1.34319544 11.76123047 1.41455078 C10.11960938 1.42325195 10.11960938 1.42325195 8.44482422 1.43212891 C1.51232521 1.5292158 1.51232521 1.5292158 -4.38720703 4.77783203 C-5.12197266 5.58607422 -5.85673828 6.39431641 -6.61376953 7.22705078 C-4.08180472 0.35457485 -4.08180472 0.35457485 0 0 Z " fill="#42546B" transform="translate(216.61376953125,1.77294921875)"/>
<path d="M0 0 C10.56 0 21.12 0 32 0 C32 0.33 32 0.66 32 1 C27.92490906 1.14307911 23.84979494 1.28547705 19.7746582 1.42724609 C18.38858396 1.4755617 17.00251618 1.52406285 15.61645508 1.57275391 C13.62322675 1.64274186 11.62997304 1.71200543 9.63671875 1.78125 C8.43748779 1.82314453 7.23825684 1.86503906 6.00268555 1.90820312 C4.0024909 1.96935226 2.00112914 2 0 2 C0 1.34 0 0.68 0 0 Z " fill="#3F5168" transform="translate(384,2)"/>
<path d="M0 0 C5.28 0 10.56 0 16 0 C15.67 0.66 15.34 1.32 15 2 C10 2 5 2 0 2 C0 1.34 0 0.68 0 0 Z " fill="#42546B" transform="translate(246,2)"/>
</svg>
