<?xml version="1.0" encoding="UTF-8"?>
<svg version="1.1" xmlns="http://www.w3.org/2000/svg" width="1017" height="379">
<path d="M0 0 C179.85 0 359.7 0 545 0 C543.67229962 3.31925095 542.43173467 6.10992556 540.75 9.1875 C530.80337614 29.08074773 527 51.96285785 527 74 C652.73 74.495 652.73 74.495 781 75 C778.69 78.63 776.38 82.26 774 86 C758.7122087 112.42251155 753.3764812 138.58356382 753.45410156 168.97802734 C753.44534074 171.28666878 753.43484636 173.59530417 753.42277527 175.90393066 C753.3952019 182.09669469 753.39150418 188.28925781 753.39249516 194.48207426 C753.38934113 200.98163438 753.36367171 207.48110725 753.34051514 213.98062134 C753.30471153 224.865499 753.28249723 235.75032444 753.27099609 246.63525391 C753.25912482 257.83450688 753.23884636 269.03369398 753.20751953 280.23291016 C753.20461538 281.27267573 753.20461538 281.27267573 753.20165256 282.33344667 C753.19188631 285.81176578 753.1819575 289.2900844 753.17194796 292.76840281 C753.08944129 321.51223308 753.03555277 350.25607472 753 379 C741.4093611 378.03048473 741.4093611 378.03048473 736.41088867 377.03540039 C735.44813019 376.84713684 734.4853717 376.65887329 733.49343872 376.46490479 C731.97108109 376.15936676 731.97108109 376.15936676 730.41796875 375.84765625 C728.13363823 375.40097111 725.84920972 374.95478689 723.56469727 374.5090332 C722.36595978 374.27350739 721.16722229 374.03798157 719.93215942 373.7953186 C622.49101441 354.72637915 523.79194042 342.6483801 424.7421875 336.09765625 C423.82946075 336.03678329 422.91673401 335.97591034 421.97634888 335.91319275 C374.75025529 332.87469972 327.51321849 331.65450584 280.19580078 331.73925781 C273.78394599 331.75065106 267.37225738 331.74385298 260.96040821 331.73237991 C226.59879869 331.68031445 192.32422545 332.38723 158 334 C156.75538876 334.05831749 156.75538876 334.05831749 155.48563385 334.11781311 C145.7559781 334.57856904 136.03342546 335.13073338 126.3125 335.75 C124.33837631 335.87355362 124.33837631 335.87355362 122.32437134 335.99960327 C36.9379347 341.36842172 -48.10044304 351.37238165 -190.24169922 376.71508789 C-191.0166423 376.87177948 -191.79158539 377.02847107 -192.5900116 377.18991089 C-194.62237791 377.6021192 -196.65341754 378.02085433 -198.68432617 378.44018555 C-201.56153313 378.92596977 -204.09895212 379.04427091 -207 379 C-207.00331015 377.86915356 -207.00662029 376.73830711 -207.01003075 375.5731926 C-207.09122867 347.98524325 -207.18360545 320.3973483 -207.28752708 292.80947495 C-207.29750457 290.14723469 -207.30746637 287.48499439 -207.31738281 284.82275391 C-207.3210818 283.83026258 -207.3210818 283.83026258 -207.32485552 282.81772092 C-207.36197956 272.80671463 -207.39343423 262.79570316 -207.421875 252.78466797 C-207.45494203 241.14845233 -207.49485316 229.51228312 -207.54279006 217.8761189 C-207.5679096 211.72184554 -207.58973284 205.5676024 -207.60334396 199.41329193 C-207.61629757 193.60536562 -207.63849122 187.79754372 -207.66738319 181.98967552 C-207.67635618 179.87273739 -207.68212472 177.75578249 -207.68421364 175.63882637 C-207.72622029 139.49275384 -213.19848158 105.23271593 -236 76 C-236 75.34 -236 74.68 -236 74 C-151.85 74 -67.7 74 19 74 C17.27458551 55.88314786 15.22915612 39.1439384 9.625 22 C9.35727783 21.17628906 9.08955566 20.35257813 8.8137207 19.50390625 C6.42936701 12.55041049 3.36556372 6.73112744 0 0 Z " fill="#013DA5" transform="translate(236,0)"/>
<path d="M0 0 C11.64815063 -0.06950591 23.29625192 -0.12281437 34.94456768 -0.15543652 C40.35333773 -0.17109339 45.7619659 -0.19233226 51.1706543 -0.22631836 C56.39019478 -0.25891073 61.60959878 -0.27685285 66.82923317 -0.28463173 C68.82074952 -0.29017543 70.81225839 -0.30100088 72.80371666 -0.31719017 C75.59286017 -0.33896267 78.38143949 -0.34196698 81.1706543 -0.34057617 C81.99424438 -0.351362 82.81783447 -0.36214783 83.66638184 -0.3732605 C89.71998895 -0.34059005 92.8323901 0.92971331 97.28411865 5.18156433 C99.51183132 8.84071294 99.53389231 11.94048755 99.45410156 16.0949707 C99.45468567 16.89549362 99.45526978 17.69601654 99.45587158 18.52079773 C99.45309374 21.1562395 99.42201701 23.79053805 99.390625 26.42578125 C99.38316152 28.25708905 99.37746909 30.08840486 99.37347412 31.91972351 C99.35822621 36.73184387 99.31895169 41.54347873 99.2746582 46.35540771 C99.2336873 51.26877271 99.21545922 56.18221642 99.1953125 61.09570312 C99.15245645 70.73071601 99.08211352 80.36524161 99 90 C92.07 93.465 92.07 93.465 85 97 C88.88302791 100.88302791 90.40816364 102.24442696 94.7487793 104.59350586 C97.96640288 107.08398946 99.24054741 108.98969942 99.81240845 112.94216919 C100.23060154 118.12741451 100.11905184 123.30771061 100.01953125 128.50390625 C100.01289081 130.43008066 100.00966284 132.35626959 100.00968933 134.28245544 C100.00041233 138.31203251 99.96125325 142.33980067 99.89868164 146.36889648 C99.81937376 151.52625032 99.79702591 156.68181905 99.79483509 161.83972263 C99.78985585 165.81448144 99.76356215 169.78886024 99.72995567 173.7634716 C99.71474447 175.66479378 99.70405183 177.56615779 99.69800758 179.4675312 C99.684583 182.12693507 99.64463727 184.7846213 99.59692383 187.44360352 C99.59728638 188.61502144 99.59728638 188.61502144 99.59765625 189.81010437 C99.46730683 194.95335571 98.38990418 197.92142249 95 202 C87.63949155 207.02998071 78.74964824 207.7070666 70.125 209.0625 C68.52779051 209.32354153 66.93078534 209.58583625 65.33398438 209.84936523 C61.53081897 210.47457216 57.72574395 211.08685836 53.91955566 211.69335938 C50.11062704 212.30181907 46.30520514 212.93126051 42.5 213.5625 C41.85595215 213.66739746 41.2119043 213.77229492 40.54833984 213.88037109 C36.06673347 214.62056322 31.60376135 215.44452208 27.140625 216.2890625 C25.31241211 216.63408813 25.31241211 216.63408813 23.44726562 216.98608398 C21.03352488 217.4439998 18.62071041 217.9068332 16.20898438 218.37524414 C15.10361328 218.58528076 13.99824219 218.79531738 12.859375 219.01171875 C11.87420898 219.20209717 10.88904297 219.39247559 9.87402344 219.58862305 C6.87783336 220.01748648 4.02254472 220.07088467 1 220 C1.14135051 219.45217208 1.28270103 218.90434416 1.42833489 218.33991539 C2.75201622 212.87908845 3.28847456 207.82651601 3.26069641 202.22018433 C3.26452196 201.38438878 3.26834751 200.54859324 3.27228898 199.68747056 C3.2825323 196.91251234 3.27864351 194.13776439 3.2746582 191.36279297 C3.27900935 189.36299449 3.28419384 187.36319768 3.29014587 185.36340332 C3.30350032 179.95039687 3.30411875 174.53746038 3.30158257 169.12444067 C3.30051096 164.60134577 3.30540084 160.07826492 3.310188 155.55517304 C3.32126978 144.88589237 3.32172734 134.21664692 3.31567383 123.54736328 C3.30962737 112.54495181 3.32196518 101.54266801 3.3432439 90.54027832 C3.36085671 81.08528036 3.36686196 71.63032306 3.36360615 62.1753093 C3.36179346 56.53183461 3.36442867 50.88845111 3.37832069 45.2449913 C3.39088999 39.9409293 3.38896336 34.63706673 3.37590981 29.33300781 C3.37354295 27.38797056 3.37628261 25.4429193 3.38453293 23.4978981 C3.39499224 20.84031678 3.38690647 18.18340574 3.3742218 15.52584839 C3.38159609 14.7586239 3.38897037 13.99139942 3.39656812 13.20092571 C3.34547368 8.1032128 2.27435199 4.57013226 0 0 Z " fill="#FEFEFE" transform="translate(65,111)"/>
<path d="M0 0 C23.94157243 -4.31192923 23.94157243 -4.31192923 34 0 C42.64796196 6.46014965 46.99400428 18.56936008 51.23144531 28.13671875 C53.34987774 32.87727487 55.99439403 37.18787338 58.875 41.5 C59.57367187 42.6034375 60.27234375 43.706875 60.9921875 44.84375 C62.11031128 46.60142319 63.23146134 48.35721592 64.36425781 50.10546875 C64.82413086 50.82347656 65.28400391 51.54148438 65.7578125 52.28125 C66.18465332 52.94189453 66.61149414 53.60253906 67.05126953 54.28320312 C68 56 68 56 68 58 C68.66 58 69.32 58 70 58 C70 38.86 70 19.72 70 0 C80.89 0 91.78 0 103 0 C102.01 2.64 101.02 5.28 100 8 C99.73437137 10.75607148 99.59686172 13.27519267 99.6257782 16.02090454 C99.61981659 17.17024398 99.61981659 17.17024398 99.61373454 18.34280241 C99.60417565 20.88839661 99.61589026 23.43342606 99.62768555 25.97900391 C99.6252555 27.81279201 99.62153412 29.6465788 99.61662292 31.48036194 C99.60724077 36.44507995 99.61661618 41.40959989 99.62995505 46.37430239 C99.64129423 51.57516785 99.63716022 56.77602392 99.63520813 61.97689819 C99.63432609 70.70761338 99.64538799 79.43825078 99.66381836 88.16894531 C99.68499782 98.25963827 99.68849248 108.35021742 99.6822564 118.4409281 C99.67656052 128.15537048 99.68221021 137.86977283 99.69342995 147.58420944 C99.69807159 151.71564856 99.69895168 155.84706316 99.6968441 159.97850418 C99.6949595 164.84259384 99.70307841 169.70656776 99.7189045 174.57063103 C99.72314397 176.35482619 99.72400016 178.1390331 99.72121429 179.92323112 C99.71798694 182.35996834 99.7270881 184.79636095 99.73930359 187.23306274 C99.73552427 187.93773607 99.73174494 188.64240939 99.72785109 189.36843646 C99.76541752 193.6093838 100.4561574 197.05360453 102 201 C98.54083593 200.71771188 95.0828945 200.42240556 91.625 200.125 C90.65949219 200.04636719 89.69398438 199.96773437 88.69921875 199.88671875 C87.73886719 199.80292969 86.77851562 199.71914063 85.7890625 199.6328125 C84.91975098 199.55949707 84.05043945 199.48618164 83.15478516 199.41064453 C78.72334351 198.83382323 74.37239924 197.91515646 70 197 C70.02522232 196.05993103 70.05044464 195.11986206 70.07643127 194.15130615 C70.30615864 185.15384204 70.44078623 176.15893471 70.48965549 167.15862656 C70.51762514 162.53415901 70.57547853 157.91469248 70.7097168 153.29199219 C71.4013321 128.5200201 69.23239806 111.76463715 54.06027222 91.76098633 C51.30359051 88.06673639 48.97006063 84.19098725 46.65625 80.2109375 C45.9441505 79.0334922 45.22944202 77.85761949 44.51171875 76.68359375 C43.84785156 75.59175781 43.18398438 74.49992187 42.5 73.375 C42.1385791 72.78122559 41.7771582 72.18745117 41.40478516 71.57568359 C40.34205612 69.82953659 39.2803037 68.08279922 38.21875 66.3359375 C37.61998047 65.35157715 37.02121094 64.3672168 36.40429688 63.35302734 C35 61 35 61 34 59 C33.67 103.22 33.34 147.44 33 193 C23.43 192.01 13.86 191.02 4 190 C3.99191315 187.77523926 3.98382629 185.55047852 3.97549438 183.25830078 C3.89839472 162.30494687 3.81043501 141.35165864 3.71247292 120.39839172 C3.66236929 109.6257977 3.61592607 98.8532112 3.578125 88.08056641 C3.54516503 78.69020536 3.50531162 69.29990308 3.45720994 59.90960693 C3.43198483 54.93837748 3.41019174 49.96718681 3.39665604 44.99591064 C3.38379953 40.31411141 3.36170643 35.63244547 3.33261681 30.95071983 C3.32356907 29.23510876 3.31785736 27.51947623 3.31578636 25.80384254 C3.31244393 23.45493443 3.29691358 21.10639972 3.2784729 18.75756836 C3.27294214 17.44493515 3.26741138 16.13230194 3.26171303 14.77989197 C2.90190045 9.58315913 1.64887982 4.94663946 0 0 Z " fill="#FEFEFE" transform="translate(732,111)"/>
<path d="M0 0 C1.31782722 -0.00065712 1.31782722 -0.00065712 2.66227722 -0.00132751 C5.55722515 0.00075734 8.45158916 0.02407416 11.34643555 0.04760742 C13.35710839 0.05320445 15.36778534 0.05747404 17.37846375 0.06047058 C22.66394395 0.0719109 27.94917584 0.10137123 33.23455811 0.13458252 C38.63054038 0.16530084 44.02656287 0.17897969 49.42260742 0.1940918 C60.00539866 0.22624158 70.58800581 0.27742824 81.1706543 0.34057617 C80.85313705 0.94614349 80.53561981 1.55171082 80.20848083 2.17562866 C77.55946833 7.7015743 77.9673064 14.10860194 77.85424805 20.11401367 C77.8230764 21.49962997 77.8230764 21.49962997 77.79127502 22.91323853 C77.72619311 25.84727961 77.66708787 28.7814058 77.6081543 31.71557617 C77.5649297 33.71167852 77.52131418 35.70777244 77.47729492 37.70385742 C77.36982298 42.58267794 77.27044253 47.4615683 77.1706543 52.34057617 C67.6006543 51.68057617 58.0306543 51.02057617 48.1706543 50.34057617 C48.1706543 43.41057617 48.1706543 36.48057617 48.1706543 29.34057617 C35.9606543 29.34057617 23.7506543 29.34057617 11.1706543 29.34057617 C11.5006543 43.53057617 11.8306543 57.72057617 12.1706543 72.34057617 C15.35463867 73.95706055 18.53862305 75.57354492 21.8190918 77.23901367 C24.96728699 78.84026299 28.11489441 80.44266218 31.26245117 82.04516602 C33.41841772 83.1420669 35.5749751 84.23780743 37.73217773 85.33227539 C40.86695248 86.92299132 43.9994411 88.51813828 47.1315918 90.11401367 C48.06675629 90.58737152 49.00192078 91.06072937 49.96542358 91.5484314 C59.16319036 96.24456558 68.16356347 101.29146585 77.1706543 106.34057617 C77.2864529 120.07481548 77.37532181 133.80893884 77.42971516 147.5435667 C77.45581997 153.92098407 77.49123539 160.29806769 77.54785156 166.67529297 C77.60213794 172.8285278 77.63206816 178.98144143 77.64504051 185.13489723 C77.65428631 187.48370229 77.67234107 189.83248958 77.69930458 192.18115807 C77.73554857 195.4686534 77.74060138 198.75481781 77.73828125 202.04248047 C77.75625763 203.01568237 77.77423401 203.98888428 77.79275513 204.99157715 C77.75720828 209.63977637 77.70438594 211.65834717 74.76017761 215.42170715 C70.01195716 218.94019763 65.72199239 218.83249809 60.0168457 218.04223633 C57.66408232 217.6138445 55.32430589 217.14094033 52.9831543 216.65307617 C51.12684511 216.28356192 49.27004351 215.91651559 47.4128418 215.55151367 C46.41478516 215.35525391 45.41672852 215.15899414 44.38842773 214.95678711 C38.47450826 213.82425807 32.54183519 212.8010979 26.6081543 211.77807617 C24.76012207 211.45685791 24.76012207 211.45685791 22.87475586 211.12915039 C17.28724587 210.16923723 11.70395621 209.25128703 6.0847168 208.49682617 C5.17149658 208.37251221 4.25827637 208.24819824 3.31738281 208.12011719 C1.6582499 207.90051915 -0.00271315 207.69411613 -1.66552734 207.50439453 C-7.51208609 206.7343161 -11.64863064 204.82207952 -15.6418457 200.27807617 C-17.48700134 197.26755908 -17.95376436 194.78128961 -17.94287109 191.328125 C-17.94279556 190.52752151 -17.94272003 189.72691803 -17.94264221 188.90205383 C-17.93748093 188.04258652 -17.93231964 187.1831192 -17.92700195 186.29760742 C-17.92558701 185.41401047 -17.92417206 184.53041351 -17.92271423 183.62004089 C-17.91711639 180.79768489 -17.90456432 177.9754082 -17.8918457 175.15307617 C-17.88683042 173.23966586 -17.88226756 171.3262543 -17.87817383 169.4128418 C-17.86714767 164.72205603 -17.84988454 160.03132955 -17.8293457 155.34057617 C-16.83209473 155.61554932 -15.83484375 155.89052246 -14.80737305 156.17382812 C-13.46839715 156.53820325 -12.12936412 156.90236844 -10.7902832 157.26635742 C-10.13664795 157.44718872 -9.4830127 157.62802002 -8.80957031 157.81433105 C-3.32240411 159.29867552 2.11718916 160.2119621 7.7565918 160.94604492 C10.1706543 161.34057617 10.1706543 161.34057617 11.1706543 162.34057617 C11.5006543 168.28057617 11.8306543 174.22057617 12.1706543 180.34057617 C29.9906543 182.81557617 29.9906543 182.81557617 48.1706543 185.34057617 C48.1706543 165.21057617 48.1706543 145.08057617 48.1706543 124.34057617 C46.1906543 123.68057617 44.2106543 123.02057617 42.1706543 122.34057617 C40.55722501 121.60367137 38.96001686 120.83017858 37.38134766 120.02148438 C36.48278549 119.56373123 35.58422333 119.10597809 34.65843201 118.63435364 C33.7021138 118.14166489 32.74579559 117.64897614 31.76049805 117.14135742 C30.75660538 116.62808395 29.75271271 116.11481049 28.71839905 115.58598328 C26.5951086 114.49940085 24.47285157 113.41079696 22.3515625 112.3203125 C19.14566592 110.67235858 15.93680236 109.03031279 12.72729492 107.3894043 C10.65485065 106.32790405 8.58257963 105.26606547 6.51049805 104.20385742 C5.09727516 103.48000603 5.09727516 103.48000603 3.65550232 102.74153137 C-3.55634919 99.03219936 -10.69949636 95.20461538 -17.8293457 91.34057617 C-17.92209453 80.75280376 -17.99313558 70.16512827 -18.03659439 59.57703209 C-18.05745428 54.66033944 -18.08574277 49.74392508 -18.13110352 44.82739258 C-18.17461822 40.08115535 -18.19849484 35.33518553 -18.20885468 30.58876419 C-18.21623595 28.77947405 -18.23064997 26.97019826 -18.25226593 25.16102219 C-18.28137508 22.6233858 -18.28529863 20.0868492 -18.28344727 17.54907227 C-18.29782837 16.80388336 -18.31220947 16.05869446 -18.32702637 15.29092407 C-18.28658369 10.15559235 -17.15512004 7.23471729 -13.8293457 3.34057617 C-9.51736691 -0.2957169 -5.37650787 -0.07041135 0 0 Z " fill="#FDFEFE" transform="translate(870.829345703125,110.659423828125)"/>
<path d="M0 0 C12.21 0 24.42 0 37 0 C36.01 2.97 35.02 5.94 34 9 C33.57780142 12.52541829 33.57780142 12.52541829 33.65942383 15.98852539 C33.65965042 17.28919449 33.65987701 18.58986359 33.66011047 19.9299469 C33.67542342 21.319187 33.69107129 22.70842344 33.70703125 24.09765625 C33.7126374 25.54210466 33.71690267 26.98655883 33.71989441 28.43101501 C33.73126318 32.20401188 33.76065987 35.97665364 33.79400635 39.74951172 C33.82488077 43.61095376 33.83843659 47.47245406 33.85351562 51.33398438 C33.88553878 58.88948353 33.93663639 66.44469171 34 74 C34.66 74 35.32 74 36 74 C36.26695175 73.39529373 36.5339035 72.79058746 36.8089447 72.16755676 C38.03700556 69.93265497 39.06721867 68.87271217 41.05688477 67.3190918 C41.67403351 66.82321564 42.29118225 66.32733948 42.92703247 65.81643677 C43.92414749 65.01591385 43.92414749 65.01591385 44.94140625 64.19921875 C63.17107099 49.39233633 63.17107099 49.39233633 71.2734375 28.2734375 C71.90567009 18.79753955 71.10155314 9.41012882 70 0 C80.89 0 91.78 0 103 0 C102.01 2.31 101.02 4.62 100 7 C99.70488813 9.33570798 99.70488813 9.33570798 99.98022461 11.51293945 C100.04330307 12.33025543 100.10638153 13.14757141 100.17137146 13.98965454 C100.28570274 15.28834976 100.28570274 15.28834976 100.40234375 16.61328125 C102.32829485 49.94959129 102.32829485 49.94959129 93.19140625 60.6796875 C87.88817161 66.46135374 81.81661874 71.48598236 75.484375 76.1003418 C72.93705612 77.76016162 72.93705612 77.76016162 72 80 C72.59006836 80.27239502 73.18013672 80.54479004 73.78808594 80.82543945 C75.94780407 81.97228315 77.56017917 83.18271696 79.390625 84.79296875 C80.33228516 85.61571289 80.33228516 85.61571289 81.29296875 86.45507812 C81.93878906 87.02677734 82.58460938 87.59847656 83.25 88.1875 C83.88035156 88.73986328 84.51070312 89.29222656 85.16015625 89.86132812 C86.41723446 90.96351177 87.66342265 92.07826946 88.89710999 93.20657349 C90.92293639 95.02425505 90.92293639 95.02425505 93.10154724 96.3086853 C96.87529212 98.86022527 98.73591762 100.78131148 99.71798706 105.31336975 C99.97392654 109.54100285 99.97736154 113.70219055 99.89453125 117.93359375 C99.89443249 119.49626621 99.89829809 121.05894346 99.90592957 122.62159729 C99.91734165 126.72414019 99.88380664 130.82498845 99.8380127 134.92724609 C99.7713376 141.48756507 99.76896651 148.04803917 99.77469444 154.60862923 C99.76963056 156.88887593 99.74280805 159.16806651 99.71284485 161.44810486 C99.65995312 168.57532608 99.79059108 174.52791178 103 181 C98.62476975 180.86061293 94.24988322 180.71235541 89.875 180.5625 C88.6375 180.52318359 87.4 180.48386719 86.125 180.44335938 C84.92617188 180.40146484 83.72734375 180.35957031 82.4921875 180.31640625 C80.84259033 180.26141968 80.84259033 180.26141968 79.15966797 180.20532227 C76.04725518 180.00307075 73.07034076 179.533723 70 179 C70.01856049 178.23737854 70.03712097 177.47475708 70.0562439 176.68902588 C70.21971506 169.45174226 70.31427764 162.21819421 70.33421898 154.97920609 C70.34682628 151.25830422 70.38472927 147.54147106 70.48339844 143.82177734 C71.72959685 126.66605274 71.72959685 126.66605274 65.96582031 111.41210938 C62.64239779 108.21401416 59.09783456 106.08747908 55 104 C53.3307805 103.00426708 51.66298271 102.00611445 50 101 C43.00011446 105.89780564 35.53700473 111.62242584 33.10650635 120.12609863 C31.90273655 128.60676121 32.40131908 137.09966743 32.8125 145.625 C32.86714685 148.19907743 32.91472641 150.77331505 32.95507812 153.34765625 C33.06436507 158.04449312 33.17981822 162.73932405 33.40551758 167.43212891 C33.46791374 168.83200546 33.46791374 168.83200546 33.53157043 170.26016235 C33.98123752 173.68768602 33.98123752 173.68768602 37 179 C24.79 179 12.58 179 0 179 C0.99 176.03 1.98 173.06 3 170 C3.43582694 166.43042693 3.43582694 166.43042693 3.3742218 162.89059448 C3.37819621 162.23447524 3.38217061 161.578356 3.38626546 160.90235436 C3.39577969 158.73529114 3.38413794 156.56889883 3.37231445 154.40185547 C3.37474598 152.83554849 3.3784688 151.26924307 3.38337708 149.70294189 C3.39273875 145.471651 3.38340143 141.24059333 3.37004495 137.00932074 C3.35868313 132.57100254 3.3628415 128.13269503 3.36479187 123.69436646 C3.36567317 116.24493626 3.35462731 108.79559736 3.33618164 101.34619141 C3.31500101 92.74318145 3.31150844 84.140305 3.3177436 75.53727424 C3.32344441 67.24577 3.31778413 58.95431259 3.30657005 50.66281509 C3.30193516 47.14065812 3.30104538 43.61852989 3.3031559 40.0963707 C3.30504399 35.94797319 3.29689493 31.79971096 3.2810955 27.6513443 C3.27686525 26.13202855 3.2759936 24.61269905 3.27878571 23.09337997 C3.28202659 21.01391924 3.27287854 18.93485792 3.26069641 16.85543823 C3.25761711 15.11280858 3.25761711 15.11280858 3.25447559 13.33497429 C2.89570058 8.63312673 1.48337871 4.45013613 0 0 Z " fill="#FEFEFE" transform="translate(505,111)"/>
<path d="M0 0 C30.36 0 60.72 0 92 0 C92 10.89 92 21.78 92 33 C89.69 32.34 87.38 31.68 85 31 C82.23978211 30.68362545 82.23978211 30.68362545 79.52368164 30.68115234 C78.50315201 30.66128265 77.48262238 30.64141296 76.4311676 30.62094116 C74.81201698 30.60361435 74.81201698 30.60361435 73.16015625 30.5859375 C72.03806259 30.56657135 70.91596893 30.5472052 69.75987244 30.5272522 C66.1941577 30.46771984 62.62841022 30.42117622 59.0625 30.375 C56.63735612 30.33679601 54.21222545 30.29774288 51.78710938 30.2578125 C45.8581437 30.16045008 39.92931005 30.08067089 34 30 C34 44.85 34 59.7 34 75 C44.23 75 54.46 75 65 75 C64.34 78.96 63.68 82.92 63 87 C62.7374285 90.10131619 62.51052018 93.14780826 62.375 96.25 C62.189375 100.08625 62.189375 100.08625 62 104 C52.76 104.33 43.52 104.66 34 105 C34 121.17 34 137.34 34 154 C49.64648502 155.27078051 64.9468163 156.23158273 80.6418457 156.01367188 C82.24612427 155.99336914 82.24612427 155.99336914 83.8828125 155.97265625 C84.82527832 155.95468994 85.76774414 155.93672363 86.73876953 155.91821289 C89 156 89 156 91 157 C91 167.23 91 177.46 91 188 C88.4528125 187.81824219 85.905625 187.63648438 83.28125 187.44921875 C55.52996808 185.47981342 27.76908452 183.69858755 0 182 C0.73071433 180.48940254 0.73071433 180.48940254 1.47619057 178.94828796 C3.08704834 175.16967779 3.37713023 171.95976695 3.38095093 167.82739258 C3.3856309 167.14031377 3.39031087 166.45323496 3.39513266 165.74533558 C3.40702187 163.46153305 3.39764979 161.17833738 3.38818359 158.89453125 C3.39225201 157.24970146 3.39759541 155.6048744 3.40411377 153.96005249 C3.41776105 149.50552512 3.41249944 145.05120678 3.40297651 140.59667587 C3.3953665 135.92878416 3.40242925 131.26091001 3.40713501 126.59301758 C3.41258865 118.75501298 3.40541122 110.91709326 3.39111328 103.07910156 C3.37478752 94.02508015 3.38007631 84.97126142 3.3965925 75.91724491 C3.41021852 68.13530019 3.41212157 60.35341639 3.40427649 52.57146358 C3.39960611 47.92729814 3.39895764 43.28322788 3.40888596 38.6390686 C3.41756958 34.27233037 3.41150827 29.90585277 3.39420319 25.53914261 C3.39024579 23.93919939 3.39135958 22.33923414 3.39799118 20.73929977 C3.4062267 18.55010898 3.39586204 16.36174592 3.38095093 14.17260742 C3.37981985 12.94926193 3.37868877 11.72591644 3.37752342 10.46549988 C3.09140645 6.27219337 3.09140645 6.27219337 0 0 Z " fill="#FCFDFE" transform="translate(623,111)"/>
<path d="M0 0 C12.21 0 24.42 0 37 0 C36.01 2.31 35.02 4.62 34 7 C33.55075963 10.28463906 33.55075963 10.28463906 33.60127258 13.68821716 C33.58873444 14.99361954 33.57619629 16.29902191 33.5632782 17.64398193 C33.56445201 19.07312037 33.56591106 20.5022586 33.56762695 21.93139648 C33.5586023 23.44965916 33.54827335 24.96791456 33.53674316 26.48616028 C33.50922949 30.59307221 33.49989634 34.69984567 33.49388909 38.8068378 C33.48449072 43.10435872 33.45828616 47.40177681 33.43388367 51.69923401 C33.39025518 59.83048653 33.36168581 67.96171906 33.33856028 76.09305292 C33.31148902 85.35307418 33.26757871 94.6129918 33.22227156 103.87293899 C33.12947759 122.91523791 33.05777284 141.95756424 33 161 C38.94140059 160.4739345 44.88209293 159.94063314 50.82226562 159.40087891 C52.83934323 159.21859342 54.8565946 159.03821949 56.87402344 158.85986328 C59.78889989 158.60182031 62.70306342 158.33670265 65.6171875 158.0703125 C66.95062698 157.95455368 66.95062698 157.95455368 68.31100464 157.8364563 C75.69240592 157.15050772 82.81137312 155.79715672 90 154 C90 164.56 90 175.12 90 186 C82.32556641 186.74056641 82.32556641 186.74056641 74.49609375 187.49609375 C71.2467276 187.81037133 67.99737111 188.12474313 64.74804688 188.43945312 C59.59538447 188.93849999 54.4426907 189.43720571 49.28979492 189.93383789 C45.1334755 190.33444289 40.97731016 190.73661279 36.82124519 191.13984871 C35.23895674 191.29309401 33.65661441 191.44578406 32.07421684 191.59789848 C29.85068178 191.81174245 27.62734991 192.02759512 25.40405273 192.24389648 C24.14052475 192.36603012 22.87699677 192.48816376 21.57518005 192.61399841 C19.12173659 192.87888943 16.67302261 193.19049514 14.23036194 193.54115295 C11.12065812 193.98286148 8.19927895 194.10122567 5.0625 194.0625 C4.10472656 194.05347656 3.14695313 194.04445313 2.16015625 194.03515625 C1.09087891 194.01775391 1.09087891 194.01775391 0 194 C0.73098152 192.54116394 0.73098152 192.54116394 1.47673035 191.05285645 C4.06082937 184.08770598 3.40870131 176.47733009 3.37231445 169.15429688 C3.37474486 167.44197875 3.3784666 165.72966205 3.38337708 164.01734924 C3.39275555 159.38305979 3.38338626 154.74898268 3.37004495 150.11470985 C3.35869816 145.2564454 3.36284045 140.3981909 3.36479187 135.53991699 C3.36567383 127.38253323 3.35461505 119.22523274 3.33618164 111.06787109 C3.31501556 101.64749957 3.31150476 92.22724998 3.3177436 82.80685949 C3.3234457 73.73101034 3.31778161 64.65520395 3.30657005 55.57936096 C3.30193528 51.72310085 3.30104535 47.86686699 3.3031559 44.01060486 C3.30504475 39.46660839 3.29688906 34.92273535 3.2810955 30.37876701 C3.2768667 28.7147415 3.27599262 27.05070343 3.27878571 25.38667488 C3.2820288 23.10827612 3.27287275 20.83024125 3.26069641 18.55187988 C3.25864354 17.2791346 3.25659067 16.00638931 3.25447559 14.69507599 C2.89908556 9.53468651 1.63720054 4.91160162 0 0 Z " fill="#FEFEFE" transform="translate(235,111)"/>
<path d="M0 0 C12.21 0 24.42 0 37 0 C36.01 3.3 35.02 6.6 34 10 C33.55951402 13.40763725 33.55951402 13.40763725 33.60127258 16.63137817 C33.58873444 17.84834885 33.57619629 19.06531952 33.5632782 20.31916809 C33.56471329 21.62037094 33.56614838 22.92157379 33.56762695 24.26220703 C33.55859265 25.67253976 33.54826139 27.08286469 33.53674316 28.49317932 C33.5093425 32.29207399 33.49991191 36.09081898 33.49388909 39.88979959 C33.48446096 43.87099966 33.45825424 47.85208985 33.43388367 51.83322144 C33.39033646 59.35875949 33.36171737 66.88427608 33.33856028 74.4099015 C33.31144519 82.98318992 33.26753776 91.55636717 33.22227156 100.12957597 C33.12959415 117.75299182 33.05783632 135.37643708 33 153 C39.81458025 152.64518168 46.62788563 152.27075286 53.44067383 151.88305664 C55.75553308 151.75360036 58.07064253 151.62853648 60.38598633 151.50805664 C63.7255371 151.33350064 67.06385133 151.14285359 70.40234375 150.94921875 C71.42770737 150.89908127 72.45307098 150.84894379 73.50950623 150.79728699 C74.48984329 150.73745132 75.47018036 150.67761566 76.48022461 150.6159668 C77.33071884 150.56933395 78.18121307 150.52270111 79.05747986 150.47465515 C83.15047916 149.81441729 87.06684585 148.31105138 91 147 C91 157.89 91 168.78 91 180 C73.75321199 180.9982637 73.75321199 180.9982637 66.28515625 181.421875 C61.22980677 181.70865853 56.17453166 181.99644953 51.11962891 182.29101562 C47.03496754 182.52897043 42.95003903 182.76176055 38.86489487 182.99127197 C37.32224296 183.07879365 35.77968772 183.16804049 34.23724747 183.25921631 C23.14658546 183.91315831 12.10936727 184.10287302 1 184 C1.32462314 183.32018476 1.64924627 182.64036951 1.98370647 181.9399538 C3.18851327 178.45466511 3.2546201 175.64882918 3.26069641 171.96073914 C3.26452196 171.26382408 3.26834751 170.56690903 3.27228898 169.84887534 C3.28258563 167.51985976 3.27863321 165.19109224 3.2746582 162.86206055 C3.27900659 161.18959323 3.28419017 159.5171279 3.29014587 157.84466553 C3.30353517 153.30529057 3.30411449 148.76599889 3.30158257 144.22660804 C3.30051256 140.43449351 3.30539714 136.6423958 3.310188 132.85028487 C3.32128349 123.90123505 3.32172071 114.9522272 3.31567383 106.00317383 C3.3096366 96.77881252 3.32193859 87.55460383 3.3432439 78.33026856 C3.36087441 70.40483304 3.36685886 62.47944602 3.36360615 54.55399162 C3.36179507 49.82312452 3.36441186 45.09236625 3.37832069 40.36151695 C3.39091758 35.91027814 3.38893735 31.45927665 3.37590981 27.00804138 C3.37354832 25.37787609 3.37626335 23.74769401 3.38453293 22.11754799 C3.39503908 19.88482984 3.38686958 17.65290232 3.3742218 15.42021179 C3.37438954 14.17306743 3.37455729 12.92592306 3.37473011 11.64098644 C3.06841017 7.15467687 3.06841017 7.15467687 0 0 Z " fill="#FEFEFE" transform="translate(343,111)"/>
<path d="M0 0 C12.21 0 24.42 0 37 0 C36.01 2.97 35.02 5.94 34 9 C33.5592955 12.9016776 33.5592955 12.9016776 33.61904907 16.86195374 C33.6143691 17.59903846 33.60968913 18.33612318 33.60486734 19.0955438 C33.59301282 21.53662298 33.60233648 23.97713073 33.61181641 26.41821289 C33.60774648 28.17994003 33.60240224 29.94166461 33.59588623 31.7033844 C33.58225791 36.46776363 33.58749244 41.23194707 33.59702349 45.99632955 C33.60464217 50.99205997 33.59756846 55.98777413 33.59286499 60.98350525 C33.58741437 69.37030026 33.59458137 77.75701588 33.60888672 86.14379883 C33.6252172 95.82949495 33.61991902 105.51500164 33.6034075 115.20069319 C33.58977922 123.52960962 33.58787938 131.85846914 33.59572351 140.18739313 C33.60039195 145.15628726 33.60104757 150.12509243 33.59111404 155.09398079 C33.58242694 159.76525016 33.58849812 164.436276 33.60579681 169.10751915 C33.60975211 170.81831076 33.60864404 172.52912299 33.60200882 174.23990631 C33.59376521 176.58188773 33.6041479 178.92309717 33.61904907 181.26502991 C33.62018015 182.57334809 33.62131123 183.88166628 33.62247658 185.22963047 C34.06558822 189.65503699 35.28407745 192.91234884 37 197 C32.69563028 197.57462915 28.39062019 198.14411877 24.08496094 198.70898438 C22.62221207 198.90160442 21.15964295 199.0955948 19.69726562 199.29101562 C17.58770489 199.5726736 15.47753357 199.84929557 13.3671875 200.125 C12.09987793 200.29257812 10.83256836 200.46015625 9.52685547 200.6328125 C6.31692944 200.96700388 3.22362753 201.06941863 0 201 C0.73049057 199.31607399 0.73049057 199.31607399 1.47573853 197.59812927 C3.94656981 190.11203535 3.41815468 182.22089764 3.38818359 174.42993164 C3.39225349 172.65174539 3.39759772 170.87356166 3.40411377 169.09538269 C3.4177444 164.2854167 3.41250606 159.47564461 3.40297651 154.6656754 C3.39535665 149.62016498 3.40243209 144.57467065 3.40713501 139.52915955 C3.41258629 131.05660029 3.40541793 122.58411959 3.39111328 114.11157227 C3.37479327 104.3327584 3.38007312 94.55413228 3.3965925 84.77532297 C3.41023154 76.36314896 3.41211506 67.95103128 3.40427649 59.53884977 C3.39961258 54.52182563 3.39893963 49.50488956 3.40888596 44.48787117 C3.41758839 39.76899166 3.41147411 35.05035277 3.39420319 30.3314991 C3.39025557 28.60542194 3.39134264 26.87932433 3.39799118 25.15325546 C3.40626583 22.7857044 3.39581522 20.4189105 3.38095093 18.05140686 C3.38764309 17.37852176 3.39433526 16.70563666 3.40123022 16.01236111 C3.32792958 9.93769273 1.89467792 6.31559306 0 0 Z " fill="#FEFEFE" transform="translate(182,111)"/>
<path d="M0 0 C11.88 0 23.76 0 36 0 C35.01 2.97 34.02 5.94 33 9 C32.56132976 12.60598642 32.56132976 12.60598642 32.61904907 16.19206238 C32.6143691 16.85705429 32.60968913 17.5220462 32.60486734 18.20718938 C32.59303547 20.40420691 32.60232702 22.60058685 32.61181641 24.79760742 C32.60774554 26.38524231 32.60240077 27.97287436 32.59588623 29.5605011 C32.58227139 33.84956181 32.58748614 38.13840476 32.59702349 42.42746902 C32.60464645 46.92498447 32.59756754 51.42248194 32.59286499 55.91999817 C32.58741679 63.46777681 32.59457623 71.0154672 32.60888672 78.56323242 C32.6252292 87.28331215 32.6199094 96.00318161 32.6034075 104.72325629 C32.58978713 112.22157691 32.58787513 119.71983431 32.59572351 127.21816331 C32.60039471 131.69179978 32.60103973 136.16533743 32.59111404 140.63896751 C32.582438 144.84239858 32.58847784 149.04555865 32.60579681 153.24896049 C32.60975749 154.78966065 32.60863477 156.33038368 32.60200882 157.87107468 C32.59378674 159.97731872 32.60412142 162.08269923 32.61904907 164.18888855 C32.62018015 165.36631213 32.62131123 166.54373571 32.62247658 167.7568388 C33.04797914 171.4121707 34.18804018 173.82130166 36 177 C36.33 177.66 36.66 178.32 37 179 C24.79 179 12.58 179 0 179 C0.66 177.35 1.32 175.7 2 174 C2.29951981 170.71865368 2.29951981 170.71865368 2.25396729 167.10586548 C2.25708727 166.42457907 2.26020725 165.74329266 2.26342177 165.04136121 C2.27138 162.76527832 2.26508667 160.48946365 2.25878906 158.21337891 C2.26149994 156.57869816 2.26506142 154.94401864 2.26940918 153.30934143 C2.27852533 148.87332809 2.27499173 144.43740781 2.26865101 140.00139284 C2.26358531 135.35618115 2.26828421 130.71097739 2.27142334 126.06576538 C2.27506204 118.26290457 2.27026715 110.46008162 2.26074219 102.65722656 C2.24986545 93.64304777 2.25337793 84.62895951 2.264395 75.61478293 C2.27347969 67.87110452 2.27474713 60.12745332 2.26951766 52.3837713 C2.26640349 47.76083352 2.26597328 43.13793824 2.27259064 38.5150032 C2.27838038 34.16640183 2.2743374 29.81791677 2.26280212 25.46932793 C2.26016392 23.8758342 2.26090626 22.28233064 2.26532745 20.68884087 C2.27081784 18.50846363 2.26390679 16.32845572 2.25396729 14.14810181 C2.25321323 12.92953302 2.25245918 11.71096424 2.25168228 10.45546913 C2.07049208 6.34507369 2.07049208 6.34507369 0 0 Z " fill="#FEFEFE" transform="translate(452,111)"/>
<path d="M0 0 C1.18998121 0.8716226 2.37681214 1.74754599 3.5625 2.625 C4.22378906 3.11226562 4.88507813 3.59953125 5.56640625 4.1015625 C6.77103516 5.04128906 6.77103516 5.04128906 8 6 C8.57540024 6.34833389 9.15080048 6.69666779 9.74363708 7.05555725 C12.90637911 9.22236274 14.72894872 10.84410401 15.62306213 14.65704346 C15.82720594 17.98574884 15.81283919 21.24831293 15.71875 24.58203125 C15.71121704 25.79195236 15.70368408 27.00187347 15.69592285 28.24845886 C15.66343037 32.10431173 15.5817113 35.95740875 15.5 39.8125 C15.47345799 42.42640261 15.44998501 45.04033832 15.4296875 47.65429688 C15.37936653 52.41422569 15.32368386 57.17367488 15.22460938 61.93286133 C15.20571655 62.88961258 15.18682373 63.84636383 15.1673584 64.83210754 C15 67 15 67 14 68 C9.99246253 68.72300177 5.95398911 69.23750524 1.91894531 69.78442383 C-0.09668328 70.05864755 -2.11082302 70.34228739 -4.125 70.62695312 C-5.40632813 70.80291016 -6.68765625 70.97886719 -8.0078125 71.16015625 C-9.17973145 71.32136963 -10.35165039 71.48258301 -11.55908203 71.64868164 C-15.06441708 72.006577 -18.47902762 72.06033868 -22 72 C-22.20894284 64.41162142 -22.36864785 56.82354237 -22.46630955 49.23293877 C-22.51319712 45.70764136 -22.57672687 42.18431753 -22.67895508 38.66015625 C-22.79587334 34.6039796 -22.83919104 30.5498599 -22.87890625 26.4921875 C-22.92535782 25.23260223 -22.97180939 23.97301697 -23.01966858 22.67526245 C-23.02459974 14.10987182 -23.02459974 14.10987182 -20.06736755 10.90652466 C-17.76761008 9.34989634 -15.5252642 8.1465688 -13 7 C-11.75518635 6.30122304 -10.51391581 5.59607249 -9.27734375 4.8828125 C-8.17519531 4.30273438 -7.07304688 3.72265625 -5.9375 3.125 C-4.81214844 2.52945313 -3.68679687 1.93390625 -2.52734375 1.3203125 C-1.69332031 0.88460937 -0.85929687 0.44890625 0 0 Z " fill="#003DA5" transform="translate(120,223)"/>
<path d="M0 0 C12.54 0 25.08 0 38 0 C38 14.85 38 29.7 38 45 C25.5625 51.1875 25.5625 51.1875 21.69750977 53.10620117 C15.93831029 55.97884047 10.2466618 58.90076288 4.68725586 62.14575195 C3 63 3 63 1 63 C0.67 42.21 0.34 21.42 0 0 Z " fill="#003DA5" transform="translate(97,140)"/>
<path d="M0 0 C11.22 0 22.44 0 34 0 C34 16.83 34 33.66 34 51 C22.78 51 11.56 51 0 51 C0 34.17 0 17.34 0 0 Z " fill="#FFFFFF" transform="translate(572,29)"/>
<path d="M0 0 C4.80548597 -0.04936883 9.61082494 -0.08570443 14.41650391 -0.10986328 C16.05194672 -0.11993254 17.68737149 -0.13358881 19.32275391 -0.15087891 C21.6709437 -0.17508705 24.01889588 -0.18647357 26.3671875 -0.1953125 C27.10057343 -0.20563507 27.83395935 -0.21595764 28.58956909 -0.22659302 C30.39462697 -0.22699368 32.1990783 -0.12212755 34 0 C36.48927108 2.48927108 36.26596375 3.2876435 36.31884766 6.72509766 C36.33871735 7.70596344 36.35858704 8.68682922 36.37905884 9.69741821 C36.39061005 10.75891083 36.40216125 11.82040344 36.4140625 12.9140625 C36.43342865 13.99883881 36.4527948 15.08361511 36.4727478 16.20126343 C36.53266426 19.67576159 36.57897739 23.15029267 36.625 26.625 C36.66316865 28.97657718 36.70221971 31.32814021 36.7421875 33.6796875 C36.83837577 39.4530105 36.9223622 45.22639894 37 51 C32.71 51 28.42 51 24 51 C24.33 44.07 24.66 37.14 25 30 C21.04 31.98 17.08 33.96 13 36 C13 41.28 13 46.56 13 52 C8.38 52 3.76 52 -1 52 C-0.67 50.68 -0.34 49.36 0 48 C0.08449436 46.38164515 0.11779 44.7602019 0.11352539 43.13964844 C0.11344986 42.17895447 0.11337433 41.2182605 0.11329651 40.22845459 C0.10813522 39.19915833 0.10297394 38.16986206 0.09765625 37.109375 C0.0962413 36.04962463 0.09482635 34.98987427 0.09336853 33.89801025 C0.08777382 30.51531138 0.07522225 27.13267885 0.0625 23.75 C0.05748432 21.45573012 0.05292153 19.16145921 0.04882812 16.8671875 C0.03780611 11.24476906 0.02107321 5.62238927 0 0 Z " fill="#FBFCFD" transform="translate(340,29)"/>
<path d="M0 0 C1.92568148 -0.06916843 3.85207849 -0.11861575 5.77856445 -0.15966797 C6.85121048 -0.18930634 7.92385651 -0.2189447 9.02900696 -0.2494812 C12.90515878 0.07600829 14.46036599 1.28266775 16.91601562 4.16796875 C17.54540039 5.01294922 17.54540039 5.01294922 18.1875 5.875 C18.64962891 6.43058594 19.11175781 6.98617187 19.58789062 7.55859375 C21.27610626 9.61618402 22.80708072 11.61416145 24 14 C24.33 9.38 24.66 4.76 25 0 C28.96 0 32.92 0 37 0 C37 16.83 37 33.66 37 51 C33.04 51 29.08 51 25 51 C25.04833984 49.11667969 25.04833984 49.11667969 25.09765625 47.1953125 C25.2837107 35.65784362 25.2837107 35.65784362 19.5625 26 C18.05830973 24.64791885 16.5400147 23.31113178 15 22 C14.34 21.01 13.68 20.02 13 19 C12.67 29.89 12.34 40.78 12 52 C8.37 52 4.74 52 1 52 C0 51 0 51 -0.12025452 48.94358826 C-0.11803391 48.03979935 -0.11581329 47.13601044 -0.11352539 46.20483398 C-0.11344986 45.18385117 -0.11337433 44.16286835 -0.11329651 43.11094666 C-0.10813522 42.0005452 -0.10297394 40.89014374 -0.09765625 39.74609375 C-0.0962413 38.61551041 -0.09482635 37.48492706 -0.09336853 36.32008362 C-0.08775019 32.69252935 -0.07519458 29.06503576 -0.0625 25.4375 C-0.05748736 22.98502693 -0.05292405 20.5325529 -0.04882812 18.08007812 C-0.0377748 12.05336455 -0.02101884 6.02668661 0 0 Z " fill="#F7F9FC" transform="translate(409,29)"/>
<path d="M0 0 C1.38594529 0.00031696 2.77191535 0.01163319 4.15771484 0.03173828 C4.88735443 0.03456818 5.61699402 0.03739807 6.3687439 0.04031372 C8.70221262 0.05152076 11.03529937 0.07662568 13.36865234 0.10205078 C14.94937597 0.11207993 16.53010561 0.1212059 18.11083984 0.12939453 C21.98871004 0.1497615 25.86575297 0.18890751 29.74365234 0.22705078 C29.74365234 5.17705078 29.74365234 10.12705078 29.74365234 15.22705078 C26.11365234 15.22705078 22.48365234 15.22705078 18.74365234 15.22705078 C18.74365234 13.90705078 18.74365234 12.58705078 18.74365234 11.22705078 C14.45365234 11.22705078 10.16365234 11.22705078 5.74365234 11.22705078 C6.27723972 15.27995774 6.27723972 15.27995774 8.96850586 16.69091797 C10.40601196 17.35075684 10.40601196 17.35075684 11.87255859 18.02392578 C13.42426758 18.74902344 13.42426758 18.74902344 15.00732422 19.48876953 C16.0959375 19.97990234 17.18455078 20.47103516 18.30615234 20.97705078 C19.39863281 21.48365234 20.49111328 21.99025391 21.61669922 22.51220703 C24.3200052 23.76351897 27.02879721 25.00104839 29.74365234 26.22705078 C29.77252218 30.20620237 29.79040641 34.18532731 29.80615234 38.16455078 C29.81453125 39.30085938 29.82291016 40.43716797 29.83154297 41.60791016 C29.83476563 42.6875 29.83798828 43.76708984 29.84130859 44.87939453 C29.84654541 45.87962646 29.85178223 46.8798584 29.85717773 47.91040039 C29.74365234 50.22705078 29.74365234 50.22705078 28.74365234 51.22705078 C26.39136916 51.34022362 24.06953286 51.39121615 21.71630859 51.39501953 C20.66013588 51.40001213 20.66013588 51.40001213 19.58262634 51.40510559 C18.09049128 51.41017733 16.59834484 51.41251384 15.10620117 51.41235352 C12.81914627 51.41453837 10.53257482 51.43268627 8.24560547 51.45166016 C6.7983415 51.45459432 5.35107523 51.45657896 3.90380859 51.45751953 C3.21730728 51.46470505 2.53080597 51.47189056 1.82350159 51.47929382 C-3.02752397 51.45587447 -3.02752397 51.45587447 -5.25634766 49.22705078 C-5.45166016 46.18798828 -5.45166016 46.18798828 -5.38134766 42.60205078 C-5.36330078 41.41353516 -5.34525391 40.22501953 -5.32666016 39.00048828 C-5.30345703 38.08525391 -5.28025391 37.17001953 -5.25634766 36.22705078 C-1.62634766 36.22705078 2.00365234 36.22705078 5.74365234 36.22705078 C5.74365234 37.54705078 5.74365234 38.86705078 5.74365234 40.22705078 C10.03365234 40.22705078 14.32365234 40.22705078 18.74365234 40.22705078 C18.47422292 34.38107576 18.47422292 34.38107576 15.51879883 32.53613281 C14.56046143 32.10671387 13.60212402 31.67729492 12.61474609 31.23486328 C11.58027344 30.75791016 10.54580078 30.28095703 9.47998047 29.78955078 C8.39136719 29.31517578 7.30275391 28.84080078 6.18115234 28.35205078 C5.08867188 27.85447266 3.99619141 27.35689453 2.87060547 26.84423828 C0.17013669 25.61782451 -2.53810253 24.41341292 -5.25634766 23.22705078 C-5.31423772 19.76878736 -5.34990586 16.31064785 -5.38134766 12.85205078 C-5.39810547 11.86720703 -5.41486328 10.88236328 -5.43212891 9.86767578 C-5.43857422 8.92666016 -5.44501953 7.98564453 -5.45166016 7.01611328 C-5.46213379 6.14680176 -5.47260742 5.27749023 -5.48339844 4.38183594 C-5.08256795 0.57782528 -3.63012817 0.25311285 0 0 Z " fill="#FBFCFD" transform="translate(693.25634765625,28.77294921875)"/>
<path d="M0 0 C4.6633307 -0.04586883 9.3258814 -0.08570572 13.98925781 -0.10986328 C15.57619883 -0.11993188 17.16312125 -0.13358767 18.75 -0.15087891 C21.02869247 -0.17509001 23.30714006 -0.18647422 25.5859375 -0.1953125 C26.29744965 -0.20563507 27.00896179 -0.21595764 27.74203491 -0.22659302 C29.49631665 -0.22699422 31.24996709 -0.12202209 33 0 C35 2 35 2 35.1953125 5.0390625 C35.17210937 6.22242188 35.14890625 7.40578125 35.125 8.625 C35.10695313 9.81351563 35.08890625 11.00203125 35.0703125 12.2265625 C35.04710937 13.14179687 35.02390625 14.05703125 35 15 C31.37 15 27.74 15 24 15 C24 13.68 24 12.36 24 11 C19.71 11 15.42 11 11 11 C11.53358738 15.05290696 11.53358738 15.05290696 14.22485352 16.46386719 C15.66235962 17.12370605 15.66235962 17.12370605 17.12890625 17.796875 C18.68061523 18.52197266 18.68061523 18.52197266 20.26367188 19.26171875 C21.35228516 19.75285156 22.44089844 20.24398437 23.5625 20.75 C24.65498047 21.25660156 25.74746094 21.76320313 26.87304688 22.28515625 C29.57635286 23.53646819 32.28514486 24.77399761 35 26 C35.05786668 29.79160297 35.09355054 33.58309311 35.125 37.375 C35.14175781 38.45523438 35.15851563 39.53546875 35.17578125 40.6484375 C35.18544922 42.1953125 35.18544922 42.1953125 35.1953125 43.7734375 C35.21102295 45.20308838 35.21102295 45.20308838 35.22705078 46.66162109 C35 49 35 49 33 51 C29.95898438 51.25878906 29.95898438 51.25878906 26.09375 51.265625 C25.07299377 51.26849518 25.07299377 51.26849518 24.03161621 51.27142334 C22.59252554 51.27278463 21.15342256 51.26909205 19.71435547 51.26074219 C17.50850913 51.25004128 15.30347719 51.26063872 13.09765625 51.2734375 C11.70051903 51.27211589 10.30338232 51.26955348 8.90625 51.265625 C7.63072266 51.26336914 6.35519531 51.26111328 5.04101562 51.25878906 C2 51 2 51 0 49 C-0.1953125 45.9609375 -0.1953125 45.9609375 -0.125 42.375 C-0.10695313 41.18648437 -0.08890625 39.99796875 -0.0703125 38.7734375 C-0.04710937 37.85820313 -0.02390625 36.94296875 0 36 C3.63 36 7.26 36 11 36 C11 37.65 11 39.3 11 41 C15.29 41 19.58 41 24 41 C24.21497054 37.97909822 24.30145249 36.6600157 23 34 C19.42170141 31.42846372 15.47587046 29.79118078 11.4375 28.0625 C10.34501953 27.56943359 9.25253906 27.07636719 8.12695312 26.56835938 C5.42870924 25.35473876 2.71564712 24.17416174 0 23 C0 15.41 0 7.82 0 0 Z " fill="#FCFDFE" transform="translate(294,29)"/>
<path d="M0 0 C3.96 0 7.92 0 12 0 C12 13.2 12 26.4 12 40 C16.29 40 20.58 40 25 40 C25 26.8 25 13.6 25 0 C28.3 0 31.6 0 35 0 C35 16.17 35 32.34 35 49 C23.45 49 11.9 49 0 49 C0 32.83 0 16.66 0 0 Z " fill="#FFFFFF" transform="translate(618,29)"/>
<path d="M0 0 C4.29 0 8.58 0 13 0 C13 13.2 13 26.4 13 40 C19.6 40 26.2 40 33 40 C33 43.63 33 47.26 33 51 C22.11 51 11.22 51 0 51 C0 34.17 0 17.34 0 0 Z " fill="#FFFFFF" transform="translate(527,29)"/>
<path d="M0 0 C12.21 0 24.42 0 37 0 C37 3.63 37 7.26 37 11 C33.04 11 29.08 11 25 11 C25.495 30.8 25.495 30.8 26 51 C21.71 51 17.42 51 13 51 C13.33 37.8 13.66 24.6 14 11 C9.71 11 5.42 11 1 11 C0.67 7.37 0.34 3.74 0 0 Z " fill="#FDFDFE" transform="translate(455,29)"/>
<path d="M0 0 C4.29 0 8.58 0 13 0 C13.33 17.16 13.66 34.32 14 52 C9.38 52 4.76 52 0 52 C0 34.84 0 17.68 0 0 Z " fill="#EDF1F8" transform="translate(386,29)"/>
<path d="M0 0 C3.96 0 7.92 0 12 0 C12 16.83 12 33.66 12 51 C8.04 51 4.08 51 0 51 C0 34.17 0 17.34 0 0 Z " fill="#FFFFFF" transform="translate(665,29)"/>
<path d="M0 0 C4.29 0 8.58 0 13 0 C13 9.9 13 19.8 13 30 C8.71 30 4.42 30 0 30 C0 20.1 0 10.2 0 0 Z " fill="#003DA5" transform="translate(583,40)"/>
<path d="M0 0 C4.29 0 8.58 0 13 0 C13 2.31 13 4.62 13 7 C11.39967863 7.84069415 9.79458829 8.67231505 8.1875 9.5 C7.29417969 9.9640625 6.40085937 10.428125 5.48046875 10.90625 C3 12 3 12 0 12 C0 8.04 0 4.08 0 0 Z " fill="#0440A6" transform="translate(352,40)"/>
</svg>
