<?xml version="1.0" encoding="UTF-8" standalone="no"?>
<svg xmlns:rdf="http://www.w3.org/1999/02/22-rdf-syntax-ns#" xmlns="http://www.w3.org/2000/svg" xml:space="preserve" height="220.61" viewBox="0 0 190.35875 220.61125" width="190.36" version="1.1" xmlns:cc="http://creativecommons.org/ns#" xmlns:dc="http://purl.org/dc/elements/1.1/"><g transform="matrix(1.25 0 0 -1.25 -407.58 305.59)"><g transform="translate(.64760 .64760)"><path d="m388 96.181-34.091-12.489-19.683 18.38v37.346l-8.168 13.522 16.612 6.342-9.417 5.07v44.201l11.592 21.594 34.235 12.729 21.755-16.443v-13.718l24.137 8.775 51.773 19.656-17.197-30.242 0.214-90.609 15.262-12.771-48.752-17.993v-0.243l-54.976-21.301 16.704 28.194z" fill="#a2aaad"/><path d="m66.654 10.457-36.27 13.484-12.254 22.828v48.871l22.521 12.125-27.811 10.215 6.5039 11.061v45.674l18.84 17.592 36.096-13.225 14.344-22.209v27.053l-12.916 21.803 43.66-16.916v-70.51l10.748-4.2051v70.357l42.938-15.85-11.816-9.8867-0.2793-118.76 12.145-21.354-43.268 16.492v44.889l-10.746 3.9062v-44.943l-31.518 11.455v-24.137l-20.918-15.814zm-9.5449 36.938v4.8965l-6.4609 16.697v-19.105l6.4609-2.4883zm25.346 12.693 6.1699 5.1309v16.539l-21.051-13.287-16.926 6.0449v-3.1387l31.807-11.289zm-21.836 43.305-3.2324 5.4785v42.93l-7.0137 2.3672 0.0039-41.176-0.0039-0.002v-5.7109l10.246-3.8867z" transform="matrix(.8 0 0 -.8 324.77 244.46)" fill="#fff"/><path d="m66.074 14.42-33.227 12.352-11.209 20.883v45.891l22.754 12.248 24.326-9.2227-7.8242 13.256v44.494l-14.033 4.7324v-49.83l-28.865 10.604 4.8594 8.2578v0.002 45.107l16.15 15.076 32.967-12.076 17.318-26.82v-63.045l-22.146-13.979-20.002 7.1445v-32.018l13.475-5.1934v10.66l-5.0098 12.953 27.557-9.7852 8.9688 7.4629v121.31l-8.2383 13.906 31.965-12.383v-70.5l17.766-6.9551v70.465l32.535-12.008-8.4277-7.0527-0.28125-121.33 7.7715-13.664-31.879 12.152v44.928l-17.764 6.4531v-44.939l-31.518 11.455v-27.4l-17.988-13.596z" transform="matrix(.8 0 0 -.8 324.77 244.46)" fill="#048"/></g></g></svg>
