<?xml version="1.0" encoding="UTF-8"?>
<svg version="1.1" xmlns="http://www.w3.org/2000/svg" width="589" height="242">
<path d="M0 0 C0.67289063 -0.0093457 1.34578125 -0.01869141 2.0390625 -0.02832031 C5.2975348 -0.00759617 8.02639617 0.27744527 11.14648438 1.24072266 C15.37540834 2.36658379 19.14710932 2.59743493 23.49609375 2.6640625 C24.1967395 2.68170654 24.89738525 2.69935059 25.6192627 2.7175293 C28.20428701 2.779981 30.7896746 2.82659039 33.375 2.875 C42.0684375 3.060625 42.0684375 3.060625 50.9375 3.25 C50.9375 16.45 50.9375 29.65 50.9375 43.25 C74.0375 43.25 97.1375 43.25 120.9375 43.25 C120.9375 54.14 120.9375 65.03 120.9375 76.25 C114.9975 76.25 109.0575 76.25 102.9375 76.25 C103.2675 91.76 103.5975 107.27 103.9375 123.25 C105.9175 120.28 107.8975 117.31 109.9375 114.25 C118.45461762 104.61261286 130.56388127 99.48669223 143.29223633 98.61572266 C159.31263315 97.7991114 175.16330775 99.56017994 187.9296875 110.27734375 C191.80614715 114.08592765 195.49542953 118.36585906 197.9375 123.25 C198.2675 115.99 198.5975 108.73 198.9375 101.25 C217.74822702 100.83234046 236.55763448 100.51161801 255.37205029 100.31738091 C264.10926352 100.224771 272.84353414 100.09866516 281.57885742 99.89208984 C289.19777158 99.71200242 296.81455474 99.5964019 304.43553811 99.55640709 C308.46784634 99.53304019 312.49406223 99.47866117 316.52440453 99.34685898 C340.97201864 98.57777634 340.97201864 98.57777634 347.54327774 103.00595856 C351.67449267 107.07213755 354.49523408 111.6553204 356.81700611 116.94439888 C358.23863615 119.86963733 360.13339767 122.5438465 361.9375 125.25 C362.2675 117.33 362.5975 109.41 362.9375 101.25 C390.3275 101.25 417.7175 101.25 445.9375 101.25 C446.2675 103.89 446.5975 106.53 446.9375 109.25 C447.5975 108.6725 448.2575 108.095 448.9375 107.5 C458.11513626 100.6167728 467.55422622 98.53438484 478.9375 99.25 C479.9275 99.58 480.9175 99.91 481.9375 100.25 C484.2930448 100.40179014 486.65225123 100.49899289 489.01171875 100.56640625 C490.26299561 100.60451416 491.51427246 100.64262207 492.8034668 100.68188477 C494.39457275 100.72498779 495.98567871 100.76809082 497.625 100.8125 C502.678125 100.956875 507.73125 101.10125 512.9375 101.25 C512.9375 115.77 512.9375 130.29 512.9375 145.25 C508.6475 145.58 504.3575 145.91 499.9375 146.25 C501.5875 147.24 503.2375 148.23 504.9375 149.25 C504.9375 149.91 504.9375 150.57 504.9375 151.25 C505.54335938 151.50136719 506.14921875 151.75273437 506.7734375 152.01171875 C511.5295502 154.73317674 514.33202653 161.16600068 515.9375 166.25 C518.37612882 176.97996681 517.17922424 188.54805539 511.3125 198 C505.35162943 206.08975292 498.55624785 211.30955377 488.9375 214.25 C488.30457031 214.44464844 487.67164063 214.63929688 487.01953125 214.83984375 C484.29900587 215.37578215 481.7088595 215.3819284 478.9375 215.375 C477.90625 215.37757813 476.875 215.38015625 475.8125 215.3828125 C472.9375 215.25 472.9375 215.25 471.23339844 214.76147461 C467.95233876 214.0305282 464.67492646 214.01336305 461.328125 213.93359375 C460.23791046 213.9024221 460.23791046 213.9024221 459.12567139 213.87062073 C456.81304009 213.80544488 454.50029907 213.7463896 452.1875 213.6875 C450.61587425 213.64428434 449.04425944 213.60066908 447.47265625 213.55664062 C443.62771547 213.44979644 439.78266476 213.34843976 435.9375 213.25 C435.91222998 206.71721214 435.89466708 200.18443679 435.88256836 193.65161133 C435.87752683 191.42732268 435.87069377 189.20303737 435.86206055 186.97875977 C435.84998702 183.78921691 435.84427004 180.59971771 435.83984375 177.41015625 C435.83468246 176.40912369 435.82952118 175.40809113 435.82420349 174.37672424 C435.82409019 172.99540565 435.82409019 172.99540565 435.82397461 171.58618164 C435.821754 170.77121719 435.81953339 169.95625275 435.81724548 169.11659241 C435.9375 167.25 435.9375 167.25 436.9375 166.25 C439.28737262 166.01472227 441.64306039 165.83613583 444 165.6875 C445.29035156 165.60371094 446.58070313 165.51992187 447.91015625 165.43359375 C448.90917969 165.37300781 449.90820312 165.31242188 450.9375 165.25 C450.41800781 164.84910156 449.89851563 164.44820312 449.36328125 164.03515625 C444.05560088 159.70856282 440.85269625 155.43077666 437.9375 149.25 C436.96683594 149.57742187 435.99617188 149.90484375 434.99609375 150.2421875 C430.63612679 151.48789235 426.50219677 151.47451066 422 151.375 C418.0090625 151.313125 418.0090625 151.313125 413.9375 151.25 C413.6075 145.64 413.2775 140.03 412.9375 134.25 C412.2775 134.25 411.6175 134.25 410.9375 134.25 C410.9375 160.32 410.9375 186.39 410.9375 213.25 C400.7075 213.25 390.4775 213.25 379.9375 213.25 C373.87206601 205.66820751 368.3768522 198.23904855 362.9375 190.25 C362.6075 197.84 362.2775 205.43 361.9375 213.25 C308.1475 213.25 254.3575 213.25 198.9375 213.25 C198.6075 205.99 198.2775 198.73 197.9375 191.25 C196.968125 192.57 195.99875 193.89 195 195.25 C186.5656546 205.99998732 176.59984112 212.91035106 162.9375 215.25 C144.42929819 216.77787525 129.22713327 214.85274329 113.8125 204.0625 C110.30948641 201.02066747 107.89713201 197.10507269 105.35546875 193.26171875 C104.88753906 192.59785156 104.41960937 191.93398437 103.9375 191.25 C103.6075 191.25 103.2775 191.25 102.9375 191.25 C102.77894531 192.14460937 102.62039062 193.03921875 102.45703125 193.9609375 C99.4952083 209.3100531 93.13084337 220.77938205 80.1015625 229.94140625 C66.63318756 238.08564019 51.2944357 240.64553738 35.78125 237.86328125 C21.30398837 234.21477782 8.40630959 224.71016431 0.5 212.125 C-1.89536231 208.07130994 -2.68943169 205.05573908 -4.0625 200.25 C-9.0125 200.25 -13.9625 200.25 -19.0625 200.25 C-19.0625 190.35 -19.0625 180.45 -19.0625 170.25 C-28.3025 170.25 -37.5425 170.25 -47.0625 170.25 C-47.08344515 162.32109685 -47.10348329 154.39229335 -47.11425018 146.46338654 C-47.11954002 142.77139609 -47.12661374 139.07942845 -47.13793945 135.38745117 C-47.14877162 131.83429169 -47.15477753 128.28115437 -47.15737724 124.72797966 C-47.1592309 123.36954334 -47.16285038 122.01110829 -47.16823006 120.65268135 C-47.17544475 118.75617777 -47.17590809 116.85965207 -47.17602539 114.96313477 C-47.178246 113.88169693 -47.18046661 112.80025909 -47.18275452 111.68605042 C-47.0625 109.25 -47.0625 109.25 -46.0625 108.25 C-43.33525721 108.14900512 -40.63387477 108.11029471 -37.90625 108.1171875 C-37.08878296 108.11623077 -36.27131592 108.11527405 -35.42907715 108.11428833 C-33.69734622 108.11360655 -31.96561276 108.11546071 -30.23388672 108.11962891 C-27.57383518 108.12497721 -24.9139525 108.11968388 -22.25390625 108.11328125 C-20.57552046 108.11394203 -18.89713477 108.1152232 -17.21875 108.1171875 C-16.41771851 108.11516327 -15.61668701 108.11313904 -14.79138184 108.11105347 C-9.17745079 108.13504921 -9.17745079 108.13504921 -8.0625 109.25 C-7.90334709 111.31014601 -7.78545071 113.37353854 -7.6875 115.4375 C-7.2594293 121.45024687 -6.48857996 125.5543556 -2.375 130.125 C1.03526895 131.78404976 4.26629019 131.92742562 7.9375 131.25 C10.7475346 129.45636089 12.44690468 128.23119065 13.9375 125.25 C14.50272674 120.23563136 14.84872588 115.80245891 12.25 111.375 C6.58420729 107.74034052 0.31040638 105.74736289 -6.03320312 103.57519531 C-22.88914682 97.77943194 -36.81806218 89.6636984 -45.0625 73.25 C-50.88073194 58.96476906 -50.6530438 43.9693883 -45.06640625 29.70703125 C-39.46316268 17.20152225 -28.6577504 7.44803985 -16.0625 2.25 C-10.69586281 0.33334386 -5.67401567 0.0544581 0 0 Z M-6.0625 44.25 C-7.92208967 47.96917934 -7.49131278 52.53474888 -6.5 56.5 C-1.15289672 63.00951704 9.12405286 64.72485145 16.78125 67.07421875 C33.02566298 72.24851781 44.03588202 79.92770024 52.30859375 94.78515625 C59.0317337 109.08593596 57.90277389 125.40202696 52.6875 139.9375 C50.14187845 146.15683195 47.32701654 152.75536486 41.77734375 156.83984375 C38.47565243 159.31465647 36.28518637 161.29389363 35.53662109 165.50537109 C34.69581689 175.79797434 34.75939489 186.82214598 40.5625 195.75 C44.95380061 198.52345301 49.79568035 198.66905167 54.8125 197.6875 C58.3743347 195.27802359 59.53814743 191.93179648 60.50810909 187.84698963 C60.9218195 185.34483687 61.0606762 183.04376723 61.05775452 180.51066589 C61.05912918 179.58664978 61.06050385 178.66263367 61.06192017 177.71061707 C61.05832489 176.70936295 61.05472961 175.70810883 61.05102539 174.67651367 C61.05117142 173.61264435 61.05131744 172.54877502 61.0514679 171.45266724 C61.050772 167.94108023 61.04299468 164.42954647 61.03515625 160.91796875 C61.03329092 158.48130828 61.03186756 156.04464743 61.03086853 153.60798645 C61.02705239 147.19811974 61.01722978 140.78827572 61.00616455 134.37841797 C60.99593104 127.83626614 60.99136675 121.29411065 60.98632812 114.75195312 C60.97560673 101.91795878 60.95854111 89.08398128 60.9375 76.25 C54.6675 76.25 48.3975 76.25 41.9375 76.25 C41.9375 70.64 41.9375 65.03 41.9375 59.25 C32.3675 59.25 22.7975 59.25 12.9375 59.25 C12.9375 55.62 12.9375 51.99 12.9375 48.25 C10.94781547 44.33924075 9.57216354 42.67310902 5.9375 40.25 C0.44485635 39.63970626 -2.1438844 40.3313844 -6.0625 44.25 Z M472.9375 133.25 C473.2675 134.57 473.5975 135.89 473.9375 137.25 C476.9075 137.745 476.9075 137.745 479.9375 138.25 C479.6075 136.93 479.2775 135.61 478.9375 134.25 C475.9675 133.755 475.9675 133.755 472.9375 133.25 Z M137.75 139.3125 C132.4265571 147.94014883 133.10099732 159.39123981 135.25390625 168.953125 C136.73555683 173.93147095 138.70737555 176.54031282 143.1875 179.125 C148.92819718 180.84720915 152.94680282 180.84720915 158.6875 179.125 C162.69300155 176.81413372 163.97685075 175.46176506 165.9375 171.25 C168.56842708 160.78348574 169.3765049 149.58518614 164.0703125 139.87109375 C161.95422341 136.8428973 160.49362412 135.43537471 156.9375 134.25 C154.98274991 134.1052037 153.0223862 134.02932498 151.0625 134 C150.03382813 133.97421875 149.00515625 133.9484375 147.9453125 133.921875 C143.50743151 134.40600747 140.94267184 136.30226655 137.75 139.3125 Z M246.9375 134.25 C246.9375 135.57 246.9375 136.89 246.9375 138.25 C252.2175 138.25 257.4975 138.25 262.9375 138.25 C262.9375 136.93 262.9375 135.61 262.9375 134.25 C257.6575 134.25 252.3775 134.25 246.9375 134.25 Z M301.9375 134.25 C301.9375 149.43 301.9375 164.61 301.9375 180.25 C305.8975 180.25 309.8575 180.25 313.9375 180.25 C313.9375 165.07 313.9375 149.89 313.9375 134.25 C309.9775 134.25 306.0175 134.25 301.9375 134.25 Z M469.9375 173.25 C469.60324265 175.62374861 469.60324265 175.62374861 469.9375 178.25 C471.53366005 180.25965774 471.53366005 180.25965774 473.9375 181.25 C476.6359589 181.02802187 476.6359589 181.02802187 478.9375 180.25 C479.2675 178.93 479.5975 177.61 479.9375 176.25 C475.12540099 173.95954986 475.12540099 173.95954986 469.9375 173.25 Z M246.9375 175.25 C246.9375 176.9 246.9375 178.55 246.9375 180.25 C252.2175 180.25 257.4975 180.25 262.9375 180.25 C262.9375 178.6 262.9375 176.95 262.9375 175.25 C257.6575 175.25 252.3775 175.25 246.9375 175.25 Z " fill="#1A2534" transform="translate(50.0625,0.75)"/>
<path d="M0 0 C3.37719085 1.88928914 6.17104532 4.34879131 8.90625 7.06640625 C9.23625 5.08640625 9.56625 3.10640625 9.90625 1.06640625 C16.17625 1.06640625 22.44625 1.06640625 28.90625 1.06640625 C28.90625 14.26640625 28.90625 27.46640625 28.90625 41.06640625 C21.31625 41.06640625 13.72625 41.06640625 5.90625 41.06640625 C4.91625 36.11640625 4.91625 36.11640625 3.90625 31.06640625 C1.3258353 27.26368985 -0.81789536 24.73631095 -5.09375 23.06640625 C-10.93845518 22.34059319 -17.13928845 21.80872415 -22.21875 25.19140625 C-25.91964188 28.49741389 -27.83877984 31.66034978 -28.37109375 36.68359375 C-28.59995833 43.43967605 -27.67776873 47.81245673 -23.40625 53.19140625 C-18.02902965 57.55131464 -12.13481729 59.40009021 -5.59375 61.31640625 C7.70115597 65.27575825 22.47702688 71.05220051 29.71875 83.56640625 C30.4844666 85.04808169 31.2099822 86.55085514 31.90625 88.06640625 C32.43863281 89.08089844 32.97101563 90.09539062 33.51953125 91.140625 C35.60307192 96.0694451 35.34280193 101.10937722 35.28125 106.37890625 C35.29285156 107.36052734 35.30445312 108.34214844 35.31640625 109.35351562 C35.26394364 122.56534955 30.48057963 133.70425484 21.58203125 143.4765625 C13.52945047 151.11619042 3.46301238 155.13955193 -7.59375 155.62890625 C-17.05343568 155.31093362 -25.33596065 151.63647923 -32.09375 145.06640625 C-32.42375 147.37640625 -32.75375 149.68640625 -33.09375 152.06640625 C-39.69375 152.06640625 -46.29375 152.06640625 -53.09375 152.06640625 C-53.09375 136.88640625 -53.09375 121.70640625 -53.09375 106.06640625 C-45.50375 106.06640625 -37.91375 106.06640625 -30.09375 106.06640625 C-29.43375 109.36640625 -28.77375 112.66640625 -28.09375 116.06640625 C-26.03003592 121.27482751 -23.10379264 125.21655135 -18.26953125 128.1875 C-12.96482518 130.33033459 -6.77366327 129.75637063 -1.59375 127.62890625 C-0.76875 127.11328125 0.05625 126.59765625 0.90625 126.06640625 C1.89625 125.73640625 2.88625 125.40640625 3.90625 125.06640625 C5.04834817 123.28411689 5.04834817 123.28411689 5.90625 121.06640625 C6.24398437 120.34582031 6.58171875 119.62523437 6.9296875 118.8828125 C9.07131143 112.70636909 9.48626869 104.52465907 6.7265625 98.484375 C0.9423046 91.24713366 -7.93076288 88.79171797 -16.37524414 85.89208984 C-30.72895111 80.95430092 -43.76564921 75.04406392 -51.09375 60.81640625 C-51.80701722 59.2535119 -52.47357633 57.66852157 -53.09375 56.06640625 C-53.45726562 55.15761719 -53.82078125 54.24882813 -54.1953125 53.3125 C-57.44019966 41.58858162 -55.49080354 29.21899791 -49.80859375 18.68359375 C-39.61810399 1.93599219 -18.91987067 -7.5315639 0 0 Z " fill="#BF0F2E" transform="translate(64.09375,10.93359375)"/>
<path d="M0 0 C14.52 0 29.04 0 44 0 C44 5.61 44 11.22 44 17 C40.37 17 36.74 17 33 17 C33 23.6 33 30.2 33 37 C43.56 37 54.12 37 65 37 C65 30.4 65 23.8 65 17 C61.37 17 57.74 17 54 17 C54 11.39 54 5.78 54 0 C68.52 0 83.04 0 98 0 C98 5.61 98 11.22 98 17 C94.7 17 91.4 17 88 17 C88 37.79 88 58.58 88 80 C90.97 80 93.94 80 97 80 C97 85.28 97 90.56 97 96 C82.81 96 68.62 96 54 96 C54 90.39 54 84.78 54 79 C57.63 79 61.26 79 65 79 C65 72.07 65 65.14 65 58 C54.44 58 43.88 58 33 58 C33 64.93 33 71.86 33 79 C36.63 79 40.26 79 44 79 C44 84.61 44 90.22 44 96 C29.81 96 15.62 96 1 96 C1 90.72 1 85.44 1 80 C3.97 80 6.94 80 10 80 C10 59.21 10 38.42 10 17 C6.7 17 3.4 17 0 17 C0 11.39 0 5.78 0 0 Z " fill="#BE0F2E" transform="translate(256,110)"/>
<path d="M0 0 C13.32156378 -0.40209444 26.6808949 2.60027602 36.6015625 11.91015625 C48.49298443 24.66466525 49.94970342 40.12255214 49.4296875 56.7890625 C49.09594225 62.41637828 47.86925587 67.75314676 46.2890625 73.16015625 C46.03382813 74.06121094 45.77859375 74.96226562 45.515625 75.890625 C42.04843524 86.14905343 34.64995219 93.01795555 25.2578125 98.00390625 C12.34995262 103.03117799 -5.45162136 103.69357005 -18.30859375 98.41796875 C-29.09388316 92.77103674 -36.61110764 84.00536041 -40.6171875 72.57421875 C-45.46313374 55.47879728 -44.55167937 35.11405438 -36.08203125 19.40625 C-30.66150646 10.52647292 -22.89638351 4.61860594 -12.8828125 1.68359375 C-8.5682666 0.64375715 -4.40646234 0.26032414 0 0 Z M-9.8984375 33.22265625 C-15.2218804 41.85030508 -14.54744018 53.30139606 -12.39453125 62.86328125 C-10.91288067 67.8416272 -8.94106195 70.45046907 -4.4609375 73.03515625 C1.27975968 74.7573654 5.29836532 74.7573654 11.0390625 73.03515625 C15.04456405 70.72428997 16.32841325 69.37192131 18.2890625 65.16015625 C20.91998958 54.69364199 21.7280674 43.49534239 16.421875 33.78125 C14.30578591 30.75305355 12.84518662 29.34553096 9.2890625 28.16015625 C7.33431241 28.01535995 5.3739487 27.93948123 3.4140625 27.91015625 C2.38539063 27.884375 1.35671875 27.85859375 0.296875 27.83203125 C-4.14100599 28.31616372 -6.70576566 30.2124228 -9.8984375 33.22265625 Z " fill="#BF0F2E" transform="translate(197.7109375,106.83984375)"/>
<path d="M0 0 C25.77299572 -2.04238834 25.77299572 -2.04238834 32.17675781 1.05175781 C35.48581598 3.96047624 37.13441798 7.78949212 38.89599609 11.7578125 C41.02289557 16.07745973 43.99717484 19.85967774 46.8125 23.75 C48.00503189 25.45142599 49.19512661 27.15456272 50.3828125 28.859375 C56.79278271 37.9966225 63.30300467 47.07067289 70 56 C70.33 43.13 70.66 30.26 71 17 C67.37 17 63.74 17 60 17 C60 11.39 60 5.78 60 0 C74.19 0 88.38 0 103 0 C103 5.61 103 11.22 103 17 C99.37 17 95.74 17 92 17 C92 43.07 92 69.14 92 96 C85.73 96 79.46 96 73 96 C65.80140566 88.24229154 65.80140566 88.24229154 63.75390625 84.625 C61.07869527 80.07551651 58.09065009 75.83626231 55 71.5625 C54.0077658 70.15290392 53.018194 68.74143011 52.03125 67.328125 C49.93562719 64.33242398 47.83118243 61.34324824 45.71875 58.359375 C45.17992187 57.59810303 44.64109375 56.83683105 44.0859375 56.05249023 C43.0602656 54.60382341 42.03424739 53.1554017 41.0078125 51.70727539 C40.54117188 51.04719482 40.07453125 50.38711426 39.59375 49.70703125 C38.98563477 48.84815308 38.98563477 48.84815308 38.36523438 47.97192383 C36.54196023 45.3384143 34.77674733 42.665121 33 40 C32.67 52.87 32.34 65.74 32 79 C35.63 79 39.26 79 43 79 C43 84.61 43 90.22 43 96 C28.81 96 14.62 96 0 96 C0 90.39 0 84.78 0 79 C3.63 79 7.26 79 11 79 C11 58.54 11 38.08 11 17 C7.37 17 3.74 17 0 17 C0 11.39 0 5.78 0 0 Z " fill="#BF0F2E" transform="translate(361,110)"/>
<path d="M0 0 C8.58 0 17.16 0 26 0 C26.06810606 10.31929084 26.12300518 20.63842943 26.15543652 30.95789528 C26.17101144 35.75098732 26.19209807 40.543916 26.22631836 45.33691406 C26.25920626 49.97295078 26.27691426 54.60883156 26.28463173 59.24497604 C26.29012294 61.00297877 26.30084384 62.76097415 26.31719017 64.51890945 C26.46196534 80.75209798 25.68177707 95.39712363 14.15234375 108.0234375 C4.53244983 117.07048353 -6.8069779 121.41048217 -19.875 121.3125 C-20.66583984 121.30686035 -21.45667969 121.3012207 -22.27148438 121.29541016 C-35.72333458 121.01631466 -46.18203609 115.29649643 -55.9609375 106.19140625 C-62.30335532 99.37512963 -64.9354028 91.94658785 -67 83 C-71.29 83 -75.58 83 -80 83 C-80 76.4 -80 69.8 -80 63 C-67.13 63 -54.26 63 -41 63 C-40.505 69.93 -40.505 69.93 -40 77 C-37.67254397 85.06297269 -35.69933979 89.73923361 -28.703125 94.59375 C-23.96397878 97.05920179 -19.20072427 96.70152442 -14 96 C-8.99642558 94.25400311 -6.01732959 91.61128588 -3.5625 86.9375 C-1.25892379 81.72088122 -0.83974555 76.96574779 -0.79467773 71.29394531 C-0.78477814 70.52282913 -0.77487854 69.75171295 -0.76467896 68.95722961 C-0.73314922 66.41422573 -0.70834032 63.87120318 -0.68359375 61.328125 C-0.66301686 59.56263754 -0.64202019 57.79715493 -0.62062073 56.03167725 C-0.56547601 51.38913909 -0.51603325 46.74655702 -0.46777344 42.10394287 C-0.41750289 37.36482851 -0.36184583 32.62577775 -0.30664062 27.88671875 C-0.199152 18.5911982 -0.09818431 9.29562349 0 0 Z " fill="#C00F2E" transform="translate(119,110)"/>
<path d="M0 0 C0.33 -0.99 0.66 -1.98 1 -3 C5.95 -3 10.9 -3 16 -3 C16 6.24 16 15.48 16 25 C10.39 25 4.78 25 -1 25 C-1.99 22.69 -2.98 20.38 -4 18 C-6.23309613 15.43850739 -7.77753754 14.21559793 -11.1484375 13.62109375 C-15.06691523 13.41931167 -17.4843016 13.73140708 -21 15.5625 C-23.64067441 18.78082193 -24 20.85931078 -24 25 C-23.0342637 27.96619008 -21.99808049 29.39418835 -19.3203125 31.01953125 C-15.14417098 32.99728884 -10.80960079 34.39957921 -6.4128418 35.80419922 C3.95784874 39.12907516 12.62426665 42.92553355 18.03515625 52.91015625 C21.23760781 60.40240339 20.75725274 68.42530007 18 76 C14.05998687 84.38560317 8.74908994 90.37083645 0.0546875 93.7578125 C-8.72772712 96.28231225 -15.8620008 95.68570742 -23.87109375 91.2890625 C-25.6084043 90.23711299 -27.31012947 89.12658036 -29 88 C-29 89.65 -29 91.3 -29 93 C-34.28 93 -39.56 93 -45 93 C-45 82.77 -45 72.54 -45 62 C-39.06 62 -33.12 62 -27 62 C-26.608125 63.4025 -26.21625 64.805 -25.8125 66.25 C-24.40739524 70.50546012 -22.90216317 72.59866882 -19 75 C-15.92805092 76.53597454 -13.39755707 76.2265038 -10 76 C-6.01933905 74.42275698 -4.39332726 73.58999089 -2 70 C-1.46352024 66.93359465 -1.47101109 64.06813567 -2 61 C-5.97158265 56.2837456 -12.17961584 54.87306643 -17.90234375 53.1015625 C-28.7824403 49.67151945 -37.13744511 45.25944606 -43.1015625 35.12890625 C-46.15326177 28.26971304 -46.18882742 19.78048288 -43.875 12.6875 C-40.10159576 4.22805421 -33.37667595 -0.4338592 -25.25 -4.3125 C-15.59248392 -6.35543609 -8.37557994 -5.18841235 0 0 Z " fill="#BE0F2E" transform="translate(539,113)"/>
<path d="M0 0 C20.79 0 41.58 0 63 0 C63 5.61 63 11.22 63 17 C57.06 17 51.12 17 45 17 C45 28.22 45 39.44 45 51 C36.42 51 27.84 51 19 51 C19 39.78 19 28.56 19 17 C12.73 17 6.46 17 0 17 C0 11.39 0 5.78 0 0 Z " fill="#BF0F2E" transform="translate(100,52)"/>
<path d="M0 0 C6.51730272 4.06273416 10.08535784 9.05998583 12.375 16.3125 C12.92584514 20.47416991 12.93550804 24.55729673 12.875 28.75 C12.89046875 29.81798828 12.9059375 30.88597656 12.921875 31.98632812 C12.88207147 40.13112565 11.56996115 47.20186958 6.48046875 53.75 C-1.03937108 59.87614243 -8.04478713 61.15577992 -17.625 60.3125 C-23.73676481 59.23520812 -27.30497701 56.27243742 -31.15234375 51.49609375 C-37.47824346 42.11631142 -37.71479892 29.95032804 -36.1640625 19.08203125 C-34.53881844 11.53898678 -31.9491442 5.93654466 -25.984375 0.9375 C-18.83179626 -3.54063626 -7.53608485 -3.51015359 0 0 Z M-24.8125 11.375 C-30.1359429 20.00264883 -29.46150268 31.45373981 -27.30859375 41.015625 C-25.82694317 45.99397095 -23.85512445 48.60281282 -19.375 51.1875 C-13.63430282 52.90970915 -9.61569718 52.90970915 -3.875 51.1875 C0.13050155 48.87663372 1.41435075 47.52426506 3.375 43.3125 C6.00592708 32.84598574 6.8140049 21.64768614 1.5078125 11.93359375 C-0.60827659 8.9053973 -2.06887588 7.49787471 -5.625 6.3125 C-7.57975009 6.1677037 -9.5401138 6.09182498 -11.5 6.0625 C-12.52867187 6.03671875 -13.55734375 6.0109375 -14.6171875 5.984375 C-19.05506849 6.46850747 -21.61982816 8.36476655 -24.8125 11.375 Z " fill="#1D2636" transform="translate(212.625,128.6875)"/>
<path d="M0 0 C5.28 0 10.56 0 16 0 C16.10807762 4.20902296 16.1873684 8.41526202 16.25 12.625 C16.30027344 14.40970703 16.30027344 14.40970703 16.3515625 16.23046875 C16.47505983 27.2834801 16.47505983 27.2834801 12 32 C8.79619983 34.13586678 7.98060033 34.23132175 4.3125 34.125 C3.50425781 34.10695312 2.69601562 34.08890625 1.86328125 34.0703125 C1.24839844 34.04710937 0.63351562 34.02390625 0 34 C0 31.36 0 28.72 0 26 C0.78375 25.814375 1.5675 25.62875 2.375 25.4375 C5.39376342 24.16038373 5.39376342 24.16038373 6.3125 20.375 C6.539375 19.26125 6.76625 18.1475 7 17 C4.69 17 2.38 17 0 17 C0 11.39 0 5.78 0 0 Z " fill="#BF0F2E" transform="translate(472,110)"/>
<path d="M0 0 C1.98 0 3.96 0 6 0 C6 15.18 6 30.36 6 46 C4.02 46 2.04 46 0 46 C0.144375 44.94683594 0.28875 43.89367187 0.4375 42.80859375 C2.3503194 28.23610928 2.50595923 14.52113876 0 0 Z " fill="#F7F8F8" transform="translate(252,135)"/>
<path d="M0 0 C1.32 0.33 2.64 0.66 4 1 C4.33 2.65 4.66 4.3 5 6 C5.66 6 6.32 6 7 6 C7.33 4.35 7.66 2.7 8 1 C9.32 0.67 10.64 0.34 12 0 C12 3.96 12 7.92 12 12 C11.34 12 10.68 12 10 12 C9.67 10.35 9.34 8.7 9 7 C8.34 8.65 7.68 10.3 7 12 C6.34 12 5.68 12 5 12 C4.34 10.68 3.68 9.36 3 8 C2.67 9.32 2.34 10.64 2 12 C1.34 12 0.68 12 0 12 C0 8.04 0 4.08 0 0 Z " fill="#46505D" transform="translate(575,206)"/>
<path d="M0 0 C2.97 0 5.94 0 9 0 C9 0.99 9 1.98 9 3 C8.01 3 7.02 3 6 3 C6 5.97 6 8.94 6 12 C5.01 11.67 4.02 11.34 3 11 C3 8.36 3 5.72 3 3 C2.01 3 1.02 3 0 3 C0 2.01 0 1.02 0 0 Z " fill="#6F7781" transform="translate(564,206)"/>
<path d="M0 0 C2.31 0 4.62 0 7 0 C7 3.63 7 7.26 7 11 C4.14550355 8.14550355 2.11201404 5.4229193 0 2 C0 1.34 0 0.68 0 0 Z " fill="#CBCED1" transform="translate(418,134)"/>
<path d="M0 0 C0.66 0 1.32 0 2 0 C3.2890625 1.4609375 3.2890625 1.4609375 4.625 3.375 C5.29402344 4.31472656 5.29402344 4.31472656 5.9765625 5.2734375 C7 7 7 7 7 9 C4.69 9 2.38 9 0 9 C0 6.03 0 3.06 0 0 Z " fill="#CDCFD3" transform="translate(400,173)"/>
<path d="M0 0 C0.66 0.33 1.32 0.66 2 1 C-1.96 4.96 -5.92 8.92 -10 13 C-10.66 12.67 -11.32 12.34 -12 12 C-8.27653164 7.57905197 -4.70478962 3.42166518 0 0 Z " fill="#505A66" transform="translate(169,107)"/>
<path d="M0 0 C0.99 0 1.98 0 3 0 C3 3.96 3 7.92 3 12 C2.34 12 1.68 12 1 12 C0.67 8.04 0.34 4.08 0 0 Z " fill="#3B4753" transform="translate(584,206)"/>
<path d="M0 0 C0.66 0.66 1.32 1.32 2 2 C1.61121812 5.01305957 0.73543126 6.39685311 -1 9 C-1 8.01 -1 7.02 -1 6 C-1.66 5.67 -2.32 5.34 -3 5 C-2.34 5 -1.68 5 -1 5 C-0.67 3.35 -0.34 1.7 0 0 Z " fill="#6B737D" transform="translate(583,207)"/>
</svg>
