<svg xmlns="http://www.w3.org/2000/svg" height="54.17" viewBox="0 0 158.99805 54.169921" width="159"><g transform="matrix(1.25 0 0 -1.25 -351.97 351.97)"><g transform="translate(.89576 .74647)"><path d="m6.957 0.88086-5.2031 13.592h7.4902l2.6934-3.4746h7.377l-9.9082 25.875c-0.8226 2.146-2.9191 3.59-5.2173 3.59h-0.53125l-0.18945 0.49414-2.5352 6.623h21.904l2.7246-7.1172h-1.5059c-0.65198 0-1.2397-0.30708-1.6133-0.83984-0.37505-0.53495-0.46191-1.1939-0.24023-1.8066l10.27-26.818h7.1621l0.51367 3.4746h7.1875l5.2051-13.592h-45.584zm28.063 14.996l-1.1621 2.957 0.94336 0.72266-5.5527 14.473c-0.40994 1.0706-0.26699 2.2739 0.38281 3.2188 0.6498 0.94489 1.7202 1.5078 2.8672 1.5078h14.834c2.3135 0 4.4285-1.4497 5.2637-3.6055l7.4727-19.273h-11.793l-1.1641 2.957 0.94727 0.72656-4.3613 11.391h-2.6641l5.7734-15.074h-11.787zm26.512 0-1.1641 2.9551 0.94726 0.72852-5.791 15.121-1.7129 0.80859-1.2852 3.2656h33.453l2.832-4.9375h4.6914l-0.1543 1.3965-0.64844 0.18945-1.918 3.3516h22.773l3.084-8.0547 3.1465 8.0547h7.6777l8.7617-22.879h-11.727l-1.1641 2.957 0.9375 0.71875-1.1621 3.0352-2.5684-6.7109h-9.1914l-1.1641 2.957 0.94531 0.72461-5.7773 15.123-1.7148 0.80859-0.61914 1.5762 2.3535-21.189h-18.037l-1.5254 2.6523 1.0996 1.0488-8.7598 15.275-1.3984 0.59766-1.0391 1.8184 1.7637-4.6055 1.0957-2.8555h-3.8711l-0.93359 1.1426h-6.2871l5.8438-15.074h-10.068-1.7246zm76.154 0-1.1641 2.957 0.94532 0.72461-5.7891 15.121-1.7188 0.81055-1.2852 3.2656h20.438l2.7363-7.1035 0.40234-1.0469h-3.873l-0.93359 1.1406h-4.0703l0.73047-1.9199h4.6367l2.002-5.1777h-4.6602l0.67188-1.7578h4.0391l0.54883 1.1426h3.3945l3.1953-8.1562h-20.246zm-42.896 7.2812-0.15234 3.6465h-2.1387l2.291-3.6465zm-44.062 17.568c-1.0091 0-1.7854 0.19824-2.3281 0.5957-0.54145 0.39746-0.81445 1.0099-0.81445 1.8359v7.4766c0 0.40782 0.08291 0.76543 0.25 1.0723 0.1671 0.30555 0.39147 0.55777 0.67774 0.75586 0.28368 0.19938 0.61592 0.34623 0.99805 0.44336 0.38084 0.09575 0.79396 0.14453 1.2344 0.14453 0.6658 0 1.2125-0.11788 1.6426-0.35352 0.04405-0.022 0.09992-0.04245 0.16992-0.06445 0.06995-0.02088 0.14362-0.03039 0.21875-0.02539 0.07512 0.0065 0.1468 0.02695 0.2168 0.06445 0.06999 0.03755 0.13117 0.10005 0.18555 0.18555 0.02201 0.07512 0.08061 0.11328 0.17774 0.11328h0.48242c0.11921 0 0.17773-0.05461 0.17773-0.16211v-5.6055c0-0.16182-0.04341-0.29228-0.12891-0.39453-0.08679-0.10228-0.20853-0.15234-0.36914-0.15234h-2.2422v0.57812c0 0.59168 0.09672 0.93938 0.29102 1.0469 0.08552 0.05435 0.1533 0.11167 0.20117 0.16992 0.04787 0.05956 0.07227 0.14788 0.07227 0.26562v1.3223c0 0.37546-0.09934 0.65798-0.29883 0.8457-0.19949 0.18775-0.44948 0.28125-0.75 0.28125-0.29015 0-0.53294-0.09089-0.73242-0.27344-0.19818-0.18255-0.29883-0.48813-0.29883-0.91797v-6.4121c0-0.3431 0.08554-0.592 0.25781-0.74219 0.17099-0.15015 0.40846-0.22461 0.70898-0.22461 0.29015 0 0.52897 0.07706 0.7168 0.23242 0.18789 0.15536 0.2832 0.38518 0.2832 0.68555v0.01563c0 0.25894 0.06512 0.44402 0.19336 0.55664 0.12954 0.11269 0.34402 0.16797 0.64453 0.16797h1.4512v-1.0957c0-0.81565-0.29868-1.4255-0.89453-1.8281-0.59715-0.40264-1.3945-0.60352-2.3945-0.60352zm13.863 0.16016v1.0156c0 0.21491 0.02827 0.37761 0.08789 0.49023 0.05829 0.11394 0.14125 0.19688 0.25 0.25 0.13855 0.0751 0.20898 0.20086 0.20898 0.37305v7.8281c0 0.15018-0.06383 0.26472-0.19336 0.33984-0.10751 0.05309-0.19431 0.14262-0.25781 0.26562-0.06475 0.123-0.0957 0.30214-0.0957 0.53906v0.96484h0.9668 3.6914 1.0469c0.11916 0 0.23759-0.0362 0.35547-0.11133 0.11784-0.07509 0.17773-0.17189 0.17773-0.29102v-2.2539h-1c-0.11788 0-0.22114 0.02439-0.30664 0.07227-0.08549 0.04922-0.15855 0.10517-0.2168 0.16992-0.05955 0.06474-0.1063 0.13386-0.13867 0.20898-0.0325 0.07379-0.05933 0.14023-0.08008 0.19336-0.0544 0.10741-0.12748 0.16016-0.22461 0.16016h-1.291c-0.06342 0-0.12266-0.0217-0.17578-0.06445-0.05575-0.04396-0.08203-0.09541-0.08203-0.16016v-3.0137c0-0.13986 0.08156-0.20898 0.24219-0.20898h2.0469c0.16198 0 0.24219-0.07639 0.24219-0.22656v-1.2891c0-0.08551-0.03022-0.14667-0.08984-0.18555-0.05826-0.03625-0.11484-0.05469-0.16797-0.05469h-2.0312c-0.06481 0-0.12067-0.01777-0.16992-0.05664-0.04788-0.03755-0.07227-0.0948-0.07227-0.16992v-2.6738c0-0.05315 0.02439-0.10447 0.07227-0.15234 0.04923-0.04787 0.10117-0.07227 0.1543-0.07227h1.209c0.15026 0 0.26276 0.06324 0.33789 0.19141 0.05311 0.09711 0.14585 0.19914 0.27539 0.30664 0.12824 0.10741 0.3006 0.16211 0.51562 0.16211h0.95117v-2.127c0-0.08674-0.04667-0.17631-0.13867-0.27344-0.09198-0.09712-0.20054-0.14648-0.33008-0.14648h-5.7695zm7.9766 0v1.0156c0 0.21491 0.03022 0.37761 0.08984 0.49023 0.05829 0.11394 0.1425 0.19688 0.25 0.25 0.13984 0.0751 0.20898 0.20086 0.20898 0.37305v7.8281c0 0.15018-0.06383 0.26472-0.19336 0.33984-0.10751 0.05309-0.19169 0.14262-0.25781 0.26562-0.0635 0.123-0.09766 0.30214-0.09766 0.53906v0.96484h0.96875 3.6914 1.0469c0.11916 0 0.23759-0.0362 0.35547-0.11133 0.11784-0.07509 0.17774-0.17189 0.17774-0.29102v-2.2539h-1c-0.11788 0-0.22114 0.02439-0.30664 0.07227-0.08549 0.04922-0.15717 0.10517-0.2168 0.16992-0.05955 0.06474-0.1063 0.13386-0.13867 0.20898-0.03238 0.07379-0.05933 0.14023-0.08008 0.19336-0.0544 0.10741-0.12748 0.16016-0.22461 0.16016h-1.291c-0.0648 0-0.12266-0.0217-0.17578-0.06445-0.05575-0.04396-0.08203-0.09541-0.08203-0.16016v-3.0137c0-0.13986 0.08286-0.20898 0.24219-0.20898h2.0469c0.16198 0 0.24219-0.07639 0.24219-0.22656v-1.2891c0-0.08551-0.03022-0.14667-0.08984-0.18555-0.05826-0.03625-0.11484-0.05469-0.16797-0.05469h-2.0312c-0.06351 0-0.12067-0.01777-0.16992-0.05664-0.04788-0.03755-0.07227-0.0948-0.07227-0.16992v-2.6738c0-0.05315 0.02439-0.10447 0.07227-0.15234 0.04922-0.04787 0.10117-0.07227 0.1543-0.07227h1.209c0.15026 0 0.26277 0.06324 0.33789 0.19141 0.05311 0.09711 0.14585 0.19914 0.27539 0.30664 0.12824 0.10741 0.3006 0.16211 0.51562 0.16211h0.95117v-2.127c0-0.08674-0.04609-0.17631-0.13672-0.27344-0.09326-0.09712-0.20379-0.14648-0.33203-0.14648h-5.7715zm52.693 0v1.0156c0 0.21491 0.029 0.37761 0.0898 0.49023 0.0583 0.11394 0.14055 0.19688 0.24805 0.25 0.13983 0.0751 0.21093 0.20086 0.21093 0.37305v7.8281c0 0.15018-0.0651 0.26472-0.19336 0.33984-0.10881 0.05309-0.19501 0.14262-0.25976 0.26562-0.0635 0.123-0.0957 0.30214-0.0957 0.53906v0.96484h0.96679 3.6914 1.0488c0.11787 0 0.23439-0.0362 0.35351-0.11133 0.11793-0.07509 0.17774-0.17189 0.17774-0.29102v-2.2539h-1c-0.11788 0-0.21919 0.02439-0.30469 0.07227-0.0868 0.04922-0.1605 0.10517-0.21875 0.16992-0.0596 0.06474-0.10434 0.13386-0.13672 0.20898-0.0325 0.07379-0.0593 0.14023-0.0801 0.19336-0.0544 0.10741-0.13068 0.16016-0.22656 0.16016h-1.2891c-0.0648 0-0.12336-0.0217-0.17774-0.06445-0.0545-0.04396-0.0801-0.09541-0.0801-0.16016v-3.0137c0-0.13986 0.0796-0.20898 0.24023-0.20898h2.0488c0.1606 0 0.24218-0.07639 0.24218-0.22656v-1.2891c0-0.08551-0.0302-0.14667-0.0898-0.18555-0.0596-0.03625-0.1168-0.05469-0.16992-0.05469h-2.0312c-0.0635 0-0.12009-0.01777-0.16797-0.05664-0.0491-0.03755-0.0723-0.0948-0.0723-0.16992v-2.6738c0-0.05315 0.023-0.10447 0.0723-0.15234 0.048-0.04787 0.0992-0.07227 0.15234-0.07227h1.209c0.15155 0 0.26347 0.06324 0.33984 0.19141 0.0531 0.09711 0.1452 0.19914 0.27344 0.30664 0.12824 0.10741 0.30189 0.16211 0.51563 0.16211h0.95117v-2.127c0-0.08674-0.0461-0.17631-0.13672-0.27344-0.092-0.09712-0.20184-0.14648-0.33008-0.14648h-5.7715zm-44.715 0.01758v1.0625c0 0.18255 0.03022 0.33342 0.08984 0.45117 0.05959 0.11782 0.12675 0.20869 0.20312 0.27344 0.08549 0.07504 0.18156 0.12903 0.28906 0.16016v8.0723c-0.01037 0.07505-0.02939 0.13098-0.05664 0.16211-0.02725 0.03238-0.05676 0.06333-0.08789 0.0957-0.08679 0.05438-0.16975 0.13738-0.25 0.25-0.08025 0.11264-0.12109 0.25555-0.12109 0.42773v1.0957h3.2402v-1.0801c0-0.18255-0.03947-0.3333-0.12109-0.45117-0.08031-0.11781-0.15925-0.20469-0.23438-0.25781-0.05445-0.03238-0.10178-0.06858-0.14453-0.11133-0.04275-0.04402-0.06445-0.11519-0.06445-0.21094v-4.334c0-0.06338 0.0056-0.10328 0.01563-0.11328 0.01188-0.01 0.01563-0.01 0.01563 0 0 0.01035 0.06512 0.16575 0.19336 0.46094 0.12954 0.29519 0.28611 0.65874 0.46875 1.0938 0.18265 0.43501 0.38066 0.90787 0.5957 1.418 0.21502 0.51011 0.41833 0.99152 0.61133 1.4434 0.1943 0.45055 0.3601 0.84041 0.5 1.168 0.1399 0.32755 0.22669 0.52314 0.25781 0.58789 0.11788 0.25764 0.32905 0.38672 0.63086 0.38672h0.98047c0.11788 0 0.2132-0.03034 0.2832-0.08984 0.07-0.05826 0.10547-0.18599 0.10547-0.37891v-9.5527c0.0091-0.0751 0.02939-0.13242 0.05664-0.16992 0.02587-0.0375 0.05622-0.06589 0.08984-0.08789 0.0855-0.06474 0.1678-0.153 0.24805-0.26562 0.08038-0.11394 0.12109-0.25488 0.12109-0.42578v-1.0801h-0.002-3.2227v1.0625c0 0.1942 0.03745 0.34636 0.11133 0.45898 0.07643 0.11264 0.15214 0.19562 0.22852 0.25 0.05446 0.03238 0.10178 0.07322 0.14453 0.12109 0.04412 0.0492 0.0625 0.12092 0.0625 0.2168v4.334c0 0.03238-0.0016 0.06003-0.0078 0.08203-0.0051 0.02075-0.01023 0.02075-0.02148 0-0.03238-0.08675-0.11-0.28564-0.23438-0.59766-0.12306-0.31072-0.27107-0.67622-0.44336-1.0957-0.17228-0.41818-0.35847-0.86533-0.55664-1.3379-0.19949-0.47256-0.38371-0.91512-0.55469-1.3281-0.17229-0.4143-0.31767-0.76798-0.43555-1.0645-0.11784-0.29519-0.18894-0.47956-0.21094-0.55469-0.03239-0.10746-0.09553-0.22601-0.19141-0.35547-0.09715-0.12816-0.21031-0.19141-0.33984-0.19141h-2.2422zm14.459 0v1.0312c0 0.18255 0.04072 0.33205 0.12109 0.45117 0.0803 0.11781 0.1645 0.20344 0.25 0.25781 0.05444 0.04276 0.09909 0.09016 0.13672 0.14453 0.03763 0.05438 0.06909 0.12224 0.08984 0.20898l0.41797 4.6074c0.0544 0.58001 0.1063 1.1464 0.1543 1.6992 0.04922 0.55412 0.0933 1.0474 0.13867 1.4824 0.04138 0.43502 0.073 0.78669 0.09375 1.0547 0.02237 0.26929 0.0332 0.40992 0.0332 0.41992 0.04404 0.46091 0.19932 0.69336 0.46875 0.69336h2.4004c0.29145 0 0.46845-0.17845 0.5332-0.5332l1.416-6.8301 1.4199 6.8301c0.0427 0.16184 0.10518 0.28898 0.18555 0.38086 0.0803 0.09065 0.19414 0.14234 0.3457 0.15234h2.3691c0.13991 0 0.24715-0.06584 0.32227-0.19531 0.0751-0.12818 0.12449-0.29478 0.14649-0.49805 0.0545-0.52694 0.10178-1.0064 0.14453-1.4414 0.0427-0.43501 0.0901-0.9283 0.14453-1.4824 0.0531-0.55284 0.11298-1.1192 0.17773-1.6992 0.12825-1.3646 0.28545-2.9122 0.4668-4.6406 0.0233-0.08674 0.051-0.15461 0.0898-0.20898 0.0363-0.05439 0.0836-0.10178 0.13672-0.14453 0.0855-0.05438 0.16767-0.13994 0.24805-0.25781 0.0816-0.11911 0.12304-0.26862 0.12304-0.45117v-1.0312h-3.2734v1.0312c0 0.19291 0.0382 0.34636 0.11328 0.45898 0.0751 0.11264 0.15544 0.19562 0.24219 0.25 0.053 0.04274 0.0991 0.08747 0.13672 0.13672 0.0376 0.04791 0.0566 0.11967 0.0566 0.2168l-0.69336 7.6211c-0.32254-1.6973-0.61333-3.2219-0.8711-4.5762-0.10751-0.58001-0.21476-1.1464-0.32226-1.6992-0.10623-0.55282-0.20232-1.0474-0.28907-1.4824-0.0855-0.43501-0.15585-0.79262-0.20898-1.0723-0.0545-0.27835-0.0801-0.43442-0.0801-0.4668-0.0233-0.10616-0.15029-0.20427-0.38086-0.29102-0.23186-0.08543-0.46939-0.12695-0.71679-0.12695-0.0751 0-0.17046 0.0093-0.28321 0.03125-0.1114 0.022-0.22258 0.05164-0.33008 0.08789-0.10751 0.0376-0.19831 0.08298-0.27343 0.13086-0.0752 0.04794-0.11891 0.10447-0.12891 0.16797-0.0104 0.03236-0.0458 0.19107-0.10547 0.47461-0.0583 0.28482-0.13129 0.65229-0.21679 1.0977-0.08549 0.44538-0.18877 0.94522-0.30664 1.498-0.11916 0.55284-0.23439 1.1139-0.35352 1.6836-0.2798 1.3413-0.59626 2.856-0.95117 4.543l-0.624-7.621c0-0.09714 0.01776-0.16892 0.05664-0.2168 0.03751-0.04924 0.08359-0.09397 0.13672-0.13672 0.08549-0.05438 0.16706-0.13738 0.24219-0.25 0.075-0.11264 0.11328-0.26607 0.11328-0.45898v-1.0312h-3.2734zm14.734 0v0.91797c0 0.24729 0.0349 0.43169 0.11133 0.55469 0.0751 0.12429 0.17314 0.2132 0.29101 0.26758 0.0531 0.02074 0.0801 0.06684 0.0801 0.13672 0 0.06991-0.0112 0.14692-0.0332 0.23242 0 0.01035-0.0224 0.12891-0.0703 0.35547-0.0492 0.22528-0.11311 0.51966-0.19336 0.88476-0.0803 0.3651-0.16975 0.77932-0.26563 1.2402-0.0971 0.4622-0.20109 0.93506-0.30859 1.418-0.24741 1.1393-0.52175 2.4235-0.82227 3.8516-0.0207 0.08674-0.0529 0.15461-0.0957 0.20898-0.0427 0.05438-0.0914 0.10178-0.14453 0.14453-0.0751 0.05437-0.15275 0.14006-0.23438 0.25781-0.0804 0.11911-0.12109 0.27058-0.12109 0.45312v1.127h3.1758v-0.91992c0-0.19291-0.0375-0.37205-0.11133-0.53906-0.0764-0.16572-0.15668-0.2757-0.24218-0.33008-0.0544-0.04267-0.0919-0.08616-0.11524-0.12891-0.0211-0.04273-0.0312-0.11186-0.0312-0.20898 0.0104-0.08545 0.0281-0.16706 0.0488-0.24219 0.0208-0.06474 0.0369-0.1313 0.0469-0.20117 0.0104-0.06989 0.0232-0.13242 0.0332-0.18555 0.0208-0.1074 0.051-0.16809 0.0898-0.18359 0.0376-0.01713 0.10405-0.02539 0.20117-0.02539h1.5156c0.0855 0 0.15461 0.01194 0.20898 0.03906 0.0531 0.02719 0.0913 0.08317 0.11328 0.16992 0.0104 0.05307 0.0236 0.11567 0.0391 0.18555 0.0155 0.06991 0.0298 0.13642 0.041 0.20117 0.0104 0.07509 0.02 0.15669 0.0312 0.24219 0 0.09711-0.0191 0.16623-0.0566 0.20898-0.0375 0.04267-0.0804 0.08616-0.13476 0.12891-0.0868 0.05438-0.16902 0.16173-0.24414 0.32226-0.0751 0.16184-0.11133 0.33834-0.11133 0.53125v0.93555h3.2226v-1.127c0-0.18255-0.0369-0.334-0.11328-0.45312-0.0738-0.11781-0.15473-0.20344-0.24023-0.25781-0.12948-0.0971-0.20981-0.21369-0.24219-0.35352-0.36527-1.6533-0.68895-3.137-0.96875-4.4473-0.11787-0.55801-0.23564-1.1079-0.35351-1.6504-0.11918-0.54119-0.2264-1.0318-0.32227-1.4668-0.0971-0.43501-0.17475-0.79525-0.23438-1.0801-0.0584-0.28354-0.0879-0.44748-0.0879-0.49024-0.0324-0.18255-0.12053-0.34981-0.26562-0.5-0.14508-0.15015-0.34243-0.22461-0.58984-0.22461h-2.4961zm6.0918 0v1.0312c0 0.18255 0.0369 0.33205 0.11328 0.45117 0.0738 0.11781 0.15473 0.20344 0.24023 0.25781 0.0544 0.04268 0.0958 0.0842 0.12305 0.12695 0.0259 0.04402 0.0503 0.11906 0.0723 0.22656l1.8047 9.4238c0.0751 0.35475 0.25145 0.5332 0.53125 0.5332h2.2578c0.1399 0 0.2432-0.06847 0.31445-0.20312 0.0687-0.13335 0.11997-0.29732 0.15234-0.49023 0-0.01035 0.023-0.15064 0.0723-0.41992 0.0479-0.268 0.11042-0.61966 0.18555-1.0547 0.0751-0.43501 0.16068-0.9283 0.25781-1.4824 0.0971-0.55282 0.19194-1.1192 0.28906-1.6992l0.80859-4.6074c0.0208-0.08674 0.049-0.15461 0.0879-0.20898 0.0376-0.05439 0.0816-0.10178 0.13477-0.14453 0.0868-0.05438 0.17033-0.13994 0.25195-0.25781 0.0804-0.11911 0.1211-0.26862 0.1211-0.45117v-1.0312h-3.2715v1.0312c0 0.19291 0.0375 0.34636 0.11133 0.45898 0.0764 0.11264 0.15669 0.19562 0.24219 0.25 0.0544 0.04274 0.0992 0.08747 0.13672 0.13672 0.0376 0.04791 0.0566 0.11967 0.0566 0.2168l-1.1445 7.6211-1.1934-7.6211c0-0.1722 0.0494-0.28877 0.14648-0.35352 0.0738-0.05438 0.14824-0.13738 0.22461-0.25 0.0751-0.11264 0.11328-0.26607 0.11328-0.45898v-1.0312h-3.2402zm-59.863 0.04687v1.0156c0 0.21492 0.0362 0.38225 0.11133 0.5 0.07514 0.11781 0.15544 0.20469 0.24219 0.25781 0.0415 0.02201 0.07008 0.08723 0.08008 0.19336 0.01062 0.10746 0.01758 0.20356 0.01758 0.28906v7.7012c0 0.08675-0.02766 0.17375-0.08203 0.26562-0.05438 0.09067-0.10703 0.15842-0.16016 0.20117-0.08681 0.05438-0.14267 0.14855-0.16992 0.2832-0.02712 0.13465-0.03906 0.29206-0.03906 0.47461v0.86914h3.2227v-0.91797c0-0.19421-0.0093-0.33784-0.03125-0.43359-0.02202-0.09711-0.07536-0.18864-0.16211-0.27539-0.05441-0.05309-0.12675-0.11823-0.21875-0.19336-0.09064-0.07509-0.13477-0.16069-0.13477-0.25781v-2.5605c0-0.10749 0.02244-0.17856 0.07031-0.21094 0.04922-0.031 0.16502-0.0525 0.34766-0.0625h0.35547c0.07512 0 0.16069 0.0093 0.25781 0.03125 0.09585 0.02067 0.18525 0.06416 0.26562 0.12891 0.08031 0.06474 0.15073 0.15569 0.20898 0.27344 0.05837 0.11782 0.08789 0.27454 0.08789 0.46875v2.8184c0 0.11911 0.02439 0.24689 0.07227 0.38672 0.04922 0.13982 0.11762 0.26759 0.20312 0.38672 0.08549 0.11781 0.18752 0.21733 0.30664 0.29883 0.11658 0.08025 0.24683 0.11914 0.38672 0.11914h1.8047v-1.0293c0-0.19421-0.04341-0.34831-0.12891-0.46094-0.08549-0.11264-0.16706-0.19562-0.24219-0.25-0.05438-0.04268-0.10248-0.0842-0.14648-0.12695-0.04275-0.04402-0.0625-0.11381-0.0625-0.21094v-2.4805c0-0.39748-0.03816-0.70042-0.11328-0.91016-0.07643-0.20974-0.23105-0.40534-0.4668-0.58789-0.05475-0.03238-0.07445-0.07322-0.06445-0.12109 0.01025-0.048 0.02613-0.07859 0.04687-0.08984 0.21502-0.18255 0.36762-0.41439 0.45312-0.69922 0.08549-0.28354 0.12695-0.59898 0.12695-0.94336v-1.4492c0-0.79364-0.20464-1.4417-0.61914-1.9414-0.41451-0.49974-1.0244-0.75-1.8301-0.75h-3.9961zm2.8359 1.8848h0.66016c0.34326 0 0.56697 0.07639 0.66797 0.22656 0.10365 0.15019 0.1543 0.4136 0.1543 0.78906v1.5312c0 0.37676-0.0829 0.61186-0.25 0.70898-0.1671 0.09714-0.38818 0.14453-0.66797 0.14453h-0.37109c-0.15026 0-0.24702-0.01319-0.29102-0.03906-0.04275-0.02719-0.0625-0.09562-0.0625-0.20312v-2.9004c0-0.1709 0.05266-0.25781 0.16016-0.25781zm52.988 1.1035c0.026-0.0051 0.043 0.01389 0.043 0.05664 0 0.01036 0.0171 0.11373 0.0547 0.30664 0.0376 0.1942 0.081 0.43461 0.12891 0.72461 0.0493 0.29001 0.10248 0.60545 0.16211 0.94336 0.0583 0.33791 0.11423 0.65141 0.16211 0.94141 0.0466 0.29001 0.0894 0.53762 0.12695 0.74219 0.0376 0.20326 0.0586 0.31589 0.0586 0.33789 0.0104 0.06475 0.004 0.10559-0.0176 0.12109-0.022 0.01713-0.0694 0.02344-0.14454 0.02344h-1.1777c-0.0738 0-0.12448-0.0066-0.14648-0.02344-0.0205-0.0155-0.0249-0.05634-0.0137-0.12109 0-0.02201 0.0191-0.13463 0.0566-0.33789 0.0363-0.20456 0.0816-0.45481 0.13477-0.75 0.0544-0.29519 0.11225-0.60867 0.17187-0.94141 0.0583-0.33272 0.11485-0.64554 0.16797-0.93555 0.0532-0.29 0.0965-0.53304 0.12891-0.73242 0.031-0.1981 0.0488-0.3032 0.0488-0.31445 0.0104-0.02075 0.0288-0.03477 0.0547-0.04102z" transform="matrix(.8 0 0 -.8 280.83 280.68)" fill="#3A8DDE"/><g transform="translate(.74647 .89576)"><path d="m6.5547 0.76953-4.6152 12.052h5.9941l2.6914-3.4746h8.875l-10.309 26.921c-0.94126 2.4596-3.3022 4.084-5.9355 4.084l-2.1367 5.5762h20.254l2.1367-5.5762h-0.38672c-1.9072 0-3.2243-1.8948-2.5781-3.6777l10.465-27.326h8.3555l0.51367 3.4746h5.9941l4.6133-12.053h-43.932zm38.197 14.996l-10.141 0.002-0.75781 1.9277 0.93945 0.7207-5.7578 15.008c-0.68105 1.7749 0.62788 3.6816 2.5293 3.6816h14.834c2.0126 0 3.8193-1.2366 4.5469-3.1133l7.0645-18.227-10.143 0.002-0.75781 1.9277 0.94141 0.72266-4.7578 12.424h-4.3145l5.7734-15.076zm16.371 0-0.75977 1.9297 0.94336 0.72266-6.1074 15.947-1.7168 0.81055-0.75977 1.9297h20.955l2.1465-5.5996 0.69336-1.8066h-2.3848l-0.93359 1.1426h-7.7773l5.8438-15.076h-8.9434-1.1992zm76.154 0-0.75781 1.9277 0.93945 0.72266-6.1094 15.953-0.002-0.0039-1.7188 0.81055-0.75782 1.9297h18.777l2.5449-6.6113h-2.3848l-0.93359 1.1426h-5.5527l1.3164-3.4609h4.6387l1.4082-3.6387h-4.6562l1.2598-3.2969h5.0527l0.55078 1.1426h2.3848v-0.002l2.5918-6.6152h-18.592zm-50.43 0.002-1 1.7422 1.0977 1.0488-9.1875 16.021-1.3984 0.5957-1.1035 1.9297h9.3438l2.832-4.9375h5.998l-0.30664 2.7598-0.8418 0.24805-1.1055 1.9277h1.7051v0.002h8.3281l2.3691-21.338h-16.73zm24.092 0-0.75781 1.9277 0.93945 0.7207-6.0918 15.949-1.7188 0.81055-0.75782 1.9297h9.5391l3.6074-9.4219 3.6777 9.4219h6.623l8.1699-21.338h-10.08l-0.75976 1.9277 0.93164 0.71484-2.0859 5.4512-3.0996-8.0938h-8.1367zm-16.193 3.6426-0.30469 7.2852h-4.2715l4.5762-7.2852z" transform="matrix(.8 0 0 -.8 280.83 279.08)" fill="#005648"/></g></g></g></svg>