<?xml version="1.0" encoding="UTF-8"?>
<svg version="1.1" xmlns="http://www.w3.org/2000/svg" width="2012" height="604">
<path d="M0 0 C97.68 0 195.36 0 296 0 C296 108.57 296 217.14 296 329 C340.55 329 385.1 329 431 329 C431 220.43 431 111.86 431 0 C528.68 0 626.36 0 727 0 C727.33 77.22 727.66 154.44 728 234 C738.52007295 215.43305985 738.52007295 215.43305985 748.6875 196.6875 C753.47544767 187.68936179 758.32551841 178.73192925 763.30078125 169.8359375 C766.76890586 163.63458455 770.19481322 157.40988409 773.625 151.1875 C775.00907778 148.67706304 776.39320455 146.16665309 777.77734375 143.65625 C778.12552155 143.02470001 778.47369934 142.39315002 778.83242798 141.74246216 C781.26155144 137.33704326 783.69442166 132.93370811 786.12890625 128.53125 C792.97164835 116.15353711 799.77428424 103.75627775 806.49560547 91.31201172 C809.9537719 84.91488755 813.45324267 78.54299322 816.99511719 72.19189453 C820.89289483 65.20208537 824.7604473 58.19571259 828.625 51.1875 C829.30606256 49.95271346 829.98713356 48.71793158 830.66821289 47.4831543 C833.89148263 41.63900481 837.11355871 35.79419824 840.33468628 29.9488678 C841.7896276 27.30882074 843.24497478 24.66899753 844.70037842 22.02920532 C845.72465409 20.17098211 846.7483213 18.31242461 847.77197266 16.45385742 C848.39894043 15.3166626 849.0259082 14.17946777 849.671875 13.0078125 C850.2194043 12.01410645 850.76693359 11.02040039 851.33105469 9.99658203 C853.19529822 6.64934314 855.09705894 3.32538322 857 0 C890.97100498 -0.3893093 924.94145398 -0.68876063 958.91419514 -0.8681106 C962.92701265 -0.88937202 966.93982576 -0.91137556 970.95263672 -0.93383789 C971.75149837 -0.93829717 972.55036003 -0.94275645 973.37342961 -0.94735085 C986.30041082 -1.02127867 999.22610383 -1.15528725 1012.15232138 -1.31159753 C1025.42089484 -1.47070673 1038.68879482 -1.5650257 1051.95828307 -1.59950441 C1060.14391388 -1.62280686 1068.32590402 -1.69631667 1076.51041348 -1.83457994 C1082.12684109 -1.92461298 1087.74139385 -1.95156806 1093.35849027 -1.92952342 C1096.59894011 -1.9186515 1099.83172692 -1.94434792 1103.07133484 -2.02649307 C1121.99989164 -2.48286716 1121.99989164 -2.48286716 1126.9886632 1.64580274 C1130.30994898 5.63980339 1132.35363252 10.02315284 1134.16188073 14.86034501 C1135.4462846 18.13933078 1137.16782155 21.09214628 1138.90625 24.15234375 C1140.10734594 26.41237574 1141.3052473 28.67410829 1142.5 30.9375 C1143.80120548 33.38657936 1145.10551437 35.83399985 1146.41015625 38.28125 C1147.02906738 39.44269531 1147.64797852 40.60414062 1148.28564453 41.80078125 C1151.6378081 48.05637103 1155.10872738 54.24445139 1158.57275391 60.43847656 C1161.60828488 65.88643944 1164.61418141 71.35085291 1167.625 76.8125 C1169.00907778 79.32293696 1170.39320455 81.83334691 1171.77734375 84.34375 C1172.12552155 84.97529999 1172.47369934 85.60684998 1172.83242798 86.25753784 C1175.26155144 90.66295674 1177.69442166 95.06629189 1180.12890625 99.46875 C1186.97164835 111.84646289 1193.77428424 124.24372225 1200.49560547 136.68798828 C1203.9537719 143.08511245 1207.45324267 149.45700678 1210.99511719 155.80810547 C1215.58654459 164.04182331 1220.13627264 172.29849175 1224.68798828 180.55419922 C1225.38444009 181.81738282 1226.08089191 183.08056641 1226.77734375 184.34375 C1227.12553162 184.97532013 1227.47371948 185.60689026 1227.8324585 186.25759888 C1230.26157651 190.66299483 1232.69443266 195.06631178 1235.12890625 199.46875 C1241.97164835 211.84646289 1248.77428424 224.24372225 1255.49560547 236.68798828 C1258.94503745 243.06895493 1262.43443881 249.42546804 1265.96875 255.75976562 C1268.67077096 260.60342057 1271.35771066 265.45521958 1274.03515625 270.3125 C1274.39142593 270.9587886 1274.74769562 271.60507721 1275.11476135 272.27095032 C1276.55457747 274.8832808 1277.99414364 277.49574811 1279.43276978 280.10873413 C1280.44170767 281.94122803 1281.45128999 283.77336576 1282.4609375 285.60546875 C1283.04665527 286.66918701 1283.63237305 287.73290527 1284.23583984 288.82885742 C1286.13035878 292.23432469 1288.06655927 295.61647872 1290 299 C1290.33 200.33 1290.66 101.66 1291 0 C1416.41362276 -0.08067779 1416.41362276 -0.08067779 1466.77161349 -0.09698644 C1478.70019216 -0.10085323 1490.62877078 -0.10482683 1502.55734932 -0.10905199 C1504.08172563 -0.10959168 1505.60610195 -0.11012842 1507.13047827 -0.11066218 C1531.38358208 -0.11917875 1555.63667649 -0.13417341 1579.88977464 -0.15259444 C1604.83961242 -0.17151001 1629.78944503 -0.18378253 1654.73928986 -0.18782998 C1658.27238759 -0.18840619 1661.80548529 -0.18905747 1665.33858299 -0.18975449 C1666.03387041 -0.18988933 1666.72915783 -0.19002418 1667.44551457 -0.19016311 C1678.58702938 -0.1925162 1689.72852805 -0.20176416 1700.87003631 -0.21366407 C1712.10170605 -0.22551046 1723.3333603 -0.22975752 1734.56503759 -0.22700275 C1740.63812504 -0.22572919 1746.71116556 -0.22760013 1752.78424454 -0.23841095 C1792.24345572 -0.30503511 1830.97577698 0.04703863 1869 12 C1870.20100342 12.37632568 1870.20100342 12.37632568 1871.42626953 12.76025391 C1896.12998744 20.71187497 1918.03052893 33.65459087 1936.61474609 51.66162109 C1937.80926144 52.81571576 1939.02212082 53.95076858 1940.23828125 55.08203125 C1972.32511515 85.62561062 1986.06299368 133.87493735 1987.18359375 176.91015625 C1987.69731747 208.96804963 1980.70992119 237.64519749 1968 267 C1968.51046875 267.57363281 1969.0209375 268.14726562 1969.546875 268.73828125 C2003.06580816 307.90313401 2015.0554668 360.37817135 2011.53515625 410.9597168 C2007.75821837 457.23134723 1990.4751553 502.51934718 1959 537 C1958.3186499 537.74926758 1958.3186499 537.74926758 1957.62353516 538.51367188 C1923.90183069 575.0762249 1874.72046888 592.17766743 1826.8125 599.8125 C1825.00096436 600.10483521 1825.00096436 600.10483521 1823.15283203 600.40307617 C1801.3152328 603.67626369 1779.45171859 604.29238118 1757.4059906 604.24050903 C1754.60429672 604.24026598 1751.80260757 604.2430547 1749.00091511 604.24568737 C1742.95687374 604.24979298 1736.91287214 604.24662003 1730.86883545 604.23841095 C1721.88186705 604.22623907 1712.89492323 604.22574869 1703.9079481 604.22749493 C1688.78352335 604.23011061 1673.65911621 604.22348627 1658.53469658 604.21146011 C1643.5755956 604.1995961 1628.61650197 604.19192219 1613.65739632 604.18975449 C1612.72471708 604.18961701 1611.79203784 604.18947953 1610.83109559 604.18933788 C1606.09382929 604.18866115 1601.35656299 604.18805841 1596.61929668 604.18748413 C1563.12957497 604.18329154 1529.63986282 604.1698399 1496.15014648 604.15087891 C1463.63029023 604.13248837 1431.11043659 604.11833178 1398.59057617 604.10986328 C1397.58687064 604.10960023 1396.58316511 604.10933718 1395.54904426 604.10906615 C1385.46874323 604.10642895 1375.38844217 604.10387734 1365.3081411 604.10138843 C1344.77631451 604.09631701 1324.24448809 604.09067451 1303.71266174 604.08468628 C1302.29686082 604.08427441 1302.29686082 604.08427441 1300.85245785 604.08385422 C1237.90163459 604.06547581 1174.95081664 604.03378812 1112 604 C1111.17367427 602.34707239 1111.17367427 602.34707239 1110.3306551 600.6607523 C1109.60156738 599.20242797 1108.87247787 597.74410454 1108.14338684 596.28578186 C1107.78104714 595.56096949 1107.41870744 594.83615712 1107.04538774 594.08938074 C1104.96193238 589.92216864 1102.87631059 585.7560726 1100.78385925 581.59336853 C1099.43327004 578.90650113 1098.08553965 576.21820102 1096.73754883 573.5300293 C1096.04362049 572.14717419 1095.34897184 570.76468028 1094.65356445 569.38256836 C1088.25777009 556.66796465 1082.14310196 543.84466774 1076 531 C991.85 530.505 991.85 530.505 906 530 C905.34 531.98 904.68 533.96 904 536 C903.19961698 537.78501459 902.36397449 539.55455645 901.49731445 541.30834961 C900.99951981 542.3205809 900.50172516 543.33281219 899.98884583 544.37571716 C899.18419136 545.99764732 899.18419136 545.99764732 898.36328125 547.65234375 C897.52678291 549.35083214 897.52678291 549.35083214 896.67338562 551.08363342 C895.19095387 554.09257204 893.70542266 557.09993488 892.21807861 560.10644531 C890.14363874 564.30090485 888.07377408 568.49761974 886.00517273 572.69496155 C884.90724074 574.9221321 883.80761034 577.1484666 882.70588684 579.37376404 C879.83699515 585.18690615 877.0364974 591.02679017 874.30314636 596.90455627 C873.98348955 597.59078206 873.66383273 598.27700784 873.33448935 598.98402834 C872.55583585 600.65579058 871.7778479 602.32786278 871 604 C803.49774725 604.05143503 735.99549216 604.09913121 668.4932251 604.12702942 C667.49366285 604.12744359 666.4941006 604.12785776 665.46424858 604.12828448 C643.73940343 604.13726387 622.01455808 604.14557432 600.28971241 604.15319599 C589.63536162 604.15693789 578.98101087 604.16082757 568.32666016 604.16479492 C566.7363332 604.16538334 566.7363332 604.16538334 565.11387842 604.16598364 C530.76887957 604.1787604 496.42389556 604.2012889 462.0789057 604.22889166 C426.77558226 604.25721299 391.47226703 604.2756618 356.16893242 604.28174497 C351.17893884 604.28260939 346.18894527 604.2835863 341.19895172 604.28463173 C339.72584442 604.28493513 339.72584442 604.28493513 338.22297738 604.28524467 C322.43462943 604.28878542 306.64630691 604.30268772 290.85796931 604.3204961 C274.97307633 604.33819113 259.08820847 604.34489561 243.20330599 604.34050413 C233.77377612 604.33822795 224.34433845 604.34425585 214.91482528 604.36239263 C208.60384361 604.37369826 202.29292184 604.37395191 195.98193593 604.36549544 C192.39374114 604.36099562 188.80571986 604.36103762 185.21754417 604.37464955 C166.18764292 604.44263855 147.58888905 603.81483825 129.25 598.25 C128.3827832 597.99323486 127.51556641 597.73646973 126.62207031 597.47192383 C118.424202 594.96383475 110.69348954 591.76117609 103 588 C102.33081543 587.68224609 101.66163086 587.36449219 100.97216797 587.03710938 C58.28876678 566.61674193 24.97738154 526.77259519 9.22998047 482.48974609 C6.52479786 474.59591094 4.2889925 466.67834611 2.625 458.5 C2.46942627 457.7366333 2.31385254 456.9732666 2.15356445 456.18676758 C-0.21686574 443.52685422 -0.14344737 430.71068081 -0.12025452 417.88444519 C-0.1206913 416.07481236 -0.12156819 414.26517959 -0.12284368 412.45554715 C-0.12506751 407.51382434 -0.12109644 402.57212342 -0.11606562 397.6304034 C-0.11173082 392.28975038 -0.11320969 386.9490985 -0.1139679 381.60844421 C-0.11449121 372.36565549 -0.11136449 363.12287384 -0.10573006 353.8800869 C-0.09758902 340.51671128 -0.09499717 327.15333908 -0.09374207 313.78996126 C-0.09155564 292.10663564 -0.08490664 270.4233138 -0.07543945 248.73999023 C-0.06625475 227.68172219 -0.05919056 206.62345518 -0.05493164 185.56518555 C-0.05466364 184.25303819 -0.05439565 182.94089084 -0.05411953 181.58898145 C-0.05204 171.32650902 -0.05008311 161.06403656 -0.04816496 150.8015641 C-0.0387382 100.5343726 -0.01861824 50.26719055 0 0 Z " fill="#FEFEFD" transform="translate(0,0)"/>
<path d="M0 0 C71.07375 -0.020625 142.1475 -0.04125 215.375 -0.0625 C249.03765869 -0.07615601 249.03765869 -0.07615601 283.38037109 -0.09008789 C310.78442383 -0.09460449 310.78442383 -0.09460449 323.61343384 -0.09544373 C332.57347883 -0.09637537 341.53351757 -0.10003979 350.49356079 -0.10557556 C360.83486976 -0.11195524 371.17617274 -0.11483258 381.51748369 -0.11344495 C386.80385758 -0.11284431 392.09021811 -0.1137755 397.37658954 -0.11921513 C402.16719506 -0.12411445 406.95777787 -0.12430207 411.74838448 -0.12090111 C413.47027292 -0.12048076 415.19216285 -0.12171649 416.91404843 -0.12488258 C459.14896057 -0.19790708 503.66319579 4.35836805 536.17578125 34.14453125 C557.88220913 56.22280372 565.16118494 84.4476446 565.24023438 114.45678711 C565.24990693 116.66624095 565.28101329 118.87474867 565.3125 121.08398438 C565.49613124 145.75803377 557.77087031 170.53042275 541 189 C540.22785156 189.85335937 539.45570313 190.70671875 538.66015625 191.5859375 C530.35686801 200.32209858 520.83064327 205.90184471 510 211 C510.55945312 211.21914063 511.11890625 211.43828125 511.6953125 211.6640625 C513.43403488 212.35172441 515.16934946 213.04802763 516.90234375 213.75 C519.01231521 214.60143867 521.12994945 215.43407422 523.25390625 216.25 C550.71228691 227.24584755 569.09472116 248.22493053 581.1875 274.6875 C591.76776814 300.24202743 592.03596688 327.93565247 588 355 C587.90348145 355.67885254 587.80696289 356.35770508 587.70751953 357.05712891 C582.94794771 389.46754652 566.76080992 419.09705103 541.1953125 439.65625 C511.61749027 461.35147413 475.70026297 468.77744139 440 473 C439.36778365 473.08423845 438.7355673 473.1684769 438.08419287 473.25526804 C429.56698882 474.27033839 421.0347476 474.1358793 412.47299194 474.12025452 C410.69498682 474.12069244 408.91698177 474.12157026 407.13897705 474.12284851 C402.26091127 474.12508539 397.38286756 474.12108633 392.50480458 474.11607273 C387.16072282 474.11169932 381.81664204 474.11316779 376.47255898 474.11389065 C366.10348528 474.11442186 355.73442026 474.10980888 345.36534879 474.10338932 C333.36897191 474.09618486 321.37260023 474.09539432 309.3762207 474.09460449 C277.70914576 474.08935573 246.04207275 474.0753946 214.375 474.0625 C143.63125 474.041875 72.8875 474.02125 0 474 C0 317.58 0 161.16 0 0 Z " fill="#185633" transform="translate(1356,65)"/>
<path d="M0 0 C97.68 0 195.36 0 296 0 C296 108.57 296 217.14 296 329 C340.55 329 385.1 329 431 329 C431 220.43 431 111.86 431 0 C528.68 0 626.36 0 727 0 C727.33 77.22 727.66 154.44 728 234 C738.52007295 215.43305985 738.52007295 215.43305985 748.6875 196.6875 C753.47544767 187.68936179 758.32551841 178.73192925 763.30078125 169.8359375 C766.76890586 163.63458455 770.19481322 157.40988409 773.625 151.1875 C775.00907778 148.67706304 776.39320455 146.16665309 777.77734375 143.65625 C778.12552155 143.02470001 778.47369934 142.39315002 778.83242798 141.74246216 C781.26155144 137.33704326 783.69442166 132.93370811 786.12890625 128.53125 C792.97164835 116.15353711 799.77428424 103.75627775 806.49560547 91.31201172 C809.9537719 84.91488755 813.45324267 78.54299322 816.99511719 72.19189453 C820.89289483 65.20208537 824.7604473 58.19571259 828.625 51.1875 C829.30606256 49.95271346 829.98713356 48.71793158 830.66821289 47.4831543 C833.89148263 41.63900481 837.11355871 35.79419824 840.33468628 29.9488678 C841.7896276 27.30882074 843.24497478 24.66899753 844.70037842 22.02920532 C845.72465409 20.17098211 846.7483213 18.31242461 847.77197266 16.45385742 C848.39894043 15.3166626 849.0259082 14.17946777 849.671875 13.0078125 C850.2194043 12.01410645 850.76693359 11.02040039 851.33105469 9.99658203 C853.19529822 6.64934314 855.09705894 3.32538322 857 0 C890.97100498 -0.3893093 924.94145398 -0.68876063 958.91419514 -0.8681106 C962.92701265 -0.88937202 966.93982576 -0.91137556 970.95263672 -0.93383789 C971.75149837 -0.93829717 972.55036003 -0.94275645 973.37342961 -0.94735085 C986.30041082 -1.02127867 999.22610383 -1.15528725 1012.15232138 -1.31159753 C1025.42089484 -1.47070673 1038.68879482 -1.5650257 1051.95828307 -1.59950441 C1060.14391388 -1.62280686 1068.32590402 -1.69631667 1076.51041348 -1.83457994 C1082.12684109 -1.92461298 1087.74139385 -1.95156806 1093.35849027 -1.92952342 C1096.59894011 -1.9186515 1099.83172692 -1.94434792 1103.07133484 -2.02649307 C1121.99989164 -2.48286716 1121.99989164 -2.48286716 1126.9886632 1.64580274 C1130.30994898 5.63980339 1132.35363252 10.02315284 1134.16188073 14.86034501 C1135.4462846 18.13933078 1137.16782155 21.09214628 1138.90625 24.15234375 C1140.10734594 26.41237574 1141.3052473 28.67410829 1142.5 30.9375 C1143.80120548 33.38657936 1145.10551437 35.83399985 1146.41015625 38.28125 C1147.02906738 39.44269531 1147.64797852 40.60414062 1148.28564453 41.80078125 C1151.6378081 48.05637103 1155.10872738 54.24445139 1158.57275391 60.43847656 C1161.60828488 65.88643944 1164.61418141 71.35085291 1167.625 76.8125 C1169.00907778 79.32293696 1170.39320455 81.83334691 1171.77734375 84.34375 C1172.12552155 84.97529999 1172.47369934 85.60684998 1172.83242798 86.25753784 C1175.26155144 90.66295674 1177.69442166 95.06629189 1180.12890625 99.46875 C1186.97164835 111.84646289 1193.77428424 124.24372225 1200.49560547 136.68798828 C1203.9537719 143.08511245 1207.45324267 149.45700678 1210.99511719 155.80810547 C1215.58654459 164.04182331 1220.13627264 172.29849175 1224.68798828 180.55419922 C1225.38444009 181.81738282 1226.08089191 183.08056641 1226.77734375 184.34375 C1227.12553162 184.97532013 1227.47371948 185.60689026 1227.8324585 186.25759888 C1230.26157651 190.66299483 1232.69443266 195.06631178 1235.12890625 199.46875 C1241.97164835 211.84646289 1248.77428424 224.24372225 1255.49560547 236.68798828 C1258.94503745 243.06895493 1262.43443881 249.42546804 1265.96875 255.75976562 C1268.67077096 260.60342057 1271.35771066 265.45521958 1274.03515625 270.3125 C1274.39142593 270.9587886 1274.74769562 271.60507721 1275.11476135 272.27095032 C1276.55457747 274.8832808 1277.99414364 277.49574811 1279.43276978 280.10873413 C1280.44170767 281.94122803 1281.45128999 283.77336576 1282.4609375 285.60546875 C1283.04665527 286.66918701 1283.63237305 287.73290527 1284.23583984 288.82885742 C1286.13035878 292.23432469 1288.06655927 295.61647872 1290 299 C1290.33 200.33 1290.66 101.66 1291 0 C1416.41362276 -0.08067779 1416.41362276 -0.08067779 1466.77161349 -0.09698644 C1478.70019216 -0.10085323 1490.62877078 -0.10482683 1502.55734932 -0.10905199 C1504.08172563 -0.10959168 1505.60610195 -0.11012842 1507.13047827 -0.11066218 C1531.38358208 -0.11917875 1555.63667649 -0.13417341 1579.88977464 -0.15259444 C1604.83961242 -0.17151001 1629.78944503 -0.18378253 1654.73928986 -0.18782998 C1658.27238759 -0.18840619 1661.80548529 -0.18905747 1665.33858299 -0.18975449 C1666.03387041 -0.18988933 1666.72915783 -0.19002418 1667.44551457 -0.19016311 C1678.58702938 -0.1925162 1689.72852805 -0.20176416 1700.87003631 -0.21366407 C1712.10170605 -0.22551046 1723.3333603 -0.22975752 1734.56503759 -0.22700275 C1740.63812504 -0.22572919 1746.71116556 -0.22760013 1752.78424454 -0.23841095 C1792.24345572 -0.30503511 1830.97577698 0.04703863 1869 12 C1870.20100342 12.37632568 1870.20100342 12.37632568 1871.42626953 12.76025391 C1896.12998744 20.71187497 1918.03052893 33.65459087 1936.61474609 51.66162109 C1937.80926144 52.81571576 1939.02212082 53.95076858 1940.23828125 55.08203125 C1972.32511515 85.62561062 1986.06299368 133.87493735 1987.18359375 176.91015625 C1987.69731747 208.96804963 1980.70992119 237.64519749 1968 267 C1968.51046875 267.57363281 1969.0209375 268.14726562 1969.546875 268.73828125 C2003.06580816 307.90313401 2015.0554668 360.37817135 2011.53515625 410.9597168 C2007.75821837 457.23134723 1990.4751553 502.51934718 1959 537 C1958.3186499 537.74926758 1958.3186499 537.74926758 1957.62353516 538.51367188 C1923.90183069 575.0762249 1874.72046888 592.17766743 1826.8125 599.8125 C1825.00096436 600.10483521 1825.00096436 600.10483521 1823.15283203 600.40307617 C1801.3152328 603.67626369 1779.45171859 604.29238118 1757.4059906 604.24050903 C1754.60429672 604.24026598 1751.80260757 604.2430547 1749.00091511 604.24568737 C1742.95687374 604.24979298 1736.91287214 604.24662003 1730.86883545 604.23841095 C1721.88186705 604.22623907 1712.89492323 604.22574869 1703.9079481 604.22749493 C1688.78352335 604.23011061 1673.65911621 604.22348627 1658.53469658 604.21146011 C1643.5755956 604.1995961 1628.61650197 604.19192219 1613.65739632 604.18975449 C1612.72471708 604.18961701 1611.79203784 604.18947953 1610.83109559 604.18933788 C1606.09382929 604.18866115 1601.35656299 604.18805841 1596.61929668 604.18748413 C1563.12957497 604.18329154 1529.63986282 604.1698399 1496.15014648 604.15087891 C1463.63029023 604.13248837 1431.11043659 604.11833178 1398.59057617 604.10986328 C1397.58687064 604.10960023 1396.58316511 604.10933718 1395.54904426 604.10906615 C1385.46874323 604.10642895 1375.38844217 604.10387734 1365.3081411 604.10138843 C1344.77631451 604.09631701 1324.24448809 604.09067451 1303.71266174 604.08468628 C1302.29686082 604.08427441 1302.29686082 604.08427441 1300.85245785 604.08385422 C1237.90163459 604.06547581 1174.95081664 604.03378812 1112 604 C1111.17367427 602.34707239 1111.17367427 602.34707239 1110.3306551 600.6607523 C1109.60156738 599.20242797 1108.87247787 597.74410454 1108.14338684 596.28578186 C1107.78104714 595.56096949 1107.41870744 594.83615712 1107.04538774 594.08938074 C1104.96193238 589.92216864 1102.87631059 585.7560726 1100.78385925 581.59336853 C1099.43327004 578.90650113 1098.08553965 576.21820102 1096.73754883 573.5300293 C1096.04362049 572.14717419 1095.34897184 570.76468028 1094.65356445 569.38256836 C1088.25777009 556.66796465 1082.14310196 543.84466774 1076 531 C991.85 530.505 991.85 530.505 906 530 C905.34 531.98 904.68 533.96 904 536 C903.19961698 537.78501459 902.36397449 539.55455645 901.49731445 541.30834961 C900.99951981 542.3205809 900.50172516 543.33281219 899.98884583 544.37571716 C899.18419136 545.99764732 899.18419136 545.99764732 898.36328125 547.65234375 C897.52678291 549.35083214 897.52678291 549.35083214 896.67338562 551.08363342 C895.19095387 554.09257204 893.70542266 557.09993488 892.21807861 560.10644531 C890.14363874 564.30090485 888.07377408 568.49761974 886.00517273 572.69496155 C884.90724074 574.9221321 883.80761034 577.1484666 882.70588684 579.37376404 C879.83699515 585.18690615 877.0364974 591.02679017 874.30314636 596.90455627 C873.98348955 597.59078206 873.66383273 598.27700784 873.33448935 598.98402834 C872.55583585 600.65579058 871.7778479 602.32786278 871 604 C803.49774725 604.05143503 735.99549216 604.09913121 668.4932251 604.12702942 C667.49366285 604.12744359 666.4941006 604.12785776 665.46424858 604.12828448 C643.73940343 604.13726387 622.01455808 604.14557432 600.28971241 604.15319599 C589.63536162 604.15693789 578.98101087 604.16082757 568.32666016 604.16479492 C566.7363332 604.16538334 566.7363332 604.16538334 565.11387842 604.16598364 C530.76887957 604.1787604 496.42389556 604.2012889 462.0789057 604.22889166 C426.77558226 604.25721299 391.47226703 604.2756618 356.16893242 604.28174497 C351.17893884 604.28260939 346.18894527 604.2835863 341.19895172 604.28463173 C339.72584442 604.28493513 339.72584442 604.28493513 338.22297738 604.28524467 C322.43462943 604.28878542 306.64630691 604.30268772 290.85796931 604.3204961 C274.97307633 604.33819113 259.08820847 604.34489561 243.20330599 604.34050413 C233.77377612 604.33822795 224.34433845 604.34425585 214.91482528 604.36239263 C208.60384361 604.37369826 202.29292184 604.37395191 195.98193593 604.36549544 C192.39374114 604.36099562 188.80571986 604.36103762 185.21754417 604.37464955 C166.18764292 604.44263855 147.58888905 603.81483825 129.25 598.25 C128.3827832 597.99323486 127.51556641 597.73646973 126.62207031 597.47192383 C118.424202 594.96383475 110.69348954 591.76117609 103 588 C102.33081543 587.68224609 101.66163086 587.36449219 100.97216797 587.03710938 C58.28876678 566.61674193 24.97738154 526.77259519 9.22998047 482.48974609 C6.52479786 474.59591094 4.2889925 466.67834611 2.625 458.5 C2.46942627 457.7366333 2.31385254 456.9732666 2.15356445 456.18676758 C-0.21686574 443.52685422 -0.14344737 430.71068081 -0.12025452 417.88444519 C-0.1206913 416.07481236 -0.12156819 414.26517959 -0.12284368 412.45554715 C-0.12506751 407.51382434 -0.12109644 402.57212342 -0.11606562 397.6304034 C-0.11173082 392.28975038 -0.11320969 386.9490985 -0.1139679 381.60844421 C-0.11449121 372.36565549 -0.11136449 363.12287384 -0.10573006 353.8800869 C-0.09758902 340.51671128 -0.09499717 327.15333908 -0.09374207 313.78996126 C-0.09155564 292.10663564 -0.08490664 270.4233138 -0.07543945 248.73999023 C-0.06625475 227.68172219 -0.05919056 206.62345518 -0.05493164 185.56518555 C-0.05466364 184.25303819 -0.05439565 182.94089084 -0.05411953 181.58898145 C-0.05204 171.32650902 -0.05008311 161.06403656 -0.04816496 150.8015641 C-0.0387382 100.5343726 -0.01861824 50.26719055 0 0 Z M33 33 C32.91257656 104.89843224 32.91257656 104.89843224 32.85351562 176.796875 C32.84764235 186.49804703 32.841581 196.19921891 32.83520508 205.90039062 C32.83441383 207.11620969 32.83362259 208.33202875 32.83280736 209.58469081 C32.81977318 229.19182485 32.7961293 248.79893238 32.76854161 268.40605073 C32.74044877 288.54069695 32.72381554 308.67532933 32.71773452 328.80999434 C32.71362612 341.22581155 32.70066812 353.64155388 32.6762506 366.05734803 C32.66034551 374.58093368 32.65561042 383.10448083 32.65949587 391.62808023 C32.66141 396.53960772 32.65855599 401.45100472 32.64238358 406.36250877 C32.62764717 410.87114965 32.62713546 415.37957384 32.63730332 419.88822527 C32.6385576 421.50765092 32.63486929 423.12709081 32.62535045 424.74648897 C32.43219392 459.67725666 44.83758001 492.76739347 68 519 C68.83015625 519.96292969 69.6603125 520.92585938 70.515625 521.91796875 C94.57168358 549.37175053 128.37866818 568.04859014 165 571 C168.9357184 571.13466704 172.86760357 571.1326676 176.80532932 571.12304783 C178.55571018 571.1247786 178.55571018 571.1247786 180.34145227 571.12654433 C183.57223317 571.12873071 186.80297486 571.12645024 190.03375262 571.12226619 C193.55160487 571.11882047 197.06945403 571.12120498 200.58730692 571.12284368 C206.74987704 571.12491449 212.91243749 571.12327865 219.07500648 571.11920547 C228.23849362 571.11316568 237.40197467 571.11287012 246.56546343 571.11374746 C261.98057002 571.11506087 277.39567232 571.11172183 292.81077766 571.10573006 C308.07337528 571.09981277 323.33597111 571.09596406 338.59856987 571.09487724 C339.54759876 571.0948085 340.49662764 571.09473976 341.47441498 571.09466894 C346.29406512 571.09433061 351.11371526 571.09402922 355.9333654 571.09374207 C390.06975458 571.09164173 424.20614143 571.08490457 458.3425293 571.07543945 C491.50528959 571.06625491 524.66804924 571.05917135 557.83081055 571.05493164 C558.85305511 571.05480011 559.87529968 571.05466859 560.92852135 571.05453308 C571.19433371 571.05321456 581.46014608 571.05193874 591.72595846 571.05069422 C612.63854896 571.04815801 633.55113942 571.04533676 654.46372986 571.04234314 C655.42525416 571.04220585 656.38677846 571.04206856 657.37743987 571.04192711 C721.58496088 571.03272665 785.7924806 571.01688147 850 571 C850.68210918 569.5922753 850.68210918 569.5922753 851.37799835 568.15611172 C853.09236591 564.61818795 854.80703926 561.08041246 856.52179718 557.54267788 C857.25882708 556.02199964 857.995778 554.50128311 858.73264313 552.98052502 C863.04355879 544.08371424 867.36382149 535.19178553 871.71875 526.31640625 C872.53261562 524.6556301 873.34642695 522.99482733 874.16015625 521.33398438 C875.3585961 518.88861435 876.55837372 516.44393333 877.76123047 514.00073242 C878.97980009 511.5243527 880.19348788 509.04563406 881.40625 506.56640625 C881.77165894 505.82717422 882.13706787 505.0879422 882.5135498 504.3263092 C884.36134543 500.8270959 884.36134543 500.8270959 885 497 C954.96 497.33 1024.92 497.66 1097 498 C1109.55373616 523.10747232 1109.55373616 523.10747232 1113.375 531.1875 C1114.27574597 533.07956788 1115.17680267 534.97148786 1116.078125 536.86328125 C1116.54283203 537.83990723 1117.00753906 538.8165332 1117.48632812 539.82275391 C1120.06297433 545.2312174 1122.64936936 550.63497151 1125.24249268 556.03555298 C1126.11299979 557.84998746 1126.98107769 559.66558674 1127.84912109 561.48120117 C1128.37586426 562.57795166 1128.90260742 563.67470215 1129.4453125 564.8046875 C1130.14938232 566.27397705 1130.14938232 566.27397705 1130.86767578 567.77294922 C1131.81238852 569.91566717 1131.81238852 569.91566717 1133 571 C1134.41683608 571.09847364 1135.83856143 571.12749657 1137.25881487 571.12880117 C1138.64869432 571.13370946 1138.64869432 571.13370946 1140.06665215 571.13871691 C1141.09862446 571.13723328 1142.13059678 571.13574966 1143.19384098 571.13422108 C1144.82882542 571.13774942 1144.82882542 571.13774942 1146.49683985 571.14134905 C1150.19907991 571.14807795 1153.90128519 571.14757965 1157.60353088 571.14717102 C1160.2652576 571.15046735 1162.92698119 571.1541544 1165.58870643 571.1583125 C1172.16978075 571.16766306 1178.75084833 571.17156472 1185.33192845 571.17383147 C1193.21141955 571.17678769 1201.09090166 571.18548243 1208.97038806 571.19424575 C1228.03341669 571.21512843 1247.0964469 571.22557085 1266.15948431 571.23437535 C1275.18805551 571.23858145 1284.21662605 571.24380389 1293.2451967 571.24905988 C1324.1769215 571.26696452 1355.1086465 571.28195333 1386.04037571 571.28938007 C1387.98409786 571.28985483 1389.92782 571.29033072 1391.87154215 571.29080774 C1392.83544029 571.29104411 1393.79933844 571.29128049 1394.79244561 571.29152403 C1399.6758394 571.29272519 1404.55923318 571.29394065 1409.44262695 571.29516602 C1410.89631323 571.29552624 1410.89631323 571.29552624 1412.37936691 571.29589374 C1443.71629065 571.30376564 1475.05317628 571.32714623 1506.39008341 571.35972196 C1539.54927156 571.39412863 1572.70843748 571.41374186 1605.86764377 571.41702431 C1609.51882264 571.41744181 1613.17000149 571.41792136 1616.82118034 571.41844749 C1618.16963638 571.41863228 1618.16963638 571.41863228 1619.54533396 571.4188208 C1633.9358654 571.42114093 1648.3263523 571.43673571 1662.71686794 571.45728934 C1677.23197964 571.47768894 1691.7470386 571.48295889 1706.26216198 571.47351871 C1714.10698217 571.46880497 1721.95167109 571.47025143 1729.79647064 571.49028015 C1788.95798866 572.13392584 1788.95798866 572.13392584 1847 562 C1849.00509834 561.46833502 1851.01031218 560.93710545 1853.015625 560.40625 C1865.56773406 556.99743599 1877.35330108 552.7845182 1889 547 C1889.72268066 546.64679687 1890.44536133 546.29359375 1891.18994141 545.9296875 C1907.0353649 538.12454423 1920.48182683 528.45013962 1933 516 C1933.48597656 515.51805176 1933.97195313 515.03610352 1934.47265625 514.53955078 C1946.4897759 502.45284971 1954.92164341 488.41765007 1962 473 C1962.45802002 472.03102783 1962.45802002 472.03102783 1962.92529297 471.04248047 C1968.92835386 458.22548073 1972.23747091 444.84319475 1975 431 C1975.18079102 430.09636719 1975.36158203 429.19273437 1975.54785156 428.26171875 C1978.05531939 414.96167073 1978.30134152 401.61598102 1978.375 388.125 C1978.3830365 387.30328308 1978.391073 386.48156616 1978.39935303 385.63494873 C1978.7038818 344.60969423 1961.64717446 306.95039849 1933.0625 277.875 C1930.83686123 275.71891244 1928.56910931 273.74699433 1926 272 C1927.26132335 268.50710457 1928.70983863 265.90674328 1931 263 C1954.36261341 230.12651057 1957.75393896 187.69597467 1951.54785156 148.99121094 C1948.98160136 134.97975931 1944.22949018 121.77187712 1938 109 C1937.51789063 108.00742188 1937.03578125 107.01484375 1936.5390625 105.9921875 C1919.80694482 73.54482116 1889.12891383 53.44838665 1855.30053711 42.34228516 C1830.77811654 34.83205365 1805.0379392 32.67415392 1779.52410889 32.75949097 C1777.54344225 32.7586163 1775.56277584 32.75686054 1773.58211064 32.75431263 C1768.2001181 32.74988638 1762.81820669 32.75777692 1757.43622446 32.76786876 C1751.60966421 32.77656988 1745.7831079 32.77357842 1739.95654297 32.77206421 C1729.88173097 32.77101954 1719.80694503 32.77725222 1709.73213959 32.78853989 C1695.16597204 32.80484891 1680.59981444 32.81001508 1666.0336391 32.81251587 C1642.39644245 32.81670679 1618.75925934 32.83015374 1595.12207031 32.84912109 C1572.17155019 32.86751606 1549.22103382 32.88163662 1526.27050781 32.89013672 C1524.82508206 32.890678 1523.37965631 32.89121941 1521.93423057 32.89176095 C1510.74177368 32.8959326 1499.54931669 32.89983391 1488.35685968 32.90367007 C1433.57122706 32.92251037 1378.78562918 32.96275339 1324 33 C1323.67 163.35 1323.34 293.7 1323 428 C1318.71 420.08 1314.42 412.16 1310 404 C1306.39090106 397.48487114 1306.39090106 397.48487114 1302.76953125 390.9765625 C1298.59165602 383.48036743 1294.45548022 375.96104703 1290.31201172 368.44580078 C1289.61555991 367.18261718 1288.91910809 365.91943359 1288.22265625 364.65625 C1287.87446838 364.02467987 1287.52628052 363.39310974 1287.1675415 362.74240112 C1284.73842349 358.33700517 1282.30556734 353.93368822 1279.87109375 349.53125 C1273.02835165 337.15353711 1266.22571576 324.75627775 1259.50439453 312.31201172 C1256.0462281 305.91488755 1252.54675733 299.54299322 1249.00488281 293.19189453 C1244.41345541 284.95817669 1239.86372736 276.70150825 1235.31201172 268.44580078 C1234.61555991 267.18261718 1233.91910809 265.91943359 1233.22265625 264.65625 C1232.87446838 264.02467987 1232.52628052 263.39310974 1232.1675415 262.74240112 C1229.73842349 258.33700517 1227.30556734 253.93368822 1224.87109375 249.53125 C1218.02835165 237.15353711 1211.22571576 224.75627775 1204.50439453 212.31201172 C1201.0462281 205.91488755 1197.54675733 199.54299322 1194.00488281 193.19189453 C1189.41345541 184.95817669 1184.86372736 176.70150825 1180.31201172 168.44580078 C1179.61555991 167.18261718 1178.91910809 165.91943359 1178.22265625 164.65625 C1177.87446838 164.02467987 1177.52628052 163.39310974 1177.1675415 162.74240112 C1174.73842349 158.33700517 1172.30556734 153.93368822 1169.87109375 149.53125 C1163.02835165 137.15353711 1156.22571576 124.75627775 1149.50439453 112.31201172 C1146.04856751 105.91921513 1142.55270501 99.55091596 1139.01147461 93.20507812 C1136.4205874 88.56112232 1133.84490688 83.90904111 1131.28125 79.25 C1124.75467152 67.39039995 1118.2139757 55.54018795 1111.5625 43.75 C1111.01295654 42.77393799 1110.46341309 41.79787598 1109.8972168 40.79223633 C1109.39617432 39.90689209 1108.89513184 39.02154785 1108.37890625 38.109375 C1107.9413501 37.33561523 1107.50379395 36.56185547 1107.05297852 35.76464844 C1106.12139872 34.03976967 1106.12139872 34.03976967 1105 33 C1102.06695272 32.90202935 1099.15744612 32.87008196 1096.22398376 32.87974548 C1095.2920794 32.87889106 1094.36017504 32.87803663 1093.40003115 32.87715632 C1090.25226407 32.87549866 1087.10454934 32.88102753 1083.95678711 32.88647461 C1081.71036277 32.88675645 1079.46393833 32.88659882 1077.21751404 32.8860321 C1071.09792571 32.88574399 1064.97835679 32.89164294 1058.85877299 32.89860606 C1052.47124373 32.90483731 1046.08371408 32.90544322 1039.69618225 32.90663147 C1028.96826781 32.90939118 1018.24036189 32.91564671 1007.51245117 32.92456055 C996.46069372 32.93373394 985.40893822 32.94081513 974.35717773 32.94506836 C973.67640547 32.94533108 972.9956332 32.94559381 972.29423147 32.94586449 C968.87913387 32.94716949 965.46403625 32.94843321 962.04893863 32.94967639 C933.69928749 32.96004988 905.34964413 32.97774308 877 33 C874.91532586 36.68070559 872.83194181 40.36213987 870.7487793 44.04370117 C869.86874866 45.59743061 869.86874866 45.59743061 868.97093964 47.18254852 C864.82488084 54.51186489 860.76757449 61.87820932 856.8125 69.3125 C852.18931924 77.94672639 847.50942043 86.54279848 842.734375 95.09375 C839.25810811 101.32052761 835.81808835 107.56734068 832.375 113.8125 C832.03554352 114.42818848 831.69608704 115.04387695 831.34634399 115.67822266 C831.00493378 116.29745605 830.66352356 116.91668945 830.31176758 117.5546875 C829.61539793 118.81770877 828.91902749 120.0807296 828.22265625 121.34375 C827.87447342 121.97531006 827.52629059 122.60687012 827.16755676 123.25756836 C824.73843602 127.66297578 822.30557284 132.06630184 819.87109375 136.46875 C813.02835165 148.84646289 806.22571576 161.24372225 799.50439453 173.68798828 C796.0462281 180.08511245 792.54675733 186.45700678 789.00488281 192.80810547 C784.41345541 201.04182331 779.86372736 209.29849175 775.31201172 217.55419922 C774.61555991 218.81738282 773.91910809 220.08056641 773.22265625 221.34375 C772.87446838 221.97532013 772.52628052 222.60689026 772.1675415 223.25759888 C769.73842349 227.66299483 767.30556734 232.06631178 764.87109375 236.46875 C758.02835165 248.84646289 751.22571576 261.24372225 744.50439453 273.68798828 C741.0462281 280.08511245 737.54675733 286.45700678 734.00488281 292.80810547 C730.10710492 299.79791507 726.2396347 306.80433233 722.375 313.8125 C721.69467458 315.04582429 721.01433598 316.27914132 720.33398438 317.51245117 C717.10041024 323.37472075 713.86853766 329.23792271 710.63952637 335.10270691 C709.17506911 337.76229298 707.70991899 340.42149702 706.24468994 343.08065796 C705.54605484 344.34903905 704.84776564 345.61761073 704.14984131 346.88638306 C703.17756259 348.65388738 702.20404047 350.42070755 701.23046875 352.1875 C700.67770264 353.19167969 700.12493652 354.19585937 699.55541992 355.23046875 C698.08532332 357.84807602 696.54460605 360.42565659 695 363 C694.67 254.1 694.34 145.2 694 33 C618.1 33 542.2 33 464 33 C463.95101563 56.42613281 463.90203125 79.85226563 463.8515625 103.98828125 C463.81619763 118.78581095 463.78034413 133.583337 463.7421875 148.38085938 C463.72217838 156.15063438 463.70229375 163.92040969 463.68261719 171.69018555 C463.67891003 173.15097948 463.67891003 173.15097948 463.67512798 174.64128441 C463.63537023 190.37927993 463.60264508 206.11728267 463.57250018 221.85529921 C463.54142511 237.99756257 463.50283273 254.13979522 463.45720994 270.28202409 C463.42927943 280.2487703 463.40726625 290.21549397 463.39273749 300.18226888 C463.38222416 307.00976404 463.36443251 313.83721563 463.34083296 320.66467801 C463.32741932 324.60825598 463.31729556 328.55177267 463.31578636 332.49537468 C463.31433553 336.10207025 463.30379536 339.70861806 463.28586559 343.3152683 C463.27867884 345.24566348 463.28136172 347.1760875 463.28433573 349.10649377 C463.27687024 350.24457048 463.26940475 351.38264719 463.26171303 352.55521107 C463.25943471 353.54134476 463.25715638 354.52747846 463.25480902 355.543495 C463 358 463 358 461 361 C458.37946452 361.30107874 455.99363356 361.40431323 453.36999512 361.38095093 C452.57340469 361.3856309 451.77681426 361.39031087 450.95608473 361.39513266 C448.27198885 361.40715185 445.58839704 361.39759866 442.90429688 361.38818359 C440.98608602 361.39224623 439.06787751 361.39758636 437.14967346 361.40411377 C431.92869174 361.41782986 426.70788719 361.41247105 421.48690224 361.40297651 C416.03321465 361.39540209 410.57954264 361.40241933 405.12585449 361.40713501 C395.96587387 361.41259905 386.80596572 361.40538396 377.64599609 361.39111328 C367.04295211 361.37478555 356.44008116 361.3800736 345.83704138 361.3965925 C336.74743333 361.41018892 327.6578775 361.41213607 318.56826258 361.40427649 C313.13332436 361.39958981 307.69846759 361.39900234 302.26353455 361.40888596 C297.15491031 361.41752656 292.04651002 361.4115871 286.93791008 361.39420319 C285.05851044 361.39022275 283.17909208 361.39139881 281.29969978 361.39799118 C278.74287688 361.4061356 276.1867809 361.395972 273.63000488 361.38095093 C272.87845989 361.38764309 272.12691489 361.39433526 271.35259581 361.40123022 C269.2858963 361.37752342 269.2858963 361.37752342 266 361 C263.75070653 357.6260598 263.74741033 356.50410408 263.73828697 352.55521107 C263.73082148 351.41713436 263.72335599 350.27905765 263.71566427 349.10649377 C263.71856637 347.22276426 263.71856637 347.22276426 263.7215271 345.30097961 C263.71652662 343.95782689 263.71065156 342.61467719 263.70397437 341.27153176 C263.68813027 337.57278299 263.68474127 333.87411008 263.68332577 330.17533147 C263.67963939 326.18963976 263.66448776 322.20399005 263.65071106 318.21832275 C263.62841038 311.31026459 263.61341401 304.40222131 263.60334396 297.4941349 C263.58877377 287.50614129 263.56324166 277.51819951 263.53501268 267.53023627 C263.48951445 251.32640494 263.45291219 235.12256617 263.421875 218.91870117 C263.39170186 203.1758493 263.35733446 187.43301577 263.31738281 171.69018555 C263.3149013 170.71030106 263.3124198 169.73041657 263.30986309 168.72083861 C263.29042397 161.05777994 263.27074116 153.39472191 263.25098133 145.73166406 C263.15414785 108.15446496 263.07857456 70.57725029 263 33 C187.1 33 111.2 33 33 33 Z " fill="#FDB614" transform="translate(0,0)"/>
<path d="M0 0 C24.68641739 -0.18679058 49.37272905 -0.32791071 74.0597105 -0.41449738 C85.52206211 -0.45576783 96.98397493 -0.51204426 108.44604492 -0.60351562 C118.43513156 -0.68319414 128.42390047 -0.7348517 138.41329604 -0.75270796 C143.70397219 -0.76314787 148.9937393 -0.78772143 154.28412437 -0.84584045 C159.26248435 -0.90008923 164.23955986 -0.91690362 169.21818733 -0.90486145 C171.04641066 -0.90706477 172.87467633 -0.9230118 174.70264435 -0.9536438 C188.54619991 -1.17427238 188.54619991 -1.17427238 192.15671825 1.74203777 C193.48415541 3.82054981 194.26786009 5.65555149 195 8 C195.54970459 8.93884033 196.09940918 9.87768066 196.66577148 10.8449707 C197.14602783 11.69663818 197.62628418 12.54830566 198.12109375 13.42578125 C198.66443359 14.38806641 199.20777344 15.35035156 199.76757812 16.34179688 C200.59418945 17.81229492 200.59418945 17.81229492 201.4375 19.3125 C201.98470703 20.28123047 202.53191406 21.24996094 203.09570312 22.24804688 C208.55752653 31.93712768 213.86576054 41.69622369 219 51.5625 C222.05933928 57.41157286 225.19549054 63.16142212 228.65625 68.78515625 C232.16264261 74.56458825 235.26236608 80.58060235 238.390625 86.5703125 C244.26367675 97.82277393 244.26367675 97.82277393 250.65625 108.78515625 C254.16264261 114.56458825 257.26236608 120.58060235 260.390625 126.5703125 C266.26367675 137.82277393 266.26367675 137.82277393 272.65625 148.78515625 C276.16264261 154.56458825 279.26236608 160.58060235 282.390625 166.5703125 C288.26367675 177.82277393 288.26367675 177.82277393 294.65625 188.78515625 C298.16264261 194.56458825 301.26236608 200.58060235 304.390625 206.5703125 C310.26367675 217.82277393 310.26367675 217.82277393 316.65625 228.78515625 C320.16264261 234.56458825 323.26236608 240.58060235 326.390625 246.5703125 C332.26367675 257.82277393 332.26367675 257.82277393 338.65625 268.78515625 C342.16264261 274.56458825 345.26236608 280.58060235 348.390625 286.5703125 C354.26367675 297.82277393 354.26367675 297.82277393 360.65625 308.78515625 C364.16264261 314.56458825 367.26236608 320.58060235 370.390625 326.5703125 C376.26367675 337.82277393 376.26367675 337.82277393 382.65625 348.78515625 C386.16264261 354.56458825 389.26236608 360.58060235 392.390625 366.5703125 C398.26367675 377.82277393 398.26367675 377.82277393 404.65625 388.78515625 C408.16264261 394.56458825 411.26236608 400.58060235 414.390625 406.5703125 C420.26367675 417.82277393 420.26367675 417.82277393 426.65625 428.78515625 C430.16264261 434.56458825 433.26236608 440.58060235 436.390625 446.5703125 C437.26037224 448.23439822 438.13016473 449.89846029 439 451.5625 C439.43070801 452.38806396 439.86141602 453.21362793 440.30517578 454.06420898 C443.02100265 459.23753301 445.86499494 464.27734023 449.0390625 469.1875 C450 471 450 471 450 474 C386.31 474 322.62 474 257 474 C254.36 468.72 251.72 463.44 249 458 C248.07574219 456.16308594 247.15148438 454.32617188 246.19921875 452.43359375 C240.97440633 442.04901228 235.85770855 431.62032531 230.87963867 421.11499023 C227.6742464 414.35965213 224.34618814 407.69237628 221 401 C137.84 401 54.68 401 -31 401 C-34.63 408.59 -38.26 416.18 -42 424 C-43.93125119 427.97554838 -45.86526361 431.94843622 -47.81640625 435.9140625 C-48.77412376 437.86717023 -49.73180516 439.82029567 -50.68945312 441.7734375 C-52.14366327 444.73598411 -53.59848415 447.69822884 -55.05395508 450.66015625 C-56.49715181 453.59820247 -57.93815185 456.53731803 -59.37890625 459.4765625 C-60.03349571 460.80610458 -60.03349571 460.80610458 -60.7013092 462.1625061 C-61.10611008 462.98882538 -61.51091095 463.81514465 -61.92797852 464.66650391 C-62.28118668 465.3854483 -62.63439484 466.1043927 -62.99830627 466.84512329 C-64.08853159 469.19045209 -65.03945716 471.59864291 -66 474 C-130.02 474 -194.04 474 -260 474 C-258.478658 470.196645 -256.90185917 466.78703705 -254.98046875 463.1953125 C-254.3771875 462.06673828 -253.77390625 460.93816406 -253.15234375 459.77539062 C-252.49762463 458.55847063 -251.84267078 457.34167689 -251.1875 456.125 C-250.85331055 455.50230225 -250.51912109 454.87960449 -250.17480469 454.23803711 C-245.21497116 444.99910839 -240.12203882 435.84501784 -234.92333984 426.73803711 C-230.59237488 419.12148971 -226.43284792 411.41910466 -222.3125 403.6875 C-217.51810698 394.69273482 -212.67454924 385.73205021 -207.69921875 376.8359375 C-204.23109414 370.63458455 -200.80518678 364.40988409 -197.375 358.1875 C-195.99092222 355.67706304 -194.60679545 353.16665309 -193.22265625 350.65625 C-192.87447845 350.02470001 -192.52630066 349.39315002 -192.16757202 348.74246216 C-189.73844856 344.33704326 -187.30557834 339.93370811 -184.87109375 335.53125 C-178.02835165 323.15353711 -171.22571576 310.75627775 -164.50439453 298.31201172 C-161.0462281 291.91488755 -157.54675733 285.54299322 -154.00488281 279.19189453 C-149.41345541 270.95817669 -144.86372736 262.70150825 -140.31201172 254.44580078 C-139.61555991 253.18261718 -138.91910809 251.91943359 -138.22265625 250.65625 C-137.87446838 250.02467987 -137.52628052 249.39310974 -137.1675415 248.74240112 C-134.73842349 244.33700517 -132.30556734 239.93368822 -129.87109375 235.53125 C-123.02835165 223.15353711 -116.22571576 210.75627775 -109.50439453 198.31201172 C-106.0462281 191.91488755 -102.54675733 185.54299322 -99.00488281 179.19189453 C-94.41345541 170.95817669 -89.86372736 162.70150825 -85.31201172 154.44580078 C-84.61555991 153.18261718 -83.91910809 151.91943359 -83.22265625 150.65625 C-82.87446838 150.02467987 -82.52628052 149.39310974 -82.1675415 148.74240112 C-79.73842349 144.33700517 -77.30556734 139.93368822 -74.87109375 135.53125 C-68.02835165 123.15353711 -61.22571576 110.75627775 -54.50439453 98.31201172 C-51.0462281 91.91488755 -47.54675733 85.54299322 -44.00488281 79.19189453 C-40.10710484 72.20208478 -36.23966412 65.19565154 -32.375 58.1875 C-31.69101408 56.94758302 -31.00701335 55.70767421 -30.32299805 54.46777344 C-27.13572836 48.68964214 -23.9501711 42.91057521 -20.76846313 37.12937927 C-19.35266962 34.55717657 -17.93604875 31.98542999 -16.51934814 29.41372681 C-15.53861557 27.6326293 -14.55907813 25.85087388 -13.57958984 24.0690918 C-10.35357631 18.21342435 -7.09074714 12.38274376 -3.76757812 6.58178711 C-3.40279358 5.94424248 -3.03800903 5.30669785 -2.66217041 4.64983368 C-1.7751477 3.09967882 -0.88762692 1.54980897 0 0 Z " fill="#185633" transform="translate(896,65)"/>
<path d="M0 0 C54.45 0 108.9 0 165 0 C165.03867187 32.20207031 165.03867187 32.20207031 165.078125 65.0546875 C165.10328411 78.63542524 165.12942199 92.21615043 165.16015625 105.796875 C165.17624816 112.93033789 165.1920916 120.06380127 165.20751953 127.19726562 C165.20946347 128.0913097 165.21140741 128.98535377 165.21341026 129.90649009 C165.24441761 144.33375269 165.26140176 158.76099939 165.27319422 173.18828903 C165.28561211 187.99832516 165.31312792 202.80827795 165.35461307 217.61826146 C165.37973021 226.75433276 165.39311858 235.89026583 165.39142957 245.02637215 C165.39139978 251.2942312 165.40605609 257.56194958 165.43216428 263.8297538 C165.4467892 267.44415621 165.45503143 271.05827018 165.44580269 274.67269707 C165.43595159 278.59740325 165.45707404 282.5216056 165.48101807 286.44625854 C165.47325765 287.58052367 165.46549723 288.7147888 165.45750165 289.88342559 C165.57307603 300.59973747 169.09011678 309.76011713 176 318 C183.53166946 325.07812002 190.5214971 328.46329796 200.78486633 328.39440918 C201.6454212 328.40050028 202.50597606 328.40659139 203.39260834 328.41286707 C206.26358372 328.42945775 209.13411367 328.42472686 212.00512695 328.41992188 C214.06873026 328.42726453 216.13232945 328.43585133 218.19592285 328.44558716 C223.79314512 328.46779237 229.39022013 328.47073428 234.9874804 328.46883965 C239.66429009 328.46871989 244.34106864 328.47728637 249.01786965 328.48561716 C260.05449611 328.5048481 271.09104693 328.50773634 282.12768555 328.50097656 C293.50270827 328.49433753 304.87740657 328.51719551 316.2523635 328.55429029 C326.02754594 328.58500814 335.80262414 328.596345 345.57785386 328.59245348 C351.41210749 328.59038796 357.24610872 328.59583495 363.08031654 328.62034607 C368.56914308 328.64264452 374.05744312 328.64070919 379.54627228 328.62041855 C381.55616606 328.6170139 383.56609549 328.62207397 385.57594109 328.63640213 C400.06535669 328.93202576 400.06535669 328.93202576 413 323 C413.66626058 322.53358849 414.33252115 322.06717697 415.01897144 321.58663177 C420.14235632 317.81554005 423.14416921 312.58856542 426 307 C426.77222003 305.56359618 426.77222003 305.56359618 427.56004047 304.0981741 C429.77586971 298.83729848 429.42248305 293.38943523 429.39872742 287.76905823 C429.40537424 286.53801155 429.41202107 285.30696486 429.41886932 284.03861374 C429.43426577 280.63380153 429.43634254 277.22945718 429.43273985 273.82464373 C429.43211511 270.14848679 429.44874443 266.47240261 429.46325684 262.79627991 C429.48603301 256.43121868 429.49792625 250.06621215 429.50238609 243.70111275 C429.50885003 234.49831155 429.53179171 225.29560917 429.55872939 216.09284782 C429.60198971 201.16127769 429.63196078 186.22971172 429.65356445 171.2980957 C429.6745764 156.79514516 429.70188753 142.29222886 429.73754883 127.78930664 C429.74086909 126.43424425 429.74086909 126.43424425 429.74425644 125.05180687 C429.76161718 117.98661145 429.77934278 110.92141697 429.79718363 103.85622275 C429.88450859 69.23750308 429.94001642 34.6187987 430 0 C484.45 0 538.9 0 595 0 C595.12099405 94.29469412 595.12099405 94.29469412 595.14648438 133.68359375 C595.15235779 142.69905616 595.15841917 151.7145184 595.16479492 160.72998047 C595.16598179 162.42483788 595.16598179 162.42483788 595.16719264 164.15393484 C595.18023226 182.38340669 595.20387915 200.61285009 595.23145839 218.84230508 C595.25953607 237.55763628 595.27618126 256.27295262 595.28226548 274.98830402 C595.28637702 286.53198644 595.29935215 298.07558845 595.3237494 309.61924611 C595.33963575 317.54056023 595.3443938 325.46183292 595.34050413 333.3831618 C595.3385871 337.9499022 595.34147751 342.51650231 595.35761642 347.08321762 C595.37231142 351.27214819 595.37289071 355.46084531 595.36269668 359.64978705 C595.36143844 361.15743332 595.36516228 362.66509469 595.37464955 364.17271163 C595.55537979 394.6911904 581.90921012 420.45071202 561 442 C540.58656306 462.4828704 512.96933745 474.21966065 484.13489127 474.27214891 C482.62091257 474.26851717 481.10693432 474.26469288 479.59295654 474.26069641 C477.95645545 474.26372204 476.31995578 474.26761358 474.68345857 474.27228898 C470.21501112 474.28252481 465.7466443 474.28039847 461.27819037 474.27610838 C456.44777558 474.27363308 451.6173798 474.28266532 446.78697205 474.29014587 C437.3343189 474.30287293 427.88169418 474.30468903 418.42903391 474.30234561 C410.74209697 474.30055994 403.05516864 474.30231744 395.36823273 474.30657005 C393.72487328 474.30746284 393.72487328 474.30746284 392.04831465 474.30837366 C389.82237575 474.30958546 387.59643686 474.31079959 385.37049797 474.31201603 C364.51113195 474.32288405 343.6517821 474.32073267 322.79241517 474.31463119 C303.73094692 474.30946359 284.6695298 474.32071465 265.60807166 474.33972941 C246.01319463 474.35912568 226.41834178 474.36736061 206.8234551 474.36360615 C195.83151266 474.36169671 184.83961372 474.36415654 173.84767914 474.37832069 C164.48924852 474.39025833 155.13088818 474.39161275 145.77245656 474.37953053 C141.00286772 474.37365836 136.23340728 474.37249618 131.46382713 474.38453293 C127.08775347 474.39544773 122.71191453 474.39222247 118.33585158 474.37827124 C116.76258482 474.37563961 115.18929933 474.37794195 113.61605105 474.38600711 C86.57775051 474.51486805 61.42761596 466.02641409 41 448 C40.17113281 447.29101562 39.34226563 446.58203125 38.48828125 445.8515625 C24.09224427 433.28534339 13.58254154 418.51445765 6 401 C5.73008389 400.38274473 5.46016778 399.76548945 5.1820724 399.12952948 C-1.81938803 382.24246888 -0.82290252 364.38434455 -0.69639373 346.46780849 C-0.67020849 341.80690675 -0.67927035 337.14604688 -0.68380737 332.48509216 C-0.68693635 324.43185613 -0.66829223 316.3789143 -0.63438034 308.32575226 C-0.58538334 296.68263273 -0.56996779 285.03965382 -0.56245239 273.39644238 C-0.54935721 254.50103092 -0.50952741 235.60577588 -0.45263672 216.71044922 C-0.39746751 198.36768368 -0.35504361 180.02496079 -0.32958984 161.68212891 C-0.3280135 160.54933806 -0.32643716 159.41654722 -0.32481305 158.24942937 C-0.31698219 152.56591118 -0.30940009 146.88239269 -0.30194163 141.198874 C-0.23985533 94.13244369 -0.12930667 47.06630305 0 0 Z " fill="#185633" transform="translate(66,65)"/>
<path d="M0 0 C41.60616566 -0.08060607 41.60616566 -0.08060607 59.08398438 -0.09765625 C71.13665475 -0.10950867 83.18929709 -0.12341814 95.24194336 -0.15087891 C104.02106683 -0.17087167 112.80016749 -0.18373037 121.5793131 -0.18817699 C126.22376888 -0.19077443 130.86815943 -0.19683923 135.51259422 -0.21146011 C139.89313941 -0.22513721 144.27359312 -0.22920238 148.65415764 -0.22621536 C150.2531967 -0.22676103 151.85223915 -0.2306777 153.45125961 -0.23841095 C170.30761785 -0.31586404 187.25502654 0.47032484 200.08984375 12.74609375 C208.03673437 22.12309966 208.63688559 32.22941069 208 44 C206.69077331 52.94268402 203.09873475 59.01204186 196.6875 65.25 C186.87985419 71.63637401 176.24385524 74.12873912 164.62843323 74.12025452 C163.56590526 74.12153615 163.56590526 74.12153615 162.48191208 74.12284368 C160.12666827 74.12448067 157.77149692 74.11900651 155.41625977 74.11352539 C153.72066754 74.11324311 152.02507519 74.11340206 150.32948303 74.1139679 C145.73912409 74.11425427 141.14879139 74.10838342 136.55843854 74.10139394 C131.7564846 74.09513373 126.95453002 74.09455449 122.15257263 74.09336853 C113.06506275 74.09026308 103.97756494 74.08206028 94.89006037 74.07201904 C84.54184989 74.0608335 74.19363883 74.0553413 63.84542382 74.05032361 C42.56360766 74.03987701 21.28180802 74.0215413 0 74 C0 49.58 0 25.16 0 0 Z " fill="#FDFEFD" transform="translate(1539,349)"/>
<path d="M0 0 C20.13262815 -0.06783231 40.26516316 -0.1230488 60.39787674 -0.15543652 C69.74673822 -0.17087725 79.09552343 -0.19191312 88.44433594 -0.22631836 C96.59682352 -0.25630651 104.74925584 -0.27559529 112.90179706 -0.28226548 C117.21482613 -0.28616185 121.52769715 -0.29526004 125.84067535 -0.31719017 C129.90853606 -0.33770442 133.97617512 -0.34380395 138.04408264 -0.33932304 C139.5290574 -0.34014162 141.01404035 -0.34601772 142.49897003 -0.35761642 C155.7149447 -0.45569482 169.37170702 1.11943564 180.3125 9.25 C185.54450773 14.60368233 187.50115989 19.9703113 187.546875 27.421875 C187.53140625 28.27265625 187.5159375 29.1234375 187.5 30 C187.52320313 31.27617187 187.52320313 31.27617187 187.546875 32.578125 C187.50356945 39.63692924 185.74058236 44.86552828 181.0703125 50.20703125 C180.42835938 50.73683594 179.78640625 51.26664063 179.125 51.8125 C178.48820312 52.35519531 177.85140625 52.89789063 177.1953125 53.45703125 C172.16212883 56.99458917 167.13655455 58.66445835 161.11769104 59.66621399 C160.3734197 59.79267691 159.62914836 59.91913983 158.86232334 60.04943496 C151.28641569 61.24855201 143.77661839 61.40286333 136.11694336 61.34057617 C134.6169181 61.33972669 133.11689161 61.34021127 131.61686707 61.34190369 C127.60549122 61.34275257 123.59439317 61.32530988 119.58308101 61.30418181 C115.36843633 61.28522691 111.15378291 61.28364994 106.93910217 61.28010559 C98.98518169 61.2708397 91.03138724 61.24630112 83.07752186 61.21605712 C74.01081256 61.18234157 64.94409674 61.1659843 55.8773402 61.15097082 C37.2514745 61.11974563 18.62578122 61.06480324 0 61 C0 40.87 0 20.74 0 0 Z " fill="#FDFDFD" transform="translate(1539,181)"/>
<path d="M0 0 C0.66 0 1.32 0 2 0 C9.21790823 14.34055473 16.42961887 28.67872389 23.30639648 43.18676758 C27.93143358 52.91535107 32.67358372 62.58610767 37.41104126 72.26031494 C51.71305342 101.46777202 51.71305342 101.46777202 57.875 114.1875 C58.4097998 115.28416992 58.94459961 116.38083984 59.49560547 117.51074219 C59.96885254 118.49075195 60.44209961 119.47076172 60.9296875 120.48046875 C61.33429199 121.31473389 61.73889648 122.14899902 62.15576172 123.00854492 C63 125 63 125 63 127 C22.08 127 -18.84 127 -61 127 C-56.49593496 116.86585366 -56.49593496 116.86585366 -54.25 112.21875 C-53.47692505 110.61749268 -53.47692505 110.61749268 -52.68823242 108.98388672 C-52.13111572 107.8342041 -51.57399902 106.68452148 -51 105.5 C-50.39359744 104.24627519 -49.78723484 102.99253106 -49.1809082 101.73876953 C-42.60211381 88.1454281 -35.9709819 74.57751461 -29.34686279 61.00622559 C-24.46481702 51.0038379 -19.58407001 41.00082715 -14.71572876 30.99176025 C-14.00232106 29.52550293 -13.2884523 28.05946983 -12.57406616 26.59368896 C-8.27677837 17.77561682 -4.07075621 8.9255945 0 0 Z " fill="#FDFEFD" transform="translate(990,207)"/>
<path d="M0 0 C4.23301121 2.82200747 7.17159664 5.95228992 8.8125 10.875 C9.54282407 17.61553197 9.0566953 23.39291441 4.8125 28.875 C-0.10796988 32.89171011 -4.23129646 33.51267844 -10.53125 33.26171875 C-15.63193455 32.51911909 -18.92019717 30.56473711 -22.0625 26.375 C-24.70394567 20.50512074 -25.03663927 14.86645642 -23 8.6875 C-21.08858876 4.04806521 -18.23120721 1.9797066 -13.875 -0.375 C-8.89429564 -1.76496401 -4.80599705 -1.69623425 0 0 Z M-17.1875 6.875 C-20.45115869 12.34952425 -20.54428968 15.86635999 -19.1875 21.875 C-18.07530466 25.00304939 -17.14991844 26.37204655 -14.19921875 27.9140625 C-10.48120922 29.35127627 -7.91409462 29.98678379 -3.9375 29.375 C0.33817636 27.04281289 3.25581035 24.54506895 4.8125 19.875 C5.27039028 13.80795378 4.2164777 9.77980638 0.3125 5.0625 C-5.3789695 0.55675331 -12.23041969 2.48122427 -17.1875 6.875 Z " fill="#000000" transform="translate(1967.1875,564.125)"/>
<path d="M0 0 C9.58835642 -0.28201048 9.58835642 -0.28201048 13 2 C13.875 4.9375 13.875 4.9375 14 8 C13.01 9.485 13.01 9.485 12 11 C12.80404463 14.1628485 12.80404463 14.1628485 14 17 C11.625 16.75 11.625 16.75 9 16 C7.875 14 7.875 14 7 12 C6.01 11.67 5.02 11.34 4 11 C4 12.98 4 14.96 4 17 C2.68 17 1.36 17 0 17 C0 11.39 0 5.78 0 0 Z M4 4 C4 5.32 4 6.64 4 8 C5.65 8 7.3 8 9 8 C9 6.68 9 5.36 9 4 C7.35 4 5.7 4 4 4 Z " fill="#000000" transform="translate(1953,571)"/>
</svg>
