<?xml version="1.0" encoding="UTF-8"?>
<svg xmlns="http://www.w3.org/2000/svg" xmlns:xlink="http://www.w3.org/1999/xlink" width="200px" height="45px" viewBox="0 0 200 45" version="1.1">
<g id="surface1">
<path style=" stroke:none;fill-rule:nonzero;fill:rgb(89.411765%,0%,16.862746%);fill-opacity:1;" d="M 100.324219 10.765625 C 102.976562 10.765625 105.386719 11.074219 107.851562 11.726562 L 107.851562 33.582031 C 105.382812 34.230469 102.972656 34.539062 100.324219 34.539062 C 97.679688 34.539062 95.265625 34.230469 92.800781 33.582031 L 92.800781 11.710938 C 95.105469 11.0625 97.464844 10.769531 100.324219 10.769531 Z M 162.316406 2.066406 L 162.316406 43.171875 L 172.421875 43.171875 L 172.421875 18.054688 L 188.113281 43.171875 L 199.128906 43.171875 L 199.128906 2.066406 L 188.960938 2.066406 L 188.960938 27.085938 L 173.339844 2.066406 Z M 122.171875 2.066406 L 122.171875 43.171875 L 132.277344 43.171875 L 132.277344 18.054688 L 147.960938 43.171875 L 158.976562 43.171875 L 158.976562 2.066406 L 148.8125 2.066406 L 148.8125 27.082031 L 133.1875 2.066406 Z M 0.488281 2.066406 L 0.488281 39.445312 L 1.046875 39.777344 C 6.183594 42.804688 12.375 44.40625 18.957031 44.40625 C 25.449219 44.40625 31.808594 42.761719 36.867188 39.777344 L 37.429688 39.445312 L 37.429688 2.066406 L 26.484375 2.066406 L 26.484375 33.59375 C 26.402344 33.621094 26.320312 33.644531 26.238281 33.671875 C 23.980469 34.351562 21.652344 35.054688 18.957031 35.054688 C 16.265625 35.054688 13.933594 34.351562 11.679688 33.671875 C 11.597656 33.644531 11.515625 33.621094 11.433594 33.59375 L 11.433594 2.066406 Z M 100.320312 0.964844 C 93.804688 0.964844 87.449219 2.5625 82.421875 5.460938 L 81.851562 5.789062 L 81.851562 39.515625 L 82.421875 39.84375 C 87.523438 42.785156 93.710938 44.339844 100.320312 44.339844 C 106.835938 44.339844 113.195312 42.742188 118.222656 39.84375 L 118.792969 39.515625 L 118.792969 5.789062 L 118.222656 5.460938 C 113.125 2.519531 106.933594 0.964844 100.320312 0.964844 Z M 59.523438 0.964844 C 52.90625 0.964844 46.734375 2.542969 41.679688 5.53125 L 41.117188 5.863281 L 41.117188 39.515625 L 41.6875 39.847656 C 46.714844 42.746094 53.050781 44.339844 59.523438 44.339844 C 66.132812 44.339844 72.320312 42.789062 77.421875 39.847656 L 77.992188 39.515625 L 77.992188 25.917969 L 67.042969 25.917969 L 67.042969 33.585938 C 64.636719 34.234375 62.222656 34.535156 59.523438 34.535156 C 56.863281 34.535156 54.46875 34.234375 52.0625 33.585938 L 52.0625 11.722656 C 54.464844 11.074219 56.859375 10.765625 59.523438 10.765625 C 62.226562 10.765625 64.636719 11.074219 67.042969 11.722656 L 67.042969 17.769531 L 77.992188 17.769531 L 77.992188 5.863281 L 77.429688 5.53125 C 72.375 2.542969 66.183594 0.964844 59.523438 0.964844 Z M 59.523438 0.964844 "/>
<path style=" stroke:none;fill-rule:nonzero;fill:rgb(0%,5.490196%,18.431373%);fill-opacity:1;" d="M 100.324219 9.625 C 103.625 9.625 106.339844 10.074219 108.988281 10.859375 L 108.988281 34.449219 C 106.339844 35.226562 103.625 35.679688 100.324219 35.679688 C 97.027344 35.679688 94.3125 35.226562 91.660156 34.449219 L 91.660156 10.859375 C 94.3125 10.015625 97.027344 9.625 100.324219 9.625 Z M 163.457031 3.207031 L 163.457031 42.03125 L 171.28125 42.03125 L 171.28125 14.488281 L 171.539062 14.488281 L 188.738281 42.03125 L 197.988281 42.03125 L 197.988281 3.207031 L 190.101562 3.207031 L 190.101562 30.753906 L 189.90625 30.753906 L 172.703125 3.207031 Z M 123.3125 3.207031 L 123.3125 42.03125 L 131.132812 42.03125 L 131.132812 14.488281 L 131.394531 14.488281 L 148.589844 42.03125 L 157.84375 42.03125 L 157.84375 3.207031 L 149.953125 3.207031 L 149.953125 30.753906 L 149.757812 30.753906 L 132.554688 3.207031 Z M 1.625 3.207031 L 1.625 38.789062 C 6.347656 41.578125 12.363281 43.265625 18.957031 43.265625 C 25.488281 43.265625 31.570312 41.578125 36.289062 38.789062 L 36.289062 3.207031 L 27.621094 3.207031 L 27.621094 34.449219 C 24.972656 35.226562 22.253906 36.199219 18.957031 36.199219 C 15.660156 36.199219 12.941406 35.226562 10.292969 34.449219 L 10.292969 3.207031 Z M 100.324219 2.109375 C 93.792969 2.109375 87.714844 3.726562 82.992188 6.449219 L 82.992188 38.855469 C 87.714844 41.578125 93.726562 43.203125 100.324219 43.203125 C 106.855469 43.203125 112.933594 41.578125 117.652344 38.855469 L 117.652344 6.449219 C 112.933594 3.726562 106.917969 2.109375 100.324219 2.109375 Z M 59.523438 2.109375 C 52.992188 2.109375 46.976562 3.726562 42.257812 6.511719 L 42.257812 38.855469 C 46.976562 41.578125 52.992188 43.199219 59.523438 43.199219 C 66.117188 43.199219 72.132812 41.578125 76.851562 38.855469 L 76.851562 27.058594 L 68.1875 27.058594 L 68.1875 34.449219 C 65.597656 35.226562 62.824219 35.679688 59.523438 35.679688 C 56.222656 35.679688 53.507812 35.226562 50.921875 34.449219 L 50.921875 10.859375 C 53.507812 10.078125 56.222656 9.625 59.523438 9.625 C 62.824219 9.625 65.597656 10.078125 68.1875 10.859375 L 68.1875 16.628906 L 76.851562 16.628906 L 76.851562 6.515625 C 72.128906 3.726562 66.117188 2.109375 59.523438 2.109375 Z M 59.523438 2.109375 "/>
</g>
</svg>
