<svg xmlns="http://www.w3.org/2000/svg" height="111.92" width="339.89" viewBox="0 0 339.88613 111.91764"><g transform="matrix(2.5 0 0 2.5 -1.1205 -232.43)"><path d="m7.9805 93.291-2.666 9.1289h3.5801c-0.82624 2.8338-2.8301 9.6953-2.8301 9.6953-0.33125 1.14-0.73242 2.5158-0.73242 3.9258 0 1.11 0.24821 2.2419 0.9707 3.2969 1.795 2.6175 6.007 3.8359 13.256 3.8359 13.15 0 15.475-4.4726 16.855-9.4551l0.19531-0.69727s1.5882-5.4349 3.0957-10.602h7.707c-1.0175 3.4038-6.1641 20.652-6.1641 20.652h13.479s5.4361-18.625 6.0273-20.652h10.232c-0.81999 2.81-2.8727 9.8386-3.3477 11.473h-3.3613l-2.6797 9.1797h31.553l2.6797-9.1797h-14.607c0.31125-1.03 0.43735-1.4509 0.65234-2.1621h7.3691l2.1094-7.5098h-7.3262c0.255-0.87624 0.34094-1.172 0.52344-1.8008h16.766c-0.90125 3.085-6.0293 20.652-6.0293 20.652h13.41s1.9241-6.5972 2.4141-8.2734c9.2037-0.1325 17.904-2.1563 24.025-19.314l0.78516-2.1934h-107.16l-5.2109 18.789c-0.28875 0.98874-0.54438 1.8633-3.5469 1.8633-0.505 0-0.82484-0.0273-1.0586-0.0586 0.0325-0.1125 0.06836-0.22883 0.09961-0.33008l0.16211-0.53321 5.7578-19.73h-16.986zm106.8 8.929h0.75586 4.1328c-1.3662 1.8662-3.7262 2.7992-5.8398 3.2617 0.4375-1.5 0.68868-2.3592 0.95118-3.2617z" fill="#b1b3b3" transform="translate(-.00042725)"/><path d="m22.92 94.91-2.0137 1.5938h-2.8262-4.4414-3.5801l-0.88672 3.041-1.7969 1.2598h3.5801l1.8613-1.1504-4.3242 14.48c-0.445 1.5237-0.96234 3.2634-0.49609 4.8047 1.5212 1.5387 4.8416 2.6191 11.57 2.6191 13.971 0 14.489-5.1864 15.609-9.0176l5.1445-17.631-2.1816 1.5938h-7.2793l-4.8906 17.631c-0.5575 1.9162-1.5772 3.0234-4.9922 3.0234-3.3212 0-3.5979-2.2066-3.6191-2.4316 0.0063 0.0525 0.01814 0.0791-0.01563-0.0859-0.10625-0.50999 0.17539-1.2196 0.43164-2.0996l5.1465-17.631zm46.131 0-1.6562 1.5938h-24.031l-0.87891 3.0098-1.8047 1.291h8.8066l1.8145-1.3477-6.1152 20.574-1.8633 1.4297h10.303l6.0254-20.656h7.6797l1.7207-5.8945zm64.684 0-2.416 1.5938h-13.383-15.629l-0.85937 2.9434-1.8242 1.3574h3.7422 0.0117l1.9062-1.5449-6.0098 20.508-1.9238 1.6934h10.244l2.4121-8.2637c9.0799 0 17.594-1.0856 23.729-18.287zm-34.477 0.002-1.8945 1.5918h-25.229l-0.88477 3.0234-1.7988 1.2773h3.5957l1.9004-1.3477-5.2285 17.652h-3.3613l-0.85352 2.918-1.8457 1.4336h3.3613 3.5664 21.463l1.7344-5.9453-1.7324 1.5938h-14.65l1.752-1.5938 1.6309-5.3984h7.3457l1.1992-4.2754-1.9551 1.5976h-7.4082l2.0176-1.5976 1.4629-5.0371h14.092l1.7207-5.8926zm24.934 4.25c-2.4375 7.2899-6.336 9.8867-14.23 9.8867l1.7226-1.5957 1.9961-6.8496h1.8652 6.5449l2.1016-1.4414z" fill="#041e42" transform="translate(-.00042725)"/><path d="m9.0938 94.908-1.7207 5.8945 1.7988-1.2598 0.88477-3.041h3.5801 4.4414 2.8262l2.0137-1.5938h-5.8027-4.4414-3.5801zm20.801 0-4.8887 17.631c-0.5575 1.9162-1.5797 2.9972-4.9922 3.0234-0.2075 0.003-0.39211-0.002-0.56836-0.01-0.05-0.004-0.09633-0.007-0.14258-0.01-0.08375-0.006-0.16594-0.0101-0.24219-0.0176-0.83249-0.0812-1.2603-0.27313-1.4766-0.45312-0.185-0.155-0.22031-0.29516-0.22656-0.34766 0.02 0.225 0.296 2.4316 3.6172 2.4316 3.4138 0 4.4347-1.1084 4.9922-3.0234l4.8906-17.631h7.2793l2.1816-1.5938h-10.424zm12.504 0-1.7207 5.8945 1.8047-1.291 0.87891-3.0098h24.031l1.6562-1.5938h-26.648-0.002zm28.771 0-1.7188 5.8945 1.7988-1.2773 0.88477-3.0234h25.229l1.8945-1.5938h-28.088zm30.172 0-1.7188 5.8945 1.8242-1.3574 0.85937-2.9434h15.629 13.383l2.416-1.5938h-16.764-15.629zm22.85 4.252-2.1016 1.4414c-1.5425 4.57-5.8184 6.3766-10.408 6.8516l-1.7207 1.5938c7.8949 0 11.793-2.5956 14.23-9.8867zm-18.908 0.09766-1.9062 1.5449-4.2871 14.686-1.7402 5.9688 1.9238-1.6914 6.0098-20.508zm-53.984 0.19727-1.8125 1.3476-6.1641 20.654 1.8633-1.4277 6.1133-20.574zm23.648 0-1.9004 1.3496-4.291 14.709h-3.3613l-1.7363 5.9434 1.8477-1.4316 0.84961-2.918h3.3652l5.2266-17.652zm-62.135 0.1875-0.0039 0.01563 0.0078-0.0059-0.0039-0.0098zm-0.0039 0.01563-1.8535 1.1445-3.4258 11.736c-0.064999 0.2225-0.13031 0.45235-0.19531 0.6836-0.005 0.0187-0.011328 0.0347-0.017578 0.0547-0.0225 0.0838-0.04586 0.16891-0.068359 0.25391-0.0125 0.0475-0.026563 0.0958-0.039063 0.14453l-0.056641 0.22461c-0.015 0.06-0.029219 0.11703-0.042969 0.17578-0.01625 0.0725-0.030625 0.14164-0.046875 0.21289-0.01375 0.065-0.027266 0.12961-0.041016 0.19336-0.0125 0.0687-0.026563 0.13563-0.039063 0.20313-0.0125 0.0687-0.022656 0.13758-0.035156 0.20507-0.01 0.0662-0.019297 0.12961-0.029297 0.19336-0.01 0.0738-0.017891 0.14625-0.025391 0.21875-0.0075 0.0613-0.014531 0.12235-0.019531 0.1836-0.00625 0.0775-0.010625 0.15422-0.015625 0.23047-0.0025 0.0562-0.00461 0.11297-0.00586 0.16797-0.0025 0.085-0.00125 0.16945 0 0.25195 0.00125 0.05 0.00141 0.097 0.00391 0.14453 0.00375 0.0975 0.013439 0.19547 0.023437 0.29297 0.00375 0.0337 0.00602 0.0678 0.00977 0.10156 0.03625 0.2675 0.093436 0.52891 0.17969 0.78516 0.00375 0.01 0.00797 0.018 0.011719 0.0293 0.04 0.1175 0.084924 0.23196 0.13867 0.34571 0.0125 0.0287 0.029219 0.0572 0.042969 0.0859 0.04625 0.0937 0.095392 0.18609 0.15039 0.27734 0.02125 0.0363 0.046564 0.0724 0.070312 0.10742 0.05375 0.0837 0.11062 0.16484 0.17188 0.24609 0.03 0.0375 0.0625 0.0777 0.09375 0.11524 0.06375 0.0763 0.13063 0.15156 0.20312 0.22656 0.016248 0.0162 0.028675 0.0345 0.044922 0.0508v-0.008c-0.46624-1.5412 0.051097-3.2809 0.49609-4.8047l4.3198-14.472zm69.17 6.1699v0.004l-2.0156 1.5898h7.4082l1.9551-1.5938h-7.3477zm-2.8281 9.6758-1.752 1.5938h14.65l1.7305-1.5938h-14.629zm23.428 10.271c-5.3762 0-8.6752 0.37133-9.5664 3.6426-1.0075 3.6938 7.9148 2.7906 7.5098 4.2793-0.22624 0.82249-0.52871 1.0625-2.4688 1.0625l-1.7598-0.0274 0.1582-0.58594h-4.9336l-0.89062 3.084s3.5134 0.0273 5.3184 0.0273c4.8975 0 8.8846-0.0278 9.9121-3.8027 1.065-3.9075-8.0582-2.6296-7.5957-4.332 0.2175-0.7975 1.3352-0.90235 2.8652-0.90235l0.98047 0.0254-0.13867 0.50391h4.5254l0.82813-2.9746h-4.7442zm-98.695 0.0234-3.1152 11.432h4.7949l1.8574-6.8027 1.0996 6.8027h3.1797l4.8711-6.8027-1.1602 4.252h-0.81641l-0.69531 2.5508h5.6484l3.1133-11.432h-6.7695l-4.4238 6.248-1.1211-6.248h-6.4629zm22.615 0-0.68945 2.5273h1.3672l-1.7285 6.3535h-1.3691l-0.69336 2.5508h6.707l3.1133-11.432h-6.707zm11.539 0-3.1152 11.432h4.832l1.6289-5.9785 4.0859 5.9785h5.1055l3.1113-11.432h-6.1641l-0.68164 2.5h1.3672l-0.96289 3.5352-3.9688-6.0352h-5.2383zm19.213 0-0.6875 2.5273h1.2676l-1.7324 6.3535h-1.2656l-0.69726 2.5508h15.076l0.69726-2.5508h-8.4355l0.55664-2.0469h7.2793l0.7168-2.6309h-7.2793l0.45508-1.6758h8.0312l0.68555-2.5273h-9.5273-5.1406zm17.928 0-0.6875 2.5273h1.3008l-2.4258 8.9043h5.375l1.0996-4.0391h1.3945c1.6325 0 1.5314 0.7156 1.7227 2.0469 0.1925 1.3288 0.28711 1.9922 0.28711 1.9922h5.6973c-0.5725-2.4762-1.271-5.1015-1.9785-5.209 1.8938-0.58374 2.5394-0.9586 3.0605-2.8711 0.91249-3.3512-2.6255-3.3516-7.5918-3.3516h-7.2539zm5.9941 2.5h1.125c2.0425 0 2.5847 0.00006 2.2734 1.1426-0.36875 1.3562-1.085 1.3574-2.75 1.3574h-1.3281l0.67969-2.5z" fill="#ff8200" transform="translate(-.00042725)"/></g></svg>
