<svg xmlns="http://www.w3.org/2000/svg" width="248" height="60.3" viewBox="0 0 248 60.3">
 <g transform="matrix(1.33 0 0 -1.33 -675 637)">
  <path d="m627 477c-4.93 0-10.1-0.759-14.7-3.04-4.18-2.09-7.22-5.57-8.02-9.18-0.72-3.23 0.0185-5.64 1.57-7.53l-11.8-1.96 16.8-1.8c6.29-3.18 14.4-4.51 13.4-9.02-0.786-3.54-5.93-4.5-9.56-4.5-5.81 0-12 2.03-15.8 4.94l0.627-9.11c4.67-1.52 9.83-2.28 15.2-2.28 5.73 0 11 0.57 16.4 3.29 4.83 2.47 7.83 6.13 8.75 10.3 0.905 4.05-0.56 6.9-3.84 9.56-2.73 2.22-6.1 3.41-9.68 4.74-2.76 1.01-7.17 2.22-6.49 5.26 0.662 2.97 4.78 4.05 7.93 4.05 4.03 0 7.71-1.27 10.7-2.98l1.66 7.4c-3.91 1.27-8.62 1.9-13.1 1.9zm23.1-1.01 11.1-4.38-22.2-33.7-7.42-3.42-0.0396-0.19h18.3l0.0396 0.19-2.83 1.82 7.13 10.6h16l1.9-8.9-7.77-3.51-0.044-0.19h27.1l0.044 0.19-2.91 1.87-9.69 39.6h-28.7zm-88.6-0.00146-2.19-9.81h0.243l3.02 2.65h11.2l-6.87-30.7-11.5-3.76h29.1l0.0439 0.193-2.96 1.9 7.22 32.4h11.2l1.84-2.65h0.243l2.19 9.81h-42.8zm-54.6-0.00293-0.044-0.19 7.02-3.56-5.13-23c-2.39-10.7 3.56-16 18.5-16 14.6 0 23.4 5.15 25.7 15.4l6.1 27.3h-22.5l-0.044-0.19 7.05-3.56-5.02-22.5c-0.548-2.45-0.924-4.85-3.32-6.92-1.5-1.26-4.11-1.95-6.13-1.95-2.02 0-4.33 0.696-5.25 1.95-1.48 2.07-0.781 4.47-0.239 6.92l5.85 26.2h-22.5zm123-1.49c2.21 0.036 4.85-0.347 7.9-1.46l-0.352-1.56c-2.83 1.17-5.78 1.78-8.67 1.78-2.86 0-5.34-0.663-7.23-1.83 0.667 0.883 3.49 2.99 8.35 3.07zm-66.2-0.998h15.7l-7.71-34.5h8.62l-0.46-2.07h-10.5l7.71 34.5h-13.9l0.464 2.07zm26.2 0h12l-0.467-2.07h-12l0.469 2.07zm-73-0.0967h1.86l-5.04-22.5c-2-8.96 0.207-13.1 16.8-13.1 8.76 0 14.1 1.93 17.4 4.29-2.88-3.24-8.48-6.3-19.7-6.3-17.7 0-18 7.65-16.8 13.4l5.4 24.2zm29.6 0h1.86l-5.02-22.6c-0.534-2.39-1.32-5.25-4.26-7.8-0.3-0.256-0.623-0.485-0.954-0.697 1.84 2.17 2.46 4.45 2.9 6.43l5.48 24.6zm119 0h2.05l-24.2-36.5h-2.18l24.3 36.5zm-54.5-3.1c-1.07-1.21-1.91-2.56-2.23-4-1.3-5.83 3.73-8.29 11-11.1 5.27-2.07 10.2-4.02 9.1-9.18-0.393-1.77-1.4-2.99-2.97-4.14 0.543 0.785 0.941 1.66 1.16 2.62 1.15 5.16-3.83 7.11-9.1 9.18-7.25 2.85-12.3 5.31-11 11.1 0.441 1.97 1.93 3.96 4.04 5.52zm56.7-0.349h2.27l6.85-30.9h8.76l0.513-2.07h-10.9l-6.85 30.9h-2l1.35 2.08zm-1.35-4.66 2.78-12.5h-11l8.19 12.5zm-30.8-22.7c-1.39-1.58-3.13-2.71-4.65-3.5-5.21-2.64-10.4-3-15.3-3-4.78 0-9.28 0.65-13.4 1.87l-0.193 2.28c13.3-4.21 23-3.14 33.6 2.34z" fill="#0b2240"/>
 </g>
</svg>