<svg xmlns="http://www.w3.org/2000/svg" height="105.76" viewBox="0 0 250 105.75842" width="250"><g transform="matrix(1.25 0 0 -1.25 -467.18 596.41)"><g><path d="m2.7051 1.1211l-0.0313 4.9902-0.0136 2.627-0.0215-0.0313-0.0723 15.504-0.2519 55.723-0.0215 5.039h5.039 20.346 3.041l1.404-2.698 11.148-21.386 0.254 19.136 0.071 4.948h4.947 20.346 3.093l1.387-2.762 27.111-53.865-12.792 50.375-1.586 6.252h6.447 20.961 3.9l0.96-3.782 3.97-15.654 7.76 16.549 1.35 2.887h3.19 10.9l9.8 0.007h2.9 8.46l-0.01-0.017h4.74c0.15 0 0.29 0.01 0.44 0.01h39.2c4.82 0 8.91-0.843 12.16-2.506 3.76-1.914 6.25-4.917 7.21-8.676l16.85-66.379 1.59-6.2479h-6.45v-0.002h-21.04-3.9l-0.96 3.7813-15.04 59.203h-11.84l14.41-56.736 1.59-6.2479h-6.45-18.5l-7.94-0.0156h-22.28-2.19l-1.49 1.6152-11.74 12.703 2.05-8.0666 1.59-6.2519h-6.45-47.611-3.172l-1.362 2.8672-9.556 20.148 0.094-17.974 0.025-5.0415h-5.041-17.465-3.094l-1.39 2.7637-10.162 20.221 0.556-17.809 0.164-5.1677-5.172-0.0078-21.369-0.0235-4.9899-0.0019zm167.66 15.699l-12.88 50.688-12.49-24.819 25.37-25.869zm-62.86 74.094c-1.55 0-2.74 0.273-3.56 0.809-1.56 0.976-2.91 3.032-4.05 6.173-1.145 3.144-1.295 5.204-0.457 6.184 0.441 0.53 1.437 0.8 2.987 0.8h4.27c1.55 0 2.74-0.27 3.56-0.8 1.56-0.98 2.91-3.04 4.05-6.184 1.14-3.141 1.29-5.197 0.45-6.173-0.44-0.536-1.43-0.809-2.98-0.809h-4.27zm59.37 0.002l-0.07 0.195 1.29 1.119-4.6 12.65h12.66l1.18-3.23h-7.91l0.86-2.361h5.76l1.09-2.988h-5.76l0.78-2.149h7.9l1.18-3.236h-14.36zm32.47 0l-11.65 0.014-0.06 0.181 1.33 1.141-4.59 12.628h4.75l2.61-7.175 3.66 7.175h5.64l-3.08-6.312c1-0.168 1.78-0.501 2.34-0.998 0.64-0.548 1.18-1.443 1.63-2.683 0.56-1.556 0.62-2.635 0.16-3.244-0.35-0.484-1.26-0.727-2.74-0.727zm-195.07 0.002l-0.0742 0.193 1.2832 1.098-4.6093 12.671h4.7558l1.9668-5.407h5.1715l-1.966 5.407h4.765l5.082-13.962h-4.765l-1.914 5.25h-5.1723l1.9143-5.25h-6.4378zm22.84 0l-0.07 0.193 1.289 1.116-4.608 12.653h4.766l5.082-13.962h-6.459zm12.926 0l-0.07 0.193 1.296 1.116-4.601 12.653h11.973l1.166-3.22h-7.202l3.911-10.742h-6.473zm20.142 0l-0.068 0.193 1.295 1.116-4.602 12.653h11.969l1.172-3.22h-7.207l3.914-10.742h-6.473zm20.991 0l-1.192 3.275h4.541l-3.888 10.687h4.752l3.888-10.687h4.655l1.187-3.275h-13.943zm42.14 0l-0.07 0.193 1.29 1.119-4.6 12.65h4.76l1.58-4.35h4.56c1.39 0 2.42-0.21 3.1-0.616 1.22-0.756 2.2-2.148 2.94-4.184 0.74-2.043 0.77-3.439 0.1-4.191-0.37-0.415-1.25-0.621-2.64-0.621h-11.02zm21.78 0l-0.07 0.193 1.29 1.119-4.6 12.65h4.76l1.58-4.35h4.56c1.39 0 2.42-0.21 3.09-0.616 1.23-0.756 2.21-2.148 2.95-4.184 0.74-2.043 0.77-3.439 0.1-4.191-0.37-0.415-1.25-0.621-2.64-0.621h-11.02zm72.09 0c-1.09 0-1.97 0.228-2.64 0.682-1.05 0.717-1.88 1.896-2.47 3.529-0.59 1.607-0.66 2.71-0.21 3.307 0.3 0.41 0.91 0.66 1.82 0.763l4.4 0.477c0.64 0.065 0.99 0.141 1.07 0.236 0.09 0.118 0.06 0.388-0.09 0.788-0.18 0.49-0.35 0.79-0.53 0.91-0.14 0.09-0.53 0.13-1.18 0.13h-2.24c-0.57 0-0.9-0.05-0.98-0.15-0.08-0.11 0.01-0.59 0.28-1.41h-4.36c-0.77 2.12-0.95 3.47-0.52 4.04 0.33 0.44 1.16 0.66 2.5 0.66h6.39c1.13 0 2.02-0.23 2.69-0.68 1.06-0.73 1.9-1.95 2.54-3.69 0.58-1.604 0.65-2.702 0.21-3.285-0.29-0.402-0.89-0.652-1.8-0.764l-4.44-0.477c-0.66-0.077-1.02-0.145-1.08-0.214-0.09-0.121-0.06-0.39 0.09-0.805 0.16-0.432 0.32-0.703 0.48-0.811 0.1-0.069 0.4-0.105 0.92-0.105h2.21c0.51 0 0.79 0.056 0.88 0.164 0.07 0.117 0.01 0.528-0.21 1.232h4.36c0.7-1.979 0.83-3.275 0.37-3.888-0.32-0.424-1.15-0.639-2.51-0.639h-5.95zm-24.13 3.174h2.56c0.69 0 1.09 0.052 1.18 0.164 0.17 0.186 0.13 0.628-0.12 1.31l-0.17 0.471c-0.25 0.683-0.53 1.119-0.83 1.309-0.18 0.108-0.61 0.164-1.3 0.164h-2.57l1.25-3.418zm-64.44 0.002h2.35c0.68 0 1.08 0.052 1.17 0.16 0.18 0.19 0.12 0.677-0.17 1.455-0.29 0.799-0.59 1.297-0.9 1.496-0.15 0.104-0.58 0.15-1.29 0.15h-2.35l1.19-3.261zm21.78 0h2.35c0.68 0 1.08 0.052 1.17 0.16 0.17 0.19 0.12 0.677-0.17 1.455-0.29 0.799-0.59 1.297-0.9 1.496-0.15 0.104-0.58 0.15-1.29 0.15h-2.35l1.19-3.261zm-42.53 0.078h1.18c0.67 0 1.06 0.053 1.16 0.152 0.25 0.242-0.01 1.429-0.79 3.572-0.78 2.144-1.38 3.334-1.81 3.574-0.18 0.11-0.61 0.16-1.28 0.16h-1.17c-0.68 0-1.06-0.05-1.16-0.16-0.25-0.24 0.01-1.43 0.79-3.574 0.78-2.143 1.38-3.33 1.81-3.572 0.17-0.099 0.59-0.152 1.27-0.152z" transform="matrix(.8 0 0 -.8 373.74 477.13)" fill="#231f20"/><path d="m550.85 473.33h-0.88833l-0.22122-0.86068-12.575-49.526h-15.392l12.433 48.962 0.36294 1.4241h-1.469-19.353l-1.7974 0.0104h-17.822-0.5012l-0.33874-0.36639-17.065-18.472 4.4244 17.414 0.35948 1.4241h-1.469-38.088-0.72242l-0.30764-0.65329-13.18-27.78 0.14518 27.286 0.007 1.1476h-1.151-13.971-0.70513l-0.31801-0.62909-13.968-27.798 0.85377 27.248 0.0346 1.1787h-1.1752l-17.1 0.0173-1.1338 0.003-0.007-1.1372-0.0657-10.943-0.007 0.003-0.0173-3.5361-0.20048-44.579-0.003-1.1441h1.1476 16.277 0.69131l0.32146 0.61181 14.179 27.203 0.35948-26.688 0.0138-1.1268h1.1268 16.277 0.70514l0.318 0.62564 28.648 56.916c1.234-0.96437 1.6626-2.3193 1.3446-4.179l-13.194-51.942-0.35948-1.4206h1.469 16.764 0.88834l0.21776 0.85723 5.1572 20.304 9.6092-20.504 0.30763-0.65675h0.72588 14.32l2.2364-0.007h2.3228 1.9288l-0.9229 1.6902-0.94364 1.7214-14.141 28.091 25.572 26.076c1.272-0.96783 1.8285-2.1534 1.7352-3.6847l-11.818-46.543c-0.59798-2.3608 0.0726-4.2896 1.946-5.5823 1.6626-1.1822 4.1375-1.7628 7.5491-1.7628h31.358c3.3978 0 6.2322 0.56688 8.4236 1.6868 2.2813 1.1649 3.7262 2.8793 4.2896 5.095l13.484 53.1 0.36293 1.4241h-1.469-16.837z" fill="#fff"/><path d="m554.2 419.09c-0.48392-1.8942-1.7179-3.3459-3.7054-4.3622-2.0394-1.0439-4.6767-1.5624-7.9017-1.5624h-31.358c-3.1351 0-5.4337 0.51848-6.8993 1.5624-1.4725 1.0162-1.9668 2.468-1.4898 4.3622l11.846 46.639c0.16246 2.112-0.69476 3.7988-2.5717 5.0604-0.16937 0.11061-0.3422 0.2074-0.51503 0.30764l-0.0415-0.13135-26.698-27.227 14.514-28.838 0.95055-1.7421h-2.3228l0.007 0.007h-16.564l-10.964 23.394-5.9418-23.394h-16.764l13.201 51.983c0.49775 2.824-0.48737 4.8323-2.9242 6.042l-29.208-58.025h-16.277l-0.41824 31.22-16.273-31.22h-16.277l0.20048 44.579v-0.007l0.0864 14.48 17.096-0.0173-1.0162-32.426 16.298 32.426h13.971l-0.17283-32.426 15.382 32.426h38.088l-5.5305-21.78 20.121 21.78h17.822l-0.003-0.0104h21.154l-12.796-50.386h17.749l12.796 50.386h16.837l-13.484-53.1z" fill="#b01e24"/></g></g></svg>
