<?xml version="1.0" encoding="UTF-8"?>
<svg width="129" height="95" viewBox="0 0 129 95" version="1.1" xmlns="http://www.w3.org/2000/svg" xmlns:xlink="http://www.w3.org/1999/xlink">
<g stroke="none" stroke-width="1" fill="none" fill-rule="evenodd" transform="translate(-5.000000, -22.000000)">
 <rect x="0" y="0" width="140" height="140"/>
 <g transform="translate(5.833333, 22.166667)">
  <path d="M125.128815,68.2318272 C122.74679,64.4337099 117.996472,60.6798454 115.057471,58.7021998 L115.171918,58.2703528 C116.17031,54.462474 116.121806,50.4556429 115.03153,46.673048 C111.247146,33.549782 95.4427665,25.4408244 95.4427665,25.4408244 L96.6559057,29.0558264 C90.6146254,25.2073524 82.9878716,22.4941934 73.9282402,20.9682323 C73.0035077,20.8156361 71.9841657,20.66304 70.9053111,20.5104439 C62.3492469,19.289675 43.1175585,14.6950059 37.8804598,8.67408492e-15 C31.233373,9.79667063 40.5493658,20.861415 45.1684503,24.5801823 C45.1684503,24.5801823 45.8368212,29.4846215 48.1700159,33.9984146 L39.3194411,31.1677566 L39.2675585,31.152497 C37.6256243,30.6550337 36.2354736,30.3223742 34.7842846,30.3223742 C31.1799643,30.3223742 28.68044,32.4022592 26.518153,34.65 L26.4449069,34.7262981 L0,67.4841062 C0,67.4841062 8.76664685,63.4921918 12.6654776,64.4321839 C14.0830955,64.7755252 19.7306778,66.2190844 19.7306778,66.2190844 C19.0882481,66.4830757 17.6584225,68.2501387 17.6584225,68.2501387 L2.37439556,86.349564 C9.30836306,84.7167856 15.1695799,83.2228696 15.869996,83.2228696 L15.8913595,83.2228696 C16.8954419,83.2488109 18.9203924,83.9477011 19.683373,84.2086405 L47.9792707,93.5307372 C49.163333,93.9293754 50.3765567,94.2354874 51.6080063,94.4463139 C52.2682516,94.5498097 52.9356586,94.6008347 53.6039635,94.5989625 C57.1441934,94.5989625 60.6737416,93.0653191 63.5120293,90.5078082 C66.0283393,88.8796076 73.6718787,87.8205906 83.1419937,92.1863654 C81.281847,81.7732065 82.8032303,81.9410622 91.9559453,81.6572335 C93.2781468,82.3970635 94.6496608,83.0450911 96.0607808,83.5967301 C101.096453,85.5804796 107.221661,86.6700159 113.304142,86.6700159 L113.304142,86.6700159 C114.908768,86.676635 116.512662,86.6002348 118.109394,86.4411217 C120.917162,87.2559849 123.474673,90.4620293 124.69239,94.4524178 C125.421799,92.7586009 127.494055,89.2519421 128.031193,82.7315101 C128.609532,75.7288744 127.497107,72.0162109 125.128815,68.2318272 Z" fill="#231F20" fill-rule="nonzero"></path>
  <path d="M102.832996,35.7380103 C103.928637,39.0035672 103.94237,41.4267935 103.867598,41.3611772 C103.792826,41.2955608 98.2718985,28.8406659 73.2903884,24.632065 C65.213476,23.2724336 48.2203726,22.4957194 38.6068173,7.49857313 C38.6281807,7.55198177 40.189239,22.8573722 60.8858502,27.81522 C57.5974039,27.9372969 51.5881688,27.2307769 49.1954618,25.3980975 C49.9263971,28.5415775 50.6573325,32.2908641 53.701625,35.0726912 C98.0094332,32.2176179 98.8319263,58.8776853 111.535553,57.3257828 C112.757848,52.7280618 112.879925,43.3571344 102.832996,35.7380103 Z" fill="#E31937"></path>
  <path d="M110.139298,61.2551328 C102.71092,59.6833928 88.5255846,63.3716409 88.5255846,63.3716409 C90.2300832,64.0964725 90.8389417,66.7577487 90.8389417,66.7577487 C85.603369,63.8584225 77.8224931,64.5939358 78.1734641,65.9108403 C79.0893516,68.11787 80.8975367,69.8334556 83.1496235,70.6321641 C82.0707689,68.3294887 82.1974237,66.4006738 82.1913199,66.39457 C95.8303607,75.9486128 118.356599,72.1398137 124.033175,85.2752874 C125.667479,71.5965715 121.466508,66.7577487 110.139298,61.2551328 Z" fill="#FFC425"></path>
  <path d="M86.1252477,70.9129409 C91.2784185,80.9446096 107.282699,84.0041617 118.454261,82.6628419 C114.923187,77.4684701 95.0460166,75.7197186 86.1252477,70.9129409 Z" fill="#FFC425"></path>
  <path d="M107.275069,62.9932025 C106.040567,62.8268728 107.476496,66.5364843 108.271522,66.7958977 C107.978537,63.6936187 113.684106,67.294887 113.684106,67.294887 C112.351942,64.9159136 110.269005,63.3975822 107.275069,62.9932025 Z" fill="#000000" fill-rule="nonzero"></path>
  <path d="M74.5218391,65.1249703 C73.2446096,66.9378121 72.1489695,71.656084 74.7049544,78.3672612 C66.1198969,63.8553706 73.2461356,55.1482362 88.038803,59.8649822 C85.2920729,51.8826793 80.1846809,48.2539437 76.2354935,46.8744748 L38.1597107,34.7095125 C34.5416568,33.6108205 32.7837495,33.5085811 29.2114744,37.2197186 L20.8720967,46.9355133 C23.6188268,44.9380301 25.5552715,46.160325 27.6260008,46.711197 L62.8757035,57.9880499 C63.6809414,58.2357544 64.4990456,58.4395163 65.3263971,58.5984344 C68.0639715,59.1035275 69.9042806,58.4244748 71.852933,56.9534483 C70.6520016,60.537931 67.0507333,61.8014269 63.4403092,60.9774078 L26.3121482,48.9635157 C25.6687408,48.778829 25.0136432,48.6376135 24.3512881,48.5408244 C22.1020214,48.2356322 20.2586603,49.4564011 18.6487713,51.0556084 L9.9431629,61.4519818 C12.0291518,59.9473841 15.8059057,61.0064011 19.8329172,62.347721 L56.7901704,74.1418748 C57.6737019,74.407392 58.5282402,74.6362862 59.3537852,74.8132977 C62.2393777,75.4328379 64.7129608,74.5615141 66.4632382,73.621522 C66.4632382,73.6337297 66.4632382,73.6444114 66.4632382,73.6566191 C65.1158145,75.821958 63.2465121,77.6515854 60.969778,77.9293103 C59.8298851,78.0712247 58.3527547,77.7538248 56.7443916,77.2670432 L29.7653983,68.7308165 C24.3024574,67.0751486 23.9514863,67.1285573 20.4356718,70.7420333 L11.9742172,80.7065597 C12.9050535,80.2136742 14.4157551,79.4613753 15.9859691,79.5010503 C17.3288149,79.5346215 19.0775664,80.0595521 20.9102457,80.692826 L49.1405272,89.9920333 C50.1388856,90.3307384 51.1617305,90.5924439 52.2000793,90.7748514 C57.5012683,91.6232858 62.7292113,87.4925089 64.8167261,82.2569362 C64.8167261,82.2569362 65.2027943,81.0666865 65.7918153,79.2462148 C66.5547959,81.1811336 66.509017,83.3769917 65.8681134,85.8521007 C68.5980579,85.1486326 74.0091161,84.974673 78.7395957,86.9904677 C77.7248315,83.126734 78.4618708,80.3708482 82.459889,78.4237218 C77.6332739,75.7380301 75.2527745,70.7481371 74.5218391,65.1249703 Z" fill="#E31937"></path>
  <path d="M94.2296274,51.1334324 C94.4405532,51.3668969 94.7833764,51.4266968 95.0608885,51.2784323 C95.3384007,51.1301679 95.4792642,50.8119522 95.4024475,50.5068382 C95.3256309,50.2017242 95.0508807,49.988145 94.7362465,49.9889616 C94.6693988,49.9897611 94.6030473,50.0005626 94.5393975,50.0210067 C94.6676468,49.7904292 94.8415935,49.5884434 95.0505945,49.4274078 C93.4361276,47.2666468 90.8206302,47.3322632 90.6405668,47.5886247 C89.5998613,51.189893 94.2601467,54.5637931 97.4234641,54.6660325 C95.0978993,54.095323 94.1716409,52.483908 94.2296274,51.1334324 Z" fill="#FFFFFF" fill-rule="nonzero"></path>
 </g>
</g>
</svg>