<?xml version="1.0" encoding="UTF-8"?>
<svg version="1.1" xmlns="http://www.w3.org/2000/svg" width="200" height="200">
<path d="M0 0 C0.61101562 0.51820312 1.22203125 1.03640625 1.8515625 1.5703125 C15.91956657 14.35356734 22.87433309 33.78934438 23.86962891 52.35668945 C24.65918635 71.93729183 17.92033139 90.60292546 4.8125 105.1875 C-10.41410319 121.36984607 -28.66979442 129.11493484 -50.65625 129.9609375 C-70.16691981 130.36454731 -88.55393323 122.66208331 -102.69824219 109.39550781 C-118.54687406 93.88207503 -125.75090934 74.97339719 -126.02294922 53.07666016 C-125.79891095 32.80358035 -116.79731006 14.39940006 -102.47802734 0.38427734 C-91.46927085 -9.92620322 -78.76127486 -16.16533129 -64 -19 C-63.28972656 -19.14308594 -62.57945313 -19.28617188 -61.84765625 -19.43359375 C-39.4897075 -22.90958962 -16.58951286 -14.9125946 0 0 Z M-104 5 C-104.62777344 5.60328125 -105.25554687 6.2065625 -105.90234375 6.828125 C-116.68369495 18.07397886 -122.97424666 34.61369993 -124 50 C-124.0515625 50.70640625 -124.103125 51.4128125 -124.15625 52.140625 C-124.89704015 70.78384374 -117.85031131 89.26072784 -105.625 103.1875 C-100.41213089 108.76895582 -94.90846173 114.54576914 -88 118 C-87.34 118 -86.68 118 -86 118 C-86 106.78 -86 95.56 -86 84 C-89.3 83.01 -92.6 82.02 -96 81 C-99.88879552 77.84035364 -102.59895243 74.74204615 -103.3359375 69.703125 C-103.43233984 63.64905811 -102.71572898 58.92021605 -99 54 C-93.60499787 49.70601871 -89.39133569 48.84957791 -82.6862793 48.83886719 C-81.57354141 48.83141983 -81.57354141 48.83141983 -80.43832397 48.82382202 C-77.98361279 48.8092147 -75.52896626 48.8024005 -73.07421875 48.796875 C-71.36652118 48.791122 -69.65882363 48.78536428 -67.9511261 48.77960205 C-64.36918843 48.76909588 -60.78727318 48.76325082 -57.20532227 48.75976562 C-52.62208849 48.75428426 -48.0391523 48.73026236 -43.45601177 48.70179367 C-39.9274866 48.68314186 -36.39903272 48.67796032 -32.87046242 48.67642975 C-31.18121528 48.673408 -29.49196926 48.66539562 -27.80277061 48.65224457 C-25.43558699 48.63513196 -23.06912519 48.63707684 -20.7019043 48.64355469 C-19.66132118 48.62973251 -19.66132118 48.62973251 -18.59971619 48.6156311 C-13.98810351 48.65503381 -10.97938041 49.73509488 -7 52 C-5.515 52.495 -5.515 52.495 -4 53 C-2.875 55.4375 -2.875 55.4375 -2 58 C-1.67 58.66 -1.34 59.32 -1 60 C-0.50419911 65.88458765 -0.16716926 71.21095619 -2.6875 76.625 C-6.84029526 80.89003297 -10.26564854 82.08854951 -16 84 C-16 95.22 -16 106.44 -16 118 C-2.26181076 112.5047243 8.45694434 100.04904019 15 87 C23.43860762 67.16456972 24.02392907 47.88178962 16.875 27.375 C9.13946188 8.55570576 -5.77138754 -4.92903254 -24.23828125 -12.9375 C-52.80732891 -23.92870362 -82.45569994 -16.14330632 -104 5 Z M-90 50 C-90 50.33 -90 50.66 -90 51 C-64.59 51 -39.18 51 -13 51 C-13 50.67 -13 50.34 -13 50 C-38.41 50 -63.82 50 -90 50 Z M-96 56 C-99.77109363 61.19799393 -100.81155954 64.60896864 -100 71 C-97.76033201 75.39638531 -95.49332886 77.92615591 -91 80 C-90.01 80 -89.02 80 -88 80 C-88 80.66 -88 81.32 -88 82 C-83.61468916 81.68676351 -80.5108532 80.65541277 -77.203125 77.65234375 C-74.85076875 74.42167266 -74.69172159 70.89115857 -75 67 C-76.49168614 62.89786311 -77.35602313 61.42931791 -81 59 C-85.53276656 58.56134517 -87.92599581 58.4629979 -92 60.5 C-94.42256298 63.52820372 -94.74357472 65.28547371 -94.48046875 69.08984375 C-94.07209776 71.27594505 -94.07209776 71.27594505 -91.9375 73.5625 C-88.18969194 75.39653373 -85.99582254 74.94019354 -82 74 C-82.33 73.34 -82.66 72.68 -83 72 C-83.969375 72.020625 -84.93875 72.04125 -85.9375 72.0625 C-89 72 -89 72 -90 71 C-90.25 68.0625 -90.25 68.0625 -90 65 C-87 63 -87 63 -83.875 63.3125 C-81 64 -81 64 -80 65 C-79.92794489 66.68608966 -79.91613932 68.37500659 -79.9375 70.0625 C-79.94652344 70.98160156 -79.95554687 71.90070313 -79.96484375 72.84765625 C-79.97644531 73.55792969 -79.98804687 74.26820312 -80 75 C-87.98524554 76.44395508 -87.98524554 76.44395508 -92 74.6875 C-94.98239068 72.17110786 -94.98089418 71.19424247 -95.375 67.1875 C-95.61380412 63.93850716 -94.98238215 62.97567556 -93.01953125 60.265625 C-88.97583665 57.23154626 -86.22334165 57.35326615 -81.3125 57.5625 C-80.56033203 57.56830078 -79.80816406 57.57410156 -79.03320312 57.58007812 C-74.93102811 57.66735844 -71.11240514 58.12859282 -67.10546875 59.01171875 C-61.70622006 60.1709061 -56.5068101 60.29627572 -51 60.25 C-50.07960937 60.25773437 -49.15921875 60.26546875 -48.2109375 60.2734375 C-42.71855473 60.257966 -37.71872868 59.64460917 -32.36181641 58.46289062 C-28.79499013 57.76383102 -25.31331815 57.63211642 -21.6875 57.625 C-21.01138672 57.60050781 -20.33527344 57.57601562 -19.63867188 57.55078125 C-16.07013075 57.52989223 -14.11939203 57.92466171 -11.078125 59.84375 C-8.41168571 62.61043137 -8.07636062 64.18196877 -8 68 C-9.12355848 73.31136738 -9.12355848 73.31136738 -11.75 75.375 C-14.7106248 76.19739578 -16.93931166 76.38258604 -20 76 C-22.375 74.375 -22.375 74.375 -24 72 C-24.45702733 68.80080869 -24.50056349 66.91279226 -22.9375 64.0625 C-19.87530347 62.38323093 -17.30629059 63.31378875 -14 64 C-13.375 66.3125 -13.375 66.3125 -13 69 C-15 72 -15 72 -18.125 72.6875 C-19.07375 72.790625 -20.0225 72.89375 -21 73 C-20.505 73.99 -20.505 73.99 -20 75 C-16.44517748 75.32316568 -14.62424881 75.45553291 -11.6875 73.3125 C-9.78314701 70.70283109 -9.15706933 69.21992136 -9 66 C-9.74049915 63.10532151 -10.31377003 61.53373442 -12.6875 59.6875 C-15.98491604 58.70718712 -18.57543187 58.63951914 -22 59 C-25.00332418 60.80199451 -26.5903952 62.3111192 -28.375 65.3125 C-29.22094728 68.95007329 -28.96685978 71.39039015 -28 75 C-24.86046 79.03655143 -21.99882624 80.91329864 -17 82 C-12.41174457 80.47058152 -8.21834623 77.6401238 -5 74 C-3.1578865 70.1323591 -2.80302145 67.00459063 -3.625 62.8125 C-5.85307986 58.25506393 -8.16344077 54.81318496 -13 53 C-15.54847857 52.80508474 -17.98711806 52.71641554 -20.53491211 52.7253418 C-21.28824326 52.72023087 -22.0415744 52.71511993 -22.81773376 52.70985413 C-25.30435157 52.69597071 -27.79069183 52.69691391 -30.27734375 52.69921875 C-32.00842898 52.69533116 -33.73951327 52.69099636 -35.47059631 52.68623352 C-39.09786065 52.67877403 -42.72502764 52.67906064 -46.35229492 52.68432617 C-50.99727829 52.69012084 -55.64186291 52.67318869 -60.28678036 52.6499815 C-63.86160099 52.63523961 -67.43632569 52.63437307 -71.01117134 52.63749123 C-72.72356519 52.63697826 -74.43596444 52.63174503 -76.14832878 52.62167931 C-78.54437951 52.60932304 -80.93965476 52.61610122 -83.33569336 52.62768555 C-84.39333893 52.61621994 -84.39333893 52.61621994 -85.47235107 52.60452271 C-89.82450342 52.65095944 -92.54659149 53.32731259 -96 56 Z M-78 59 C-77.01 59.99 -76.02 60.98 -75 62 C-74.01 61.01 -73.02 60.02 -72 59 C-73.98 59 -75.96 59 -78 59 Z M-30 59 C-30 59.66 -30 60.32 -30 61 C-28.68 60.67 -27.36 60.34 -26 60 C-27.32 59.67 -28.64 59.34 -30 59 Z M-74 63 C-73.67 64.65 -73.34 66.3 -73 68 C-71.68 67.67 -70.36 67.34 -69 67 C-68.67 65.02 -68.34 63.04 -68 61 C-71.18490007 60.7226499 -71.18490007 60.7226499 -74 63 Z M-66 61 C-66.33 63.31 -66.66 65.62 -67 68 C-66.01 68 -65.02 68 -64 68 C-64.33 65.69 -64.66 63.38 -65 61 C-65.33 61 -65.66 61 -66 61 Z M-63 61 C-62.67 63.31 -62.34 65.62 -62 68 C-60.43750191 66.68798827 -60.43750191 66.68798827 -59 65 C-59 64.01 -59 63.02 -59 62 C-60.32 61.67 -61.64 61.34 -63 61 Z M-38 61 C-38.33 63.31 -38.66 65.62 -39 68 C-37.68 67.67 -36.36 67.34 -35 67 C-35.33 65.02 -35.66 63.04 -36 61 C-36.66 61 -37.32 61 -38 61 Z M-34 61 C-34.33 61.66 -34.66 62.32 -35 63 C-34.10636395 65.60931266 -34.10636395 65.60931266 -33 68 C-32.01 68 -31.02 68 -30 68 C-29.67 66.35 -29.34 64.7 -29 63 C-31.475 62.01 -31.475 62.01 -34 61 Z M-57 62 C-57.33 63.98 -57.66 65.96 -58 68 C-56.68 67.67 -55.36 67.34 -54 67 C-54.33 65.35 -54.66 63.7 -55 62 C-55.66 62 -56.32 62 -57 62 Z M-53 62 C-53 63.65 -53 65.3 -53 67 C-52.01 67 -51.02 67 -50 67 C-50 65.35 -50 63.7 -50 62 C-50.99 62 -51.98 62 -53 62 Z M-48 62 C-48.33 63.98 -48.66 65.96 -49 68 C-47.68 68 -46.36 68 -45 68 C-45.33 66.02 -45.66 64.04 -46 62 C-46.66 62 -47.32 62 -48 62 Z M-44 62 C-43.65555119 64.47266765 -43.65555119 64.47266765 -43 67 C-42.34 67.33 -41.68 67.66 -41 68 C-40.67 65.69 -40.34 63.38 -40 61 C-41.36893239 60.94729537 -41.36893239 60.94729537 -44 62 Z M-2 64 C-2 65.65 -2 67.3 -2 69 C-1.67 69 -1.34 69 -1 69 C-1 67.35 -1 65.7 -1 64 C-1.33 64 -1.66 64 -2 64 Z M-86 66 C-86.66 67.65 -87.32 69.3 -88 71 C-86.35 70.67 -84.7 70.34 -83 70 C-83.33 68.68 -83.66 67.36 -84 66 C-84.66 66 -85.32 66 -86 66 Z M-19 66 C-19.66 67.32 -20.32 68.64 -21 70 C-19.93354885 71.29633621 -19.93354885 71.29633621 -17.4375 71.0625 C-16.633125 71.041875 -15.82875 71.02125 -15 71 C-15.66 70.67 -16.32 70.34 -17 70 C-17.625 67.9375 -17.625 67.9375 -18 66 C-18.33 66 -18.66 66 -19 66 Z M-15 67 C-14 69 -14 69 -14 69 Z M-73 70 C-73 70.33 -73 70.66 -73 71 C-59.14 71 -45.28 71 -31 71 C-31 70.67 -31 70.34 -31 70 C-44.86 70 -58.72 70 -73 70 Z M-23 70 C-22 72 -22 72 -22 72 Z M-73 73 C-72.67 90.16 -72.34 107.32 -72 125 C-71.67 125 -71.34 125 -71 125 C-70.67 107.84 -70.34 90.68 -70 73 C-70.99 73 -71.98 73 -73 73 Z M-65 73 C-65 90.49 -65 107.98 -65 126 C-64.34 126.33 -63.68 126.66 -63 127 C-62.67 109.18 -62.34 91.36 -62 73 C-62.99 73 -63.98 73 -65 73 Z M-57 73 C-57 91.15 -57 109.3 -57 128 C-56.34 128 -55.68 128 -55 128 C-54.67 109.85 -54.34 91.7 -54 73 C-54.99 73 -55.98 73 -57 73 Z M-50 73 C-49.67 91.15 -49.34 109.3 -49 128 C-48.34 128 -47.68 128 -47 128 C-46.67 109.85 -46.34 91.7 -46 73 C-47.32 73 -48.64 73 -50 73 Z M-41 73 C-40.67 90.82 -40.34 108.64 -40 127 C-39.34 127 -38.68 127 -38 127 C-38 109.18 -38 91.36 -38 73 C-38.99 73 -39.98 73 -41 73 Z M-32 73 C-32 90.16 -32 107.32 -32 125 C-31.34 125 -30.68 125 -30 125 C-30 107.84 -30 90.68 -30 73 C-30.66 73 -31.32 73 -32 73 Z M-68 74 C-69.22900462 75.00746419 -69.22900462 75.00746419 -69.12025452 77.05641174 C-69.11803391 77.96020065 -69.11581329 78.86398956 -69.11352539 79.79516602 C-69.11344986 80.81614883 -69.11337433 81.83713165 -69.11329651 82.88905334 C-69.10813522 83.9994548 -69.10297394 85.10985626 -69.09765625 86.25390625 C-69.0962413 87.38448959 -69.09482635 88.51507294 -69.09336853 89.67991638 C-69.08775019 93.30747065 -69.07519458 96.93496424 -69.0625 100.5625 C-69.05748736 103.01497307 -69.05292405 105.4674471 -69.04882812 107.91992188 C-69.0377748 113.94663545 -69.02101884 119.97331339 -69 126 C-68.34 126 -67.68 126 -67 126 C-67 108.84 -67 91.68 -67 74 C-67.33 74 -67.66 74 -68 74 Z M-60 74 C-61.2337198 75.01191638 -61.2337198 75.01191638 -61.12025452 77.09437561 C-61.11803391 78.01592941 -61.11581329 78.93748322 -61.11352539 79.88696289 C-61.11344986 80.92796646 -61.11337433 81.96897003 -61.11329651 83.04151917 C-61.10813522 84.1737944 -61.10297394 85.30606964 -61.09765625 86.47265625 C-61.0962413 87.62543564 -61.09482635 88.77821503 -61.09336853 89.96592712 C-61.08775005 93.66481064 -61.07519442 97.36363464 -61.0625 101.0625 C-61.05748738 103.56315017 -61.05292406 106.06380129 -61.04882812 108.56445312 C-61.03777462 114.70965588 -61.02101852 120.85482369 -61 127 C-60.34 127 -59.68 127 -59 127 C-59 109.51 -59 92.02 -59 74 C-59.33 74 -59.66 74 -60 74 Z M-52 74 C-53.23842645 75.01636959 -53.23842645 75.01636959 -53.12025452 77.13233948 C-53.11803391 78.07165817 -53.11581329 79.01097687 -53.11352539 79.97875977 C-53.11344986 81.03978409 -53.11337433 82.10080841 -53.11329651 83.19398499 C-53.10813522 84.348134 -53.10297394 85.50228302 -53.09765625 86.69140625 C-53.0962413 87.86638168 -53.09482635 89.04135712 -53.09336853 90.25193787 C-53.08774992 94.02215064 -53.07519426 97.79230504 -53.0625 101.5625 C-53.0574874 104.11132727 -53.05292408 106.66015547 -53.04882812 109.20898438 C-53.03777444 115.47267633 -53.02101821 121.73633399 -53 128 C-52.34 128 -51.68 128 -51 128 C-51 110.18 -51 92.36 -51 74 C-51.33 74 -51.66 74 -52 74 Z M-44 74 C-45.2337198 75.01191638 -45.2337198 75.01191638 -45.12025452 77.09437561 C-45.11803391 78.01592941 -45.11581329 78.93748322 -45.11352539 79.88696289 C-45.11344986 80.92796646 -45.11337433 81.96897003 -45.11329651 83.04151917 C-45.10813522 84.1737944 -45.10297394 85.30606964 -45.09765625 86.47265625 C-45.0962413 87.62543564 -45.09482635 88.77821503 -45.09336853 89.96592712 C-45.08775005 93.66481064 -45.07519442 97.36363464 -45.0625 101.0625 C-45.05748738 103.56315017 -45.05292406 106.06380129 -45.04882812 108.56445312 C-45.03777462 114.70965588 -45.02101852 120.85482369 -45 127 C-44.01 127 -43.02 127 -42 127 C-42 109.84 -42 92.68 -42 75 C-42.66 74.67 -43.32 74.34 -44 74 Z M-36 74 C-36 91.16 -36 108.32 -36 126 C-35.34 126 -34.68 126 -34 126 C-34 108.84 -34 91.68 -34 74 C-34.66 74 -35.32 74 -36 74 Z M-75 76 C-76.1760003 78.3520006 -76.12084541 79.73734401 -76.11352539 82.35791016 C-76.11344986 83.25869293 -76.11337433 84.15947571 -76.11329651 85.08755493 C-76.10813522 86.06155243 -76.10297394 87.03554993 -76.09765625 88.0390625 C-76.0962413 89.03505463 -76.09482635 90.03104675 -76.09336853 91.05722046 C-76.08775936 94.24651053 -76.0752053 97.43573106 -76.0625 100.625 C-76.05748618 102.78385315 -76.05292307 104.94270741 -76.04882812 107.1015625 C-76.03778695 112.4010655 -76.02103988 117.70052778 -76 123 C-75.34 123.33 -74.68 123.66 -74 124 C-74 108.16 -74 92.32 -74 76 C-74.33 76 -74.66 76 -75 76 Z M-28 79 C-28 93.85 -28 108.7 -28 124 C-27.01 123.505 -27.01 123.505 -26 123 C-26 108.81 -26 94.62 -26 80 C-26.66 79.67 -27.32 79.34 -28 79 Z M-81 82 C-81 94.87 -81 107.74 -81 121 C-80.67 121 -80.34 121 -80 121 C-80 108.13 -80 95.26 -80 82 C-80.33 82 -80.66 82 -81 82 Z M-24 82 C-24 95.2 -24 108.4 -24 122 C-23.67 122 -23.34 122 -23 122 C-23 108.8 -23 95.6 -23 82 C-23.33 82 -23.66 82 -24 82 Z M-84 83 C-84 95.21 -84 107.42 -84 120 C-83.67 120 -83.34 120 -83 120 C-83 107.79 -83 95.58 -83 83 C-83.33 83 -83.66 83 -84 83 Z M-22 83 C-22 95.54 -22 108.08 -22 121 C-21.67 121 -21.34 121 -21 121 C-21 108.46 -21 95.92 -21 83 C-21.33 83 -21.66 83 -22 83 Z M-19 83 C-19 95.21 -19 107.42 -19 120 C-18.67 120 -18.34 120 -18 120 C-18 107.79 -18 95.58 -18 83 C-18.33 83 -18.66 83 -19 83 Z " fill="#F06023" transform="translate(151,45)"/>
<path d="M0 0 C19.6488076 16.18390602 32.94226486 38.82946367 36.16967773 64.25024414 C38.29194675 95.29580568 32.08888812 121.48220776 11.62841797 145.40625 C-4.74349398 163.87170062 -28.17418751 176.76983466 -53.04101562 178.46972656 C-84.7931437 179.57163745 -110.47514573 172.61351183 -134.25024414 150.76245117 C-147.10844012 138.45656955 -155.80244482 123.28587595 -160.83032227 106.25024414 C-161.1487207 105.26024414 -161.46711914 104.27024414 -161.79516602 103.25024414 C-168.53663997 78.39688396 -164.11029146 50.574144 -151.83032227 28.25024414 C-148.86144143 23.30006473 -145.46817168 18.72512086 -141.83032227 14.25024414 C-141.03754883 13.27442383 -140.24477539 12.29860352 -139.42797852 11.29321289 C-126.79049045 -3.35152612 -110.31794385 -13.22747928 -91.83032227 -18.74975586 C-90.44393555 -19.19641602 -90.44393555 -19.19641602 -89.02954102 -19.65209961 C-58.00903286 -28.03497666 -24.71551903 -19.71916946 0 0 Z M-126.83032227 2.25024414 C-127.64758789 2.93731445 -128.46485352 3.62438477 -129.30688477 4.33227539 C-148.45268875 20.84625435 -160.54389729 45.11524446 -162.5612793 70.33251953 C-164.08742429 95.94847529 -157.03877042 121.7647562 -139.83032227 141.25024414 C-138.7997168 142.47614258 -138.7997168 142.47614258 -137.74829102 143.72680664 C-121.48319291 162.58406574 -97.67671004 174.50102857 -72.89282227 177.00024414 C-71.2063649 177.10252928 -69.51871727 177.18761013 -67.83032227 177.25024414 C-67.13422852 177.29020508 -66.43813477 177.33016602 -65.72094727 177.37133789 C-38.04655831 178.25566987 -12.51963567 166.10494149 7.35717773 147.50024414 C25.86162073 127.98292637 35.78210066 101.91534597 35.14794922 75.09863281 C34.5442331 61.00478716 31.26484047 48.0125497 25.16967773 35.25024414 C24.52579102 33.9005957 24.52579102 33.9005957 23.86889648 32.52368164 C12.12068951 9.55676434 -8.74233839 -8.0574986 -33.26928711 -16.05078125 C-65.23658742 -25.63215075 -101.38839922 -20.21858062 -126.83032227 2.25024414 Z " fill="#F06023" transform="translate(163.830322265625,21.749755859375)"/>
<path d="M0 0 C21.10456031 16.96448986 35.35452008 40.36228654 38.515625 67.42578125 C39.97455821 94.66389533 34.12408186 120.91132102 15.79003906 141.85229492 C-1.0761162 160.45297436 -24.27170097 174.20064115 -49.83886719 175.55004883 C-78.8927137 176.43838586 -103.59571876 169.06119346 -125.484375 149.42578125 C-126.12890625 148.85214844 -126.7734375 148.27851563 -127.4375 147.6875 C-144.38469777 131.69453634 -154.86423441 107.41945316 -155.703125 84.31640625 C-156.37272988 55.1201116 -146.76368026 29.59715496 -126.734375 8.23828125 C-92.91787665 -23.82326908 -37.65767696 -28.77756074 0 0 Z M-130.921875 16.01171875 C-149.31702652 37.2811127 -155.26636498 62.79354269 -153.484375 90.42578125 C-150.70351579 115.45351414 -137.03267045 137.0054228 -118.171875 153.17578125 C-107.91632711 161.21706312 -96.96679533 166.70641447 -84.484375 170.42578125 C-83.44539063 170.74546875 -82.40640625 171.06515625 -81.3359375 171.39453125 C-56.88193795 177.78928174 -30.78752706 173.00189506 -9.171875 160.51171875 C12.78405418 146.45320287 28.66737219 125.49439788 34.890625 100.05078125 C40.48276935 74.44976653 35.72973514 48.2093157 21.765625 26.17578125 C6.58878574 4.62408466 -14.76112361 -10.48555831 -40.7109375 -15.6796875 C-75.5848371 -21.72489402 -107.04106551 -9.3233708 -130.921875 16.01171875 Z " fill="#F06023" transform="translate(158.484375,21.57421875)"/>
<path d="M0 0 C2.49159403 2.20641158 4.8930454 4.47952464 7.28125 6.796875 C7.90644531 7.34859375 8.53164062 7.9003125 9.17578125 8.46875 C23.16061319 21.22241164 28.89459191 40.61961727 30.56640625 58.91796875 C30.77461519 65.58970742 29.69498932 71.87931394 28.26123047 78.3671875 C27.05847416 83.20010735 27.05847416 83.20010735 28.28125 87.796875 C30.5682018 88.8300909 30.5682018 88.8300909 33.28125 89.359375 C36.03125 89.98828125 36.03125 89.98828125 38.28125 90.796875 C38.61125 91.786875 38.94125 92.776875 39.28125 93.796875 C38.29125 94.291875 38.29125 94.291875 37.28125 94.796875 C35.20928369 94.06508634 33.1703948 93.23788497 31.15625 92.359375 C29.51269531 91.64974609 29.51269531 91.64974609 27.8359375 90.92578125 C26.99289063 90.55324219 26.14984375 90.18070312 25.28125 89.796875 C24.85714844 90.70308594 24.43304688 91.60929687 23.99609375 92.54296875 C20.4385379 99.98875398 16.66539586 106.48399536 11.28125 112.796875 C10.64316406 113.62445313 10.00507813 114.45203125 9.34765625 115.3046875 C-3.01131022 130.2102085 -22.90522016 137.90974509 -41.71875 139.796875 C-60.75238758 140.96775685 -80.5201439 135.68195236 -95.4375 123.59375 C-97.92909403 121.38733842 -100.3305454 119.11422536 -102.71875 116.796875 C-103.34394531 116.24515625 -103.96914062 115.6934375 -104.61328125 115.125 C-118.45345397 102.50326235 -124.84013337 82.71847333 -125.84765625 64.4609375 C-126.35047255 43.74490591 -119.16180131 24.04862528 -104.890625 9.03515625 C-104.17390625 8.29652344 -103.4571875 7.55789062 -102.71875 6.796875 C-102.16703125 6.17167969 -101.6153125 5.54648437 -101.046875 4.90234375 C-76.00170046 -22.56055804 -27.8689216 -22.58343647 0 0 Z M-105.390625 11.73828125 C-115.66190442 24.0926955 -122.74010347 39.6343793 -123.71875 55.796875 C-123.77160156 56.65410156 -123.82445313 57.51132813 -123.87890625 58.39453125 C-124.4892676 78.11185671 -117.71961627 97.48600295 -104.90625 112.546875 C-90.72894403 127.56291472 -72.19502198 136.69400347 -51.5 138 C-30.14906719 138.30501333 -9.70070495 131.12457818 5.90625 116.29296875 C21.06916664 100.35694287 28.70582151 80.56869297 28.49609375 58.6171875 C27.33468296 37.96519198 18.17301814 18.79719109 3.078125 4.74609375 C-29.11278634 -22.70145482 -76.85494257 -19.67600072 -105.390625 11.73828125 Z " fill="#F06023" transform="translate(147.71875,38.203125)"/>
<path d="M0 0 C2 3 2 3 1.75 6.0625 C1 9 1 9 -1 11 C-0.319375 11.70125 0.36125 12.4025 1.0625 13.125 C3 16 3 16 2.9375 19.125 C1.49394464 23.55190311 1.49394464 23.55190311 -1 25 C-5.11331542 25.39174433 -7.74715576 25.56377991 -11.5 23.875 C-13 22 -13 22 -13.5 19.125 C-12.90144704 15.38404398 -11.56506559 13.72538219 -9 11 C-9.495 10.608125 -9.99 10.21625 -10.5 9.8125 C-12 8 -12 8 -12.5 5.5625 C-12 3 -12 3 -9.9375 0.625 C-6.11754488 -1.48816666 -4.14604871 -1.17341001 0 0 Z M-6 1 C-7.77190909 2.35444301 -7.77190909 2.35444301 -9 4 C-7.63016497 7.16115776 -7.0109362 7.9927092 -4 10 C-2.3516367 8.24755753 -2.3516367 8.24755753 -1 6 C-1.21717352 3.79199472 -1.21717352 3.79199472 -2 2 C-3.83700789 1.22757731 -3.83700789 1.22757731 -6 1 Z M-8.8125 14.6875 C-10.2873687 16.97933501 -10.2873687 16.97933501 -9.5 19.6875 C-8.18798208 22.21203273 -8.18798208 22.21203273 -5.5 22.9375 C-4.675 22.958125 -3.85 22.97875 -3 23 C-0.77033253 21.17796419 -0.77033253 21.17796419 -0.6875 18.5625 C-0.7928052 15.97824934 -0.7928052 15.97824934 -2.3125 14.1875 C-4.99547321 12.29948182 -6.44657895 12.48474592 -8.8125 14.6875 Z " fill="#F06023" transform="translate(93,61)"/>
<path d="M0 0 C3.96 0 7.92 0 12 0 C12 1.32 12 2.64 12 4 C10.35 4 8.7 4 7 4 C7.495 4.45375 7.99 4.9075 8.5 5.375 C10 7 10 7 10 9 C8.35 9 6.7 9 5 9 C5 9.66 5 10.32 5 11 C6.32 11 7.64 11 9 11 C9 12.98 9 14.96 9 17 C7.35 17.33 5.7 17.66 4 18 C4.33 18.99 4.66 19.98 5 21 C5.99 21.33 6.98 21.66 8 22 C8 24.64 8 27.28 8 30 C4.04 30 0.08 30 -4 30 C-4 28.68 -4 27.36 -4 26 C-0.7 26.33 2.6 26.66 6 27 C4.76736651 23.30209954 3.79947549 23.0645154 0.4375 21.3125 C-0.38878906 20.87550781 -1.21507812 20.43851563 -2.06640625 19.98828125 C-2.70449219 19.66214844 -3.34257812 19.33601563 -4 19 C-0.31265242 16.54176828 2.69699971 15.98757384 7 15 C4.3534665 12.3534665 1.43778736 11.40058003 -2 10 C-2 9.34 -2 8.68 -2 8 C0.31 7.34 2.62 6.68 5 6 C3.35 4.02 1.7 2.04 0 0 Z " fill="#F06023" transform="translate(12,71)"/>
<path d="M0 0 C3.96 0 7.92 0 12 0 C12 1.65 12 3.3 12 5 C11.34 4.67 10.68 4.34 10 4 C7.6670134 3.95977609 5.33293334 3.95679753 3 4 C2.67 4.99 2.34 5.98 2 7 C2.721875 7.061875 3.44375 7.12375 4.1875 7.1875 C8.02257696 8.29541112 9.59272465 9.83615239 12 13 C12.78154305 17.3766411 12.51596953 19.21772362 10.0625 22.9375 C5.95351764 25.70477383 2.80815498 25.47138774 -2 25 C-2 22.69 -2 20.38 -2 18 C-1.34 18 -0.68 18 0 18 C0.33 19.32 0.66 20.64 1 22 C2.98 21.67 4.96 21.34 7 21 C7.95020416 18.760165 7.95020416 18.760165 8 16 C5.47494414 12.91382062 3.80132605 11.26710868 0 10 C0 6.7 0 3.4 0 0 Z " fill="#F06023" transform="translate(119,61)"/>
<path d="M0 0 C3.96 0 7.92 0 12 0 C12 1.65 12 3.3 12 5 C11.34 5 10.68 5 10 5 C10 4.34 10 3.68 10 3 C7.36 3 4.72 3 2 3 C2 4.32 2 5.64 2 7 C2.721875 7.061875 3.44375 7.12375 4.1875 7.1875 C7.98995534 8.2859871 9.58447681 9.89432732 12 13 C12.7446324 16.97137281 12.37266878 18.44099683 10.125 21.8125 C7.08130277 24.94571773 7.08130277 24.94571773 4.0546875 25.09765625 C2.03645833 25.06510417 0.01822917 25.03255208 -2 25 C-2 22.69 -2 20.38 -2 18 C-1.34 18.33 -0.68 18.66 0 19 C0.33 19.99 0.66 20.98 1 22 C2.98 21.67 4.96 21.34 7 21 C7.33380814 17.62563814 7.33380814 17.62563814 7 14 C4.74640305 11.66869281 3.08784275 11.02928092 0 10 C0 6.7 0 3.4 0 0 Z " fill="#F06023" transform="translate(101,61)"/>
<path d="M0 0 C0.99 0.33 1.98 0.66 3 1 C1.35 2.98 -0.3 4.96 -2 7 C-1.01 7.33 -0.02 7.66 1 8 C3.67676547 6.62750037 3.67676547 6.62750037 6 5 C6.33 5.66 6.66 6.32 7 7 C5.35 8.32 3.7 9.64 2 11 C2.66 11.66 3.32 12.32 4 13 C5.98 12.01 7.96 11.02 10 10 C10.66 11.65 11.32 13.3 12 15 C11.34 15 10.68 15 10 15 C10 14.34 10 13.68 10 13 C9.34 13 8.68 13 8 13 C8.33 13.99 8.66 14.98 9 16 C8.34 16.33 7.68 16.66 7 17 C7 16.34 7 15.68 7 15 C6.34 15 5.68 15 5 15 C5.33 16.32 5.66 17.64 6 19 C6.94875 18.505 7.8975 18.01 8.875 17.5 C12 16 12 16 14 16 C13.34 18.31 12.68 20.62 12 23 C13.32 22.34 14.64 21.68 16 21 C16.33 21.99 16.66 22.98 17 24 C12.545 25.485 12.545 25.485 8 27 C8.99 23.535 8.99 23.535 10 20 C8.02 20.99 8.02 20.99 6 22 C5.55269531 21.35933594 5.10539063 20.71867187 4.64453125 20.05859375 C1.12262889 15.01979528 -2.41650072 9.99518082 -6 5 C-1.60546875 0.99609375 -1.60546875 0.99609375 0 0 Z " fill="#F06023" transform="translate(147,51)"/>
<path d="M0 0 C3.465 2.475 3.465 2.475 7 5 C6.67 5.99 6.34 6.98 6 8 C3.4375 9.1875 3.4375 9.1875 1 10 C1 10.99 1 11.98 1 13 C0.01 13 -0.98 13 -2 13 C-2 14.32 -2 15.64 -2 17 C-3.32 17.33 -4.64 17.66 -6 18 C-5.6596875 18.86625 -5.6596875 18.86625 -5.3125 19.75 C-5 22 -5 22 -6.4375 24.25 C-6.953125 24.8275 -7.46875 25.405 -8 26 C-10.04119788 24.38405168 -12.04072937 22.7143618 -14 21 C-14 20.34 -14 19.68 -14 19 C-12.02 19.33 -10.04 19.66 -8 20 C-8.495 19.38125 -8.99 18.7625 -9.5 18.125 C-11 16 -11 16 -11 14 C-8.69 14.33 -6.38 14.66 -4 15 C-4.66 14.38125 -5.32 13.7625 -6 13.125 C-8 11 -8 11 -8 9 C-5.03 9.495 -5.03 9.495 -2 10 C-2.66 8.02 -3.32 6.04 -4 4 C-1.69 4.66 0.62 5.32 3 6 C1.68 4.35 0.36 2.7 -1 1 C-0.67 0.67 -0.34 0.34 0 0 Z " fill="#F06023" transform="translate(52,50)"/>
<path d="M0 0 C0 7.92 0 15.84 0 24 C1.32 24.33 2.64 24.66 4 25 C4 25.33 4 25.66 4 26 C0.04 26 -3.92 26 -8 26 C-7.67 25.34 -7.34 24.68 -7 24 C-6.01 24 -5.02 24 -4 24 C-4 17.73 -4 11.46 -4 5 C-5.32 5.33 -6.64 5.66 -8 6 C-8 5.34 -8 4.68 -8 4 C-2.58823529 0 -2.58823529 0 0 0 Z " fill="#F06023" transform="translate(74,60)"/>
<path d="M0 0 C1.32 0.33 2.64 0.66 4 1 C4 4.63 4 8.26 4 12 C0.84866512 10.16172132 -2.11964908 8.24027294 -5 6 C-4.34 8.31 -3.68 10.62 -3 13 C-4.32 12.67 -5.64 12.34 -7 12 C-7 9.03 -7 6.06 -7 3 C-7.66 3 -8.32 3 -9 3 C-9.99 5.97 -10.98 8.94 -12 12 C-11.34 12.33 -10.68 12.66 -10 13 C-11.65 13 -13.3 13 -15 13 C-14.9071875 11.6696875 -14.9071875 11.6696875 -14.8125 10.3125 C-15.01951982 6.65514983 -15.916074 4.95222849 -18 2 C-16.68 2 -15.36 2 -14 2 C-13.01 3.485 -13.01 3.485 -12 5 C-11.67 4.01 -11.34 3.02 -11 2 C-9 1.125 -9 1.125 -6 1 C-3.10933821 2.73653434 -0.55843792 4.80977399 2 7 C2 5.35 2 3.7 2 2 C1.34 2 0.68 2 0 2 C0 1.34 0 0.68 0 0 Z " fill="#F06023" transform="translate(113,179)"/>
<path d="M0 0 C-1 3 -1 3 -3 5 C-0.69 5.33 1.62 5.66 4 6 C4.25 8.3125 4.25 8.3125 4 11 C1.67999848 13.587694 0.35205038 13.97183597 -3.125 14.25 C-6 14 -6 14 -8 13 C-7.505 13.45375 -7.01 13.9075 -6.5 14.375 C-5 16 -5 16 -5 18 C-5.99 18.33 -6.98 18.66 -8 19 C-8.33773437 18.50628906 -8.67546875 18.01257813 -9.0234375 17.50390625 C-9.46945313 16.86324219 -9.91546875 16.22257812 -10.375 15.5625 C-10.81585938 14.92441406 -11.25671875 14.28632812 -11.7109375 13.62890625 C-12.92160853 11.86259072 -12.92160853 11.86259072 -15 11 C-15 10.34 -15 9.68 -15 9 C-11.77208445 6.8480563 -10.71599191 6.79913557 -7 7 C-6.7525 7.639375 -6.505 8.27875 -6.25 8.9375 C-5.18437567 11.18741541 -5.18437567 11.18741541 -2.875 11.75 C-2.25625 11.8325 -1.6375 11.915 -1 12 C-0.67 11.34 -0.34 10.68 0 10 C0.66 9.67 1.32 9.34 2 9 C1.030625 8.7525 0.06125 8.505 -0.9375 8.25 C-4 7 -4 7 -5.0625 5.0625 C-5 3 -5 3 -3.6875 1.25 C-2 0 -2 0 0 0 Z M-12 9 C-11.01 10.485 -11.01 10.485 -10 12 C-9.34 12 -8.68 12 -8 12 C-8.33 11.01 -8.66 10.02 -9 9 C-9.99 9 -10.98 9 -12 9 Z " fill="#F06023" transform="translate(55,20)"/>
<path d="M0 0 C2.4375 0.6875 2.4375 0.6875 5 2 C5.8125 4.625 5.8125 4.625 6 7 C5.01 7.33 4.02 7.66 3 8 C3 9.65 3 11.3 3 13 C3.99 13 4.98 13 6 13 C6 13.99 6 14.98 6 16 C6.66 15.67 7.32 15.34 8 15 C7.979375 14.05125 7.95875 13.1025 7.9375 12.125 C8 9 8 9 9 7 C10.65 7.33 12.3 7.66 14 8 C14.33 8.99 14.66 9.98 15 11 C14.34 11 13.68 11 13 11 C13 10.34 13 9.68 13 9 C12.01 9 11.02 9 10 9 C10.20625 10.11375 10.4125 11.2275 10.625 12.375 C10.74875 13.57125 10.8725 14.7675 11 16 C10.34 16.66 9.68 17.32 9 18 C5.66566179 17.66656618 3.31507428 16.3977555 1 14 C0.75 10.8125 0.75 10.8125 1 8 C0.34 8 -0.32 8 -1 8 C-1 9.32 -1 10.64 -1 12 C-2.32 11.34 -3.64 10.68 -5 10 C-4.6390625 9.36191406 -4.278125 8.72382813 -3.90625 8.06640625 C-3.4421875 7.24011719 -2.978125 6.41382813 -2.5 5.5625 C-2.0359375 4.73878906 -1.571875 3.91507813 -1.09375 3.06640625 C0.07796849 1.24236475 0.07796849 1.24236475 0 0 Z M2 3 C1.67 4.32 1.34 5.64 1 7 C1.99 6.67 2.98 6.34 4 6 C4 5.01 4 4.02 4 3 C3.34 3 2.68 3 2 3 Z " fill="#F06023" transform="translate(143,19)"/>
<path d="M0 0 C1.60875 0.928125 1.60875 0.928125 3.25 1.875 C5.79780984 3.3323679 8.35259355 4.72924491 11 6 C9.68 7.65 8.36 9.3 7 11 C3.58978257 10.21302675 0.31114834 9.12880057 -3 8 C-2.67 8.99 -2.34 9.98 -2 11 C-2.99 11 -3.98 11 -5 11 C-5.33 11.66 -5.66 12.32 -6 13 C-3.36 13 -0.72 13 2 13 C2.33 14.65 2.66 16.3 3 18 C2.01 18.66 1.02 19.32 0 20 C-0.33 19.34 -0.66 18.68 -1 18 C-0.34 17.34 0.32 16.68 1 16 C-0.7015625 16.0309375 -0.7015625 16.0309375 -2.4375 16.0625 C-6 16 -6 16 -7 15 C-7.44173101 11.73119053 -7.31858838 10.4247845 -5.3125 7.75 C-2.79937138 5.84817294 -1.10096781 5.34455198 2 5 C1.01 4.67 0.02 4.34 -1 4 C-0.67 2.68 -0.34 1.36 0 0 Z M4 5 C4.33 6.32 4.66 7.64 5 9 C5.99 8.67 6.98 8.34 8 8 C6.68 7.01 5.36 6.02 4 5 Z " fill="#F06023" transform="translate(170,139)"/>
<path d="M0 0 C3.85103301 0.53675903 5.31797587 2.11600923 7.75 5.0625 C8.36359375 5.79597656 8.9771875 6.52945313 9.609375 7.28515625 C10.06828125 7.85105469 10.5271875 8.41695312 11 9 C10.34 10.65 9.68 12.3 9 14 C10.65 13.67 12.3 13.34 14 13 C14.33 13.99 14.66 14.98 15 16 C11.97265625 16.24414062 11.97265625 16.24414062 8.9453125 16.48828125 C6.60480784 16.87393036 6.60480784 16.87393036 5 20 C4.34 20 3.68 20 3 20 C2.67 18.68 2.34 17.36 2 16 C3.32 15.67 4.64 15.34 6 15 C6.66 12.69 7.32 10.38 8 8 C7.34 8 6.68 8 6 8 C5.34 7.34 4.68 6.68 4 6 C2.35 7.98 0.7 9.96 -1 12 C-2.32 11.34 -3.64 10.68 -5 10 C-3.824375 9.1028125 -3.824375 9.1028125 -2.625 8.1875 C0.14574323 6.08914751 0.14574323 6.08914751 2 3 C1.34 2.67 0.68 2.34 0 2 C0 1.34 0 0.68 0 0 Z " fill="#F06023" transform="translate(163,35)"/>
<path d="M0 0 C1.32 0.66 2.64 1.32 4 2 C4 3.65 4 5.3 4 7 C5.32 5.35 6.64 3.7 8 2 C8.66 3.98 9.32 5.96 10 8 C10.66 6.35 11.32 4.7 12 3 C13.32 3.66 14.64 4.32 16 5 C13.69 8.3 11.38 11.6 9 15 C8.34 14.67 7.68 14.34 7 14 C6.375 10.9375 6.375 10.9375 6 8 C5.54625 8.825 5.0925 9.65 4.625 10.5 C4.08875 11.325 3.5525 12.15 3 13 C2.34 13 1.68 13 1 13 C0.93941406 12.38511719 0.87882812 11.77023438 0.81640625 11.13671875 C0.73261719 10.32847656 0.64882812 9.52023438 0.5625 8.6875 C0.48128906 7.88699219 0.40007812 7.08648437 0.31640625 6.26171875 C0.04734307 3.83912821 0.04734307 3.83912821 -1 1 C-0.67 0.67 -0.34 0.34 0 0 Z " fill="#F06023" transform="translate(73,176)"/>
<path d="M0 0 C0.33 1.32 0.66 2.64 1 4 C-0.98 4 -2.96 4 -5 4 C-3.7625 4.680625 -3.7625 4.680625 -2.5 5.375 C-1.675 5.91125 -0.85 6.4475 0 7 C0 7.66 0 8.32 0 9 C-1.65 9.66 -3.3 10.32 -5 11 C-3.68 11.66 -2.36 12.32 -1 13 C-1 13.99 -1 14.98 -1 16 C-5.10958767 14.54955729 -8.43258745 12.48889248 -12 10 C-11.67 9.34 -11.34 8.68 -11 8 C-8.4375 7.375 -8.4375 7.375 -6 7 C-7.2375 6.319375 -7.2375 6.319375 -8.5 5.625 C-9.325 5.08875 -10.15 4.5525 -11 4 C-11 3.34 -11 2.68 -11 2 C-5.555 1.01 -5.555 1.01 0 0 Z " fill="#F06023" transform="translate(191,107)"/>
<path d="M0 0 C4.29 0 8.58 0 13 0 C11.86695008 3.39914975 10.87481525 4.05254451 8 6 C10.31 6 12.62 6 15 6 C13.50172989 9.81377846 11.23512607 11.57365545 8 14 C7.34 14.66 6.68 15.32 6 16 C5.67 14.68 5.34 13.36 5 12 C6.32 11.01 7.64 10.02 9 9 C6.03 8.505 6.03 8.505 3 8 C4.32 6.35 5.64 4.7 7 3 C5.02 3.33 3.04 3.66 1 4 C0.67 2.68 0.34 1.36 0 0 Z " fill="#F06023" transform="translate(12,127)"/>
<path d="M0 0 C1.64826111 2.96687001 2.44271087 5.65626525 3 9 C0.83125748 8.49396008 -0.99967627 8.00016187 -3 7 C-2.67 8.32 -2.34 9.64 -2 11 C-4.97 11.66 -7.94 12.32 -11 13 C-11.99 10.36 -12.98 7.72 -14 5 C-12.35 4.34 -10.7 3.68 -9 3 C-10 6 -10 6 -11 7 C-10.01 7 -9.02 7 -8 7 C-8.33 8.32 -8.66 9.64 -9 11 C-8.01 10.34 -7.02 9.68 -6 9 C-6.33 6.69 -6.66 4.38 -7 2 C-4.03 3.485 -4.03 3.485 -1 5 C-1.33 3.68 -1.66 2.36 -2 1 C-1.34 0.67 -0.68 0.34 0 0 Z " fill="#F06023" transform="translate(85,32)"/>
<path d="M0 0 C0.66 0 1.32 0 2 0 C2.66 1.32 3.32 2.64 4 4 C2.02 4.99 2.02 4.99 0 6 C0.99 6.99 1.98 7.98 3 9 C3.66 8.01 4.32 7.02 5 6 C6.32 6.66 7.64 7.32 9 8 C6.33333333 10.66666667 3.66666667 13.33333333 1 16 C0.01 15.67 -0.98 15.34 -2 15 C-2 14.34 -2 13.68 -2 13 C-1.34 12.67 -0.68 12.34 0 12 C-0.33 11.01 -0.66 10.02 -1 9 C-1.66 9 -2.32 9 -3 9 C-3.33 9.66 -3.66 10.32 -4 11 C-4.66 11 -5.32 11 -6 11 C-6.33 10.01 -6.66 9.02 -7 8 C-6.4946875 7.59007812 -5.989375 7.18015625 -5.46875 6.7578125 C-4.49421875 5.94957031 -4.49421875 5.94957031 -3.5 5.125 C-2.8503125 4.59132812 -2.200625 4.05765625 -1.53125 3.5078125 C-0.77328125 2.76144531 -0.77328125 2.76144531 0 2 C0 1.34 0 0.68 0 0 Z " fill="#F06023" transform="translate(35,149)"/>
<path d="M0 0 C3.96 0 7.92 0 12 0 C10.47524303 3.04951395 9.07114674 5.36399506 7 8 C8.98 7.67 10.96 7.34 13 7 C12.67 8.32 12.34 9.64 12 11 C8.37 11 4.74 11 1 11 C4.75 5.25 4.75 5.25 7 3 C4.69 3.33 2.38 3.66 0 4 C0 2.68 0 1.36 0 0 Z " fill="#F06023" transform="translate(179,84)"/>
<path d="M0 0 C3.99996286 1.33332095 4.83782337 3.4957827 7 7 C7 4.69 7 2.38 7 0 C8.32 0.66 9.64 1.32 11 2 C10.34 5.3 9.68 8.6 9 12 C8.34 12 7.68 12 7 12 C5.7109375 10.46875 5.7109375 10.46875 4.375 8.5 C3.92898437 7.8503125 3.48296875 7.200625 3.0234375 6.53125 C2.51683594 5.77328125 2.51683594 5.77328125 2 5 C2 7.31 2 9.62 2 12 C0.68 11.34 -0.64 10.68 -2 10 C-1.34 6.7 -0.68 3.4 0 0 Z " fill="#F06023" transform="translate(103,8)"/>
<path d="M0 0 C2.14373717 5.24024641 2.14373717 5.24024641 1.5625 8.3125 C0 10 0 10 -3.375 11 C-7 11 -7 11 -9.5 9.4375 C-11 7 -11 7 -10.9375 3.875 C-8.98236719 -2.12074061 -5.29123896 -0.99834697 0 0 Z M-7.875 2.1875 C-9.24450104 3.96094026 -9.24450104 3.96094026 -8.6875 6.1875 C-8.460625 6.785625 -8.23375 7.38375 -8 8 C-5.65466049 8.76956136 -5.65466049 8.76956136 -3 9 C-1.01970318 7.93654948 -1.01970318 7.93654948 0 6 C-0.22757731 3.83700789 -0.22757731 3.83700789 -1 2 C-4.56826025 0.84871656 -4.56826025 0.84871656 -7.875 2.1875 Z " fill="#F06023" transform="translate(183,59)"/>
<path d="M0 0 C0.99 0 1.98 0 3 0 C4.19287411 3.87684087 5 6.91621923 5 11 C1.59687262 9.94124926 -1.01353231 8.99097846 -4 7 C-3.34 8.98 -2.68 10.96 -2 13 C-2.99 13.33 -3.98 13.66 -5 14 C-7.27678571 5.96428571 -7.27678571 5.96428571 -6 2 C-2.535 3.98 -2.535 3.98 1 6 C0.67 4.02 0.34 2.04 0 0 Z " fill="#F06023" transform="translate(78,10)"/>
<path d="M0 0 C2 2 2 2 2.375 5.4375 C2 9 2 9 0.3125 11 C-2.64288086 12.27800253 -3.98998383 12.08051862 -7 11 C-8.875 9.875 -8.875 9.875 -10 8 C-9.9375 4.4375 -9.9375 4.4375 -9 1 C-6.02630528 -1.54888119 -3.60280512 -1.13772793 0 0 Z M-6 1 C-6.66 1.66 -7.32 2.32 -8 3 C-8.07272562 5.55460214 -8.07272562 5.55460214 -7 8 C-4.63276087 9.48046297 -4.63276087 9.48046297 -2 10 C-1.34 9.67 -0.68 9.34 0 9 C-0.33 6.69 -0.66 4.38 -1 2 C-3.39719432 1.32041397 -3.39719432 1.32041397 -6 1 Z " fill="#F06023" transform="translate(68,16)"/>
<path d="M0 0 C1.32 0.33 2.64 0.66 4 1 C4 3.64 4 6.28 4 9 C5.32 9.33 6.64 9.66 8 10 C7.67 6.7 7.34 3.4 7 0 C8.32 0.33 9.64 0.66 11 1 C10.88590407 2.45922693 10.75834456 3.91740598 10.625 5.375 C10.55539063 6.18710938 10.48578125 6.99921875 10.4140625 7.8359375 C10 10 10 10 8 12 C5.5 12.25 5.5 12.25 3 12 C0.50494038 9.50494038 0.64051624 8.32671112 0.375 4.875 C0.30023438 3.96492187 0.22546875 3.05484375 0.1484375 2.1171875 C0.09945312 1.41851562 0.05046875 0.71984375 0 0 Z " fill="#F06023" transform="translate(89,8)"/>
<path d="M0 0 C3 3 6 6 9 9 C7.35 10.32 5.7 11.64 4 13 C4 12.01 4 11.02 4 10 C3.34 9.34 2.68 8.68 2 8 C1.67 8.66 1.34 9.32 1 10 C0.67 8.35 0.34 6.7 0 5 C-0.99 5.66 -1.98 6.32 -3 7 C-3 3 -3 3 -1.5 1.25 C-1.005 0.8375 -0.51 0.425 0 0 Z " fill="#F06023" transform="translate(160,153)"/>
<path d="M0 0 C3.99996286 1.33332095 4.83782337 3.4957827 7 7 C4 8 4 8 3 8 C1.66431979 8.32380126 0.33076989 8.65657551 -1 9 C-1 9.99 -1 10.98 -1 12 C-1.66 12 -2.32 12 -3 12 C-3.66 9.03 -4.32 6.06 -5 3 C-3.02 3.99 -1.04 4.98 1 6 C0.67 4.02 0.34 2.04 0 0 Z " fill="#F06023" transform="translate(67,39)"/>
<path d="M0 0 C1.32 0.33 2.64 0.66 4 1 C4.33 3.31 4.66 5.62 5 8 C5.99 6.35 6.98 4.7 8 3 C9.32 3.66 10.64 4.32 12 5 C10.33333333 6.66666667 8.66666667 8.33333333 7 10 C6.443125 10.598125 5.88625 11.19625 5.3125 11.8125 C4 13 4 13 2 13 C1.34 8.71 0.68 4.42 0 0 Z " fill="#F06023" transform="translate(122,10)"/>
<path d="M0 0 C2 1 2 1 2.8515625 3.50390625 C3.10679688 4.51324219 3.36203125 5.52257812 3.625 6.5625 C3.88539062 7.57441406 4.14578125 8.58632812 4.4140625 9.62890625 C4.60742188 10.41136719 4.80078125 11.19382813 5 12 C4.01 12 3.02 12 2 12 C1.67 10.68 1.34 9.36 1 8 C0.01 8 -0.98 8 -2 8 C-2 9.32 -2 10.64 -2 12 C-3.32 11.34 -4.64 10.68 -6 10 C-5.34 10 -4.68 10 -4 10 C-3.79503906 9.36191406 -3.59007813 8.72382813 -3.37890625 8.06640625 C-3.10949219 7.24011719 -2.84007813 6.41382813 -2.5625 5.5625 C-2.29566406 4.73878906 -2.02882813 3.91507813 -1.75390625 3.06640625 C-1 1 -1 1 0 0 Z " fill="#F06023" transform="translate(91,180)"/>
<path d="M0 0 C-0.33 0.99 -0.66 1.98 -1 3 C-1.66 2.67 -2.32 2.34 -3 2 C-3 2.99 -3 3.98 -3 5 C-2.01 4.67 -1.02 4.34 0 4 C0.33 4.99 0.66 5.98 1 7 C0.01 7 -0.98 7 -2 7 C-2 7.99 -2 8.98 -2 10 C-0.68 9.67 0.64 9.34 2 9 C2 9.99 2 10.98 2 12 C0.02 12.33 -1.96 12.66 -4 13 C-4.33 9.7 -4.66 6.4 -5 3 C-5.66 3 -6.32 3 -7 3 C-7 2.34 -7 1.68 -7 1 C-4.50935112 0.31292445 -2.62113708 0 0 0 Z " fill="#F06023" transform="translate(125,177)"/>
<path d="M0 0 C2.2477975 2.05233685 3.0022242 3.00667261 4 6 C-0.95 8.97 -0.95 8.97 -6 12 C-9 8 -9 8 -9 6 C-6 7 -6 7 -4 8 C-4.33 6.68 -4.66 5.36 -5 4 C-4.34 3.67 -3.68 3.34 -3 3 C-2.34 3.66 -1.68 4.32 -1 5 C-0.67 4.34 -0.34 3.68 0 3 C-0.66 2.34 -1.32 1.68 -2 1 C-1.34 0.67 -0.68 0.34 0 0 Z " fill="#F06023" transform="translate(31,142)"/>
<path d="M0 0 C0.54269531 0.28875 1.08539063 0.5775 1.64453125 0.875 C2.35996094 1.24625 3.07539063 1.6175 3.8125 2 C4.52019531 2.37125 5.22789062 2.7425 5.95703125 3.125 C8.08920729 4.19685358 8.08920729 4.19685358 11 4 C10.34 6.31 9.68 8.62 9 11 C8.01 10.67 7.02 10.34 6 10 C6.33 9.01 6.66 8.02 7 7 C6.34 6.67 5.68 6.34 5 6 C4.67 6.99 4.34 7.98 4 9 C3.34 8.34 2.68 7.68 2 7 C2.33 6.34 2.66 5.68 3 5 C2.01 4.67 1.02 4.34 0 4 C0 4.99 0 5.98 0 7 C-0.66 7 -1.32 7 -2 7 C-1.125 2.25 -1.125 2.25 0 0 Z " fill="#F06023" transform="translate(174,131)"/>
<path d="M0 0 C4.29 0.33 8.58 0.66 13 1 C12.67 1.99 12.34 2.98 12 4 C10.35 4.33 8.7 4.66 7 5 C7.66 6.65 8.32 8.3 9 10 C8.01 10.495 8.01 10.495 7 11 C5.83051998 9.35616456 4.6644855 7.70987731 3.5 6.0625 C2.8503125 5.14597656 2.200625 4.22945312 1.53125 3.28515625 C0 1 0 1 0 0 Z " fill="#F06023" transform="translate(22,50)"/>
<path d="M0 0 C4.75 0.75 4.75 0.75 7 3 C5.02 3.99 5.02 3.99 3 5 C3.66 5.66 4.32 6.32 5 7 C4.34 7.66 3.68 8.32 3 9 C3 8.34 3 7.68 3 7 C2.01 7.495 2.01 7.495 1 8 C0.67 8.99 0.34 9.98 0 11 C0.99 10.67 1.98 10.34 3 10 C3 10.99 3 11.98 3 13 C0.69 12.34 -1.62 11.68 -4 11 C-3.71125 10.45730469 -3.4225 9.91460937 -3.125 9.35546875 C-2.75375 8.64003906 -2.3825 7.92460937 -2 7.1875 C-1.62875 6.47980469 -1.2575 5.77210937 -0.875 5.04296875 C0.19685358 2.91079271 0.19685358 2.91079271 0 0 Z " fill="#F06023" transform="translate(134,15)"/>
<path d="M0 0 C1.65 0.33 3.3 0.66 5 1 C5.33 2.65 5.66 4.3 6 6 C6.99 6.33 7.98 6.66 9 7 C8.34 8.32 7.68 9.64 7 11 C3.59244728 9.07119658 0.25852365 7.1723491 -3 5 C-2.01 3.35 -1.02 1.7 0 0 Z M1 2 C0.67 2.66 0.34 3.32 0 4 C1.32 4.33 2.64 4.66 4 5 C3.67 4.01 3.34 3.02 3 2 C2.34 2 1.68 2 1 2 Z " fill="#F06023" transform="translate(19,56)"/>
<path d="M0 0 C0.99 0 1.98 0 3 0 C3 0.66 3 1.32 3 2 C2.34 2 1.68 2 1 2 C3.57784846 4.64752004 5.91648098 6.94432065 9 9 C8.01 9.99 7.02 10.98 6 12 C5.236875 11.195625 4.47375 10.39125 3.6875 9.5625 C1.20569102 6.83200976 1.20569102 6.83200976 -2 6 C-2 6.66 -2 7.32 -2 8 C-2.66 8 -3.32 8 -4 8 C-3.40353695 4.65980694 -2.31705841 2.49529367 0 0 Z " fill="#F06023" transform="translate(30,39)"/>
<path d="M0 0 C0.66 0.33 1.32 0.66 2 1 C2 1.66 2 2.32 2 3 C1.34 3 0.68 3 0 3 C0.66 3.66 1.32 4.32 2 5 C2.99 5 3.98 5 5 5 C4.01 5.495 4.01 5.495 3 6 C3.99 6.99 4.98 7.98 6 9 C6.66 8.34 7.32 7.68 8 7 C8 7.99 8 8.98 8 10 C6 11.6875 6 11.6875 4 13 C3.59007812 12.4946875 3.18015625 11.989375 2.7578125 11.46875 C2.21898437 10.8190625 1.68015625 10.169375 1.125 9.5 C0.59132813 8.8503125 0.05765625 8.200625 -0.4921875 7.53125 C-0.98976562 7.0259375 -1.48734375 6.520625 -2 6 C-2.66 6 -3.32 6 -4 6 C-2.84826645 3.53199953 -1.95216435 1.95216435 0 0 Z " fill="#F06023" transform="translate(37,32)"/>
<path d="M0 0 C0.33 1.32 0.66 2.64 1 4 C1.94875 4.12375 2.8975 4.2475 3.875 4.375 C7 5 7 5 9 7 C6 8 6 8 3 7 C3 8.65 3 10.3 3 12 C2.01 12 1.02 12 0 12 C-0.103125 10.88625 -0.20625 9.7725 -0.3125 8.625 C-0.539375 7.42875 -0.76625 6.2325 -1 5 C-1.99 4.34 -2.98 3.68 -4 3 C-4 2.34 -4 1.68 -4 1 C-2 0 -2 0 0 0 Z " fill="#F06023" transform="translate(154,161)"/>
<path d="M0 0 C2.33944736 0.28730055 4.6739143 0.61936779 7 1 C7.625 3.3125 7.625 3.3125 8 6 C7.01 7.485 7.01 7.485 6 9 C3 9.375 3 9.375 0 9 C-2 6 -2 6 -1.6875 3.375 C-1 1 -1 1 0 0 Z M1 2 C0.67 3.32 0.34 4.64 0 6 C2.475 6.495 2.475 6.495 5 7 C5.33 5.68 5.66 4.36 6 3 C4.35 2.67 2.7 2.34 1 2 Z " fill="#F06023" transform="translate(36,74)"/>
<path d="M0 0 C3.96 0 7.92 0 12 0 C12 1.98 12 3.96 12 6 C11.01 5.67 10.02 5.34 9 5 C9.66 5 10.32 5 11 5 C11 4.34 11 3.68 11 3 C9.68 3 8.36 3 7 3 C7.33 3.99 7.66 4.98 8 6 C7.01 5.67 6.02 5.34 5 5 C5.33 4.34 5.66 3.68 6 3 C4.68 3 3.36 3 2 3 C2.33 4.32 2.66 5.64 3 7 C2.01 6.67 1.02 6.34 0 6 C0 4.02 0 2.04 0 0 Z " fill="#F06023" transform="translate(180,98)"/>
<path d="M0 0 C0.99 0.99 1.98 1.98 3 3 C1.73046875 4.49739583 0.4609375 5.99479167 -0.80859375 7.4921875 C-2.0878152 9.00594079 -2.0878152 9.00594079 -3 11 C-2.01 11.33 -1.02 11.66 0 12 C-4.68091299 12 -5.62101604 11.00354129 -9 8 C-8.67 7.01 -8.34 6.02 -8 5 C-6.515 5.99 -6.515 5.99 -5 7 C-2.47411298 4.63707344 -1.11179163 3.33537489 0 0 Z " fill="#F06023" transform="translate(46,160)"/>
<path d="M0 0 C2.35953094 2.35953094 2.49141413 3.77895617 3 7 C2.01 6.67 1.02 6.34 0 6 C0.33 5.34 0.66 4.68 1 4 C0.01 4 -0.98 4 -2 4 C-2 5.32 -2 6.64 -2 8 C-2.66 8 -3.32 8 -4 8 C-4.33 7.34 -4.66 6.68 -5 6 C-5.99 6 -6.98 6 -8 6 C-8.33 6.66 -8.66 7.32 -9 8 C-9.33 6.68 -9.66 5.36 -10 4 C-6.7 2.68 -3.4 1.36 0 0 Z " fill="#F06023" transform="translate(186,69)"/>
<path d="M0 0 C2.5 0.25 2.5 0.25 4.5 2.25 C4.75 4.75 4.75 4.75 4.5 7.25 C2.5 9.25 2.5 9.25 0 9.5 C-2.5 9.25 -2.5 9.25 -4.5 7.25 C-4.75 4.75 -4.75 4.75 -4.5 2.25 C-2.5 0.25 -2.5 0.25 0 0 Z M-0.5 1.25 C-1.16 1.91 -1.82 2.57 -2.5 3.25 C-2.1814823 5.35820797 -2.1814823 5.35820797 -1.5 7.25 C-0.18 7.25 1.14 7.25 2.5 7.25 C2.5 5.6 2.5 3.95 2.5 2.25 C1.51 1.92 0.52 1.59 -0.5 1.25 Z " fill="#F06023" transform="translate(110.5,31.75)"/>
<path d="M0 0 C0.99 0 1.98 0 3 0 C3 2.31 3 4.62 3 7 C-2.94 7.495 -2.94 7.495 -9 8 C-8.67 6.68 -8.34 5.36 -8 4 C-5.03 4 -2.06 4 1 4 C0.67 2.68 0.34 1.36 0 0 Z " fill="#F06023" transform="translate(17,102)"/>
<path d="M0 0 C3 1 3 1 4 2 C4.99 2.33 5.98 2.66 7 3 C6.01 3.66 5.02 4.32 4 5 C3.26656572 8.06556598 3.26656572 8.06556598 3 11 C2.34 11 1.68 11 1 11 C1 9.68 1 8.36 1 7 C0.34 7 -0.32 7 -1 7 C-1 7.66 -1 8.32 -1 9 C-1.99 8.67 -2.98 8.34 -4 8 C-2.625 6.5 -2.625 6.5 -1 5 C-0.34 5 0.32 5 1 5 C0.67 3.35 0.34 1.7 0 0 Z " fill="#F06023" transform="translate(127,37)"/>
<path d="M0 0 C1.32 0.33 2.64 0.66 4 1 C4 2.98 4 4.96 4 7 C0.37 7.66 -3.26 8.32 -7 9 C-7.33 7.68 -7.66 6.36 -8 5 C-4.7 4.67 -1.4 4.34 2 4 C2 3.01 2 2.02 2 1 C1.34 0.67 0.68 0.34 0 0 Z " fill="#F06023" transform="translate(17,110)"/>
<path d="M0 0 C2.31 0.33 4.62 0.66 7 1 C7 2.32 7 3.64 7 5 C5.35 4.01 3.7 3.02 2 2 C1.4465236 4.07553648 1 5.84365964 1 8 C1.99 8 2.98 8 4 8 C4 8.66 4 9.32 4 10 C1.5625 9.3125 1.5625 9.3125 -1 8 C-1.9375 5.5625 -1.9375 5.5625 -2 3 C-1.34 2.01 -0.68 1.02 0 0 Z " fill="#F06023" transform="translate(133,42)"/>
<path d="M0 0 C0.763125 0.20625 1.52625 0.4125 2.3125 0.625 C2.9725 2.605 3.6325 4.585 4.3125 6.625 C3.3225 6.955 2.3325 7.285 1.3125 7.625 C1.3125 5.645 1.3125 3.665 1.3125 1.625 C-0.0075 1.955 -1.3275 2.285 -2.6875 2.625 C-3.0175 4.275 -3.3475 5.925 -3.6875 7.625 C-3.0275 7.955 -2.3675 8.285 -1.6875 8.625 C-3.0075 8.295 -4.3275 7.965 -5.6875 7.625 C-5.875 4.75 -5.875 4.75 -5.6875 1.625 C-2.6875 -0.375 -2.6875 -0.375 0 0 Z " fill="#F06023" transform="translate(162.6875,77.375)"/>
<path d="M0 0 C1.32 0.66 2.64 1.32 4 2 C2.25 5.875 2.25 5.875 0 7 C-0.66 6.67 -1.32 6.34 -2 6 C-2 6.66 -2 7.32 -2 8 C-1.34 8.33 -0.68 8.66 0 9 C-0.99 9.495 -0.99 9.495 -2 10 C-2.99 9.34 -3.98 8.68 -5 8 C-3.62845496 5.04590299 -2.01136276 2.55991624 0 0 Z M1 3 C0.67 3.66 0.34 4.32 0 5 C0.66 5 1.32 5 2 5 C1.67 4.34 1.34 3.68 1 3 Z " fill="#F06023" transform="translate(142,46)"/>
<path d="M0 0 C0.66 1.32 1.32 2.64 2 4 C-1.3 4.33 -4.6 4.66 -8 5 C-8 5.66 -8 6.32 -8 7 C-8.66 7 -9.32 7 -10 7 C-10 5.68 -10 4.36 -10 3 C-5.05 1.515 -5.05 1.515 0 0 Z " fill="#F06023" transform="translate(21,119)"/>
<path d="M0 0 C0.99 0.33 1.98 0.66 3 1 C2.34 1 1.68 1 1 1 C1 2.32 1 3.64 1 5 C2.65 5 4.3 5 6 5 C6 3.68 6 2.36 6 1 C6.66 1 7.32 1 8 1 C7.67 3.31 7.34 5.62 7 8 C3.98968256 8.93423645 3.13349732 9.04449911 0 8 C-0.38063221 5.6739143 -0.71269945 3.33944736 -1 1 C-0.67 0.67 -0.34 0.34 0 0 Z " fill="#F06023" transform="translate(33,83)"/>
<path d="M0 0 C2 3 2 3 2 6 C-1.05153958 6 -3.20984804 5.39507598 -6 4 C-5.67 4.99 -5.34 5.98 -5 7 C-5.66 7 -6.32 7 -7 7 C-7.33 5.35 -7.66 3.7 -8 2 C-6.865625 1.855625 -5.73125 1.71125 -4.5625 1.5625 C-1.19222799 1.38828522 -1.19222799 1.38828522 0 0 Z " fill="#F06023" transform="translate(166,85)"/>
<path d="M0 0 C0.66 0.66 1.32 1.32 2 2 C1.34 2 0.68 2 0 2 C0.66 3.65 1.32 5.3 2 7 C2.66 7 3.32 7 4 7 C3.67 7.99 3.34 8.98 3 10 C1.35 8.35 -0.3 6.7 -2 5 C-2.99 5.33 -3.98 5.66 -5 6 C-3.63016497 2.83884224 -3.0109362 2.0072908 0 0 Z " fill="#F06023" transform="translate(59,44)"/>
<path d="M0 0 C0.99 0.33 1.98 0.66 3 1 C3 1.66 3 2.32 3 3 C1.52295788 4.25227484 0.04172601 5.50166522 -1.4921875 6.68359375 C-3.26762944 8.11764091 -3.26762944 8.11764091 -5 11 C-5.66 9.68 -6.32 8.36 -7 7 C-5.47005208 5.76302083 -3.94010417 4.52604167 -2.41015625 3.2890625 C-0.86733563 2.0333609 -0.86733563 2.0333609 0 0 Z " fill="#F06023" transform="translate(160,31)"/>
<path d="M0 0 C1.32 0.33 2.64 0.66 4 1 C3.7834375 1.93972656 3.7834375 1.93972656 3.5625 2.8984375 C3.376875 3.71570313 3.19125 4.53296875 3 5.375 C2.814375 6.18710937 2.62875 6.99921875 2.4375 7.8359375 C1.93394761 9.95874951 1.93394761 9.95874951 2 12 C0.68 11.34 -0.64 10.68 -2 10 C-1.34 6.7 -0.68 3.4 0 0 Z " fill="#F06023" transform="translate(117,10)"/>
<path d="M0 0 C1.65 0.33 3.3 0.66 5 1 C4.34 1.66 3.68 2.32 3 3 C2.67 3.99 2.34 4.98 2 6 C1.34 5.67 0.68 5.34 0 5 C0 5.99 0 6.98 0 8 C0.66 8.33 1.32 8.66 2 9 C0.35 8.67 -1.3 8.34 -3 8 C-2.01 5.36 -1.02 2.72 0 0 Z " fill="#F06023" transform="translate(121,35)"/>
<path d="M0 0 C0 0.66 0 1.32 0 2 C-0.99 2 -1.98 2 -3 2 C-2.34 4.31 -1.68 6.62 -1 9 C-1.99 9.33 -2.98 9.66 -4 10 C-4.66 7.69 -5.32 5.38 -6 3 C-6.66 3 -7.32 3 -8 3 C-8 2.34 -8 1.68 -8 1 C-5.23735711 0.40267181 -2.83967231 0 0 0 Z " fill="#F06023" transform="translate(95,31)"/>
<path d="M0 0 C2.31 0 4.62 0 7 0 C7 0.66 7 1.32 7 2 C6.01 2 5.02 2 4 2 C4.33 4.31 4.66 6.62 5 9 C4.01 9 3.02 9 2 9 C2 7.02 2 5.04 2 3 C1.34 2.67 0.68 2.34 0 2 C0 1.34 0 0.68 0 0 Z " fill="#F06023" transform="translate(99,31)"/>
<path d="M0 0 C1.32 0.33 2.64 0.66 4 1 C3.67 1.66 3.34 2.32 3 3 C2.01 2.67 1.02 2.34 0 2 C0 1.34 0 0.68 0 0 Z " fill="#F06023" transform="translate(57,175)"/>
<path d="M0 0 C0.66 0 1.32 0 2 0 C2.33 0.99 2.66 1.98 3 3 C2.01 3.33 1.02 3.66 0 4 C0 2.68 0 1.36 0 0 Z " fill="#F06023" transform="translate(140,174)"/>
<path d="" fill="#F06023" transform="translate(0,0)"/>
</svg>
