<svg xmlns="http://www.w3.org/2000/svg" width="179" height="95" fill="none"><g clip-path="url(#a)"><path fill="#011E41" d="M179 16.812h-28.58l-.769 6.381 3.875 2.18-5.007 14.957-1.12-23.485H117.11l-.768 6.348 6.08 3.314-7.173 16.924c-.086-2.206-1.06-26.62-1.06-26.62h-55.36l-.767 6.422 15.459 8.164 3.65 47.46h43.052l10.425-24.518c.133 2.273 1.398 22.954 1.491 24.558h21.745L179 16.812Z"/><path fill="#fff" d="m135.927 74.842-2.185-35.877h-.954l-15.234 35.897H80.899l-3.51-45.963-15.002-7.939v-.12h47.921l1.543 38.648h.967l14.724-34.784-6.888-3.717v-.126h22.884l1.828 38.5h1.013l12.015-35.876-4.424-2.492v-.132h19.049l-21.858 54-15.234-.02Z"/><path fill="#C6B784" d="m172.39 21.272-21.507 53.132h-14.572l-2.132-35.068-.053-.802h-1.643l-.225.537-14.996 35.36H81.303L77.84 29.11v-.477l-.424-.225-13.512-7.137h46.007l1.504 37.811v.849h1.675l.212-.517 14.532-34.2.312-.723-.663-.378-5.299-2.842h21.01l1.749 37.705.039.822h1.709l.199-.59 11.803-35.24.225-.663-.622-.351-2.908-1.683h17.003Zm1.278-.862h-20.069l-.093.795 4.365 2.466-11.797 35.24h-.271l-1.828-38.5h-23.679l-.093.794 6.802 3.672-14.465 34.167h-.265l-1.537-38.634H62.022l-.1.795 15.056 7.952 3.524 46.122h37.356l15.234-35.89h.265l2.186 35.883h15.943l22.182-54.862Z"/><path fill="#E2D9BF" d="M98.34 45.015c-.663-4.48.45-8.509-4.313-11.55-1.04-.663-2.364-1.372-2.41-2.605 0-.815.536-1.51.993-2.18a12.092 12.092 0 0 0 1.749-7.077c-.319-2.717-1.067-3.77-1.153-6.507-.06-1.989-1.802-3.175-2.603-4.997-.801-1.822-1.709-1.365-3.676-1.073-1.967.291-3.868-1.326-2.444.053-6.18-7.25-40.026-7.13-42.662-6.514-1.073.258-3.206 1.325-4.51 1.696-6.38 1.875-7.836-3.91-14.129-1.696-1.728.622-14.041 8.15-13.909 11.212.017 4.044.26 8.083.729 12.1.702 4.924 3.907 7.104 5.166 11.484.404 1.405.132 2.896 0 4.347-.735 8.542 3.775 16.567 8.385 23.81 1.828 2.856 3.776 5.778 6.624 7.594 2.735 1.73 6.034 2.28 9.24 2.763 6.314.95 12.64 1.774 18.976 2.472 6.955.769 14.896-.49 21.116-3.857 5.444-2.942 12.332-3.313 16.69-7.952 3.836-4.062 6.002-11.39 3.849-16.705-.543-1.326-1.325-2.611-1.61-4.036-.046-.258-.092-.517-.125-.775"/><path fill="#C6B783" d="M76.528 40.224c-4.372 0-6.882-.1-16.559 10.801 6.624-14.035 6.703-14.227 25.752-14.227 7.876 0-9.22 3.426-9.22 3.426"/><path fill="#C6B783" d="M92.285 40.257c1.987.272 3.04 1.074 5.299 10.768-1.325-13.021-2.755-14.227-9.85-14.227-3.225 0 4.558 3.459 4.558 3.459"/><path fill="#C6B783" d="M50.815 17.647c-4.311 3.976-2.271 7.912-2.271 7.912 7.067-5.301 14.313-.663 21.5 3.115 8.941 4.744 12.584-1.604 12.584-1.604 2.365 1.955.9 4.837-1.874 5.964-1.696.663-4.975.06-4.975.06-5.186.662-21.195 2.147-28.686 14.611-8.014 13.32 1.67 20.676 3.192 20.821 7.83.75 16.195-15.658 24.72-18.607l-5.12 11.046s6.285-9.807 16.366-9.807c7.71 0 7.06 6.68 7.286 8.33.755-6.044-.623-9.582-.623-9.582 7.399 4.95 2.299 17.726 2.444 18.806.173 1.272-1.801 1.325-2.801 2.12-9.366 7.495-17.3 6.322-29.276 6.985-6.233.345-12.585.358-18.632-1.093-6.047-1.452-11.922-4.487-15.837-9.35-1.682-2.088-2.974-4.467-4.583-6.627-2.577-3.446-5.961-6.25-8.551-9.669-3.822-4.983-5.961-11.775-3.716-17.646.41-1.06 3.212-4.937 4.312-5.58C25.58 22.398 26.328 8.635 26.328 8.635l10.227 2.962c11.479-2.724 14.26 6.05 14.26 6.05"/><path fill="#011E41" d="m9.114 30.403 15.393-6.395c4.371-5.679 3.404-13.359 3.517-12.59 2.312.464 7.657 1.2 7.657 1.2s1.073 4.611-2.616 7.262c-4.637 3.36-11.426 7.952-14.181 15.904-.279 15.904 13.101 24.651 13.101 24.651l-.398 8.482L8.346 44.95l.768-14.546Z"/><path fill="#011E41" d="M19.042 49.382a70.337 70.337 0 0 0 6.544 11.007 30.613 30.613 0 0 0 34.356 11.18l.173-.06-9.936 7.693-22.46-4.48-12.85-14.73 4.173-10.61Z"/><path fill="#011E41" d="M46.053 75.968 29.528 60.965l2.331-.662c-7.71-6.421-12.657-16.766-11.922-27.508L9.71 31.47a28.027 28.027 0 0 0-1.92 6.587C3.9 66.519 30.924 87.094 61.75 85.265c1.987-.119 10.147-1.49 12.068-2.18l2.775-6.785-30.54-.332ZM76.667 7.952l13.247.073a3.615 3.615 0 0 1 3.371 2.379l2.65 7.415a8.551 8.551 0 0 1 0 5.745c-.292.816-.61 1.697-.934 2.538l-1.709-4.234-3.08-9.145a1.948 1.948 0 0 0-1.835-1.325h-6.842l-4.868-3.446Z"/><path fill="#011E41" d="M58.724 71.283s8.213 3.314 20.645.73a25.183 25.183 0 0 1-5.702 8.614l-16.32-.51-6.3-4.884 7.677-3.95ZM47.272 32.696s-1.683 6.951 5.868 8.456l-3.537 3.737a8.655 8.655 0 0 1-4.43-4.937 7.591 7.591 0 0 1 2.099-7.256M0 54.06l10.63-10.55 2.763 13.28L0 54.06ZM16.671 60.236l-5.755 15.288L27.05 71.98 16.671 60.237ZM51.04 82.442 58.579 95l7.491-12.498-15.029-.06Z"/><path fill="#011E41" d="m70.759 81.17 10.001 7.376 1.186-12.816-11.187 5.44ZM12.644 26.308 1.133 30.973l10.293 7.714 1.218-12.38Z"/><path fill="#C6B784" d="m4.921 52.602 7.405-6.328a5.464 5.464 0 0 1 3.875 3.737l-11.28 2.591ZM14.665 72.23l4.822-8.468a5.462 5.462 0 0 1 4.908 2.207l-9.73 6.262ZM58.413 90.348l-3.974-8.674a6.532 6.532 0 0 1 5.172-2.817l-1.198 11.491Z"/><path fill="#011E41" d="m30.839 76.2 1.437 13.982 12.366-8.528L30.84 76.2Z"/><path fill="#C6B784" d="m34.084 85.762.358-9.555a6.524 6.524 0 0 1 5.961-.186l-6.319 9.741Z"/><path fill="#011E41" d="M75.694 44.047s-1.285 5.229-2.127 7.9c4.253-1.419 5.544-2.857 5.544-2.857a12.365 12.365 0 0 0-3.418-5.043M92.332 43.882s-1.193 2.511-2.57 5.016a24.715 24.715 0 0 0 3.841 2.65s.55-5.3-1.271-7.68"/><path fill="#E2D9BF" d="M46.146 31.596a30.798 30.798 0 0 0-13.91 21.205 26.266 26.266 0 0 1-9.59-18.256s8.974-16.653 23.5-2.949Z"/><path fill="#011E41" d="M94.716 53.73c-.556-4.5-4.2-7.105-8.57-7.105a18.678 18.678 0 0 0-11.088 3.652s-1.988 1.146-5.3 6.15c-6.563 9.84-13.736 16.811-18.254 16.645-7.55-.285-19.52-12.637-19.52-12.637l-5.265 3.181 1.914 6.852 7.213 2.213 14.248 3.526 8.464-.663a15.525 15.525 0 0 0 3.756-2.154c2.762-2.73 7.094-8.488 11.67-15.658 4.445-6.952 5.962-8.085 12.088-8.085 5.723 0 5.869 3.976 5.962 6.302.271 8.065-4.677 14.804-16.56 16.805 0 0 3.511 1.107 5.962.829 2.65-.299 2.027.563 4.895-1.24 8.312-5.241 8.961-13.87 8.378-18.614M78.376 21.603s-9.737-6.912-21.586-5.474c8.524-3.883 17.042-2.206 21.586 5.474Z"/><path fill="#011E41" d="M85.31 36.235c-9.935-.193-8.742 3.976-8.742 3.976s7.352-.544 7.948 2.69a9.282 9.282 0 0 1-.563 5.156c2.364.51 3.312.232 3.312.232s.516-1.518.152-5.19c-.364-3.67 4.921-2.855 4.921-2.855s.523-3.877-6.974-4.023"/><path fill="#C6B783" d="M84.78 28.84s4.452.914 5.902-2.035c1.928 1.18-.86 5.964-.86 5.964l-4.558.537-.483-4.467Z"/><path fill="#011E41" d="M93.431 21.205a11.547 11.547 0 0 0-3.007-2.862 23.907 23.907 0 0 0-4.762-8.125 28.46 28.46 0 0 0-2.736-2.65c-4.299-3.486-9.81-5.693-15.333-5.434l-4.246.199c-16.903-5.839-27.7 1.053-27.7 1.053L27.634 1.87a10.196 10.196 0 0 0-6.882 1.113 130.022 130.022 0 0 0-13.558 8.615 4.446 4.446 0 0 0-1.749 4.24 92.344 92.344 0 0 0 4.796 18.708l4.027-1.935c-.517-3.194-1.53-12.59-1.954-16.64a2.705 2.705 0 0 1 1.484-2.717l10.346-5.235a4.065 4.065 0 0 1 2.305-.404l11.107 1.325s3.676-4.055 14.857-3.24C67.977 6.845 74.7 14.69 74.7 14.69a11.266 11.266 0 0 0-4.398-7.077c3.749.217 7.33 1.63 10.22 4.03 5.656 4.75 5.2 9.071 5.2 9.071s3.801 2.054 4.689 5.447c1.53 5.818-5.451 6.408-5.451 6.408l1.08.544c-1.233.165 2.337.503 2.245.616l1.324.338s1.987-.086 2.259-.186c4.636-1.557 5.425-6.083 1.537-12.65"/><path fill="#011E41" d="M71.66 32.411c-2.597 0-9.386-5.096-17.222-6.368-4.1.37-6.444 5.102-6.444 5.102s1.947-1.988 5.716-1.47a63.17 63.17 0 0 1 11.107 3.67l6.842-.934Z"/><path fill="#011E41" d="M66.798 33.133c0 2.505-6.491 3.797-9.87 3.075-2.45-.523-4.794-2.445-4.92-5.387-.133-3.148 1.596-3.976 4.1-3.976 2.503 0 10.69 3.797 10.69 6.295"/><path fill="#011E41" d="M54.459 26.043s5.722.172 15.233 4.89c9.512 4.718 13.373-1 12.844-4.353 4.848 2.717 2.37 6.898 2.37 6.898l-18.943.802-6.954-5.222-4.55-3.015Z"/><path fill="#fff" d="M55.565 29.668s5.716.874 9.829 3.313c-2.391 1.69-4.723 2.332-7.286 1.637-3.722-1.014-2.55-4.93-2.55-4.93"/><path fill="#011E41" d="M59.3 30.098c-1.265.305-2.53 3.599.557 5.056 3.225-.053 6.782-1.988 6.782-1.988l-3.67-3.313a18.981 18.981 0 0 0-3.669.259M32.236 54.67s2.12 8.767 11.4 15.347c-8.71-1.192-11.4-3.936-11.4-3.936s-1.377-6.395 0-11.41"/><path fill="#E2D9BF" d="M50.849 32.895s-.424 5.301 6.862 4.638a23.124 23.124 0 0 1-3.478 2.916s-7.71-1.226-3.384-7.574M46.133 31.603s-9.134 4.943-1.55 16.42c-5.643 4.891-6.08 12.591-6.08 12.591s-16.42-27.01 7.63-29.011Z"/><path fill="#011E41" d="M101.022 45.353c-1.623-6.441-4.809-12.531-9.273-13.2a21.47 21.47 0 0 0-4.491.132c-7.743.961-10.207 1.75-15.983 1.385-9.087-.537-27.321 8.363-27.321 24.698C54.313 43.378 60.837 34.3 70.713 34.3h15.041c8.068 0 8.863 3.479 10.883 11.828 1.417 5.871 1.782 12.22-.093 16.448C92.04 72.74 76.475 73.662 76.475 73.662l-3.113 6.726s23.487-.92 28.084-14.3c2.199-6.388 1.172-14.413-.424-20.735"/></g><defs><clipPath id="a"><path fill="#fff" d="M0 0h179v95H0z"/></clipPath></defs></svg>