<svg version="1.1" id="Layer_1" xmlns="http://www.w3.org/2000/svg" xmlns:xlink="http://www.w3.org/1999/xlink" x="0px" y="0px"
	 width="100%" viewBox="0 0 490 509" enable-background="new 0 0 490 509" xml:space="preserve">
<path fill="#CA0B30" opacity="1.000000" stroke="none" 
	d="
M212.000000,1.000001 
	C213.066666,1.000000 214.133347,1.000000 215.419006,1.372099 
	C217.411667,3.369851 219.054611,4.229177 220.000000,1.000000 
	C227.687576,1.000000 235.375168,1.000000 243.323181,1.366207 
	C244.571274,2.169745 245.542419,2.942326 246.549149,2.991923 
	C255.436661,3.429765 264.394440,3.201538 273.203125,4.249210 
	C280.853088,5.159069 288.419617,7.169683 295.872467,9.236719 
	C305.339264,11.862329 314.617188,15.160850 324.042480,17.946039 
	C341.730286,23.172808 357.988678,31.511969 373.481506,41.244743 
	C382.725769,47.052101 391.166748,54.131203 400.028259,60.556629 
	C412.728546,69.765488 423.410828,81.032944 432.980438,93.333710 
	C439.781158,102.075394 446.254974,111.098351 452.409821,120.306488 
	C456.807739,126.886169 461.245483,133.647507 464.236420,140.915848 
	C470.424164,155.953079 476.190582,171.213593 481.111542,186.705887 
	C484.816528,198.369980 488.397278,210.247910 487.965973,222.825089 
	C487.854095,226.087296 488.547943,229.393509 489.080719,232.645279 
	C489.169495,233.187119 490.333099,233.552872 491.000000,234.000000 
	C491.000000,248.354233 491.000000,262.708466 490.588989,277.382812 
	C489.758667,279.028564 489.135345,280.326996 488.954224,281.684418 
	C487.999084,288.842987 487.558929,296.095856 486.168243,303.164093 
	C484.528778,311.496582 481.791412,319.610291 480.079254,327.931854 
	C476.800293,343.868530 470.230560,358.528320 462.583405,372.653687 
	C456.652039,383.609772 449.965698,394.225922 442.814514,404.432312 
	C436.503510,413.439514 429.664337,422.236176 421.997498,430.090210 
	C413.911682,438.373505 404.790588,445.708008 395.710510,452.940674 
	C387.515289,459.468506 379.159912,465.968292 370.166656,471.281189 
	C356.299957,479.473206 342.057587,487.129669 326.486938,491.826599 
	C318.522522,494.229156 310.517822,496.514923 302.626862,499.140656 
	C285.443024,504.858551 267.599518,506.342468 249.735794,507.852386 
	C248.770248,507.933990 247.909515,509.255615 247.000000,510.000000 
	C233.979111,510.000000 220.958206,510.000000 207.808289,509.750031 
	C207.106003,509.237732 206.532745,508.975403 205.959503,508.713074 
	C205.972992,509.142059 205.986496,509.571014 206.000000,510.000000 
	C204.933334,510.000000 203.866653,510.000000 202.581085,509.588379 
	C198.440781,508.441315 194.534546,507.174866 190.595383,507.062500 
	C173.709808,506.580841 157.796585,501.464630 141.904831,496.697845 
	C124.094467,491.355591 107.448372,483.114471 91.872894,472.907135 
	C71.282898,459.413544 52.853249,443.410126 38.063438,423.659424 
	C30.082138,413.000946 22.666790,401.834229 15.958433,390.335419 
	C11.161433,382.112915 8.018435,372.931946 3.977094,364.253296 
	C3.512827,363.256287 2.017342,362.739471 0.999997,362.000000 
	C1.000000,360.933319 1.000000,359.866669 1.315438,358.672241 
	C13.592870,353.803314 25.572924,349.107086 37.512211,344.309357 
	C51.683674,338.614655 65.754990,332.665039 79.990349,327.136566 
	C93.587212,321.856079 107.339005,316.974548 121.246353,312.003357 
	C122.290359,311.723328 123.110703,311.357635 123.934036,310.952667 
	C123.937019,310.913391 124.015602,310.919281 124.307526,310.868835 
	C125.161087,310.622009 125.722710,310.425659 126.473297,310.135742 
	C126.662262,310.042206 127.054298,309.886871 127.371269,309.864868 
	C128.470444,309.541504 129.252640,309.240143 130.027222,308.976929 
	C130.019608,309.015076 129.943314,308.999908 130.353012,309.006409 
	C133.522247,308.000366 136.281799,306.987823 139.042938,306.009247 
	C139.044525,306.043182 138.976593,306.040924 139.351288,306.045074 
	C140.970276,305.886566 142.295410,305.400452 143.428223,305.683655 
	C144.098068,305.851135 144.463837,307.234985 144.829681,308.317322 
	C144.153687,308.693298 143.614334,308.823761 142.783478,309.035858 
	C141.986404,309.434967 141.480835,309.752441 140.982330,310.026672 
	C140.989380,309.983429 141.075882,309.997467 140.803711,310.128906 
	C140.017548,310.863922 139.503540,311.467529 138.901840,312.307434 
	C138.323227,312.995758 137.832306,313.447754 136.969574,313.917877 
	C135.411926,314.978088 134.226105,316.020172 133.019592,317.041870 
	C132.998886,317.021515 133.056244,317.030182 132.804230,317.177979 
	C132.345901,317.652679 132.139572,317.979614 131.877396,318.454224 
	C131.694946,318.793182 131.516998,318.892578 130.905853,318.940735 
	C128.690857,321.007904 126.857727,323.034424 125.015472,325.032654 
	C125.006363,325.004333 125.065254,325.012573 124.774689,325.109406 
	C123.992027,325.822571 123.499931,326.438873 123.003021,327.025543 
	C122.998199,326.995880 123.056801,327.009247 122.766922,327.106171 
	C121.980270,327.817230 121.483498,328.431335 120.985046,329.013794 
	C120.983360,328.982117 121.045784,328.993561 120.713364,329.050476 
	C119.603493,330.089478 118.826057,331.071594 118.034988,332.024200 
	C118.021362,331.994690 118.067848,332.041534 117.744789,332.097290 
	C116.627609,333.128479 115.833488,334.103943 115.026833,335.049744 
	C115.014297,335.020111 115.077545,335.008240 114.877838,335.190186 
	C114.466606,335.860657 114.255096,336.349243 114.037994,336.920380 
	C114.032394,337.002960 113.870125,337.035736 113.707733,337.176758 
	C113.334282,337.515472 113.149239,337.735107 112.884132,338.249084 
	C112.196930,339.022125 111.615814,339.522766 110.757156,340.161743 
	C109.607864,341.421143 108.736107,342.542267 107.864349,343.663361 
	C108.226860,344.029236 108.589378,344.395142 108.951897,344.761017 
	C110.107742,343.903107 111.263580,343.045197 112.678604,341.966248 
	C113.294083,341.395050 113.588242,340.905640 114.015701,340.714783 
	C128.477539,334.256409 142.747726,327.302948 157.486267,321.549896 
	C170.401947,316.508331 183.786804,312.624786 197.078949,308.608826 
	C204.466446,306.376831 212.000809,304.180054 219.623962,303.279724 
	C232.522980,301.756409 245.339966,299.329773 258.493500,299.891205 
	C269.805054,300.373962 281.163971,299.930511 292.188690,303.065063 
	C296.881836,304.399384 301.964233,305.333527 305.973419,307.867554 
	C311.389038,311.290558 314.134003,316.885651 313.522675,324.267700 
	C316.875458,321.941956 319.150848,318.712097 322.207977,316.630096 
	C328.239746,312.522308 330.974335,306.140778 334.089081,300.213074 
	C344.736725,279.949341 337.568268,248.730759 319.373627,235.022903 
	C307.589050,226.144379 295.385681,217.810867 283.776306,208.714539 
	C276.021423,202.638336 268.517670,196.089020 261.754272,188.944183 
	C255.321152,182.148224 249.796234,174.530975 240.615326,171.088562 
	C226.265137,165.707916 211.970840,160.169067 197.530823,155.040848 
	C189.828232,152.305359 181.859344,150.324615 174.028961,147.942993 
	C159.969742,143.666840 145.948456,139.264343 131.865173,135.069504 
	C121.534569,131.992416 111.087173,129.305420 100.769226,126.188347 
	C86.400490,121.847504 72.102737,117.271568 57.777287,112.787689 
	C50.749371,110.587936 43.717308,108.400574 36.706989,106.145813 
	C32.944752,104.935760 33.985916,102.739586 35.753979,100.565826 
	C39.955875,95.399757 44.065414,90.149490 48.462624,85.153587 
	C54.451405,78.349411 60.304337,71.356544 66.901596,65.177048 
	C73.160400,59.314568 80.126190,54.149971 87.103378,49.126080 
	C95.395927,43.155064 103.770500,37.214088 112.577805,32.060356 
	C128.015228,23.026907 144.530167,16.523533 161.775650,11.520381 
	C177.343170,7.004024 193.103409,4.431276 209.160080,3.039594 
	C210.158142,2.953088 211.055695,1.706733 212.000000,1.000001 
M374.187561,114.247032 
	C365.216431,106.835686 356.710297,98.747948 347.158386,92.181427 
	C334.765259,83.661713 321.161560,77.206261 307.077789,71.669601 
	C294.193390,66.604462 280.873657,63.517288 267.384857,61.111252 
	C258.184692,59.470196 248.790451,58.285156 239.464722,58.149242 
	C229.097076,57.998138 218.607361,58.584988 208.356247,60.103050 
	C196.776901,61.817814 185.319107,64.601357 173.976669,67.564163 
	C168.237061,69.063438 162.726517,71.696487 157.377579,74.351196 
	C153.280350,76.384689 149.598877,79.255852 145.732498,81.754448 
	C155.806290,85.776100 165.525345,88.419792 175.218811,91.154213 
	C181.635376,92.964249 188.031235,94.852089 194.407089,96.800873 
	C200.943954,98.798874 207.440018,100.929985 213.963165,102.973419 
	C225.281601,106.519035 236.742294,109.668327 247.884811,113.698555 
	C256.065826,116.657593 263.996460,120.442734 271.743622,124.432587 
	C280.915802,129.156342 289.318573,135.116058 296.220337,142.911392 
	C298.149353,145.090134 299.566711,147.713181 301.387482,149.997955 
	C307.823517,158.074188 316.661194,163.185242 325.165863,168.572189 
	C336.753052,175.911621 348.987640,182.392227 358.151825,192.875961 
	C363.810242,199.349167 368.944305,206.312164 373.939575,213.321945 
	C376.955017,217.553452 380.194550,222.008102 381.680176,226.867889 
	C384.851868,237.243317 389.148010,247.158386 390.512787,258.305328 
	C392.086700,271.160370 391.825867,283.784821 389.030579,295.989899 
	C386.611359,306.552887 381.484436,316.569550 376.961060,326.559052 
	C370.648102,340.500732 360.254730,351.566040 348.825775,361.220551 
	C339.444366,369.145386 329.002960,376.168945 318.131073,381.877228 
	C307.097839,387.670258 295.157257,391.972809 283.249908,395.793060 
	C272.459534,399.254974 261.185883,401.219788 250.103119,403.747314 
	C248.941849,404.012146 247.630554,403.619293 245.950119,403.500580 
	C246.371445,401.911224 246.484726,400.753632 246.967255,399.778809 
	C251.041580,391.547180 255.157959,383.336090 259.313568,375.145142 
	C262.224548,369.407471 261.515808,363.321167 257.292236,362.185364 
	C251.776276,360.701996 246.084854,359.371429 240.412277,359.080872 
	C230.558350,358.576080 220.603058,358.244537 210.797455,359.087372 
	C200.045090,360.011536 189.242065,361.654480 178.776382,364.253662 
	C167.367493,367.087067 156.092010,370.806335 145.172607,375.174835 
	C131.131775,380.792084 117.486519,387.403168 103.711449,393.675262 
	C101.035263,394.893799 99.810806,396.612305 102.588264,399.271912 
	C107.813751,404.275696 112.534233,409.864136 118.087753,414.455872 
	C128.770813,423.288849 140.697113,430.299835 153.645370,435.268585 
	C163.487061,439.045227 173.616272,442.073120 183.619888,445.427155 
	C197.666504,450.136719 212.283463,451.581482 226.912277,451.848602 
	C238.450974,452.059326 250.097183,451.362701 261.548370,449.908936 
	C271.882172,448.597015 282.132385,446.136444 292.200867,443.382935 
	C299.998535,441.250458 307.678223,438.357269 315.018097,434.955841 
	C326.401215,429.680664 337.851837,424.337830 348.511200,417.783356 
	C356.686127,412.756592 364.088989,406.243500 371.095123,399.609741 
	C378.530151,392.569946 385.270905,384.763031 391.993805,377.012665 
	C402.741394,364.622650 410.997040,350.607880 417.132843,335.446564 
	C421.111908,325.614563 424.947540,315.635925 427.675018,305.410278 
	C430.542633,294.659332 432.935883,283.616760 433.907440,272.558502 
	C436.139221,247.157242 433.091858,222.006638 425.644775,197.729294 
	C420.446289,180.782425 412.891754,164.582092 403.070740,149.639084 
	C394.796234,137.049210 385.813782,125.019485 374.187561,114.247032 
z"/>
<path fill="#000000" opacity="1.000000" stroke="none" 
	d="
M131.287720,318.900085 
	C131.516998,318.892578 131.694946,318.793182 132.150070,318.320068 
	C132.671143,317.702240 132.863693,317.366211 133.056244,317.030182 
	C133.056244,317.030182 132.998886,317.021515 133.373901,317.044739 
	C134.946411,316.011871 136.143890,314.955780 137.341370,313.899719 
	C137.832306,313.447754 138.323227,312.995758 139.239716,312.252258 
	C140.135468,311.306335 140.605682,310.651917 141.075882,309.997467 
	C141.075882,309.997467 140.989380,309.983429 141.303284,309.987244 
	C142.103119,309.645416 142.589066,309.299835 143.074997,308.954224 
	C143.614334,308.823761 144.153687,308.693298 145.216034,308.281738 
	C148.539093,306.368713 151.339142,304.736725 154.139191,303.104736 
	C153.866302,302.532471 153.593414,301.960175 153.320526,301.387909 
	C148.539215,302.938904 143.757904,304.489899 138.976593,306.040894 
	C138.976593,306.040924 139.044525,306.043182 138.656570,306.054626 
	C135.493515,307.044037 132.718414,308.021973 129.943314,308.999908 
	C129.943314,308.999908 130.019608,309.015076 129.687225,308.990967 
	C128.588013,309.273499 127.821144,309.580170 127.054291,309.886841 
	C127.054298,309.886871 126.662262,310.042206 126.148087,310.041412 
	C125.094482,310.333527 124.555046,310.626404 124.015610,310.919281 
	C124.015602,310.919281 123.937019,310.913391 123.602982,310.936584 
	C122.520195,311.279053 121.771446,311.598358 121.022690,311.917664 
	C107.339005,316.974548 93.587212,321.856079 79.990349,327.136566 
	C65.754990,332.665039 51.683674,338.614655 37.512211,344.309357 
	C25.572924,349.107086 13.592870,353.803314 1.315438,358.272247 
	C1.000000,239.091705 1.000000,120.183426 1.000000,1.000000 
	C71.020653,1.000000 141.041672,1.000000 211.531342,1.000001 
	C211.055695,1.706733 210.158142,2.953088 209.160080,3.039594 
	C193.103409,4.431276 177.343170,7.004024 161.775650,11.520381 
	C144.530167,16.523533 128.015228,23.026907 112.577805,32.060356 
	C103.770500,37.214088 95.395927,43.155064 87.103378,49.126080 
	C80.126190,54.149971 73.160400,59.314568 66.901596,65.177048 
	C60.304337,71.356544 54.451405,78.349411 48.462624,85.153587 
	C44.065414,90.149490 39.955875,95.399757 35.753979,100.565826 
	C33.985916,102.739586 32.944752,104.935760 36.706989,106.145813 
	C43.717308,108.400574 50.749371,110.587936 57.777287,112.787689 
	C72.102737,117.271568 86.400490,121.847504 100.769226,126.188347 
	C111.087173,129.305420 121.534569,131.992416 131.865173,135.069504 
	C145.948456,139.264343 159.969742,143.666840 174.028961,147.942993 
	C181.859344,150.324615 189.828232,152.305359 197.530823,155.040848 
	C211.970840,160.169067 226.265137,165.707916 240.615326,171.088562 
	C249.796234,174.530975 255.321152,182.148224 261.754272,188.944183 
	C268.517670,196.089020 276.021423,202.638336 283.776306,208.714539 
	C295.385681,217.810867 307.589050,226.144379 319.373627,235.022903 
	C337.568268,248.730759 344.736725,279.949341 334.089081,300.213074 
	C330.974335,306.140778 328.239746,312.522308 322.207977,316.630096 
	C319.150848,318.712097 316.875458,321.941956 313.522675,324.267700 
	C314.134003,316.885651 311.389038,311.290558 305.973419,307.867554 
	C301.964233,305.333527 296.881836,304.399384 292.188690,303.065063 
	C281.163971,299.930511 269.805054,300.373962 258.493500,299.891205 
	C245.339966,299.329773 232.522980,301.756409 219.623962,303.279724 
	C212.000809,304.180054 204.466446,306.376831 197.078949,308.608826 
	C183.786804,312.624786 170.401947,316.508331 157.486267,321.549896 
	C142.747726,327.302948 128.477539,334.256409 114.015701,340.714783 
	C113.588242,340.905640 113.294083,341.395050 112.356216,341.805939 
	C111.528008,341.252228 111.281349,340.637817 111.034698,340.023407 
	C111.615814,339.522766 112.196930,339.022125 113.114212,338.181580 
	C113.764381,337.663635 113.904297,337.394989 113.870125,337.035736 
	C113.870125,337.035736 114.032394,337.002960 114.306915,336.819702 
	C114.746811,336.093719 114.912178,335.550964 115.077545,335.008240 
	C115.077545,335.008240 115.014297,335.020111 115.385742,335.043945 
	C116.527405,334.059021 117.297630,333.050262 118.067856,332.041534 
	C118.067848,332.041534 118.021362,331.994690 118.323669,331.902313 
	C119.432571,330.871155 120.239182,329.932343 121.045792,328.993561 
	C121.045784,328.993561 120.983360,328.982117 121.270889,328.913696 
	C122.057892,328.233276 122.557358,327.621277 123.056808,327.009277 
	C123.056801,327.009247 122.998199,326.995880 123.289459,326.928467 
	C124.075569,326.244873 124.570404,325.628723 125.065247,325.012573 
	C125.065254,325.012573 125.006363,325.004333 125.326157,324.910217 
	C127.526535,322.844116 129.407120,320.872101 131.287720,318.900085 
M192.363007,225.565262 
	C198.025558,225.173523 203.787796,225.317230 209.331085,224.284973 
	C223.363663,221.671875 233.241318,209.763779 233.936142,195.456665 
	C234.106094,191.957153 233.275970,190.277695 229.057816,189.920792 
	C223.135391,189.419724 217.109985,188.145050 211.519592,186.121246 
	C199.553253,181.789307 188.943115,174.381760 176.239731,171.395767 
	C167.286484,169.291275 159.106049,169.550919 151.121857,173.705200 
	C149.250046,174.679123 148.102295,177.044571 146.621429,178.769836 
	C146.883789,179.172867 147.146164,179.575882 147.408524,179.978912 
	C152.136551,179.978912 156.864578,179.978912 162.215485,179.978912 
	C160.231247,190.730682 160.138931,200.813889 166.363205,209.714127 
	C172.510376,218.504105 181.271820,223.269226 192.363007,225.565262 
z"/>
<path fill="#000000" opacity="1.000000" stroke="none" 
	d="
M247.468658,510.000000 
	C247.909515,509.255615 248.770248,507.933990 249.735794,507.852386 
	C267.599518,506.342468 285.443024,504.858551 302.626862,499.140656 
	C310.517822,496.514923 318.522522,494.229156 326.486938,491.826599 
	C342.057587,487.129669 356.299957,479.473206 370.166656,471.281189 
	C379.159912,465.968292 387.515289,459.468506 395.710510,452.940674 
	C404.790588,445.708008 413.911682,438.373505 421.997498,430.090210 
	C429.664337,422.236176 436.503510,413.439514 442.814514,404.432312 
	C449.965698,394.225922 456.652039,383.609772 462.583405,372.653687 
	C470.230560,358.528320 476.800293,343.868530 480.079254,327.931854 
	C481.791412,319.610291 484.528778,311.496582 486.168243,303.164093 
	C487.558929,296.095856 487.999084,288.842987 488.954224,281.684418 
	C489.135345,280.326996 489.758667,279.028564 490.588989,277.851440 
	C491.000000,355.262207 491.000000,432.524414 491.000000,510.000000 
	C409.979218,510.000000 328.958282,510.000000 247.468658,510.000000 
z"/>
<path fill="#000000" opacity="1.000000" stroke="none" 
	d="
M491.000000,233.531342 
	C490.333099,233.552872 489.169495,233.187119 489.080719,232.645279 
	C488.547943,229.393509 487.854095,226.087296 487.965973,222.825089 
	C488.397278,210.247910 484.816528,198.369980 481.111542,186.705887 
	C476.190582,171.213593 470.424164,155.953079 464.236420,140.915848 
	C461.245483,133.647507 456.807739,126.886169 452.409821,120.306488 
	C446.254974,111.098351 439.781158,102.075394 432.980438,93.333710 
	C423.410828,81.032944 412.728546,69.765488 400.028259,60.556629 
	C391.166748,54.131203 382.725769,47.052101 373.481506,41.244743 
	C357.988678,31.511969 341.730286,23.172808 324.042480,17.946039 
	C314.617188,15.160850 305.339264,11.862329 295.872467,9.236719 
	C288.419617,7.169683 280.853088,5.159069 273.203125,4.249210 
	C264.394440,3.201538 255.436661,3.429765 246.549149,2.991923 
	C245.542419,2.942326 244.571274,2.169745 243.791809,1.366207 
	C326.258240,1.000000 408.516449,1.000000 491.000000,1.000000 
	C491.000000,78.354080 491.000000,155.708389 491.000000,233.531342 
z"/>
<path fill="#000000" opacity="1.000000" stroke="none" 
	d="
M0.999997,362.468658 
	C2.017342,362.739471 3.512827,363.256287 3.977094,364.253296 
	C8.018435,372.931946 11.161433,382.112915 15.958433,390.335419 
	C22.666790,401.834229 30.082138,413.000946 38.063438,423.659424 
	C52.853249,443.410126 71.282898,459.413544 91.872894,472.907135 
	C107.448372,483.114471 124.094467,491.355591 141.904831,496.697845 
	C157.796585,501.464630 173.709808,506.580841 190.595383,507.062500 
	C194.534546,507.174866 198.440781,508.441315 202.181091,509.588379 
	C135.084076,510.000000 68.168152,510.000000 1.000000,510.000000 
	C1.000000,460.979401 1.000000,411.958344 0.999997,362.468658 
z"/>
<path fill="#000000" opacity="1.000000" stroke="none" 
	d="
M219.600006,1.000000 
	C219.054611,4.229177 217.411667,3.369851 215.819000,1.372099 
	C217.066666,1.000000 218.133347,1.000000 219.600006,1.000000 
z"/>
<path fill="#000000" opacity="1.000000" stroke="none" 
	d="
M206.250000,510.000000 
	C205.986496,509.571014 205.972992,509.142059 205.959503,508.713074 
	C206.532745,508.975403 207.106003,509.237732 207.339630,509.750031 
	C207.000000,510.000000 206.500000,510.000000 206.250000,510.000000 
z"/>
<path fill="#000000" opacity="1.000000" stroke="none" 
	d="
M374.376709,114.551964 
	C385.813782,125.019485 394.796234,137.049210 403.070740,149.639084 
	C412.891754,164.582092 420.446289,180.782425 425.644775,197.729294 
	C433.091858,222.006638 436.139221,247.157242 433.907440,272.558502 
	C432.935883,283.616760 430.542633,294.659332 427.675018,305.410278 
	C424.947540,315.635925 421.111908,325.614563 417.132843,335.446564 
	C410.997040,350.607880 402.741394,364.622650 391.993805,377.012665 
	C385.270905,384.763031 378.530151,392.569946 371.095123,399.609741 
	C364.088989,406.243500 356.686127,412.756592 348.511200,417.783356 
	C337.851837,424.337830 326.401215,429.680664 315.018097,434.955841 
	C307.678223,438.357269 299.998535,441.250458 292.200867,443.382935 
	C282.132385,446.136444 271.882172,448.597015 261.548370,449.908936 
	C250.097183,451.362701 238.450974,452.059326 226.912277,451.848602 
	C212.283463,451.581482 197.666504,450.136719 183.619888,445.427155 
	C173.616272,442.073120 163.487061,439.045227 153.645370,435.268585 
	C140.697113,430.299835 128.770813,423.288849 118.087753,414.455872 
	C112.534233,409.864136 107.813751,404.275696 102.588264,399.271912 
	C99.810806,396.612305 101.035263,394.893799 103.711449,393.675262 
	C117.486519,387.403168 131.131775,380.792084 145.172607,375.174835 
	C156.092010,370.806335 167.367493,367.087067 178.776382,364.253662 
	C189.242065,361.654480 200.045090,360.011536 210.797455,359.087372 
	C220.603058,358.244537 230.558350,358.576080 240.412277,359.080872 
	C246.084854,359.371429 251.776276,360.701996 257.292236,362.185364 
	C261.515808,363.321167 262.224548,369.407471 259.313568,375.145142 
	C255.157959,383.336090 251.041580,391.547180 246.967255,399.778809 
	C246.484726,400.753632 246.371445,401.911224 245.950119,403.500580 
	C247.630554,403.619293 248.941849,404.012146 250.103119,403.747314 
	C261.185883,401.219788 272.459534,399.254974 283.249908,395.793060 
	C295.157257,391.972809 307.097839,387.670258 318.131073,381.877228 
	C329.002960,376.168945 339.444366,369.145386 348.825775,361.220551 
	C360.254730,351.566040 370.648102,340.500732 376.961060,326.559052 
	C381.484436,316.569550 386.611359,306.552887 389.030579,295.989899 
	C391.825867,283.784821 392.086700,271.160370 390.512787,258.305328 
	C389.148010,247.158386 384.851868,237.243317 381.680176,226.867889 
	C380.194550,222.008102 376.955017,217.553452 373.939575,213.321945 
	C368.944305,206.312164 363.810242,199.349167 358.151825,192.875961 
	C348.987640,182.392227 336.753052,175.911621 325.165863,168.572189 
	C316.661194,163.185242 307.823517,158.074188 301.387482,149.997955 
	C299.566711,147.713181 298.149353,145.090134 296.220337,142.911392 
	C289.318573,135.116058 280.915802,129.156342 271.743622,124.432587 
	C263.996460,120.442734 256.065826,116.657593 247.884811,113.698555 
	C236.742294,109.668327 225.281601,106.519035 213.963165,102.973419 
	C207.440018,100.929985 200.943954,98.798874 194.407089,96.800873 
	C188.031235,94.852089 181.635376,92.964249 175.218811,91.154213 
	C165.525345,88.419792 155.806290,85.776100 145.732498,81.754448 
	C149.598877,79.255852 153.280350,76.384689 157.377579,74.351196 
	C162.726517,71.696487 168.237061,69.063438 173.976669,67.564163 
	C185.319107,64.601357 196.776901,61.817814 208.356247,60.103050 
	C218.607361,58.584988 229.097076,57.998138 239.464722,58.149242 
	C248.790451,58.285156 258.184692,59.470196 267.384857,61.111252 
	C280.873657,63.517288 294.193390,66.604462 307.077789,71.669601 
	C321.161560,77.206261 334.765259,83.661713 347.158386,92.181427 
	C356.710297,98.747948 365.216431,106.835686 374.376709,114.551964 
z"/>
<path fill="#AC2D47" opacity="1.000000" stroke="none" 
	d="
M139.351288,306.045044 
	C143.757904,304.489899 148.539215,302.938904 153.320526,301.387909 
	C153.593414,301.960175 153.866302,302.532471 154.139191,303.104736 
	C151.339142,304.736725 148.539093,306.368713 145.352692,308.036285 
	C144.463837,307.234985 144.098068,305.851135 143.428223,305.683655 
	C142.295410,305.400452 140.970276,305.886566 139.351288,306.045044 
z"/>
<path fill="#AC2D47" opacity="1.000000" stroke="none" 
	d="
M110.757156,340.161743 
	C111.281349,340.637817 111.528008,341.252228 112.097046,342.026978 
	C111.263580,343.045197 110.107742,343.903107 108.951897,344.761017 
	C108.589378,344.395142 108.226860,344.029236 107.864349,343.663361 
	C108.736107,342.542267 109.607864,341.421143 110.757156,340.161743 
z"/>
<path fill="#AC2D47" opacity="1.000000" stroke="none" 
	d="
M130.905853,318.940735 
	C129.407120,320.872101 127.526535,322.844116 125.335266,324.938538 
	C126.857727,323.034424 128.690857,321.007904 130.905853,318.940735 
z"/>
<path fill="#AC2D47" opacity="1.000000" stroke="none" 
	d="
M130.353012,309.006409 
	C132.718414,308.021973 135.493515,307.044037 138.654984,306.020691 
	C136.281799,306.987823 133.522247,308.000366 130.353012,309.006409 
z"/>
<path fill="#AC2D47" opacity="1.000000" stroke="none" 
	d="
M136.969559,313.917877 
	C136.143890,314.955780 134.946411,316.011871 133.394608,317.065094 
	C134.226105,316.020172 135.411926,314.978088 136.969559,313.917877 
z"/>
<path fill="#AC2D47" opacity="1.000000" stroke="none" 
	d="
M117.744797,332.097290 
	C117.297630,333.050262 116.527405,334.059021 115.398270,335.073547 
	C115.833488,334.103943 116.627609,333.128479 117.744797,332.097290 
z"/>
<path fill="#AC2D47" opacity="1.000000" stroke="none" 
	d="
M120.713364,329.050476 
	C120.239182,329.932343 119.432571,330.871155 118.337296,331.931824 
	C118.826057,331.071594 119.603493,330.089478 120.713364,329.050476 
z"/>
<path fill="#AC2D47" opacity="1.000000" stroke="none" 
	d="
M121.246353,312.003326 
	C121.771446,311.598358 122.520195,311.279053 123.599991,310.975861 
	C123.110703,311.357635 122.290359,311.723328 121.246353,312.003326 
z"/>
<path fill="#AC2D47" opacity="1.000000" stroke="none" 
	d="
M140.803711,310.128906 
	C140.605682,310.651917 140.135468,311.306335 139.327393,312.015961 
	C139.503540,311.467529 140.017548,310.863922 140.803711,310.128906 
z"/>
<path fill="#AC2D47" opacity="1.000000" stroke="none" 
	d="
M124.774689,325.109406 
	C124.570404,325.628723 124.075569,326.244873 123.294281,326.958130 
	C123.499931,326.438873 123.992027,325.822571 124.774689,325.109406 
z"/>
<path fill="#AC2D47" opacity="1.000000" stroke="none" 
	d="
M122.766937,327.106201 
	C122.557358,327.621277 122.057892,328.233276 121.272575,328.945374 
	C121.483498,328.431335 121.980270,327.817230 122.766937,327.106201 
z"/>
<path fill="#AC2D47" opacity="1.000000" stroke="none" 
	d="
M127.371262,309.864868 
	C127.821144,309.580170 128.588013,309.273499 129.694855,308.952820 
	C129.252640,309.240143 128.470444,309.541504 127.371262,309.864868 
z"/>
<path fill="#AC2D47" opacity="1.000000" stroke="none" 
	d="
M124.307533,310.868835 
	C124.555046,310.626404 125.094482,310.333527 125.959122,310.134949 
	C125.722710,310.425659 125.161087,310.622009 124.307533,310.868835 
z"/>
<path fill="#AC2D47" opacity="1.000000" stroke="none" 
	d="
M114.877838,335.190186 
	C114.912178,335.550964 114.746811,336.093719 114.312515,336.737122 
	C114.255096,336.349243 114.466606,335.860657 114.877838,335.190186 
z"/>
<path fill="#AC2D47" opacity="1.000000" stroke="none" 
	d="
M142.783478,309.035858 
	C142.589066,309.299835 142.103119,309.645416 141.296234,310.030457 
	C141.480835,309.752441 141.986404,309.434967 142.783478,309.035858 
z"/>
<path fill="#AC2D47" opacity="1.000000" stroke="none" 
	d="
M132.804230,317.177979 
	C132.863693,317.366211 132.671143,317.702240 132.205917,318.172424 
	C132.139572,317.979614 132.345901,317.652679 132.804230,317.177979 
z"/>
<path fill="#AC2D47" opacity="1.000000" stroke="none" 
	d="
M113.707733,337.176758 
	C113.904297,337.394989 113.764381,337.663635 113.220291,337.909149 
	C113.149239,337.735107 113.334282,337.515472 113.707733,337.176758 
z"/>
<path fill="#C80D31" opacity="1.000000" stroke="none" 
	d="
M192.033844,225.364120 
	C181.271820,223.269226 172.510376,218.504105 166.363205,209.714127 
	C160.138931,200.813889 160.231247,190.730682 162.215485,179.978912 
	C156.864578,179.978912 152.136551,179.978912 147.408524,179.978912 
	C147.146164,179.575882 146.883789,179.172867 146.621429,178.769836 
	C148.102295,177.044571 149.250046,174.679123 151.121857,173.705200 
	C159.106049,169.550919 167.286484,169.291275 176.239731,171.395767 
	C188.943115,174.381760 199.553253,181.789307 211.519592,186.121246 
	C217.109985,188.145050 223.135391,189.419724 229.057816,189.920792 
	C233.275970,190.277695 234.106094,191.957153 233.936142,195.456665 
	C233.241318,209.763779 223.363663,221.671875 209.331085,224.284973 
	C203.787796,225.317230 198.025558,225.173523 192.033844,225.364120 
z"/>
</svg>