<?xml version="1.0" encoding="UTF-8"?><svg id="a" xmlns="http://www.w3.org/2000/svg" viewBox="0 0 288.6 320.7496">
<title>Boston_Celtics-logo - brandlogos.net</title><g id="b"><path d="M288.6,150.7c0-38.5-15-74.7-42.3-101.9-23.4-23.5-53.6-38-86.4-41.4-.8-.8-1.7-1.5-2.5-2-11.5-7.5-21.1-1.9-27.8,1.3-.4.2-1.1.4-1.7.9-12.5,1.5-24.7,4.6-36.1,8.9-1.3-2-2.9-3.9-4.7-5.7C80.2,3.9,70.9,0,60.9,0,40.6,0,24,16.5,24,36.9c0,8.5,2.9,16.7,8.2,23.1C12.1,84.7,0,116.3,0,150.8c0,38.5,15,74.7,42.3,101.9,13.3,13.3,28.7,23.7,45.6,30.9-1,7.6.3,12.7,1.7,14.9-2.1,1.8-3,2.9-3.4,4.9-3.4,4.6,4.8,10.4,8.2,13,6.8,5.3,10.4,4.4,15.9,4.1,6.6-.3,12.9-8,16.3-13.1,7.2-1,8.5.1,8.7,1,2.2-.3,5.4-.9,9.6-2.7,9.7-4,6.8-8.9,5.9-9.8-.3-.2-.4-.6-.7-1,22.8-.9,44.8-7,64.3-18,.7.8,1.5,1.7,2.1,2.7,2.1,3.1,3.2,13.3,3.7,18.4.4,5.3,1.3,8.8,3.9,17,2.6,8.3,3.6,2.2,3.7,0s.6-10.3.2-16.1c-.3-5.8-.4-14.1.7-17.7s-.9-4.5-1.5-5.1c-.6-.7,0-.9-1.5-5.4-.1-.3-.2-.4-.2-.8,7.4-5,14.2-10.7,20.7-17.2,27.4-27.3,42.4-63.5,42.4-102"/></g><g id="c"><path d="M130.9,288.1c-1.7-1.5-4.4-3.4-4.8-3.7-.3-.3-1.3.1-2.1.4,0,0,.7.3,1.2,1,.8.8,3,2.5,3.9,3.4.9.8.6,1.8.3,2.5-.1.7,1-.1,2.3-.9,1.4-.8.9-1.3-.8-2.7Z" style="fill:#bb9753;"/><path d="M125.2,293.7c-.9.3-1.9,0-2.5-.6-.7-.7-4.4-3.8-5-4.5-.7-.7-.6-1.6,0-2-1.2.1-2,.1-2.9.1-.8.1-2.1.1-1.1,1.1.9.9,5.9,5.6,6.8,6.5.9.9,1.8.9,2.7.7.9-.1,3-1.6,2-1.3Z" style="fill:#bb9753;"/><path d="M143.7,106.8c.4-1.1,1.3-3.4,2-5.1-1.6,0-3.8.2-5.1.2-1.2,0-.8,1.8-1,2.9-.2,1.3,2.1.2,1.8,1.9-.1.7,1.9,1.2,2.3.1Z" style="fill:#bb9753;"/><path d="M111.8,264.6c-.3,0-1.1-.1-1.5-.3h-.2l-.8-.1c.4.3.7,1,.1,1.3-.9.6-3.8,1-6.8.8-3-.1-3.7-1.8-3.8-2.9,0-.7.1-1.3.1-2.5s-.3-2.1.3-2.6c.7-.4.6.7,1,.7,1.9,0,8.5.7,10.1.9,1.6.1,1.5-.7,1.1-1.8-.1-.3-.4-.2-.2,0-.2.6-1.7.3-1.7.3,0,0-2.9-.2-4.8-.3-2-.1-3.5-.3-4.6-.6-1.1-.2-2.6-.2-2.5.3.1.6.3,7.5.4,8.5,0,1,.1,1.3.6,1.3,1.2,0,9.8.1,11.8.1s1.8-.2,1.9-1.3c.2-.9-.1-1.8-.5-1.8Z" style="fill:#bb9753;"/><path d="M121.6,48.3c.6.7,1.2,1.2,2,1.8,1.3-1.5,2.6-2.7,3.9-3.9v-.1l2.7-2.7c2.9-2.7,5.7-4.9,8.9-7,1.8-1.1,3.2-2.2,4.9-3.2v-.2c1.9-1.1,3.2-1.8,3.2-1.8,0,0,1.9-.8,4.4-1.9,2.8-1,6.1-1.9,10.4-2.8.3-1,.3-3.4.1-4.2-.1-3.1-3.5-6.1-3.5-6.1.3-.2-.2-1.8-.4-3.2-3.9,1.1-8.9,3.2-13.3,5.4q-.7.3-2.3,1.2v-.1c-.8.3-1.7.9-2.3,1.2-1.3.7-3.4,1.9-5.5,3.5-3.1,2.1-6.9,4.9-10.4,8-2,1.7-5.5,5.9-5.5,5.9-.6.8-1.1,1.5-1.5,2.2.3.8.4,1.5.7,2.1.3.9,1.5,4.2,3.5,5.9Z" style="fill:#bb9753;"/><path d="M137.4,101.9c-2.5-1.1-4.7-3.8-6.3-6.8,0,0,.1-.4-.6-.4s-3.1-.2-7.3-1.7-4.7-.6-5.3,1.2-1,5-1.1,10.4,2.2,8.7,3.7,8.2c.7-.3,2.5-1.1,4.5-2.1l5.5-2.3c2.3-.8,5-2.3,5.9-2.9l1.5.1c.2-2.1.1-3.3-.5-3.7Z" style="fill:#bb9753;"/><path d="M168.9,93.2c-3.7-.2-8,.4-12.1,2.1l-2,.6c-1.1.6-2.5,1.1-3.5,1.8-5.7,3.5-5.9,6.5-4.6,7.5,1.1,1,3.7,1.5,7.8,4.1l1.6,1.5.1.1c6.1,4.5,7.6,2,8.6-.1.9-2.1,2.9-8.4,3.5-11.7.3-2.2.8-4.2.6-5.9Z" style="fill:#bb9753;"/><path d="M129,126.4c-.9-2-1.1-.4-3.7,3.5-1.2,2-7.7,9.2-8.2,9.7-5.7,7-16.7,15.8-16.7,15.8-4.9,4.5-7.6,7.8-9.3,10.5l6.4,20.1c2.8,3.9,6.8,9.5,8.3,11.8,2.2,3.7,2.2,8.2,3.1,7.5s3-2.7,3.7-3.2c.7-.6,1.3-1.2,1-2.5-.3-1.2-1.7-7.8-1.2-12.4.4-5.3,2.9-11,4.7-14.2s6.8-13.3,8.2-16c1.2-2.7,3.5-5.8,4-8.3s2.7-8.2,3.6-10.8c0-1.6-1.5-6.1-3.9-11.5Z" style="fill:#bb9753;"/><path d="M182.1,185.3c0-2.6-1.5-4.6-4.4-9.4-2.9-4.7-3.5-6.7-3.9-11.6-.3-3.1,0-7.2.3-11.1l-8.4-8.4-.2-7.4-.3-1.6c-2.3-11.1,3-24.3,4.5-27.9,1.6-3.9,7.5-14.9,9.7-18.2-1.1-.6-4-2-5.7-2.9s-2.5-1.2-2.9-.6c-.4.6-1,1-1.8,2-1.6,2.2-.2,1.9.2,1.9s2.3,2.5,2.7,3c.3.6,0,1-.8,2.8-1.1,2.3-1.7,7.7-2.5,11-2.7,9.7-6.8,8.8-8.8,7.5-1.9-1.2-2.5.7-4.4,3.4-.4.7-1.5,2.1-3,3.7l-1.7,2.6-10.5,10.1s-3.6,3.7-4.7,4.2c-1.5,2.5-2.7,5.5-4.5,10.8-2.5,7.5-8,17.5-10.4,21.4-6,9.7-7,18.8-6.1,24.5.9,5.6,1.7,5.3,2.9,5.3s4.2,3.8,6.1,6.1c2,2.3,2.8,1.3,3.8.6,3.2-2.5,9.7-6.7,18.9-11.1,3.9-1.8,9.1-3.9,14.1-5.4l5.1-1.6c4.8-1.3,9.1-2.1,11.3-1.9,3.3.2,5.6,1.1,5.4-1.8Z" style="fill:#bb9753;"/></g><g id="d"><g id="e"><path d="M110.3,285.3c5.4-.2,12.9-1.9,16.2-3.4.4.1,1.1.6,2.3,1,.4-3.6-1.8-11.1-3.1-14.4-.9-2.2-1.7-3.8-2.7-6.1-3-.6-6.8-2.2-9.4-3.2,0,2.1.3,7.6.9,11.3-1.1.1-2.7.2-4.6.2.3,3.9.6,11.2.4,14.6" style="fill:#008348;"/><path d="M211.1,273.4c-1-1,1.2-4.1,2.2-9.8,1-5.8,1.1-15.4-3.1-21-2-2.6-3.1-4.4-3.4-5.5-13.2,9.6-28.3,16-44.4,18.7-.2.3-.3.7-.6.9-2.3,3-6.8,7.4-10.3,9.1-3.4,1.8-7.3,3.1-9.4,3.8-.4,3.6-1.1,11.5-.1,14.2.3,1,4.5,3.5,5.9,6.1.2.3.3.6.3.8,22.7-.7,44.2-6.8,62.9-17,.3-.2.2-.3,0-.3" style="fill:#008348;"/><path d="M243.4,51.6c-21.9-21.9-49.9-35.8-80.1-39.8,2.5,4.8,2.8,10.4,3,13.9,4.4-1.9,7.6-2.9,9.5-5.8,1.8-2.9,4.2-2.3,5.8-.2s1.6,4.7-2.5,7.4c-4.1,2.6-7.2,3.8-8,4.2-.9.4-.1,1.2.9,2.9,1,1.7,3.6,5.8,3.9,14.5v.3c16.3,5,31.4,14,43.8,26.5,20.1,20.1,31.2,46.9,31.2,75.3,0,16.3-3.7,32.1-10.5,46.4,1,.4,2.1,3.7,2.6,7.9.2,2.2.1,4.7-.6,6.1-.7,1.6-5.9,9.5-8.6,11.8-1,.9-3.4.8-4.4-.7s-1.1-.7-1.9.1c-.8.8-3.5,4.7-4.1,5.7-.7,1-2.9,2-1.5,6,1.5,4,3.1,7,2.6,9.3-.6,2.2-.8,2.9,2.2,5.4s2.9,5.7,1.6,7.6c-.9,1.2-2.1,4.7-2.7,8,35.5-25.5,58.8-67.1,58.8-114,.2-37.1-14.5-72.3-41-98.8" style="fill:#008348;"/><path d="M82.6,254.1c-.3-3.8-1-10.6,1.7-15.4-5.4-3.7-10.4-7.9-15.2-12.6-20.2-20.2-31.2-47-31.2-75.4,0-30.5,12.9-57.9,33.4-77.4.2-.3.4-.8.8-1.1-3.5,1.1-7.2,1.7-11,1.7-9.7,0-19-3.8-26-10.7C15.2,87.9,4.2,118.6,4.2,150.8c0,37.4,14.6,72.7,41,99,12.6,12.6,27.4,22.6,43.4,29.6.6-3,1.6-6.3,2.9-9.7,1.2-3.2-.7-10.7-3.8-14.6-1.5-.6-3.7-.9-5.1-1" style="fill:#008348;"/><path d="M119.7,12.9c-8.8,1.6-17.5,3.9-25.7,7.2,2.7,5.1,4,11,4,16.9,0,7.9-2.5,15.4-7,21.8,7.7-4.5,16.1-8,24.7-10.5.6-.6,1.1-1.1,1.8-1.6-3.2-5.4-7.5-14-3.8-25.5,1-3.4,3.4-6.1,6-8.3" style="fill:#008348;"/><path d="M71.5,104.7c-1.5-.4-2.6,1.2-3.2,2.6-.7,1.3-1.5,2.8.7,5.8,2.1,3,3.4,4.8,7.2,4.6,1.8-.1,3.4-1.5,3.9-2.2s.7.6-.2,1.9c-.9,1.3-1.6,4.5.1,6.6,1.7,2.1,5.1,3.9,9.7,1.2,4.6-2.7,6.5-5.9,7.3-7.4s.8-2.1,0-3-3.4-5.1-3.9-13.4c-.3-5,.6-8.3-2.5-10.1s-10.3-6-11.1-14.2c-.3-3.1-.1-7.9-3.2-5.4-3.1,2.6-3.1,4.4-3.5,6.1-.3,1.9,1.2,4.5,2.5,6.1,1.3,1.8,2.9,5.7,4.1,6.7,1.2,1,2,1.8,3,1.9,1,.1,5,.1,6,.4,1,.3,1.6,1.6-.9,1.6s-6.1.7-7.9.9c-1.7.2-3.2.3-3.9,3.7-.8,3.4-1.9,7.3-2,8.5s-.8,1.9-.8,2.6,1.3,3.9,4.4.7,4.2-6.5,4.8-8c.6-1.6,1.2-1.3.7,1.1-.6,2.5-.7,8.6.4,10.7,1.2,2.3,3.8,4.7,7,3,.7-.3,1.8-.9,2.7-.8.9.1-.2,1.7-1,2.3-.8.7-3.4,3.5-7.8-.6-1.1-1-2.7-3.2-3-6-.1-.9-1.3-1.2-1.9-.4-.6.8-3.6,3.6-5.7,1.6-2.1-2-3-3.1-1.8-7.4-.1-.7.3-1.5-.2-1.7" style="fill:#f9a980;"/><path d="M73.8,98.5c-.4,1.5-.9,3.4-1.1,3.9-.2.7-1.2,2.1-2.1.2-.9-1.9-.9-3.4.6-4.8.4-.4,1.1-1.3,1.6-.9.2.7,1,1.2,1,1.6" style="fill:#f9a980;"/><path d="M78.8,93.3c-.9.4-2.9.4-3.6,2-.4,1-2.2-.1-1.3-1.3s1.6-1.1,2.1-1.5c.6-.3.8-1.3,1.9-.8,1,.7,1.2,1.5.9,1.6" style="fill:#f9a980;"/><path d="M139,73.1c-.6,1.3-2.3,2.7-6.1,2.3-1.9-.2-3.9-.3-4.1,1.2-.2,1.1-1.1,1-2.3,1-1.2-.1-2.7-.3-2.7.1-.1.4,5.4,3.8,7.3,4.6,1.8.9,4.6,2.8,6.7,2.6,2.9-.3,5.4-1.8,9.7-6.3,1.8-1.8,3.2-2.8,1.6-3.6-1.1-.4-2.3-.7-3.8-.7-1.8,0-4.9-.2-6.3-1.2" style="fill:#f9a980;"/><path d="M118.2,73.2c-1.6-.1-1.7-1.1-.7-2.8,1-1.7,1.9-3.2,3.2-4.2.2.7.7,1.7,1.3,2-.9,1-2,2.1-1.8,4.5l-2,.5Z" style="fill:#f9a980;"/><path d="M178.6,60.5c-2.3-4.2-6.3-2.1-8.2,1s-4,6.6-4.1,11.8c-1.3-.4-2.7,0-3.4,1.1-.3.6-5.3-.1-6.8.3-1.7.4-2.2-.6-.4-2.9s8-10.8,7.6-17.1c-.1-1.9.1-2.2.4-3.7.3-1.8.6-1.8-1.8-3.1-1.5-.8-1.6-3.1-1.8-4.9-.3-1.9-.7-1.9-2.8-1.5-1.3.2-4-1.5-5.3-3.4-3.1.3-6,2.2-8.9,4.2s-13.2,11-15.8,12.7c2.5,1.3,3.2,3.9,2.3,8.5-.2,1,0,1.3.7.7.7-.7,3.8-3.9,3.7-6.7-.1-2.7-1.3-4.2-1.6-4.6-.2-.3.9-1.7,2.1,1.1,1.2,2.8.9,6.7-2.8,11.1s-6.6,4.2-8.2,5c-1.6.8-3.1,2-1.7,4.4s4.2,1.5,5.4.7c1.1-.8,2.7-1.7,6.1-1.3,3.6.3,4.7-1.9,2.3-4.4-.8-.8-2.8-2.5-.3-2.5,1.5,0,3.2,3.2,4.2,4.1s3.2,1.2,6.1,1.5c3,.2,7.6,1.3,7.6,4.2,0,1.8-1,2.3-2.2.9-.4-.6-1.2.3-1.8.9-1.9,1.9-6.8,7-10.2,7.9-3.5.9-4.7-.1-9.3-2.5-4.6-2.5-8.8-4.9-10.1-5.7-1.2-.8-3.8-2.6-2.6,1,1.2,3.6,4.2,7.3,10.3,9.3,6,2,6.8,2.7,8.3,3.4,1.3.7.6,1.3-1.2,1.1-1.6-.2-3.2-1.6-1.9,1.5,1.3,3,3.4,6.3,9.5,5.4,6.1-.8,6.3-2,10.2-8.5.7-1.1,1.3-.3.9,2.6,3-1.5,4.7-1.9,6.5-2.3,1.8-.4,6.4-2,9.5-7.7,1.6-2.9,2.5-3.9,2.1-6.8-.1-1.1,1.6-3.4,3.2-4.9,2-1.8,6.4-7.7,4.2-11.9ZM151.8,66.1q.6.1.4.1c-1.9,0-4.7-.6-6.8-2-2.1-1.5-2.7-2.1-2.5-4.1.2-1.2.3-1.9.3-2.5.1-.3.1-.6.1-.9.2-1,.1-1.7-.2-1.9-.2-.2-.3-.3-.7-.3-.3,0-1,.3-1.8.9-1.1-.9-2.3-1.8-3.1-2.6-.7-.6-1.1-1-1.3-1.1-.2-.2-.4-.3-.6-.7,0-.2.1-.4.3-.8.2-.2.3-.2.7-.2h.2c.2,0,.6,0,.8-.3s.3-.8.2-1.5c0,0,.1-.1.6-.1h.6c.3,0,.4,0,.6-.1.3-.1.3-.3.3-.6q.1-.3.4-.3c.2,0,.4,0,.9.1h.2c.3,0,.6-.3.7-.4l.1-.1c.1-.2.3-.3.6-.3h.3c.3.1.6.1.8.2.3.1.6.2.9.2.7,0,.9-.4,1-.9.2-.8.3-1,.7-1,.3,0,.7.2,1.1.4.4.3.9.3,1.1.3.4,0,.9-.3,1-.9,0,0,0-.1.2-.1.3,0,.9.2,1.6.6l.3.2c1.1.6,3.2,1.8,5.7,4.7.6.7.8,1.1.7,1.2h-.2c-.3.1-1,.2-1.1,1.1-.1.4-.2.9-.3.9,0,0-.1-.1-.2-.3-.2-.3-.3-.6-.7-.6h-.2s-.1-.1-.1-.3c-.1-.2-.2-.6-.7-.6-.2,0-.3.1-.4.2h-.1c-.1-.2-.2-.6-.7-.6h-.4s0-.1-.1-.2c-.1-.2-.2-.3-.4-.3s-.3.1-.4.1c-.2.1-.3.1-.4.1s-.1,0-.1-.1c-.2-.3-.3-.3-.4-.3-.2,0-.3.1-.6.2-.1.1-.3.2-.3.2,0,0-.1,0-.2-.1-.1-.1-.3-.3-.4-.3-.3,0-.3.2-.6.3l-.1.1c-.1.2-.2.2-.3.2h-.2c-.1-.1-.3-.1-.3-.1-.3,0-.6.3-.7.3l-.1.2s-.1,0-.2-.1c-.1-.1-.3-.1-.3-.1-.4,0-.7.3-.8.7-.1.3-.2.3-.3.3h-.1c-.2,0-.3-.1-.4-.1-.6,0-.7.6-.8,1.1,0,.1,0,.2-.1.3-.2.9-.6,4.7-.4,5.6.1.9,1.2.9,1.7.9.9,0,1.9-.2,3.4-.3,2.7-.3,7.8-1.9,10.4-4,.7-.6,1.1-.6,1.3-.6s.2,0,.3.1c0,.1-.3.9-1,1.3q-.1.1-.2.2c-.8.7-2.7,2.5-6.6,3.1-3.7.7-7,1.3-8.3,1.3h-.5c-.2,0-.3.1-.3.3-.1.2,0,.4.3.7.3.3.9.4,1.3.4h.4c.1,0,.6.3.9.7.8.8,2,1.8,3.6,1.8,2,0,4.8-2.1,5.7-2.8.3-.3,1.2-.8,1.8-.9-.1.1-.2.3-.3.4l-.1.2c-2.3,2.2-4.2,4.2-6.1,4.2ZM175.7,63.7c-1.2.9-2,1.2-2.1,2.8-.1,1.6-.3,4.2-1,4.5-.8.3-.7-1.5-.9-.9-.3.8-1.2.4-1.6-.3-.1-.3-2.9-.3-.7-3.5,2-2.9,3.6-4.5,5-5.1,1.5-.7,4.1.6,1.3,2.5Z" style="fill:#f9a980;"/><path d="M230.3,196.2c-.4-1.3.3-3.5,3.2-1.9,2.8,1.6,4.9,2.9,2.9,8.9-2,6.1-3.5,9.7-4.2,12.3s-3.8,5.8-2.8,1.5c1-4.4,1.6-9.6,1.1-12.3-.8-4.9.8-4.7.3-6.8-.2-.7-.3-1.3-.5-1.7" style="fill:#f9a980;"/><path d="M240.9,201.4c.8,2.5,1.7,7.9.3,10.2-1.3,2.2-5.5,8.3-7,9.9-1.6,1.6-2.8.9-1.8-.8,1-1.7,2.3-3.9,2.3-4.7s-.1-1.7,1.2-4.2c1.3-2.5,3.7-11.1,3.9-11.8.3-.7.9.8,1.1,1.4" style="fill:#f9a980;"/><path d="M212.1,222c-.7-2-1-4.9-2.1-6.6.9-2.5,3.9-8.9,8.8-11.1.6-.2.9-.8.7-1.2-.2-.4.7-.8,1.1.8s1.2,6,1.2,6c.2,1-.2,1.8-.4,3.1-.2,1.3-.8,4.4-.4,5.9.3,1.6.9,2.7,3.9,2,1.6-.3,1.5-.8,1.9-2.1.4-1.3,1.7-5.1,2.1-7.3.4-2.1.1-7.3-.3-8.6s.2-5.9-.2-6.8c-.3-.9-.6-2.2-3.4-3.1-2.8-.9-3.6-1.1-5.4.8-1.9,1.9-2.5,2.7-3.5,3.6-.9.9-3.1.1-1.2-1.7s3.7-3.6,4.2-4.1l-.6-1.5h-1c-3,3-7,4.8-9.7,5.4-1,.2-2.9.3-1.6,2.1.3.4.4,1.7,1.2,1.2.8-.4,2-2.5,3.1-1.6s-.2,3-1.6,4c-1.3,1-2.8,2-3.8,2.5-1,.6-1.6,1.1-1.5,2.9s.2,5-.8,7.5-.4,3.1.4,4.7c.9,1.7,2.3,3.1,2.8,5.8.4,2.7.7,3.4,2.5,3.1,1.8-.2,2.5-1,3.1-2.1l.5-3.6Z" style="fill:#f9a980;"/><path d="M147.4,28.5c1.6.2,3.2.1,3.6-1,.3-1.1.1-1.8-.4-1.9-.4-.2-.8-.2-.4-1.1.2-1,1-.9.9-2.5s-1.2-1.7-2.3-1.2c-1.1.3-1.5.9-2.5,2.1-1,1.3-.6-.9-.3-1.2s.6-2.9-.8-3.4c-.8.3-1.6.8-2.3,1.1-.2.4-.3,1.1-.7,1.7-.6,1.5-1.2.3-1.8-.3h0c-1.5.8-2.8,1.6-3.8,2.2-.1.1-.2.2-.3.2.1.9,1.1,2,1.8,2.5.8.4.3,1.5-.6,1.5s-2-.6-3.1.8c-1.1,1.3-.3,2.6.7,2.6,1.1,0,1.9.3,2.3,1.7.3,1.2.7,1.8,2.1,1.9,1.5.1,2.3-1,2.7-1.7.3-.7.9-1.7,1.6-1.3.9.3.8,1.2.4,2.3,1.1-.6,2.1-1.1,3.2-1.8-.2-1-.8-1.8-1.1-2.2-.6-.9-.4-1.1,1.1-1" style="fill:#008348;"/><path d="M159.8,12.3c-.4.1-1.1.3-1.7.3.3,1.2.8,2.9.4,3.2-.3.3-1.7.4-2.6.8-1,.3-3.4,2.5-2.1,4.1,1.2,1.7,1.7,2.6,1.8,3.4.2.9,2.2,1.8,3.6.2,1.3-1.7,2.5-3.5,2.8-2.3.3,1,.2,3.4,0,4.7.3-.1.6-.1.9-.2.7-6.3-.9-10.7-3.1-14.2" style="fill:#008348;"/><path d="M129.2,42.4c-.8-.6-1-1.6-.1-1.8,1-.3,2.2-.4,4.6-1.6,2.3-1,1.1-2.7.1-3.2-1.1-.4-1.1-1.5-1.1-2.5.1-1.1-.2-2.6-2.2-1.8-2,.8-1.3,2.8-1.9,3.5-.6.7-1,.4-.9-.6s-.8-1.7-1.2-1.9c-.3-.2-1.2-.3-1.9-.3-2.1,1.9-4,3.9-5.5,5.9.3.7,1.1,1.5,1.6,1.6.6.2,1.3.6,1.3,1.7,0,1-2.1,1-3.6,1.1,1,2.7,2,4.6,3.4,6.1.3-.1.8-.2,1.2-.4,1.8-.8,2.3-3.4,2.5-4.1.3-.8,1-.6,1.6.3.3.7.4,1.3.4,2,1-1,1.9-1.9,2.9-2.8-.3-.6-.7-.9-1.2-1.2" style="fill:#008348;"/><path d="M158.8,108.9c.3-.1-.6-3.9.2-4.1.7-.2,1.1,2.1,2.6,1.9,1.6-.3,1.9-1.8,1.8-3.6-.2-1.8.8-.8,1.6-2s-.9-2.9-2.8-1.8c-1.9,1.1-1.6-.3-.6-1s.3-2.8-1.8-2.1c-1.6.4-2.3-.4-3-.9-.6.2-1.1.4-1.7.7-.1.3,0,1,.1,1.6.2.7.4,2.5-.7,1.8-1.1-.7-2.5-1.1-2.8.2-.3,1.2.3,1.3.3,2.1s-2.1,1-1.1,2.5c1,1.7,2.3.8,3.2.1,1-.6,1.8.1,1.6,1-.3.7-.8,2.8-.9,4.2.4.3.9.6,1.3,1,.6-.5,1.6-1.4,2.7-1.6" style="fill:#008348;"/><path d="M128.4,105c.9-.2,2.5,1.6,3.9.4,1.5-1-.6-2-.3-2.8.2-.8,1-2.5-.1-3.2-1-.8-2-.1-3.1,1.1-1.1,1.1-.7-1.1-.1-2,.8-1.2,0-2-1.2-2.3-1.2-.2-1.7,1.6-2.5.8-1.3-1.2-3.4-.8-2.9,1,.4,1.8,1.1,2.3,0,2.5s-2-2.5-3.2-.3.8,2.9.6,4.6c-.2,1.7.4,3.5,1.6,3.6,1,.2,2-1,2.6-1.7s1.9-1.1,1.8.1c-.1.9-.2,2.7-.2,3.8,2-1,4.2-2,5.4-2.5q.1,0,.2-.1c-.6-.2-1.3-.6-2.1-1.1-1.3-.7-1.3-1.6-.4-1.9" style="fill:#008348;"/><path d="M103.8,155.7c2.5-.8,2.7,1.2,2.3,2.9s-.3,5.3-.2,7l4.2.2c-.2-1.1,0-4.4.1-6.3.1-1.9,2-4.8,2.7-1.9s3.6,3,5.6,1.8,3.5-3.9,5.6-7.7-.7-4.8-2.3-4.6-3.4.4.4-2.7c3.5-2.9-2.5-4.4-5.1-4.9-4.5,4.7-9.9,10.1-14.9,14.2-.6.6-1.2,1.1-1.8,1.6.5.5,1.6,1,3.4.4" style="fill:#008348;"/><path d="M99.4,183.8c2.1-.7,3.5,3.9,6.6,1.2s.9-4.9.8-7.2,2.5-3.1,1.7-5.9c-1.1-4.2-5.1-.2-7.5,2.1-2.5,2.3-2.5.4-.1-3.4,2.5-3.8-1.6-5-4-4-2.2.9-4.1,0-5.4-1.1-1,1.6-1.7,2.9-2.3,4.4-2.1,4.4-.7,4.5.9,4.5s4.9,6.6,5.4,7.8c.2.3,1.2,2.1,2.8,4.2-.5-1-.3-2.1,1.1-2.6" style="fill:#008348;"/><path d="M160.3,140c-2-.4-4.7-.8-4.9,3.4-.1,1.6,1.5,2.8,2.9,3.4,1.5.6,1.2,1.6-.3,1-1.6-.6-2.8-.9-3.9,2.3-1.1,3.2.9,3.7,1.9,3.9s1.8.4,1.6,1.8c-.2,1.3-.9,5.3,1.7,5.6,2.5.3,4.8-2.8,5.6-4.4s1.7-3.1,1.9-1.3-.1,2.7-1,4.7-.9,2.9.4,2.8c1.3-.1,3.6,0,4.2-1.6s1.7-4.6,1.8-6.7c.1-1.3,1.2-1.5,2.1-1.3.3-2.2.6-4.5.9-6.4-4.4.7-8.2-4.7-9.4-9.3-1.6,1.3-3.8,2.5-5.5,2.1" style="fill:#008348;"/><path d="M139.5,139.2c-.8,1.3-3,5.1-2,6.4s2.1-1.2,3-.3,2.9,1.9,2.9,1.2.2-2,.6-3.8c.3-1.8,1.1-2.8,1.9-1.3s1.9,2.7,4.7,2,2.5-3.6,1.9-5.7c-.6-2.1,1.5-3.1,2.5-3.7,1-.6,3.6-2.6,1.7-4.4-1.9-1.8-3.6.8-5.3,1.1s-1-1.1,2.5-3.8c3-2.3.4-4.7-1.3-5.4-4.8,4.8-13.3,12.6-15.2,14.4-.7.7-1.2,1.3-1.8,2.3,4.2-2,4.6-.4,3.9,1" style="fill:#008348;"/><path d="M167,184c1.5,1.3,4.9,3.2,7.4,1s-.6-4.7-.9-6.5c-.3-1.8,1.8-2.9.7-5.8-1.9-5-4.8,1-6.5,2.7s-1.3-1.1.1-2.7c.8-.8,4.2-2.9,2.2-5.3-2-2.3-4.9-1-6.4,0s-2.5,2.2-4.8,1.6c-2.2-.7-4.1-.9-5.4,2.3-1.3,3.2,1.2,2.3,3.2,4.7,2.1,2.3.8,2.5-.9,1.9s-2.5-2.7-4.9-2.3c-2.5.3-2.5,4.2-1.7,5.3.8,1,2.3,1.6,1.2,3.5s.6,4.1,2.5,5c2,.9,5-2.7,6.1-4.1,1.1-1.5,2.2-1.1,2,0-.2,1-.7,3.5-.8,5.6,1.8-.6,3.4-1.1,5-1.5,0-1.1-.3-3.1-.8-4.8-.2-2.6,1.2-1.9,2.7-.6" style="fill:#008348;"/><path d="M138.1,195.8c-2.7.8-3.1-.4-4.9-1.1s-1.9.9-.7,2.8c1.2,1.9,2.6,3.7,1.1,3.7s-2.6.2-2.8,1.3-2.6-.2-3.1-2.5c-.6-2.3-1.1-6.8-2.3-4.6s-2.3,5.9-5.4,4.2c-3.1-1.7-1-3.9-2.6-5.4-1.6-1.6-3-3.6-1.5-6.4s2.9-.4,4.4-.4,1.7-1.3.3-2.3c-1.3-1-3-5.8,3.1-5.4,2.3.1,4.9-.7,6.8-2.1,2-1.5,7.3-.7,5.1,3-2.1,3.7-1.5,4.5-.2,3.1,1.2-1.3,2.8-3.8,5.1-3.1s1.3,2.5-.1,4.5c-1.5,2-.6,3.4.6,4.1,1.2.7,3.3,4.9-2.9,6.6" style="fill:#008348;"/><path d="M149.4,169.6c-2,.1-4.5-.4-4.5-.4-.2,2.1-2.3,5.1-4.4,8.3-.2.3-1.5.3-2-.1-.6-.4-2.1-1.2-.9-2.5,1.2-1.3,3.2-4.1,2.9-5.4-.3-1.2-1.2-2.3-2.6-.7-1.3,1.7-3.5,5.1-5.8,5.3s-4.7-2-3.6-4.1c1.1-2.1,1.5-3.2-.1-5.1-1.6-1.9-1-4.4,2.3-5.8,1-.4,2.8,0,3.9,1,1.2,1,1.9,0,.2-1s-3-2.2-3.2-4.5c-.2-2.1,1.1-4.4,3.9-3.1,2.9,1.2,4.7.2,5.9-.8s6.5-2.2,5.7,2.3c-.6,3.4-2.1,3.5-2.5,5.3s.9.7,1.7-.7c.8-1.3,2.5-6.8,6.1-2.7.9,1,.6,2.7-.6,4.6-1.1,1.9-.2,3,.4,3.9,1.3.9,2.8,5.9-2.8,6.2" style="fill:#008348;"/><path d="M142.1,20.9c.2-.6.3-1.1.6-1.7-.8.3-1.7.9-2.3,1.2.4,1,1.1,2,1.7.5" style="fill:#bb9753;"/></g></g><g id="f"><path d="M51.6,30.4c.8,1.1,1.6.9,1.9.1.7-1.7,2-7,2-11.1,0-9.4,1.2-13.1,3.6-17.4-10.8.6-20.6,6.1-26.5,14.5,9.1,2.4,16,9.8,19,13.9Z" style="fill:#a73832;"/><path d="M50.7,35.7c1.1-1.5-.2-2.3-.8-3.1-2.9-4.1-9.6-11.5-18.7-13.9-3.2,5.4-5.1,11.4-5.1,18.1,0,3,.3,5.8,1,8.4,17.1,1.5,22.6-8.1,23.6-9.5Z" style="fill:#a73832;"/><path d="M62.8,1.7c-2.5,3.9-3.9,6.9-4.9,17.2-1,10.2-1.9,17.3-9.3,23.5-5.7,4.6-16.9,5.9-20.5,5.7,1.7,4.9,4.4,9.3,7.9,13,10.6-3.6,18.3-8.2,28.5-17.7s15.3-19.2,16.9-22.8c1-2.3,2.9-5.4,1.6-.2-1.3,5.1-6.1,16.1-16.1,25.5-9.8,9.4-18.8,14.2-29.2,16.9,6.1,5.6,14.4,9.1,23.5,9.1h.8c2-12.6,5.1-16.8,11.3-22.1,6-5.4,14.6-8.2,21.9-5.1.6-2.3.8-5,.9-7.9,0-19-14.7-34.2-33.3-35.1Z" style="fill:#a73832;"/><path d="M77.1,50.5c-.9.6-1.6,1-.4,2,2,2,5,5.8,7.2,11,4.8-4,8.4-9.4,10.4-15.4-1.8-2.4-7.7-3.5-17.2,2.4Z" style="fill:#a73832;"/><path d="M72.3,54.4c-5.3,4.7-7.3,11.7-8.4,17.2,6.3-.4,12.2-2.7,17.1-6-2-4.9-3.7-8.5-5.6-11-1.1-1.3-1.2-1.8-3.1-.2Z" style="fill:#a73832;"/><path d="M223,262.2c2-6.5,5.3-6.4,4.2-8.9s-2.8-4.4-4.1-5.8c-1.3-1.5-.3-4.9-.3-6.4-.1-2.7-2.2-3.1-2.5-6.1s-.4-5.4,1.8-8.5c2.2-3-.8-2.9-1.8-4.8s-1.6-4.5-.7-8.3c.4-2,.2-2.5-.3-2.8-.6-.2-2.9-.7-2.9-.7l-3.5,6.8c.6,1.3.8,3.4.8,4.7l-.9,5.7c-.8,1.3-2.1,3.5-2.1,5.4s-1.9,3.9-1.7,4.8c.2.9,2.7,3.2,4.1,5.7,1.5,2.5,3.2,6.1,3.2,12.3s-2,14.5-2.2,15.5c-.2,1.1-.8,2,.9,3.6,1.7,1.6,4.4,4.5,5.4,11.1s1.7,10.1,2.1,10.4.3.9.3,2.1,1.1,8.3,1.9,9.6.7-7.5.6-10.2c-.1-2.5.1-14.8.6-16.7.4-1.8.9-3.8-.7-6-1.5-2.2-4.2-6.1-2.2-12.5Z" style="fill:#a73832;"/></g><g id="g"><path d="M101.4,77.4c-2.9.6-2.8,1.1.3.8,1,0,15-2.1,16.8-2.5,1.8-.3,2.2.9,2.7.6.6-.2-.2-.2-.6-2.5l-2.6.3c-3.1.8-13.7,2.7-16.6,3.3Z" style="fill:#fff;"/><path d="M218,77.1c-12-12-26.4-20.7-42-25.6-.1,1.6-.2,3-.2,3.6,3.1,1.6,6.6,4.9,5.3,11.2-.6,2.6-2.7,5-2.9,6-.3,1.7-3.9,4.6-4.9,6.8s-1.2,4-1,5c1.8,1.7,5.8,3.9,8,4.7,1.7.6,1.7,1,1,2-.2.2-.6.4-.6.7-2.7,3.7-7,13-8.9,18.8-2,5.8-6.6,19.7-3.2,28.7,3.2,9.1,9.6,3.4,11.1-.1s3.7-9.4,4.4-11,1-2.5,2.2,1.2,3,12.5,3,13.3-1.2,3-2.5,6.5-2.1,5.9-.8,8,6.6,11.1,8.3,15c1,2.3,1.9,2.8,4.6,2.1s9.2-2.9,11.1-3.8c1.9-.9,1-2.5.4-4.4-.9-2.9-4.2-19-4.2-21.1s.6-4.9-2.2-1.8c-1,1.1-2.3,0-2-1.6s3.7-23.4,3.9-25.9c-1.9-4.1-7.5-17.1-8.9-19.6-1.6-2.3-2.1-2.5-4.5-1.2s-7.5,3.1-9.5-1.3c-.2-.4-.4-1.2-.3-1.8.6.3,1,.9,1.7,1.7,1.2,1.5,4.5.6,6.5-.4s4.6-1.3,6.6,1.1c2,2.5,5,7,6.5,11.2s3,7.6,3.5,8.3c.4.7-1.6,13-2.1,17.8-.6,4.9-1,7-1.1,7.8s3.1-2.8,3.2,1.5c.1,3.4,1.7,14.2,3.5,22.2.4,2,1,3.9,1.5,5.4,1.3.2,2.5,2.9,3.2,7,.8,4.1,2.5,6.7,2.5,8.7.1,2,.7,2.3,1.3,2.7.7.3.4,1.3-1.6,3.7.4.3,1.1,1,1.6,1.5.6-.6,2.1-2.3,2.1-2.3,0,0,6.1,2.5,7.5,2.9,1.3.4,2.9-2.8,6.8-1.1,1.1.4,2.3,2,3.2,3.5,6.1-13.3,9.7-28.3,9.7-43.9-.3-27.8-11.2-54.1-30.8-73.7Z" style="fill:#fff;"/><path d="M207.9,230.3c-1.6-.8-2.6.3-3.4-5.8-.2-1.8-1.7-4.1-2.8-5.3-1.1-1.1-1.2-3.2-.7-5,.9-2.8,1.1-5.4,1-7.5-.1-2.2.3-5,3.5-6.4-1.1-1.2-1.7-2.8-2-3.9-4.6-1.6-5.5-1.7-6.4-3.9-1.6-3.7-2.5-9.1-3-12.1-.2-1.5-.3-2.8-.3-4-1.5-2.8-4.7-8.9-7.3-13.5-1-1.8-1.8-3.2-2.3-4.2-2.2-3.9,0-8.9,1.1-12,1.1-3,2-5.7,1-8.7s-1-3.7-1.2-4.9-1.2-2.8-2.5,1.5c-1.3,4.2-3.9,10.4-5.4,16.9-.9,3.7-1.3,7.6-1.1,11.5.2,2.9.8,5.8,2,8.4,2.9,6,6.4,11.6,5.9,14.9-.4,3.4-1.1,3.5-1.2,4-.6,6.5-3.4,18.9-4.8,22.5-1.5,3.6-7.2,16.4-8.3,21.9-1,4.1-3.5,13.2-5.7,18.4,16.7-3.2,32-10.3,44.8-20.5.2-.9.1-1.8-.9-2.3Z" style="fill:#fff;"/><path d="M84.2,84.1c1.2,1.7,2.8,3.1,4.9,4.1,5.4,2.8,6.6,4.7,6.6,9.6,0,4.8.9,14.6,2.5,16.2,1-1,2.1-2.5,2.3-2.9,1.6,2.9,4.7,8.3,9.7,11.6.1,0,.1.1.1.2s-.1.1-.1.2c-.4.9-1.3.6-1.9.4-1.2-.3-5.4-4.8-6.8-7.3s-1.7-2.2-2.2-.4c-.6,1.8-2.7,5.7-4.1,7.5-1.5,1.9-5.3,6.8-6.3,7.9-1,1.1,0,1.6.9,2.5s5.4,6.5,6.5,7.6c1,1.2,2.1,3.5,4.8,1s5.9-6.8,7.4-11.5c1.3-4.1,1.6-6.5,2.5-6.7.1.1.2.1.3.2,1.7.4,12.5,2.1,12.7,4.4,2.2-2.2,5.8-7.8,6.5-9.7s4.6-7.9,7.5-11.2c0-1.3,0-2.1.1-2.5-.8.7-2,2.3-3.8,3.1s-8,3.5-12.5,5.7c-1.6.8-4.4,1.7-5.4-6.5-1.1-8.2,0-12.4.8-14.2.8-1.9,2.2-3.6,5-2.8s7.3,2.5,8.5,2.5c.2-.9,1-2.5-2-2.9-2.1-.2-7.7-1.8-11-6.1-1.2-1.8-2.1-3.9-2.2-6.7-6.4,1-21,2.9-24.1,3.7-3.2.8-6,1.5-7-5.9-.4-3.1-1.2-7.5,1-5.9,1.8-1.3,4.2-2.9,8.6-2.2.8.1,1.8.8,2.1,1.5.2,1.1-.2,2.8-.8,4.6-1,3-2.8,5.1,3.2,3.8,6.4-1.5,14.4-2.7,16.5-3.1.3-2.1,2-5.5,4.1-7.9,2.1-2.5,2.5-4.5,2.6-5.3s-.6-1-1.7,0c-1.2,1.1-4.9,3.4-8.3,2.5-1.3-.3-3-2.9-3.9-4.4.8-1.6,2.6-4.1,4.8-6.8-11.8,3.8-22.9,9.7-32.9,17.5-.1,1.2.1,4,.9,7.3.5,1.9,1.5,4.8,3.6,7.3Z" style="fill:#fff;"/><path d="M91.9,236.3c4.6-1.8,8.2-1.8,11.7,3,1,1.3,1.8,5.3,10.4,1.8-4.6-5.4-7.4-11.8-9.7-20.6-3.9-13.7-12.9-29.3-9.6-36.4-1.9-1.8-4.1-8.7-6.5-7.9-1.6.4-3.8.6-2-4.7.8-2.3,2.1-5.3,4.7-8.6,3.1-4.1,7.8-9.2,15.6-15.2.7-.6.8-1,.3-1.5-.8-.8-1.6-1.7-2.3-2.1-.8-.4-1.6-.2-2.2.4-.7.7-1.8,1.5-2.5,1.9s-6-4.8-8.8-8.6-5.7-5-6.6-5.4c1.1-1.2,3.7-3.9,2.7-3.6-1.7.6-4.7,1-7.5-2.2-3.7-3.9-2.2-5.9-3-6.5s-4.8.3-7.8-4.4-4.2-6.7-1.8-10.1c1.2-1.7,1.7-2.5,1.3-4.6-.3-2.1,0-3.5,2.8-6.1,2.8-2.7,4.5-5.1,5.7-4.9,1,.2-1.8-3.4-3.6-6-.4-.7-.8-1.3-1.1-1.8-.4-1.1-1.1-2.9-1.2-4.9-19.6,19.7-30.4,45.7-30.4,73.4s10.8,54,30.5,73.6c4.7,4.7,9.6,8.7,14.8,12.4,2.2-2.4999,4.8-1.4999,6.1-.4Z" style="fill:#fff;"/><path d="M203.7,193.3c3.6-.1,9.6-1.7,14-5.7-1.2-1.5-3.4-8.4-3.9-11.3-.8-3.1-.8-6.4-4-4.6-2,1.1-9.1,4.2-12,4.7-3,.4-2.2,1.2-1.7,3.5s2.2,8.9,3.1,11.2,2.1,2.3,4.5,2.2Z" style="fill:#fff;"/><path d="M155,112.5c-1.5-1-6.8-4.4-7.6-4.9-.9-.7-1.2-.7-1.6-.1-.2.4-1,1.8-2.8,1.8s-3.2-.6-4.4,1c-1.1,1.6-7.3,8.9-8.6,13.6,1.3,2.8,3.1,7.8,4.5,11.3,4.4-3.7,18.2-17.2,20.8-19.8,1.1-1,1.2-1.9-.3-2.9Z" style="fill:#fff;"/><path d="M121.5,128.9c-1,.2-5.1-1.5-9.1-2.2-1.2-.1-1.5-.1-1.7.3-.9,3.5-2.5,9.5-5.4,14.1,1.1,1.8,2,3.4,3.4,3.9,3.1-2.2,8.9-7.7,10.7-9.7,1.7-2,3.8-5,3.8-5.7.1-.7-.7-.9-1.7-.7Z" style="fill:#fff;"/><path d="M179.8,20.8c-1.3-1.5-2.1-1.1-3.4.3-3,3.6-8.9,6.7-19.1,9.3-10.2,2.6-19.8,9.7-24,13.2-4.1,3.5-14.5,12-19.6,14-1.3.6-4.1,2.5-.6,2.9,2.7.3,4.6-1.2,10.4-5.4,5.8-4.2,10.3-7.3,14.8-11.6,4.1-4,11.6-7.8,19.7-10.1s18.6-5.7,21.6-8.9c1.5-1.6,1.6-2.4.2-3.7Z" style="fill:#fff;"/><path d="M128.4,59.2c.6-.3-.1-2.7-2-2.3-.6.2.1-1.3-1-.7-.9.4-1.2,1-2.2,4.2s-.9,5.1-.1,5.9c.6.6,1.5.6,1.9.6.3,0,.7.1.6-.9-.2-.9-.2-5,2.8-6.8Z" style="fill:#fff;"/><path d="M93.4,70.8c0-1.8-.9-1.8-2.5-1.8-1.9,0-3.9.7-5.4,1.3.2.7.1,3.5.4,5.3,1.1,5.7,3.1,4.9,4.5,4.7,1.3-.2,3.8-1.2,2.8-1.2s-1-.7-.9-2.3c.2-1.8,1-4.3,1.1-6Z" style="fill:#fff;"/><path d="M127.2,259c1.9-2.2,1.8-7.7.8-12-.9-4.2-7.5-5.9-13.4-3.5-5.9,2.5-9.4,1.5-10.8.6,0,0-.8-.6-1.3-.9-.6-.3-.6,1-1.2,2.3s-.8,5,.2,7.2c2.6,0,6.1,1.1,8.3,2.1,2.1.9,9.6,4.4,12.9,5.4,1.5.6,2.9.8,4.5-1.2Z" style="fill:#fff;"/><path d="M140.4,284.1c-.2-.8-.6-5.5-.6-6.8s.3-4.7.4-5.8c.1-1.1.4-2.1-1.5-2-1.8.2-6.1-.3-6.8-2.5-.9-2.7-3.5-3.2-4.9-3.2-2.6,0,0,2.8.8,4.9.9,2.2,4.1,14.8,2.7,14.9-1.5.1,0,1.3,1.2,2.2,2.3,1.7,6,.6,7,.1,1.1-.4,1.9-.9,1.7-1.8Z" style="fill:#fff;"/><path d="M90,241.3c.7-.8.6-1.5.1-2.2-.4-.8-.8-1.3-1.3-1.6-1.3-.4-2.5.2-3.6,2.8-1.1,2.3-1.3,10.1-1,12.5.9-.2,2.6.1,3.4.3-.3-4.3,1.1-10.3999,2.4-11.8Z" style="fill:#fff;"/><path d="M110.8,317c-3.5.3-6-.2-9.9-1.9-3.8-1.7-9.1-6.5-11.8-9.6-.9-1-1.7.2-.9,1.3,3.4,4.8,8.6,8.2,12,9.9,3.4,1.8,8.5,1.8,10.7,1.5,2.1-.3,2.7-1.5-.1-1.2Z" style="fill:#fff;"/><path d="M147,297.7c-2.2,1.1-6.5,3.1-10.4,4.1.4,2,.6,2.9.6,3.5,2.5,0,7.2-1.8,11.1-4.1.9-.6,1.2-1.2.9-2-.5-.7-.9-2.1-2.2-1.5Z" style="fill:#fff;"/><path d="M123.8,287.3c-.7,0-3.8.7-3.2,1.2.3.3,1.7,1.8,2.5,2.7.9,0,2.9-.6,3.2-.8.4-.2.6-.4.2-.8-.4-.5-1.9-1.9-2.7-2.3Z" style="fill:#fff;"/><path d="M147.8,222.1c-1,.1-8.3.1-13.4-.6-9.1-1.1-18.1-6.3-21-9.7-.4-.6-3.1-.3-.9,1.5,2.2,1.8,7.9,7,16.2,8.6,1.9.3,4.9.9,5.4,7.8.4,6.8-.2,11.3-.2,12s-.4.9-1,.1-2.5-3.4-3.5-3.9-1.7-.4-2.5.2c-.9.7-2.2,2-2.8,2.7l2.5,1.5c-.9-.7-.8-1-.3-1.7.4-.7.9-1.1,1.3-1.3.4-.2,1.1-.3,1.9.8.8,1.1,5,8.2,5.9,10.1s2,.7,1.6-.4-1.3-3-1.7-3.6c1.2-3.8,2.5-9.6,2.5-13.3s-.9-7.5-1.6-8.9c3,.1,9.6,0,12.2-.8,2.5-1,.4-1.2-.6-1.1Z" style="fill:#fff;"/><path d="M94,271c-.3.8-1.5,3.9-1.8,6.1-.3,2.3-.9,5.8,0,10.8s1.3,6.6,1.6,7.5l2.7-.9c-1.5-.9-3.1-5-3.5-13.3-.1-2.8,1-7.5,1.9-9.7s-.6-1.3-.9-.5Z" style="fill:#fff;"/><polygon points="243.8 94.2 248 91.1 241.4 81 244.8 78.6 252.2 89.5 256.5 86.4 248.8 75.7 252.2 73.3 260.2 84.6 264.6 81.6 252.6 64.7 232.9 78.8 243.8 94.2" style="fill:#fff;"/><polygon points="255.6 119 262.1 116 257.6 106.3 272.7 100 270 94 248.7 103.3 255.6 119" style="fill:#fff;"/><polygon points="259.5 129.2 260.2 135.1 274.5 133.5 275.1 139.7 281.5 139.2 279.7 118.4 273.2 118.9 273.8 127.5 259.5 129.2" style="fill:#fff;"/><polygon points="260.2 149.6 260.2 156.6 281.3 156.5 281.2 149.5 260.2 149.6" style="fill:#fff;"/><path d="M270.2,166.7c-3.6-.7-7.7-.1-10.6,2.1-2.6,2-3.9,3.9-4.6,7.6-.4,2.3-.1,5.4.7,8l5.6-1.8c-.6-1.2-.8-3.2-.2-5.3,1.1-3.8,4.2-5.5,8-4.9,3.9.6,6.3,4.2,5.6,8.6-.3,1.8-1.1,3.2-3.1,4.5l3.5,4.1c2.8-1.8,4.9-5.1,5.4-7.5.8-3.9-.2-6.8-2-10.1-2.1-3.1-5.2-4.8-8.3-5.3Z" style="fill:#fff;"/><path d="M266.2,196.1c-2.9-.8-6.9,2.5-8.9,4.4-1.1,1.1-5,5-6.8,4.4-1.7-.6-1.1-3-.6-4.7.8-2.3,2-4.4,3.9-5.6l-3.5-1.6c-1.7,1.5-3.6,3.7-4.4,6-.9,2.6-1.2,5.8-.9,7.7.4,2.5,1.3,4.1,4.2,3.9,2.2-.2,7.8-3.9,11.1-6.8,1.7-1.6,3-1.8,3.8-1.2,1.1.7,1.1,2.6.7,3.9-.6,1.7-1.3,4.2-2.7,5.3l4.7,3.2c1.9-1.9,3-4.9,3.5-7.6,1.4-6.8-2.2-10.9-4.1-11.3Z" style="fill:#fff;"/><path d="M219.7,68.3c1.9,1.3,4.8,2.2,7.5,2.7l.6-5.8c-1.3,0-3.2-.7-4.8-1.9-3-2.6-3.2-6.7-1.2-9.4,2.5-3.2,6.6-3.9,10.3-1.6,1.5,1,2,2.5,2.3,4.8l5.4-.9c-.3-3.2-2.2-7-4-8.6-2.8-2.5-6.1-3.1-9.7-2.6-3.6.4-6.9,2.8-8.9,5.5-2,2.9-3.2,6.9-2.5,10.5.7,3.3,1.9001,5.2,5,7.3Z" style="fill:#fff;"/><path d="M24.2,177.6c.2-1.6.1-4.6,1.8-4.8,1.7-.3,2.8,1.2,3.1,2.9.4,2.5,1.1,4.2.2,6.4l4.5-.4c.8-2.1.4-4.8,0-7.3-.6-2.7-1.5-4.7-3.5-6.5-1.9-1.8-3.4-2.2-6.3-1.6-1.8.3-4.8,3.5-4.9,9.7,0,1.1-.3,3.5-1.3,3.5-1.3.1-2.3-1.6-2.6-2.8-.3-1.8.1-5.5.8-7h-4.7c-.7,2.7-1,6.4-.3,9.2,1.2,6.1,4.9,8,7.9,7.7,3.2-.5,4.8-3.8,5.3-9Z" style="fill:#fff;"/><polygon points="14.9 152.1 31.4 151.9 31.4 146.7 14.9 146.9 14.7 139.8 9.4 140 9.6 159.7 15 159.6 14.9 152.1" style="fill:#fff;"/><polygon points="44.9 99.8 32.1 92.6 32.2 92.4 49.1 92.1 53.1 86 32.2 73.9 29 78.7 43.4 87.6 23.8 88.2 21.1 93.4 41.7 105.4 44.9 99.8" style="fill:#fff;"/><path d="M24.1,131.7c7.2,0,12.9-5.8,12.9-12.9,0-7.2-5.8-12.9-12.9-12.9-7.2,0-12.9,5.8-12.9,12.9.1,7.1,5.8,12.9,12.9,12.9ZM24.1,112c3.7,0,6.7,3,6.7,6.7s-3,6.7-6.7,6.7-6.7-3-6.7-6.7,3-6.7,6.7-6.7Z" style="fill:#fff;"/><path d="M45.3,203.6c0-7.2-5.8-12.9-12.9-12.9-7.2,0-12.9,5.8-12.9,12.9,0,7.2,5.8,12.9,12.9,12.9s12.9-5.9,12.9-12.9ZM32.4,210.2c-3.7,0-6.7-3-6.7-6.7s3-6.7,6.7-6.7,6.7,3,6.7,6.7-3,6.7-6.7,6.7Z" style="fill:#fff;"/><path d="M47.9,218.2c-1.9,1.8-2.9,5.9-1.1,8.7-2-1-6.1-1.3-8,.3-4.7,4,1,9.8,5.6,14.4l6.5,6.4,17-14-6.9-8c-2.3-3.2-9.1-11.4-13.1-7.8ZM48.6,240.7c-1.8-2-6.8-6-4.7-8,2-1.9,7.2,4.2,7.7,5l-3,3ZM56.5,233.5l-.4-.6c-1.5-1.8-6.1-6.8-4.2-8.6,1.8-1.8,6.4,4,7.6,5.6l.6.7-3.6,2.9Z" style="fill:#fff;"/><path d="M105.1,262.1c-1.8,0-3.5-.8-4.4-.2-.8.4-.1,1.8,1,2.1.9.3,5.9,0,6.8,0l1.6.2c0-2.1-.7-2-1.1-2.3-.4-.2-2.2.2-3.9.2Z" style="fill:#fff;"/></g></svg>