<?xml version="1.0" encoding="UTF-8"?><svg id="uuid-58841fbd-0753-41c4-ab89-04fef6d77d23" xmlns="http://www.w3.org/2000/svg" viewBox="0 0 278.11 278.1">
<title>Los Angeles Clippers 2015-2024 logo - Brandlogos.net</title><path d="M0,139.05C0,62.26,62.26,0,139.05,0s139.05,62.26,139.05,139.05-62.26,139.05-139.05,139.05S0,215.85,0,139.05" style="fill:#fff;"/><path d="M139.05,0C62.38,0,0,62.38,0,139.06s62.38,139.05,139.05,139.05,139.05-62.38,139.05-139.05S215.73,0,139.05,0M239.56,61.8c15.91,20.64,24.94,45.2,26.18,71.16h-52.39c1.23-25.93,10.29-50.5,26.22-71.16M38.54,61.8c15.93,20.66,24.98,45.23,26.22,71.16H12.36c1.23-25.96,10.27-50.53,26.18-71.16M38.54,216.31c-15.91-20.64-24.94-45.21-26.18-71.16h52.39c-1.23,25.94-10.29,50.5-26.22,71.16M145.15,265.74v-36.34h-12.19v36.34c-33.01-1.57-63.62-15.73-86.35-39.93,18.58-23.19,29.05-51.06,30.34-80.66v-12.19c-1.29-29.61-11.76-57.47-30.34-80.66,22.73-24.21,53.34-38.37,86.35-39.93v36h12.19V12.36c33,1.57,63.62,15.72,86.34,39.93-18.57,23.19-29.05,51.05-30.34,80.66v12.19c1.28,29.61,11.76,57.47,30.34,80.66-22.73,24.21-53.34,38.37-86.34,39.93M239.56,216.31c-15.93-20.66-24.99-45.23-26.22-71.16h52.39c-1.23,25.96-10.27,50.52-26.18,71.16" style="fill:#061922;"/><polygon points="108.07 80.81 108.07 196.82 170.05 196.82 170.05 180.87 124.66 180.87 124.66 80.81 108.07 80.81" style="fill:#ec174c;"/><path d="M191.13,119.68v-47.8c0-7.16-2.89-10.08-9.95-10.08h-84.37c-6.98,0-9.83,2.92-9.83,10.08v134.36c0,7.16,2.85,10.08,9.83,10.08h84.37c7.07,0,9.95-2.92,9.95-10.08v-47.86h-16.72v43.26h-70.84v-125.17h70.84v43.21h16.72Z" style="fill:#006bb5;"/><path d="M170.03,176.38l.02-95.57h-40.27l-.39,95.57h16.13l.26-29.79h8.2l-.12,29.79h16.17ZM153.86,130.7h-8.08v-33.94h8.08v33.94Z" style="fill:#ec174c;"/></svg>