<?xml version="1.0" encoding="UTF-8"?>
<svg version="1.1" xmlns="http://www.w3.org/2000/svg" width="1100" height="1100">
<path d="M0 0 C1.2154248 0.17160645 2.43084961 0.34321289 3.68310547 0.52001953 C79.02568855 11.40553928 150.34000129 40.40849991 210 88 C211.010625 88.79792969 212.02125 89.59585938 213.0625 90.41796875 C219.45897791 95.55150571 225.50236328 101.03410226 231.50146484 106.61914062 C232.94028908 107.94497801 234.40138311 109.24652359 235.86328125 110.546875 C248.30876318 121.66191976 259.66500558 133.90530276 270 147 C270.89105249 148.07862477 271.7844255 149.15533532 272.6796875 150.23046875 C286.50180391 166.95355194 298.18163581 185.2258499 309 204 C309.45826172 204.78487793 309.91652344 205.56975586 310.38867188 206.37841797 C323.20229897 228.41149519 332.93892338 251.85468676 341 276 C341.34514648 277.02351563 341.69029297 278.04703125 342.04589844 279.1015625 C349.59394906 301.72445226 354.8745429 324.90976247 358.3125 348.5 C358.45977539 349.51046387 358.60705078 350.52092773 358.75878906 351.56201172 C361.44402022 371.48743306 362.38042359 391.40913279 362.3125 411.5 C362.30976578 413.19446259 362.30976578 413.19446259 362.30697632 414.92315674 C362.03285215 516.33481172 326.5681111 614.46457807 240.125 709 C235.88939395 713.1864263 231.53457718 717.14363785 227 721 C225.56333984 722.27037109 225.56333984 722.27037109 224.09765625 723.56640625 C145.30586992 792.92162565 40.25308683 827.29649522 -109.26049805 827.48217773 C-114.18963405 827.10719907 -119.09220068 826.58858405 -124 826 C-125.12422363 825.87109375 -126.24844727 825.7421875 -127.40673828 825.609375 C-188.64611412 818.42723563 -249.33500911 798.79895123 -300 763 C-301.20943523 762.159868 -302.41907439 761.32002949 -303.62890625 760.48046875 C-311.03044443 755.306443 -318.1040605 749.8372268 -325 744 C-325.51997559 743.56494141 -326.03995117 743.12988281 -326.57568359 742.68164062 C-339.99792436 731.4495737 -353.05603507 719.74509671 -364.61523438 706.57617188 C-366.11406491 704.87016871 -367.62748549 703.17769394 -369.140625 701.484375 C-397.54282613 669.46942744 -419.23132329 632.24836306 -436 593 C-436.31759277 592.26394531 -436.63518555 591.52789063 -436.96240234 590.76953125 C-438.01781992 588.18151579 -438.98414001 585.80301014 -439.0398407 582.9828186 C-437.29462628 579.65495922 -433.88442977 578.89355681 -430.53833008 577.61865234 C-429.75284727 577.30525249 -428.96736446 576.99185263 -428.15807915 576.6689558 C-425.53418529 575.6263924 -422.90213423 574.60628805 -420.26953125 573.5859375 C-418.42238715 572.85713237 -416.5757824 572.12695896 -414.72969055 571.39549255 C-409.78662829 569.44137949 -404.83627506 567.50641637 -399.88425446 565.57513809 C-394.77452267 563.57875985 -389.67154879 561.56525942 -384.56787109 559.5534668 C-375.64799032 556.04015887 -366.72260814 552.54111822 -357.79406357 549.04989338 C-350.32254382 546.12791351 -342.85727088 543.19041969 -335.39453125 540.24609375 C-324.94384035 536.12730165 -314.47866729 532.04706767 -304 528 C-303.14978271 527.67138977 -302.29956543 527.34277954 -301.42358398 527.00421143 C-280.53999855 518.93696403 -259.59135264 511.05582609 -238.5625 503.375 C-237.21100861 502.87948639 -237.21100861 502.87948639 -235.83221436 502.3739624 C-226.51067102 498.96091335 -217.16315218 495.64859572 -207.71484375 492.6015625 C-206.95482559 492.35207855 -206.19480743 492.1025946 -205.41175842 491.84555054 C-200.60061411 490.32441996 -196.02399868 489.49057911 -191 489 C-191 489.99 -191 490.98 -191 492 C-191.825 492.36609375 -192.65 492.7321875 -193.5 493.109375 C-208.57752039 500.17696268 -221.11722042 510.42535807 -233 522 C-233.95205322 522.92135742 -233.95205322 522.92135742 -234.92333984 523.86132812 C-245.64196704 534.27210963 -255.05636249 545.03059886 -264 557 C-263.06655762 556.52280518 -262.13311523 556.04561035 -261.17138672 555.55395508 C-229.1900228 539.23829434 -196.86649191 524.94397219 -163 513 C-161.8022998 512.57734863 -160.60459961 512.15469727 -159.37060547 511.71923828 C-129.79552429 501.43686239 -98.91859623 493.89411074 -68 489 C-67.0723584 488.84982422 -66.1447168 488.69964844 -65.18896484 488.54492188 C-25.93692407 482.30488973 11.29386729 482.67966894 49.625 493.5625 C50.29289551 493.7478833 50.96079102 493.9332666 51.64892578 494.12426758 C58.90743294 496.30219475 63.6103659 500.02522025 68 506 C70.31611293 510.5008152 70.42554344 514.85517346 70.625 519.8125 C70.66367187 520.60076172 70.70234375 521.38902344 70.7421875 522.20117188 C70.83588844 524.1337538 70.91900779 526.06684376 71 528 C92.79369832 509.927177 110.17888147 489.08295773 114 460 C115.76815511 433.02720742 108.90750977 409.44585495 91.25 388.7265625 C77.67475922 373.28661602 60.98169082 361.61301181 44.3828125 349.6796875 C1.57832557 318.9045862 1.57832557 318.9045862 -15.625 298.875 C-38.74141703 272.02830541 -72.33933927 261.88355305 -105 251 C-105.69643616 250.7666394 -106.39287231 250.53327881 -107.1104126 250.29284668 C-129.50140319 242.79698103 -152.17779188 236.37879864 -174.92232132 230.05584717 C-197.40046863 223.80451553 -219.76259227 217.23485707 -242.0625 210.375 C-243.16463144 210.0359923 -243.16463144 210.0359923 -244.28902817 209.69013596 C-251.08795937 207.59821886 -257.8859253 205.50317425 -264.68312073 203.40562439 C-276.47991474 199.76682524 -288.28812197 196.16639243 -300.1015625 192.58203125 C-300.98461752 192.31407242 -301.86767254 192.04611359 -302.7774868 191.77003479 C-309.75046066 189.65437447 -316.72392657 187.54033811 -323.69752884 185.42675018 C-329.27132793 183.73737394 -334.8448831 182.04719718 -340.41796875 180.35546875 C-341.16806528 180.12778305 -341.91816181 179.90009735 -342.69098854 179.66551208 C-357.48056352 175.17416588 -372.24563416 170.60565386 -387 166 C-386.30079002 162.96668063 -385.46012418 160.90431925 -383.6640625 158.34765625 C-383.18235596 157.66002197 -382.70064941 156.9723877 -382.2043457 156.26391602 C-381.68316162 155.53744873 -381.16197754 154.81098145 -380.625 154.0625 C-380.08770264 153.30831787 -379.55040527 152.55413574 -378.99682617 151.77709961 C-374.01228419 144.86569847 -368.6480938 138.37439936 -363 132 C-362.24074219 131.14148438 -361.48148437 130.28296875 -360.69921875 129.3984375 C-359.23469272 127.75962507 -357.76201775 126.1280582 -356.28125 124.50390625 C-354.70516889 122.77399531 -353.14350336 121.03087962 -351.59375 119.27734375 C-340.4281207 106.78327361 -328.14055716 95.38890203 -315 85 C-313.99195313 84.15050781 -312.98390625 83.30101562 -311.9453125 82.42578125 C-294.87720492 68.13764978 -275.59448984 55.88007739 -256.11181641 45.16308594 C-254.07953363 44.04380326 -252.06126361 42.90206643 -250.04296875 41.7578125 C-209.66475003 19.24168732 -163.52513629 6.37196348 -118 0 C-116.2981958 -0.2477417 -116.2981958 -0.2477417 -114.56201172 -0.50048828 C-77.26767122 -5.71274833 -37.2501251 -5.43661943 0 0 Z M-206 127 C-205.17651097 129.1923823 -205.17651097 129.1923823 -202.92260742 129.86279297 C-201.52812378 130.29809326 -201.52812378 130.29809326 -200.10546875 130.7421875 C-199.02950439 131.07927734 -197.95354004 131.41636719 -196.8449707 131.76367188 C-195.63800537 132.13041016 -194.43104004 132.49714844 -193.1875 132.875 C-192.55500336 133.06940674 -191.92250671 133.26381348 -191.27084351 133.46411133 C-179.52199283 137.07084469 -167.67859058 140.30478341 -155.8125 143.5 C16.36377057 189.89472313 16.36377057 189.89472313 46.375 231.25 C47.51120312 232.76276492 48.65053788 234.27318272 49.79296875 235.78125 C50.61740479 236.86986328 50.61740479 236.86986328 51.45849609 237.98046875 C64.01661041 254.4329112 81.30602806 264.34733934 98.79199219 274.82250977 C111.44917436 282.41217498 123.75572854 290.39396677 135 300 C136.35351562 301.15242188 136.35351562 301.15242188 137.734375 302.328125 C144.24470312 308.04714252 149.6996568 314.16144531 155 321 C155.77859375 321.95132813 156.5571875 322.90265625 157.359375 323.8828125 C188.12785944 362.19643484 202.96492347 411.04143239 198.5390625 459.91796875 C197.1140791 472.67297823 193.9854871 484.82295828 190 497 C189.77473633 497.70286133 189.54947266 498.40572266 189.31738281 499.12988281 C183.88480611 515.78491244 175.35300657 531.88953158 165 546 C164.61489258 546.5249707 164.22978516 547.04994141 163.83300781 547.59082031 C158.90506589 554.26171394 153.71259558 560.62608058 148.0859375 566.7265625 C146.1477745 568.8389424 144.28976729 570.99998072 142.4375 573.1875 C138.93374693 577.19521755 135.07788522 580.59004425 131 584 C129.72382812 585.10794922 129.72382812 585.10794922 128.421875 586.23828125 C82.74279736 625.36503218 20.53412576 649.03630519 -39 655 C-36.45732919 649.75081086 -33.70100508 644.71286372 -30.73583984 639.69165039 C-24.88495755 629.75659025 -19.96054995 619.82629374 -16 609 C-15.61972656 607.96875 -15.23945312 606.9375 -14.84765625 605.875 C-13.98786074 602.9588272 -13.63587554 600.47179428 -13.5625 597.4375 C-13.52253906 596.52871094 -13.48257812 595.61992188 -13.44140625 594.68359375 C-14.27588862 590.67457704 -15.70636418 589.43247454 -19 587 C-22.55853121 585.73312553 -26.16913996 585.01641989 -29.875 584.3125 C-30.82375 584.11333984 -31.7725 583.91417969 -32.75 583.70898438 C-46.24228714 580.96555266 -59.56483678 579.61412681 -73.3125 579.6875 C-74.04777924 579.68965515 -74.78305847 579.6918103 -75.5406189 579.69403076 C-146.07079288 580.02257715 -216.80896746 607.67669071 -278 641 C-276.00696484 646.55133207 -272.71640859 650.49045543 -269 655 C-268.42765625 655.69738281 -267.8553125 656.39476562 -267.265625 657.11328125 C-254.24454374 672.49368686 -236.3887735 684.14241865 -219 694 C-218.20674316 694.45084961 -217.41348633 694.90169922 -216.59619141 695.36621094 C-173.63267694 719.47917325 -122.84592391 733.98273742 -73.4375 734.203125 C-72.37589157 734.21018463 -71.31428314 734.21724426 -70.22050476 734.22451782 C-37.49282461 734.46758241 -37.49282461 734.46758241 -5 731 C-3.79859375 730.80664062 -2.5971875 730.61328125 -1.359375 730.4140625 C42.21379192 723.21115123 84.49814107 708.59402081 122 685 C123.00417969 684.36964844 124.00835938 683.73929688 125.04296875 683.08984375 C137.45731869 675.0247971 149.92901692 666.34479371 160.69921875 656.16015625 C162.65463407 654.32425697 164.64738765 652.57311207 166.6796875 650.82421875 C178.40509286 640.60007942 189.54535682 629.36235743 199 617 C199.8474616 615.95085803 200.69790733 614.90412192 201.55078125 613.859375 C216.37220764 595.58500412 228.89497542 575.33918562 238.99804688 554.09863281 C239.67047017 552.69021404 240.35159758 551.28592049 241.04101562 549.88574219 C261.58412609 508.06718002 271.2187486 460.89667131 271.25 414.5 C271.25067474 413.59571259 271.25134949 412.69142517 271.25204468 411.75973511 C271.16463187 337.61488766 245.26454444 264.27320127 198 207 C197.22003662 206.05036377 196.44007324 205.10072754 195.63647461 204.12231445 C189.45782743 196.66982667 182.9648624 189.64926556 176.09326172 182.83251953 C174.49337171 181.2434164 172.90455586 179.64379625 171.31640625 178.04296875 C164.86920006 171.586199 158.19870482 165.62492088 151 160 C150.20948242 159.37577148 149.41896484 158.75154297 148.60449219 158.10839844 C94.07694165 115.44766193 24.25753109 89.11399904 -45.34375 88.796875 C-46.90327644 88.78635353 -46.90327644 88.78635353 -48.49430847 88.77561951 C-51.82958364 88.75822537 -55.16468115 88.75176765 -58.5 88.75 C-59.64038727 88.74932526 -60.78077454 88.74865051 -61.95571899 88.74795532 C-111.72420945 88.79474543 -164.33787671 97.73897695 -206 127 Z " fill="#CC0B31" transform="translate(588,137)"/>
<path d="M0 0 C0.82838379 0.00974854 1.65676758 0.01949707 2.51025391 0.02954102 C20.18351285 0.53133229 36.10148983 8.82755214 51.81640625 16.22265625 C71.23201206 25.34750453 89.47796966 32.02430109 110.875 34.4375 C111.84920392 47.45394687 108.61213493 59.89705531 100.875 70.4375 C100.36195313 71.14390625 99.84890625 71.8503125 99.3203125 72.578125 C90.6575079 83.43771737 77.4239146 89.21542046 63.9296875 91.12109375 C45.96669564 92.98171055 27.90468066 89.24235576 13.2578125 78.38671875 C1.3864538 68.67555811 -5.75730187 57.80432513 -8.125 42.4375 C-8.45038857 34.0635295 -8.21993764 25.74729455 -7.125 17.4375 C-9.62997004 16.18501498 -11.33353274 16.32375594 -14.1328125 16.33984375 C-15.11894531 16.34306641 -16.10507812 16.34628906 -17.12109375 16.34960938 C-18.66990234 16.36217773 -18.66990234 16.36217773 -20.25 16.375 C-21.29027344 16.37951172 -22.33054687 16.38402344 -23.40234375 16.38867188 C-25.97661962 16.40048048 -28.55078146 16.41694925 -31.125 16.4375 C-31.455 15.7775 -31.785 15.1175 -32.125 14.4375 C-23.3845768 4.85122939 -12.99923266 -0.17478643 0 0 Z " fill="#CD0F34" transform="translate(418.125,408.5625)"/>
<path d="M0 0 C0.66 0.33 1.32 0.66 2 1 C-7.9 10.9 -17.8 20.8 -28 31 C-28.66 30.67 -29.32 30.34 -30 30 C-20.45044449 19.48056776 -10.48866001 9.58276516 0 0 Z " fill="#DF667C" transform="translate(262,231)"/>
<path d="M0 0 C0 0.99 0 1.98 0 3 C-3.01031744 3.93423645 -3.86650268 4.04449911 -7 3 C-8.33106622 2.65772583 -9.66400079 2.32248257 -11 2 C-3.375 0 -3.375 0 0 0 Z " fill="#E58193" transform="translate(397,626)"/>
</svg>
