<?xml version="1.0" encoding="UTF-8"?><svg id="uuid-cc38daa6-6965-41b4-bc6f-4741dd0efd1f" xmlns="http://www.w3.org/2000/svg" viewBox="0 0 316.23 316.23">
<title>Brooklyn Nets logo - Brandlogos.net</title><path d="M165.11,263.51c4.49,0,18.28-.04,29.76-9.83,10.18-9.23,11.23-20.1,11.52-32.34l-.08-34.46c0-10.78,0-23.99-11.26-33.3-2.55-2.11-5.41-3.8-8.49-5,5.13-3.41,8.93-8.49,10.76-14.38,1.31-4.8,1.86-9.77,1.64-14.73l-.09-30.68c-.28-8.49-1.21-18.16-8.07-26-6.06-6.67-15.18-10.13-26.74-10.13h-.22l-41.6.11c-1.26.02-2.46.52-3.36,1.4-.89.86-1.38,2.05-1.36,3.28l.35,201.41c-.01,1.65.86,3.17,2.28,4.01.79.49,1.7.75,2.63.75l42.33-.11h0ZM181.16,174.39c1.13,3.95,1.62,8.05,1.47,12.16l.08,28.55c0,13.02-.8,19.13-5.78,22.97-2.97,2.13-6.6,3.38-15.89,3.69,0,0-15.94.04-17.17.04-1.44,0-2-.88-2-2.24,0-11.75-.17-76.48-.17-77.02-.1-.68.36-1.31,1.04-1.41.11-.02.23-.02.34,0,5.61-.12,11.22.07,16.8.56,4.87.52,10.05,1.4,14.25,4.06,3.27,1.97,5.75,5.02,7.01,8.61l.03.02ZM142.69,74.14h11.47c14.94,0,21.37,2.21,21.37,17.47v25.84c-.19,6.21-.29,16.73-12.59,20.42-3.43.97-5.07,1.27-12.55,1.53h-7.4s-.1.02-.15.02c-1.16,0-1.47-.62-1.47-1.55,0-.6-.08-62.02-.08-62.02,0-1.01.35-1.58,1.4-1.7v-.02ZM158.12,0C70.79,0,0,70.79,0,158.11c0,87.32,70.79,158.11,158.11,158.12,87.32,0,158.11-70.79,158.12-158.11h0C316.12,70.83,245.4.1,158.11,0h0ZM301.26,119.51c2.76,10.21,4.41,20.68,4.92,31.23-4.36,8.65-12.94,15.78-19.19,19.28-.54-4.08-1.25-8.71-2.21-12.96-.97-4.36-2.03-8.65-3.17-12.85,4.95-3.03,9.28-6.96,12.77-11.6,2.97-3.98,5.29-8.4,6.86-13.11h0ZM158.12,9.86c54.95.03,105.38,30.44,131.06,79.02,6.24,11.59,5.55,25.69-1.81,36.61-.28.41-.56.8-.88,1.21-2.2,2.92-4.83,5.49-7.81,7.61-8.02-25.36-19.39-47.5-33.99-65.96-14.89-18.93-33.7-34.41-55.14-45.37-10.88-5.55-22.31-9.94-34.11-13.1.89,0,1.77-.04,2.67-.04h.03ZM61.78,270.69c-31.98-27.3-50.85-66.92-51.88-108.96,9,9.37,19.14,17.56,30.19,24.39,20.74,12.7,43.79,21.15,67.82,24.87v-10.01c-22-3.59-43.1-11.38-62.15-22.96-20.44-12.66-31.91-26.31-35.5-31.01,1.71-23.27,8.94-45.79,21.07-65.71,6.28-2.37,35.36-11.32,72.09,8.76,1.4.77,2.83,1.57,4.29,2.39v-11.3c-28.84-15.61-53.39-15.05-67.88-12.35,14.62-19.32,33.72-34.79,55.66-45.09,16.46-7.7,35.03-9.62,52.72-5.46,12.77,3,25.14,7.52,36.83,13.48,20.18,10.32,37.89,24.89,51.9,42.71,14.21,17.98,25.23,39.7,32.91,64.71-5.23,2.12-10.7,3.56-16.3,4.27-14.04,1.94-29.95-1.53-46.35-7.81-.75,3.22-2.03,6.28-3.78,9.08,14.47,5.56,28.77,9.14,42.14,9.14,3.12,0,6.25-.2,9.34-.62,6.06-.79,12-2.3,17.7-4.49.91,3.43,1.76,6.92,2.55,10.46,1.14,5.17,2,10.4,2.57,15.66-14.45,7.46-35.11,14.99-61.5,20.66v10.01c24.02-5.03,45.48-11.92,62.23-19.99.24,8.63-.37,17.26-1.83,25.77-8.88,5.6-17.24,11.99-24.99,19.08-23.5,20.75-46.28,39.01-87.36,52.16-20.66,6.62-41.47,7.37-56.93,6.49-16.79-.95-32.8-7.4-45.56-18.36v.04ZM266.16,245.2c-1.66,3.68-3.39,7.06-5.11,10.18-8.65,15.58-21.89,28.13-37.91,35.93-34.43,16.83-74.03,19.66-110.51,7.91,1.62.04,3.28.08,5,.08,16.83.12,33.57-2.35,49.64-7.33,42.83-13.73,67.43-33.45,90.89-54.15,5.97-5.26,11-9.3,15.27-12.42-1.93,6.78-4.36,13.4-7.27,19.82v-.02ZM275.41,248.65c4.42-9.87,7.75-20.19,9.92-30.79,5.95-2.97,8.61-2.74,9.51-2.5-5.01,11.89-11.54,23.08-19.42,33.29h0ZM298.83,204.77c-1.15-.32-2.35-.41-3.53-.26-2.75.23-5.46.81-8.07,1.72,1.04-8.54,1.31-17.15.8-25.73,3.07-1.76,6.04-3.68,8.91-5.74,3.24-2.32,6.29-4.91,9.12-7.72-.76,12.84-3.2,25.53-7.25,37.74h.02Z"/><path d="M142.79,140.1h7.51c7.56-.26,9.22-.59,12.71-1.57,12.45-3.72,12.58-14.39,12.75-20.69v-26.18c0-15.49-6.52-17.7-21.65-17.7h-11.62c-1.06.11-1.42.7-1.42,1.72,0,0,.08,62.25.08,62.84,0,.94.32,1.57,1.49,1.57h.15Z" style="fill:#fff;"/><path d="M181.4,173.78c-1.28-3.65-3.79-6.74-7.1-8.73-4.25-2.72-9.5-3.59-14.43-4.12-5.66-.49-11.34-.68-17.02-.57-.69-.09-1.32.4-1.4,1.09-.01.11-.01.23,0,.34,0,.55.17,66.12.17,78.02,0,1.38.57,2.27,2.02,2.27,1.25,0,17.4-.04,17.4-.04,9.41-.32,13.1-1.57,16.09-3.74,5.04-3.91,5.86-10.09,5.86-23.27l-.08-28.92c.15-4.16-.36-8.31-1.49-12.32l-.02-.02Z" style="fill:#fff;"/><path d="M277.96,185.43c-16.71,8.06-38.11,14.92-62.07,19.95v-9.99c26.31-5.68,46.92-13.19,61.34-20.62-.56-5.26-1.42-10.47-2.57-15.63-.78-3.53-1.66-7.02-2.55-10.44-5.69,2.2-11.61,3.7-17.66,4.49-3.09.42-6.2.63-9.32.61-13.36,0-27.61-3.55-42.05-9.12,1.76-2.79,3.04-5.85,3.78-9.06,16.37,6.27,32.24,9.73,46.25,7.8,5.58-.71,11.05-2.15,16.26-4.27-7.67-24.97-18.66-46.64-32.84-64.57-13.97-17.78-31.64-32.32-51.78-42.62-11.66-5.95-24-10.47-36.74-13.45-17.65-4.15-36.18-2.22-52.59,5.46-21.89,10.26-40.96,25.71-55.54,45,14.46-2.68,38.94-3.26,67.7,12.32v11.28c-1.43-.82-2.87-1.62-4.27-2.38-36.65-20.04-65.63-11.11-71.92-8.75-12.11,19.88-19.31,42.36-21.02,65.58,3.59,4.69,15.01,18.31,35.42,30.95,19,11.55,40.05,19.33,61.99,22.91v9.99c-23.97-3.72-46.96-12.15-67.65-24.83-11.03-6.81-21.15-14.99-30.12-24.34,1.02,41.95,19.84,81.49,51.76,108.74,12.73,10.93,28.7,17.37,45.45,18.33,15.42.86,36.19.13,56.8-6.47,40.99-13.12,63.72-31.34,87.16-52.05,7.73-7.07,16.08-13.44,24.93-19.04,1.45-8.49,2.06-17.11,1.82-25.72v-.04ZM194.57,253.41c-11.46,9.77-25.21,9.81-29.69,9.81l-42.23.11c-.93,0-1.84-.26-2.62-.74-1.41-.84-2.28-2.36-2.27-4l-.35-201c-.02-1.23.47-2.42,1.36-3.28.89-.88,2.09-1.38,3.35-1.4l41.51-.11h.22c11.53,0,20.63,3.46,26.68,10.12,6.85,7.82,7.78,17.48,8.06,25.94l.09,30.61c.22,4.96-.33,9.92-1.64,14.7-1.82,5.87-5.61,10.94-10.74,14.35,3.07,1.2,5.93,2.89,8.46,4.99,11.24,9.3,11.24,22.46,11.24,33.24l.08,34.39c-.29,12.21-1.34,23.06-11.5,32.27h0Z" style="fill:#fff;"/><path d="M257.4,236.77c-23.75,20.99-48.66,40.97-92.08,54.86-16.28,5.04-33.24,7.55-50.29,7.42-1.74,0-3.42-.02-5.06-.08,36.95,11.91,77.07,9.04,111.95-8.01,16.24-7.9,29.65-20.61,38.41-36.4,1.74-3.16,3.5-6.61,5.18-10.31,2.95-6.5,5.41-13.21,7.37-20.08-4.33,3.16-9.43,7.25-15.47,12.58v.02Z" style="fill:#fff;"/><path d="M301.06,119.23c-3.46,10.43-10.51,19.3-19.89,25.03,1.15,4.25,2.22,8.59,3.21,13.02.96,4.31,1.68,8.99,2.23,13.13,6.33-3.55,15.02-10.77,19.44-19.53-.52-10.69-2.19-21.3-4.99-31.64h0Z" style="fill:#fff;"/><path d="M284.94,217.48c-2.21,10.73-5.58,21.19-10.05,31.19,8.01-10.33,14.62-21.67,19.68-33.72-.91-.25-3.63-.47-9.63,2.53h0Z" style="fill:#fff;"/><path d="M243.76,69.23c14.79,18.7,26.31,41.13,34.43,66.82,3.02-2.15,5.69-4.75,7.92-7.71.3-.4.6-.81.88-1.23,7.44-11.06,8.15-25.34,1.83-37.08C262.81,40.83,211.73,10.03,156.06,9.98c-.91,0-1.8,0-2.7.04,11.95,3.19,23.54,7.63,34.55,13.26,21.73,11.1,40.79,26.78,55.86,45.96h-.01Z" style="fill:#fff;"/><path d="M298.6,204.92c4.11-12.37,6.58-25.22,7.35-38.24-2.87,2.84-5.96,5.46-9.24,7.82-2.91,2.09-5.92,4.03-9.03,5.82.5,8.7.23,17.42-.81,26.07,2.64-.92,5.39-1.5,8.18-1.74,1.2-.15,2.41-.06,3.57.26h-.02Z" style="fill:#fff;"/></svg>