<?xml version="1.0" encoding="UTF-8"?><svg id="uuid-38f1c78b-149d-4bde-9a5c-46b32e9917f7" xmlns="http://www.w3.org/2000/svg" viewBox="0 0 68 68">
<title>Detroit Pistons logo - Brandlogos.net</title><path d="M68,34c0,18.8-15.2,34-34,34S0,52.8,0,34,15.2,0,34,0s34,15.2,34,34Z" style="fill:#b5b3b3;"/><path d="M67,34c0,18.2-14.8,33-33,33S.9,52.2.9,34,15.7,1,33.9,1s33.1,14.8,33.1,33Z" style="fill:#0f4c92;"/><path d="M62.1,34c0,15.6-12.6,28.2-28.2,28.2S5.8,49.6,5.8,34,18.4,5.8,34,5.8c15.5,0,28.1,12.6,28.1,28.2Z" style="fill:#de1e35;"/><path d="M34,5.8c-15.6,0-28.2,12.7-28.2,28.2s12.6,28.2,28.2,28.2,28.2-12.6,28.2-28.2c-.1-15.5-12.7-28.2-28.2-28.2ZM7.4,34.8h5.2v-1.7h-5.2c0-.6.1-1.3.1-1.9,1.8-9.2,13-16.4,26.4-16.4s24.6,7.1,26.4,16.4c.1.6.1,1.2.1,1.9h-5.2v1.7h5.2c0,.6-.1,1.3-.1,1.9-1.8,9.2-13,16.4-26.4,16.4s-24.6-7.1-26.4-16.4c0-.6,0-1.2-.1-1.9ZM34,7.5c11.2,0,20.9,7,24.7,16.9-4.7-6.5-14-10.9-24.7-10.9s-20,4.4-24.7,10.9c3.8-9.9,13.4-16.9,24.7-16.9ZM34,60.5c-11.2,0-20.9-7-24.7-16.9,4.7,6.5,14,10.9,24.7,10.9s20-4.4,24.7-10.9c-3.9,9.9-13.5,16.9-24.7,16.9Z" style="fill:#fff;"/><path d="M35.1,29.2h.3c.3,0,.9.1.9.7v2.2c.1.5.5.8,1.2.9h.6v-3.2c0-.3-.1-.7-.4-.9v-.1c.3-.4.4-.7.4-1.3v-.3c0-2.5-.1-3-1.2-3.1h-3.9v8.7h2v-3.6h.1ZM35.1,25.6h.4c.5,0,.7,0,.7.9v1.2c0,.1,0,.2-.1.3,0,0-.1.1-.2.1h-.8v-2.5Z" style="fill:#fff;"/><rect x="45.5" y="24.2" width="1.9" height="8.7" style="fill:#fff;"/><path d="M28.8,32.9h2v-7.4h.1c.4,0,.6-.1.8-.3.4-.4.3-1,.3-1v-.1h-4.5v1.4h1.3s0,7.4,0,7.4Z" style="fill:#fff;"/><path d="M49.8,32.9h2v-7.4h.1c.4,0,.6-.1.8-.3.4-.4.3-1,.3-1v-.1h-4.5v1.4h1.3s0,7.4,0,7.4Z" style="fill:#fff;"/><polygon points="26.5 31.5 24.4 31.5 24.4 29.4 25.8 29.4 25.8 27.5 24.4 27.5 24.4 25.5 26.5 25.5 26.5 24.2 22.4 24.2 22.4 32.9 26.5 32.9 26.5 31.5" style="fill:#fff;"/><path d="M19.9,24.2h-5v.1s-.1.5.3.9c.2.2.5.4.9.4v7.4h3.7c.8,0,1.4-.7,1.4-1.8v-4c0-2.4,0-3-1.3-3ZM19.2,31.5h-1.1v-6h.8c.3.1.3.6.3.6.1.8,0,4.9,0,5.4Z" style="fill:#fff;"/><rect x="22.1" y="34.7" width="2" height="8.9" style="fill:#fff;"/><path d="M29.7,34.7h-3.1c-.6,0-1,.3-1.1.8v.1s-.1,1.7,0,2.2c.3.8.9,1.1,1.5,1.2h.2c.1,0,.1.1.1.1v3.2h-1.6v1.2h2.2c.8,0,1.3-.4,1.5-.9.1-.4.1-3.4,0-4.1,0-.2-.1-.4-.3-.6-.1-.1-.2-.1-.3-.2-.1-.1-.2-.1-.4-.2-.5-.2-1-.5-1-1.1v-.5h1.6c.3,0,.6-.2.7-.5.1-.2.2-.5.2-.5-.2.1-.2,0-.2-.2h0Z" style="fill:#fff;"/><path d="M38.8,34.7c-.4,0-.9,0-1.3.1-1,.2-1.4.9-1.4,2v5.3c0,1.4,1,1.6,2.4,1.6,1.8,0,2.8-.6,2.8-1.7v-5.5c0-1.8-1.2-1.8-2.5-1.8ZM38.1,36.7c0-.2,0-.4.1-.6h.3c.7,0,.7.2.7,1.4v4.3h-.4c-.2,0-.4-.1-.5-.2-.2-.2-.2-.4-.2-.8v-3.8c0,.3,0-.1,0-.3Z" style="fill:#fff;"/><path d="M45.9,38.5c-1-3.4-2.5-3.8-3.1-3.8h-.3v8.9h2v-3.6l1.4,3.6h2v-8.9h-2s0,3.8,0,3.8Z" style="fill:#fff;"/><path d="M19.6,34.7h-5.1v.1s0,1.1,1.1,1.3v7.6h2.1v-3.8h1.7c.9,0,1.4-.6,1.4-1.7v-.3c.1-2.5,0-3-1.2-3.2ZM18.8,38.7h-1.1v-2.6h.7c.2,0,.4.1.4.4v2.2Z" style="fill:#fff;"/><path d="M35.4,34.7h-4.7v1.4h1.3v7.5h2v-7.6h.1c.4,0,.7-.1.9-.3.5-.3.4-.9.4-1h0Z" style="fill:#fff;"/><path d="M53.4,34.7h-3.1c-.6,0-1,.3-1.1.8v.1s-.1,1.7,0,2.2c.3.8.9,1.1,1.5,1.2h.2c.1,0,.1.1.1.1v3.2h-1.6v1.2h2.2c.8,0,1.3-.4,1.5-.9.1-.4.1-3.4,0-4.1,0-.2-.1-.4-.3-.6-.1-.1-.2-.1-.3-.2-.1-.1-.2-.1-.4-.2-.5-.2-1-.5-1-1.1v-.5h1.6c.3,0,.6-.2.7-.5.1-.2.2-.5.2-.5-.2.1-.2,0-.2-.2h0Z" style="fill:#fff;"/><path d="M42,24.2c-.4,0-.9,0-1.3.1-1,.2-1.4.9-1.4,1.9v5.2c0,1.3,1,1.6,2.4,1.6,1.8,0,2.8-.6,2.8-1.7v-5.4c-.1-1.7-1.2-1.7-2.5-1.7ZM41.3,26.2c0-.2,0-.4.1-.5h.3c.7,0,.7.2.7,1.4v4.3h-.4c-.2,0-.4-.1-.5-.2-.2-.2-.2-.4-.2-.7v-3.7c0-.1,0-.5,0-.6Z" style="fill:#fff;"/></svg>